<svg width="33" height="40" viewBox="0 0 33 40" fill="none" xmlns="http://www.w3.org/2000/svg">
<path d="M7.42234 37.388C7.45701 37.388 7.50901 37.4227 7.57834 37.492C7.68234 37.5267 7.75168 37.5613 7.78634 37.596C7.99434 37.6653 8.25434 37.7867 8.56634 37.96C8.87834 38.0987 9.19034 38.2373 9.50234 38.376C9.81434 38.5147 10.0917 38.6533 10.3343 38.792C10.577 38.896 10.7157 38.948 10.7503 38.948C10.785 38.9827 10.8717 39.0173 11.0103 39.052C11.149 39.0867 11.253 39.1213 11.3223 39.156C11.461 39.1907 11.6517 39.2427 11.8943 39.312C12.137 39.3813 12.3797 39.4333 12.6223 39.468C12.8997 39.5373 13.125 39.5893 13.2983 39.624C13.5063 39.6933 13.645 39.728 13.7143 39.728C13.853 39.7627 14.113 39.7973 14.4943 39.832C14.9103 39.9013 15.1703 39.936 15.2743 39.936H17.1463H19.0183C19.0877 39.936 19.313 39.9013 19.6943 39.832C20.1103 39.7973 20.405 39.7627 20.5783 39.728C20.613 39.728 20.7343 39.6933 20.9423 39.624C21.1503 39.5893 21.289 39.5547 21.3583 39.52C21.5317 39.4853 21.7917 39.416 22.1383 39.312C22.485 39.208 22.693 39.156 22.7623 39.156C23.2477 38.9827 23.6983 38.7747 24.1143 38.532C24.565 38.2893 25.0157 38.0293 25.4663 37.752C25.5357 37.7173 25.6397 37.648 25.7783 37.544C25.9517 37.44 26.0557 37.388 26.0903 37.388L28.6383 34.84C28.6383 34.8053 28.6903 34.7187 28.7943 34.58C28.8983 34.4067 28.985 34.2853 29.0543 34.216C29.1237 34.112 29.2277 33.9387 29.3663 33.696C29.505 33.4533 29.5917 33.2973 29.6263 33.228C29.6957 33.1587 29.7997 32.968 29.9383 32.656C30.077 32.344 30.1637 32.1533 30.1983 32.084C30.233 32.0493 30.285 31.9453 30.3543 31.772C30.4237 31.5987 30.493 31.408 30.5623 31.2C30.6317 30.992 30.701 30.784 30.7703 30.576C30.8743 30.368 30.9437 30.212 30.9783 30.108C31.013 30.0387 31.0477 29.9347 31.0823 29.796C31.1517 29.6573 31.1863 29.5707 31.1863 29.536C31.221 29.3973 31.2557 29.2067 31.2903 28.964C31.325 28.7213 31.3597 28.4787 31.3943 28.236C31.4637 27.9587 31.5157 27.7333 31.5503 27.56C31.585 27.352 31.6023 27.2133 31.6023 27.144V26.156V25.22C31.5677 25.1853 31.533 25.1507 31.4983 25.116C31.4637 25.0467 31.429 25.012 31.3943 25.012H31.2903H31.1863C31.1517 25.012 31.117 25.0467 31.0823 25.116C31.0477 25.1507 31.013 25.1853 30.9783 25.22C30.909 25.7053 30.8397 26.1907 30.7703 26.676C30.7357 27.1613 30.6837 27.6467 30.6143 28.132C30.5797 28.3053 30.5277 28.548 30.4583 28.86C30.4237 29.1373 30.4063 29.2933 30.4063 29.328C30.337 29.5013 30.233 29.8307 30.0943 30.316C29.9903 30.8013 29.9037 31.1307 29.8343 31.304C29.7997 31.3387 29.7303 31.46 29.6263 31.668C29.557 31.876 29.4877 32.0147 29.4183 32.084C29.349 32.1533 29.245 32.3267 29.1063 32.604C28.9677 32.8467 28.881 33.0027 28.8463 33.072C28.7423 33.2453 28.5517 33.5053 28.2743 33.852C28.0317 34.164 27.893 34.3547 27.8583 34.424L25.6743 36.608C25.6397 36.6427 25.553 36.712 25.4143 36.816C25.2757 36.8853 25.1717 36.9373 25.1023 36.972L24.9983 37.024L24.8943 36.972C24.8597 36.972 24.825 36.9547 24.7903 36.92C24.7557 36.8507 24.721 36.816 24.6863 36.816V35.828V34.84C24.6863 34.5973 24.7037 34.0253 24.7383 33.124C24.773 32.2227 24.7903 31.252 24.7903 30.212C24.825 29.172 24.8423 28.2013 24.8423 27.3C24.877 26.3987 24.8943 25.8267 24.8943 25.584V24.024C24.8943 23.8507 24.8943 23.4347 24.8943 22.776C24.929 22.1173 24.9637 21.424 24.9983 20.696C25.033 19.9333 25.0503 19.2227 25.0503 18.564C25.085 17.9053 25.1023 17.4893 25.1023 17.316V14.404C25.1023 14.3 25.1023 14.144 25.1023 13.936C25.137 13.728 25.1543 13.52 25.1543 13.312C25.189 13.0693 25.2237 12.844 25.2583 12.636C25.293 12.428 25.3103 12.2893 25.3103 12.22C25.3103 12.1853 25.3277 12.1507 25.3623 12.116C25.4317 12.0813 25.4663 12.0467 25.4663 12.012C25.501 12.012 25.5877 11.9947 25.7263 11.96C25.8997 11.9253 26.073 11.8907 26.2463 11.856C26.4543 11.7867 26.6277 11.7347 26.7663 11.7C26.9397 11.6653 27.0437 11.648 27.0783 11.648C27.1477 11.6133 27.3037 11.544 27.5463 11.44C27.8237 11.336 27.997 11.2667 28.0663 11.232C28.1357 11.1973 28.2917 11.1107 28.5343 10.972C28.777 10.8333 28.9503 10.7293 29.0543 10.66C29.1237 10.5907 29.245 10.4867 29.4183 10.348C29.6263 10.2093 29.765 10.1053 29.8343 10.036C29.9037 9.96667 30.025 9.84533 30.1983 9.672C30.4063 9.464 30.545 9.32533 30.6143 9.256C30.6837 9.18667 30.805 8.996 30.9783 8.684C31.1863 8.372 31.325 8.18133 31.3943 8.112C31.429 8.04267 31.481 7.86933 31.5503 7.592C31.6543 7.28 31.7237 7.05466 31.7583 6.916C31.793 6.812 31.8277 6.63867 31.8623 6.396C31.9317 6.15333 31.9663 5.99733 31.9663 5.928C31.9663 5.89333 31.9663 5.72 31.9663 5.408C32.001 5.096 32.0183 4.85333 32.0183 4.68C32.0183 4.576 32.001 4.368 31.9663 4.056C31.9663 3.70933 31.9663 3.484 31.9663 3.38C31.9317 3.44933 31.8623 3.588 31.7583 3.796C31.689 3.96933 31.637 4.09066 31.6023 4.16C31.5677 4.19467 31.533 4.29867 31.4983 4.472C31.4637 4.61067 31.429 4.69733 31.3943 4.732C31.3597 4.80133 31.2383 4.94 31.0303 5.148C30.8223 5.356 30.6837 5.49467 30.6143 5.564C30.5797 5.59867 30.5103 5.63333 30.4063 5.668C30.3023 5.70266 30.233 5.72 30.1983 5.72C30.1983 5.72 30.0943 5.73733 29.8863 5.772C29.6783 5.772 29.5223 5.772 29.4183 5.772C29.3143 5.772 29.1583 5.772 28.9503 5.772C28.777 5.73733 28.673 5.72 28.6383 5.72C28.6037 5.72 28.517 5.70266 28.3783 5.668C28.2397 5.63333 28.1357 5.59867 28.0663 5.564C27.9623 5.52933 27.8237 5.47733 27.6503 5.408C27.477 5.304 27.2863 5.21733 27.0783 5.148C26.905 5.044 26.7317 4.95733 26.5583 4.888C26.4197 4.81866 26.333 4.76666 26.2983 4.732C26.229 4.69733 26.0557 4.628 25.7783 4.524C25.5357 4.38533 25.2757 4.24666 24.9983 4.108C24.721 3.93466 24.4437 3.77866 24.1663 3.64C23.9237 3.50133 23.7677 3.41467 23.6983 3.38C23.5943 3.34533 23.421 3.276 23.1783 3.172C22.9703 3.03333 22.745 2.89467 22.5023 2.756C22.2597 2.61733 22.017 2.496 21.7743 2.392C21.5663 2.288 21.4277 2.21867 21.3583 2.184C21.289 2.14933 21.133 2.09733 20.8903 2.028C20.6477 1.924 20.4743 1.85466 20.3703 1.82C20.301 1.78533 20.1103 1.716 19.7983 1.612C19.4863 1.508 19.2957 1.43866 19.2263 1.404C19.157 1.36933 18.9837 1.3 18.7063 1.196C18.4637 1.092 18.3077 1.04 18.2383 1.04C18.2037 1.04 18.0997 1.02267 17.9263 0.988C17.753 0.918665 17.545 0.849332 17.3023 0.779999C17.0943 0.710665 16.869 0.641331 16.6263 0.571999C16.3837 0.502664 16.193 0.450664 16.0543 0.415998C15.985 0.381332 15.8463 0.346665 15.6383 0.311999C15.4303 0.277331 15.309 0.242664 15.2743 0.207997C15.1357 0.173331 14.9103 0.138665 14.5983 0.103999C14.321 0.0693324 14.1477 0.0519993 14.0783 0.0519993C14.0783 0.0519993 13.9743 0.0519993 13.7663 0.0519993C13.5583 0.017331 13.4023 -3.09944e-06 13.2983 -3.09944e-06C13.229 -3.09944e-06 13.0903 0.017331 12.8823 0.0519993C12.6743 0.0519993 12.553 0.0519993 12.5183 0.0519993C12.3797 0.0519993 12.085 0.0866656 11.6343 0.155998C11.1837 0.190664 10.889 0.207997 10.7503 0.207997C10.5077 0.277332 10.1263 0.363998 9.60634 0.467997C9.12101 0.537332 8.84368 0.589332 8.77434 0.623998C8.73968 0.623998 8.60101 0.693332 8.35834 0.831999C8.15034 0.935999 7.89034 1.05733 7.57834 1.196C7.30101 1.33466 7.00634 1.49066 6.69434 1.664C6.41701 1.80266 6.19168 1.90666 6.01834 1.976C5.94901 2.04533 5.84501 2.132 5.70634 2.236C5.56768 2.30533 5.48101 2.35733 5.44634 2.392C5.30768 2.496 5.11701 2.66933 4.87434 2.912C4.66634 3.15467 4.44101 3.39733 4.19834 3.64C3.99034 3.848 3.78234 4.056 3.57434 4.264C3.40101 4.43733 3.29701 4.54133 3.26234 4.576C3.22768 4.61067 3.08901 4.87067 2.84634 5.356C2.60368 5.84133 2.41301 6.22267 2.27434 6.5C2.27434 6.56933 2.22234 6.74267 2.11834 7.02C2.01434 7.26267 1.94501 7.41867 1.91034 7.488C1.63301 8.18133 1.42501 8.87467 1.28634 9.568C1.14768 10.2267 1.07834 10.92 1.07834 11.648C1.07834 11.7173 1.07834 11.8387 1.07834 12.012C1.11301 12.1507 1.13034 12.22 1.13034 12.22L1.33834 12.428C1.33834 12.3933 1.35568 12.3587 1.39034 12.324C1.45968 12.2893 1.49434 12.2547 1.49434 12.22C1.52901 12.1853 1.56368 12.064 1.59834 11.856C1.66768 11.6133 1.70234 11.4747 1.70234 11.44C1.70234 11.4053 1.73701 11.336 1.80634 11.232C1.87568 11.128 1.91034 11.0587 1.91034 11.024C1.91034 10.9893 1.92768 10.9027 1.96234 10.764C2.03168 10.5907 2.08368 10.4867 2.11834 10.452C2.15301 10.348 2.20501 10.2267 2.27434 10.088C2.37834 9.91466 2.46501 9.74133 2.53434 9.568C2.63834 9.39466 2.72501 9.23866 2.79434 9.1C2.86368 8.96133 2.89834 8.892 2.89834 8.892C2.93301 8.82266 3.08901 8.64933 3.36634 8.372C3.67834 8.06 3.90368 7.83466 4.04234 7.696C4.07701 7.696 4.12901 7.67866 4.19834 7.644C4.30234 7.57467 4.38901 7.52267 4.45834 7.488C4.56234 7.45333 4.78768 7.36666 5.13434 7.228C5.51568 7.08933 5.74101 6.98533 5.81034 6.916H7.63034H9.39834C9.43301 6.916 9.53701 6.95066 9.71034 7.02C9.91834 7.05467 10.0743 7.08933 10.1783 7.124C10.317 7.15866 10.5943 7.24533 11.0103 7.384C11.461 7.52266 11.773 7.62666 11.9463 7.696C11.981 7.73067 12.1197 7.8 12.3623 7.904C12.605 7.97333 12.7957 8.04267 12.9343 8.112C12.969 8.112 13.0383 8.14667 13.1423 8.216C13.281 8.28533 13.4197 8.35467 13.5583 8.424C13.7317 8.45867 13.8877 8.51067 14.0263 8.58C14.165 8.64933 14.2517 8.684 14.2863 8.684C14.321 8.684 14.4077 8.71867 14.5463 8.788C14.7197 8.85733 14.893 8.92666 15.0663 8.996C15.2397 9.03067 15.3957 9.08267 15.5343 9.152C15.7077 9.22133 15.8117 9.256 15.8463 9.256C15.9503 9.29066 16.1583 9.37733 16.4703 9.516C16.817 9.65467 17.1637 9.81067 17.5103 9.984C17.8917 10.1227 18.2383 10.2613 18.5503 10.4C18.897 10.5387 19.1223 10.6253 19.2263 10.66C19.2957 10.6947 19.4863 10.764 19.7983 10.868C20.1103 10.972 20.301 11.024 20.3703 11.024C20.4397 11.0587 20.509 11.1107 20.5783 11.18C20.6823 11.2147 20.7517 11.232 20.7863 11.232V11.336V11.44L20.5783 11.648C20.5437 11.648 20.457 11.6827 20.3183 11.752C20.1797 11.7867 20.0757 11.804 20.0063 11.804C19.937 11.8387 19.781 11.8907 19.5383 11.96C19.3303 11.9947 19.0877 12.0467 18.8103 12.116C18.533 12.1853 18.273 12.2547 18.0303 12.324C17.8223 12.3933 17.6837 12.428 17.6143 12.428C17.5797 12.428 17.4757 12.4627 17.3023 12.532C17.1637 12.5667 17.077 12.6013 17.0423 12.636C16.8343 12.7053 16.5223 12.8093 16.1063 12.948C15.6903 13.052 15.2743 13.1733 14.8583 13.312C14.4423 13.416 14.061 13.52 13.7143 13.624C13.3677 13.728 13.1597 13.78 13.0903 13.78C12.917 13.8493 12.6223 13.936 12.2063 14.04C11.825 14.1093 11.5997 14.1613 11.5303 14.196C11.461 14.196 11.305 14.1787 11.0623 14.144C10.8543 14.1093 10.7157 14.092 10.6463 14.092C10.6463 14.0227 10.629 13.884 10.5943 13.676C10.5597 13.4333 10.5423 13.2773 10.5423 13.208C10.5423 13.1733 10.5943 13.0347 10.6983 12.792C10.8023 12.5493 10.889 12.3587 10.9583 12.22C10.9583 12.1507 10.9757 12.0813 11.0103 12.012C11.0797 11.908 11.1317 11.8387 11.1663 11.804C11.2357 11.7347 11.3397 11.596 11.4783 11.388C11.617 11.18 11.7037 11.0587 11.7383 11.024C11.773 11.024 11.8597 10.972 11.9983 10.868C12.137 10.764 12.241 10.6947 12.3103 10.66C12.3797 10.5907 12.501 10.5213 12.6743 10.452C12.8823 10.348 13.021 10.2787 13.0903 10.244C13.1943 10.2093 13.4023 10.1573 13.7143 10.088C14.0263 9.984 14.217 9.91467 14.2863 9.88V9.412C14.217 9.412 14.0437 9.42933 13.7663 9.464C13.5237 9.464 13.3677 9.464 13.2983 9.464C13.229 9.464 13.0557 9.49867 12.7783 9.568C12.5357 9.60267 12.3797 9.63733 12.3103 9.672C12.2757 9.672 12.137 9.724 11.8943 9.828C11.6517 9.932 11.461 10.0013 11.3223 10.036C11.3223 10.0707 11.2703 10.1227 11.1663 10.192C11.0623 10.2267 10.993 10.244 10.9583 10.244C10.889 10.2787 10.7503 10.348 10.5423 10.452C10.3343 10.5213 10.109 10.6253 9.86634 10.764C9.62368 10.868 9.38101 10.972 9.13834 11.076C8.93034 11.1453 8.80901 11.1973 8.77434 11.232C8.73968 11.2667 8.60101 11.3533 8.35834 11.492C8.11568 11.6307 7.92501 11.7347 7.78634 11.804C7.71701 11.8733 7.61301 11.96 7.47434 12.064C7.33568 12.1333 7.24901 12.1853 7.21434 12.22C7.14501 12.2893 7.02368 12.3933 6.85034 12.532C6.67701 12.6707 6.50368 12.8267 6.33034 13C6.15701 13.1387 5.98368 13.2947 5.81034 13.468C5.63701 13.6067 5.51568 13.7107 5.44634 13.78C5.37701 13.8493 5.25568 13.9707 5.08234 14.144C4.94368 14.2827 4.78768 14.4387 4.61434 14.612C4.44101 14.7853 4.28501 14.9587 4.14634 15.132C4.00768 15.2707 3.92101 15.3573 3.88634 15.392C3.85168 15.4267 3.78234 15.5307 3.67834 15.704C3.57434 15.8427 3.50501 15.9293 3.47034 15.964C3.43568 15.9987 3.33168 16.12 3.15834 16.328C3.01968 16.536 2.93301 16.6747 2.89834 16.744C2.86368 16.744 2.82901 16.796 2.79434 16.9C2.75968 17.004 2.72501 17.0907 2.69034 17.16C2.62101 17.3333 2.48234 17.6453 2.27434 18.096C2.10101 18.5467 1.97968 18.824 1.91034 18.928C1.84101 19.032 1.75434 19.2053 1.65034 19.448C1.58101 19.6907 1.52901 19.8293 1.49434 19.864C1.45968 20.0373 1.39034 20.3667 1.28634 20.852C1.21701 21.3373 1.16501 21.6667 1.13034 21.84C1.13034 21.9093 1.11301 22.048 1.07834 22.256C1.04368 22.464 1.00901 22.6893 0.974344 22.932C0.974344 23.14 0.95701 23.348 0.922344 23.556C0.922344 23.764 0.922344 23.92 0.922344 24.024V25.272V26.364C0.922344 26.468 0.939677 26.6413 0.974344 26.884C1.00901 27.092 1.04368 27.3173 1.07834 27.56C1.14768 27.8027 1.19968 28.0453 1.23434 28.288C1.26901 28.496 1.30368 28.652 1.33834 28.756C1.33834 28.756 1.40768 28.964 1.54634 29.38C1.71968 29.7613 1.84101 30.0733 1.91034 30.316C1.97968 30.42 2.04901 30.5933 2.11834 30.836C2.22234 31.0787 2.27434 31.2347 2.27434 31.304C2.34368 31.4427 2.44768 31.6507 2.58634 31.928C2.75968 32.2053 2.86368 32.3787 2.89834 32.448C2.89834 32.4827 3.01968 32.6907 3.26234 33.072C3.53968 33.4187 3.74768 33.6787 3.88634 33.852C3.95568 33.956 4.05968 34.112 4.19834 34.32C4.33701 34.4933 4.42368 34.5973 4.45834 34.632L5.03034 35.204C5.13434 35.308 5.29034 35.464 5.49834 35.672C5.74101 35.88 5.98368 36.1053 6.22634 36.348C6.46901 36.556 6.69434 36.764 6.90234 36.972C7.14501 37.18 7.31834 37.3187 7.42234 37.388ZM4.45834 28.548V28.132C4.52768 28.2013 4.66634 28.34 4.87434 28.548C5.08234 28.756 5.30768 28.9813 5.55034 29.224C5.79301 29.432 6.01834 29.64 6.22634 29.848C6.43434 30.056 6.57301 30.212 6.64234 30.316C6.67701 30.3507 6.76368 30.4547 6.90234 30.628C7.07568 30.8013 7.24901 30.992 7.42234 31.2C7.59568 31.3733 7.75168 31.564 7.89034 31.772C8.06368 31.9453 8.16768 32.0493 8.20234 32.084L8.77434 32.656C8.80901 32.6907 8.89568 32.7947 9.03434 32.968C9.17301 33.1067 9.31168 33.2627 9.45034 33.436C9.62368 33.6093 9.77968 33.7827 9.91834 33.956C10.057 34.0947 10.1437 34.1813 10.1783 34.216C10.213 34.2853 10.3343 34.424 10.5423 34.632C10.7503 34.84 10.889 34.9787 10.9583 35.048C10.993 35.0827 11.097 35.204 11.2703 35.412C11.4437 35.5853 11.617 35.7933 11.7903 36.036C11.9983 36.244 12.189 36.452 12.3623 36.66C12.5357 36.8333 12.657 36.9373 12.7263 36.972C12.761 37.0067 12.8303 37.0933 12.9343 37.232C13.0383 37.336 13.1597 37.4573 13.2983 37.596C13.437 37.7347 13.5583 37.856 13.6623 37.96C13.7663 38.064 13.8357 38.1333 13.8703 38.168C13.9397 38.2373 14.009 38.3413 14.0783 38.48C14.1823 38.584 14.2517 38.6707 14.2863 38.74C14.2517 38.74 14.1823 38.7573 14.0783 38.792C14.009 38.792 13.9397 38.792 13.8703 38.792C13.8357 38.792 13.7663 38.792 13.6623 38.792C13.5583 38.7573 13.5063 38.74 13.5063 38.74C13.4717 38.74 13.385 38.7227 13.2463 38.688C13.1077 38.6533 13.0037 38.6187 12.9343 38.584C12.8303 38.5147 12.6743 38.4453 12.4663 38.376C12.2583 38.272 12.137 38.2027 12.1023 38.168L10.7503 36.816C10.6463 36.6773 10.3863 36.4 9.97034 35.984C9.58901 35.568 9.17301 35.1173 8.72234 34.632C8.27168 34.112 7.82101 33.6093 7.37034 33.124C6.95434 32.6387 6.64234 32.292 6.43434 32.084C6.33034 31.98 6.20901 31.8587 6.07034 31.72C5.93168 31.5467 5.77568 31.3733 5.60234 31.2C5.46368 31.0267 5.34234 30.8707 5.23834 30.732C5.13434 30.5933 5.06501 30.524 5.03034 30.524C4.99568 30.4547 4.92634 30.316 4.82234 30.108C4.75301 29.9 4.70101 29.7613 4.66634 29.692C4.63168 29.6227 4.57968 29.5013 4.51034 29.328C4.47568 29.12 4.45834 28.9813 4.45834 28.912V28.548ZM11.3223 33.696V33.436C11.357 33.4013 11.4783 33.3493 11.6863 33.28C11.8943 33.176 12.033 33.1067 12.1023 33.072C12.137 33.0373 12.2583 33.0027 12.4663 32.968C12.6743 32.8987 12.8823 32.8293 13.0903 32.76C13.333 32.6907 13.541 32.6387 13.7143 32.604C13.9223 32.5347 14.0437 32.4827 14.0783 32.448C14.113 32.448 14.1997 32.4307 14.3383 32.396C14.5117 32.3267 14.633 32.292 14.7023 32.292C14.737 32.2573 14.8583 32.2227 15.0663 32.188C15.2743 32.1187 15.413 32.084 15.4823 32.084C15.5517 32.0493 15.777 31.98 16.1583 31.876C16.5397 31.772 16.765 31.7027 16.8343 31.668C16.869 31.668 16.973 31.6507 17.1463 31.616C17.3197 31.5813 17.5103 31.5467 17.7183 31.512C17.9263 31.4773 18.1343 31.4427 18.3423 31.408C18.5503 31.3387 18.7063 31.304 18.8103 31.304C18.8797 31.2693 19.0703 31.2347 19.3823 31.2C19.729 31.1307 19.937 31.096 20.0063 31.096C20.0757 31.0613 20.2143 31.0267 20.4223 30.992C20.6303 30.9573 20.7517 30.9227 20.7863 30.888C20.821 30.888 20.8557 30.8707 20.8903 30.836C20.925 30.7667 20.9597 30.7147 20.9943 30.68C20.9943 30.5413 20.9943 30.2987 20.9943 29.952C21.029 29.6053 21.0463 29.2413 21.0463 28.86C21.081 28.444 21.0983 28.0627 21.0983 27.716C21.133 27.3693 21.1503 27.1267 21.1503 26.988C21.1503 26.884 21.1503 26.6067 21.1503 26.156C21.1503 25.6707 21.1503 25.168 21.1503 24.648C21.1503 24.0933 21.1503 23.5907 21.1503 23.14C21.1503 22.6547 21.1503 22.36 21.1503 22.256C21.1503 22.152 21.1677 21.8747 21.2023 21.424C21.237 20.9733 21.2543 20.488 21.2543 19.968C21.289 19.448 21.3063 18.98 21.3063 18.564C21.341 18.1133 21.3583 17.836 21.3583 17.732V12.792C21.3583 12.7573 21.3757 12.7053 21.4103 12.636C21.4797 12.532 21.5317 12.4627 21.5663 12.428C21.601 12.3933 21.653 12.324 21.7223 12.22C21.8263 12.116 21.8957 12.0467 21.9303 12.012C21.965 12.012 22.0343 11.9947 22.1383 11.96C22.2423 11.8907 22.3117 11.8387 22.3463 11.804C22.4157 11.804 22.537 11.7867 22.7103 11.752C22.9183 11.6827 23.057 11.648 23.1263 11.648H23.3343H23.5423C23.577 11.648 23.629 11.6827 23.6983 11.752C23.8023 11.7867 23.8717 11.804 23.9063 11.804L24.1143 12.012V16.848V21.632C24.1143 21.8053 24.097 22.1867 24.0623 22.776C24.0623 23.3307 24.045 23.9547 24.0103 24.648C24.0103 25.3067 23.993 25.9307 23.9583 26.52C23.9237 27.0747 23.9063 27.4213 23.9063 27.56V27.768C23.9063 27.9067 23.889 28.2707 23.8543 28.86C23.8543 29.4493 23.837 30.0907 23.8023 30.784C23.8023 31.4773 23.785 32.136 23.7503 32.76C23.7157 33.3493 23.6983 33.7133 23.6983 33.852C23.6983 33.9213 23.6983 34.0773 23.6983 34.32C23.6983 34.528 23.6983 34.7707 23.6983 35.048C23.6983 35.2907 23.6983 35.5333 23.6983 35.776C23.6983 36.0187 23.6983 36.1573 23.6983 36.192C23.6983 36.2613 23.681 36.452 23.6463 36.764C23.6117 37.076 23.577 37.284 23.5423 37.388C23.5077 37.4573 23.473 37.544 23.4383 37.648C23.4037 37.7173 23.369 37.752 23.3343 37.752C23.2997 37.7867 23.161 37.8907 22.9183 38.064C22.6757 38.2027 22.485 38.3067 22.3463 38.376C22.277 38.4107 22.1903 38.4453 22.0863 38.48C22.017 38.5147 21.965 38.5493 21.9303 38.584C21.861 38.6187 21.705 38.6533 21.4623 38.688C21.2197 38.7227 21.0637 38.74 20.9943 38.74C20.9597 38.74 20.7863 38.7573 20.4743 38.792C20.197 38.792 19.9717 38.792 19.7983 38.792C19.625 38.792 19.3823 38.792 19.0703 38.792C18.793 38.7573 18.637 38.74 18.6023 38.74C18.5677 38.74 18.4463 38.7227 18.2383 38.688C18.065 38.6533 17.9263 38.6187 17.8223 38.584C17.6837 38.5147 17.4583 38.4453 17.1463 38.376C16.869 38.272 16.6957 38.2027 16.6263 38.168C16.557 38.1333 16.4183 38.0813 16.2103 38.012C16.037 37.908 15.8463 37.804 15.6383 37.7C15.4303 37.596 15.2397 37.492 15.0663 37.388C14.893 37.284 14.7717 37.2147 14.7023 37.18C14.633 37.1453 14.4423 37.0413 14.1303 36.868C13.853 36.66 13.645 36.504 13.5063 36.4C13.437 36.3307 13.2983 36.2267 13.0903 36.088C12.8823 35.9493 12.761 35.8627 12.7263 35.828L11.9463 35.048C11.877 34.944 11.7557 34.7707 11.5823 34.528C11.4437 34.2853 11.357 34.1293 11.3223 34.06V33.696ZM9.76234 36.4C9.86634 36.4 9.91834 36.4693 9.91834 36.608C9.91834 36.7467 9.86634 36.816 9.76234 36.816C9.65834 36.816 9.60634 36.7467 9.60634 36.608C9.60634 36.4693 9.65834 36.4 9.76234 36.4ZM7.00634 33.748V33.644L7.99434 34.632C8.06368 34.7013 8.16768 34.8227 8.30634 34.996C8.47968 35.1693 8.63568 35.3427 8.77434 35.516C8.94768 35.6893 9.10368 35.8627 9.24234 36.036C9.38101 36.2093 9.48501 36.3307 9.55434 36.4H9.39834C9.39834 36.4 9.32901 36.348 9.19034 36.244C9.05168 36.14 8.89568 36.0187 8.72234 35.88C8.58368 35.7067 8.41034 35.5507 8.20234 35.412C8.02901 35.2733 7.89034 35.152 7.78634 35.048C7.71701 34.9787 7.63034 34.9093 7.52634 34.84C7.45701 34.736 7.42234 34.6667 7.42234 34.632C7.38768 34.5627 7.31834 34.4413 7.21434 34.268C7.11034 34.06 7.04101 33.9213 7.00634 33.852V33.748ZM3.78234 25.012H4.04234C4.07701 25.012 4.23301 25.168 4.51034 25.48C4.82234 25.7573 5.06501 25.9827 5.23834 26.156C5.34234 26.26 5.51568 26.4507 5.75834 26.728C6.00101 27.0053 6.26101 27.3 6.53834 27.612C6.81568 27.8893 7.05834 28.1493 7.26634 28.392C7.50901 28.6347 7.68234 28.808 7.78634 28.912C7.95968 29.0853 8.18501 29.3627 8.46234 29.744C8.77434 30.0907 8.94768 30.2813 8.98234 30.316C9.01701 30.3853 9.10368 30.6453 9.24234 31.096C9.38101 31.5467 9.48501 31.876 9.55434 32.084C9.58901 32.1187 9.60634 32.188 9.60634 32.292C9.60634 32.396 9.60634 32.4827 9.60634 32.552C9.60634 32.552 9.57168 32.552 9.50234 32.552C9.43301 32.5173 9.39834 32.4827 9.39834 32.448C9.36368 32.448 9.25968 32.3787 9.08634 32.24C8.94768 32.0667 8.84368 31.9453 8.77434 31.876C8.63568 31.7373 8.41034 31.512 8.09834 31.2C7.82101 30.888 7.52634 30.576 7.21434 30.264C6.90234 29.9173 6.60768 29.6053 6.33034 29.328C6.08768 29.0507 5.91434 28.86 5.81034 28.756C5.70634 28.652 5.56768 28.496 5.39434 28.288C5.22101 28.08 5.03034 27.872 4.82234 27.664C4.64901 27.456 4.47568 27.2653 4.30234 27.092C4.16368 26.9187 4.07701 26.8147 4.04234 26.78C4.00768 26.7453 3.97301 26.676 3.93834 26.572C3.90368 26.468 3.88634 26.3987 3.88634 26.364C3.85168 26.26 3.81701 26.0347 3.78234 25.688C3.78234 25.3413 3.78234 25.116 3.78234 25.012ZM9.55434 22.776V19.084C9.55434 19.0147 9.57168 18.7547 9.60634 18.304C9.67568 17.8533 9.72768 17.524 9.76234 17.316C9.79701 17.212 9.83168 17.0213 9.86634 16.744C9.90101 16.432 9.93568 16.2413 9.97034 16.172C9.97034 16.1027 9.98768 15.9987 10.0223 15.86C10.0917 15.6867 10.1437 15.5827 10.1783 15.548L10.5423 15.184C10.681 15.1147 10.9757 15.0453 11.4263 14.976C11.877 14.872 12.1717 14.8027 12.3103 14.768C12.3797 14.768 12.5183 14.768 12.7263 14.768C12.9343 14.7333 13.073 14.716 13.1423 14.716C13.1423 14.9933 13.1423 15.496 13.1423 16.224C13.1423 16.952 13.1423 17.732 13.1423 18.564C13.1423 19.396 13.125 20.176 13.0903 20.904C13.0903 21.632 13.0903 22.152 13.0903 22.464C13.0903 22.6373 13.073 23.0707 13.0383 23.764C13.0383 24.4573 13.021 25.2027 12.9863 26C12.9863 26.7973 12.969 27.5427 12.9343 28.236C12.9343 28.9293 12.9343 29.3627 12.9343 29.536V30.316C12.8997 30.4547 12.8477 30.6973 12.7783 31.044C12.7437 31.3907 12.7263 31.5987 12.7263 31.668C12.6917 31.7373 12.657 31.824 12.6223 31.928C12.5877 31.9973 12.553 32.0493 12.5183 32.084C12.449 32.1187 12.2757 32.188 11.9983 32.292C11.7557 32.396 11.5997 32.448 11.5303 32.448C11.5303 32.448 11.461 32.4653 11.3223 32.5C11.2183 32.5 11.1317 32.5 11.0623 32.5C10.993 32.5 10.9063 32.5 10.8023 32.5C10.6983 32.4653 10.6117 32.448 10.5423 32.448C10.5423 32.4133 10.5077 32.3267 10.4383 32.188C10.4037 32.0493 10.369 31.9453 10.3343 31.876C10.2997 31.7027 10.2303 31.46 10.1263 31.148C10.0223 30.8013 9.97034 30.5933 9.97034 30.524C9.93568 30.42 9.88368 30.2467 9.81434 30.004C9.77968 29.7613 9.76234 29.6053 9.76234 29.536C9.76234 29.3973 9.74501 29.1893 9.71034 28.912C9.67568 28.6 9.64101 28.288 9.60634 27.976C9.60634 27.664 9.58901 27.3867 9.55434 27.144C9.55434 26.8667 9.55434 26.676 9.55434 26.572V22.776ZM15.2223 29.276C15.2223 29.276 15.257 29.2933 15.3263 29.328C15.3957 29.328 15.4477 29.328 15.4823 29.328C15.517 29.328 15.5863 29.3627 15.6903 29.432C15.7943 29.4667 15.8463 29.5013 15.8463 29.536C15.9157 29.6053 16.0717 29.7787 16.3143 30.056C16.5917 30.2987 16.765 30.4547 16.8343 30.524L16.8863 30.68C16.8863 30.7147 16.869 30.7667 16.8343 30.836C16.8343 30.8707 16.8343 30.888 16.8343 30.888C16.7997 30.9227 16.713 30.9573 16.5743 30.992C16.4357 31.0267 16.3317 31.0613 16.2623 31.096H15.9503H15.6383C15.6383 31.096 15.6037 31.0787 15.5343 31.044C15.4997 30.9747 15.4823 30.9227 15.4823 30.888C15.4477 30.8533 15.3957 30.784 15.3263 30.68C15.2917 30.576 15.2743 30.524 15.2743 30.524C15.2743 30.42 15.257 30.212 15.2223 29.9C15.2223 29.588 15.2223 29.38 15.2223 29.276ZM15.2743 27.144C15.2743 27.1093 15.2917 27.0227 15.3263 26.884C15.3957 26.7453 15.4477 26.6413 15.4823 26.572C15.517 26.5373 15.5517 26.52 15.5863 26.52L15.6383 26.572C15.777 26.676 16.0197 26.9013 16.3663 27.248C16.713 27.5947 16.9383 27.82 17.0423 27.924C17.077 27.9933 17.1463 28.0973 17.2503 28.236C17.389 28.3747 17.5277 28.5307 17.6663 28.704C17.8397 28.8773 17.9783 29.0507 18.0823 29.224C18.221 29.3627 18.325 29.4667 18.3943 29.536C18.4637 29.6053 18.5677 29.744 18.7063 29.952C18.8797 30.1253 18.9837 30.2467 19.0183 30.316C19.0183 30.316 19.0183 30.3507 19.0183 30.42C19.053 30.4547 19.0703 30.4893 19.0703 30.524H17.6143C17.6143 30.524 17.545 30.4547 17.4063 30.316C17.2677 30.1773 17.0943 30.0213 16.8863 29.848C16.713 29.64 16.5223 29.4493 16.3143 29.276C16.141 29.068 15.985 28.8947 15.8463 28.756C15.8117 28.6867 15.7423 28.5827 15.6383 28.444C15.5343 28.3053 15.4823 28.2013 15.4823 28.132C15.4477 28.0627 15.3957 27.9067 15.3263 27.664C15.2917 27.3867 15.2743 27.2133 15.2743 27.144ZM15.6383 25.792C15.5343 25.688 15.4823 25.5493 15.4823 25.376C15.4823 25.376 15.465 25.272 15.4303 25.064C15.4303 24.856 15.4303 24.7 15.4303 24.596C15.4303 24.5267 15.4303 24.4053 15.4303 24.232C15.465 24.024 15.4823 23.8853 15.4823 23.816L19.2263 27.56C19.3303 27.6987 19.5037 27.924 19.7463 28.236C20.0237 28.5133 20.1623 28.6867 20.1623 28.756C20.197 28.756 20.2143 28.808 20.2143 28.912C20.2143 29.016 20.2143 29.1027 20.2143 29.172C20.2143 29.2413 20.2143 29.3453 20.2143 29.484C20.2143 29.6227 20.197 29.692 20.1623 29.692C20.1623 29.8653 20.1103 30.004 20.0063 30.108H19.9023H19.7983C19.729 30.0733 19.6077 29.9867 19.4343 29.848C19.2957 29.6747 19.1397 29.5013 18.9663 29.328C18.8277 29.1547 18.6717 28.9987 18.4983 28.86C18.3597 28.7213 18.273 28.6173 18.2383 28.548C18.1343 28.444 17.961 28.2707 17.7183 28.028C17.4757 27.7507 17.2157 27.4733 16.9383 27.196C16.661 26.884 16.401 26.6067 16.1583 26.364C15.9157 26.0867 15.7423 25.896 15.6383 25.792ZM3.83434 23.348C3.83434 23.2787 3.83434 23.2093 3.83434 23.14C3.86901 23.0707 3.88634 23.036 3.88634 23.036C3.88634 22.9667 3.90368 22.8627 3.93834 22.724C4.00768 22.5853 4.04234 22.4987 4.04234 22.464C4.07701 22.4293 4.09434 22.412 4.09434 22.412C4.12901 22.412 4.14634 22.412 4.14634 22.412C4.21568 22.412 4.25034 22.4293 4.25034 22.464C4.83968 22.984 5.37701 23.5213 5.86234 24.076C6.34768 24.6307 6.86768 25.2027 7.42234 25.792C7.45701 25.8267 7.57834 25.948 7.78634 26.156C8.02901 26.364 8.16768 26.5027 8.20234 26.572C8.23701 26.6067 8.27168 26.676 8.30634 26.78C8.34101 26.8493 8.37568 26.9187 8.41034 26.988C8.41034 27.0573 8.42768 27.248 8.46234 27.56C8.53168 27.8373 8.56634 28.028 8.56634 28.132C8.56634 28.1667 8.56634 28.2187 8.56634 28.288C8.60101 28.3227 8.61834 28.3747 8.61834 28.444C8.61834 28.4787 8.60101 28.5307 8.56634 28.6C8.56634 28.6693 8.56634 28.7213 8.56634 28.756C8.53168 28.7213 8.46234 28.6867 8.35834 28.652C8.28901 28.6173 8.23701 28.5827 8.20234 28.548C8.16768 28.5133 8.08101 28.4267 7.94234 28.288C7.80368 28.1147 7.69968 27.9933 7.63034 27.924C7.52634 27.8547 7.37034 27.716 7.16234 27.508C6.95434 27.2653 6.72901 27.0227 6.48634 26.78C6.27834 26.5373 6.07034 26.312 5.86234 26.104C5.65434 25.8613 5.51568 25.688 5.44634 25.584C5.37701 25.48 5.25568 25.3587 5.08234 25.22C4.94368 25.0467 4.80501 24.8733 4.66634 24.7C4.52768 24.5267 4.38901 24.388 4.25034 24.284C4.14634 24.1453 4.07701 24.0587 4.04234 24.024C4.04234 23.9893 4.00768 23.92 3.93834 23.816C3.90368 23.712 3.88634 23.6427 3.88634 23.608C3.88634 23.608 3.86901 23.5733 3.83434 23.504C3.83434 23.4347 3.83434 23.3827 3.83434 23.348ZM15.4303 21.944C15.4303 21.8747 15.4303 21.788 15.4303 21.684C15.465 21.5453 15.4823 21.476 15.4823 21.476C15.4823 21.4413 15.4997 21.4067 15.5343 21.372C15.6037 21.3027 15.6383 21.268 15.6383 21.268C15.7423 21.372 15.933 21.5627 16.2103 21.84C16.4877 22.0827 16.765 22.36 17.0423 22.672C17.3543 22.9493 17.6317 23.2267 17.8743 23.504C18.117 23.7467 18.2903 23.92 18.3943 24.024C18.533 24.1627 18.7063 24.336 18.9143 24.544C19.1223 24.752 19.313 24.96 19.4863 25.168C19.6597 25.376 19.8157 25.5667 19.9543 25.74C20.093 25.9133 20.1623 26 20.1623 26V27.56H20.0063C20.0063 27.56 19.9197 27.4907 19.7463 27.352C19.6077 27.1787 19.4343 26.988 19.2263 26.78C19.0183 26.572 18.793 26.364 18.5503 26.156C18.3423 25.9133 18.169 25.7227 18.0303 25.584C17.8917 25.4453 17.701 25.2547 17.4583 25.012C17.2503 24.7693 17.025 24.5267 16.7823 24.284C16.5743 24.0413 16.3663 23.816 16.1583 23.608C15.985 23.4 15.881 23.2787 15.8463 23.244C15.8117 23.1747 15.7423 23.0533 15.6383 22.88C15.5343 22.672 15.4823 22.5333 15.4823 22.464C15.4823 22.4293 15.465 22.36 15.4303 22.256C15.4303 22.1173 15.4303 22.0133 15.4303 21.944ZM4.04234 21.268V20.956V20.696C4.07701 20.6267 4.11168 20.5227 4.14634 20.384C4.21568 20.2107 4.25034 20.1067 4.25034 20.072H4.45834H4.66634L4.87434 20.28C4.90901 20.3493 5.04768 20.5053 5.29034 20.748C5.53301 20.9907 5.77568 21.268 6.01834 21.58C6.29568 21.8573 6.53834 22.1173 6.74634 22.36C6.98901 22.6027 7.14501 22.7587 7.21434 22.828L7.78634 23.4C7.85568 23.4693 7.94234 23.5907 8.04634 23.764C8.15034 23.9027 8.20234 23.9893 8.20234 24.024C8.23701 24.128 8.27168 24.4053 8.30634 24.856C8.34101 25.272 8.35834 25.532 8.35834 25.636C8.32368 25.636 8.25434 25.636 8.15034 25.636C8.08101 25.6013 8.02901 25.584 7.99434 25.584L7.63034 25.22C7.49168 25.0813 7.24901 24.8213 6.90234 24.44C6.55568 24.0587 6.19168 23.66 5.81034 23.244C5.46368 22.828 5.11701 22.4293 4.77034 22.048C4.42368 21.6667 4.18101 21.4067 4.04234 21.268ZM15.4303 19.5C15.4303 19.4307 15.4303 19.3613 15.4303 19.292C15.465 19.188 15.4823 19.1187 15.4823 19.084C15.4823 19.0493 15.4997 18.9627 15.5343 18.824C15.6037 18.6853 15.6383 18.5813 15.6383 18.512C15.7423 18.616 15.9157 18.7893 16.1583 19.032C16.401 19.2747 16.661 19.5347 16.9383 19.812C17.2157 20.0547 17.4757 20.2973 17.7183 20.54C17.961 20.7827 18.1343 20.956 18.2383 21.06C18.377 21.2333 18.5503 21.4413 18.7583 21.684C19.001 21.892 19.2263 22.1173 19.4343 22.36C19.6423 22.6027 19.8157 22.8107 19.9543 22.984C20.093 23.1573 20.1623 23.244 20.1623 23.244V24.804H20.0063C19.9717 24.804 19.7463 24.6133 19.3303 24.232C18.949 23.816 18.637 23.4867 18.3943 23.244C18.2903 23.1053 18.0997 22.8973 17.8223 22.62C17.5797 22.3427 17.3197 22.0653 17.0423 21.788C16.765 21.5107 16.505 21.2507 16.2623 21.008C16.0543 20.7307 15.9157 20.5573 15.8463 20.488C15.777 20.4187 15.6903 20.3147 15.5863 20.176C15.517 20.0373 15.4823 19.9333 15.4823 19.864C15.4823 19.864 15.465 19.8293 15.4303 19.76C15.4303 19.656 15.4303 19.5693 15.4303 19.5ZM4.61434 18.824C4.61434 18.7893 4.61434 18.7373 4.61434 18.668C4.64901 18.564 4.66634 18.512 4.66634 18.512C4.66634 18.4773 4.68368 18.4253 4.71834 18.356C4.78768 18.252 4.83968 18.1653 4.87434 18.096L5.03034 17.94C5.13434 18.0093 5.29034 18.148 5.49834 18.356C5.70634 18.564 5.91434 18.7893 6.12234 19.032C6.36501 19.24 6.59034 19.448 6.79834 19.656C7.00634 19.864 7.14501 20.0027 7.21434 20.072C7.35301 20.2453 7.54368 20.488 7.78634 20.8C8.02901 21.0773 8.16768 21.2333 8.20234 21.268C8.23701 21.372 8.28901 21.6147 8.35834 21.996C8.42768 22.3427 8.46234 22.568 8.46234 22.672C8.42768 22.672 8.34101 22.672 8.20234 22.672C8.09834 22.672 8.02901 22.6547 7.99434 22.62C7.95968 22.62 7.87301 22.5853 7.73434 22.516C7.59568 22.412 7.49168 22.3253 7.42234 22.256C7.38768 22.256 7.35301 22.2387 7.31834 22.204C7.28368 22.1347 7.24901 22.0827 7.21434 22.048C7.07568 21.9093 6.88501 21.7187 6.64234 21.476C6.39968 21.1987 6.15701 20.9387 5.91434 20.696C5.70634 20.4187 5.51568 20.1933 5.34234 20.02C5.16901 19.812 5.06501 19.708 5.03034 19.708C4.99568 19.6387 4.92634 19.5347 4.82234 19.396C4.71834 19.2573 4.66634 19.1533 4.66634 19.084C4.66634 19.084 4.64901 19.0493 4.61434 18.98C4.61434 18.9107 4.61434 18.8587 4.61434 18.824ZM15.8463 17.732C15.8117 17.6973 15.777 17.6453 15.7423 17.576C15.7077 17.472 15.673 17.3853 15.6383 17.316C15.6383 17.212 15.621 16.9867 15.5863 16.64C15.5863 16.2933 15.5863 16.068 15.5863 15.964H15.8463C15.8463 15.964 15.9503 16.068 16.1583 16.276C16.3663 16.4493 16.5917 16.6747 16.8343 16.952C17.1117 17.2293 17.389 17.5067 17.6663 17.784C17.9783 18.0613 18.221 18.304 18.3943 18.512C18.4637 18.5813 18.585 18.72 18.7583 18.928C18.9317 19.1013 19.105 19.292 19.2783 19.5C19.4863 19.708 19.6597 19.916 19.7983 20.124C19.9717 20.2973 20.093 20.4187 20.1623 20.488C20.197 20.5227 20.2317 20.592 20.2663 20.696C20.3357 20.7653 20.3703 20.8173 20.3703 20.852C20.3703 20.8867 20.3703 20.9907 20.3703 21.164C20.405 21.3027 20.4223 21.4067 20.4223 21.476C20.4223 21.5453 20.405 21.6667 20.3703 21.84C20.3703 21.9787 20.3703 22.048 20.3703 22.048C20.3703 22.1867 20.301 22.256 20.1623 22.256C19.4343 21.528 18.7063 20.7827 17.9783 20.02C17.2503 19.2573 16.5397 18.4947 15.8463 17.732ZM5.44634 17.316V17.056V16.744C5.44634 16.7093 5.46368 16.6573 5.49834 16.588C5.56768 16.484 5.61968 16.3973 5.65434 16.328C5.65434 16.2933 5.67168 16.2587 5.70634 16.224C5.77568 16.1893 5.81034 16.172 5.81034 16.172C5.84501 16.172 5.89701 16.1893 5.96634 16.224C6.07034 16.2587 6.15701 16.2933 6.22634 16.328C6.22634 16.3627 6.24368 16.3973 6.27834 16.432C6.34768 16.4667 6.39968 16.5013 6.43434 16.536C6.57301 16.6747 6.74634 16.8653 6.95434 17.108C7.16234 17.3507 7.37034 17.5933 7.57834 17.836C7.78634 18.044 7.97701 18.2347 8.15034 18.408C8.32368 18.5813 8.41034 18.6853 8.41034 18.72C8.51434 18.824 8.56634 18.9453 8.56634 19.084C8.56634 19.2573 8.54901 19.5 8.51434 19.812C8.47968 20.124 8.44501 20.28 8.41034 20.28H8.20234C8.16768 20.28 7.94234 20.0893 7.52634 19.708C7.14501 19.292 6.85034 18.9627 6.64234 18.72C6.53834 18.616 6.33034 18.3907 6.01834 18.044C5.70634 17.6627 5.51568 17.42 5.44634 17.316ZM15.8463 14.976C15.8117 14.9413 15.777 14.8893 15.7423 14.82C15.7077 14.716 15.673 14.6293 15.6383 14.56V14.3V13.988C15.673 13.9187 15.7077 13.8493 15.7423 13.78C15.777 13.676 15.8117 13.6067 15.8463 13.572H16.0543H16.2623C16.3663 13.676 16.5917 13.9187 16.9383 14.3C17.285 14.6467 17.5103 14.872 17.6143 14.976C17.8223 15.184 18.0823 15.4613 18.3943 15.808C18.7063 16.1547 19.001 16.484 19.2783 16.796C19.5903 17.108 19.8503 17.3853 20.0583 17.628C20.2663 17.836 20.3703 17.94 20.3703 17.94V19.604C20.3357 19.604 20.2663 19.5867 20.1623 19.552C20.093 19.5173 20.041 19.5 20.0063 19.5C19.9717 19.5 19.9023 19.448 19.7983 19.344C19.729 19.24 19.6597 19.1533 19.5903 19.084C19.4517 18.9453 19.1917 18.6853 18.8103 18.304C18.4637 17.888 18.0997 17.472 17.7183 17.056C17.337 16.6053 16.9557 16.1893 16.5743 15.808C16.2277 15.4267 15.985 15.1493 15.8463 14.976ZM6.22634 15.392C6.22634 15.3573 6.24368 15.3053 6.27834 15.236C6.34768 15.132 6.39968 15.0453 6.43434 14.976C6.46901 14.9067 6.52101 14.8373 6.59034 14.768C6.69434 14.664 6.76368 14.5947 6.79834 14.56H6.90234H7.00634C7.14501 14.6987 7.40501 14.976 7.78634 15.392C8.20234 15.7733 8.46234 16.0333 8.56634 16.172C8.60101 16.2067 8.63568 16.276 8.67034 16.38C8.73968 16.4493 8.77434 16.5013 8.77434 16.536V16.952V17.316C8.77434 17.3853 8.73968 17.4893 8.67034 17.628C8.63568 17.7667 8.60101 17.8707 8.56634 17.94C8.49701 17.8707 8.35834 17.7493 8.15034 17.576C7.97701 17.368 7.78634 17.16 7.57834 16.952C7.37034 16.744 7.17968 16.5533 7.00634 16.38C6.83301 16.172 6.71168 16.0333 6.64234 15.964C6.57301 15.8947 6.48634 15.7907 6.38234 15.652C6.27834 15.5133 6.22634 15.4267 6.22634 15.392ZM17.0423 13.416C17.0423 13.2773 17.1117 13.208 17.2503 13.208C17.285 13.1733 17.337 13.1387 17.4063 13.104C17.5103 13.0347 17.5797 13 17.6143 13H17.9263H18.2383C18.3077 13.0693 18.429 13.208 18.6023 13.416C18.8103 13.5893 19.0183 13.78 19.2263 13.988C19.4343 14.196 19.625 14.404 19.7983 14.612C19.9717 14.7853 20.093 14.9067 20.1623 14.976C20.2317 15.0453 20.3183 15.1493 20.4223 15.288C20.5263 15.4267 20.5783 15.5133 20.5783 15.548V16.016V16.536C20.5783 16.6053 20.5437 16.692 20.4743 16.796C20.4397 16.8653 20.405 16.9173 20.3703 16.952H20.2663H20.1623C20.093 16.8827 19.937 16.7267 19.6943 16.484C19.4517 16.2067 19.2957 16.0333 19.2263 15.964C19.157 15.8947 19.0357 15.7733 18.8623 15.6C18.7237 15.4267 18.5677 15.2533 18.3943 15.08C18.221 14.9067 18.0477 14.7333 17.8743 14.56C17.7357 14.3867 17.649 14.2653 17.6143 14.196C17.545 14.1267 17.441 14.0053 17.3023 13.832C17.1983 13.624 17.1117 13.4853 17.0423 13.416ZM7.37034 13.884L7.42234 13.78L7.99434 13.208C7.99434 13.208 8.01168 13.208 8.04634 13.208C8.11568 13.1733 8.16768 13.156 8.20234 13.156C8.23701 13.156 8.27168 13.1733 8.30634 13.208C8.34101 13.208 8.37568 13.208 8.41034 13.208L8.98234 13.78C9.01701 13.8493 9.05168 13.936 9.08634 14.04C9.15568 14.1093 9.19034 14.1613 9.19034 14.196V14.664V15.184C9.19034 15.2187 9.15568 15.288 9.08634 15.392C9.05168 15.4613 9.01701 15.5133 8.98234 15.548L7.42234 13.988C7.42234 13.988 7.40501 13.988 7.37034 13.988C7.37034 13.9533 7.37034 13.9187 7.37034 13.884ZM19.0183 12.792C19.0183 12.792 19.0357 12.7747 19.0703 12.74C19.1397 12.6707 19.1917 12.636 19.2263 12.636C19.261 12.6013 19.365 12.5667 19.5383 12.532C19.7463 12.4627 19.9023 12.428 20.0063 12.428H20.1103H20.1623C20.2317 12.4627 20.3183 12.532 20.4223 12.636C20.5263 12.7053 20.5783 12.7573 20.5783 12.792V13.26V13.78C20.5783 13.8493 20.5437 13.936 20.4743 14.04C20.4397 14.1093 20.405 14.1613 20.3703 14.196H20.2663H20.1623L19.3823 13.416C19.3477 13.3467 19.2783 13.2427 19.1743 13.104C19.105 12.9653 19.053 12.8613 19.0183 12.792ZM8.77434 12.636C8.77434 12.6013 8.79168 12.5493 8.82634 12.48C8.89568 12.376 8.94768 12.2893 8.98234 12.22C9.01701 12.1853 9.05168 12.1507 9.08634 12.116C9.12101 12.0467 9.15568 12.012 9.19034 12.012H9.45034H9.76234C9.79701 12.012 9.83168 12.0467 9.86634 12.116C9.90101 12.1507 9.93568 12.1853 9.97034 12.22V12.324V12.428C9.93568 12.4973 9.90101 12.6013 9.86634 12.74C9.83168 12.8787 9.79701 12.9653 9.76234 13C9.76234 13.1387 9.69301 13.208 9.55434 13.208H9.34634H9.19034C9.12101 13.1733 9.03434 13.0867 8.93034 12.948C8.86101 12.8093 8.80901 12.7053 8.77434 12.636ZM23.6983 9.672C23.5943 9.568 23.4037 9.37733 23.1263 9.1C22.849 8.82267 22.5543 8.528 22.2423 8.216C21.9303 7.904 21.6357 7.60933 21.3583 7.332C21.081 7.02 20.8903 6.812 20.7863 6.708C20.717 6.63866 20.561 6.48266 20.3183 6.24C20.0757 5.96267 19.7983 5.668 19.4863 5.356C19.209 5.044 18.949 4.74933 18.7063 4.472C18.4637 4.19466 18.3077 4.02133 18.2383 3.952C18.2037 3.952 18.1343 3.9 18.0303 3.796C17.9263 3.692 17.857 3.62267 17.8223 3.588C17.753 3.484 17.6317 3.36267 17.4583 3.224C17.3197 3.05067 17.181 2.87733 17.0423 2.704C16.9037 2.53067 16.765 2.37467 16.6263 2.236C16.5223 2.09733 16.4703 2.01067 16.4703 1.976C16.4357 1.94133 16.3837 1.88933 16.3143 1.82C16.2797 1.716 16.2623 1.64666 16.2623 1.612H16.5743H16.8343C16.9037 1.612 17.025 1.64667 17.1983 1.716C17.4063 1.75067 17.545 1.78533 17.6143 1.82C17.6837 1.82 17.753 1.85466 17.8223 1.924C17.9263 1.95867 17.9957 1.976 18.0303 1.976C18.1343 2.08 18.325 2.288 18.6023 2.6C18.9143 2.912 19.2437 3.24133 19.5903 3.588C19.937 3.9 20.249 4.212 20.5263 4.524C20.8383 4.836 21.0463 5.044 21.1503 5.148C21.2197 5.21733 21.3757 5.39066 21.6183 5.668C21.8957 5.94533 22.173 6.24 22.4503 6.552C22.7277 6.864 22.9877 7.15867 23.2303 7.436C23.473 7.67866 23.629 7.83466 23.6983 7.904C23.7677 7.97333 23.941 8.14667 24.2183 8.424C24.4957 8.66667 24.6517 8.82266 24.6863 8.892C24.7557 8.96133 24.8597 9.1 24.9983 9.308C25.137 9.48133 25.241 9.60266 25.3103 9.672L25.1023 9.88H24.8943H24.6863C24.617 9.84533 24.4437 9.81066 24.1663 9.776C23.9237 9.74133 23.7677 9.70667 23.6983 9.672ZM19.9543 2.86L20.0063 2.808C20.041 2.808 20.1277 2.84267 20.2663 2.912C20.405 2.94667 20.509 2.964 20.5783 2.964C20.7517 3.03333 21.0117 3.15466 21.3583 3.328C21.705 3.46666 21.8957 3.55333 21.9303 3.588C21.9997 3.588 22.1557 3.692 22.3983 3.9C22.641 4.108 22.8143 4.264 22.9183 4.368C22.953 4.40267 23.005 4.472 23.0743 4.576C23.1783 4.64533 23.265 4.69733 23.3343 4.732C23.473 4.90533 23.7503 5.21733 24.1663 5.668C24.5823 6.11867 25.0157 6.604 25.4663 7.124C25.9517 7.60933 26.385 8.07733 26.7663 8.528C27.1823 8.97867 27.477 9.29067 27.6503 9.464V9.568V9.672C27.6157 9.70667 27.5463 9.74133 27.4423 9.776C27.373 9.81066 27.321 9.84533 27.2863 9.88H26.8703H26.4543C26.3157 9.74133 26.0557 9.49867 25.6743 9.152C25.3277 8.77067 24.9637 8.38933 24.5823 8.008C24.201 7.62666 23.837 7.26266 23.4903 6.916C23.1437 6.53467 22.901 6.27467 22.7623 6.136C22.693 6.06667 22.5543 5.928 22.3463 5.72C22.1383 5.47733 21.913 5.23467 21.6703 4.992C21.4623 4.74933 21.2543 4.524 21.0463 4.316C20.8383 4.07333 20.6823 3.9 20.5783 3.796C20.509 3.72667 20.405 3.588 20.2663 3.38C20.1277 3.172 20.041 3.03333 20.0063 2.964C20.0063 2.964 19.989 2.964 19.9543 2.964C19.9543 2.92933 19.9543 2.89467 19.9543 2.86ZM24.2703 4.732H24.5303C24.5303 4.76666 24.565 4.80133 24.6343 4.836C24.7383 4.87067 24.825 4.90533 24.8943 4.94C25.1023 5.044 25.4317 5.21733 25.8823 5.46C26.333 5.70267 26.593 5.85867 26.6623 5.928C26.7317 5.99733 26.8357 6.084 26.9743 6.188C27.1477 6.25733 27.2517 6.30933 27.2863 6.344C27.3557 6.41333 27.5463 6.604 27.8583 6.916C28.1703 7.19333 28.361 7.384 28.4303 7.488C28.4997 7.55733 28.6383 7.73067 28.8463 8.008C29.0543 8.25066 29.1757 8.40666 29.2103 8.476L29.2623 8.58C29.2623 8.61466 29.245 8.64933 29.2103 8.684C29.2103 8.71867 29.1583 8.788 29.0543 8.892C28.9503 8.96133 28.881 9.03067 28.8463 9.1C28.8117 9.1 28.7423 9.13466 28.6383 9.204C28.569 9.23867 28.4997 9.256 28.4303 9.256C28.4303 9.256 28.413 9.27333 28.3783 9.308C28.3783 9.308 28.361 9.308 28.3263 9.308L28.2223 9.256L27.6503 8.684C27.6157 8.64933 27.5117 8.528 27.3383 8.32C27.165 8.112 26.9743 7.904 26.7663 7.696C26.5583 7.488 26.3677 7.29733 26.1943 7.124C26.021 6.916 25.917 6.77733 25.8823 6.708C25.8477 6.67333 25.709 6.552 25.4663 6.344C25.2583 6.136 25.137 5.99733 25.1023 5.928C25.033 5.85867 24.8943 5.70267 24.6863 5.46C24.4783 5.18266 24.357 5.00933 24.3223 4.94C24.2877 4.94 24.2703 4.90533 24.2703 4.836C24.2703 4.76667 24.2703 4.732 24.2703 4.732ZM13.0903 1.04C13.1597 1.04 13.2463 1.04 13.3503 1.04C13.4543 1.00533 13.541 0.988 13.6103 0.988C13.6797 0.988 13.7663 1.00533 13.8703 1.04C14.009 1.04 14.0783 1.04 14.0783 1.04C14.1477 1.04 14.2863 1.07467 14.4943 1.144C14.7023 1.17866 14.8237 1.196 14.8583 1.196L15.4823 1.82C15.5517 1.88933 15.7423 2.09733 16.0543 2.444C16.3663 2.756 16.6957 3.10267 17.0423 3.484C17.389 3.86533 17.7183 4.22933 18.0303 4.576C18.3423 4.888 18.533 5.07866 18.6023 5.148C19.1917 5.80667 19.781 6.46533 20.3703 7.124C20.9943 7.748 21.5837 8.40666 22.1383 9.1H21.9303H21.7743C21.705 9.06533 21.549 9.01333 21.3063 8.944C21.0637 8.84 20.8903 8.75333 20.7863 8.684C20.613 8.61467 20.3703 8.51066 20.0583 8.372C19.781 8.19866 19.625 8.112 19.5903 8.112C19.521 8.04267 19.313 7.83467 18.9663 7.488C18.6543 7.14133 18.4117 6.88133 18.2383 6.708C17.857 6.32666 17.389 5.84133 16.8343 5.252C16.2797 4.66267 15.7423 4.09067 15.2223 3.536C14.7023 2.94666 14.2517 2.444 13.8703 2.028C13.489 1.612 13.2983 1.404 13.2983 1.404L13.0903 1.04ZM28.7943 7.02L28.8463 6.916C28.8463 6.77733 28.9157 6.708 29.0543 6.708H29.3143H29.6263C29.6957 6.74267 29.7997 6.77733 29.9383 6.812C30.077 6.84667 30.1637 6.88133 30.1983 6.916C30.3717 7.02 30.5103 7.15867 30.6143 7.332L29.8343 8.112L28.8463 7.124L28.7943 7.02ZM17.4583 6.708C17.5277 6.708 17.5623 6.77733 17.5623 6.916C17.5623 7.05466 17.5277 7.124 17.4583 7.124C17.3543 7.124 17.3023 7.05466 17.3023 6.916C17.3023 6.77733 17.3543 6.708 17.4583 6.708ZM10.9583 1.612C10.9583 1.57733 10.941 1.54267 10.9063 1.508C10.9063 1.47333 10.9063 1.43866 10.9063 1.404C10.9063 1.36933 10.9063 1.33466 10.9063 1.3C10.941 1.26533 10.9583 1.23067 10.9583 1.196C10.9583 1.196 11.0103 1.17866 11.1143 1.144C11.2183 1.07467 11.2877 1.04 11.3223 1.04C11.357 1.04 11.409 1.04 11.4783 1.04C11.5477 1.00533 11.5997 0.988 11.6343 0.988C11.669 0.988 11.721 1.00533 11.7903 1.04C11.8597 1.04 11.9117 1.04 11.9463 1.04C12.085 1.04 12.2063 1.092 12.3103 1.196L13.2983 2.184C13.333 2.25333 13.4543 2.392 13.6623 2.6C13.8703 2.808 14.0783 3.03333 14.2863 3.276C14.4943 3.51867 14.685 3.76133 14.8583 4.004C15.0663 4.212 15.205 4.33333 15.2743 4.368L15.6383 4.732C15.8117 4.90533 16.0197 5.148 16.2623 5.46C16.5397 5.73733 16.765 5.98 16.9383 6.188C17.1117 6.36133 17.2157 6.46533 17.2503 6.5V6.812C17.181 6.812 17.077 6.812 16.9383 6.812C16.7997 6.77733 16.6957 6.74267 16.6263 6.708C16.5917 6.708 16.453 6.67333 16.2103 6.604C15.9677 6.5 15.777 6.41333 15.6383 6.344C15.6037 6.30933 15.5343 6.27467 15.4303 6.24C15.3263 6.17066 15.2743 6.136 15.2743 6.136L14.0783 4.94C13.9743 4.836 13.7663 4.628 13.4543 4.316C13.177 4.004 12.865 3.67466 12.5183 3.328C12.1717 2.94666 11.8423 2.6 11.5303 2.288C11.253 1.976 11.0623 1.75066 10.9583 1.612ZM4.87434 4.368H5.03034C5.09968 4.40267 5.16901 4.472 5.23834 4.576C5.34234 4.64533 5.41168 4.69733 5.44634 4.732C5.41168 4.76666 5.37701 4.81866 5.34234 4.888C5.30768 4.92267 5.27301 4.94 5.23834 4.94C5.20368 4.97466 5.13434 5.02666 5.03034 5.096C4.92634 5.13067 4.87434 5.148 4.87434 5.148C4.80501 5.148 4.66634 5.16533 4.45834 5.2C4.28501 5.2 4.18101 5.2 4.14634 5.2C4.14634 5.13067 4.14634 5.02667 4.14634 4.888C4.18101 4.71467 4.21568 4.61067 4.25034 4.576C4.28501 4.54133 4.33701 4.50666 4.40634 4.472C4.51034 4.40267 4.59701 4.368 4.66634 4.368H4.87434ZM8.72234 1.82C8.72234 1.78533 8.72234 1.75067 8.72234 1.716C8.75701 1.64667 8.77434 1.612 8.77434 1.612C8.80901 1.57733 8.89568 1.54267 9.03434 1.508C9.20768 1.47333 9.32901 1.43866 9.39834 1.404H9.55434C9.83168 1.404 10.057 1.49066 10.2303 1.664C10.4037 1.83733 10.577 2.01066 10.7503 2.184C10.9583 2.42667 11.253 2.77333 11.6343 3.224C12.0503 3.64 12.3797 3.98666 12.6223 4.264C12.8997 4.54133 13.0557 4.69733 13.0903 4.732L13.2983 5.148H13.0903H12.9343C12.865 5.148 12.7263 5.13067 12.5183 5.096C12.3103 5.02666 12.1717 4.97466 12.1023 4.94C12.033 4.90533 11.8943 4.85333 11.6863 4.784C11.4783 4.68 11.357 4.61067 11.3223 4.576L8.77434 1.976C8.77434 1.976 8.75701 1.95867 8.72234 1.924C8.72234 1.88933 8.72234 1.85466 8.72234 1.82ZM5.44634 3.588C5.44634 3.55333 5.51568 3.46666 5.65434 3.328C5.82768 3.15466 5.94901 3.03333 6.01834 2.964H6.12234H6.22634C6.29568 2.99867 6.36501 3.05066 6.43434 3.12C6.53834 3.15467 6.60768 3.172 6.64234 3.172C6.71168 3.24133 6.83301 3.41467 7.00634 3.692C7.21434 3.93466 7.35301 4.09066 7.42234 4.16V4.264V4.368C7.35301 4.40267 7.21434 4.43733 7.00634 4.472C6.83301 4.50666 6.71168 4.54133 6.64234 4.576H6.38234H6.22634C6.19168 4.54133 6.10501 4.45466 5.96634 4.316C5.82768 4.14266 5.72368 4.02133 5.65434 3.952C5.58501 3.91733 5.53301 3.848 5.49834 3.744C5.46368 3.64 5.44634 3.588 5.44634 3.588ZM24.1143 4.368C24.2183 4.368 24.2703 4.43733 24.2703 4.576C24.2703 4.68 24.2183 4.732 24.1143 4.732C24.0103 4.732 23.9583 4.68 23.9583 4.576C23.9583 4.43733 24.0103 4.368 24.1143 4.368ZM7.00634 2.808V2.6V2.392L7.21434 2.184C7.24901 2.14933 7.31834 2.11466 7.42234 2.08C7.52634 2.04533 7.59568 2.01067 7.63034 1.976H7.83834H7.99434C8.02901 2.01067 8.11568 2.11467 8.25434 2.288C8.39301 2.42667 8.49701 2.53067 8.56634 2.6C8.67034 2.704 8.82634 2.87733 9.03434 3.12C9.24234 3.328 9.39834 3.51867 9.50234 3.692C9.64101 3.83067 9.72768 3.91733 9.76234 3.952V4.42C9.69301 4.42 9.58901 4.42 9.45034 4.42C9.31168 4.38533 9.22501 4.368 9.19034 4.368C9.08634 4.33333 8.93034 4.29866 8.72234 4.264C8.51434 4.22933 8.41034 4.19467 8.41034 4.16C8.27168 4.09066 8.02901 3.88266 7.68234 3.536C7.33568 3.15467 7.11034 2.912 7.00634 2.808Z" fill="#FFAEC1"/>
</svg>
