<svg width="32" height="40" viewBox="0 0 32 40" fill="none" xmlns="http://www.w3.org/2000/svg">
<path d="M6.5 37.388C6.53467 37.388 6.58667 37.4227 6.656 37.492C6.76 37.5267 6.82933 37.5613 6.864 37.596C7.072 37.6653 7.332 37.7867 7.644 37.96C7.956 38.0987 8.268 38.2373 8.58 38.376C8.892 38.5147 9.16933 38.6533 9.412 38.792C9.65467 38.896 9.79333 38.948 9.828 38.948C9.86267 38.9827 9.94933 39.0173 10.088 39.052C10.2267 39.0867 10.3307 39.1213 10.4 39.156C10.5387 39.1907 10.7293 39.2427 10.972 39.312C11.2147 39.3813 11.4573 39.4333 11.7 39.468C11.9773 39.5373 12.2027 39.5893 12.376 39.624C12.584 39.6933 12.7227 39.728 12.792 39.728C12.9307 39.7627 13.1907 39.7973 13.572 39.832C13.988 39.9013 14.248 39.936 14.352 39.936H16.224H18.096C18.1653 39.936 18.3907 39.9013 18.772 39.832C19.188 39.7973 19.4827 39.7627 19.656 39.728C19.6907 39.728 19.812 39.6933 20.02 39.624C20.228 39.5893 20.3667 39.5547 20.436 39.52C20.6093 39.4853 20.8693 39.416 21.216 39.312C21.5627 39.208 21.7707 39.156 21.84 39.156C22.3253 38.9827 22.776 38.7747 23.192 38.532C23.6427 38.2893 24.0933 38.0293 24.544 37.752C24.6133 37.7173 24.7173 37.648 24.856 37.544C25.0293 37.44 25.1333 37.388 25.168 37.388L27.716 34.84C27.716 34.8053 27.768 34.7187 27.872 34.58C27.976 34.4067 28.0627 34.2853 28.132 34.216C28.2013 34.112 28.3053 33.9387 28.444 33.696C28.5827 33.4533 28.6693 33.2973 28.704 33.228C28.7733 33.1587 28.8773 32.968 29.016 32.656C29.1547 32.344 29.2413 32.1533 29.276 32.084C29.3107 32.0493 29.3627 31.9453 29.432 31.772C29.5013 31.5987 29.5707 31.408 29.64 31.2C29.7093 30.992 29.7787 30.784 29.848 30.576C29.952 30.368 30.0213 30.212 30.056 30.108C30.0907 30.0387 30.1253 29.9347 30.16 29.796C30.2293 29.6573 30.264 29.5707 30.264 29.536C30.2987 29.3973 30.3333 29.2067 30.368 28.964C30.4027 28.7213 30.4373 28.4787 30.472 28.236C30.5413 27.9587 30.5933 27.7333 30.628 27.56C30.6627 27.352 30.68 27.2133 30.68 27.144V26.156V25.22C30.6453 25.1853 30.6107 25.1507 30.576 25.116C30.5413 25.0467 30.5067 25.012 30.472 25.012H30.368H30.264C30.2293 25.012 30.1947 25.0467 30.16 25.116C30.1253 25.1507 30.0907 25.1853 30.056 25.22C29.9867 25.7053 29.9173 26.1907 29.848 26.676C29.8133 27.1613 29.7613 27.6467 29.692 28.132C29.6573 28.3053 29.6053 28.548 29.536 28.86C29.5013 29.1373 29.484 29.2933 29.484 29.328C29.4147 29.5013 29.3107 29.8307 29.172 30.316C29.068 30.8013 28.9813 31.1307 28.912 31.304C28.8773 31.3387 28.808 31.46 28.704 31.668C28.6347 31.876 28.5653 32.0147 28.496 32.084C28.4267 32.1533 28.3227 32.3267 28.184 32.604C28.0453 32.8467 27.9587 33.0027 27.924 33.072C27.82 33.2453 27.6293 33.5053 27.352 33.852C27.1093 34.164 26.9707 34.3547 26.936 34.424L24.752 36.608C24.7173 36.6427 24.6307 36.712 24.492 36.816C24.3533 36.8853 24.2493 36.9373 24.18 36.972L24.076 37.024L23.972 36.972C23.9373 36.972 23.9027 36.9547 23.868 36.92C23.8333 36.8507 23.7987 36.816 23.764 36.816V35.828V34.84C23.764 34.5973 23.7813 34.0253 23.816 33.124C23.8507 32.2227 23.868 31.252 23.868 30.212C23.9027 29.172 23.92 28.2013 23.92 27.3C23.9547 26.3987 23.972 25.8267 23.972 25.584V24.024C23.972 23.8507 23.972 23.4347 23.972 22.776C24.0067 22.1173 24.0413 21.424 24.076 20.696C24.1107 19.9333 24.128 19.2227 24.128 18.564C24.1627 17.9053 24.18 17.4893 24.18 17.316V14.404C24.18 14.3 24.18 14.144 24.18 13.936C24.2147 13.728 24.232 13.52 24.232 13.312C24.2667 13.0693 24.3013 12.844 24.336 12.636C24.3707 12.428 24.388 12.2893 24.388 12.22C24.388 12.1853 24.4053 12.1507 24.44 12.116C24.5093 12.0813 24.544 12.0467 24.544 12.012C24.5787 12.012 24.6653 11.9947 24.804 11.96C24.9773 11.9253 25.1507 11.8907 25.324 11.856C25.532 11.7867 25.7053 11.7347 25.844 11.7C26.0173 11.6653 26.1213 11.648 26.156 11.648C26.2253 11.6133 26.3813 11.544 26.624 11.44C26.9013 11.336 27.0747 11.2667 27.144 11.232C27.2133 11.1973 27.3693 11.1107 27.612 10.972C27.8547 10.8333 28.028 10.7293 28.132 10.66C28.2013 10.5907 28.3227 10.4867 28.496 10.348C28.704 10.2093 28.8427 10.1053 28.912 10.036C28.9813 9.96667 29.1027 9.84534 29.276 9.672C29.484 9.464 29.6227 9.32533 29.692 9.256C29.7613 9.18667 29.8827 8.996 30.056 8.684C30.264 8.372 30.4027 8.18133 30.472 8.112C30.5067 8.04267 30.5587 7.86933 30.628 7.592C30.732 7.28 30.8013 7.05467 30.836 6.916C30.8707 6.812 30.9053 6.63867 30.94 6.396C31.0093 6.15334 31.044 5.99734 31.044 5.928C31.044 5.89334 31.044 5.72 31.044 5.408C31.0787 5.096 31.096 4.85333 31.096 4.68C31.096 4.576 31.0787 4.368 31.044 4.056C31.044 3.70933 31.044 3.484 31.044 3.38C31.0093 3.44933 30.94 3.588 30.836 3.796C30.7667 3.96933 30.7147 4.09067 30.68 4.16C30.6453 4.19467 30.6107 4.29867 30.576 4.472C30.5413 4.61067 30.5067 4.69734 30.472 4.732C30.4373 4.80134 30.316 4.94 30.108 5.148C29.9 5.356 29.7613 5.49467 29.692 5.564C29.6573 5.59867 29.588 5.63333 29.484 5.668C29.38 5.70267 29.3107 5.72 29.276 5.72C29.276 5.72 29.172 5.73733 28.964 5.772C28.756 5.772 28.6 5.772 28.496 5.772C28.392 5.772 28.236 5.772 28.028 5.772C27.8547 5.73733 27.7507 5.72 27.716 5.72C27.6813 5.72 27.5947 5.70267 27.456 5.668C27.3173 5.63333 27.2133 5.59867 27.144 5.564C27.04 5.52933 26.9013 5.47733 26.728 5.408C26.5547 5.304 26.364 5.21733 26.156 5.148C25.9827 5.044 25.8093 4.95733 25.636 4.888C25.4973 4.81867 25.4107 4.76667 25.376 4.732C25.3067 4.69734 25.1333 4.628 24.856 4.524C24.6133 4.38533 24.3533 4.24667 24.076 4.108C23.7987 3.93467 23.5213 3.77867 23.244 3.64C23.0013 3.50134 22.8453 3.41467 22.776 3.38C22.672 3.34533 22.4987 3.276 22.256 3.172C22.048 3.03334 21.8227 2.89467 21.58 2.756C21.3373 2.61733 21.0947 2.496 20.852 2.392C20.644 2.288 20.5053 2.21867 20.436 2.184C20.3667 2.14933 20.2107 2.09733 19.968 2.028C19.7253 1.924 19.552 1.85467 19.448 1.82C19.3787 1.78534 19.188 1.716 18.876 1.612C18.564 1.508 18.3733 1.43867 18.304 1.404C18.2347 1.36933 18.0613 1.3 17.784 1.196C17.5413 1.092 17.3853 1.04 17.316 1.04C17.2813 1.04 17.1773 1.02267 17.004 0.988003C16.8307 0.918668 16.6227 0.849335 16.38 0.780002C16.172 0.710668 15.9467 0.641334 15.704 0.572002C15.4613 0.502667 15.2707 0.450667 15.132 0.416001C15.0627 0.381335 14.924 0.346668 14.716 0.312002C14.508 0.277334 14.3867 0.242667 14.352 0.208C14.2133 0.173334 13.988 0.138668 13.676 0.104002C13.3987 0.0693355 13.2253 0.0520024 13.156 0.0520024C13.156 0.0520024 13.052 0.0520024 12.844 0.0520024C12.636 0.0173341 12.48 0 12.376 0C12.3067 0 12.168 0.0173341 11.96 0.0520024C11.752 0.0520024 11.6307 0.0520024 11.596 0.0520024C11.4573 0.0520024 11.1627 0.0866686 10.712 0.156001C10.2613 0.190667 9.96667 0.208 9.828 0.208C9.58533 0.277335 9.204 0.364002 8.684 0.468C8.19867 0.537335 7.92133 0.589335 7.852 0.624001C7.81733 0.624001 7.67867 0.693335 7.436 0.832002C7.228 0.936002 6.968 1.05734 6.656 1.196C6.37867 1.33467 6.084 1.49067 5.772 1.664C5.49467 1.80267 5.26933 1.90667 5.096 1.976C5.02667 2.04533 4.92267 2.132 4.784 2.236C4.64533 2.30533 4.55867 2.35733 4.524 2.392C4.38533 2.496 4.19467 2.66934 3.952 2.912C3.744 3.15467 3.51867 3.39733 3.276 3.64C3.068 3.848 2.86 4.056 2.652 4.264C2.47867 4.43733 2.37467 4.54133 2.34 4.576C2.30533 4.61067 2.16667 4.87067 1.924 5.356C1.68133 5.84134 1.49067 6.22267 1.352 6.5C1.352 6.56934 1.3 6.74267 1.196 7.02C1.092 7.26267 1.02267 7.41867 0.988 7.488C0.710667 8.18134 0.502667 8.87467 0.364 9.568C0.225333 10.2267 0.156 10.92 0.156 11.648C0.156 11.7173 0.156 11.8387 0.156 12.012C0.190667 12.1507 0.208 12.22 0.208 12.22L0.416 12.428C0.416 12.3933 0.433333 12.3587 0.468 12.324C0.537333 12.2893 0.572 12.2547 0.572 12.22C0.606667 12.1853 0.641333 12.064 0.676 11.856C0.745333 11.6133 0.78 11.4747 0.78 11.44C0.78 11.4053 0.814667 11.336 0.884 11.232C0.953333 11.128 0.988 11.0587 0.988 11.024C0.988 10.9893 1.00533 10.9027 1.04 10.764C1.10933 10.5907 1.16133 10.4867 1.196 10.452C1.23067 10.348 1.28267 10.2267 1.352 10.088C1.456 9.91467 1.54267 9.74133 1.612 9.568C1.716 9.39467 1.80267 9.23867 1.872 9.1C1.94133 8.96133 1.976 8.892 1.976 8.892C2.01067 8.82267 2.16667 8.64933 2.444 8.372C2.756 8.06 2.98133 7.83467 3.12 7.696C3.15467 7.696 3.20667 7.67867 3.276 7.644C3.38 7.57467 3.46667 7.52267 3.536 7.488C3.64 7.45333 3.86533 7.36667 4.212 7.228C4.59333 7.08934 4.81867 6.98533 4.888 6.916H6.708H8.476C8.51067 6.916 8.61467 6.95067 8.788 7.02C8.996 7.05467 9.152 7.08934 9.256 7.124C9.39467 7.15867 9.672 7.24533 10.088 7.384C10.5387 7.52267 10.8507 7.62667 11.024 7.696C11.0587 7.73067 11.1973 7.8 11.44 7.904C11.6827 7.97333 11.8733 8.04267 12.012 8.112C12.0467 8.112 12.116 8.14667 12.22 8.216C12.3587 8.28533 12.4973 8.35467 12.636 8.424C12.8093 8.45867 12.9653 8.51067 13.104 8.58C13.2427 8.64934 13.3293 8.684 13.364 8.684C13.3987 8.684 13.4853 8.71867 13.624 8.788C13.7973 8.85733 13.9707 8.92667 14.144 8.996C14.3173 9.03067 14.4733 9.08267 14.612 9.152C14.7853 9.22134 14.8893 9.256 14.924 9.256C15.028 9.29067 15.236 9.37733 15.548 9.516C15.8947 9.65467 16.2413 9.81067 16.588 9.984C16.9693 10.1227 17.316 10.2613 17.628 10.4C17.9747 10.5387 18.2 10.6253 18.304 10.66C18.3733 10.6947 18.564 10.764 18.876 10.868C19.188 10.972 19.3787 11.024 19.448 11.024C19.5173 11.0587 19.5867 11.1107 19.656 11.18C19.76 11.2147 19.8293 11.232 19.864 11.232V11.336V11.44L19.656 11.648C19.6213 11.648 19.5347 11.6827 19.396 11.752C19.2573 11.7867 19.1533 11.804 19.084 11.804C19.0147 11.8387 18.8587 11.8907 18.616 11.96C18.408 11.9947 18.1653 12.0467 17.888 12.116C17.6107 12.1853 17.3507 12.2547 17.108 12.324C16.9 12.3933 16.7613 12.428 16.692 12.428C16.6573 12.428 16.5533 12.4627 16.38 12.532C16.2413 12.5667 16.1547 12.6013 16.12 12.636C15.912 12.7053 15.6 12.8093 15.184 12.948C14.768 13.052 14.352 13.1733 13.936 13.312C13.52 13.416 13.1387 13.52 12.792 13.624C12.4453 13.728 12.2373 13.78 12.168 13.78C11.9947 13.8493 11.7 13.936 11.284 14.04C10.9027 14.1093 10.6773 14.1613 10.608 14.196C10.5387 14.196 10.3827 14.1787 10.14 14.144C9.932 14.1093 9.79333 14.092 9.724 14.092C9.724 14.0227 9.70667 13.884 9.672 13.676C9.63733 13.4333 9.62 13.2773 9.62 13.208C9.62 13.1733 9.672 13.0347 9.776 12.792C9.88 12.5493 9.96667 12.3587 10.036 12.22C10.036 12.1507 10.0533 12.0813 10.088 12.012C10.1573 11.908 10.2093 11.8387 10.244 11.804C10.3133 11.7347 10.4173 11.596 10.556 11.388C10.6947 11.18 10.7813 11.0587 10.816 11.024C10.8507 11.024 10.9373 10.972 11.076 10.868C11.2147 10.764 11.3187 10.6947 11.388 10.66C11.4573 10.5907 11.5787 10.5213 11.752 10.452C11.96 10.348 12.0987 10.2787 12.168 10.244C12.272 10.2093 12.48 10.1573 12.792 10.088C13.104 9.984 13.2947 9.91467 13.364 9.88V9.412C13.2947 9.412 13.1213 9.42934 12.844 9.464C12.6013 9.464 12.4453 9.464 12.376 9.464C12.3067 9.464 12.1333 9.49867 11.856 9.568C11.6133 9.60267 11.4573 9.63734 11.388 9.672C11.3533 9.672 11.2147 9.724 10.972 9.828C10.7293 9.932 10.5387 10.0013 10.4 10.036C10.4 10.0707 10.348 10.1227 10.244 10.192C10.14 10.2267 10.0707 10.244 10.036 10.244C9.96667 10.2787 9.828 10.348 9.62 10.452C9.412 10.5213 9.18667 10.6253 8.944 10.764C8.70133 10.868 8.45867 10.972 8.216 11.076C8.008 11.1453 7.88667 11.1973 7.852 11.232C7.81733 11.2667 7.67867 11.3533 7.436 11.492C7.19333 11.6307 7.00267 11.7347 6.864 11.804C6.79467 11.8733 6.69067 11.96 6.552 12.064C6.41333 12.1333 6.32667 12.1853 6.292 12.22C6.22267 12.2893 6.10133 12.3933 5.928 12.532C5.75467 12.6707 5.58133 12.8267 5.408 13C5.23467 13.1387 5.06133 13.2947 4.888 13.468C4.71467 13.6067 4.59333 13.7107 4.524 13.78C4.45467 13.8493 4.33333 13.9707 4.16 14.144C4.02133 14.2827 3.86533 14.4387 3.692 14.612C3.51867 14.7853 3.36267 14.9587 3.224 15.132C3.08533 15.2707 2.99867 15.3573 2.964 15.392C2.92933 15.4267 2.86 15.5307 2.756 15.704C2.652 15.8427 2.58267 15.9293 2.548 15.964C2.51333 15.9987 2.40933 16.12 2.236 16.328C2.09733 16.536 2.01067 16.6747 1.976 16.744C1.94133 16.744 1.90667 16.796 1.872 16.9C1.83733 17.004 1.80267 17.0907 1.768 17.16C1.69867 17.3333 1.56 17.6453 1.352 18.096C1.17867 18.5467 1.05733 18.824 0.988 18.928C0.918667 19.032 0.832 19.2053 0.728 19.448C0.658667 19.6907 0.606667 19.8293 0.572 19.864C0.537333 20.0373 0.468 20.3667 0.364 20.852C0.294667 21.3373 0.242667 21.6667 0.208 21.84C0.208 21.9093 0.190667 22.048 0.156 22.256C0.121333 22.464 0.0866666 22.6893 0.052 22.932C0.052 23.14 0.0346667 23.348 0 23.556C0 23.764 0 23.92 0 24.024V25.272V26.364C0 26.468 0.0173333 26.6413 0.052 26.884C0.0866666 27.092 0.121333 27.3173 0.156 27.56C0.225333 27.8027 0.277333 28.0453 0.312 28.288C0.346667 28.496 0.381333 28.652 0.416 28.756C0.416 28.756 0.485333 28.964 0.624 29.38C0.797333 29.7613 0.918667 30.0733 0.988 30.316C1.05733 30.42 1.12667 30.5933 1.196 30.836C1.3 31.0787 1.352 31.2347 1.352 31.304C1.42133 31.4427 1.52533 31.6507 1.664 31.928C1.83733 32.2053 1.94133 32.3787 1.976 32.448C1.976 32.4827 2.09733 32.6907 2.34 33.072C2.61733 33.4187 2.82533 33.6787 2.964 33.852C3.03333 33.956 3.13733 34.112 3.276 34.32C3.41467 34.4933 3.50133 34.5973 3.536 34.632L4.108 35.204C4.212 35.308 4.368 35.464 4.576 35.672C4.81867 35.88 5.06133 36.1053 5.304 36.348C5.54667 36.556 5.772 36.764 5.98 36.972C6.22267 37.18 6.396 37.3187 6.5 37.388ZM3.536 28.548V28.132C3.60533 28.2013 3.744 28.34 3.952 28.548C4.16 28.756 4.38533 28.9813 4.628 29.224C4.87067 29.432 5.096 29.64 5.304 29.848C5.512 30.056 5.65067 30.212 5.72 30.316C5.75467 30.3507 5.84133 30.4547 5.98 30.628C6.15333 30.8013 6.32667 30.992 6.5 31.2C6.67333 31.3733 6.82933 31.564 6.968 31.772C7.14133 31.9453 7.24533 32.0493 7.28 32.084L7.852 32.656C7.88667 32.6907 7.97333 32.7947 8.112 32.968C8.25067 33.1067 8.38933 33.2627 8.528 33.436C8.70133 33.6093 8.85733 33.7827 8.996 33.956C9.13467 34.0947 9.22133 34.1813 9.256 34.216C9.29067 34.2853 9.412 34.424 9.62 34.632C9.828 34.84 9.96667 34.9787 10.036 35.048C10.0707 35.0827 10.1747 35.204 10.348 35.412C10.5213 35.5853 10.6947 35.7933 10.868 36.036C11.076 36.244 11.2667 36.452 11.44 36.66C11.6133 36.8333 11.7347 36.9373 11.804 36.972C11.8387 37.0067 11.908 37.0933 12.012 37.232C12.116 37.336 12.2373 37.4573 12.376 37.596C12.5147 37.7347 12.636 37.856 12.74 37.96C12.844 38.064 12.9133 38.1333 12.948 38.168C13.0173 38.2373 13.0867 38.3413 13.156 38.48C13.26 38.584 13.3293 38.6707 13.364 38.74C13.3293 38.74 13.26 38.7573 13.156 38.792C13.0867 38.792 13.0173 38.792 12.948 38.792C12.9133 38.792 12.844 38.792 12.74 38.792C12.636 38.7573 12.584 38.74 12.584 38.74C12.5493 38.74 12.4627 38.7227 12.324 38.688C12.1853 38.6533 12.0813 38.6187 12.012 38.584C11.908 38.5147 11.752 38.4453 11.544 38.376C11.336 38.272 11.2147 38.2027 11.18 38.168L9.828 36.816C9.724 36.6773 9.464 36.4 9.048 35.984C8.66667 35.568 8.25067 35.1173 7.8 34.632C7.34933 34.112 6.89867 33.6093 6.448 33.124C6.032 32.6387 5.72 32.292 5.512 32.084C5.408 31.98 5.28667 31.8587 5.148 31.72C5.00933 31.5467 4.85333 31.3733 4.68 31.2C4.54133 31.0267 4.42 30.8707 4.316 30.732C4.212 30.5933 4.14267 30.524 4.108 30.524C4.07333 30.4547 4.004 30.316 3.9 30.108C3.83067 29.9 3.77867 29.7613 3.744 29.692C3.70933 29.6227 3.65733 29.5013 3.588 29.328C3.55333 29.12 3.536 28.9813 3.536 28.912V28.548ZM10.4 33.696V33.436C10.4347 33.4013 10.556 33.3493 10.764 33.28C10.972 33.176 11.1107 33.1067 11.18 33.072C11.2147 33.0373 11.336 33.0027 11.544 32.968C11.752 32.8987 11.96 32.8293 12.168 32.76C12.4107 32.6907 12.6187 32.6387 12.792 32.604C13 32.5347 13.1213 32.4827 13.156 32.448C13.1907 32.448 13.2773 32.4307 13.416 32.396C13.5893 32.3267 13.7107 32.292 13.78 32.292C13.8147 32.2573 13.936 32.2227 14.144 32.188C14.352 32.1187 14.4907 32.084 14.56 32.084C14.6293 32.0493 14.8547 31.98 15.236 31.876C15.6173 31.772 15.8427 31.7027 15.912 31.668C15.9467 31.668 16.0507 31.6507 16.224 31.616C16.3973 31.5813 16.588 31.5467 16.796 31.512C17.004 31.4773 17.212 31.4427 17.42 31.408C17.628 31.3387 17.784 31.304 17.888 31.304C17.9573 31.2693 18.148 31.2347 18.46 31.2C18.8067 31.1307 19.0147 31.096 19.084 31.096C19.1533 31.0613 19.292 31.0267 19.5 30.992C19.708 30.9573 19.8293 30.9227 19.864 30.888C19.8987 30.888 19.9333 30.8707 19.968 30.836C20.0027 30.7667 20.0373 30.7147 20.072 30.68C20.072 30.5413 20.072 30.2987 20.072 29.952C20.1067 29.6053 20.124 29.2413 20.124 28.86C20.1587 28.444 20.176 28.0627 20.176 27.716C20.2107 27.3693 20.228 27.1267 20.228 26.988C20.228 26.884 20.228 26.6067 20.228 26.156C20.228 25.6707 20.228 25.168 20.228 24.648C20.228 24.0933 20.228 23.5907 20.228 23.14C20.228 22.6547 20.228 22.36 20.228 22.256C20.228 22.152 20.2453 21.8747 20.28 21.424C20.3147 20.9733 20.332 20.488 20.332 19.968C20.3667 19.448 20.384 18.98 20.384 18.564C20.4187 18.1133 20.436 17.836 20.436 17.732V12.792C20.436 12.7573 20.4533 12.7053 20.488 12.636C20.5573 12.532 20.6093 12.4627 20.644 12.428C20.6787 12.3933 20.7307 12.324 20.8 12.22C20.904 12.116 20.9733 12.0467 21.008 12.012C21.0427 12.012 21.112 11.9947 21.216 11.96C21.32 11.8907 21.3893 11.8387 21.424 11.804C21.4933 11.804 21.6147 11.7867 21.788 11.752C21.996 11.6827 22.1347 11.648 22.204 11.648H22.412H22.62C22.6547 11.648 22.7067 11.6827 22.776 11.752C22.88 11.7867 22.9493 11.804 22.984 11.804L23.192 12.012V16.848V21.632C23.192 21.8053 23.1747 22.1867 23.14 22.776C23.14 23.3307 23.1227 23.9547 23.088 24.648C23.088 25.3067 23.0707 25.9307 23.036 26.52C23.0013 27.0747 22.984 27.4213 22.984 27.56V27.768C22.984 27.9067 22.9667 28.2707 22.932 28.86C22.932 29.4493 22.9147 30.0907 22.88 30.784C22.88 31.4773 22.8627 32.136 22.828 32.76C22.7933 33.3493 22.776 33.7133 22.776 33.852C22.776 33.9213 22.776 34.0773 22.776 34.32C22.776 34.528 22.776 34.7707 22.776 35.048C22.776 35.2907 22.776 35.5333 22.776 35.776C22.776 36.0187 22.776 36.1573 22.776 36.192C22.776 36.2613 22.7587 36.452 22.724 36.764C22.6893 37.076 22.6547 37.284 22.62 37.388C22.5853 37.4573 22.5507 37.544 22.516 37.648C22.4813 37.7173 22.4467 37.752 22.412 37.752C22.3773 37.7867 22.2387 37.8907 21.996 38.064C21.7533 38.2027 21.5627 38.3067 21.424 38.376C21.3547 38.4107 21.268 38.4453 21.164 38.48C21.0947 38.5147 21.0427 38.5493 21.008 38.584C20.9387 38.6187 20.7827 38.6533 20.54 38.688C20.2973 38.7227 20.1413 38.74 20.072 38.74C20.0373 38.74 19.864 38.7573 19.552 38.792C19.2747 38.792 19.0493 38.792 18.876 38.792C18.7027 38.792 18.46 38.792 18.148 38.792C17.8707 38.7573 17.7147 38.74 17.68 38.74C17.6453 38.74 17.524 38.7227 17.316 38.688C17.1427 38.6533 17.004 38.6187 16.9 38.584C16.7613 38.5147 16.536 38.4453 16.224 38.376C15.9467 38.272 15.7733 38.2027 15.704 38.168C15.6347 38.1333 15.496 38.0813 15.288 38.012C15.1147 37.908 14.924 37.804 14.716 37.7C14.508 37.596 14.3173 37.492 14.144 37.388C13.9707 37.284 13.8493 37.2147 13.78 37.18C13.7107 37.1453 13.52 37.0413 13.208 36.868C12.9307 36.66 12.7227 36.504 12.584 36.4C12.5147 36.3307 12.376 36.2267 12.168 36.088C11.96 35.9493 11.8387 35.8627 11.804 35.828L11.024 35.048C10.9547 34.944 10.8333 34.7707 10.66 34.528C10.5213 34.2853 10.4347 34.1293 10.4 34.06V33.696ZM8.84 36.4C8.944 36.4 8.996 36.4693 8.996 36.608C8.996 36.7467 8.944 36.816 8.84 36.816C8.736 36.816 8.684 36.7467 8.684 36.608C8.684 36.4693 8.736 36.4 8.84 36.4ZM6.084 33.748V33.644L7.072 34.632C7.14133 34.7013 7.24533 34.8227 7.384 34.996C7.55733 35.1693 7.71333 35.3427 7.852 35.516C8.02533 35.6893 8.18133 35.8627 8.32 36.036C8.45867 36.2093 8.56267 36.3307 8.632 36.4H8.476C8.476 36.4 8.40667 36.348 8.268 36.244C8.12933 36.14 7.97333 36.0187 7.8 35.88C7.66133 35.7067 7.488 35.5507 7.28 35.412C7.10667 35.2733 6.968 35.152 6.864 35.048C6.79467 34.9787 6.708 34.9093 6.604 34.84C6.53467 34.736 6.5 34.6667 6.5 34.632C6.46533 34.5627 6.396 34.4413 6.292 34.268C6.188 34.06 6.11867 33.9213 6.084 33.852V33.748ZM2.86 25.012H3.12C3.15467 25.012 3.31067 25.168 3.588 25.48C3.9 25.7573 4.14267 25.9827 4.316 26.156C4.42 26.26 4.59333 26.4507 4.836 26.728C5.07867 27.0053 5.33867 27.3 5.616 27.612C5.89333 27.8893 6.136 28.1493 6.344 28.392C6.58667 28.6347 6.76 28.808 6.864 28.912C7.03733 29.0853 7.26267 29.3627 7.54 29.744C7.852 30.0907 8.02533 30.2813 8.06 30.316C8.09467 30.3853 8.18133 30.6453 8.32 31.096C8.45867 31.5467 8.56267 31.876 8.632 32.084C8.66667 32.1187 8.684 32.188 8.684 32.292C8.684 32.396 8.684 32.4827 8.684 32.552C8.684 32.552 8.64933 32.552 8.58 32.552C8.51067 32.5173 8.476 32.4827 8.476 32.448C8.44133 32.448 8.33733 32.3787 8.164 32.24C8.02533 32.0667 7.92133 31.9453 7.852 31.876C7.71333 31.7373 7.488 31.512 7.176 31.2C6.89867 30.888 6.604 30.576 6.292 30.264C5.98 29.9173 5.68533 29.6053 5.408 29.328C5.16533 29.0507 4.992 28.86 4.888 28.756C4.784 28.652 4.64533 28.496 4.472 28.288C4.29867 28.08 4.108 27.872 3.9 27.664C3.72667 27.456 3.55333 27.2653 3.38 27.092C3.24133 26.9187 3.15467 26.8147 3.12 26.78C3.08533 26.7453 3.05067 26.676 3.016 26.572C2.98133 26.468 2.964 26.3987 2.964 26.364C2.92933 26.26 2.89467 26.0347 2.86 25.688C2.86 25.3413 2.86 25.116 2.86 25.012ZM8.632 22.776V19.084C8.632 19.0147 8.64933 18.7547 8.684 18.304C8.75333 17.8533 8.80533 17.524 8.84 17.316C8.87467 17.212 8.90933 17.0213 8.944 16.744C8.97867 16.432 9.01333 16.2413 9.048 16.172C9.048 16.1027 9.06533 15.9987 9.1 15.86C9.16933 15.6867 9.22133 15.5827 9.256 15.548L9.62 15.184C9.75867 15.1147 10.0533 15.0453 10.504 14.976C10.9547 14.872 11.2493 14.8027 11.388 14.768C11.4573 14.768 11.596 14.768 11.804 14.768C12.012 14.7333 12.1507 14.716 12.22 14.716C12.22 14.9933 12.22 15.496 12.22 16.224C12.22 16.952 12.22 17.732 12.22 18.564C12.22 19.396 12.2027 20.176 12.168 20.904C12.168 21.632 12.168 22.152 12.168 22.464C12.168 22.6373 12.1507 23.0707 12.116 23.764C12.116 24.4573 12.0987 25.2027 12.064 26C12.064 26.7973 12.0467 27.5427 12.012 28.236C12.012 28.9293 12.012 29.3627 12.012 29.536V30.316C11.9773 30.4547 11.9253 30.6973 11.856 31.044C11.8213 31.3907 11.804 31.5987 11.804 31.668C11.7693 31.7373 11.7347 31.824 11.7 31.928C11.6653 31.9973 11.6307 32.0493 11.596 32.084C11.5267 32.1187 11.3533 32.188 11.076 32.292C10.8333 32.396 10.6773 32.448 10.608 32.448C10.608 32.448 10.5387 32.4653 10.4 32.5C10.296 32.5 10.2093 32.5 10.14 32.5C10.0707 32.5 9.984 32.5 9.88 32.5C9.776 32.4653 9.68933 32.448 9.62 32.448C9.62 32.4133 9.58533 32.3267 9.516 32.188C9.48133 32.0493 9.44667 31.9453 9.412 31.876C9.37733 31.7027 9.308 31.46 9.204 31.148C9.1 30.8013 9.048 30.5933 9.048 30.524C9.01333 30.42 8.96133 30.2467 8.892 30.004C8.85733 29.7613 8.84 29.6053 8.84 29.536C8.84 29.3973 8.82267 29.1893 8.788 28.912C8.75333 28.6 8.71867 28.288 8.684 27.976C8.684 27.664 8.66667 27.3867 8.632 27.144C8.632 26.8667 8.632 26.676 8.632 26.572V22.776ZM14.3 29.276C14.3 29.276 14.3347 29.2933 14.404 29.328C14.4733 29.328 14.5253 29.328 14.56 29.328C14.5947 29.328 14.664 29.3627 14.768 29.432C14.872 29.4667 14.924 29.5013 14.924 29.536C14.9933 29.6053 15.1493 29.7787 15.392 30.056C15.6693 30.2987 15.8427 30.4547 15.912 30.524L15.964 30.68C15.964 30.7147 15.9467 30.7667 15.912 30.836C15.912 30.8707 15.912 30.888 15.912 30.888C15.8773 30.9227 15.7907 30.9573 15.652 30.992C15.5133 31.0267 15.4093 31.0613 15.34 31.096H15.028H14.716C14.716 31.096 14.6813 31.0787 14.612 31.044C14.5773 30.9747 14.56 30.9227 14.56 30.888C14.5253 30.8533 14.4733 30.784 14.404 30.68C14.3693 30.576 14.352 30.524 14.352 30.524C14.352 30.42 14.3347 30.212 14.3 29.9C14.3 29.588 14.3 29.38 14.3 29.276ZM14.352 27.144C14.352 27.1093 14.3693 27.0227 14.404 26.884C14.4733 26.7453 14.5253 26.6413 14.56 26.572C14.5947 26.5373 14.6293 26.52 14.664 26.52L14.716 26.572C14.8547 26.676 15.0973 26.9013 15.444 27.248C15.7907 27.5947 16.016 27.82 16.12 27.924C16.1547 27.9933 16.224 28.0973 16.328 28.236C16.4667 28.3747 16.6053 28.5307 16.744 28.704C16.9173 28.8773 17.056 29.0507 17.16 29.224C17.2987 29.3627 17.4027 29.4667 17.472 29.536C17.5413 29.6053 17.6453 29.744 17.784 29.952C17.9573 30.1253 18.0613 30.2467 18.096 30.316C18.096 30.316 18.096 30.3507 18.096 30.42C18.1307 30.4547 18.148 30.4893 18.148 30.524H16.692C16.692 30.524 16.6227 30.4547 16.484 30.316C16.3453 30.1773 16.172 30.0213 15.964 29.848C15.7907 29.64 15.6 29.4493 15.392 29.276C15.2187 29.068 15.0627 28.8947 14.924 28.756C14.8893 28.6867 14.82 28.5827 14.716 28.444C14.612 28.3053 14.56 28.2013 14.56 28.132C14.5253 28.0627 14.4733 27.9067 14.404 27.664C14.3693 27.3867 14.352 27.2133 14.352 27.144ZM14.716 25.792C14.612 25.688 14.56 25.5493 14.56 25.376C14.56 25.376 14.5427 25.272 14.508 25.064C14.508 24.856 14.508 24.7 14.508 24.596C14.508 24.5267 14.508 24.4053 14.508 24.232C14.5427 24.024 14.56 23.8853 14.56 23.816L18.304 27.56C18.408 27.6987 18.5813 27.924 18.824 28.236C19.1013 28.5133 19.24 28.6867 19.24 28.756C19.2747 28.756 19.292 28.808 19.292 28.912C19.292 29.016 19.292 29.1027 19.292 29.172C19.292 29.2413 19.292 29.3453 19.292 29.484C19.292 29.6227 19.2747 29.692 19.24 29.692C19.24 29.8653 19.188 30.004 19.084 30.108H18.98H18.876C18.8067 30.0733 18.6853 29.9867 18.512 29.848C18.3733 29.6747 18.2173 29.5013 18.044 29.328C17.9053 29.1547 17.7493 28.9987 17.576 28.86C17.4373 28.7213 17.3507 28.6173 17.316 28.548C17.212 28.444 17.0387 28.2707 16.796 28.028C16.5533 27.7507 16.2933 27.4733 16.016 27.196C15.7387 26.884 15.4787 26.6067 15.236 26.364C14.9933 26.0867 14.82 25.896 14.716 25.792ZM2.912 23.348C2.912 23.2787 2.912 23.2093 2.912 23.14C2.94667 23.0707 2.964 23.036 2.964 23.036C2.964 22.9667 2.98133 22.8627 3.016 22.724C3.08533 22.5853 3.12 22.4987 3.12 22.464C3.15467 22.4293 3.172 22.412 3.172 22.412C3.20667 22.412 3.224 22.412 3.224 22.412C3.29333 22.412 3.328 22.4293 3.328 22.464C3.91733 22.984 4.45467 23.5213 4.94 24.076C5.42533 24.6307 5.94533 25.2027 6.5 25.792C6.53467 25.8267 6.656 25.948 6.864 26.156C7.10667 26.364 7.24533 26.5027 7.28 26.572C7.31467 26.6067 7.34933 26.676 7.384 26.78C7.41867 26.8493 7.45333 26.9187 7.488 26.988C7.488 27.0573 7.50533 27.248 7.54 27.56C7.60933 27.8373 7.644 28.028 7.644 28.132C7.644 28.1667 7.644 28.2187 7.644 28.288C7.67867 28.3227 7.696 28.3747 7.696 28.444C7.696 28.4787 7.67867 28.5307 7.644 28.6C7.644 28.6693 7.644 28.7213 7.644 28.756C7.60933 28.7213 7.54 28.6867 7.436 28.652C7.36667 28.6173 7.31467 28.5827 7.28 28.548C7.24533 28.5133 7.15867 28.4267 7.02 28.288C6.88133 28.1147 6.77733 27.9933 6.708 27.924C6.604 27.8547 6.448 27.716 6.24 27.508C6.032 27.2653 5.80667 27.0227 5.564 26.78C5.356 26.5373 5.148 26.312 4.94 26.104C4.732 25.8613 4.59333 25.688 4.524 25.584C4.45467 25.48 4.33333 25.3587 4.16 25.22C4.02133 25.0467 3.88267 24.8733 3.744 24.7C3.60533 24.5267 3.46667 24.388 3.328 24.284C3.224 24.1453 3.15467 24.0587 3.12 24.024C3.12 23.9893 3.08533 23.92 3.016 23.816C2.98133 23.712 2.964 23.6427 2.964 23.608C2.964 23.608 2.94667 23.5733 2.912 23.504C2.912 23.4347 2.912 23.3827 2.912 23.348ZM14.508 21.944C14.508 21.8747 14.508 21.788 14.508 21.684C14.5427 21.5453 14.56 21.476 14.56 21.476C14.56 21.4413 14.5773 21.4067 14.612 21.372C14.6813 21.3027 14.716 21.268 14.716 21.268C14.82 21.372 15.0107 21.5627 15.288 21.84C15.5653 22.0827 15.8427 22.36 16.12 22.672C16.432 22.9493 16.7093 23.2267 16.952 23.504C17.1947 23.7467 17.368 23.92 17.472 24.024C17.6107 24.1627 17.784 24.336 17.992 24.544C18.2 24.752 18.3907 24.96 18.564 25.168C18.7373 25.376 18.8933 25.5667 19.032 25.74C19.1707 25.9133 19.24 26 19.24 26V27.56H19.084C19.084 27.56 18.9973 27.4907 18.824 27.352C18.6853 27.1787 18.512 26.988 18.304 26.78C18.096 26.572 17.8707 26.364 17.628 26.156C17.42 25.9133 17.2467 25.7227 17.108 25.584C16.9693 25.4453 16.7787 25.2547 16.536 25.012C16.328 24.7693 16.1027 24.5267 15.86 24.284C15.652 24.0413 15.444 23.816 15.236 23.608C15.0627 23.4 14.9587 23.2787 14.924 23.244C14.8893 23.1747 14.82 23.0533 14.716 22.88C14.612 22.672 14.56 22.5333 14.56 22.464C14.56 22.4293 14.5427 22.36 14.508 22.256C14.508 22.1173 14.508 22.0133 14.508 21.944ZM3.12 21.268V20.956V20.696C3.15467 20.6267 3.18933 20.5227 3.224 20.384C3.29333 20.2107 3.328 20.1067 3.328 20.072H3.536H3.744L3.952 20.28C3.98667 20.3493 4.12533 20.5053 4.368 20.748C4.61067 20.9907 4.85333 21.268 5.096 21.58C5.37333 21.8573 5.616 22.1173 5.824 22.36C6.06667 22.6027 6.22267 22.7587 6.292 22.828L6.864 23.4C6.93333 23.4693 7.02 23.5907 7.124 23.764C7.228 23.9027 7.28 23.9893 7.28 24.024C7.31467 24.128 7.34933 24.4053 7.384 24.856C7.41867 25.272 7.436 25.532 7.436 25.636C7.40133 25.636 7.332 25.636 7.228 25.636C7.15867 25.6013 7.10667 25.584 7.072 25.584L6.708 25.22C6.56933 25.0813 6.32667 24.8213 5.98 24.44C5.63333 24.0587 5.26933 23.66 4.888 23.244C4.54133 22.828 4.19467 22.4293 3.848 22.048C3.50133 21.6667 3.25867 21.4067 3.12 21.268ZM14.508 19.5C14.508 19.4307 14.508 19.3613 14.508 19.292C14.5427 19.188 14.56 19.1187 14.56 19.084C14.56 19.0493 14.5773 18.9627 14.612 18.824C14.6813 18.6853 14.716 18.5813 14.716 18.512C14.82 18.616 14.9933 18.7893 15.236 19.032C15.4787 19.2747 15.7387 19.5347 16.016 19.812C16.2933 20.0547 16.5533 20.2973 16.796 20.54C17.0387 20.7827 17.212 20.956 17.316 21.06C17.4547 21.2333 17.628 21.4413 17.836 21.684C18.0787 21.892 18.304 22.1173 18.512 22.36C18.72 22.6027 18.8933 22.8107 19.032 22.984C19.1707 23.1573 19.24 23.244 19.24 23.244V24.804H19.084C19.0493 24.804 18.824 24.6133 18.408 24.232C18.0267 23.816 17.7147 23.4867 17.472 23.244C17.368 23.1053 17.1773 22.8973 16.9 22.62C16.6573 22.3427 16.3973 22.0653 16.12 21.788C15.8427 21.5107 15.5827 21.2507 15.34 21.008C15.132 20.7307 14.9933 20.5573 14.924 20.488C14.8547 20.4187 14.768 20.3147 14.664 20.176C14.5947 20.0373 14.56 19.9333 14.56 19.864C14.56 19.864 14.5427 19.8293 14.508 19.76C14.508 19.656 14.508 19.5693 14.508 19.5ZM3.692 18.824C3.692 18.7893 3.692 18.7373 3.692 18.668C3.72667 18.564 3.744 18.512 3.744 18.512C3.744 18.4773 3.76133 18.4253 3.796 18.356C3.86533 18.252 3.91733 18.1653 3.952 18.096L4.108 17.94C4.212 18.0093 4.368 18.148 4.576 18.356C4.784 18.564 4.992 18.7893 5.2 19.032C5.44267 19.24 5.668 19.448 5.876 19.656C6.084 19.864 6.22267 20.0027 6.292 20.072C6.43067 20.2453 6.62133 20.488 6.864 20.8C7.10667 21.0773 7.24533 21.2333 7.28 21.268C7.31467 21.372 7.36667 21.6147 7.436 21.996C7.50533 22.3427 7.54 22.568 7.54 22.672C7.50533 22.672 7.41867 22.672 7.28 22.672C7.176 22.672 7.10667 22.6547 7.072 22.62C7.03733 22.62 6.95067 22.5853 6.812 22.516C6.67333 22.412 6.56933 22.3253 6.5 22.256C6.46533 22.256 6.43067 22.2387 6.396 22.204C6.36133 22.1347 6.32667 22.0827 6.292 22.048C6.15333 21.9093 5.96267 21.7187 5.72 21.476C5.47733 21.1987 5.23467 20.9387 4.992 20.696C4.784 20.4187 4.59333 20.1933 4.42 20.02C4.24667 19.812 4.14267 19.708 4.108 19.708C4.07333 19.6387 4.004 19.5347 3.9 19.396C3.796 19.2573 3.744 19.1533 3.744 19.084C3.744 19.084 3.72667 19.0493 3.692 18.98C3.692 18.9107 3.692 18.8587 3.692 18.824ZM14.924 17.732C14.8893 17.6973 14.8547 17.6453 14.82 17.576C14.7853 17.472 14.7507 17.3853 14.716 17.316C14.716 17.212 14.6987 16.9867 14.664 16.64C14.664 16.2933 14.664 16.068 14.664 15.964H14.924C14.924 15.964 15.028 16.068 15.236 16.276C15.444 16.4493 15.6693 16.6747 15.912 16.952C16.1893 17.2293 16.4667 17.5067 16.744 17.784C17.056 18.0613 17.2987 18.304 17.472 18.512C17.5413 18.5813 17.6627 18.72 17.836 18.928C18.0093 19.1013 18.1827 19.292 18.356 19.5C18.564 19.708 18.7373 19.916 18.876 20.124C19.0493 20.2973 19.1707 20.4187 19.24 20.488C19.2747 20.5227 19.3093 20.592 19.344 20.696C19.4133 20.7653 19.448 20.8173 19.448 20.852C19.448 20.8867 19.448 20.9907 19.448 21.164C19.4827 21.3027 19.5 21.4067 19.5 21.476C19.5 21.5453 19.4827 21.6667 19.448 21.84C19.448 21.9787 19.448 22.048 19.448 22.048C19.448 22.1867 19.3787 22.256 19.24 22.256C18.512 21.528 17.784 20.7827 17.056 20.02C16.328 19.2573 15.6173 18.4947 14.924 17.732ZM4.524 17.316V17.056V16.744C4.524 16.7093 4.54133 16.6573 4.576 16.588C4.64533 16.484 4.69733 16.3973 4.732 16.328C4.732 16.2933 4.74933 16.2587 4.784 16.224C4.85333 16.1893 4.888 16.172 4.888 16.172C4.92267 16.172 4.97467 16.1893 5.044 16.224C5.148 16.2587 5.23467 16.2933 5.304 16.328C5.304 16.3627 5.32133 16.3973 5.356 16.432C5.42533 16.4667 5.47733 16.5013 5.512 16.536C5.65067 16.6747 5.824 16.8653 6.032 17.108C6.24 17.3507 6.448 17.5933 6.656 17.836C6.864 18.044 7.05467 18.2347 7.228 18.408C7.40133 18.5813 7.488 18.6853 7.488 18.72C7.592 18.824 7.644 18.9453 7.644 19.084C7.644 19.2573 7.62667 19.5 7.592 19.812C7.55733 20.124 7.52267 20.28 7.488 20.28H7.28C7.24533 20.28 7.02 20.0893 6.604 19.708C6.22267 19.292 5.928 18.9627 5.72 18.72C5.616 18.616 5.408 18.3907 5.096 18.044C4.784 17.6627 4.59333 17.42 4.524 17.316ZM14.924 14.976C14.8893 14.9413 14.8547 14.8893 14.82 14.82C14.7853 14.716 14.7507 14.6293 14.716 14.56V14.3V13.988C14.7507 13.9187 14.7853 13.8493 14.82 13.78C14.8547 13.676 14.8893 13.6067 14.924 13.572H15.132H15.34C15.444 13.676 15.6693 13.9187 16.016 14.3C16.3627 14.6467 16.588 14.872 16.692 14.976C16.9 15.184 17.16 15.4613 17.472 15.808C17.784 16.1547 18.0787 16.484 18.356 16.796C18.668 17.108 18.928 17.3853 19.136 17.628C19.344 17.836 19.448 17.94 19.448 17.94V19.604C19.4133 19.604 19.344 19.5867 19.24 19.552C19.1707 19.5173 19.1187 19.5 19.084 19.5C19.0493 19.5 18.98 19.448 18.876 19.344C18.8067 19.24 18.7373 19.1533 18.668 19.084C18.5293 18.9453 18.2693 18.6853 17.888 18.304C17.5413 17.888 17.1773 17.472 16.796 17.056C16.4147 16.6053 16.0333 16.1893 15.652 15.808C15.3053 15.4267 15.0627 15.1493 14.924 14.976ZM5.304 15.392C5.304 15.3573 5.32133 15.3053 5.356 15.236C5.42533 15.132 5.47733 15.0453 5.512 14.976C5.54667 14.9067 5.59867 14.8373 5.668 14.768C5.772 14.664 5.84133 14.5947 5.876 14.56H5.98H6.084C6.22267 14.6987 6.48267 14.976 6.864 15.392C7.28 15.7733 7.54 16.0333 7.644 16.172C7.67867 16.2067 7.71333 16.276 7.748 16.38C7.81733 16.4493 7.852 16.5013 7.852 16.536V16.952V17.316C7.852 17.3853 7.81733 17.4893 7.748 17.628C7.71333 17.7667 7.67867 17.8707 7.644 17.94C7.57467 17.8707 7.436 17.7493 7.228 17.576C7.05467 17.368 6.864 17.16 6.656 16.952C6.448 16.744 6.25733 16.5533 6.084 16.38C5.91067 16.172 5.78933 16.0333 5.72 15.964C5.65067 15.8947 5.564 15.7907 5.46 15.652C5.356 15.5133 5.304 15.4267 5.304 15.392ZM16.12 13.416C16.12 13.2773 16.1893 13.208 16.328 13.208C16.3627 13.1733 16.4147 13.1387 16.484 13.104C16.588 13.0347 16.6573 13 16.692 13H17.004H17.316C17.3853 13.0693 17.5067 13.208 17.68 13.416C17.888 13.5893 18.096 13.78 18.304 13.988C18.512 14.196 18.7027 14.404 18.876 14.612C19.0493 14.7853 19.1707 14.9067 19.24 14.976C19.3093 15.0453 19.396 15.1493 19.5 15.288C19.604 15.4267 19.656 15.5133 19.656 15.548V16.016V16.536C19.656 16.6053 19.6213 16.692 19.552 16.796C19.5173 16.8653 19.4827 16.9173 19.448 16.952H19.344H19.24C19.1707 16.8827 19.0147 16.7267 18.772 16.484C18.5293 16.2067 18.3733 16.0333 18.304 15.964C18.2347 15.8947 18.1133 15.7733 17.94 15.6C17.8013 15.4267 17.6453 15.2533 17.472 15.08C17.2987 14.9067 17.1253 14.7333 16.952 14.56C16.8133 14.3867 16.7267 14.2653 16.692 14.196C16.6227 14.1267 16.5187 14.0053 16.38 13.832C16.276 13.624 16.1893 13.4853 16.12 13.416ZM6.448 13.884L6.5 13.78L7.072 13.208C7.072 13.208 7.08933 13.208 7.124 13.208C7.19333 13.1733 7.24533 13.156 7.28 13.156C7.31467 13.156 7.34933 13.1733 7.384 13.208C7.41867 13.208 7.45333 13.208 7.488 13.208L8.06 13.78C8.09467 13.8493 8.12933 13.936 8.164 14.04C8.23333 14.1093 8.268 14.1613 8.268 14.196V14.664V15.184C8.268 15.2187 8.23333 15.288 8.164 15.392C8.12933 15.4613 8.09467 15.5133 8.06 15.548L6.5 13.988C6.5 13.988 6.48267 13.988 6.448 13.988C6.448 13.9533 6.448 13.9187 6.448 13.884ZM18.096 12.792C18.096 12.792 18.1133 12.7747 18.148 12.74C18.2173 12.6707 18.2693 12.636 18.304 12.636C18.3387 12.6013 18.4427 12.5667 18.616 12.532C18.824 12.4627 18.98 12.428 19.084 12.428H19.188H19.24C19.3093 12.4627 19.396 12.532 19.5 12.636C19.604 12.7053 19.656 12.7573 19.656 12.792V13.26V13.78C19.656 13.8493 19.6213 13.936 19.552 14.04C19.5173 14.1093 19.4827 14.1613 19.448 14.196H19.344H19.24L18.46 13.416C18.4253 13.3467 18.356 13.2427 18.252 13.104C18.1827 12.9653 18.1307 12.8613 18.096 12.792ZM7.852 12.636C7.852 12.6013 7.86933 12.5493 7.904 12.48C7.97333 12.376 8.02533 12.2893 8.06 12.22C8.09467 12.1853 8.12933 12.1507 8.164 12.116C8.19867 12.0467 8.23333 12.012 8.268 12.012H8.528H8.84C8.87467 12.012 8.90933 12.0467 8.944 12.116C8.97867 12.1507 9.01333 12.1853 9.048 12.22V12.324V12.428C9.01333 12.4973 8.97867 12.6013 8.944 12.74C8.90933 12.8787 8.87467 12.9653 8.84 13C8.84 13.1387 8.77067 13.208 8.632 13.208H8.424H8.268C8.19867 13.1733 8.112 13.0867 8.008 12.948C7.93867 12.8093 7.88667 12.7053 7.852 12.636ZM22.776 9.672C22.672 9.568 22.4813 9.37733 22.204 9.1C21.9267 8.82267 21.632 8.528 21.32 8.216C21.008 7.904 20.7133 7.60934 20.436 7.332C20.1587 7.02 19.968 6.812 19.864 6.708C19.7947 6.63867 19.6387 6.48267 19.396 6.24C19.1533 5.96267 18.876 5.668 18.564 5.356C18.2867 5.044 18.0267 4.74933 17.784 4.472C17.5413 4.19467 17.3853 4.02133 17.316 3.952C17.2813 3.952 17.212 3.9 17.108 3.796C17.004 3.692 16.9347 3.62267 16.9 3.588C16.8307 3.484 16.7093 3.36267 16.536 3.224C16.3973 3.05067 16.2587 2.87734 16.12 2.704C15.9813 2.53067 15.8427 2.37467 15.704 2.236C15.6 2.09734 15.548 2.01067 15.548 1.976C15.5133 1.94133 15.4613 1.88933 15.392 1.82C15.3573 1.716 15.34 1.64667 15.34 1.612H15.652H15.912C15.9813 1.612 16.1027 1.64667 16.276 1.716C16.484 1.75067 16.6227 1.78534 16.692 1.82C16.7613 1.82 16.8307 1.85467 16.9 1.924C17.004 1.95867 17.0733 1.976 17.108 1.976C17.212 2.08 17.4027 2.288 17.68 2.6C17.992 2.912 18.3213 3.24133 18.668 3.588C19.0147 3.9 19.3267 4.212 19.604 4.524C19.916 4.836 20.124 5.044 20.228 5.148C20.2973 5.21733 20.4533 5.39067 20.696 5.668C20.9733 5.94534 21.2507 6.24 21.528 6.552C21.8053 6.864 22.0653 7.15867 22.308 7.436C22.5507 7.67867 22.7067 7.83467 22.776 7.904C22.8453 7.97333 23.0187 8.14667 23.296 8.424C23.5733 8.66667 23.7293 8.82267 23.764 8.892C23.8333 8.96133 23.9373 9.1 24.076 9.308C24.2147 9.48133 24.3187 9.60267 24.388 9.672L24.18 9.88H23.972H23.764C23.6947 9.84533 23.5213 9.81067 23.244 9.776C23.0013 9.74133 22.8453 9.70667 22.776 9.672ZM19.032 2.86L19.084 2.808C19.1187 2.808 19.2053 2.84267 19.344 2.912C19.4827 2.94667 19.5867 2.964 19.656 2.964C19.8293 3.03333 20.0893 3.15467 20.436 3.328C20.7827 3.46667 20.9733 3.55333 21.008 3.588C21.0773 3.588 21.2333 3.692 21.476 3.9C21.7187 4.108 21.892 4.264 21.996 4.368C22.0307 4.40267 22.0827 4.472 22.152 4.576C22.256 4.64533 22.3427 4.69734 22.412 4.732C22.5507 4.90533 22.828 5.21733 23.244 5.668C23.66 6.11867 24.0933 6.604 24.544 7.124C25.0293 7.60933 25.4627 8.07733 25.844 8.528C26.26 8.97867 26.5547 9.29067 26.728 9.464V9.568V9.672C26.6933 9.70667 26.624 9.74133 26.52 9.776C26.4507 9.81067 26.3987 9.84533 26.364 9.88H25.948H25.532C25.3933 9.74134 25.1333 9.49867 24.752 9.152C24.4053 8.77067 24.0413 8.38933 23.66 8.008C23.2787 7.62667 22.9147 7.26267 22.568 6.916C22.2213 6.53467 21.9787 6.27467 21.84 6.136C21.7707 6.06667 21.632 5.928 21.424 5.72C21.216 5.47733 20.9907 5.23467 20.748 4.992C20.54 4.74933 20.332 4.524 20.124 4.316C19.916 4.07333 19.76 3.9 19.656 3.796C19.5867 3.72667 19.4827 3.588 19.344 3.38C19.2053 3.172 19.1187 3.03333 19.084 2.964C19.084 2.964 19.0667 2.964 19.032 2.964C19.032 2.92934 19.032 2.89467 19.032 2.86ZM23.348 4.732H23.608C23.608 4.76667 23.6427 4.80133 23.712 4.836C23.816 4.87067 23.9027 4.90534 23.972 4.94C24.18 5.044 24.5093 5.21734 24.96 5.46C25.4107 5.70267 25.6707 5.85867 25.74 5.928C25.8093 5.99734 25.9133 6.084 26.052 6.188C26.2253 6.25734 26.3293 6.30934 26.364 6.344C26.4333 6.41333 26.624 6.604 26.936 6.916C27.248 7.19333 27.4387 7.384 27.508 7.488C27.5773 7.55734 27.716 7.73067 27.924 8.008C28.132 8.25067 28.2533 8.40667 28.288 8.476L28.34 8.58C28.34 8.61467 28.3227 8.64933 28.288 8.684C28.288 8.71867 28.236 8.788 28.132 8.892C28.028 8.96133 27.9587 9.03067 27.924 9.1C27.8893 9.1 27.82 9.13467 27.716 9.204C27.6467 9.23867 27.5773 9.256 27.508 9.256C27.508 9.256 27.4907 9.27333 27.456 9.308C27.456 9.308 27.4387 9.308 27.404 9.308L27.3 9.256L26.728 8.684C26.6933 8.64933 26.5893 8.528 26.416 8.32C26.2427 8.112 26.052 7.904 25.844 7.696C25.636 7.488 25.4453 7.29733 25.272 7.124C25.0987 6.916 24.9947 6.77733 24.96 6.708C24.9253 6.67333 24.7867 6.552 24.544 6.344C24.336 6.136 24.2147 5.99734 24.18 5.928C24.1107 5.85867 23.972 5.70267 23.764 5.46C23.556 5.18267 23.4347 5.00933 23.4 4.94C23.3653 4.94 23.348 4.90533 23.348 4.836C23.348 4.76667 23.348 4.732 23.348 4.732ZM12.168 1.04C12.2373 1.04 12.324 1.04 12.428 1.04C12.532 1.00534 12.6187 0.988003 12.688 0.988003C12.7573 0.988003 12.844 1.00534 12.948 1.04C13.0867 1.04 13.156 1.04 13.156 1.04C13.2253 1.04 13.364 1.07467 13.572 1.144C13.78 1.17867 13.9013 1.196 13.936 1.196L14.56 1.82C14.6293 1.88933 14.82 2.09733 15.132 2.444C15.444 2.756 15.7733 3.10267 16.12 3.484C16.4667 3.86533 16.796 4.22933 17.108 4.576C17.42 4.888 17.6107 5.07867 17.68 5.148C18.2693 5.80667 18.8587 6.46534 19.448 7.124C20.072 7.748 20.6613 8.40667 21.216 9.1H21.008H20.852C20.7827 9.06533 20.6267 9.01333 20.384 8.944C20.1413 8.84 19.968 8.75334 19.864 8.684C19.6907 8.61467 19.448 8.51067 19.136 8.372C18.8587 8.19867 18.7027 8.112 18.668 8.112C18.5987 8.04267 18.3907 7.83467 18.044 7.488C17.732 7.14133 17.4893 6.88133 17.316 6.708C16.9347 6.32667 16.4667 5.84133 15.912 5.252C15.3573 4.66267 14.82 4.09067 14.3 3.536C13.78 2.94667 13.3293 2.444 12.948 2.028C12.5667 1.612 12.376 1.404 12.376 1.404L12.168 1.04ZM27.872 7.02L27.924 6.916C27.924 6.77733 27.9933 6.708 28.132 6.708H28.392H28.704C28.7733 6.74267 28.8773 6.77734 29.016 6.812C29.1547 6.84667 29.2413 6.88133 29.276 6.916C29.4493 7.02 29.588 7.15867 29.692 7.332L28.912 8.112L27.924 7.124L27.872 7.02ZM16.536 6.708C16.6053 6.708 16.64 6.77733 16.64 6.916C16.64 7.05467 16.6053 7.124 16.536 7.124C16.432 7.124 16.38 7.05467 16.38 6.916C16.38 6.77733 16.432 6.708 16.536 6.708ZM10.036 1.612C10.036 1.57733 10.0187 1.54267 9.984 1.508C9.984 1.47333 9.984 1.43867 9.984 1.404C9.984 1.36933 9.984 1.33467 9.984 1.3C10.0187 1.26534 10.036 1.23067 10.036 1.196C10.036 1.196 10.088 1.17867 10.192 1.144C10.296 1.07467 10.3653 1.04 10.4 1.04C10.4347 1.04 10.4867 1.04 10.556 1.04C10.6253 1.00534 10.6773 0.988003 10.712 0.988003C10.7467 0.988003 10.7987 1.00534 10.868 1.04C10.9373 1.04 10.9893 1.04 11.024 1.04C11.1627 1.04 11.284 1.092 11.388 1.196L12.376 2.184C12.4107 2.25334 12.532 2.392 12.74 2.6C12.948 2.808 13.156 3.03334 13.364 3.276C13.572 3.51867 13.7627 3.76134 13.936 4.004C14.144 4.212 14.2827 4.33333 14.352 4.368L14.716 4.732C14.8893 4.90533 15.0973 5.148 15.34 5.46C15.6173 5.73733 15.8427 5.98 16.016 6.188C16.1893 6.36133 16.2933 6.46533 16.328 6.5V6.812C16.2587 6.812 16.1547 6.812 16.016 6.812C15.8773 6.77734 15.7733 6.74267 15.704 6.708C15.6693 6.708 15.5307 6.67333 15.288 6.604C15.0453 6.5 14.8547 6.41333 14.716 6.344C14.6813 6.30934 14.612 6.27467 14.508 6.24C14.404 6.17067 14.352 6.136 14.352 6.136L13.156 4.94C13.052 4.836 12.844 4.628 12.532 4.316C12.2547 4.004 11.9427 3.67467 11.596 3.328C11.2493 2.94667 10.92 2.6 10.608 2.288C10.3307 1.976 10.14 1.75067 10.036 1.612ZM3.952 4.368H4.108C4.17733 4.40267 4.24667 4.472 4.316 4.576C4.42 4.64533 4.48933 4.69734 4.524 4.732C4.48933 4.76667 4.45467 4.81867 4.42 4.888C4.38533 4.92267 4.35067 4.94 4.316 4.94C4.28133 4.97467 4.212 5.02667 4.108 5.096C4.004 5.13067 3.952 5.148 3.952 5.148C3.88267 5.148 3.744 5.16533 3.536 5.2C3.36267 5.2 3.25867 5.2 3.224 5.2C3.224 5.13067 3.224 5.02667 3.224 4.888C3.25867 4.71467 3.29333 4.61067 3.328 4.576C3.36267 4.54133 3.41467 4.50667 3.484 4.472C3.588 4.40267 3.67467 4.368 3.744 4.368H3.952ZM7.8 1.82C7.8 1.78534 7.8 1.75067 7.8 1.716C7.83467 1.64667 7.852 1.612 7.852 1.612C7.88667 1.57733 7.97333 1.54267 8.112 1.508C8.28533 1.47333 8.40667 1.43867 8.476 1.404H8.632C8.90933 1.404 9.13467 1.49067 9.308 1.664C9.48133 1.83733 9.65467 2.01067 9.828 2.184C10.036 2.42667 10.3307 2.77334 10.712 3.224C11.128 3.64 11.4573 3.98667 11.7 4.264C11.9773 4.54133 12.1333 4.69734 12.168 4.732L12.376 5.148H12.168H12.012C11.9427 5.148 11.804 5.13067 11.596 5.096C11.388 5.02667 11.2493 4.97467 11.18 4.94C11.1107 4.90534 10.972 4.85333 10.764 4.784C10.556 4.68 10.4347 4.61067 10.4 4.576L7.852 1.976C7.852 1.976 7.83467 1.95867 7.8 1.924C7.8 1.88933 7.8 1.85467 7.8 1.82ZM4.524 3.588C4.524 3.55333 4.59333 3.46667 4.732 3.328C4.90533 3.15467 5.02667 3.03333 5.096 2.964H5.2H5.304C5.37333 2.99867 5.44267 3.05067 5.512 3.12C5.616 3.15467 5.68533 3.172 5.72 3.172C5.78933 3.24133 5.91067 3.41467 6.084 3.692C6.292 3.93467 6.43067 4.09067 6.5 4.16V4.264V4.368C6.43067 4.40267 6.292 4.43733 6.084 4.472C5.91067 4.50667 5.78933 4.54133 5.72 4.576H5.46H5.304C5.26933 4.54133 5.18267 4.45467 5.044 4.316C4.90533 4.14267 4.80133 4.02133 4.732 3.952C4.66267 3.91734 4.61067 3.848 4.576 3.744C4.54133 3.64 4.524 3.588 4.524 3.588ZM23.192 4.368C23.296 4.368 23.348 4.43734 23.348 4.576C23.348 4.68 23.296 4.732 23.192 4.732C23.088 4.732 23.036 4.68 23.036 4.576C23.036 4.43734 23.088 4.368 23.192 4.368ZM6.084 2.808V2.6V2.392L6.292 2.184C6.32667 2.14933 6.396 2.11467 6.5 2.08C6.604 2.04533 6.67333 2.01067 6.708 1.976H6.916H7.072C7.10667 2.01067 7.19333 2.11467 7.332 2.288C7.47067 2.42667 7.57467 2.53067 7.644 2.6C7.748 2.704 7.904 2.87733 8.112 3.12C8.32 3.328 8.476 3.51867 8.58 3.692C8.71867 3.83067 8.80533 3.91734 8.84 3.952V4.42C8.77067 4.42 8.66667 4.42 8.528 4.42C8.38933 4.38534 8.30267 4.368 8.268 4.368C8.164 4.33333 8.008 4.29867 7.8 4.264C7.592 4.22933 7.488 4.19467 7.488 4.16C7.34933 4.09067 7.10667 3.88267 6.76 3.536C6.41333 3.15467 6.188 2.912 6.084 2.808Z" fill="url(#paint0_linear)"/>
<defs>
<linearGradient id="paint0_linear" x1="37.5" y1="1.15499e-06" x2="4.5" y2="44.5" gradientUnits="userSpaceOnUse">
<stop offset="0.348958"/>
<stop offset="0.598958" stop-color="white"/>
</linearGradient>
</defs>
</svg>
