<svg width="124" height="76" viewBox="0 0 124 76" fill="none" xmlns="http://www.w3.org/2000/svg">
<path d="M112.9 58.7C112.9 58.8 112.9 58.9 112.9 58.9C112.9 62.3 110.2 65 106.8 65C103.4 65 100.7 62.3 100.7 58.9C100.7 58.8 100.7 58.7 100.7 58.7H89.8C89.9 68 97.4 75.5 106.8 75.5C116.1 75.5 123.7 68 123.8 58.7H112.9Z" fill="#FE3525"/>
<path d="M123.8 58.5C123.7 58.6 123.7 58.6 123.8 58.5C123.7 58.6 123.8 58.6 123.8 58.5Z" fill="#FF0055"/>
<path d="M123.7 58.5999C123.6 49.1999 116.1 41.7 106.7 41.7C97.4 41.7 89.8 49.2 89.7 58.5C89.7 58.5 89.7 58.4999 89.7 58.5999C89.7 58.5999 89.7 58.6 89.7 58.7H100.7C100.8 55.5 103.5 52.9 106.8 52.9C110.1 52.9 112.7 55.5 112.9 58.7L123.7 58.5999C123.8 58.5999 123.7 58.5999 123.7 58.5999Z" fill="#F7941F"/>
<path d="M86.3 58.5999C86.3 67.8999 78.8 75.5 69.4 75.5C60.1 75.5 52.5 67.8999 52.5 58.5999C52.5 49.2999 60 41.7 69.4 41.7C74 41.7 78.2 43.5999 81.3 46.5999C81.3 46.5999 61.2 58.7999 61.4 58.5999H86.3Z" fill="#0025FF"/>
<path d="M37.9 41.7H49.5V75.5H37.9V41.7Z" fill="#FFAEC1"/>
<path d="M41.6 74.3C41.3 74.3 41.1 74.2 40.8 74.2H40.1C39.3 74.2 38.6 74.3 37.9 74.5V75.5H44.9C44.3 75.2 43.7 74.9 43.1 74.7C42.6 74.5 42.1 74.4 41.6 74.3Z" fill="white"/>
<path d="M46.7 71.8C45.8 71.1 44.8 70.5 43.7 70.1C43.4 70 43.1 69.9 42.9 69.8C42.6 69.7 42.3 69.6 42 69.6C41.7 69.5 41.4 69.5 41.1 69.5H40.2C39.4 69.5 38.7 69.6 38 69.8V71.6C38.7 71.4 39.5 71.2 40.2 71.2C42.2 71.2 44 72.1 45.6 73.4C46.4 74 47.1 74.7 47.8 75.5C47.8 75.6 47.9 75.6 47.9 75.7H49.5V74.5C48.6 73.4 47.7 72.6 46.7 71.8Z" fill="white"/>
<path d="M49.4 69.4C48.6 68.6 47.7 67.8 46.8 67C45.8 66.3 44.8 65.6 43.6 65.1L42.7 64.8C42.4 64.7 42 64.7 41.7 64.6C41.3 64.5 41 64.5 40.7 64.5H40.3C40.2 64.5 40.3 64.5 40.1 64.5H40H39.8C39.5 64.5 39.1 64.5 38.8 64.6L37.9 64.8V66.5C38 66.5 38.1 66.4 38.2 66.4L39 66.2C39.3 66.1 39.5 66.2 39.8 66.1H40H40.1C40 66.1 40.1 66.1 40.1 66.1H40.5C40.8 66.1 41.1 66.1 41.3 66.2C41.5 66.3 41.8 66.3 42 66.4L42.7 66.7C43.7 67.1 44.6 67.7 45.4 68.4C46.8 69.6 48.1 71 49.2 72.4L49.4 69.4Z" fill="white"/>
<path d="M46.8 62.1C45.8 61.4 44.8 60.7 43.6 60.2L42.7 59.9C42.4 59.8 42 59.8 41.7 59.7C41.4 59.6 41.1 59.6 40.8 59.6H40.4C40.3 59.6 40.4 59.6 40.2 59.6H40.1H39.9C39.6 59.6 39.2 59.6 38.9 59.7L38 59.9V61.5C38.1 61.5 38.2 61.4 38.3 61.4L39.1 61.2C39.4 61.1 39.6 61.2 39.9 61.1H40.1H40.2C40.1 61.1 40.2 61.1 40.3 61.1H40.7C41 61.1 41.3 61.1 41.5 61.2C41.7 61.3 42 61.3 42.2 61.4L43 61.7C44 62.1 44.9 62.7 45.8 63.4C47.2 64.6 48.4 65.9 49.6 67.3V64.5C48.6 63.7 47.7 62.8 46.8 62.1Z" fill="white"/>
<path d="M46.7 57.1C45.7 56.4 44.7 55.7 43.5 55.2L42.6 54.9C42.3 54.8 41.9 54.8 41.6 54.7C41.3 54.6 41 54.6 40.7 54.6H40.3C40.2 54.6 40.3 54.6 40.1 54.6H40H39.8C39.5 54.6 39.1 54.6 38.8 54.7L37.9 54.9V56.4C38 56.4 38.1 56.3 38.2 56.3L39 56.1C39.3 56 39.5 56.1 39.8 56H40H40.1C40 56 40.1 56 40.2 56H40.6C40.9 56 41.2 56 41.4 56.1C41.6 56.2 41.9 56.2 42.1 56.3L42.9 56.6C43.9 57 44.8 57.6 45.7 58.3C47.1 59.4 48.3 60.8 49.4 62.2V59.6C48.6 58.8 47.7 57.9 46.7 57.1Z" fill="white"/>
<path d="M46.7 54.2C47.7 55.1 48.6 56.1999 49.5 57.2999V54.7999C49.3 54.5999 49.1 54.4 48.9 54.2H46.7Z" fill="white"/>
<path d="M22.2 58.1V75.5H33.7V58L24.9 58.1H22.2Z" fill="#0025FF"/>
<path d="M16.9 41.7C7.6 41.7 0 48.9 0 57.9V75.5H11.6V58.0999H22.3H25H33.8C33.7 48.9999 26.2 41.7 16.9 41.7Z" fill="#F7941F"/>
<path d="M112.2 0H123.8V33.8H112.2V0Z" fill="#FC3323"/>
<path d="M102.5 0H90.9V16.9H102.5V0Z" fill="#FFAEC1"/>
<path d="M90.9 17.7V33.8H102.5V17.7V16.9H90.9V17.7Z" fill="#0025FF"/>
<path d="M104.6 11.6001C103.9 12.1001 103.1 12.6001 102.4 13.1001V15.0001C104 13.8001 105.6 12.7001 107.2 11.6001H104.6Z" fill="#0025FF"/>
<path d="M103.9 17.7C105.8 16 107.9 14.5 110 13L111.6 11.9L112.1 11.5H109.6C107.3 13 105 14.6 102.8 16.4C102.7 16.5 102.5 16.6 102.4 16.8V19.1C102.9 18.7 103.4 18.2 103.9 17.7Z" fill="#0025FF"/>
<path d="M106.2 20.4001C107 19.4001 107.8 18.5001 108.8 17.7001C110.7 16.0001 112.8 14.5001 114.9 13.0001C115.6 12.5001 116.3 12.1001 117 11.6001H114.7C112.3 13.1001 110 14.7001 107.8 16.6001C106.8 17.5001 105.8 18.4001 105 19.4001C104.1 20.4001 103.4 21.6001 102.9 22.9001H104.7C105.1 22.0001 105.6 21.2001 106.2 20.4001Z" fill="#0025FF"/>
<path d="M113.8 17.7C115.6 16 117.7 14.4 119.8 12.8C120.5 12.3 121.1 11.8 121.8 11.3L119.6 11.4C117.3 13 115 14.7 112.9 16.6C111.9 17.5 111 18.5 110.2 19.5C109.4 20.5 108.7 21.7 108.3 23L109.9 22.9C110.3 22 110.8 21.1 111.4 20.3C112 19.5 112.9 18.6 113.8 17.7Z" fill="#0025FF"/>
<path d="M118.7 17.6C120.3 16.2 122 14.9 123.8 13.7V12.3C121.8 13.7 119.7 15.1 117.8 16.7C116.8 17.6 115.8 18.5 115 19.5C114.2 20.5 113.4 21.7 113 22.9H114.5C115.4 20.9 117 19.2 118.7 17.6Z" fill="#0025FF"/>
<path d="M123.6 17.6C123.7 17.6 123.7 17.5 123.8 17.5V15.9C123.5 16.2 123.1 16.4 122.8 16.7C121.8 17.6 120.8 18.5 120 19.5C119.2 20.5 118.5 21.6 118 22.9H119.4C119.8 22 120.4 21.1 121 20.3C121.8 19.3 122.7 18.5 123.6 17.6Z" fill="#0025FF"/>
<path d="M123.8 21.2001C123.5 21.7001 123.2 22.3001 123 22.9001H123.8V21.2001Z" fill="#0025FF"/>
<path d="M87.4 33.8C78.1 33.8 70.5 26.2 70.5 16.9C70.5 7.6 78 0 87.4 0V33.8Z" fill="#F7941F"/>
<path d="M51.6 0.099954C56.3 0.099954 60.5 1.99995 63.5 4.99995C60.4 1.89995 56.2 -4.59999e-05 51.6 0.099954C42.2 0.099954 34.7 7.59995 34.7 17C34.7 7.59995 42.2 0.099954 51.6 0.099954Z" fill="#D1A537"/>
<path d="M51.5 33.9C56.1 33.9 60.3 32 63.4 29C63.4 29 43.4 16.9 43.5 17H34.6C34.7 26.3 42.2 33.9 51.5 33.9Z" fill="#FE3525"/>
<path d="M68.5 16.9C68.5 12.2 66.6 7.99998 63.6 4.99998C60.6 1.99998 56.3 0.0999756 51.7 0.0999756C42.4 0.0999756 34.8 7.59998 34.8 17H43.7L68.5 16.9Z" fill="#FFAEC1"/>
<path d="M15.5 0.0999756H27.1V33.9H15.5V0.0999756Z" fill="#FB3222"/>
<path d="M32.4 6.29993V17.8999H0V6.29993H32.4Z" fill="#0025FF"/>
</svg>
