<svg data-v-fde0c5aa="" xmlns="http://www.w3.org/2000/svg" viewBox="0 0 300 300" class="iconLeft"><!----><defs data-v-fde0c5aa=""><!----></defs><rect data-v-fde0c5aa="" fill="#A9826D" x="0" y="0" width="300px" height="300px" class="logo-background-square"></rect><defs data-v-fde0c5aa=""><!----></defs><g data-v-fde0c5aa="" id="576d7aea-3436-4a38-bb9b-0d601ce9a173" fill="#EECAE3" transform="matrix(2.153885639080223,0,0,2.153885639080223,91.97537014669469,128.49372069401852)"><path d="M2.51 6.29L2.51 7.07L2.51 7.07Q3.02 6.55 3.65 6.31L3.65 6.31L3.65 6.31Q4.27 6.08 4.90 6.10L4.90 6.10L4.90 6.10Q5.53 6.13 6.12 6.40L6.12 6.40L6.12 6.40Q6.71 6.66 7.15 7.15L7.15 7.15L7.15 7.15Q7.60 7.64 7.88 8.34L7.88 8.34L7.88 8.34Q8.15 9.03 8.15 9.90L8.15 9.90L8.15 9.90Q8.15 10.74 7.85 11.44L7.85 11.44L7.85 11.44Q7.56 12.14 7.07 12.64L7.07 12.64L7.07 12.64Q6.58 13.15 5.94 13.42L5.94 13.42L5.94 13.42Q5.31 13.69 4.63 13.66L4.63 13.66L4.63 13.66Q3.93 13.64 3.53 13.36L3.53 13.36L3.53 13.36Q3.12 13.09 2.94 12.73L2.94 12.73L2.94 12.73Q2.76 12.38 2.76 12.01L2.76 12.01L2.76 12.01Q2.76 11.63 2.88 11.41L2.88 11.41L2.88 11.41Q3.01 11.58 3.19 11.70L3.19 11.70L3.19 11.70Q3.36 11.82 3.56 11.88L3.56 11.88L3.56 11.88Q3.77 11.94 3.98 11.97L3.98 11.97L3.98 11.97Q4.20 12.00 4.40 12.00L4.40 12.00L4.40 12.00Q5.04 12.00 5.47 11.68L5.47 11.68L5.47 11.68Q5.91 11.37 6.13 10.90L6.13 10.90L6.13 10.90Q6.34 10.43 6.34 9.88L6.34 9.88L6.34 9.88Q6.34 9.32 6.13 8.86L6.13 8.86L6.13 8.86Q5.92 8.39 5.49 8.07L5.49 8.07L5.49 8.07Q5.05 7.76 4.40 7.76L4.40 7.76L4.40 7.76Q3.85 7.76 3.49 8.01L3.49 8.01L3.49 8.01Q3.12 8.26 2.91 8.66L2.91 8.66L2.91 8.66Q2.69 9.06 2.60 9.55L2.60 9.55L2.60 9.55Q2.51 10.04 2.51 10.53L2.51 10.53L2.51 16.25L0.70 16.25L0.70 7.74L0.70 7.74Q0.70 7.38 0.85 7.10L0.85 7.10L0.85 7.10Q0.99 6.82 1.25 6.63L1.25 6.63L1.25 6.63Q1.50 6.44 1.82 6.36L1.82 6.36L1.82 6.36Q2.14 6.27 2.51 6.29L2.51 6.29ZM12.78 6.10L12.78 6.10L12.78 6.10Q13.89 6.10 14.75 6.64L14.75 6.64L14.75 6.64Q15.61 7.17 16.10 7.99L16.10 7.99L16.10 7.99Q16.59 8.82 16.63 9.83L16.63 9.83L16.63 9.83Q16.66 10.84 16.11 11.80L16.11 11.80L16.11 11.80Q15.65 12.60 14.91 13.08L14.91 13.08L14.91 13.08Q14.17 13.55 13.33 13.67L13.33 13.67L13.33 13.67Q12.49 13.79 11.64 13.53L11.64 13.53L11.64 13.53Q10.79 13.27 10.12 12.60L10.12 12.60L10.12 12.60Q9.37 11.83 9.11 10.82L9.11 10.82L9.11 10.82Q8.86 9.81 9.16 8.81L9.16 8.81L9.16 8.81Q9.28 8.40 9.57 8.13L9.57 8.13L9.57 8.13Q9.86 7.87 10.22 7.74L10.22 7.74L10.22 7.74Q10.58 7.62 10.98 7.63L10.98 7.63L10.98 7.63Q11.37 7.64 11.70 7.79L11.70 7.79L11.70 7.79Q12.04 7.94 12.27 8.21L12.27 8.21L12.27 8.21Q12.50 8.48 12.54 8.88L12.54 8.88L12.54 8.88Q12.33 8.72 12.04 8.71L12.04 8.71L12.04 8.71Q11.75 8.71 11.47 8.84L11.47 8.84L11.47 8.84Q11.20 8.97 11.01 9.25L11.01 9.25L11.01 9.25Q10.82 9.52 10.82 9.93L10.82 9.93L10.82 9.93Q10.82 10.63 11.12 11.09L11.12 11.09L11.12 11.09Q11.41 11.55 11.85 11.78L11.85 11.78L11.85 11.78Q12.29 12.01 12.80 12.01L12.80 12.01L12.80 12.01Q13.31 12.01 13.75 11.77L13.75 11.77L13.75 11.77Q14.20 11.54 14.49 11.07L14.49 11.07L14.49 11.07Q14.78 10.60 14.78 9.90L14.78 9.90L14.78 9.90Q14.78 9.35 14.59 8.93L14.59 8.93L14.59 8.93Q14.39 8.51 14.06 8.24L14.06 8.24L14.06 8.24Q13.73 7.97 13.30 7.86L13.30 7.86L13.30 7.86Q12.87 7.76 12.38 7.85L12.38 7.85L12.38 7.85Q12.17 7.60 11.87 7.46L11.87 7.46L11.87 7.46Q11.56 7.31 11.21 7.26L11.21 7.26L11.21 7.26Q10.86 7.21 10.51 7.27L10.51 7.27L10.51 7.27Q10.16 7.34 9.86 7.52L9.86 7.52L9.86 7.52Q10.42 6.85 11.16 6.48L11.16 6.48L11.16 6.48Q11.90 6.10 12.78 6.10ZM23.39 8.96L23.39 8.96L23.39 8.96Q23.28 8.57 22.97 8.30L22.97 8.30L22.97 8.30Q22.65 8.04 22.23 7.90L22.23 7.90L22.23 7.90Q21.81 7.77 21.34 7.78L21.34 7.78L21.34 7.78Q20.86 7.78 20.43 7.97L20.43 7.97L20.43 7.97Q20.01 8.15 19.68 8.51L19.68 8.51L19.68 8.51Q19.36 8.86 19.24 9.41L19.24 9.41L19.24 9.41Q19.14 9.86 19.21 10.32L19.21 10.32L19.21 10.32Q19.28 10.78 19.53 11.15L19.53 11.15L19.53 11.15Q19.78 11.52 20.21 11.76L20.21 11.76L20.21 11.76Q20.64 12.00 21.24 12.00L21.24 12.00L21.24 12.00Q22.37 12.00 23.00 11.17L23.00 11.17L24.33 12.14L24.33 12.14Q23.27 13.64 21.27 13.64L21.27 13.64L21.27 13.64Q20.22 13.64 19.45 13.24L19.45 13.24L19.45 13.24Q18.69 12.84 18.21 12.20L18.21 12.20L18.21 12.20Q17.74 11.56 17.57 10.77L17.57 10.77L17.57 10.77Q17.40 9.98 17.54 9.21L17.54 9.21L17.54 9.21Q17.67 8.43 18.12 7.74L18.12 7.74L18.12 7.74Q18.56 7.04 19.33 6.61L19.33 6.61L19.33 6.61Q19.91 6.29 20.56 6.17L20.56 6.17L20.56 6.17Q21.21 6.05 21.87 6.15L21.87 6.15L21.87 6.15Q22.74 6.27 23.22 6.66L23.22 6.66L23.22 6.66Q23.70 7.06 23.86 7.51L23.86 7.51L23.86 7.51Q24.01 7.97 23.88 8.38L23.88 8.38L23.88 8.38Q23.74 8.79 23.39 8.96ZM27.23 3.72L27.23 9.37L28.76 7.67L28.76 7.67Q29.22 7.15 29.67 6.83L29.67 6.83L29.67 6.83Q30.11 6.51 30.74 6.47L30.74 6.47L30.74 6.47Q31.05 6.45 31.33 6.52L31.33 6.52L31.33 6.52Q31.61 6.58 31.79 6.74L31.79 6.74L31.79 6.74Q31.98 6.90 32.03 7.15L32.03 7.15L32.03 7.15Q32.09 7.39 31.96 7.74L31.96 7.74L31.96 7.74Q31.91 7.64 31.76 7.61L31.76 7.61L31.76 7.61Q31.61 7.57 31.41 7.62L31.41 7.62L31.41 7.62Q31.21 7.66 30.97 7.79L30.97 7.79L30.97 7.79Q30.73 7.92 30.51 8.19L30.51 8.19L29.02 9.83L32.44 13.52L30.23 13.52L27.23 10.26L27.23 13.52L25.45 13.52L25.45 5.15L25.45 5.15Q25.45 4.48 25.93 4.10L25.93 4.10L25.93 4.10Q26.42 3.71 27.23 3.72L27.23 3.72ZM37.56 10.72L37.56 10.72L37.56 10.72Q36.81 10.92 36.18 10.86L36.18 10.86L36.18 10.86Q35.56 10.81 35.16 10.56L35.16 10.56L35.16 10.56Q34.76 10.32 34.63 9.91L34.63 9.91L34.63 9.91Q34.50 9.49 34.71 8.97L34.71 8.97L34.71 8.97Q35.14 9.34 35.71 9.37L35.71 9.37L35.71 9.37Q36.29 9.41 36.82 9.35L36.82 9.35L36.82 9.35Q37.27 9.31 37.50 9.16L37.50 9.16L37.50 9.16Q37.73 9.00 37.79 8.80L37.79 8.80L37.79 8.80Q37.84 8.60 37.74 8.37L37.74 8.37L37.74 8.37Q37.65 8.15 37.43 7.97L37.43 7.97L37.43 7.97Q37.21 7.78 36.90 7.67L36.90 7.67L36.90 7.67Q36.58 7.56 36.20 7.57L36.20 7.57L36.20 7.57Q35.80 7.60 35.43 7.77L35.43 7.77L35.43 7.77Q35.07 7.94 34.79 8.23L34.79 8.23L34.79 8.23Q34.51 8.53 34.34 8.92L34.34 8.92L34.34 8.92Q34.17 9.31 34.16 9.79L34.16 9.79L34.16 9.79Q34.15 10.18 34.25 10.56L34.25 10.56L34.25 10.56Q34.36 10.93 34.57 11.25L34.57 11.25L34.57 11.25Q34.78 11.56 35.07 11.78L35.07 11.78L35.07 11.78Q35.36 12.00 35.74 12.05L35.74 12.05L35.74 12.05Q36.27 12.15 36.83 11.98L36.83 11.98L36.83 11.98Q37.39 11.82 37.83 11.37L37.83 11.37L39.30 12.08L39.30 12.08Q38.72 12.94 37.94 13.31L37.94 13.31L37.94 13.31Q37.16 13.68 36.15 13.68L36.15 13.68L36.15 13.68Q35.21 13.68 34.50 13.35L34.50 13.35L34.50 13.35Q33.80 13.02 33.33 12.47L33.33 12.47L33.33 12.47Q32.86 11.93 32.63 11.24L32.63 11.24L32.63 11.24Q32.40 10.54 32.41 9.82L32.41 9.82L32.41 9.82Q32.42 9.10 32.69 8.41L32.69 8.41L32.69 8.41Q32.96 7.71 33.46 7.18L33.46 7.18L33.46 7.18Q34.02 6.58 34.77 6.33L34.77 6.33L34.77 6.33Q35.52 6.08 36.30 6.08L36.30 6.08L36.30 6.08Q37.17 6.08 37.80 6.37L37.80 6.37L37.80 6.37Q38.43 6.66 38.82 7.12L38.82 7.12L38.82 7.12Q39.21 7.57 39.34 8.13L39.34 8.13L39.34 8.13Q39.47 8.68 39.32 9.20L39.32 9.20L39.32 9.20Q39.17 9.72 38.74 10.13L38.74 10.13L38.74 10.13Q38.30 10.54 37.56 10.72ZM41.36 6.33L41.36 5.15L41.36 5.15Q41.36 4.76 41.50 4.49L41.50 4.49L41.50 4.49Q41.65 4.21 41.90 4.05L41.90 4.05L41.90 4.05Q42.14 3.88 42.46 3.80L42.46 3.80L42.46 3.80Q42.78 3.72 43.12 3.72L43.12 3.72L43.12 6.33L44.74 6.33L44.74 6.33Q44.74 6.61 44.70 6.87L44.70 6.87L44.70 6.87Q44.65 7.14 44.51 7.36L44.51 7.36L44.51 7.36Q44.37 7.57 44.13 7.71L44.13 7.71L44.13 7.71Q43.89 7.84 43.51 7.84L43.51 7.84L43.12 7.84L43.12 11.80L43.12 11.80Q43.12 12.03 43.29 12.12L43.29 12.12L43.29 12.12Q43.46 12.21 43.68 12.20L43.68 12.20L43.68 12.20Q43.90 12.19 44.13 12.10L44.13 12.10L44.13 12.10Q44.35 12.00 44.45 11.83L44.45 11.83L44.45 11.83Q44.63 12.29 44.47 12.65L44.47 12.65L44.47 12.65Q44.31 13.01 43.97 13.22L43.97 13.22L43.97 13.22Q43.62 13.44 43.17 13.50L43.17 13.50L43.17 13.50Q42.71 13.57 42.32 13.43L42.32 13.43L42.32 13.43Q41.92 13.30 41.64 12.96L41.64 12.96L41.64 12.96Q41.36 12.61 41.36 12.03L41.36 12.03L41.36 7.84L40.46 7.84L40.46 6.33L41.36 6.33ZM47.67 6.27L47.67 7.11L47.67 7.11Q47.78 6.86 48.01 6.68L48.01 6.68L48.01 6.68Q48.24 6.50 48.52 6.37L48.52 6.37L48.52 6.37Q48.80 6.24 49.10 6.17L49.10 6.17L49.10 6.17Q49.39 6.10 49.64 6.09L49.64 6.09L49.64 6.09Q50.18 6.06 50.69 6.24L50.69 6.24L50.69 6.24Q51.21 6.41 51.65 6.85L51.65 6.85L51.65 6.85Q52.28 7.50 52.28 8.74L52.28 8.74L52.28 13.52L50.48 13.52L50.48 13.52Q50.48 13.29 50.49 12.88L50.49 12.88L50.49 12.88Q50.50 12.47 50.50 11.99L50.50 11.99L50.50 11.99Q50.50 11.51 50.50 10.99L50.50 10.99L50.50 10.99Q50.50 10.47 50.48 10.01L50.48 10.01L50.48 10.01Q50.47 9.55 50.44 9.18L50.44 9.18L50.44 9.18Q50.41 8.82 50.37 8.65L50.37 8.65L50.37 8.65Q50.26 8.20 49.95 7.98L49.95 7.98L49.95 7.98Q49.63 7.76 49.27 7.76L49.27 7.76L49.27 7.76Q48.79 7.76 48.52 8.02L48.52 8.02L48.52 8.02Q48.26 8.27 48.26 8.69L48.26 8.69L48.26 8.69Q48.09 8.64 47.92 8.46L47.92 8.46L47.92 8.46Q47.75 8.29 47.67 8.09L47.67 8.09L47.67 8.47L47.67 13.52L45.86 13.52L45.86 6.27L47.67 6.27ZM58.62 10.72L58.62 10.72L58.62 10.72Q57.86 10.92 57.24 10.86L57.24 10.86L57.24 10.86Q56.62 10.81 56.22 10.56L56.22 10.56L56.22 10.56Q55.82 10.32 55.69 9.91L55.69 9.91L55.69 9.91Q55.55 9.49 55.76 8.97L55.76 8.97L55.76 8.97Q56.20 9.34 56.77 9.37L56.77 9.37L56.77 9.37Q57.34 9.41 57.88 9.35L57.88 9.35L57.88 9.35Q58.32 9.31 58.56 9.16L58.56 9.16L58.56 9.16Q58.79 9.00 58.84 8.80L58.84 8.80L58.84 8.80Q58.90 8.60 58.80 8.37L58.80 8.37L58.80 8.37Q58.70 8.15 58.49 7.97L58.49 7.97L58.49 7.97Q58.27 7.78 57.95 7.67L57.95 7.67L57.95 7.67Q57.64 7.56 57.26 7.57L57.26 7.57L57.26 7.57Q56.85 7.60 56.49 7.77L56.49 7.77L56.49 7.77Q56.13 7.94 55.85 8.23L55.85 8.23L55.85 8.23Q55.57 8.53 55.40 8.92L55.40 8.92L55.40 8.92Q55.23 9.31 55.22 9.79L55.22 9.79L55.22 9.79Q55.20 10.18 55.31 10.56L55.31 10.56L55.31 10.56Q55.41 10.93 55.62 11.25L55.62 11.25L55.62 11.25Q55.83 11.56 56.13 11.78L56.13 11.78L56.13 11.78Q56.42 12.00 56.80 12.05L56.80 12.05L56.80 12.05Q57.33 12.15 57.89 11.98L57.89 11.98L57.89 11.98Q58.45 11.82 58.88 11.37L58.88 11.37L60.35 12.08L60.35 12.08Q59.78 12.94 59.00 13.31L59.00 13.31L59.00 13.31Q58.21 13.68 57.20 13.68L57.20 13.68L57.20 13.68Q56.27 13.68 55.56 13.35L55.56 13.35L55.56 13.35Q54.85 13.02 54.38 12.47L54.38 12.47L54.38 12.47Q53.91 11.93 53.68 11.24L53.68 11.24L53.68 11.24Q53.45 10.54 53.47 9.82L53.47 9.82L53.47 9.82Q53.48 9.10 53.75 8.41L53.75 8.41L53.75 8.41Q54.01 7.71 54.52 7.18L54.52 7.18L54.52 7.18Q55.08 6.58 55.83 6.33L55.83 6.33L55.83 6.33Q56.57 6.08 57.36 6.08L57.36 6.08L57.36 6.08Q58.23 6.08 58.86 6.37L58.86 6.37L58.86 6.37Q59.49 6.66 59.88 7.12L59.88 7.12L59.88 7.12Q60.27 7.57 60.40 8.13L60.40 8.13L60.40 8.13Q60.52 8.68 60.38 9.20L60.38 9.20L60.38 9.20Q60.23 9.72 59.79 10.13L59.79 10.13L59.79 10.13Q59.36 10.54 58.62 10.72ZM63.98 13.54L61.38 6.29L63.14 6.29L64.61 10.42L65.80 7.31L65.80 7.31Q65.93 6.97 66.09 6.77L66.09 6.77L66.09 6.77Q66.25 6.57 66.44 6.45L66.44 6.45L66.44 6.45Q66.63 6.34 66.84 6.31L66.84 6.31L66.84 6.31Q67.06 6.27 67.28 6.29L67.28 6.29L68.82 10.36L69.93 7.27L69.93 7.27Q70.08 6.85 70.33 6.61L70.33 6.61L70.33 6.61Q70.57 6.37 70.86 6.27L70.86 6.27L70.86 6.27Q71.15 6.16 71.46 6.17L71.46 6.17L71.46 6.17Q71.76 6.19 72.06 6.29L72.06 6.29L69.44 13.54L68.28 13.54L66.72 9.41L65.13 13.54L63.98 13.54ZM76.78 8.50L76.78 8.50L76.78 8.50Q76.66 8.23 76.47 8.07L76.47 8.07L76.47 8.07Q76.27 7.91 76.04 7.83L76.04 7.83L76.04 7.83Q75.81 7.74 75.59 7.74L75.59 7.74L75.59 7.74Q75.38 7.73 75.24 7.78L75.24 7.78L75.24 7.78Q74.98 7.87 74.91 8.07L74.91 8.07L74.91 8.07Q74.83 8.27 74.98 8.46L74.98 8.46L74.98 8.46Q75.11 8.60 75.38 8.73L75.38 8.73L75.38 8.73Q75.66 8.86 75.99 9.02L75.99 9.02L75.99 9.02Q76.33 9.18 76.69 9.39L76.69 9.39L76.69 9.39Q77.04 9.59 77.34 9.87L77.34 9.87L77.34 9.87Q77.63 10.15 77.82 10.53L77.82 10.53L77.82 10.53Q78.01 10.91 78.01 11.42L78.01 11.42L78.01 11.42Q78.01 12.03 77.74 12.48L77.74 12.48L77.74 12.48Q77.48 12.94 77.04 13.22L77.04 13.22L77.04 13.22Q76.59 13.50 76.04 13.60L76.04 13.60L76.04 13.60Q75.49 13.71 74.92 13.62L74.92 13.62L74.92 13.62Q74.35 13.54 73.82 13.24L73.82 13.24L73.82 13.24Q73.29 12.94 72.90 12.42L72.90 12.42L74.02 11.21L74.02 11.21Q74.37 11.63 74.75 11.82L74.75 11.82L74.75 11.82Q75.14 12.00 75.47 12.02L75.47 12.02L75.47 12.02Q75.80 12.04 76.02 11.92L76.02 11.92L76.02 11.92Q76.24 11.80 76.29 11.60L76.29 11.60L76.29 11.60Q76.34 11.40 76.17 11.15L76.17 11.15L76.17 11.15Q76.01 10.91 75.53 10.67L75.53 10.67L75.53 10.67Q75.08 10.44 74.66 10.21L74.66 10.21L74.66 10.21Q74.23 9.97 73.90 9.67L73.90 9.67L73.90 9.67Q73.57 9.38 73.37 9.02L73.37 9.02L73.37 9.02Q73.16 8.65 73.16 8.16L73.16 8.16L73.16 8.16Q73.16 7.66 73.37 7.27L73.37 7.27L73.37 7.27Q73.58 6.87 73.93 6.61L73.93 6.61L73.93 6.61Q74.28 6.34 74.73 6.22L74.73 6.22L74.73 6.22Q75.18 6.09 75.66 6.10L75.66 6.10L75.66 6.10Q76.47 6.15 76.90 6.46L76.90 6.46L76.90 6.46Q77.32 6.78 77.43 7.18L77.43 7.18L77.43 7.18Q77.53 7.57 77.36 7.95L77.36 7.95L77.36 7.95Q77.18 8.33 76.78 8.50Z"></path></g><defs data-v-fde0c5aa=""><!----></defs><g data-v-fde0c5aa="" id="453c84aa-9596-4571-b6a5-4fd4aa7ecdaa" stroke="none" fill="#EECAE3" transform="matrix(1.2650965646367038,0,0,1.2650965646367038,40,129.76477938692463)"><path d="M31 .995v30H1v-30h30m1-1H0v32h32v-32z"></path><path d="M16 7.045L24.955 16 16 24.955 7.045 16 16 7.045m0-1.414L5.631 16 16 26.369 26.369 16 16 5.631z"></path><path d="M16 12.538L19.462 16 16 19.462 12.538 16 16 12.538m0-1.414L11.124 16 16 20.876 20.876 16 16 11.124z"></path></g><!----></svg>