<svg id="Capa_1" enable-background="new 0 0 512 512" height="512" viewBox="0 0 512 512" width="512" xmlns="http://www.w3.org/2000/svg"><g><path d="m504.5 113.2c4.142 0 7.5-3.358 7.5-7.5v-28.17c0-28.419-23.121-51.54-51.54-51.54h-297.35c-28.419 0-51.54 23.121-51.54 51.54v42.32h-30.03c-4.142 0-7.5 3.358-7.5 7.5s3.358 7.5 7.5 7.5h30.03v63.669h-62.189c-4.142 0-7.5 3.358-7.5 7.5s3.358 7.5 7.5 7.5h62.189v33.46h-62.189c-4.142 0-7.5 3.358-7.5 7.5s3.358 7.5 7.5 7.5h62.189v33.45h-62.189c-4.142 0-7.5 3.358-7.5 7.5s3.358 7.5 7.5 7.5h62.189v33.45h-62.189c-4.142 0-7.5 3.358-7.5 7.5s3.358 7.5 7.5 7.5h62.189v33.45h-62.189c-4.142 0-7.5 3.358-7.5 7.5s3.358 7.5 7.5 7.5h62.189v15.4c0 26.622-21.658 48.28-48.28 48.28-26.627 0-48.29-21.658-48.29-48.28v-251.339c0-20.148 16.392-36.54 36.54-36.54 4.142 0 7.5-3.358 7.5-7.5s-3.358-7.5-7.5-7.5c-28.419 0-51.54 23.121-51.54 51.54v251.34c0 34.893 28.392 63.28 63.29 63.28h385.42c34.898 0 63.29-28.387 63.29-63.28v-287.03c0-4.142-3.358-7.5-7.5-7.5s-7.5 3.358-7.5 7.5v287.03c0 26.622-21.663 48.28-48.29 48.28h-344.577c13.711-11.617 22.437-28.944 22.437-48.28v-345.2c0-20.148 16.392-36.54 36.54-36.54h297.35c20.148 0 36.54 16.392 36.54 36.54v28.17c0 4.142 3.358 7.5 7.5 7.5z"/><path d="m460.461 64.386h-297.35c-4.142 0-7.5 3.358-7.5 7.5s3.358 7.5 7.5 7.5h297.35c4.142 0 7.5-3.358 7.5-7.5s-3.358-7.5-7.5-7.5z"/><path d="m460.46 190.509h-297.35c-4.142 0-7.5 3.358-7.5 7.5s3.358 7.5 7.5 7.5h297.35c4.142 0 7.5-3.358 7.5-7.5s-3.358-7.5-7.5-7.5z"/><path d="m467.96 271.365c0-17.869-14.538-32.407-32.406-32.407h-77.907c-17.869 0-32.406 14.538-32.406 32.407v95.547c0 17.869 14.538 32.407 32.406 32.407h77.907c17.869 0 32.406-14.538 32.406-32.407zm-15 95.547c0 9.598-7.809 17.407-17.406 17.407h-77.907c-9.598 0-17.406-7.809-17.406-17.407v-95.547c0-9.598 7.809-17.407 17.406-17.407h77.907c9.598 0 17.406 7.809 17.406 17.407z"/><path d="m332.74 432.769c-4.142 0-7.5 3.358-7.5 7.5s3.358 7.5 7.5 7.5h127.72c4.142 0 7.5-3.358 7.5-7.5s-3.358-7.5-7.5-7.5z"/><path d="m290.84 238.959h-127.73c-4.142 0-7.5 3.358-7.5 7.5s3.358 7.5 7.5 7.5h127.73c4.142 0 7.5-3.358 7.5-7.5s-3.358-7.5-7.5-7.5z"/><path d="m290.84 287.419h-127.73c-4.142 0-7.5 3.358-7.5 7.5s3.358 7.5 7.5 7.5h127.73c4.142 0 7.5-3.358 7.5-7.5s-3.358-7.5-7.5-7.5z"/><path d="m290.84 335.869h-127.73c-4.142 0-7.5 3.358-7.5 7.5s3.358 7.5 7.5 7.5h127.73c4.142 0 7.5-3.358 7.5-7.5s-3.358-7.5-7.5-7.5z"/><path d="m290.84 384.319h-127.73c-4.142 0-7.5 3.358-7.5 7.5s3.358 7.5 7.5 7.5h127.73c4.142 0 7.5-3.358 7.5-7.5s-3.358-7.5-7.5-7.5z"/><path d="m290.84 432.769h-127.73c-4.142 0-7.5 3.358-7.5 7.5s3.358 7.5 7.5 7.5h127.73c4.142 0 7.5-3.358 7.5-7.5s-3.358-7.5-7.5-7.5z"/><path d="m167.394 91.829c-3.134.977-5.268 3.878-5.268 7.16v72.051c0 4.142 3.358 7.5 7.5 7.5s7.5-3.358 7.5-7.5v-47.992l35.046 50.749c2.264 3.272 6.019 4.671 9.561 3.564 3.63-1.133 5.976-4.569 5.976-8.826l-.674-69.753c-.04-4.117-3.39-7.427-7.498-7.427-.024 0-.049 0-.074 0-4.142.04-7.467 3.43-7.427 7.572l.474 48.961-36.712-53.161c-1.865-2.7-5.27-3.875-8.404-2.898z"/><path d="m288.914 107.013c4.142 0 7.5-3.358 7.5-7.5s-3.358-7.5-7.5-7.5h-30.138c-4.142 0-7.5 3.358-7.5 7.5v71.527c0 4.142 3.358 7.5 7.5 7.5h30.138c4.142 0 7.5-3.358 7.5-7.5s-3.358-7.5-7.5-7.5h-22.638v-20.763h20.416c4.142 0 7.5-3.358 7.5-7.5s-3.358-7.5-7.5-7.5h-20.416v-20.763h22.638z"/><path d="m433.979 163.54c-7.597 0-14.924-3.079-19.598-8.237-2.781-3.068-7.523-3.303-10.594-.521-3.069 2.781-3.302 7.524-.521 10.594 7.47 8.243 18.951 13.164 30.712 13.164 14.24 0 26.654-9.383 28.876-21.827 1.689-9.458-2.682-21.841-20.012-28.234-9.112-3.361-17.577-7.027-19.91-8.05-1.921-1.459-2.849-3.753-2.493-6.234.224-1.563 1.337-5.377 6.81-7.026 10.984-3.309 21.004 4.658 21.27 4.873 3.17 2.636 7.879 2.219 10.537-.941 2.665-3.171 2.255-7.902-.916-10.567-.655-.551-16.277-13.432-35.217-7.727-9.391 2.829-16.032 10.208-17.331 19.257-1.214 8.454 2.449 16.585 9.558 21.22.332.216.679.406 1.041.567.416.186 10.312 4.59 21.46 8.703 7.45 2.748 11.254 6.948 10.437 11.524-.83 4.651-6.335 9.462-14.109 9.462z"/><path d="m319.186 172.469c1.293 3.638 4.745 6.071 8.602 6.071h.063c3.882-.026 7.33-2.514 8.58-6.189.022-.065.044-.131.064-.198l14.799-47.813 14.733 47.824c.031.102.064.203.1.303 1.3 3.659 4.78 6.103 8.665 6.073 3.883-.026 7.332-2.515 8.581-6.191.105-.311.19-.628.255-.95l14.12-70.949c.808-4.063-1.83-8.011-5.892-8.82-4.063-.81-8.011 1.829-8.82 5.892l-9.541 47.938-15.038-48.814c-1.092-3.546-4.61-5.761-8.284-5.208-3.174.478-5.634 2.902-6.239 5.95l-14.881 48.078-9.508-48.067c-.804-4.063-4.753-6.706-8.813-5.902-4.063.804-6.706 4.749-5.902 8.813l14.064 71.102c.072.359.169.713.292 1.057z"/></g></svg>