<?xml version="1.0" encoding="utf-8"?>
<!-- Generator: Adobe Illustrator 24.2.1, SVG Export Plug-In . SVG Version: 6.00 Build 0)  -->
<svg version="1.1" id="Lager_1" xmlns="http://www.w3.org/2000/svg" xmlns:xlink="http://www.w3.org/1999/xlink" x="0px" y="0px"
	 viewBox="0 0 400 100" style="enable-background:new 0 0 400 100;" xml:space="preserve">
<style type="text/css">
	.st0{fill:#FFFFFF;stroke:#000000;stroke-width:2.3;stroke-miterlimit:10;}
	.st1{fill:#FFFFFF;}
	.st2{fill:none;stroke:#000000;stroke-width:2.3;stroke-miterlimit:10;}
	.st3{fill-rule:evenodd;clip-rule:evenodd;}
</style>
<path class="st0" d="M41.37-99.62c1.83-2.89,0.05-5.51-3.1-5.94c-3.7-0.5-8.85,0.48-12.05,2.87c4.55,1.97,6.41,4.08,9.15,5.05
	C37.76-96.78,40.18-97.75,41.37-99.62z"/>
<g>
	<g>
		<path d="M275-164.76c0-2.39,0.41-4.73,1.24-7.02c0.83-2.29,2.03-4.39,3.61-6.28c1.58-1.89,3.53-3.4,5.84-4.52
			c2.31-1.12,4.94-1.68,7.88-1.68c3.49,0,6.47,0.8,8.95,2.4s4.31,3.65,5.48,6.14l-3.03,1.87c-0.84-1.73-1.91-3.09-3.2-4.1
			c-1.29-1.01-2.65-1.74-4.1-2.18c-1.45-0.44-2.89-0.66-4.32-0.66c-2.35,0-4.43,0.47-6.23,1.4s-3.31,2.19-4.54,3.75
			c-1.23,1.56-2.16,3.31-2.78,5.23s-0.94,3.88-0.94,5.87c0,2.17,0.37,4.24,1.1,6.23c0.73,1.98,1.76,3.74,3.08,5.26
			c1.32,1.52,2.87,2.74,4.66,3.64c1.78,0.9,3.72,1.35,5.81,1.35c1.47,0,2.97-0.26,4.52-0.77c1.54-0.51,2.98-1.3,4.33-2.37
			s2.42-2.44,3.22-4.13l3.2,1.65c-0.81,1.95-2.06,3.6-3.75,4.96c-1.69,1.36-3.57,2.39-5.65,3.08c-2.07,0.7-4.1,1.05-6.09,1.05
			c-2.68,0-5.14-0.58-7.38-1.74s-4.18-2.7-5.81-4.63c-1.63-1.93-2.89-4.09-3.77-6.5C275.44-159.87,275-162.3,275-164.76z"/>
		<path d="M319.23-176.88v32.01h-3.86v-39.11h3.2l25.67,32.61v-32.56h3.86v39.06h-3.58L319.23-176.88z"/>
	</g>
</g>
<g>
	<g>
		<path class="st1" d="M88.98,49.63c0-2.01,0.35-3.98,1.04-5.91c0.7-1.93,1.71-3.69,3.04-5.29c1.33-1.59,2.97-2.86,4.92-3.8
			c1.95-0.94,4.16-1.41,6.63-1.41c2.94,0,5.45,0.67,7.54,2.02c2.09,1.35,3.63,3.07,4.62,5.17l-2.55,1.58
			c-0.71-1.45-1.61-2.6-2.69-3.46c-1.08-0.85-2.23-1.46-3.46-1.83c-1.22-0.37-2.44-0.56-3.64-0.56c-1.98,0-3.73,0.39-5.24,1.18
			c-1.52,0.79-2.79,1.84-3.83,3.15c-1.04,1.31-1.82,2.78-2.34,4.41c-0.53,1.62-0.79,3.27-0.79,4.94c0,1.83,0.31,3.57,0.93,5.24
			c0.62,1.67,1.48,3.15,2.6,4.43s2.42,2.3,3.92,3.06c1.5,0.76,3.13,1.14,4.89,1.14c1.24,0,2.5-0.22,3.8-0.65
			c1.3-0.43,2.51-1.1,3.64-1.99c1.13-0.9,2.03-2.06,2.71-3.48l2.69,1.39c-0.68,1.64-1.73,3.03-3.15,4.17
			c-1.42,1.14-3.01,2.01-4.75,2.6c-1.75,0.59-3.46,0.88-5.13,0.88c-2.26,0-4.33-0.49-6.22-1.46c-1.89-0.97-3.52-2.27-4.89-3.9
			c-1.38-1.62-2.44-3.45-3.18-5.47S88.98,51.7,88.98,49.63z"/>
		<path class="st1" d="M122.46,32.51h3.15v28.56c0,1.21,0.22,2.01,0.65,2.38c0.43,0.37,0.96,0.56,1.58,0.56
			c0.56,0,1.11-0.06,1.67-0.19s1.04-0.25,1.44-0.37l0.56,2.55c-0.59,0.25-1.31,0.45-2.16,0.6c-0.85,0.16-1.59,0.23-2.2,0.23
			c-1.42,0-2.56-0.42-3.41-1.26c-0.85-0.84-1.28-1.99-1.28-3.45V32.51z"/>
		<path class="st1" d="M134.94,37.15v-4.64h3.15v4.64H134.94z M134.94,66.38V42.21h3.15v24.17H134.94z"/>
		<path class="st1" d="M181,66.38h-3.15V52.96c0-2.79-0.45-4.85-1.35-6.17c-0.9-1.32-2.23-1.98-3.99-1.98
			c-1.82,0-3.46,0.65-4.89,1.94c-1.44,1.29-2.45,2.95-3.04,4.98v14.66h-3.15V52.96c0-2.83-0.43-4.89-1.3-6.2s-2.2-1.96-3.99-1.96
			c-1.79,0-3.42,0.63-4.87,1.89c-1.45,1.26-2.47,2.91-3.06,4.97v14.71h-3.15V42.3h2.88v5.49c1.02-1.88,2.33-3.32,3.92-4.34
			c1.59-1.01,3.36-1.52,5.31-1.52c2.01,0,3.63,0.57,4.87,1.71c1.24,1.14,1.99,2.63,2.27,4.47c1.11-2.03,2.45-3.57,4.01-4.61
			s3.33-1.57,5.31-1.57c1.36,0,2.51,0.25,3.46,0.74c0.94,0.49,1.7,1.19,2.27,2.1c0.57,0.91,0.99,2,1.25,3.27
			c0.26,1.28,0.39,2.7,0.39,4.27V66.38z"/>
		<path class="st1" d="M185.73,59.46c0-1.51,0.43-2.8,1.3-3.9c0.87-1.09,2.06-1.94,3.59-2.54c1.53-0.6,3.3-0.9,5.31-0.9
			c1.17,0,2.4,0.09,3.66,0.28c1.27,0.19,2.4,0.46,3.39,0.83v-2.04c0-2.03-0.6-3.64-1.81-4.84c-1.21-1.2-2.88-1.8-5.01-1.8
			c-1.3,0-2.57,0.24-3.83,0.72c-1.25,0.48-2.56,1.18-3.92,2.11l-1.21-2.23c1.58-1.08,3.12-1.89,4.64-2.44
			c1.52-0.54,3.06-0.81,4.64-0.81c2.97,0,5.32,0.85,7.05,2.54c1.73,1.69,2.6,4.03,2.6,7.01v11.11c0,0.43,0.09,0.75,0.28,0.95
			c0.19,0.2,0.48,0.32,0.88,0.35v2.5c-0.34,0.03-0.63,0.06-0.88,0.09c-0.25,0.03-0.43,0.03-0.56,0c-0.77-0.03-1.36-0.28-1.76-0.74
			c-0.4-0.46-0.62-0.96-0.65-1.48l-0.05-1.76c-1.08,1.39-2.49,2.47-4.22,3.22c-1.73,0.76-3.5,1.14-5.29,1.14
			c-1.55,0-2.95-0.33-4.2-0.99c-1.25-0.66-2.23-1.55-2.92-2.67S185.73,60.82,185.73,59.46z M201.92,61.3
			c0.34-0.43,0.6-0.84,0.79-1.24s0.28-0.75,0.28-1.06v-3.49c-1.05-0.4-2.14-0.71-3.27-0.92c-1.13-0.21-2.27-0.32-3.41-0.32
			c-2.26,0-4.08,0.44-5.47,1.33c-1.39,0.89-2.09,2.1-2.09,3.63c0,0.89,0.23,1.72,0.7,2.51s1.14,1.42,2.04,1.93s1.95,0.76,3.15,0.76
			c1.51,0,2.93-0.29,4.24-0.87C200.2,62.97,201.21,62.22,201.92,61.3z"/>
		<path class="st1" d="M224.56,65.4c-0.25,0.09-0.63,0.26-1.16,0.51c-0.53,0.25-1.16,0.46-1.9,0.65s-1.55,0.28-2.41,0.28
			c-0.9,0-1.74-0.17-2.53-0.51c-0.79-0.34-1.41-0.86-1.88-1.56c-0.46-0.7-0.7-1.56-0.7-2.58V44.81h-3.34v-2.5h3.34v-8.16h3.15v8.16
			h5.57v2.5h-5.57v16.5c0.06,0.87,0.38,1.52,0.95,1.96c0.57,0.43,1.23,0.65,1.97,0.65c0.87,0,1.65-0.15,2.37-0.44
			c0.71-0.29,1.14-0.5,1.3-0.63L224.56,65.4z"/>
		<path class="st1" d="M238.93,66.84c-1.73,0-3.34-0.33-4.82-0.99c-1.48-0.66-2.77-1.57-3.85-2.73s-1.92-2.49-2.53-4
			c-0.6-1.51-0.91-3.13-0.91-4.85c0-2.24,0.52-4.3,1.55-6.17c1.04-1.87,2.46-3.37,4.29-4.49c1.82-1.12,3.9-1.68,6.22-1.68
			c2.38,0,4.46,0.57,6.24,1.7c1.78,1.14,3.18,2.63,4.2,4.49s1.53,3.89,1.53,6.1c0,0.25,0,0.48,0,0.71s-0.02,0.41-0.05,0.53h-20.69
			c0.15,1.72,0.64,3.25,1.46,4.59s1.89,2.4,3.2,3.18s2.74,1.18,4.29,1.18c1.58,0,3.07-0.4,4.48-1.21c1.41-0.8,2.39-1.86,2.95-3.15
			l2.74,0.74c-0.5,1.14-1.25,2.18-2.27,3.11s-2.22,1.65-3.59,2.16C241.99,66.58,240.51,66.84,238.93,66.84z M230.03,53.2h17.86
			c-0.12-1.74-0.6-3.27-1.42-4.59c-0.82-1.32-1.89-2.35-3.2-3.1c-1.32-0.75-2.76-1.12-4.34-1.12s-3.01,0.38-4.31,1.12
			c-1.3,0.75-2.36,1.79-3.18,3.12C230.62,49.97,230.15,51.49,230.03,53.2z"/>
		<path class="st1" d="M271.45,39.43v26.95h-3.25V33.44h2.69l21.62,27.46V33.49h3.25v32.89h-3.01L271.45,39.43z"/>
		<path class="st1" d="M313.8,66.84c-1.73,0-3.34-0.33-4.82-0.99c-1.48-0.66-2.77-1.57-3.85-2.73s-1.92-2.49-2.53-4
			c-0.6-1.51-0.91-3.13-0.91-4.85c0-2.24,0.52-4.3,1.55-6.17c1.04-1.87,2.46-3.37,4.29-4.49c1.82-1.12,3.9-1.68,6.22-1.68
			c2.38,0,4.46,0.57,6.24,1.7c1.78,1.14,3.18,2.63,4.2,4.49s1.53,3.89,1.53,6.1c0,0.25,0,0.48,0,0.71s-0.02,0.41-0.05,0.53h-20.69
			c0.15,1.72,0.64,3.25,1.46,4.59s1.89,2.4,3.2,3.18s2.74,1.18,4.29,1.18c1.58,0,3.07-0.4,4.48-1.21c1.41-0.8,2.39-1.86,2.95-3.15
			l2.74,0.74c-0.5,1.14-1.25,2.18-2.27,3.11s-2.22,1.65-3.59,2.16C316.85,66.58,315.38,66.84,313.8,66.84z M304.89,53.2h17.86
			c-0.12-1.74-0.6-3.27-1.42-4.59c-0.82-1.32-1.89-2.35-3.2-3.1c-1.32-0.75-2.76-1.12-4.34-1.12s-3.01,0.38-4.31,1.12
			c-1.3,0.75-2.36,1.79-3.18,3.12C305.49,49.97,305.02,51.49,304.89,53.2z"/>
		<path class="st1" d="M361.02,42.3h3.11l-10.39,24.07H351l-5.06-11.97l-5.01,11.97h-2.74L327.81,42.3h3.06l8.81,20.84l4.45-10.86
			l-4.08-9.93h2.83l3.06,7.81l3.11-7.81h2.78l-4.04,9.93l4.45,10.86L361.02,42.3z"/>
		<path class="st1" d="M376.23,66.84c-1.98,0-3.82-0.33-5.52-0.97c-1.7-0.65-3.17-1.64-4.41-2.97l1.3-2.23
			c1.36,1.27,2.73,2.19,4.1,2.76s2.84,0.86,4.38,0.86c1.89,0,3.42-0.38,4.59-1.13s1.76-1.83,1.76-3.24c0-0.95-0.29-1.68-0.86-2.19
			c-0.57-0.51-1.39-0.92-2.46-1.25c-1.07-0.32-2.34-0.67-3.83-1.04c-1.67-0.46-3.07-0.95-4.2-1.45c-1.13-0.51-1.98-1.15-2.55-1.94
			c-0.57-0.78-0.86-1.81-0.86-3.07c0-1.57,0.39-2.87,1.18-3.9c0.79-1.03,1.87-1.81,3.25-2.35s2.91-0.81,4.62-0.81
			c1.86,0,3.49,0.29,4.92,0.88c1.42,0.59,2.58,1.41,3.48,2.46l-1.53,2.13c-0.87-0.99-1.89-1.72-3.08-2.2
			c-1.19-0.48-2.51-0.72-3.97-0.72c-0.99,0-1.93,0.13-2.83,0.39c-0.9,0.26-1.63,0.69-2.2,1.29c-0.57,0.6-0.86,1.42-0.86,2.47
			c0,0.86,0.22,1.53,0.65,2.01c0.43,0.48,1.08,0.88,1.95,1.2c0.87,0.32,1.93,0.67,3.2,1.04c1.82,0.49,3.42,0.99,4.78,1.5
			c1.36,0.51,2.41,1.16,3.15,1.96s1.11,1.92,1.11,3.36c0,2.24-0.85,4-2.55,5.25C381.26,66.21,379.01,66.84,376.23,66.84z"/>
	</g>
</g>
<g transform="translate(0,-952.36218)">
	<path class="st1" d="M44.4,973.13c-15.94,0-28.9,12.95-28.9,28.9c0,15.94,12.95,28.9,28.9,28.9s28.9-12.95,28.9-28.9
		C73.3,986.09,60.34,973.13,44.4,973.13z M43.09,975.88v11.04h-9.42c0.48-1.37,1.02-2.65,1.62-3.8
		C37.44,979,40.16,976.47,43.09,975.88z M45.71,975.88c2.92,0.58,5.65,3.11,7.8,7.24c0.6,1.15,1.14,2.43,1.62,3.8h-9.42V975.88z
		 M36.36,977.01c-1.28,1.36-2.43,3.02-3.41,4.91c-0.79,1.52-1.48,3.2-2.07,5.01h-7.98C26.14,982.3,30.86,978.78,36.36,977.01z
		 M52.45,977.01c5.5,1.76,10.21,5.29,13.46,9.91h-7.98c-0.59-1.81-1.28-3.49-2.07-5.01C54.87,980.04,53.73,978.37,52.45,977.01z
		 M21.27,989.55h8.85c-0.86,3.41-1.37,7.18-1.46,11.16H18.17C18.37,996.69,19.46,992.9,21.27,989.55z M32.85,989.55h10.24v11.16
		h-11.8C31.39,996.69,31.94,992.9,32.85,989.55z M45.71,989.55h10.24c0.91,3.35,1.46,7.13,1.56,11.16h-11.8V989.55z M58.68,989.55
		h8.85c1.81,3.35,2.9,7.13,3.1,11.16H60.14C60.05,996.73,59.55,992.96,58.68,989.55L58.68,989.55z M18.17,1003.34h10.49
		c0.09,3.99,0.61,7.76,1.48,11.16h-8.87C19.46,1011.16,18.37,1007.38,18.17,1003.34z M31.29,1003.34h11.8v11.16H32.85
		C31.94,1011.16,31.39,1007.38,31.29,1003.34z M45.71,1003.34h11.8c-0.1,4.04-0.65,7.82-1.56,11.16H45.71V1003.34z M60.14,1003.34
		h10.49c-0.2,4.03-1.29,7.81-3.1,11.16h-8.87C59.53,1011.1,60.05,1007.33,60.14,1003.34z M22.89,1017.14h8
		c0.59,1.79,1.26,3.47,2.05,4.99c0.98,1.89,2.14,3.56,3.43,4.93C30.87,1025.29,26.15,1021.76,22.89,1017.14z M33.67,1017.14h9.42
		v11.04c-2.92-0.59-5.65-3.13-7.8-7.27C34.69,1019.76,34.15,1018.5,33.67,1017.14z M45.71,1017.14h9.42
		c-0.48,1.36-1.02,2.63-1.62,3.78c-2.15,4.13-4.88,6.68-7.8,7.27V1017.14z M57.9,1017.14h8c-3.25,4.63-7.98,8.15-13.48,9.91
		c1.29-1.37,2.44-3.03,3.43-4.93C56.64,1020.61,57.32,1018.93,57.9,1017.14z"/>
</g>
<line class="st2" x1="41.44" y1="-107.57" x2="41.44" y2="-93.18"/>
<path class="st0" d="M40.73-102.28c-2.72-3.8-0.48-7.52,3.79-8.33c5.01-0.95,12.12,0,16.66,3.03c-6.06,3.03-8.44,6.04-12.12,7.57
	C45.87-98.68,42.49-99.82,40.73-102.28z"/>
<path class="st2" d="M41-104c0,0,10.5-4.5,19.5-3.5"/>
<path class="st3" d="M166.64-131c-15.95,0-28.92,12.96-28.92,28.92s12.96,28.93,28.92,28.93s28.93-12.98,28.93-28.93
	S182.59-131,166.64-131z M166.64-127.38c14,0,25.32,11.3,25.32,25.3c0,1.92-0.23,3.79-0.64,5.59c-0.13,0.01-0.25,0.04-0.38,0.07
	l-5.54,1.73c-0.62-0.65-1.98-2.02-3.28-3.71c-1.82-2.37-3.51-3.64-3.51-3.64c-0.34-0.25-0.76-0.38-1.19-0.35
	c-0.31,0.02-0.61,0.12-0.87,0.29l-4.52,2.94c-0.83,0.55-1.07,1.67-0.52,2.5c0,0.01,0.01,0.01,0.01,0.02l5.36,7.95l-1.68,2.72
	c-0.22,0.35-0.31,0.77-0.25,1.18l0.79,6.31c-2.62,1.01-5.45,1.59-8.41,1.67l-3.18-9.05c-0.27-0.78-1.04-1.27-1.87-1.2l-5.55,0.53
	c-0.4-0.84-1.16-2.46-1.96-4.51c0.57-3.25,0.86-7.03,0.92-7.95l4.96-3.14l8.89,1.28c0.78,0.12,1.55-0.29,1.9-1l1.99-4.18l4.09-2.43
	c0.57-0.33,0.91-0.95,0.89-1.61l-0.35-9.81c-0.03-0.76-0.53-1.42-1.26-1.66c0,0-1.49-0.49-3.29-0.53c-0.9-0.02-1.93,0.05-2.95,0.44
	c-1.02,0.39-2.06,1.16-2.67,2.33c-0.32,0.62-0.58,0.93-0.73,1.06c-0.15,0.13-0.22,0.16-0.52,0.2c-0.61,0.08-2.1-0.13-4.37-0.28
	c-0.64-0.04-1.26,0.26-1.62,0.79l-4.01,5.91l-3.52-1.55l2.66-3.96c0.24-0.34,0.34-0.76,0.31-1.18l-0.32-3.38l1.67-3.96
	C160.28-126.75,163.38-127.38,166.64-127.38z M152.38-123l-0.14,0.34c-0.12,0.28-0.16,0.58-0.13,0.88l0.29,3.17l-3.5,5.23
	c-0.55,0.83-0.33,1.95,0.5,2.51c0.09,0.06,0.18,0.11,0.27,0.15l6.89,3.03c0.8,0.35,1.73,0.08,2.21-0.64l4.28-6.32
	c1.47,0.15,2.79,0.37,4.06,0.2c0.79-0.11,1.65-0.42,2.34-0.99c0.69-0.57,1.2-1.31,1.65-2.19c0.17-0.33,0.34-0.47,0.73-0.61
	c0.39-0.15,0.98-0.23,1.57-0.21c0.57,0.01,0.68,0.09,1.09,0.17l0.24,7.27l-3.64,2.16c-0.31,0.18-0.55,0.45-0.71,0.77l-1.66,3.47
	l-8.22-1.19c-0.43-0.07-0.86,0.02-1.23,0.25l-6.26,3.95c-0.49,0.31-0.8,0.83-0.84,1.4c0,0-0.42,5.99-1.04,9.07
	c-0.07,0.33-0.04,0.67,0.08,0.99c1.1,2.92,2.73,6.31,2.73,6.31c0.33,0.68,1.05,1.09,1.8,1.02l5.44-0.54l2.21,6.34
	c-12.48-1.57-22.1-12.18-22.1-25.09C141.33-110.79,145.71-118.45,152.38-123z M177.28-98.27c0.46,0.39,0.88,0.64,1.98,2.07
	c1.8,2.34,4.27,4.84,4.27,4.84c0.48,0.48,1.18,0.66,1.83,0.45l4.65-1.44c-2.16,5.19-6,9.48-10.83,12.24l-0.56-4.5l1.96-3.17
	c0.37-0.6,0.36-1.37-0.04-1.96l-4.99-7.39L177.28-98.27z"/>
</svg>
