<?xml version="1.0" encoding="utf-8"?>
<!-- Generator: Adobe Illustrator 24.2.1, SVG Export Plug-In . SVG Version: 6.00 Build 0)  -->
<svg version="1.1" xmlns="http://www.w3.org/2000/svg" xmlns:xlink="http://www.w3.org/1999/xlink" x="0px" y="0px"
	 viewBox="0 0 100 100" style="enable-background:new 0 0 100 100;" xml:space="preserve">
<style type="text/css">
	.st0{display:none;}
	.st1{display:inline;}
	.st2{fill:#98C0A4;}
	.st3{fill:url(#SVGID_1_);}
</style>
<g id="Lager_1" class="st0">
	<g transform="translate(0,-952.36218)" class="st1">
		<path class="st2" d="M49.58,961.36c-22.64,0-41.05,18.39-41.05,41.05c0,22.64,18.39,41.05,41.05,41.05s41.05-18.39,41.05-41.05
			C90.63,979.77,72.22,961.36,49.58,961.36z M47.72,965.27v15.68H34.34c0.68-1.95,1.45-3.76,2.3-5.4
			C39.7,969.7,43.56,966.11,47.72,965.27z M51.44,965.27c4.15,0.82,8.02,4.42,11.08,10.28c0.85,1.63,1.62,3.45,2.3,5.4H51.44V965.27
			z M38.16,966.87c-1.82,1.93-3.45,4.29-4.84,6.97c-1.12,2.16-2.1,4.54-2.94,7.12H19.05C23.65,974.39,30.35,969.39,38.16,966.87z
			 M61.02,966.87c7.81,2.5,14.5,7.51,19.12,14.07H68.8c-0.84-2.57-1.82-4.96-2.94-7.12C64.45,971.18,62.83,968.8,61.02,966.87z
			 M16.73,984.68H29.3c-1.22,4.84-1.95,10.2-2.07,15.85h-14.9C12.61,994.82,14.16,989.44,16.73,984.68z M33.18,984.68h14.54v15.85
			H30.96C31.1,994.82,31.89,989.44,33.18,984.68z M51.44,984.68h14.54c1.29,4.76,2.07,10.13,2.22,15.85H51.44V984.68z M69.86,984.68
			h12.57c2.57,4.76,4.12,10.13,4.4,15.85h-14.9C71.81,994.88,71.1,989.53,69.86,984.68L69.86,984.68z M12.33,1004.27h14.9
			c0.13,5.67,0.87,11.02,2.1,15.85h-12.6C14.16,1015.38,12.61,1010.01,12.33,1004.27z M30.96,1004.27h16.76v15.85H33.18
			C31.89,1015.38,31.1,1010.01,30.96,1004.27z M51.44,1004.27H68.2c-0.14,5.74-0.92,11.11-2.22,15.85H51.44V1004.27z M71.94,1004.27
			h14.9c-0.28,5.72-1.83,11.09-4.4,15.85h-12.6C71.07,1015.29,71.81,1009.94,71.94,1004.27z M19.03,1023.87h11.36
			c0.84,2.54,1.79,4.93,2.91,7.09c1.39,2.68,3.04,5.06,4.87,7C30.37,1035.44,23.66,1030.43,19.03,1023.87z M34.34,1023.87h13.38
			v15.68c-4.15-0.84-8.02-4.45-11.08-10.33C35.79,1027.59,35.02,1025.8,34.34,1023.87z M51.44,1023.87h13.38
			c-0.68,1.93-1.45,3.74-2.3,5.37c-3.05,5.87-6.93,9.49-11.08,10.33V1023.87z M68.76,1023.87h11.36
			c-4.62,6.58-11.33,11.58-19.15,14.08c1.83-1.95,3.47-4.3,4.87-7C66.97,1028.8,67.93,1026.41,68.76,1023.87z"/>
	</g>
</g>
<g id="Lager_1_kopia">
	<g transform="translate(0,-952.36218)">
		<linearGradient id="SVGID_1_" gradientUnits="userSpaceOnUse" x1="8.5357" y1="1002.4083" x2="90.6278" y2="1002.4083">
			<stop  offset="0" style="stop-color:#98C0A4"/>
			<stop  offset="0.1592" style="stop-color:#90B79F"/>
			<stop  offset="0.4238" style="stop-color:#7B9D91"/>
			<stop  offset="0.7592" style="stop-color:#59747A"/>
			<stop  offset="0.9944" style="stop-color:#3E5368"/>
		</linearGradient>
		<path class="st3" d="M49.58,961.36c-22.64,0-41.05,18.39-41.05,41.05c0,22.64,18.39,41.05,41.05,41.05s41.05-18.39,41.05-41.05
			C90.63,979.77,72.22,961.36,49.58,961.36z M47.72,965.27v15.68H34.34c0.68-1.95,1.45-3.76,2.3-5.4
			C39.7,969.7,43.56,966.11,47.72,965.27z M51.44,965.27c4.15,0.82,8.02,4.42,11.08,10.28c0.85,1.63,1.62,3.45,2.3,5.4H51.44V965.27
			z M38.16,966.87c-1.82,1.93-3.45,4.29-4.84,6.97c-1.12,2.16-2.1,4.54-2.94,7.12H19.05C23.65,974.39,30.35,969.39,38.16,966.87z
			 M61.02,966.87c7.81,2.5,14.5,7.51,19.12,14.07H68.8c-0.84-2.57-1.82-4.96-2.94-7.12C64.45,971.18,62.83,968.8,61.02,966.87z
			 M16.73,984.68H29.3c-1.22,4.84-1.95,10.2-2.07,15.85h-14.9C12.61,994.82,14.16,989.44,16.73,984.68z M33.18,984.68h14.54v15.85
			H30.96C31.1,994.82,31.89,989.44,33.18,984.68z M51.44,984.68h14.54c1.29,4.76,2.07,10.13,2.22,15.85H51.44V984.68z M69.86,984.68
			h12.57c2.57,4.76,4.12,10.13,4.4,15.85h-14.9C71.81,994.88,71.1,989.53,69.86,984.68L69.86,984.68z M12.33,1004.27h14.9
			c0.13,5.67,0.87,11.02,2.1,15.85h-12.6C14.16,1015.38,12.61,1010.01,12.33,1004.27z M30.96,1004.27h16.76v15.85H33.18
			C31.89,1015.38,31.1,1010.01,30.96,1004.27z M51.44,1004.27H68.2c-0.14,5.74-0.92,11.11-2.22,15.85H51.44V1004.27z M71.94,1004.27
			h14.9c-0.28,5.72-1.83,11.09-4.4,15.85h-12.6C71.07,1015.29,71.81,1009.94,71.94,1004.27z M19.03,1023.87h11.36
			c0.84,2.54,1.79,4.93,2.91,7.09c1.39,2.68,3.04,5.06,4.87,7C30.37,1035.44,23.66,1030.43,19.03,1023.87z M34.34,1023.87h13.38
			v15.68c-4.15-0.84-8.02-4.45-11.08-10.33C35.79,1027.59,35.02,1025.8,34.34,1023.87z M51.44,1023.87h13.38
			c-0.68,1.93-1.45,3.74-2.3,5.37c-3.05,5.87-6.93,9.49-11.08,10.33V1023.87z M68.76,1023.87h11.36
			c-4.62,6.58-11.33,11.58-19.15,14.08c1.83-1.95,3.47-4.3,4.87-7C66.97,1028.8,67.93,1026.41,68.76,1023.87z"/>
	</g>
</g>
</svg>
