<svg width="140" height="40" viewBox="0 0 140 40" fill="none" xmlns="http://www.w3.org/2000/svg">
<rect width="140" height="40" rx="4" fill="#3B5999"/>
<path d="M0 4C0 1.79086 1.79086 0 4 0H40V40H4C1.79086 40 0 38.2091 0 36V4Z" fill="white" fill-opacity="0.2"/>
<g clip-path="url(#clip0_120_9050)">
<path d="M30 19.9999C30 14.477 25.5229 9.9999 20 9.9999C14.4771 9.9999 10 14.477 10 19.9999C10 24.9912 13.6569 29.1282 18.4375 29.8784V22.8905H15.8984V19.9999H18.4375V17.7968C18.4375 15.2905 19.9304 13.9062 22.2146 13.9062C23.3087 13.9062 24.4531 14.1015 24.4531 14.1015V16.5624H23.1921C21.9499 16.5624 21.5625 17.3332 21.5625 18.1241V19.9999H24.3359L23.8926 22.8905H21.5625V29.8784C26.3431 29.1282 30 24.9912 30 19.9999Z" fill="white"/>
</g>
<defs>
<clipPath id="clip0_120_9050">
<rect width="20" height="20" fill="white" transform="translate(10 10)"/>
</clipPath>
</defs>
</svg>
