<svg width="93" height="40" viewBox="0 0 93 40" fill="none" xmlns="http://www.w3.org/2000/svg">
<rect width="93" height="40" rx="4" fill="#3B5999"/>
<path d="M0 4C0 1.79086 1.79086 0 4 0H40V40H4C1.79086 40 0 38.2091 0 36V4Z" fill="white" fill-opacity="0.2"/>
<g clip-path="url(#clip0_116_8655)">
<path d="M30 20C30 14.4772 25.5229 10 20 10C14.4771 10 10 14.4772 10 20C10 24.9913 13.6569 29.1283 18.4375 29.8785V22.8906H15.8984V20H18.4375V17.7969C18.4375 15.2906 19.9304 13.9063 22.2146 13.9063C23.3087 13.9063 24.4531 14.1016 24.4531 14.1016V16.5625H23.1921C21.9499 16.5625 21.5625 17.3334 21.5625 18.1242V20H24.3359L23.8926 22.8906H21.5625V29.8785C26.3431 29.1283 30 24.9913 30 20Z" fill="white"/>
</g>
<defs>
<clipPath id="clip0_116_8655">
<rect width="20" height="20" fill="white" transform="translate(10 10)"/>
</clipPath>
</defs>
</svg>
