<svg width="83" height="74" viewBox="0 0 83 74" fill="none" xmlns="http://www.w3.org/2000/svg">
<g clip-path="url(#clip0)">
<path d="M31.6146 21.8807C32.0992 17.4966 37.6021 15.7548 40.5211 19.0615V19.0615C42.2795 21.0534 45.3062 21.3377 47.3864 19.6848L49.6297 17.9024C52.5893 15.5508 56.8561 18.2468 56.003 21.9294V21.9294C55.4128 24.4773 57.4023 26.8949 60.0167 26.8211V26.8211C64.0634 26.7068 65.7333 31.9823 62.3579 34.2174V34.2174C60.1772 35.6614 59.9412 38.7834 61.8901 40.5276V40.5276C64.7068 43.0486 62.7684 47.7087 58.9948 47.4885L56.1345 47.3215C53.482 47.1667 51.1702 49.1409 50.8783 51.7818V51.7818C50.3937 56.1658 44.8909 57.9077 41.9718 54.601V54.601C40.2135 52.6091 37.1868 52.3247 35.1065 53.9777L32.8633 55.76C29.9037 58.1116 25.6369 55.4157 26.4899 51.7331V51.7331C27.0802 49.1851 25.0906 46.7676 22.4763 46.8414V46.8414C18.4295 46.9556 16.7597 41.6802 20.1351 39.4451V39.4451C22.3157 38.0011 22.5517 34.8791 20.6029 33.1348V33.1348C17.7862 30.6139 19.7245 25.9537 23.4982 26.174L26.3585 26.3409C29.0109 26.4958 31.3227 24.5216 31.6146 21.8807V21.8807Z" fill="#FFCAD4"/>
<path d="M45.0252 27.4749C45.1558 27.5759 45.1684 27.7915 45.063 28.1216C44.9576 28.4516 44.7838 28.7127 44.5417 28.9049C44.508 28.9295 44.3026 29.1154 43.9257 29.4627C43.3036 30.0406 42.7139 30.5159 42.1567 30.8888C41.5995 31.2617 41.0125 31.5001 40.3959 31.6038C40.1596 31.6624 39.9886 31.7006 39.8828 31.7184C39.7769 31.7362 39.6635 31.7932 39.5424 31.8892C39.4213 31.9853 39.3393 32.0748 39.2965 32.1577C39.2613 32.2299 39.2159 32.3961 39.1603 32.6562C39.1047 32.9164 39.0724 33.1608 39.0635 33.3894C39.0622 33.4938 39.0539 33.6418 39.0389 33.8337L39.6692 33.6141C39.9069 33.5647 40.1091 33.5425 40.2756 33.5476C40.442 33.5527 40.5694 33.5786 40.6577 33.6253C40.746 33.672 40.8125 33.7294 40.8571 33.7976C40.9017 33.8659 40.9259 33.9399 40.9299 34.0196C40.9338 34.0994 40.9316 34.1708 40.9233 34.2337C40.915 34.2966 40.9047 34.348 40.8925 34.388L40.8626 34.4639C40.7801 34.6482 40.6613 34.7723 40.5064 34.8362C40.3516 34.9001 40.2142 34.9137 40.0945 34.8771L39.931 34.8336C39.5674 34.8663 39.2362 34.9788 38.9372 35.171C38.8724 35.9675 38.8018 36.4478 38.7253 36.6121C38.6168 36.9238 38.6508 37.0695 38.8272 37.0493C38.9284 37.0323 39.0488 36.96 39.1882 36.8324C39.3277 36.7049 39.4235 36.6272 39.4756 36.5995C39.6765 36.4995 39.9426 36.45 40.274 36.4511C40.8233 36.4533 41.2885 36.6307 41.6696 36.983C41.7495 37.0642 41.7948 37.137 41.8057 37.2015C41.8242 37.3119 41.7462 37.4386 41.5715 37.5816C41.3201 37.7753 41.1185 37.8991 40.9667 37.953C40.8225 37.9962 40.7028 38.0021 40.6077 37.9708C40.5125 37.9395 40.4453 37.8916 40.4061 37.8272C40.3668 37.7628 40.3134 37.6985 40.2458 37.6341C40.1782 37.5698 40.1015 37.5354 40.0155 37.5309C39.9664 37.5202 39.8829 37.5863 39.7649 37.7292C39.6393 37.8828 39.3497 38.1019 38.8959 38.3864C38.6736 38.5279 38.4744 38.7081 38.2983 38.927C38.1221 39.1459 37.9805 39.3732 37.8735 39.6089C37.7664 39.8446 37.6648 40.1125 37.5685 40.4126C37.4723 40.7127 37.3956 40.9882 37.3384 41.2392C37.2812 41.4902 37.2118 41.7668 37.1302 42.0692C37.0485 42.3716 36.9772 42.6226 36.9161 42.8222C36.8519 43.0033 36.7727 43.1657 36.6786 43.3093C36.5844 43.4529 36.4695 43.5716 36.3339 43.6654C36.1982 43.7592 36.0698 43.8399 35.9487 43.9076C35.8276 43.9753 35.6692 44.0327 35.4737 44.0798C35.2781 44.1269 35.1182 44.1608 34.9939 44.1817C34.8697 44.2026 34.6921 44.2301 34.4612 44.2642C34.2304 44.2983 34.0597 44.3246 33.9492 44.3432C33.2237 44.4747 32.6974 44.5253 32.3706 44.4951C32.1603 44.4832 31.9293 44.4321 31.6776 44.3419C31.4258 44.2518 31.1909 44.1493 30.9728 44.0345C30.744 43.9121 30.5259 43.769 30.3186 43.6051C30.102 43.4428 29.9107 43.2762 29.7447 43.1053C29.5788 42.9345 29.4427 42.7586 29.3366 42.5777C29.2305 42.3968 29.165 42.2327 29.1402 42.0855C29.1062 41.883 29.0262 41.7166 28.9001 41.5864C28.7619 41.496 28.5789 41.1956 28.3511 40.6849C28.0741 40.1637 27.8127 39.7912 27.5669 39.5675C27.2949 39.3009 27.1561 39.0948 27.1506 38.949C27.145 38.8032 27.2794 38.6741 27.5539 38.5617C27.9756 38.3678 28.4484 38.506 28.9723 38.9763C29.235 39.1876 29.6253 39.2853 30.1431 39.2692C30.6609 39.2531 31.6914 39.1058 33.2346 38.8274L36.433 38.2611L36.7521 37.7106C36.9711 37.3804 37.0651 37.1232 37.0341 36.9391C37.014 36.8195 37.0253 36.6614 37.0679 36.4649L36.033 36.9797C36.091 36.7617 36.0831 36.6306 36.0094 36.5862C35.9357 36.5418 35.8413 36.5435 35.7263 36.5912L35.5423 36.6789L35.0618 37.0295C34.999 37.1063 34.9016 37.1605 34.7697 37.1921C34.6378 37.2238 34.5197 37.2389 34.4153 37.2375L34.2726 37.2331C34.0039 37.0985 33.8096 36.9419 33.6896 36.7633C33.5697 36.5847 33.5204 36.4179 33.5416 36.2629C33.5629 36.1079 33.6022 35.9617 33.6595 35.8243C33.7168 35.6869 33.7815 35.579 33.8535 35.5007L33.9592 35.3693L35.8183 34.9431L37.2813 34.4415C37.2956 33.682 37.2681 33.2371 37.1988 33.1067C37.082 32.9182 37.0946 32.6274 37.2367 32.2344C37.3558 31.8169 37.4138 31.5989 37.4107 31.5805C37.406 31.5529 37.1419 31.4175 36.6183 31.1743C36.0917 30.9126 35.69 30.6347 35.4134 30.3405C35.1536 30.034 34.9731 29.8893 34.8719 29.9063C34.7522 29.9264 34.4343 30.2591 33.9182 30.9043C33.0251 31.9536 32.3075 32.2446 31.7652 31.7774C31.5562 31.6043 31.2368 31.4498 30.807 31.3139C30.3296 31.1765 29.9918 30.9683 29.7934 30.6893C29.6397 30.507 29.5677 30.3464 29.5775 30.2075C29.5873 30.0686 29.69 29.765 29.8857 29.2968C30.1105 28.7763 30.4106 28.281 30.7858 27.8109C31.1518 27.3424 31.4798 27.0412 31.7696 26.9073C32.3323 26.6517 32.9736 26.6101 33.6935 26.7825C34.4134 26.9548 34.8719 27.261 35.0689 27.7011C35.1398 27.8974 35.2482 28.0921 35.3943 28.2852C35.5327 28.4891 35.6557 28.6861 35.7634 28.8762C35.805 29.0112 35.8666 29.1239 35.948 29.2143C36.0295 29.3047 36.0978 29.3452 36.153 29.336C36.3003 29.3112 36.6719 29.5232 37.2679 29.9719C37.526 30.1556 37.7279 30.2873 37.8738 30.3669C38.0289 30.4449 38.2047 30.5052 38.4011 30.5479C38.5976 30.5906 38.8101 30.588 39.0387 30.5401C39.232 30.5076 39.5388 30.4465 39.959 30.3569C40.2689 30.2859 40.7217 30.108 41.3174 29.8233C41.9131 29.5386 42.2752 29.3286 42.4039 29.1934C42.525 29.0689 42.9441 28.7192 43.6614 28.1443C44.4093 27.5832 44.864 27.36 45.0252 27.4749ZM33.1858 28.9973C33.5047 28.8112 33.6752 28.6855 33.6973 28.6203C33.7195 28.555 33.643 28.452 33.4679 28.3111C33.1821 28.0752 32.8487 28.0342 32.4677 28.1882C32.0866 28.3422 31.8005 28.6246 31.6093 29.0353C31.4181 29.446 31.3951 29.7173 31.5402 29.849C31.6854 29.9808 31.9435 29.9113 32.3144 29.6408C32.5121 29.4655 32.8026 29.2511 33.1858 28.9973ZM35.893 40.453C36.1465 39.5965 36.2279 39.1521 36.1374 39.12C36.0667 39.0941 35.8751 39.1925 35.5624 39.4155C35.2697 39.6445 34.9514 39.7501 34.6077 39.7322C34.3791 39.7233 33.8804 39.7693 33.1119 39.8702C32.3341 39.9726 31.6092 40.0803 30.9373 40.1932C30.2654 40.3062 29.9341 40.3903 29.9434 40.4456C29.9604 40.5468 30.2227 40.9949 30.7302 41.7897C31.2377 42.5845 31.5306 43.018 31.609 43.09C31.8041 43.237 32.3733 43.1744 33.3165 42.9022C34.2598 42.63 34.8631 42.3487 35.1266 42.0583C35.381 41.8263 35.6365 41.2912 35.893 40.453Z" fill="#2C6E49"/>
<path d="M52.2997 42.4265C52.2997 42.4265 52.3033 42.421 52.3105 42.4099C52.3177 42.3989 52.3259 42.3924 52.335 42.3905C52.5139 42.1526 52.6786 42.0512 52.829 42.0864C52.941 42.1201 53.0251 42.2025 53.0813 42.3338C53.211 42.6785 53.0522 43.1029 52.605 43.607C51.9548 44.3254 51.2761 45.0212 50.5687 45.6944C50.4654 45.7924 50.3836 45.8573 50.3235 45.889C50.236 45.9264 50.1007 45.9406 49.9176 45.9314C49.359 45.9057 48.476 45.8337 47.2686 45.7156C46.7504 45.7005 46.344 45.6953 46.0493 45.7C45.546 45.7104 45.2016 45.6826 45.0161 45.6167C44.8507 45.5561 44.5776 45.7088 44.1968 46.075C43.8775 46.371 43.5568 46.6148 43.2347 46.8065C42.9126 46.9982 42.578 47.1305 42.2309 47.2034C41.8838 47.2764 41.5325 47.2501 41.1771 47.1245C40.8217 46.9989 40.4895 46.7683 40.1805 46.4326C40.1195 46.3692 40.0671 46.3015 40.0234 46.2296C39.9797 46.1577 39.9437 46.0771 39.9153 45.9877C39.887 45.8983 39.8666 45.8239 39.8541 45.7645C39.8416 45.7051 39.8325 45.6164 39.8268 45.4984C39.8211 45.3804 39.8185 45.2999 39.819 45.2569C39.8195 45.2138 39.8218 45.1228 39.8259 44.9836C39.83 44.8444 39.8292 44.7612 39.8235 44.7338C39.8313 44.4079 39.8959 44.0915 40.0174 43.7846C40.1389 43.4777 40.3097 43.2582 40.5299 43.1261C40.8083 42.9531 41.2063 42.8385 41.7237 42.7822C42.2412 42.7259 42.6067 42.7516 42.82 42.8594C43.4343 43.15 43.8788 43.2115 44.1535 43.0441C44.4283 42.8767 44.6653 42.4048 44.8646 41.6286C44.9667 41.2066 45.1048 40.6387 45.2791 39.9249C45.6315 38.5157 45.1396 38.0134 43.8037 38.4182C43.3383 38.5636 42.9175 38.5806 42.5411 38.4689C41.8673 38.2576 41.3215 38.1339 40.9038 38.0977C40.6327 38.0784 40.4228 37.9985 40.274 37.8581C40.1253 37.7177 40.0913 37.5675 40.1722 37.4074C40.2385 37.2695 40.3955 37.2222 40.643 37.2655C41.1511 37.3686 41.571 37.4377 41.9026 37.4729C42.2343 37.5081 42.5446 37.5097 42.8335 37.4776C43.1315 37.4436 43.4942 37.3769 43.9216 37.2775C44.8076 37.0913 45.3448 36.9021 45.5333 36.7099C45.6074 36.6085 45.6894 36.4315 45.7794 36.179C45.8694 35.9264 45.9325 35.6484 45.9689 35.3451C46.0053 35.0418 46.0214 34.7667 46.0172 34.5196C45.9928 34.2672 46.0925 33.891 46.3164 33.3909C46.5404 32.8908 46.7901 32.5021 47.0657 32.2249C47.4027 31.8775 47.9404 31.8265 48.6787 32.0719C48.9358 32.1609 49.0992 32.2577 49.1689 32.3623C49.2385 32.4668 49.311 32.721 49.3864 33.1248C49.4756 33.6402 49.4956 34.0985 49.4464 34.4999C49.3973 34.9012 49.2649 35.27 49.0495 35.6062C48.834 35.9423 48.5255 36.2671 48.124 36.5803C47.7389 36.8806 47.4793 37.1998 47.3453 37.5379C47.2114 37.8761 47.0608 38.5777 46.8936 39.6429C46.6017 41.4304 46.3275 42.6898 46.071 43.4208C45.9214 43.8433 45.9331 44.1603 46.1064 44.3719C46.2796 44.5834 46.5938 44.6604 47.049 44.6029C47.6542 44.5329 48.3371 44.5373 49.0975 44.6159C49.5777 44.6771 50.057 44.5525 50.5354 44.2422C50.7137 44.1379 50.8778 44.0224 51.0276 43.8955C51.1774 43.7687 51.34 43.601 51.5156 43.3924C51.6911 43.1839 51.8132 43.039 51.882 42.9578C51.9508 42.8766 52.09 42.6995 52.2997 42.4265ZM47.2842 34.0816C47.0402 34.7814 47.0983 35.103 47.4583 35.0464C47.5824 35.0013 47.718 34.875 47.8651 34.6677C48.0123 34.4603 48.1209 34.2396 48.1909 34.0055C48.261 33.7714 48.259 33.6145 48.185 33.5347C47.8885 33.1678 47.5883 33.3501 47.2842 34.0816ZM42.8914 45.1047C43.2289 44.8049 43.3778 44.5829 43.3379 44.4387C43.2981 44.2944 43.0573 44.1924 42.6155 44.1327C42.2176 44.0542 41.9807 44.0277 41.905 44.0531C41.8293 44.0786 41.7 44.2011 41.5173 44.4207C41.3528 44.6365 41.2928 44.816 41.3372 44.9593C41.3816 45.1025 41.5473 45.2441 41.8342 45.3841C42.0678 45.4972 42.227 45.54 42.3119 45.5126C42.3967 45.4853 42.5899 45.3493 42.8914 45.1047Z" fill="#CDEAC0"/>
</g>
<defs>
<clipPath id="clip0">
<rect width="82.493" height="73.6625" fill="white"/>
</clipPath>
</defs>
</svg>
