<?xml version="1.0" encoding="utf-8"?>
<!-- Generator: Adobe Illustrator 26.0.2, SVG Export Plug-In . SVG Version: 6.00 Build 0)  -->
<svg version="1.1" id="Layer_1" xmlns="http://www.w3.org/2000/svg" xmlns:xlink="http://www.w3.org/1999/xlink" x="0px" y="0px"
	 viewBox="0 0 696 693" style="enable-background:new 0 0 696 693;" xml:space="preserve">
<style type="text/css">
	.st0{fill:#0C0C0C;}
	.st1{fill:none;}
	.st2{fill:#0000B2;}
	.st3{font-family:'Modak';}
	.st4{font-size:119.0551px;}
	.st5{letter-spacing:5;}
	.st6{font-size:147.4016px;}
	.st7{letter-spacing:36;}
	.st8{fill:#58F9F9;}
	.st9{fill:#92D3D1;}
	.st10{fill:#5999F7;}
	.st11{fill:#C6BD14;}
	.st12{fill:#AFA41E;}
	.st13{fill:#A55325;}
	.st14{fill:#D3835B;}
	.st15{fill:#D3A089;}
	.st16{fill:#BC5E00;}
	.st17{fill:#BA8500;}
	.st18{fill:#87582D;}
	.st19{fill:#D6E7FC;}
</style>
<g>
	<path class="st0" d="M349,678.5c-88.81,0-172.31-34.59-235.11-97.39S16.5,434.81,16.5,346c0-88.81,34.59-172.31,97.39-235.11
		C176.69,48.09,260.19,13.5,349,13.5s172.31,34.59,235.11,97.39c62.8,62.8,97.39,146.3,97.39,235.11
		c0,88.81-34.59,172.31-97.39,235.11S437.81,678.5,349,678.5z"/>
	<path d="M349,14c44.82,0,88.3,8.78,129.23,26.09c39.53,16.72,75.04,40.66,105.53,71.15c30.49,30.49,54.43,66,71.15,105.53
		C672.22,257.7,681,301.18,681,346s-8.78,88.3-26.09,129.23c-16.72,39.53-40.66,75.04-71.15,105.53
		c-30.49,30.49-66,54.43-105.53,71.15C437.3,669.22,393.82,678,349,678s-88.3-8.78-129.23-26.09
		c-39.53-16.72-75.04-40.66-105.53-71.15c-30.49-30.49-54.43-66-71.15-105.53C25.78,434.3,17,390.82,17,346s8.78-88.3,26.09-129.23
		c16.72-39.53,40.66-75.04,71.15-105.53c30.49-30.49,66-54.43,105.53-71.15C260.7,22.78,304.18,14,349,14 M349,13
		C165.09,13,16,162.09,16,346s149.09,333,333,333s333-149.09,333-333S532.91,13,349,13L349,13z"/>
</g>
<rect x="33" y="130.09" class="st1" width="631" height="449.46"/>
<text transform="matrix(1 0 0 1 119.8247 212.9229)"><tspan x="0" y="0" class="st2 st3 st4 st5">GIVE US</tspan><tspan x="463.3" y="0" class="st2 st3 st4"> </tspan><tspan x="-64.65" y="167.24" class="st2 st3 st6 st7">SPACE</tspan></text>
<polygon class="st8" points="454.99,613.82 427.16,598.36 403.85,620.05 409.96,588.8 382.13,573.34 413.73,569.49 419.84,538.24 
	433.26,567.11 464.87,563.26 441.56,584.95 "/>
<polygon class="st9" points="372.77,589.44 353.04,578.37 336.42,593.71 340.85,571.53 321.12,560.46 343.59,557.82 348.02,535.63 
	357.48,556.18 379.94,553.54 363.32,568.89 "/>
<polygon class="st10" points="445.11,534.06 427.74,516.56 405.73,527.67 417.01,505.75 399.64,488.25 423.97,492.2 435.24,470.27 
	439.01,494.64 463.35,498.58 441.34,509.69 "/>
<g>
	<circle class="st11" cx="240" cy="506" r="66"/>
	<circle class="st12" cx="189.15" cy="488.69" r="4.33"/>
	<circle class="st12" cx="223.23" cy="497.89" r="4.87"/>
	<circle class="st12" cx="268.13" cy="483.28" r="3.25"/>
	<circle class="st12" cx="259.48" cy="533.05" r="3.25"/>
	<ellipse class="st12" cx="210.25" cy="537.38" rx="2.7" ry="4.33"/>
	<circle class="st12" cx="240" cy="460.56" r="5.41"/>
	<circle class="st12" cx="285.44" cy="520.07" r="3.25"/>
	<circle class="st12" cx="248.66" cy="561.18" r="3.25"/>
	<circle class="st12" cx="245.95" cy="548.74" r="3.79"/>
</g>
<g>
	<circle class="st13" cx="349.63" cy="472.35" r="39.54"/>
	
		<ellipse transform="matrix(0.9647 -0.2632 0.2632 0.9647 -111.9845 108.6644)" class="st14" cx="349.63" cy="472.35" rx="93.07" ry="4.26"/>
	
		<ellipse transform="matrix(0.9647 -0.2632 0.2632 0.9647 -111.5381 108.476)" class="st15" cx="349.15" cy="470.59" rx="93.07" ry="2.43"/>
</g>
<g>
	<path class="st16" d="M291.57,75.26c0,0,66.25-36.02,94.55-41.81s37.3-19.3,18.97,0c-18.33,19.3-41.48,19.94-14.47,18.65
		c27.02-1.29,55.32,1.93,36.02,3.86s-60.46,9.01-40.52,9.01s36.66,6.4,36.66,6.74c0,0.17-12.08,1.35-24.08,2.35
		c-12.32,1.03-24.56,1.86-23.56,1.21c1.97-1.29-20.54,14.79-60.42,28.3S293.5,83.62,291.57,75.26z"/>
	<path class="st17" d="M309.53,70.22c0,0,41.73-22.69,59.55-26.33c17.83-3.65,23.49-12.15,11.95,0
		c-11.54,12.15-26.13,12.56-9.11,11.75c17.02-0.81,34.84,1.22,22.69,2.43c-12.15,1.22-38.08,5.67-25.52,5.67s23.09,4.03,23.09,4.24
		c0,0.11-7.61,0.85-15.17,1.48c-7.76,0.65-15.47,1.17-14.84,0.76c1.24-0.81-12.94,9.32-38.05,17.83
		C298.99,96.56,310.74,75.49,309.53,70.22z"/>
	<path class="st16" d="M290.28,64.32c14.79-1.93,14.79-3.86,19.94,4.5c5.15,8.36,14.15,14.79,14.79,20.58s7.08,8.39,0,14.17
		c-7.08,5.77-10.22,6.44-15.72,8.36c-5.51,1.92-19.66,6.42-23.52,2.56c-3.86-3.86-15.44-5.79-9.01-12.22s-1.35-4.58-1.93-12.86
		s-0.64-14.15,3.86-16.08c4.5-1.93-2.57,5.15,4.5-1.93C290.28,64.32,290.28,64.32,290.28,64.32z"/>
	<ellipse class="st18" cx="282.56" cy="84.9" rx="3.86" ry="2.57"/>
	<ellipse class="st18" cx="292.5" cy="78.7" rx="2.28" ry="2.34"/>
	<ellipse transform="matrix(0.5 -0.866 0.866 0.5 82.4232 311.7408)" class="st18" cx="311.19" cy="84.49" rx="1.7" ry="2.89"/>
	<ellipse class="st18" cx="294.57" cy="85.59" rx="1.5" ry="1.24"/>
	
		<ellipse transform="matrix(0.1361 -0.9907 0.9907 0.1361 153.3152 371.542)" class="st18" cx="289.7" cy="97.86" rx="1.19" ry="2.51"/>
	<ellipse class="st18" cx="305.92" cy="97.95" rx="2.07" ry="1.1"/>
	
		<ellipse transform="matrix(0.9927 -0.1209 0.1209 0.9927 -9.1878 39.1371)" class="st18" cx="317.94" cy="95.29" rx="3.22" ry="1.19"/>
	<ellipse class="st18" cx="306.34" cy="77.74" rx="0.83" ry="0.74"/>
	
		<ellipse transform="matrix(0.9689 -0.2475 0.2475 0.9689 -17.8817 75.6376)" class="st18" cx="291.92" cy="108.95" rx="2.07" ry="1.08"/>
	<ellipse class="st18" cx="313.98" cy="104.84" rx="3.32" ry="1.1"/>
	<ellipse class="st18" cx="297.78" cy="68.23" rx="3.43" ry="1.33"/>
</g>
<circle class="st19" cx="546.5" cy="435.5" r="2.5"/>
<circle class="st19" cx="541" cy="475" r="3"/>
<circle class="st19" cx="520" cy="525" r="2"/>
<circle class="st19" cx="445.5" cy="401.5" r="1.5"/>
<circle class="st19" cx="162.5" cy="404.5" r="1.5"/>
<circle class="st19" cx="121" cy="434" r="1"/>
<circle class="st19" cx="131" cy="458" r="3"/>
<circle class="st19" cx="298.5" cy="254.5" r="2.5"/>
<circle class="st19" cx="363" cy="243" r="2"/>
<circle class="st19" cx="464.5" cy="255.5" r="1.5"/>
<circle class="st19" cx="620.5" cy="456.5" r="1.5"/>
<circle class="st19" cx="247.5" cy="621.5" r="1.5"/>
<circle class="st19" cx="75.5" cy="232.5" r="1.5"/>
<circle class="st19" cx="52" cy="391" r="1"/>
<circle class="st19" cx="156.5" cy="256.5" r="4.5"/>
<circle class="st19" cx="160" cy="233" r="1"/>
<circle class="st19" cx="202.5" cy="85.5" r="1.5"/>
<circle class="st19" cx="412" cy="108" r="1"/>
<circle class="st19" cx="480.5" cy="81.5" r="0.5"/>
<circle class="st19" cx="456" cy="52" r="2"/>
<circle class="st19" cx="507" cy="606" r="3"/>
<circle class="st19" cx="100.5" cy="555.5" r="2.5"/>
<circle class="st19" cx="125" cy="533" r="3"/>
<circle class="st19" cx="346.5" cy="651.5" r="2.5"/>
<circle class="st19" cx="290.5" cy="405.5" r="1.5"/>
<circle class="st19" cx="604.5" cy="246.5" r="1.5"/>
</svg>
