<?xml version="1.0" encoding="utf-8"?>
<!-- Generator: Adobe Illustrator 26.0.2, SVG Export Plug-In . SVG Version: 6.00 Build 0)  -->
<svg version="1.1" id="Layer_1" xmlns="http://www.w3.org/2000/svg" xmlns:xlink="http://www.w3.org/1999/xlink" x="0px" y="0px"
	 viewBox="0 0 1280 1024" style="enable-background:new 0 0 1280 1024;" xml:space="preserve">
<style type="text/css">
	.st0{fill:#0C0C0C;}
	.st1{fill:none;}
	.st2{fill:#0000B2;}
	.st3{font-family:'Modak';}
	.st4{font-size:119.0551px;}
	.st5{letter-spacing:5;}
	.st6{font-size:147.4016px;}
	.st7{letter-spacing:36;}
	.st8{fill:#58F9F9;}
	.st9{fill:#92D3D1;}
	.st10{fill:#5999F7;}
	.st11{fill:#C6BD14;}
	.st12{fill:#AFA41E;}
	.st13{fill:#A55325;}
	.st14{fill:#D3835B;}
	.st15{fill:#D3A089;}
	.st16{fill:#BC5E00;}
	.st17{fill:#BA8500;}
	.st18{fill:#87582D;}
	.st19{fill:#D6E7FC;}
</style>
<g>
	<path class="st0" d="M825,974.5c-88.81,0-172.31-34.59-235.11-97.39S492.5,730.81,492.5,642c0-88.81,34.59-172.31,97.39-235.11
		c62.8-62.8,146.3-97.39,235.11-97.39s172.31,34.59,235.11,97.39c62.8,62.8,97.39,146.3,97.39,235.11
		c0,88.81-34.59,172.31-97.39,235.11S913.81,974.5,825,974.5z"/>
	<path d="M825,310c44.82,0,88.3,8.78,129.23,26.09c39.53,16.72,75.04,40.66,105.53,71.15c30.49,30.49,54.43,66,71.15,105.53
		C1148.22,553.7,1157,597.18,1157,642s-8.78,88.3-26.09,129.23c-16.72,39.53-40.66,75.04-71.15,105.53
		c-30.49,30.49-66,54.43-105.53,71.15C913.3,965.22,869.82,974,825,974s-88.3-8.78-129.23-26.09
		c-39.53-16.72-75.04-40.66-105.53-71.15c-30.49-30.49-54.43-66-71.15-105.53C501.78,730.3,493,686.82,493,642
		s8.78-88.3,26.09-129.23c16.72-39.53,40.66-75.04,71.15-105.53c30.49-30.49,66-54.43,105.53-71.15C736.7,318.78,780.18,310,825,310
		 M825,309c-183.91,0-333,149.09-333,333s149.09,333,333,333s333-149.09,333-333S1008.91,309,825,309L825,309z"/>
</g>
<rect x="509" y="426.09" class="st1" width="631" height="449.46"/>
<text transform="matrix(1 0 0 1 595.8247 508.9229)"><tspan x="0" y="0" class="st2 st3 st4 st5">GIVE US</tspan><tspan x="463.3" y="0" class="st2 st3 st4"> </tspan><tspan x="-64.65" y="167.24" class="st2 st3 st6 st7">SPACE</tspan></text>
<polygon class="st8" points="930.99,909.82 903.16,894.36 879.85,916.05 885.96,884.8 858.13,869.34 889.73,865.49 895.84,834.24 
	909.26,863.11 940.87,859.26 917.56,880.95 "/>
<polygon class="st9" points="848.77,885.44 829.04,874.37 812.42,889.71 816.85,867.53 797.12,856.46 819.59,853.82 824.02,831.63 
	833.48,852.18 855.94,849.54 839.32,864.89 "/>
<polygon class="st10" points="921.11,830.06 903.74,812.56 881.73,823.67 893.01,801.75 875.64,784.25 899.97,788.2 911.24,766.27 
	915.01,790.64 939.35,794.58 917.34,805.69 "/>
<g>
	<circle class="st11" cx="716" cy="802" r="66"/>
	<circle class="st12" cx="665.15" cy="784.69" r="4.33"/>
	<circle class="st12" cx="699.23" cy="793.89" r="4.87"/>
	<circle class="st12" cx="744.13" cy="779.28" r="3.25"/>
	<circle class="st12" cx="735.48" cy="829.05" r="3.25"/>
	<ellipse class="st12" cx="686.25" cy="833.38" rx="2.7" ry="4.33"/>
	<circle class="st12" cx="716" cy="756.56" r="5.41"/>
	<circle class="st12" cx="761.44" cy="816.07" r="3.25"/>
	<circle class="st12" cx="724.66" cy="857.18" r="3.25"/>
	<circle class="st12" cx="721.95" cy="844.74" r="3.79"/>
</g>
<g>
	<circle class="st13" cx="825.63" cy="768.35" r="39.54"/>
	
		<ellipse transform="matrix(0.9647 -0.2632 0.2632 0.9647 -173.1041 244.3691)" class="st14" cx="825.63" cy="768.35" rx="93.07" ry="4.26"/>
	
		<ellipse transform="matrix(0.9647 -0.2632 0.2632 0.9647 -172.6577 244.1806)" class="st15" cx="825.15" cy="766.59" rx="93.07" ry="2.43"/>
</g>
<g>
	<path class="st16" d="M767.57,371.26c0,0,66.25-36.02,94.55-41.81c28.3-5.79,37.3-19.3,18.97,0s-41.48,19.94-14.47,18.65
		c27.02-1.29,55.32,1.93,36.02,3.86c-19.3,1.93-60.46,9.01-40.52,9.01c19.94,0,36.66,6.4,36.66,6.74c0,0.17-12.08,1.35-24.08,2.35
		c-12.32,1.03-24.56,1.86-23.56,1.21c1.97-1.29-20.54,14.79-60.42,28.3C750.85,413.06,769.5,379.62,767.57,371.26z"/>
	<path class="st17" d="M785.53,366.22c0,0,41.73-22.69,59.55-26.33s23.49-12.15,11.95,0s-26.13,12.56-9.11,11.75
		c17.02-0.81,34.84,1.22,22.69,2.43c-12.15,1.22-38.08,5.67-25.52,5.67s23.09,4.03,23.09,4.24c0,0.11-7.61,0.85-15.17,1.48
		c-7.76,0.65-15.47,1.17-14.84,0.76c1.24-0.81-12.94,9.32-38.05,17.83C774.99,392.56,786.74,371.49,785.53,366.22z"/>
	<path class="st16" d="M766.28,360.32c14.79-1.93,14.79-3.86,19.94,4.5s14.15,14.79,14.79,20.58c0.64,5.79,7.08,8.39,0,14.17
		c-7.08,5.77-10.22,6.44-15.72,8.36s-19.66,6.42-23.52,2.56c-3.86-3.86-15.44-5.79-9.01-12.22s-1.35-4.58-1.93-12.86
		c-0.58-8.28-0.64-14.15,3.86-16.08c4.5-1.93-2.57,5.15,4.5-1.93C766.28,360.32,766.28,360.32,766.28,360.32z"/>
	<ellipse class="st18" cx="758.56" cy="380.9" rx="3.86" ry="2.57"/>
	<ellipse class="st18" cx="768.5" cy="374.7" rx="2.28" ry="2.34"/>
	<ellipse transform="matrix(0.5 -0.866 0.866 0.5 64.0797 871.9689)" class="st18" cx="787.19" cy="380.49" rx="1.7" ry="2.89"/>
	<ellipse class="st18" cx="770.57" cy="381.59" rx="1.5" ry="1.24"/>
	
		<ellipse transform="matrix(0.1361 -0.9907 0.9907 0.1361 271.2721 1098.8159)" class="st18" cx="765.7" cy="393.86" rx="1.19" ry="2.51"/>
	<ellipse class="st18" cx="781.92" cy="393.95" rx="2.07" ry="1.1"/>
	
		<ellipse transform="matrix(0.9927 -0.1209 0.1209 0.9927 -41.4819 98.8552)" class="st18" cx="793.94" cy="391.29" rx="3.22" ry="1.19"/>
	<ellipse class="st18" cx="782.34" cy="373.74" rx="0.83" ry="0.74"/>
	
		<ellipse transform="matrix(0.9689 -0.2475 0.2475 0.9689 -76.3311 202.6527)" class="st18" cx="767.92" cy="404.95" rx="2.07" ry="1.08"/>
	<ellipse class="st18" cx="789.98" cy="400.84" rx="3.32" ry="1.1"/>
	<ellipse class="st18" cx="773.78" cy="364.23" rx="3.43" ry="1.33"/>
</g>
<circle class="st19" cx="1022.5" cy="731.5" r="2.5"/>
<circle class="st19" cx="1017" cy="771" r="3"/>
<circle class="st19" cx="996" cy="821" r="2"/>
<circle class="st19" cx="921.5" cy="697.5" r="1.5"/>
<circle class="st19" cx="638.5" cy="700.5" r="1.5"/>
<circle class="st19" cx="597" cy="730" r="1"/>
<circle class="st19" cx="607" cy="754" r="3"/>
<circle class="st19" cx="774.5" cy="550.5" r="2.5"/>
<circle class="st19" cx="839" cy="539" r="2"/>
<circle class="st19" cx="940.5" cy="551.5" r="1.5"/>
<circle class="st19" cx="1096.5" cy="752.5" r="1.5"/>
<circle class="st19" cx="723.5" cy="917.5" r="1.5"/>
<circle class="st19" cx="551.5" cy="528.5" r="1.5"/>
<circle class="st19" cx="528" cy="687" r="1"/>
<circle class="st19" cx="632.5" cy="552.5" r="4.5"/>
<circle class="st19" cx="636" cy="529" r="1"/>
<circle class="st19" cx="678.5" cy="381.5" r="1.5"/>
<circle class="st19" cx="888" cy="404" r="1"/>
<circle class="st19" cx="956.5" cy="377.5" r="0.5"/>
<circle class="st19" cx="932" cy="348" r="2"/>
<circle class="st19" cx="983" cy="902" r="3"/>
<circle class="st19" cx="576.5" cy="851.5" r="2.5"/>
<circle class="st19" cx="601" cy="829" r="3"/>
<circle class="st19" cx="822.5" cy="947.5" r="2.5"/>
<circle class="st19" cx="766.5" cy="701.5" r="1.5"/>
<circle class="st19" cx="1080.5" cy="542.5" r="1.5"/>
</svg>
