<svg xmlns="http://www.w3.org/2000/svg" width="2151" height="371" viewBox="0 0 2151 371">
  <g id="Group_1" data-name="Group 1" transform="translate(-30 -30)">
    <text id="Cat_news_meows" data-name="Cat(news)meows" transform="translate(30 327)" font-size="256" font-family="KaiseiOpti-Bold, Kaisei Opti" font-weight="700" text-decoration="underline"><tspan x="0" y="0">Cat(news)meows</tspan></text>
    <path id="Path_1" data-name="Path 1" d="M68.945,1370.9s.031-57.691,9.633-60.818,38.34,22.943,38.34,22.943l-8.758,5.291s-6.964,8.785-10.327,10.437-19.625,11.5-19.625,11.5Z" transform="translate(-228.531 -1152.963) rotate(-9)"/>
    <path id="Path_2" data-name="Path 2" d="M68.263,1354.061s.712-40.853,10.314-43.98,35.349,20.019,35.349,20.019l-5.768,8.216s-13.493,4.087-16.856,5.74-14.851,7.957-14.851,7.957Z" transform="translate(1055.634 -864.275) rotate(45)"/>
    <path id="Path_3" data-name="Path 3" d="M1817.119,1569.789s9.8,8,31.1-8.874,25.2-49.516,10.374-65.035-22.761-20.959-32.838-32.861c-8.081-9.543-13.572-14.362-15.274-31.244s.943-29.46,6.637-33.845c-.161.109,8.8-6.315,11.414,2.582s-6.56,16.812-2.777,32.231,9.008,19.594,17.91,29.446c9.468,10.478,22.515,19.161,25.828,23.616,6.323,8.5,13.6,17.955,12.981,37.54s-4.784,29.331-16.707,44.568-55.286,33.525-55.286,33.525.582-18.416,8.321-25.976C1818.6,1575.656,1817.119,1569.789,1817.119,1569.789Z" transform="translate(-19 -1276.354)"/>
  </g>
</svg>
