<svg width="93" height="40" viewBox="0 0 93 40" fill="none" xmlns="http://www.w3.org/2000/svg">
<rect width="93" height="40" rx="4" fill="url(#paint0_linear_116_8675)"/>
<path d="M0 4C0 1.79086 1.79086 0 4 0H40V40H4C1.79086 40 0 38.2091 0 36V4Z" fill="white" fill-opacity="0.2"/>
<mask id="mask0_116_8675" style="mask-type:luminance" maskUnits="userSpaceOnUse" x="10" y="10" width="20" height="20">
<path d="M15.8791 10.1187C14.8204 10.1687 14.0973 10.3383 13.4654 10.5859C12.8113 10.8409 12.2568 11.1826 11.7052 11.7365C11.1529 12.2907 10.8138 12.8461 10.5607 13.5009C10.3157 14.1344 10.1496 14.8579 10.1029 15.9173C10.0565 16.9786 10.0458 17.3171 10.051 20.0191C10.0562 22.7207 10.0681 23.0599 10.1187 24.1215C10.1693 25.1799 10.3382 25.9027 10.5858 26.535C10.8412 27.1891 11.1826 27.7433 11.7367 28.2952C12.2906 28.8472 12.8464 29.186 13.5015 29.4394C14.1344 29.6841 14.8581 29.8508 15.9172 29.8972C16.9785 29.9439 17.3173 29.9543 20.0186 29.9491C22.7212 29.9439 23.06 29.932 24.1213 29.8817C25.18 29.8311 25.9025 29.6615 26.535 29.4146C27.1892 29.1586 27.7437 28.8178 28.2953 28.2636C28.8469 27.7098 29.186 27.1539 29.4391 26.4989C29.6841 25.866 29.8508 25.1422 29.8969 24.0838C29.9433 23.0218 29.9543 22.6827 29.9491 19.981C29.944 17.2791 29.9317 16.9405 29.8814 15.8796C29.8311 14.8202 29.6616 14.0977 29.4143 13.4651C29.1586 12.811 28.8176 12.2571 28.2637 11.7049C27.7098 11.1533 27.154 10.8135 26.4989 10.561C25.8658 10.316 25.1423 10.149 24.0833 10.1032C23.022 10.0562 22.6831 10.0459 19.9809 10.051C17.2793 10.0562 16.9404 10.0678 15.8791 10.1187ZM15.9952 28.1063C15.0251 28.0641 14.4983 27.9029 14.1473 27.7678C13.6824 27.5879 13.3506 27.3722 13.0015 27.0256C12.653 26.6778 12.4367 26.347 12.2552 25.8831C12.1188 25.532 11.9547 25.0058 11.9092 24.0358C11.8599 22.987 11.8486 22.6724 11.8438 20.0155C11.8386 17.3593 11.8483 17.0447 11.8941 15.995C11.9357 15.0255 12.0978 14.4981 12.2326 14.1473C12.4125 13.6818 12.6275 13.3507 12.9747 13.0015C13.3226 12.6524 13.6533 12.4367 14.1176 12.2552C14.4684 12.1182 14.9945 11.9554 15.9642 11.9093C17.0136 11.8596 17.3279 11.849 19.9841 11.8438C22.6409 11.8387 22.9556 11.848 24.0053 11.8941C24.9747 11.9364 25.5021 12.0969 25.8525 12.2326C26.3177 12.4125 26.6495 12.6269 26.9983 12.9748C27.3471 13.3227 27.5635 13.6528 27.745 14.118C27.882 14.4678 28.0448 14.9946 28.0906 15.964C28.1405 17.0134 28.1518 17.3281 28.1566 19.9843C28.1618 22.6411 28.1521 22.9557 28.106 24.0048C28.0638 24.9749 27.9029 25.502 27.7675 25.8534C27.5876 26.318 27.3726 26.6497 27.0251 26.9989C26.6775 27.3467 26.3468 27.5637 25.8822 27.7452C25.5321 27.8819 25.0053 28.045 24.0362 28.0911C22.9868 28.1405 22.6725 28.1517 20.0154 28.1566C17.3592 28.1618 17.0449 28.1518 15.9952 28.1063ZM24.1068 14.6812C24.1081 15.3402 24.6439 15.8738 25.3029 15.8725C25.9621 15.8712 26.4957 15.3357 26.4947 14.6767C26.4934 14.0177 25.9576 13.4839 25.2984 13.4851C24.6391 13.4864 24.1055 14.0222 24.1068 14.6812ZM14.891 20.0097C14.8965 22.8316 17.1884 25.1142 20.0096 25.1087C22.8311 25.1032 25.1149 22.812 25.1094 19.9901C25.104 17.1691 22.8118 14.8853 19.9899 14.8908C17.1687 14.8962 14.8855 17.1885 14.891 20.0097ZM16.6832 20.0062C16.6799 18.1747 18.1623 16.6868 19.9935 16.6836C21.825 16.6801 23.3131 18.1618 23.3166 19.9936C23.3202 21.8254 21.8378 23.313 20.006 23.3165C18.1749 23.3201 16.6867 21.838 16.6832 20.0062Z" fill="white"/>
</mask>
<g mask="url(#mask0_116_8675)">
<rect x="9.13916" y="9.16772" width="21.7027" height="21.7027" fill="white"/>
</g>
<defs>
<linearGradient id="paint0_linear_116_8675" x1="13.5213" y1="40" x2="39.0822" y2="-19.2355" gradientUnits="userSpaceOnUse">
<stop stop-color="#FFD603"/>
<stop offset="0.145833" stop-color="#FF8D1A"/>
<stop offset="0.328125" stop-color="#FF4032"/>
<stop offset="0.6875" stop-color="#D000C6"/>
<stop offset="1" stop-color="#7334FE"/>
</linearGradient>
</defs>
</svg>
