<?xml version="1.0" encoding="UTF-8"?>
<svg xmlns="http://www.w3.org/2000/svg" version="1.1" viewBox="0 0 500 150">
  <defs>
    <style>
      .cls-1 {
        fill: #010101;
      }

      .cls-2 {
        fill: #fff;
      }

      .cls-3 {
        fill: none;
        stroke: #231f20;
        stroke-miterlimit: 10;
        stroke-width: 2px;
      }

      .cls-4 {
        fill: #f7d50b;
      }
    </style>
  </defs>
  <!-- Generator: Adobe Illustrator 28.6.0, SVG Export Plug-In . SVG Version: 1.2.0 Build 709)  -->
  <g>
    <g id="Layer_1">
      <g>
        <g>
          <path class="cls-1" d="M30.29,45.12c4.73,0,8.79.96,12.18,2.88,3.39,1.92,5.96,4.65,7.7,8.18,1.74,3.54,2.61,7.69,2.61,12.46,0,3.53-.48,6.73-1.43,9.61-.95,2.88-2.39,5.38-4.29,7.5-1.91,2.12-4.25,3.73-7.03,4.85-2.78,1.12-5.96,1.68-9.55,1.68s-6.76-.57-9.58-1.73c-2.82-1.15-5.18-2.77-7.06-4.87-1.89-2.09-3.31-4.61-4.28-7.56-.96-2.94-1.45-6.13-1.45-9.55s.5-6.72,1.51-9.64c1.01-2.92,2.46-5.41,4.37-7.47,1.91-2.05,4.23-3.62,6.97-4.71s5.85-1.63,9.33-1.63ZM43.42,68.58c0-3.34-.54-6.23-1.62-8.68-1.08-2.45-2.62-4.3-4.62-5.55-2-1.25-4.3-1.88-6.89-1.88-1.85,0-3.55.35-5.12,1.04-1.57.7-2.91,1.71-4.04,3.03-1.13,1.33-2.02,3.02-2.68,5.09-.65,2.06-.98,4.38-.98,6.95s.33,4.94.98,7.03c.65,2.1,1.58,3.83,2.77,5.21,1.19,1.38,2.56,2.41,4.11,3.1,1.54.68,3.24,1.03,5.09,1.03,2.36,0,4.54-.59,6.52-1.77,1.98-1.18,3.56-3.01,4.73-5.48,1.17-2.47,1.76-5.51,1.76-9.12Z"/>
          <path class="cls-1" d="M67.81,62.45v1.03c1.49-1.97,3.13-3.42,4.9-4.34,1.77-.92,3.81-1.38,6.11-1.38s4.24.49,6,1.46c1.76.98,3.08,2.35,3.95,4.14.56,1.04.92,2.16,1.09,3.36.17,1.2.25,2.74.25,4.6v15.8c0,1.7-.39,2.99-1.17,3.86s-1.79,1.31-3.03,1.31-2.29-.45-3.08-1.34c-.79-.89-1.18-2.17-1.18-3.83v-14.15c0-2.8-.39-4.94-1.17-6.42-.78-1.48-2.33-2.22-4.65-2.22-1.51,0-2.89.45-4.14,1.35s-2.16,2.14-2.74,3.72c-.42,1.27-.62,3.63-.62,7.09v10.64c0,1.72-.4,3.01-1.2,3.87-.8.86-1.83,1.29-3.1,1.29s-2.23-.45-3.02-1.34c-.79-.89-1.18-2.17-1.18-3.83v-24.55c0-1.62.35-2.83,1.06-3.62.7-.8,1.67-1.2,2.89-1.2.75,0,1.42.18,2.02.53.6.35,1.08.88,1.45,1.59.36.71.54,1.57.54,2.58Z"/>
          <path class="cls-1" d="M98.57,87.12v-36.83c0-1.7.38-2.99,1.14-3.86.76-.87,1.78-1.31,3.06-1.31s2.32.43,3.11,1.29c.79.86,1.18,2.15,1.18,3.87v36.83c0,1.72-.4,3.01-1.2,3.87-.8.86-1.83,1.29-3.1,1.29s-2.26-.45-3.03-1.34c-.78-.89-1.17-2.17-1.17-3.83Z"/>
          <path class="cls-1" d="M123.68,93.34l.78-1.9-10.45-26.32c-.64-1.51-.96-2.61-.96-3.3,0-.73.19-1.4.56-2.02s.89-1.12,1.54-1.49,1.33-.56,2.04-.56c1.22,0,2.15.39,2.77,1.17s1.17,1.89,1.65,3.34l7.19,20.91,6.81-19.44c.54-1.58,1.03-2.81,1.46-3.7.44-.89.9-1.49,1.38-1.8.49-.31,1.18-.47,2.07-.47.64,0,1.26.17,1.85.51s1.05.8,1.37,1.38c.32.58.48,1.19.48,1.84-.08.39-.22.95-.4,1.68-.19.73-.42,1.46-.68,2.21l-11.07,28.99c-.95,2.55-1.89,4.55-2.8,6-.91,1.45-2.12,2.57-3.62,3.34-1.5.78-3.53,1.17-6.08,1.17s-4.36-.27-5.6-.81-1.87-1.52-1.87-2.96c0-.97.3-1.73.89-2.25s1.47-.79,2.63-.79c.46,0,.9.06,1.34.19.54.12,1.01.19,1.4.19.97,0,1.74-.15,2.3-.44s1.06-.79,1.51-1.51c.45-.72.96-1.77,1.54-3.16Z"/>
          <path class="cls-2" d="M197.53,63.97v24.67c0,2.82-.3,5.25-.9,7.28-.6,2.03-1.57,3.71-2.89,5.04-1.33,1.33-3.06,2.31-5.21,2.96s-4.82.96-8.01.96c-2.92,0-5.54-.41-7.84-1.23-2.3-.82-4.08-1.88-5.32-3.17-1.24-1.3-1.87-2.63-1.87-4,0-1.04.35-1.88,1.06-2.53.7-.65,1.56-.98,2.55-.98,1.24,0,2.33.55,3.27,1.65.46.56.93,1.12,1.42,1.7.49.57,1.03,1.06,1.62,1.46s1.3.7,2.13.9c.83.2,1.78.29,2.86.29,2.2,0,3.9-.31,5.12-.92,1.21-.61,2.06-1.47,2.55-2.57.49-1.1.77-2.28.86-3.53.08-1.25.14-3.27.19-6.05-1.31,1.83-2.82,3.22-4.53,4.17-1.71.95-3.75,1.43-6.11,1.43-2.84,0-5.32-.73-7.45-2.18-2.13-1.45-3.76-3.48-4.9-6.1-1.14-2.61-1.71-5.63-1.71-9.05,0-2.55.35-4.85,1.04-6.91.69-2.05,1.68-3.78,2.97-5.2,1.29-1.41,2.77-2.47,4.45-3.19s3.53-1.07,5.54-1.07c2.41,0,4.49.46,6.25,1.38,1.76.92,3.4,2.37,4.92,4.34v-1.15c0-1.47.36-2.61,1.09-3.42.73-.81,1.66-1.21,2.8-1.21,1.64,0,2.73.53,3.27,1.6.54,1.07.81,2.61.81,4.62ZM172.93,74.74c0,3.44.75,6.05,2.26,7.81,1.5,1.76,3.45,2.64,5.83,2.64,1.41,0,2.74-.38,4-1.13,1.25-.76,2.28-1.9,3.06-3.42.79-1.52,1.18-3.38,1.18-5.55,0-3.46-.76-6.16-2.29-8.09s-3.53-2.89-6.02-2.89-4.37.92-5.83,2.77c-1.46,1.85-2.19,4.47-2.19,7.87Z"/>
          <path class="cls-2" d="M236.33,75.02c0,2.53-.39,4.86-1.18,7-.79,2.14-1.93,3.97-3.42,5.51-1.49,1.54-3.28,2.71-5.35,3.53-2.07.82-4.41,1.23-7,1.23s-4.88-.41-6.94-1.24c-2.05-.83-3.83-2.02-5.34-3.56s-2.64-3.37-3.42-5.48c-.78-2.1-1.17-4.43-1.17-6.98s.39-4.93,1.18-7.06c.79-2.14,1.92-3.96,3.39-5.48,1.47-1.51,3.26-2.68,5.35-3.5,2.09-.82,4.41-1.23,6.94-1.23s4.9.42,7,1.24c2.09.83,3.89,2.01,5.38,3.55,1.49,1.54,2.63,3.36,3.41,5.48.78,2.12,1.17,4.45,1.17,7ZM227.8,75.02c0-3.46-.76-6.16-2.29-8.09-1.52-1.93-3.57-2.89-6.14-2.89-1.66,0-3.12.43-4.39,1.29-1.27.86-2.24,2.13-2.92,3.81s-1.03,3.64-1.03,5.88.34,4.16,1.01,5.82c.67,1.66,1.64,2.93,2.89,3.81s2.73,1.32,4.43,1.32c2.57,0,4.62-.97,6.14-2.91,1.53-1.94,2.29-4.62,2.29-8.04Z"/>
          <path class="cls-4" d="M274.81,75.02c0,2.53-.39,4.86-1.18,7-.79,2.14-1.93,3.97-3.42,5.51-1.49,1.54-3.28,2.71-5.35,3.53-2.07.82-4.41,1.23-7,1.23s-4.88-.41-6.94-1.24c-2.05-.83-3.83-2.02-5.34-3.56s-2.64-3.37-3.42-5.48c-.78-2.1-1.17-4.43-1.17-6.98s.39-4.93,1.18-7.06c.79-2.14,1.92-3.96,3.39-5.48,1.47-1.51,3.26-2.68,5.35-3.5,2.09-.82,4.41-1.23,6.94-1.23s4.9.42,7,1.24c2.09.83,3.89,2.01,5.38,3.55,1.49,1.54,2.63,3.36,3.41,5.48.78,2.12,1.17,4.45,1.17,7ZM266.29,75.02c0-3.46-.76-6.16-2.29-8.09-1.52-1.93-3.57-2.89-6.14-2.89-1.66,0-3.12.43-4.39,1.29-1.27.86-2.24,2.13-2.92,3.81s-1.03,3.64-1.03,5.88.34,4.16,1.01,5.82c.67,1.66,1.64,2.93,2.89,3.81s2.73,1.32,4.43,1.32c2.57,0,4.62-.97,6.14-2.91,1.53-1.94,2.29-4.62,2.29-8.04Z"/>
          <path class="cls-2" d="M304.77,87.43v-.84c-1.14,1.31-2.27,2.37-3.37,3.19-1.11.82-2.31,1.44-3.61,1.87-1.3.42-2.71.64-4.25.64-2.03,0-3.92-.43-5.65-1.29-1.73-.86-3.23-2.09-4.5-3.69-1.27-1.6-2.22-3.47-2.88-5.63-.65-2.16-.98-4.49-.98-7,0-5.31,1.3-9.45,3.89-12.41,2.59-2.97,6-4.45,10.24-4.45,2.45,0,4.51.42,6.19,1.26s3.32,2.13,4.92,3.87v-12.54c0-1.74.35-3.06,1.04-3.95.69-.89,1.68-1.34,2.97-1.34s2.28.41,2.97,1.23c.69.82,1.04,2.03,1.04,3.62v37.46c0,1.62-.37,2.83-1.12,3.64s-1.71,1.21-2.89,1.21-2.12-.42-2.88-1.26-1.13-2.04-1.13-3.59ZM288.06,74.95c0,2.3.36,4.26,1.07,5.88.71,1.62,1.69,2.84,2.94,3.66s2.6,1.23,4.08,1.23,2.86-.39,4.09-1.17,2.22-1.97,2.96-3.58c.74-1.61,1.1-3.61,1.1-6.02,0-2.26-.37-4.2-1.1-5.83-.74-1.63-1.73-2.87-2.99-3.73-1.26-.86-2.63-1.29-4.12-1.29s-2.95.44-4.17,1.32c-1.22.88-2.17,2.15-2.85,3.8-.68,1.65-1.01,3.56-1.01,5.74Z"/>
          <path class="cls-2" d="M344.96,62.45v1.03c1.49-1.97,3.13-3.42,4.9-4.34,1.77-.92,3.81-1.38,6.11-1.38s4.24.49,6,1.46c1.76.98,3.08,2.35,3.95,4.14.56,1.04.92,2.16,1.09,3.36.17,1.2.25,2.74.25,4.6v15.8c0,1.7-.39,2.99-1.17,3.86-.78.87-1.79,1.31-3.03,1.31s-2.29-.45-3.08-1.34c-.79-.89-1.18-2.17-1.18-3.83v-14.15c0-2.8-.39-4.94-1.17-6.42-.78-1.48-2.33-2.22-4.65-2.22-1.51,0-2.89.45-4.14,1.35s-2.16,2.14-2.74,3.72c-.41,1.27-.62,3.63-.62,7.09v10.64c0,1.72-.4,3.01-1.2,3.87-.8.86-1.83,1.29-3.09,1.29s-2.23-.45-3.02-1.34c-.79-.89-1.18-2.17-1.18-3.83v-24.55c0-1.62.35-2.83,1.06-3.62.71-.8,1.67-1.2,2.89-1.2.75,0,1.42.18,2.02.53.6.35,1.08.88,1.45,1.59.36.71.54,1.57.54,2.58Z"/>
          <path class="cls-2" d="M399.43,77.1h-16.61c.02,1.93.41,3.63,1.17,5.1.76,1.47,1.76,2.58,3.02,3.33s2.64,1.12,4.15,1.12c1.02,0,1.94-.12,2.78-.36.84-.24,1.65-.61,2.44-1.12s1.51-1.05,2.18-1.63c.66-.58,1.52-1.37,2.58-2.36.44-.37,1.06-.56,1.87-.56.87,0,1.58.24,2.12.72.54.48.81,1.15.81,2.02,0,.77-.3,1.66-.9,2.69s-1.51,2.01-2.72,2.96c-1.21.94-2.74,1.73-4.57,2.35-1.84.62-3.95.93-6.33.93-5.45,0-9.7-1.56-12.72-4.67-3.03-3.11-4.54-7.33-4.54-12.66,0-2.51.37-4.84,1.12-6.98.75-2.15,1.84-3.99,3.27-5.52,1.43-1.53,3.19-2.71,5.29-3.53,2.09-.82,4.42-1.23,6.97-1.23,3.32,0,6.16.7,8.54,2.1,2.37,1.4,4.15,3.21,5.34,5.43,1.18,2.22,1.77,4.48,1.77,6.78,0,2.14-.61,3.52-1.84,4.15-1.22.63-2.95.95-5.16.95ZM382.82,72.28h15.4c-.21-2.9-.99-5.08-2.35-6.52-1.36-1.44-3.15-2.16-5.37-2.16s-3.85.73-5.21,2.19c-1.36,1.46-2.18,3.62-2.47,6.49Z"/>
          <path class="cls-2" d="M418.04,63.04l5.54,18.98,5.04-17.64c.54-1.85.94-3.11,1.2-3.78.26-.67.75-1.32,1.46-1.93.71-.61,1.69-.92,2.94-.92s2.25.31,2.97.92c.71.61,1.22,1.28,1.51,1.99s.69,1.96,1.21,3.72l5.04,17.64,5.6-18.98c.37-1.37.67-2.36.9-2.97.23-.61.61-1.15,1.15-1.62s1.32-.7,2.33-.7,1.9.35,2.64,1.06c.75.71,1.12,1.54,1.12,2.49,0,.87-.32,2.19-.96,3.95l-6.94,20.35c-.6,1.72-1.07,2.97-1.4,3.73-.33.77-.86,1.45-1.57,2.05-.72.6-1.7.9-2.94.9s-2.3-.32-3.03-.96c-.74-.64-1.28-1.43-1.63-2.36s-.74-2.15-1.15-3.64l-4.85-16.55-4.7,16.55c-.62,2.3-1.3,4.04-2.02,5.21-.73,1.17-2,1.76-3.83,1.76-.93,0-1.73-.18-2.38-.54-.65-.36-1.2-.88-1.63-1.56s-.82-1.47-1.15-2.4-.59-1.65-.78-2.19l-6.88-20.35c-.68-1.91-1.03-3.22-1.03-3.95,0-.91.36-1.73,1.09-2.46.73-.73,1.62-1.09,2.68-1.09,1.41,0,2.36.4,2.86,1.2.5.8,1.03,2.16,1.59,4.09Z"/>
          <path class="cls-2" d="M491.89,81.18c0,2.34-.57,4.35-1.71,6.02s-2.83,2.93-5.05,3.8c-2.23.86-4.94,1.29-8.14,1.29s-5.66-.47-7.84-1.4c-2.18-.93-3.78-2.1-4.82-3.5-1.04-1.4-1.56-2.8-1.56-4.22,0-.93.33-1.73,1-2.4.66-.66,1.5-1,2.52-1,.89,0,1.58.22,2.05.65s.93,1.05,1.37,1.84c.87,1.51,1.91,2.64,3.13,3.39,1.21.75,2.87,1.12,4.96,1.12,1.7,0,3.1-.38,4.18-1.13,1.09-.76,1.63-1.62,1.63-2.6,0-1.49-.57-2.58-1.7-3.27s-2.99-1.34-5.58-1.96c-2.92-.73-5.3-1.49-7.14-2.29-1.84-.8-3.3-1.85-4.4-3.16-1.1-1.31-1.65-2.91-1.65-4.82,0-1.7.51-3.31,1.52-4.82,1.02-1.51,2.51-2.72,4.49-3.62,1.98-.9,4.37-1.35,7.17-1.35,2.2,0,4.17.23,5.93.68,1.75.46,3.21,1.07,4.39,1.84,1.17.77,2.06,1.62,2.68,2.55s.92,1.85.92,2.74c0,.98-.33,1.77-.98,2.4-.65.62-1.58.93-2.78.93-.87,0-1.61-.25-2.22-.75-.61-.5-1.31-1.24-2.1-2.24-.64-.83-1.4-1.49-2.27-1.99s-2.05-.75-3.55-.75-2.81.33-3.83.98-1.52,1.47-1.52,2.44c0,.89.37,1.62,1.12,2.19.75.57,1.75,1.04,3.02,1.42s3.01.83,5.23,1.37c2.63.64,4.79,1.41,6.46,2.3,1.67.89,2.93,1.94,3.8,3.16.86,1.21,1.29,2.6,1.29,4.15Z"/>
        </g>
        <path class="cls-3" d="M244.53,78.73c1.43,3.91,5.28,6.8,9.43,7.09,4.15.29,8.36-2.05,10.32-5.72"/>
        <ellipse class="cls-3" cx="248.16" cy="69.94" rx="1.36" ry="3.04"/>
        <ellipse class="cls-3" cx="256.54" cy="69.94" rx="1.36" ry="3.04"/>
      </g>
    </g>
  </g>
</svg>