<svg version="1.1" viewBox="0.0 0.0 66.66666666666667 66.66666666666667" fill="none" stroke="none" stroke-linecap="square" stroke-miterlimit="10" xmlns:xlink="http://www.w3.org/1999/xlink" xmlns="http://www.w3.org/2000/svg"><clipPath id="p.0"><path d="m0 0l66.666664 0l0 66.666664l-66.666664 0l0 -66.666664z" clip-rule="nonzero"/></clipPath><g clip-path="url(#p.0)"><path fill="#000000" fill-opacity="0.0" d="m0 0l66.666664 0l0 66.666664l-66.666664 0z" fill-rule="evenodd"/><path fill="#000000" d="m15.601049 33.333332l0 0c0 -8.958319 7.9390144 -16.22047 17.732283 -16.22047l0 0c9.79327 0 17.732285 7.2621517 17.732285 16.22047l0 0c0 8.958321 -7.9390144 16.220474 -17.732285 16.220474l0 0c-9.793268 0 -17.732283 -7.2621536 -17.732283 -16.220474z" fill-rule="evenodd"/><path stroke="#000000" stroke-width="1.0" stroke-linejoin="round" stroke-linecap="butt" d="m15.601049 33.333332l0 0c0 -8.958319 7.9390144 -16.22047 17.732283 -16.22047l0 0c9.79327 0 17.732285 7.2621517 17.732285 16.22047l0 0c0 8.958321 -7.9390144 16.220474 -17.732285 16.220474l0 0c-9.793268 0 -17.732283 -7.2621536 -17.732283 -16.220474z" fill-rule="evenodd"/><path fill="#ffffff" d="m25.333334 33.333332l0 0c0 -4.418276 3.5817223 -7.999998 7.999998 -7.999998l0 0c2.1217346 0 4.156563 0.84285355 5.6568565 2.3431454c1.5002899 1.5002899 2.3431435 3.535122 2.3431435 5.6568527l0 0c0 4.4182777 -3.5817223 8.0 -8.0 8.0l0 0c-4.418276 0 -7.999998 -3.5817223 -7.999998 -8.0z" fill-rule="evenodd"/><path stroke="#ffffff" stroke-width="1.0" stroke-linejoin="round" stroke-linecap="butt" d="m25.333334 33.333332l0 0c0 -4.418276 3.5817223 -7.999998 7.999998 -7.999998l0 0c2.1217346 0 4.156563 0.84285355 5.6568565 2.3431454c1.5002899 1.5002899 2.3431435 3.535122 2.3431435 5.6568527l0 0c0 4.4182777 -3.5817223 8.0 -8.0 8.0l0 0c-4.418276 0 -7.999998 -3.5817223 -7.999998 -8.0z" fill-rule="evenodd"/><path fill="#fce5cd" d="m31.829397 34.755905l0 0c0 -1.7307816 1.3819218 -3.1338577 3.0866146 -3.1338577l0 0c0.8186188 0 1.6037102 0.3301735 2.1825638 0.9178848c0.5788536 0.58771515 0.9040489 1.3848228 0.9040489 2.215973l0 0c0 1.7307816 -1.3819237 3.1338577 -3.0866127 3.1338577l0 0c-1.7046928 0 -3.0866146 -1.4030762 -3.0866146 -3.1338577z" fill-rule="evenodd"/><path stroke="#fce5cd" stroke-width="1.0" stroke-linejoin="round" stroke-linecap="butt" d="m31.829397 34.755905l0 0c0 -1.7307816 1.3819218 -3.1338577 3.0866146 -3.1338577l0 0c0.8186188 0 1.6037102 0.3301735 2.1825638 0.9178848c0.5788536 0.58771515 0.9040489 1.3848228 0.9040489 2.215973l0 0c0 1.7307816 -1.3819237 3.1338577 -3.0866127 3.1338577l0 0c-1.7046928 0 -3.0866146 -1.4030762 -3.0866146 -3.1338577z" fill-rule="evenodd"/></g></svg>