<svg width="286" height="83" viewBox="0 0 286 83" fill="none" xmlns="http://www.w3.org/2000/svg">
<g clip-path="url(#clip0_48_4215)">
<path d="M17.41 47.4121L17.0441 39.8096L30.6635 25.4585H37.9813L25.7036 38.6713L22.0447 42.5742L17.41 47.4121ZM11.5151 53.9168V25.4585H18.0605V53.9168H11.5151ZM30.9887 53.9168L20.8657 41.5171L25.1751 36.8418L38.6725 53.9168H30.9887ZM43.3031 53.9168V25.4585H55.6215C58.1692 25.4585 60.3645 25.8786 62.2075 26.7188C64.0506 27.5319 65.4735 28.7109 66.4763 30.2558C67.4791 31.8007 67.9805 33.6437 67.9805 35.7848C67.9805 37.8989 67.4791 39.7283 66.4763 41.2732C65.4735 42.8181 64.0506 44.0106 62.2075 44.8508C60.3645 45.6639 58.1692 46.0705 55.6215 46.0705H46.962L49.8891 43.1027V53.9168H43.3031ZM49.8891 43.8345L46.962 40.704H55.2556C57.2883 40.704 58.8061 40.2704 59.8089 39.4031C60.8117 38.5358 61.3131 37.3297 61.3131 35.7848C61.3131 34.2128 60.8117 32.9932 59.8089 32.1259C58.8061 31.2586 57.2883 30.8249 55.2556 30.8249H46.962L49.8891 27.6945V43.8345ZM88.5961 54.4047C86.3465 54.4047 84.2596 54.0388 82.3352 53.307C80.438 52.5752 78.7847 51.5453 77.3754 50.2173C75.9931 48.8892 74.909 47.3308 74.123 45.542C73.3641 43.7532 72.9846 41.8017 72.9846 39.6877C72.9846 37.5736 73.3641 35.6222 74.123 33.8334C74.909 32.0446 76.0066 30.4862 77.416 29.1581C78.8254 27.83 80.4787 26.8001 82.3759 26.0683C84.2731 25.3366 86.333 24.9707 88.5554 24.9707C90.805 24.9707 92.8648 25.3366 94.7349 26.0683C96.6322 26.8001 98.2719 27.83 99.6542 29.1581C101.064 30.4862 102.161 32.0446 102.947 33.8334C103.733 35.5951 104.126 37.5465 104.126 39.6877C104.126 41.8017 103.733 43.7667 102.947 45.5826C102.161 47.3714 101.064 48.9299 99.6542 50.2579C98.2719 51.5589 96.6322 52.5752 94.7349 53.307C92.8648 54.0388 90.8185 54.4047 88.5961 54.4047ZM88.5554 48.7943C89.8293 48.7943 90.9947 48.5775 92.0517 48.1439C93.1358 47.7102 94.0845 47.0868 94.8976 46.2737C95.7106 45.4607 96.334 44.4985 96.7677 43.3873C97.2284 42.276 97.4588 41.0428 97.4588 39.6877C97.4588 38.3325 97.2284 37.0993 96.7677 35.9881C96.334 34.8769 95.7106 33.9147 94.8976 33.1016C94.1116 32.2885 93.1765 31.6651 92.0924 31.2315C91.0082 30.7978 89.8293 30.581 88.5554 30.581C87.2816 30.581 86.1026 30.7978 85.0184 31.2315C83.9614 31.6651 83.0264 32.2885 82.2133 33.1016C81.4002 33.9147 80.7633 34.8769 80.3025 35.9881C79.8688 37.0993 79.652 38.3325 79.652 39.6877C79.652 41.0157 79.8688 42.2489 80.3025 43.3873C80.7633 44.4985 81.3866 45.4607 82.1726 46.2737C82.9857 47.0868 83.9343 47.7102 85.0184 48.1439C86.1026 48.5775 87.2816 48.7943 88.5554 48.7943ZM110.77 53.9168V25.4585H123.088C125.636 25.4585 127.831 25.8786 129.674 26.7188C131.517 27.5319 132.94 28.7109 133.943 30.2558C134.946 31.8007 135.447 33.6437 135.447 35.7848C135.447 37.8989 134.946 39.7283 133.943 41.2732C132.94 42.8181 131.517 44.0106 129.674 44.8508C127.831 45.6639 125.636 46.0705 123.088 46.0705H114.429L117.356 43.1027V53.9168H110.77ZM117.356 43.8345L114.429 40.704H122.722C124.755 40.704 126.273 40.2704 127.276 39.4031C128.278 38.5358 128.78 37.3297 128.78 35.7848C128.78 34.2128 128.278 32.9932 127.276 32.1259C126.273 31.2586 124.755 30.8249 122.722 30.8249H114.429L117.356 27.6945V43.8345Z" fill="url(#paint0_linear_48_4215)"/>
<path d="M187.144 14.023C187.047 12.1217 186.456 11.1071 185.406 11.0101C182.133 10.6175 176.208 21.7472 170.871 37.8574C173.129 21.8487 171.722 19.1622 170.116 18.8005C169.331 18.6372 167.006 18.1123 160.685 32.652C157.804 39.2337 154.827 47.355 152.334 55.2777C154.531 44.5714 158.885 25.5454 160.328 19.5548C161.241 15.6905 161.047 13.401 159.767 12.5805C159.084 12.157 157.804 11.9894 155.546 13.7274C153.252 15.4964 150.733 18.6725 148.933 21.9766C147.72 24.2396 145.854 28.4921 146.935 31.7036C147.949 34.7165 151.09 35.4047 153.547 35.4356C153.909 35.4356 154.169 35.1753 154.169 34.8136C154.205 34.4518 153.909 34.1916 153.547 34.1916C150.57 34.1254 148.766 33.177 148.113 31.2757C146.639 26.8247 152.008 18.0814 156.331 14.7068C157.575 13.7583 158.625 13.3348 159.115 13.6613C159.375 13.8245 160.164 14.742 159.084 19.2592C158.493 21.7825 155.969 32.5858 153.644 43.1289C152.4 48.8592 151.421 53.447 150.764 56.7202C150.407 58.6171 150.142 60.0904 149.979 61.105C149.749 62.6446 149.683 63.3019 150.34 63.496C150.407 63.5313 150.468 63.5622 150.57 63.5622C151.09 63.5622 151.355 62.8431 151.651 62.0579C151.651 62.0226 151.651 62.0226 151.681 61.9917C154.399 52.2339 158.197 41.4614 161.832 33.1417C167.659 19.718 169.755 20.0136 169.856 20.0445C169.887 20.0445 170.902 20.34 170.769 25.9071C170.641 30.3934 169.821 37.2354 168.317 46.1771C168.25 46.5036 168.48 46.83 168.806 46.8962C169.133 46.9623 169.463 46.7991 169.525 46.4727C173.359 33.274 176.861 25.0866 179.155 20.5385C182.459 13.9568 184.555 12.2541 185.243 12.2541H185.278C185.538 12.2849 185.834 12.8408 185.9 14.0848C186.16 18.2138 184.197 29.0171 182.459 38.5455C179.482 54.8851 179.186 57.8318 180.465 58.2906C181.251 58.5862 181.873 57.6686 182.397 56.7511C182.561 56.4555 182.459 56.0629 182.168 55.8997C181.873 55.7365 181.48 55.8335 181.281 56.1291C181.184 56.3276 181.087 56.4908 180.986 56.6231C180.924 54.0999 182.459 45.6831 183.703 38.7749C185.538 28.6906 187.44 18.2799 187.144 14.023Z" fill="#F0F0F0"/>
<path d="M201.351 34.9768C201.056 34.8444 200.663 34.9768 200.531 35.2723C198.043 40.3454 196.177 41.9511 195.29 41.7879C194.933 41.7217 193.755 41.0335 193.46 35.3032C193.46 35.043 193.261 34.8136 193.032 34.7474C192.771 34.6812 192.476 34.7474 192.344 34.9768C192.149 35.2062 191.951 35.4664 191.757 35.762C190.936 36.8781 189.856 38.3823 188.545 39.7895C188.351 40.0189 188.188 40.1513 188.087 40.2174C187.862 39.0705 189.07 34.6812 191.002 33.3093C191.558 32.9167 192.313 32.6211 193.327 33.799C193.557 34.0592 193.949 34.0945 194.214 33.8651C194.474 33.6666 194.505 33.2431 194.311 32.9785C193.067 31.5404 191.889 31.5712 191.1 31.8359C188.581 32.7182 186.878 37.5662 186.812 39.7895C186.781 40.7071 187.041 41.2982 187.566 41.4923C188.382 41.8232 189.203 40.9365 189.463 40.6409C190.579 39.4322 191.594 38.1221 192.313 37.1075C192.674 40.8394 193.557 42.7054 195.03 43.0319C195.162 43.0319 195.29 43.0671 195.423 43.0671C197.65 43.0671 200.041 39.1675 201.647 35.8282C201.81 35.5017 201.678 35.14 201.351 34.9768Z" fill="#F0F0F0"/>
<path d="M214.841 35.0121C214.643 34.7165 214.25 34.6503 213.99 34.8136C211.696 36.2869 208.749 38.2191 205.705 40.7071C206.032 38.4485 206.358 36.0576 206.685 33.5034C206.72 33.177 206.521 32.9167 206.261 32.8152C205.966 32.7182 205.639 32.8505 205.507 33.1108C204.951 34.0283 203.411 36.384 202.137 38.0868C201.612 38.7441 201.316 39.0043 201.153 39.1014C200.826 38.0559 201.841 33.3711 203.901 31.5404C204.722 30.786 205.476 30.786 206.292 31.5051C206.557 31.7345 206.949 31.7345 207.179 31.4742C207.408 31.2139 207.373 30.8169 207.143 30.5919C205.833 29.4097 204.655 29.6082 203.901 30.0008C201.25 31.311 199.644 36.7457 199.874 38.9382C199.94 39.9219 200.399 40.2836 200.76 40.3807C201.643 40.61 202.494 39.6925 203.116 38.8411C203.773 37.9897 204.461 37.006 205.083 36.1237C204.819 38.1882 204.523 40.1204 204.232 41.9511C200.725 44.9993 197.222 48.8283 194.571 53.6764C192.573 57.276 191.92 60.3198 191.721 62.2211C191.461 64.7091 191.819 66.7736 192.736 67.8852C193.23 68.5072 193.852 68.8337 194.54 68.8337C194.734 68.8337 194.964 68.8028 195.193 68.7366C198.338 67.8544 202.463 60.386 205.375 42.6084C208.78 39.6925 212.124 37.5309 214.643 35.8943C214.938 35.6958 215.035 35.3032 214.841 35.0121ZM194.867 67.5235C194.408 67.6559 194.046 67.5235 193.72 67.1C192.476 65.5605 192.277 60.4213 195.652 54.2984C197.941 50.1385 200.893 46.733 203.87 43.9494C200.893 61.105 196.962 66.9368 194.867 67.5235Z" fill="#F0F0F0"/>
<path d="M227.02 34.9768C226.725 34.8444 226.332 34.9768 226.2 35.2723C223.712 40.3454 221.846 41.9511 220.959 41.7879C220.602 41.7217 219.424 41.0335 219.128 35.3032C219.128 35.043 218.93 34.8136 218.701 34.7474C218.44 34.6812 218.145 34.7474 218.012 34.9768C217.818 35.2062 217.62 35.4664 217.426 35.762C216.605 36.8781 215.524 38.3823 214.214 39.7895C214.02 40.0189 213.857 40.1513 213.755 40.2174C213.53 39.0705 214.739 34.6812 216.671 33.3093C217.227 32.9167 217.981 32.6211 218.996 33.799C219.225 34.0592 219.618 34.0945 219.883 33.8651C220.143 33.6666 220.174 33.2431 219.98 32.9785C218.736 31.5404 217.558 31.5712 216.768 31.8359C214.249 32.7182 212.547 37.5662 212.481 39.7895C212.45 40.7071 212.71 41.2982 213.235 41.4923C214.051 41.8232 214.871 40.9365 215.132 40.6409C216.248 39.4322 217.262 38.1221 217.981 37.1075C218.343 40.8394 219.225 42.7054 220.699 43.0319C220.831 43.0319 220.959 43.0671 221.091 43.0671C223.319 43.0671 225.71 39.1675 227.316 35.8282C227.479 35.5017 227.347 35.14 227.02 34.9768Z" fill="#F0F0F0"/>
<path d="M245.354 34.9106C245.124 34.6504 244.732 34.6195 244.471 34.8445C242.045 36.9442 239.853 38.9073 237.793 40.7733C237.956 38.7088 237.757 37.0413 237.069 36.0929C236.513 35.3385 235.728 35.043 234.744 35.1753C233.5 35.3694 232.517 35.7973 231.798 36.1899C231.798 36.1546 231.833 36.1237 231.833 36.0929C231.996 35.6958 232.225 35.2415 232.455 34.6812C233.893 31.3772 234.219 29.3127 233.5 28.3951C233.174 28.0025 232.684 27.8393 232.093 27.9363C230.029 28.3289 227.377 31.933 226.46 34.8136C226.363 35.14 226.526 35.5017 226.888 35.5988C227.214 35.6958 227.541 35.5326 227.673 35.1753C228.591 32.1933 230.915 29.7053 232.124 29.2465C232.353 29.1494 232.486 29.1494 232.486 29.1803C232.486 29.1803 233.108 29.9347 231.308 34.1916C231.043 34.7165 230.849 35.1753 230.686 35.5679C229.901 37.3677 229.768 37.6942 230.192 38.0559C230.62 38.4176 231.043 38.1221 231.502 37.8265C232.159 37.4339 233.306 36.6487 234.943 36.4193C235.433 36.3531 235.759 36.4855 236.055 36.8428C236.677 37.6942 236.743 39.6263 236.381 42.0834C232.292 45.9478 228.82 49.5165 225.414 53.4779C220.796 58.7494 218.767 62.7769 219.684 64.8062C220.011 65.5914 220.73 66.0193 221.682 66.0193C221.713 66.0193 221.744 66.0193 221.744 66.0193C224.859 66.0193 230.13 61.9917 233.368 55.3439C235.335 51.3516 236.941 46.6006 237.563 42.7054C239.888 40.5439 242.442 38.2853 245.287 35.8282C245.552 35.5988 245.583 35.1753 245.354 34.9106ZM232.256 54.8189C229.014 61.3697 224.069 64.8062 221.713 64.7753C221.025 64.7753 220.862 64.4135 220.831 64.3165C220.337 63.1696 221.484 59.8964 226.363 54.2984C229.407 50.7914 232.455 47.5844 235.988 44.2097C235.269 47.452 233.959 51.2855 232.256 54.8189Z" fill="#F0F0F0"/>
<path d="M253.275 34.8136C252.984 34.6195 252.622 34.7165 252.423 35.0121C250.231 38.5455 246.565 41.8849 245.449 41.4261C245.321 41.3644 244.271 40.7424 245.714 35.2062C245.78 34.8444 245.581 34.518 245.255 34.4209C244.893 34.3548 244.567 34.5533 244.47 34.8797C243.292 39.494 243.455 41.9511 244.929 42.5731C245.158 42.6701 245.387 42.7054 245.617 42.7054C248.069 42.7054 251.837 38.3161 253.504 35.6649C253.672 35.3694 253.57 34.9768 253.275 34.8136ZM245.551 32.1624C247.218 32.2594 247.187 30.164 245.842 30.6228C245.158 30.8169 244.271 32.0962 245.551 32.1624Z" fill="#F0F0F0"/>
<path d="M265.162 34.9459C264.867 34.7827 264.474 34.8797 264.311 35.2062C263.526 36.5472 261.461 40.1821 260.283 40.0542C260.054 40.0189 259.401 39.6925 258.744 37.3986C258.285 35.7973 257.663 34.2886 256.45 34.2224C255.568 34.1607 254.584 34.8444 253.08 37.6633C253.472 36.2561 253.9 34.8444 254.227 33.7019C254.354 33.274 254.456 32.9167 254.553 32.555C254.65 32.2285 254.456 31.8668 254.125 31.7697C253.799 31.6683 253.441 31.8668 253.34 32.2285C253.243 32.555 253.146 32.9476 253.013 33.3402C252.162 36.2561 250.887 40.6762 250.556 43.3583C250.525 43.6538 250.724 43.9494 251.015 44.0156C251.081 44.0465 251.117 44.0465 251.178 44.0465C251.443 44.0465 251.672 43.8832 251.769 43.6538C254.849 35.9914 256.093 35.4664 256.388 35.4664C256.45 35.4664 256.909 35.5988 257.531 37.7603C258.188 40.0189 259.039 41.1659 260.151 41.2982C261.823 41.4923 263.327 39.4322 265.392 35.8282C265.586 35.5017 265.458 35.14 265.162 34.9459Z" fill="#F0F0F0"/>
<path d="M274.755 34.9459C274.46 34.7474 274.067 34.8136 273.869 35.1091C271.416 38.5455 269.418 40.7071 267.455 42.1143C266.471 42.8025 265.522 42.9348 264.9 42.476C264.508 42.1805 263.295 40.8703 264.702 36.2869C267.878 33.6666 269.616 31.1786 269.157 29.8685C268.99 29.4759 268.597 29.2156 268.174 29.2156C266.864 29.2465 264.865 31.5051 263.555 35.7311C261.954 40.9365 263.264 42.8378 264.177 43.4906C264.636 43.8524 265.161 44.0156 265.752 44.0156C266.502 44.0156 267.353 43.72 268.174 43.1289C270.269 41.6246 272.334 39.3969 274.888 35.8282C275.082 35.5326 275.016 35.14 274.755 34.9459ZM267.913 30.5919C267.781 31.1125 267.225 32.1624 265.686 33.7328C266.537 31.8359 267.455 30.9184 267.913 30.5919Z" fill="#F0F0F0"/>
</g>
<path d="M1 1V0.75H0.75V1H1ZM285 1H285.25V0.75H285V1ZM1 1.25H285V0.75H1V1.25ZM284.75 1V79H285.25V1H284.75ZM1.25 79V1H0.75V79H1.25Z" fill="#F0F0F0"/>
<line x1="1" y1="78.75" x2="51" y2="78.75" stroke="#F0F0F0" stroke-width="0.5"/>
<line x1="235" y1="78.75" x2="285" y2="78.75" stroke="#F0F0F0" stroke-width="0.5"/>
<path d="M73.192 82V79.856L73.376 80.352L70.968 76.4H71.824L73.848 79.736H73.384L75.416 76.4H76.208L73.808 80.352L73.984 79.856V82H73.192ZM83.8055 82.064C83.3788 82.064 82.9815 81.992 82.6135 81.848C82.2508 81.704 81.9362 81.504 81.6695 81.248C81.4028 80.9867 81.1948 80.6827 81.0455 80.336C80.8962 79.9893 80.8215 79.6107 80.8215 79.2C80.8215 78.7893 80.8962 78.4107 81.0455 78.064C81.1948 77.7173 81.4028 77.416 81.6695 77.16C81.9362 76.8987 82.2508 76.696 82.6135 76.552C82.9762 76.408 83.3735 76.336 83.8055 76.336C84.2322 76.336 84.6242 76.408 84.9815 76.552C85.3442 76.6907 85.6588 76.8907 85.9255 77.152C86.1975 77.408 86.4055 77.7093 86.5495 78.056C86.6988 78.4027 86.7735 78.784 86.7735 79.2C86.7735 79.616 86.6988 79.9973 86.5495 80.344C86.4055 80.6907 86.1975 80.9947 85.9255 81.256C85.6588 81.512 85.3442 81.712 84.9815 81.856C84.6242 81.9947 84.2322 82.064 83.8055 82.064ZM83.8055 81.352C84.1148 81.352 84.4002 81.2987 84.6615 81.192C84.9282 81.0853 85.1575 80.936 85.3495 80.744C85.5468 80.5467 85.6988 80.3173 85.8055 80.056C85.9175 79.7947 85.9735 79.5093 85.9735 79.2C85.9735 78.8907 85.9175 78.6053 85.8055 78.344C85.6988 78.0827 85.5468 77.856 85.3495 77.664C85.1575 77.4667 84.9282 77.3147 84.6615 77.208C84.4002 77.1013 84.1148 77.048 83.8055 77.048C83.4908 77.048 83.2002 77.1013 82.9335 77.208C82.6722 77.3147 82.4428 77.4667 82.2455 77.664C82.0482 77.856 81.8935 78.0827 81.7815 78.344C81.6748 78.6053 81.6215 78.8907 81.6215 79.2C81.6215 79.5093 81.6748 79.7947 81.7815 80.056C81.8935 80.3173 82.0482 80.5467 82.2455 80.744C82.4428 80.936 82.6722 81.0853 82.9335 81.192C83.2002 81.2987 83.4908 81.352 83.8055 81.352ZM94.8163 82.064C94.0803 82.064 93.5016 81.8533 93.0803 81.432C92.6589 81.0107 92.4483 80.3947 92.4483 79.584V76.4H93.2483V79.552C93.2483 80.176 93.3843 80.632 93.6562 80.92C93.9336 81.208 94.3229 81.352 94.8243 81.352C95.3309 81.352 95.7203 81.208 95.9923 80.92C96.2696 80.632 96.4083 80.176 96.4083 79.552V76.4H97.1843V79.584C97.1843 80.3947 96.9736 81.0107 96.5523 81.432C96.1363 81.8533 95.5576 82.064 94.8163 82.064ZM103.324 82V76.4H105.508C105.999 76.4 106.418 76.4773 106.764 76.632C107.111 76.7867 107.378 77.0107 107.564 77.304C107.751 77.5973 107.844 77.9467 107.844 78.352C107.844 78.7573 107.751 79.1067 107.564 79.4C107.378 79.688 107.111 79.9093 106.764 80.064C106.418 80.2187 105.999 80.296 105.508 80.296H103.764L104.124 79.928V82H103.324ZM107.068 82L105.644 79.968H106.5L107.94 82H107.068ZM104.124 80.008L103.764 79.616H105.484C105.996 79.616 106.383 79.5067 106.644 79.288C106.911 79.064 107.044 78.752 107.044 78.352C107.044 77.952 106.911 77.6427 106.644 77.424C106.383 77.2053 105.996 77.096 105.484 77.096H103.764L104.124 76.696V80.008ZM120.989 80.648L120.949 79.672L124.125 76.4H125.037L122.581 78.992L122.133 79.488L120.989 80.648ZM120.285 82V76.4H121.085V82H120.285ZM124.253 82L121.957 79.328L122.493 78.736L125.189 82H124.253ZM129.886 80.136V79.472H132.038V80.136H129.886ZM137.832 82V76.4H140.016C140.507 76.4 140.926 76.4773 141.272 76.632C141.619 76.7867 141.886 77.0107 142.072 77.304C142.259 77.5973 142.352 77.9467 142.352 78.352C142.352 78.7573 142.259 79.1067 142.072 79.4C141.886 79.688 141.619 79.912 141.272 80.072C140.926 80.2267 140.507 80.304 140.016 80.304H138.272L138.632 79.928V82H137.832ZM138.632 80.008L138.272 79.608H139.992C140.504 79.608 140.891 79.4987 141.152 79.28C141.419 79.0613 141.552 78.752 141.552 78.352C141.552 77.952 141.419 77.6427 141.152 77.424C140.891 77.2053 140.504 77.096 139.992 77.096H138.272L138.632 76.696V80.008ZM150.634 82.064C150.207 82.064 149.81 81.992 149.442 81.848C149.079 81.704 148.764 81.504 148.498 81.248C148.231 80.9867 148.023 80.6827 147.874 80.336C147.724 79.9893 147.65 79.6107 147.65 79.2C147.65 78.7893 147.724 78.4107 147.874 78.064C148.023 77.7173 148.231 77.416 148.498 77.16C148.764 76.8987 149.079 76.696 149.442 76.552C149.804 76.408 150.202 76.336 150.634 76.336C151.06 76.336 151.452 76.408 151.81 76.552C152.172 76.6907 152.487 76.8907 152.754 77.152C153.026 77.408 153.234 77.7093 153.378 78.056C153.527 78.4027 153.602 78.784 153.602 79.2C153.602 79.616 153.527 79.9973 153.378 80.344C153.234 80.6907 153.026 80.9947 152.754 81.256C152.487 81.512 152.172 81.712 151.81 81.856C151.452 81.9947 151.06 82.064 150.634 82.064ZM150.634 81.352C150.943 81.352 151.228 81.2987 151.49 81.192C151.756 81.0853 151.986 80.936 152.178 80.744C152.375 80.5467 152.527 80.3173 152.634 80.056C152.746 79.7947 152.802 79.5093 152.802 79.2C152.802 78.8907 152.746 78.6053 152.634 78.344C152.527 78.0827 152.375 77.856 152.178 77.664C151.986 77.4667 151.756 77.3147 151.49 77.208C151.228 77.1013 150.943 77.048 150.634 77.048C150.319 77.048 150.028 77.1013 149.762 77.208C149.5 77.3147 149.271 77.4667 149.074 77.664C148.876 77.856 148.722 78.0827 148.61 78.344C148.503 78.6053 148.45 78.8907 148.45 79.2C148.45 79.5093 148.503 79.7947 148.61 80.056C148.722 80.3173 148.876 80.5467 149.074 80.744C149.271 80.936 149.5 81.0853 149.762 81.192C150.028 81.2987 150.319 81.352 150.634 81.352ZM159.324 82V76.4H161.508C161.999 76.4 162.418 76.4773 162.764 76.632C163.111 76.7867 163.378 77.0107 163.564 77.304C163.751 77.5973 163.844 77.9467 163.844 78.352C163.844 78.7573 163.751 79.1067 163.564 79.4C163.378 79.688 163.111 79.912 162.764 80.072C162.418 80.2267 161.999 80.304 161.508 80.304H159.764L160.124 79.928V82H159.324ZM160.124 80.008L159.764 79.608H161.484C161.996 79.608 162.383 79.4987 162.644 79.28C162.911 79.0613 163.044 78.752 163.044 78.352C163.044 77.952 162.911 77.6427 162.644 77.424C162.383 77.2053 161.996 77.096 161.484 77.096H159.764L160.124 76.696V80.008ZM176.246 82V76.4H176.902L180.606 81H180.262V76.4H181.062V82H180.406L176.702 77.4H177.046V82H176.246ZM187.966 78.816H190.846V79.496H187.966V78.816ZM188.038 81.304H191.302V82H187.238V76.4H191.19V77.096H188.038V81.304ZM198.308 82L196.436 76.4H197.26L198.98 81.568H198.564L200.348 76.4H201.084L202.828 81.568H202.428L204.172 76.4H204.932L203.06 82H202.22L200.588 77.208H200.804L199.164 82H198.308ZM212.042 82.064C211.616 82.064 211.208 82 210.818 81.872C210.429 81.7387 210.122 81.568 209.898 81.36L210.194 80.736C210.408 80.9227 210.68 81.0773 211.01 81.2C211.341 81.3227 211.685 81.384 212.042 81.384C212.368 81.384 212.632 81.3467 212.834 81.272C213.037 81.1973 213.186 81.096 213.282 80.968C213.378 80.8347 213.426 80.6853 213.426 80.52C213.426 80.328 213.362 80.1733 213.234 80.056C213.112 79.9387 212.949 79.8453 212.746 79.776C212.549 79.7013 212.33 79.6373 212.09 79.584C211.85 79.5307 211.608 79.4693 211.362 79.4C211.122 79.3253 210.901 79.232 210.698 79.12C210.501 79.008 210.341 78.8587 210.218 78.672C210.096 78.48 210.034 78.2347 210.034 77.936C210.034 77.648 210.109 77.384 210.258 77.144C210.413 76.8987 210.648 76.704 210.962 76.56C211.282 76.4107 211.688 76.336 212.178 76.336C212.504 76.336 212.826 76.3787 213.146 76.464C213.466 76.5493 213.744 76.672 213.978 76.832L213.714 77.472C213.474 77.312 213.221 77.1973 212.954 77.128C212.688 77.0533 212.429 77.016 212.178 77.016C211.864 77.016 211.605 77.056 211.402 77.136C211.2 77.216 211.05 77.3227 210.954 77.456C210.864 77.5893 210.818 77.7387 210.818 77.904C210.818 78.1013 210.88 78.2587 211.002 78.376C211.13 78.4933 211.293 78.5867 211.49 78.656C211.693 78.7253 211.914 78.7893 212.154 78.848C212.394 78.9013 212.634 78.9627 212.874 79.032C213.12 79.1013 213.341 79.192 213.538 79.304C213.741 79.416 213.904 79.5653 214.026 79.752C214.149 79.9387 214.21 80.1787 214.21 80.472C214.21 80.7547 214.133 81.0187 213.978 81.264C213.824 81.504 213.584 81.6987 213.258 81.848C212.938 81.992 212.533 82.064 212.042 82.064Z" fill="#F0F0F0"/>
<defs>
<linearGradient id="paint0_linear_48_4215" x1="8.14075" y1="39.9168" x2="138.141" y2="39.9168" gradientUnits="userSpaceOnUse">
<stop stop-color="#99B8E1"/>
<stop offset="1" stop-color="#D5ABF7"/>
</linearGradient>
<clipPath id="clip0_48_4215">
<rect width="264" height="58" fill="white" transform="translate(11 11)"/>
</clipPath>
</defs>
</svg>
