<?xml version="1.0" encoding="iso-8859-1"?>
<!-- Generator: Adobe Illustrator 19.0.0, SVG Export Plug-In . SVG Version: 6.00 Build 0)  -->
<svg version="1.1" id="Layer_1" xmlns="http://www.w3.org/2000/svg" xmlns:xlink="http://www.w3.org/1999/xlink" x="0px" y="0px"
	 viewBox="0 0 512 512" style="enable-background:new 0 0 512 512;" xml:space="preserve">
<g>
	<g>
		<path d="M221.867,264.533c-5.12,0-8.533,3.413-8.533,8.533v17.067c0,5.12,3.413,8.533,8.533,8.533c5.12,0,8.533-3.413,8.533-8.533
			v-17.067C230.4,267.947,226.987,264.533,221.867,264.533z"/>
	</g>
</g>
<g>
	<g>
		<path d="M221.867,315.733c-5.12,0-8.533,3.413-8.533,8.533v17.067c0,5.12,3.413,8.533,8.533,8.533c5.12,0,8.533-3.413,8.533-8.533
			v-17.067C230.4,319.147,226.987,315.733,221.867,315.733z"/>
	</g>
</g>
<g>
	<g>
		<path d="M221.867,366.933c-5.12,0-8.533,3.413-8.533,8.533v17.067c0,5.12,3.413,8.533,8.533,8.533c5.12,0,8.533-3.413,8.533-8.533
			v-17.067C230.4,370.347,226.987,366.933,221.867,366.933z"/>
	</g>
</g>
<g>
	<g>
		<path d="M221.867,418.133c-5.12,0-8.533,3.413-8.533,8.533v17.067c0,5.12,3.413,8.533,8.533,8.533c5.12,0,8.533-3.413,8.533-8.533
			v-17.067C230.4,421.547,226.987,418.133,221.867,418.133z"/>
	</g>
</g>
<g>
	<g>
		<path d="M256,315.733c-5.12,0-8.533,3.413-8.533,8.533v17.067c0,5.12,3.413,8.533,8.533,8.533s8.533-3.413,8.533-8.533v-17.067
			C264.533,319.147,261.12,315.733,256,315.733z"/>
	</g>
</g>
<g>
	<g>
		<path d="M256,264.533c-5.12,0-8.533,3.413-8.533,8.533v17.067c0,5.12,3.413,8.533,8.533,8.533s8.533-3.413,8.533-8.533v-17.067
			C264.533,267.947,261.12,264.533,256,264.533z"/>
	</g>
</g>
<g>
	<g>
		<path d="M256,418.133c-5.12,0-8.533,3.413-8.533,8.533v17.067c0,5.12,3.413,8.533,8.533,8.533s8.533-3.413,8.533-8.533v-17.067
			C264.533,421.547,261.12,418.133,256,418.133z"/>
	</g>
</g>
<g>
	<g>
		<path d="M256,366.933c-5.12,0-8.533,3.413-8.533,8.533v17.067c0,5.12,3.413,8.533,8.533,8.533s8.533-3.413,8.533-8.533v-17.067
			C264.533,370.347,261.12,366.933,256,366.933z"/>
	</g>
</g>
<g>
	<g>
		<path d="M290.133,366.933c-5.12,0-8.533,3.413-8.533,8.533v17.067c0,5.12,3.413,8.533,8.533,8.533c5.12,0,8.533-3.413,8.533-8.533
			v-17.067C298.667,370.347,295.253,366.933,290.133,366.933z"/>
	</g>
</g>
<g>
	<g>
		<path d="M290.133,315.733c-5.12,0-8.533,3.413-8.533,8.533v17.067c0,5.12,3.413,8.533,8.533,8.533c5.12,0,8.533-3.413,8.533-8.533
			v-17.067C298.667,319.147,295.253,315.733,290.133,315.733z"/>
	</g>
</g>
<g>
	<g>
		<path d="M290.133,418.133c-5.12,0-8.533,3.413-8.533,8.533v17.067c0,5.12,3.413,8.533,8.533,8.533c5.12,0,8.533-3.413,8.533-8.533
			v-17.067C298.667,421.547,295.253,418.133,290.133,418.133z"/>
	</g>
</g>
<g>
	<g>
		<path d="M290.133,264.533c-5.12,0-8.533,3.413-8.533,8.533v17.067c0,5.12,3.413,8.533,8.533,8.533c5.12,0,8.533-3.413,8.533-8.533
			v-17.067C298.667,267.947,295.253,264.533,290.133,264.533z"/>
	</g>
</g>
<g>
	<g>
		<path d="M460.8,59.733h-25.6v-25.6c0-5.12-3.413-8.533-8.533-8.533h-25.6V8.533c0-5.12-3.413-8.533-8.533-8.533
			S384,3.413,384,8.533V25.6h-25.6c-5.12,0-8.533,3.413-8.533,8.533v25.6h-25.6c-5.12,0-8.533,3.413-8.533,8.533V230.4h-17.067
			v-25.6c0-5.12-3.413-8.533-8.533-8.533h-25.6V179.2c0-5.12-3.413-8.533-8.533-8.533s-8.533,3.413-8.533,8.533v17.067h-25.6
			c-5.12,0-8.533,3.413-8.533,8.533v25.6h-17.067V68.267c0-5.12-3.413-8.533-8.533-8.533h-25.6v-25.6
			c0-5.12-3.413-8.533-8.533-8.533H128V8.533C128,3.413,124.587,0,119.467,0s-8.533,3.413-8.533,8.533V25.6h-25.6
			c-5.12,0-8.533,3.413-8.533,8.533v25.6H51.2c-5.12,0-8.533,3.413-8.533,8.533v435.2c0,5.12,3.413,8.533,8.533,8.533h136.533
			h136.533H460.8c5.12,0,8.533-3.413,8.533-8.533v-435.2C469.333,63.147,465.92,59.733,460.8,59.733z M93.867,469.333
			c0,5.12-3.413,8.533-8.533,8.533s-8.533-3.413-8.533-8.533V460.8c0-5.12,3.413-8.533,8.533-8.533s8.533,3.413,8.533,8.533V469.333
			z M93.867,426.667c0,5.12-3.413,8.533-8.533,8.533s-8.533-3.413-8.533-8.533V409.6c0-5.12,3.413-8.533,8.533-8.533
			s8.533,3.413,8.533,8.533V426.667z M93.867,375.467c0,5.12-3.413,8.533-8.533,8.533s-8.533-3.413-8.533-8.533V358.4
			c0-5.12,3.413-8.533,8.533-8.533s8.533,3.413,8.533,8.533V375.467z M93.867,324.267c0,5.12-3.413,8.533-8.533,8.533
			s-8.533-3.413-8.533-8.533V307.2c0-5.12,3.413-8.533,8.533-8.533s8.533,3.413,8.533,8.533V324.267z M93.867,273.067
			c0,5.12-3.413,8.533-8.533,8.533s-8.533-3.413-8.533-8.533V256c0-5.12,3.413-8.533,8.533-8.533s8.533,3.413,8.533,8.533V273.067z
			 M93.867,221.867c0,5.12-3.413,8.533-8.533,8.533s-8.533-3.413-8.533-8.533V204.8c0-5.12,3.413-8.533,8.533-8.533
			s8.533,3.413,8.533,8.533V221.867z M93.867,170.667c0,5.12-3.413,8.533-8.533,8.533s-8.533-3.413-8.533-8.533V153.6
			c0-5.12,3.413-8.533,8.533-8.533s8.533,3.413,8.533,8.533V170.667z M93.867,119.467c0,5.12-3.413,8.533-8.533,8.533
			s-8.533-3.413-8.533-8.533V102.4c0-5.12,3.413-8.533,8.533-8.533s8.533,3.413,8.533,8.533V119.467z M93.867,42.667h51.2v17.067
			h-51.2V42.667z M128,469.333c0,5.12-3.413,8.533-8.533,8.533s-8.533-3.413-8.533-8.533V460.8c0-5.12,3.413-8.533,8.533-8.533
			S128,455.68,128,460.8V469.333z M128,426.667c0,5.12-3.413,8.533-8.533,8.533s-8.533-3.413-8.533-8.533V409.6
			c0-5.12,3.413-8.533,8.533-8.533S128,404.48,128,409.6V426.667z M128,375.467c0,5.12-3.413,8.533-8.533,8.533
			s-8.533-3.413-8.533-8.533V358.4c0-5.12,3.413-8.533,8.533-8.533S128,353.28,128,358.4V375.467z M128,324.267
			c0,5.12-3.413,8.533-8.533,8.533s-8.533-3.413-8.533-8.533V307.2c0-5.12,3.413-8.533,8.533-8.533S128,302.08,128,307.2V324.267z
			 M128,273.067c0,5.12-3.413,8.533-8.533,8.533s-8.533-3.413-8.533-8.533V256c0-5.12,3.413-8.533,8.533-8.533S128,250.88,128,256
			V273.067z M128,221.867c0,5.12-3.413,8.533-8.533,8.533s-8.533-3.413-8.533-8.533V204.8c0-5.12,3.413-8.533,8.533-8.533
			S128,199.68,128,204.8V221.867z M128,170.667c0,5.12-3.413,8.533-8.533,8.533s-8.533-3.413-8.533-8.533V153.6
			c0-5.12,3.413-8.533,8.533-8.533S128,148.48,128,153.6V170.667z M128,119.467c0,5.12-3.413,8.533-8.533,8.533
			s-8.533-3.413-8.533-8.533V102.4c0-5.12,3.413-8.533,8.533-8.533S128,97.28,128,102.4V119.467z M162.133,469.333
			c0,5.12-3.413,8.533-8.533,8.533s-8.533-3.413-8.533-8.533V460.8c0-5.12,3.413-8.533,8.533-8.533s8.533,3.413,8.533,8.533V469.333
			z M162.133,426.667c0,5.12-3.413,8.533-8.533,8.533s-8.533-3.413-8.533-8.533V409.6c0-5.12,3.413-8.533,8.533-8.533
			s8.533,3.413,8.533,8.533V426.667z M162.133,375.467c0,5.12-3.413,8.533-8.533,8.533s-8.533-3.413-8.533-8.533V358.4
			c0-5.12,3.413-8.533,8.533-8.533s8.533,3.413,8.533,8.533V375.467z M162.133,324.267c0,5.12-3.413,8.533-8.533,8.533
			s-8.533-3.413-8.533-8.533V307.2c0-5.12,3.413-8.533,8.533-8.533s8.533,3.413,8.533,8.533V324.267z M162.133,273.067
			c0,5.12-3.413,8.533-8.533,8.533s-8.533-3.413-8.533-8.533V256c0-5.12,3.413-8.533,8.533-8.533s8.533,3.413,8.533,8.533V273.067z
			 M162.133,221.867c0,5.12-3.413,8.533-8.533,8.533s-8.533-3.413-8.533-8.533V204.8c0-5.12,3.413-8.533,8.533-8.533
			s8.533,3.413,8.533,8.533V221.867z M162.133,170.667c0,5.12-3.413,8.533-8.533,8.533s-8.533-3.413-8.533-8.533V153.6
			c0-5.12,3.413-8.533,8.533-8.533s8.533,3.413,8.533,8.533V170.667z M162.133,119.467c0,5.12-3.413,8.533-8.533,8.533
			s-8.533-3.413-8.533-8.533V102.4c0-5.12,3.413-8.533,8.533-8.533s8.533,3.413,8.533,8.533V119.467z M315.733,494.933H196.267
			V247.467h25.6h68.267h25.6V494.933z M366.933,469.333c0,5.12-3.413,8.533-8.533,8.533s-8.533-3.413-8.533-8.533V460.8
			c0-5.12,3.413-8.533,8.533-8.533s8.533,3.413,8.533,8.533V469.333z M366.933,426.667c0,5.12-3.413,8.533-8.533,8.533
			s-8.533-3.413-8.533-8.533V409.6c0-5.12,3.413-8.533,8.533-8.533s8.533,3.413,8.533,8.533V426.667z M366.933,375.467
			c0,5.12-3.413,8.533-8.533,8.533s-8.533-3.413-8.533-8.533V358.4c0-5.12,3.413-8.533,8.533-8.533s8.533,3.413,8.533,8.533V375.467
			z M366.933,324.267c0,5.12-3.413,8.533-8.533,8.533s-8.533-3.413-8.533-8.533V307.2c0-5.12,3.413-8.533,8.533-8.533
			s8.533,3.413,8.533,8.533V324.267z M366.933,273.067c0,5.12-3.413,8.533-8.533,8.533s-8.533-3.413-8.533-8.533V256
			c0-5.12,3.413-8.533,8.533-8.533s8.533,3.413,8.533,8.533V273.067z M366.933,221.867c0,5.12-3.413,8.533-8.533,8.533
			s-8.533-3.413-8.533-8.533V204.8c0-5.12,3.413-8.533,8.533-8.533s8.533,3.413,8.533,8.533V221.867z M366.933,170.667
			c0,5.12-3.413,8.533-8.533,8.533s-8.533-3.413-8.533-8.533V153.6c0-5.12,3.413-8.533,8.533-8.533s8.533,3.413,8.533,8.533V170.667
			z M366.933,119.467c0,5.12-3.413,8.533-8.533,8.533s-8.533-3.413-8.533-8.533V102.4c0-5.12,3.413-8.533,8.533-8.533
			s8.533,3.413,8.533,8.533V119.467z M366.933,42.667h51.2v17.067h-51.2V42.667z M401.067,469.333c0,5.12-3.413,8.533-8.533,8.533
			S384,474.453,384,469.333V460.8c0-5.12,3.413-8.533,8.533-8.533s8.533,3.413,8.533,8.533V469.333z M401.067,426.667
			c0,5.12-3.413,8.533-8.533,8.533S384,431.787,384,426.667V409.6c0-5.12,3.413-8.533,8.533-8.533s8.533,3.413,8.533,8.533V426.667z
			 M401.067,375.467c0,5.12-3.413,8.533-8.533,8.533S384,380.587,384,375.467V358.4c0-5.12,3.413-8.533,8.533-8.533
			s8.533,3.413,8.533,8.533V375.467z M401.067,324.267c0,5.12-3.413,8.533-8.533,8.533S384,329.387,384,324.267V307.2
			c0-5.12,3.413-8.533,8.533-8.533s8.533,3.413,8.533,8.533V324.267z M401.067,273.067c0,5.12-3.413,8.533-8.533,8.533
			S384,278.187,384,273.067V256c0-5.12,3.413-8.533,8.533-8.533s8.533,3.413,8.533,8.533V273.067z M401.067,221.867
			c0,5.12-3.413,8.533-8.533,8.533S384,226.987,384,221.867V204.8c0-5.12,3.413-8.533,8.533-8.533s8.533,3.413,8.533,8.533V221.867z
			 M401.067,170.667c0,5.12-3.413,8.533-8.533,8.533S384,175.787,384,170.667V153.6c0-5.12,3.413-8.533,8.533-8.533
			s8.533,3.413,8.533,8.533V170.667z M401.067,119.467c0,5.12-3.413,8.533-8.533,8.533S384,124.587,384,119.467V102.4
			c0-5.12,3.413-8.533,8.533-8.533s8.533,3.413,8.533,8.533V119.467z M435.2,469.333c0,5.12-3.413,8.533-8.533,8.533
			s-8.533-3.413-8.533-8.533V460.8c0-5.12,3.413-8.533,8.533-8.533s8.533,3.413,8.533,8.533V469.333z M435.2,426.667
			c0,5.12-3.413,8.533-8.533,8.533s-8.533-3.413-8.533-8.533V409.6c0-5.12,3.413-8.533,8.533-8.533s8.533,3.413,8.533,8.533V426.667
			z M435.2,375.467c0,5.12-3.413,8.533-8.533,8.533s-8.533-3.413-8.533-8.533V358.4c0-5.12,3.413-8.533,8.533-8.533
			s8.533,3.413,8.533,8.533V375.467z M435.2,324.267c0,5.12-3.413,8.533-8.533,8.533s-8.533-3.413-8.533-8.533V307.2
			c0-5.12,3.413-8.533,8.533-8.533s8.533,3.413,8.533,8.533V324.267z M435.2,273.067c0,5.12-3.413,8.533-8.533,8.533
			s-8.533-3.413-8.533-8.533V256c0-5.12,3.413-8.533,8.533-8.533S435.2,250.88,435.2,256V273.067z M435.2,221.867
			c0,5.12-3.413,8.533-8.533,8.533s-8.533-3.413-8.533-8.533V204.8c0-5.12,3.413-8.533,8.533-8.533s8.533,3.413,8.533,8.533V221.867
			z M435.2,170.667c0,5.12-3.413,8.533-8.533,8.533s-8.533-3.413-8.533-8.533V153.6c0-5.12,3.413-8.533,8.533-8.533
			s8.533,3.413,8.533,8.533V170.667z M435.2,119.467c0,5.12-3.413,8.533-8.533,8.533s-8.533-3.413-8.533-8.533V102.4
			c0-5.12,3.413-8.533,8.533-8.533s8.533,3.413,8.533,8.533V119.467z"/>
	</g>
</g>
<g>
</g>
<g>
</g>
<g>
</g>
<g>
</g>
<g>
</g>
<g>
</g>
<g>
</g>
<g>
</g>
<g>
</g>
<g>
</g>
<g>
</g>
<g>
</g>
<g>
</g>
<g>
</g>
<g>
</g>
</svg>
