<svg width="93" height="40" viewBox="0 0 93 40" fill="none" xmlns="http://www.w3.org/2000/svg">
<rect width="93" height="40" rx="4" fill="#22A73E"/>
<path d="M0 4C0 1.79086 1.79086 0 4 0H40V40H4C1.79086 40 0 38.2091 0 36V4Z" fill="white" fill-opacity="0.2"/>
<g clip-path="url(#clip0_116_8692)">
<path d="M25.8263 18.8823C22.6514 16.9969 17.4146 16.8235 14.3838 17.7434C13.8971 17.8911 13.3824 17.6163 13.235 17.1297C13.0875 16.6427 13.3619 16.1283 13.849 15.9804C17.3281 14.9243 23.1117 15.1283 26.7666 17.2979C27.2043 17.5578 27.3479 18.1232 27.0885 18.5602C26.8288 18.9979 26.263 19.1422 25.8263 18.8823ZM25.7223 21.6749C25.4995 22.0364 25.027 22.1498 24.666 21.9278C22.0191 20.3008 17.9831 19.8295 14.8517 20.78C14.4456 20.9027 14.0167 20.6738 13.8933 20.2685C13.771 19.8624 14 19.4343 14.4054 19.3108C17.9826 18.2253 22.4296 18.751 25.4697 20.6192C25.8306 20.8416 25.9442 21.3143 25.7223 21.6749ZM24.5171 24.3569C24.3401 24.6471 23.9622 24.7381 23.673 24.5611C21.3601 23.1476 18.449 22.8284 15.0206 23.6114C14.6902 23.6872 14.3609 23.4802 14.2856 23.1498C14.2099 22.8195 14.4162 22.4902 14.7473 22.4148C18.4991 21.5572 21.7174 21.9263 24.3134 23.5126C24.6029 23.6894 24.694 24.0675 24.5171 24.3569ZM20.0001 10.1508C14.5606 10.1508 10.1509 14.5604 10.1509 19.9999C10.1509 25.44 14.5606 29.8492 20.0001 29.8492C25.4398 29.8492 29.8493 25.44 29.8493 19.9999C29.8493 14.5604 25.4398 10.1508 20.0001 10.1508Z" fill="white"/>
</g>
<defs>
<clipPath id="clip0_116_8692">
<rect width="20" height="20" fill="white" transform="translate(10 10)"/>
</clipPath>
</defs>
</svg>
