<svg width="140" height="40" viewBox="0 0 140 40" fill="none" xmlns="http://www.w3.org/2000/svg">
<rect width="140" height="40" rx="4" fill="#22A73E"/>
<path d="M0 4C0 1.79086 1.79086 0 4 0H40V40H4C1.79086 40 0 38.2091 0 36V4Z" fill="white" fill-opacity="0.2"/>
<g clip-path="url(#clip0_120_9052)">
<path d="M25.8263 18.8822C22.6514 16.9968 17.4146 16.8234 14.3838 17.7433C13.8971 17.891 13.3824 17.6161 13.235 17.1296C13.0875 16.6425 13.3619 16.1282 13.849 15.9803C17.3281 14.9242 23.1117 15.1282 26.7666 17.2978C27.2043 17.5577 27.3479 18.123 27.0885 18.5601C26.8288 18.9978 26.263 19.1421 25.8263 18.8822ZM25.7223 21.6748C25.4995 22.0363 25.027 22.1496 24.666 21.9277C22.0191 20.3007 17.9831 19.8294 14.8517 20.7799C14.4456 20.9026 14.0167 20.6736 13.8933 20.2683C13.771 19.8623 14 19.4341 14.4054 19.3106C17.9826 18.2251 22.4296 18.7509 25.4697 20.6191C25.8306 20.8414 25.9442 21.3142 25.7223 21.6748ZM24.5171 24.3568C24.3401 24.647 23.9622 24.7379 23.673 24.561C21.3601 23.1475 18.449 22.8282 15.0206 23.6113C14.6902 23.6871 14.3609 23.48 14.2856 23.1497C14.2099 22.8194 14.4162 22.4901 14.7473 22.4147C18.4991 21.557 21.7174 21.9262 24.3134 23.5125C24.6029 23.6893 24.694 24.0674 24.5171 24.3568ZM20.0001 10.1507C14.5606 10.1507 10.1509 14.5603 10.1509 19.9998C10.1509 25.4398 14.5606 29.8491 20.0001 29.8491C25.4398 29.8491 29.8493 25.4398 29.8493 19.9998C29.8493 14.5603 25.4398 10.1507 20.0001 10.1507Z" fill="white"/>
</g>
<defs>
<clipPath id="clip0_120_9052">
<rect width="20" height="20" fill="white" transform="translate(10 10)"/>
</clipPath>
</defs>
</svg>
