<svg xmlns="http://www.w3.org/2000/svg" width="2151" height="371" viewBox="0 0 2151 371">
  <g id="Group_1" data-name="Group 1" transform="translate(-30 -30)">
    <text id="Cat_news_meows" data-name="Cat(news)meows" transform="translate(30 327)" font-size="256" font-family="KaiseiOpti-Bold, Kaisei Opti" font-weight="700" text-decoration="underline"><tspan x="0" y="0">Cat(news)meows</tspan></text>
    <path id="Path_1" data-name="Path 1" d="M68.263,1354.061s.712-40.853,10.314-43.98,38.34,22.943,38.34,22.943l-8.758,5.291s-12.252,1.971-15.615,3.624-16.093,10.073-16.093,10.073Z" transform="translate(-216.531 -1153.038) rotate(-9)"/>
    <path id="Path_2" data-name="Path 2" d="M68.263,1354.061s.712-40.853,10.314-43.98,35.349,20.019,35.349,20.019l-5.768,8.216s-13.493,4.087-16.856,5.74-14.851,7.957-14.851,7.957Z" transform="translate(1055.634 -864.275) rotate(45)"/>
    <path id="Path_3" data-name="Path 3" d="M1817.119,1569.789s27.756-1.07,34.115-14.923,21.539-37.843,6.834-59.021-44.594-39.807-49.606-58.59c-4.852-18.182,2.263-35.741,7.957-40.127-.161.109,5.605-2.722,8.3,2.669s-5.033,17.778-.475,32.109,38.928,45.4,45.251,53.9,13.016,15.96,12.392,35.545-4.2,31.327-16.119,46.563-43.711,19.314-43.711,19.314-10.992-4.205-3.253-11.766C1818.6,1575.656,1817.119,1569.789,1817.119,1569.789Z" transform="translate(-19 -1276.354)"/>
  </g>
</svg>
