<svg width="127" height="43" viewBox="0 0 127 43" fill="none" xmlns="http://www.w3.org/2000/svg">
<path d="M16.6065 12.2334C16.6065 12.1344 16.5755 12.0169 16.5137 11.8809C16.4518 11.7448 16.3714 11.6211 16.2725 11.5098C16.1859 11.3861 16.0931 11.2809 15.9942 11.1943C15.8952 11.1077 15.8086 11.0645 15.7344 11.0645C15.5365 11.0645 15.32 11.1325 15.085 11.2686C14.8623 11.4046 14.6706 11.5221 14.5098 11.6211L14.2871 11.25C14.5345 11.0273 14.8005 10.7985 15.085 10.5635C15.3819 10.3285 15.6725 10.1182 15.957 9.93262C16.2539 9.7347 16.5384 9.58008 16.8106 9.46875C17.0827 9.34505 17.3177 9.2832 17.5156 9.2832C17.9362 9.2832 18.3197 9.41927 18.666 9.69141C19.0124 9.96354 19.3031 10.2728 19.5381 10.6191C19.7855 10.9531 19.971 11.2809 20.0947 11.6025C20.2308 11.9242 20.2988 12.1344 20.2988 12.2334C20.2988 12.5179 20.2123 13.0436 20.0391 13.8105C19.8783 14.5651 19.6185 15.4805 19.2598 16.5566C18.9011 17.6204 18.4496 18.7956 17.9053 20.082C17.361 21.3561 16.7116 22.6549 15.957 23.9785C15.2149 25.3021 14.3613 26.6009 13.3965 27.875C12.444 29.1367 11.374 30.2871 10.1865 31.3262C8.99904 32.3652 7.69403 33.2435 6.2715 33.9609C4.84897 34.6784 3.30275 35.1484 1.63283 35.3711L1.22462 34.9629C1.3978 34.431 1.63901 33.7012 1.94826 32.7734C2.26987 31.8333 2.62241 30.7757 3.00587 29.6006C3.40171 28.4131 3.8161 27.1514 4.24904 25.8154C4.69435 24.4671 5.13348 23.125 5.56642 21.7891C5.99936 20.4408 6.41375 19.1419 6.80959 17.8926C7.21779 16.6432 7.57651 15.5176 7.88576 14.5156C8.195 13.5137 8.4424 12.6849 8.62794 12.0293C8.82586 11.3613 8.93719 10.9469 8.96193 10.7861C8.96193 10.6501 8.92482 10.5264 8.8506 10.415C8.39292 10.4521 7.94142 10.5078 7.49611 10.582C7.0508 10.6562 6.65496 10.7552 6.30861 10.8789C6.1478 10.9408 5.97462 11.0459 5.78908 11.1943C5.60353 11.3304 5.43035 11.5036 5.26955 11.7139C5.10874 11.9242 4.97267 12.1592 4.86134 12.4189C4.76239 12.6663 4.71291 12.9199 4.71291 13.1797C4.71291 13.3405 4.72528 13.5446 4.75002 13.792C4.77475 14.027 4.82423 14.2682 4.89845 14.5156L4.6758 14.7383C4.04494 14.2806 3.54396 13.8044 3.17287 13.3096C2.80177 12.8024 2.61623 12.3324 2.61623 11.8994C2.61623 11.652 2.69663 11.3799 2.85744 11.083C3.03061 10.7861 3.2409 10.514 3.4883 10.2666C3.73569 10.0068 4.00164 9.79036 4.28615 9.61719C4.57065 9.44401 4.82423 9.35742 5.04689 9.35742C5.81382 9.35742 6.65496 9.38835 7.57033 9.4502C8.48569 9.51204 9.45672 9.54297 10.4834 9.54297C10.7061 9.54297 10.904 9.54297 11.0772 9.54297C11.2503 9.54297 11.4111 9.54297 11.5596 9.54297C11.7204 9.5306 11.8812 9.52441 12.042 9.52441C12.2028 9.51204 12.3945 9.49349 12.6172 9.46875L12.7285 9.6543C12.5059 10.3223 12.2399 11.1201 11.9307 12.0479C11.6338 12.9632 11.3122 13.9528 10.9658 15.0166C10.6195 16.0804 10.2608 17.1999 9.88966 18.375C9.51857 19.5378 9.14748 20.7067 8.77638 21.8818C8.40529 23.0446 8.04038 24.1888 7.68166 25.3145C7.3353 26.4401 7.0075 27.4977 6.69826 28.4873C6.40138 29.4645 6.12925 30.349 5.88185 31.1406C5.63446 31.9323 5.43654 32.5755 5.2881 33.0703C6.48797 32.5137 7.59507 31.7344 8.60939 30.7324C9.63608 29.7305 10.57 28.6048 11.4111 27.3555C12.2523 26.0938 12.9945 24.764 13.6377 23.3662C14.2809 21.9561 14.819 20.5706 15.252 19.21C15.6973 17.8493 16.0313 16.5628 16.2539 15.3506C16.4889 14.1383 16.6065 13.0993 16.6065 12.2334ZM26.5035 14.1816C26.7633 14.1816 26.9983 14.293 27.2086 14.5156C27.4189 14.7259 27.524 15.029 27.524 15.4248C27.524 15.8083 27.4374 16.1794 27.2643 16.5381C27.1035 16.8844 26.8994 17.1937 26.652 17.4658C26.4046 17.738 26.1263 17.9544 25.817 18.1152C25.5201 18.276 25.2418 18.3564 24.982 18.3564C24.8707 18.3564 24.747 18.3441 24.611 18.3193C24.4873 18.2822 24.3697 18.2204 24.2584 18.1338C24.1471 18.0348 24.0543 17.9049 23.9801 17.7441C23.9059 17.5833 23.8688 17.3792 23.8688 17.1318C23.8688 16.7731 23.943 16.4206 24.0914 16.0742C24.2522 15.7155 24.4563 15.4001 24.7037 15.1279C24.9635 14.8434 25.248 14.6146 25.5572 14.4414C25.8665 14.2682 26.1819 14.1816 26.5035 14.1816ZM25.5944 20.8242C25.4583 21.0098 25.2913 21.3066 25.0934 21.7148C24.9078 22.123 24.7037 22.6117 24.4811 23.1807C24.2584 23.7373 24.0296 24.3434 23.7945 24.999C23.5595 25.6546 23.3245 26.3226 23.0895 27.0029C22.8668 27.6709 22.6565 28.3265 22.4586 28.9697C22.2607 29.6006 22.0813 30.182 21.9205 30.7139C21.7721 31.2334 21.6546 31.6787 21.568 32.0498C21.4814 32.4085 21.4381 32.6436 21.4381 32.7549C21.4381 32.9899 21.5309 33.1074 21.7164 33.1074C21.8649 33.0951 22.0751 33.027 22.3473 32.9033C22.6194 32.7796 22.9287 32.5941 23.275 32.3467C23.6337 32.0993 24.0234 31.7839 24.444 31.4004C24.8645 31.0169 25.2975 30.5592 25.7428 30.0273L26.151 30.3984C25.6067 31.0911 25.013 31.7344 24.3697 32.3281C23.7389 32.9095 23.108 33.4229 22.4772 33.8682C21.8587 34.3011 21.2711 34.6413 20.7145 34.8887C20.1578 35.1361 19.694 35.2598 19.3229 35.2598C19.2239 35.2598 19.1311 35.2227 19.0445 35.1484C18.958 35.0866 18.8837 35.0247 18.8219 34.9629C18.6116 34.7155 18.5003 34.499 18.4879 34.3135C18.4632 34.1279 18.4508 33.9362 18.4508 33.7383C18.4508 33.4538 18.5312 32.9775 18.692 32.3096C18.8404 31.6416 19.0322 30.887 19.2672 30.0459C19.5022 29.1924 19.7682 28.3018 20.0651 27.374C20.3496 26.4463 20.6279 25.5866 20.9 24.7949C21.1845 24.0033 21.4381 23.3291 21.6608 22.7725C21.8958 22.2158 22.0751 21.8818 22.1988 21.7705C22.4462 21.5479 22.7555 21.3685 23.1266 21.2324C23.4977 21.084 23.8626 20.9727 24.2213 20.8984C24.6295 20.8118 25.0624 20.75 25.5201 20.7129L25.5944 20.8242ZM35.3244 14.9053C35.0152 15.8206 34.6503 16.8659 34.2297 18.041C33.8091 19.2038 33.3762 20.4036 32.9309 21.6406C32.4979 22.8652 32.065 24.0837 31.632 25.2959C31.1991 26.5081 30.8156 27.6152 30.4817 28.6172C30.1477 29.6068 29.8755 30.4541 29.6652 31.1592C29.455 31.8643 29.3498 32.3219 29.3498 32.5322C29.3498 32.7549 29.4426 32.8662 29.6281 32.8662C29.7518 32.8538 29.9498 32.7858 30.2219 32.6621C30.494 32.526 30.8095 32.3281 31.1682 32.0684C31.5269 31.8086 31.9104 31.4932 32.3186 31.1221C32.7391 30.7386 33.1597 30.2933 33.5803 29.7861L33.9885 30.1758C33.4442 30.8314 32.8567 31.4684 32.2258 32.0869C31.6073 32.693 30.995 33.2311 30.3889 33.7012C29.7951 34.1712 29.2385 34.5485 28.719 34.833C28.1994 35.1175 27.7665 35.2598 27.4201 35.2598C27.247 35.2598 27.1047 35.1794 26.9934 35.0186C26.882 34.8701 26.7955 34.6846 26.7336 34.4619C26.6594 34.2269 26.6099 33.9795 26.5852 33.7197C26.5604 33.4476 26.5481 33.2002 26.5481 32.9775C26.5481 32.9281 26.5542 32.8538 26.5666 32.7549C26.5666 32.6436 26.5728 32.526 26.5852 32.4023C26.5975 32.2663 26.6161 32.1364 26.6408 32.0127C26.6532 31.8766 26.6718 31.7591 26.6965 31.6602C26.9315 30.8314 27.2098 29.9284 27.5315 28.9512C27.8407 27.974 28.1747 26.9658 28.5334 25.9268C28.8921 24.8877 29.2632 23.8363 29.6467 22.7725C30.0302 21.7087 30.4013 20.682 30.76 19.6924C31.1311 18.6904 31.4774 17.7503 31.799 16.8721C32.1207 15.9814 32.4052 15.196 32.6526 14.5156C32.8999 13.8229 33.0917 13.2601 33.2277 12.8271C33.3762 12.3818 33.4504 12.1097 33.4504 12.0107C33.4504 11.7386 33.3762 11.5531 33.2277 11.4541C33.0917 11.3428 32.9185 11.2933 32.7082 11.3057C32.4979 11.318 32.2691 11.3675 32.0217 11.4541C31.7743 11.5283 31.5455 11.6149 31.3352 11.7139L31.094 11.2129C32.368 10.5944 33.3886 10.1615 34.1555 9.91406C34.9348 9.66667 35.4729 9.54297 35.7697 9.54297C35.8563 9.54297 35.9553 9.58008 36.0666 9.6543C36.1903 9.71615 36.3016 9.80892 36.4006 9.93262C36.4996 10.0563 36.5861 10.1986 36.6604 10.3594C36.7346 10.5078 36.7717 10.6624 36.7717 10.8232C36.7717 10.9222 36.6294 11.3366 36.3449 12.0664C36.0604 12.7839 35.7203 13.7301 35.3244 14.9053ZM43.3104 14.9053C43.0011 15.8206 42.6362 16.8659 42.2156 18.041C41.7951 19.2038 41.3621 20.4036 40.9168 21.6406C40.4839 22.8652 40.0509 24.0837 39.618 25.2959C39.185 26.5081 38.8016 27.6152 38.4676 28.6172C38.1336 29.6068 37.8615 30.4541 37.6512 31.1592C37.4409 31.8643 37.3358 32.3219 37.3358 32.5322C37.3358 32.7549 37.4285 32.8662 37.6141 32.8662C37.7378 32.8538 37.9357 32.7858 38.2078 32.6621C38.48 32.526 38.7954 32.3281 39.1541 32.0684C39.5128 31.8086 39.8963 31.4932 40.3045 31.1221C40.7251 30.7386 41.1457 30.2933 41.5662 29.7861L41.9744 30.1758C41.4302 30.8314 40.8426 31.4684 40.2117 32.0869C39.5932 32.693 38.9809 33.2311 38.3748 33.7012C37.7811 34.1712 37.2244 34.5485 36.7049 34.833C36.1854 35.1175 35.7524 35.2598 35.4061 35.2598C35.2329 35.2598 35.0906 35.1794 34.9793 35.0186C34.868 34.8701 34.7814 34.6846 34.7195 34.4619C34.6453 34.2269 34.5958 33.9795 34.5711 33.7197C34.5464 33.4476 34.534 33.2002 34.534 32.9775C34.534 32.9281 34.5402 32.8538 34.5526 32.7549C34.5526 32.6436 34.5587 32.526 34.5711 32.4023C34.5835 32.2663 34.602 32.1364 34.6268 32.0127C34.6391 31.8766 34.6577 31.7591 34.6824 31.6602C34.9175 30.8314 35.1958 29.9284 35.5174 28.9512C35.8266 27.974 36.1606 26.9658 36.5194 25.9268C36.8781 24.8877 37.2492 23.8363 37.6326 22.7725C38.0161 21.7087 38.3872 20.682 38.7459 19.6924C39.117 18.6904 39.4634 17.7503 39.785 16.8721C40.1066 15.9814 40.3911 15.196 40.6385 14.5156C40.8859 13.8229 41.0776 13.2601 41.2137 12.8271C41.3621 12.3818 41.4363 12.1097 41.4363 12.0107C41.4363 11.7386 41.3621 11.5531 41.2137 11.4541C41.0776 11.3428 40.9044 11.2933 40.6942 11.3057C40.4839 11.318 40.255 11.3675 40.0076 11.4541C39.7602 11.5283 39.5314 11.6149 39.3211 11.7139L39.0799 11.2129C40.354 10.5944 41.3745 10.1615 42.1414 9.91406C42.9207 9.66667 43.4588 9.54297 43.7557 9.54297C43.8423 9.54297 43.9412 9.58008 44.0526 9.6543C44.1763 9.71615 44.2876 9.80892 44.3865 9.93262C44.4855 10.0563 44.5721 10.1986 44.6463 10.3594C44.7205 10.5078 44.7576 10.6624 44.7576 10.8232C44.7576 10.9222 44.6154 11.3366 44.3309 12.0664C44.0464 12.7839 43.7062 13.7301 43.3104 14.9053ZM54.7104 30.1016C54.1661 30.7572 53.5785 31.3942 52.9477 32.0127C52.3292 32.6188 51.7169 33.1569 51.1108 33.627C50.517 34.097 49.9604 34.4743 49.4408 34.7588C48.9213 35.0433 48.4884 35.1855 48.142 35.1855C48.0678 35.1855 47.975 35.1484 47.8637 35.0742C47.7524 35.0124 47.6781 34.9505 47.641 34.8887C47.505 34.6413 47.406 34.332 47.3442 33.9609C47.2947 33.5775 47.2699 33.2249 47.2699 32.9033C47.2699 32.8044 47.2823 32.6683 47.307 32.4951C47.3442 32.3096 47.3813 32.1178 47.4184 31.9199C47.0102 32.3529 46.5834 32.7734 46.1381 33.1816C45.7052 33.5775 45.2846 33.93 44.8764 34.2393C44.4805 34.5485 44.128 34.7959 43.8188 34.9814C43.4971 35.167 43.2621 35.2598 43.1137 35.2598C43.0147 35.2598 42.9343 35.2227 42.8725 35.1484C42.7983 35.0742 42.7364 34.9753 42.6869 34.8516C42.6251 34.7279 42.5818 34.598 42.557 34.4619C42.5199 34.3258 42.4952 34.1898 42.4828 34.0537C42.4457 33.6208 42.4643 33.1507 42.5385 32.6436C42.6003 32.124 42.6931 31.5983 42.8168 31.0664C42.9405 30.5345 43.0828 30.015 43.2436 29.5078C43.392 28.9883 43.5404 28.5182 43.6889 28.0977C43.8373 27.6647 43.9672 27.2998 44.0785 27.0029C44.1899 26.7061 44.2641 26.5081 44.3012 26.4092C44.3507 26.2607 44.4311 26.0876 44.5424 25.8896C44.6661 25.6794 44.8022 25.4753 44.9506 25.2773C45.099 25.0671 45.2475 24.8691 45.3959 24.6836C45.5567 24.4857 45.7113 24.3125 45.8598 24.1641C46.1319 23.9043 46.4845 23.626 46.9174 23.3291C47.3503 23.0322 47.8204 22.7415 48.3276 22.457C48.8471 22.1725 49.379 21.8942 49.9233 21.6221C50.4675 21.3499 50.9809 21.1149 51.4633 20.917C51.9581 20.7191 52.3972 20.5583 52.7807 20.4346C53.1641 20.3109 53.4548 20.249 53.6527 20.249C53.8259 20.249 53.9744 20.2552 54.0981 20.2676C54.2341 20.2799 54.3393 20.2985 54.4135 20.3232L54.4506 20.416C54.3145 20.5892 54.1475 20.8861 53.9496 21.3066C53.7517 21.7272 53.5352 22.2158 53.3002 22.7725C53.0652 23.3291 52.824 23.9414 52.5766 24.6094C52.3292 25.2773 52.0818 25.9515 51.8344 26.6318C51.5994 27.3122 51.3767 27.9801 51.1664 28.6357C50.9561 29.279 50.7644 29.8665 50.5912 30.3984C50.4304 30.9303 50.3005 31.3818 50.2016 31.7529C50.115 32.1117 50.0717 32.3467 50.0717 32.458C50.0717 32.6807 50.1645 32.792 50.35 32.792C50.4737 32.7796 50.6716 32.7116 50.9438 32.5879C51.2159 32.4518 51.5313 32.2539 51.8901 31.9941C52.2488 31.7344 52.6322 31.4189 53.0404 31.0479C53.461 30.6644 53.8816 30.2191 54.3022 29.7119L54.7104 30.1016ZM45.6 32.5693C45.699 32.5693 45.8289 32.5137 45.9897 32.4023C46.1505 32.291 46.3236 32.1488 46.5092 31.9756C46.6947 31.8024 46.8927 31.6045 47.1029 31.3818C47.3132 31.1468 47.5173 30.9118 47.7152 30.6768C47.8389 30.2438 47.975 29.7676 48.1235 29.248C48.2843 28.7285 48.4513 28.1966 48.6244 27.6523C48.7976 27.1081 48.977 26.5638 49.1625 26.0195C49.3481 25.4753 49.5274 24.9619 49.7006 24.4795C49.8861 23.9847 50.0593 23.5394 50.2201 23.1436C50.3809 22.7354 50.5232 22.3952 50.6469 22.123C50.449 22.1849 50.1892 22.2777 49.8676 22.4014C49.546 22.5127 49.1873 22.723 48.7914 23.0322C48.4574 23.292 48.142 23.6816 47.8451 24.2012C47.5483 24.7207 47.2761 25.3083 47.0287 25.9639C46.7813 26.6071 46.5525 27.2751 46.3422 27.9678C46.1443 28.6605 45.9711 29.3037 45.8227 29.8975C45.6866 30.4912 45.5815 30.9984 45.5072 31.4189C45.433 31.8395 45.3959 32.0931 45.3959 32.1797C45.3959 32.2786 45.4021 32.3714 45.4145 32.458C45.4392 32.5322 45.5011 32.5693 45.6 32.5693ZM81.8522 12.2334C81.8522 12.1344 81.8212 12.0169 81.7594 11.8809C81.6975 11.7448 81.6171 11.6211 81.5182 11.5098C81.4316 11.3861 81.3388 11.2809 81.2399 11.1943C81.1409 11.1077 81.0543 11.0645 80.9801 11.0645C80.7822 11.0645 80.5657 11.1325 80.3307 11.2686C80.108 11.4046 79.9163 11.5221 79.7555 11.6211L79.5328 11.25C79.7802 11.0273 80.0462 10.7985 80.3307 10.5635C80.6276 10.3285 80.9182 10.1182 81.2028 9.93262C81.4996 9.7347 81.7841 9.58008 82.0563 9.46875C82.3284 9.34505 82.5634 9.2832 82.7613 9.2832C83.1819 9.2832 83.5654 9.41927 83.9117 9.69141C84.2581 9.96354 84.5488 10.2728 84.7838 10.6191C85.0312 10.9531 85.2167 11.2809 85.3404 11.6025C85.4765 11.9242 85.5445 12.1344 85.5445 12.2334C85.5445 12.5179 85.458 13.0436 85.2848 13.8105C85.124 14.5651 84.8642 15.4805 84.5055 16.5566C84.1468 17.6204 83.6953 18.7956 83.151 20.082C82.6067 21.3561 81.9573 22.6549 81.2028 23.9785C80.4606 25.3021 79.607 26.6009 78.6422 27.875C77.6897 29.1367 76.6197 30.2871 75.4322 31.3262C74.2447 32.3652 72.9397 33.2435 71.5172 33.9609C70.0947 34.6784 68.5485 35.1484 66.8785 35.3711L66.4703 34.9629C66.6435 34.431 66.8847 33.7012 67.194 32.7734C67.5156 31.8333 67.8681 30.7757 68.2516 29.6006C68.6474 28.4131 69.0618 27.1514 69.4947 25.8154C69.9401 24.4671 70.3792 23.125 70.8121 21.7891C71.2451 20.4408 71.6595 19.1419 72.0553 17.8926C72.4635 16.6432 72.8222 15.5176 73.1315 14.5156C73.4407 13.5137 73.6881 12.6849 73.8736 12.0293C74.0716 11.3613 74.1829 10.9469 74.2076 10.7861C74.2076 10.6501 74.1705 10.5264 74.0963 10.415C73.6386 10.4521 73.1871 10.5078 72.7418 10.582C72.2965 10.6562 71.9007 10.7552 71.5543 10.8789C71.3935 10.9408 71.2203 11.0459 71.0348 11.1943C70.8492 11.3304 70.6761 11.5036 70.5153 11.7139C70.3544 11.9242 70.2184 12.1592 70.107 12.4189C70.0081 12.6663 69.9586 12.9199 69.9586 13.1797C69.9586 13.3405 69.971 13.5446 69.9957 13.792C70.0205 14.027 70.0699 14.2682 70.1442 14.5156L69.9215 14.7383C69.2906 14.2806 68.7897 13.8044 68.4186 13.3096C68.0475 12.8024 67.8619 12.3324 67.8619 11.8994C67.8619 11.652 67.9423 11.3799 68.1031 11.083C68.2763 10.7861 68.4866 10.514 68.734 10.2666C68.9814 10.0068 69.2473 9.79036 69.5319 9.61719C69.8164 9.44401 70.0699 9.35742 70.2926 9.35742C71.0595 9.35742 71.9007 9.38835 72.816 9.4502C73.7314 9.51204 74.7024 9.54297 75.7291 9.54297C75.9518 9.54297 76.1497 9.54297 76.3229 9.54297C76.496 9.54297 76.6569 9.54297 76.8053 9.54297C76.9661 9.5306 77.1269 9.52441 77.2877 9.52441C77.4485 9.51204 77.6403 9.49349 77.8629 9.46875L77.9742 9.6543C77.7516 10.3223 77.4856 11.1201 77.1764 12.0479C76.8795 12.9632 76.5579 13.9528 76.2115 15.0166C75.8652 16.0804 75.5065 17.1999 75.1354 18.375C74.7643 19.5378 74.3932 20.7067 74.0221 21.8818C73.651 23.0446 73.2861 24.1888 72.9274 25.3145C72.581 26.4401 72.2532 27.4977 71.944 28.4873C71.6471 29.4645 71.375 30.349 71.1276 31.1406C70.8802 31.9323 70.6822 32.5755 70.5338 33.0703C71.7337 32.5137 72.8408 31.7344 73.8551 30.7324C74.8818 29.7305 75.8157 28.6048 76.6569 27.3555C77.498 26.0938 78.2402 24.764 78.8834 23.3662C79.5266 21.9561 80.0647 20.5706 80.4977 19.21C80.943 17.8493 81.277 16.5628 81.4996 15.3506C81.7347 14.1383 81.8522 13.0993 81.8522 12.2334ZM91.7492 14.1816C92.009 14.1816 92.244 14.293 92.4543 14.5156C92.6646 14.7259 92.7697 15.029 92.7697 15.4248C92.7697 15.8083 92.6832 16.1794 92.51 16.5381C92.3492 16.8844 92.1451 17.1937 91.8977 17.4658C91.6503 17.738 91.372 17.9544 91.0627 18.1152C90.7658 18.276 90.4875 18.3564 90.2278 18.3564C90.1164 18.3564 89.9927 18.3441 89.8567 18.3193C89.733 18.2822 89.6154 18.2204 89.5041 18.1338C89.3928 18.0348 89.3 17.9049 89.2258 17.7441C89.1516 17.5833 89.1145 17.3792 89.1145 17.1318C89.1145 16.7731 89.1887 16.4206 89.3371 16.0742C89.4979 15.7155 89.702 15.4001 89.9494 15.1279C90.2092 14.8434 90.4937 14.6146 90.8029 14.4414C91.1122 14.2682 91.4276 14.1816 91.7492 14.1816ZM90.8401 20.8242C90.704 21.0098 90.537 21.3066 90.3391 21.7148C90.1535 22.123 89.9494 22.6117 89.7268 23.1807C89.5041 23.7373 89.2753 24.3434 89.0403 24.999C88.8052 25.6546 88.5702 26.3226 88.3352 27.0029C88.1125 27.6709 87.9022 28.3265 87.7043 28.9697C87.5064 29.6006 87.327 30.182 87.1662 30.7139C87.0178 31.2334 86.9003 31.6787 86.8137 32.0498C86.7271 32.4085 86.6838 32.6436 86.6838 32.7549C86.6838 32.9899 86.7766 33.1074 86.9621 33.1074C87.1106 33.0951 87.3209 33.027 87.593 32.9033C87.8651 32.7796 88.1744 32.5941 88.5207 32.3467C88.8794 32.0993 89.2691 31.7839 89.6897 31.4004C90.1102 31.0169 90.5432 30.5592 90.9885 30.0273L91.3967 30.3984C90.8524 31.0911 90.2587 31.7344 89.6154 32.3281C88.9846 32.9095 88.3537 33.4229 87.7229 33.8682C87.1044 34.3011 86.5168 34.6413 85.9602 34.8887C85.4035 35.1361 84.9397 35.2598 84.5686 35.2598C84.4696 35.2598 84.3768 35.2227 84.2903 35.1484C84.2037 35.0866 84.1294 35.0247 84.0676 34.9629C83.8573 34.7155 83.746 34.499 83.7336 34.3135C83.7089 34.1279 83.6965 33.9362 83.6965 33.7383C83.6965 33.4538 83.7769 32.9775 83.9377 32.3096C84.0862 31.6416 84.2779 30.887 84.5129 30.0459C84.7479 29.1924 85.0139 28.3018 85.3108 27.374C85.5953 26.4463 85.8736 25.5866 86.1457 24.7949C86.4302 24.0033 86.6838 23.3291 86.9065 22.7725C87.1415 22.2158 87.3209 21.8818 87.4445 21.7705C87.6919 21.5479 88.0012 21.3685 88.3723 21.2324C88.7434 21.084 89.1083 20.9727 89.467 20.8984C89.8752 20.8118 90.3082 20.75 90.7658 20.7129L90.8401 20.8242ZM94.5955 35.2598C94.1997 35.2598 93.8348 35.167 93.5008 34.9814C93.1668 34.7959 92.8823 34.5609 92.6473 34.2764C92.4123 33.9919 92.2329 33.6826 92.1092 33.3486C91.9731 33.0023 91.9051 32.6683 91.9051 32.3467C91.9051 32.0869 91.9979 31.6107 92.1834 30.918C92.369 30.2253 92.6102 29.3965 92.907 28.4316C93.2039 27.4668 93.5441 26.4092 93.9276 25.2588C94.311 24.1084 94.7007 22.9456 95.0965 21.7705C95.4923 20.5954 95.882 19.4512 96.2654 18.3379C96.6489 17.2246 96.9891 16.2227 97.2859 15.332C97.5828 14.429 97.824 13.6807 98.0096 13.0869C98.1951 12.4932 98.2879 12.1344 98.2879 12.0107C98.2879 11.7386 98.2137 11.5531 98.0652 11.4541C97.9292 11.3428 97.7498 11.2933 97.5272 11.3057C97.3169 11.318 97.088 11.3675 96.8406 11.4541C96.5932 11.5283 96.3644 11.6149 96.1541 11.7139L95.9315 11.2129C97.1932 10.5944 98.2199 10.1615 99.0115 9.91406C99.8156 9.66667 100.372 9.54297 100.681 9.54297C100.768 9.54297 100.867 9.58008 100.978 9.6543C101.09 9.71615 101.195 9.80892 101.294 9.93262C101.393 10.0563 101.479 10.1986 101.554 10.3594C101.628 10.5078 101.665 10.6624 101.665 10.8232C101.665 10.9222 101.523 11.3366 101.238 12.0664C100.954 12.7839 100.613 13.7301 100.218 14.9053L97.1004 23.8301C97.4468 23.3477 97.7869 22.9023 98.1209 22.4941C98.4549 22.0736 98.7703 21.7087 99.0672 21.3994C99.3641 21.0778 99.6486 20.8304 99.9207 20.6572C100.193 20.4717 100.446 20.3789 100.681 20.3789C100.842 20.3789 101.034 20.4469 101.257 20.583C101.479 20.7067 101.69 20.8737 101.888 21.084C102.085 21.2819 102.252 21.5046 102.388 21.752C102.537 21.9993 102.611 22.2467 102.611 22.4941C102.611 22.9395 102.562 23.4157 102.463 23.9229C102.376 24.4176 102.259 24.9248 102.11 25.4443C101.962 25.9515 101.801 26.4463 101.628 26.9287C101.455 27.4111 101.288 27.8503 101.127 28.2461C100.966 28.6296 100.824 28.9635 100.7 29.248C100.576 29.5202 100.496 29.6995 100.459 29.7861C100.1 30.6025 99.6609 31.3447 99.1414 32.0127C98.6343 32.6807 98.1024 33.2559 97.5457 33.7383C97.0014 34.2207 96.4634 34.598 95.9315 34.8701C95.4119 35.1299 94.9666 35.2598 94.5955 35.2598ZM99.494 22.3086C99.3703 22.3086 99.2033 22.4199 98.993 22.6426C98.7951 22.8529 98.56 23.125 98.2879 23.459C98.0158 23.793 97.7189 24.1702 97.3973 24.5908C97.088 25.0114 96.7664 25.4258 96.4324 25.834C96.185 26.6009 95.9129 27.4421 95.616 28.3574C95.3192 29.2728 94.979 30.3613 94.5955 31.623C94.3729 32.3652 94.2801 32.9899 94.3172 33.4971C94.3667 33.9919 94.5646 34.2393 94.9109 34.2393C95.146 34.2393 95.3934 34.1032 95.6531 33.8311C95.9129 33.5589 96.1789 33.2002 96.451 32.7549C96.7231 32.2972 96.9891 31.7777 97.2488 31.1963C97.521 30.6025 97.7746 29.984 98.0096 29.3408C98.257 28.6976 98.4858 28.0544 98.6961 27.4111C98.9064 26.7555 99.0858 26.1494 99.2342 25.5928C99.395 25.0238 99.5187 24.5166 99.6053 24.0713C99.6919 23.626 99.7352 23.292 99.7352 23.0693C99.7352 23.0199 99.729 22.958 99.7166 22.8838C99.7166 22.7972 99.7042 22.7106 99.6795 22.624C99.6671 22.5374 99.6424 22.4632 99.6053 22.4014C99.5805 22.3395 99.5434 22.3086 99.494 22.3086ZM106.292 35.2598C106.02 35.2598 105.748 35.1732 105.476 35C105.204 34.8145 104.956 34.5856 104.734 34.3135C104.511 34.029 104.332 33.7197 104.196 33.3857C104.047 33.0518 103.973 32.7301 103.973 32.4209C103.973 32.0498 104.023 31.6292 104.121 31.1592C104.208 30.6891 104.326 30.2005 104.474 29.6934C104.61 29.1862 104.765 28.6852 104.938 28.1904C105.111 27.6956 105.278 27.2441 105.439 26.8359C105.587 26.4154 105.723 26.0566 105.847 25.7598C105.958 25.4629 106.039 25.265 106.088 25.166C106.336 24.5723 106.719 23.9971 107.239 23.4404C107.771 22.8838 108.346 22.389 108.964 21.9561C109.595 21.5231 110.226 21.1768 110.857 20.917C111.5 20.6572 112.063 20.5273 112.545 20.5273C112.941 20.5273 113.263 20.7438 113.51 21.1768C113.758 21.6097 113.881 22.154 113.881 22.8096C113.881 23.1436 113.801 23.4714 113.64 23.793C113.492 24.1146 113.294 24.4176 113.046 24.7021C112.811 24.9867 112.552 25.2526 112.267 25.5C111.995 25.7474 111.735 25.9639 111.488 26.1494L107.61 29.1182C107.387 29.9593 107.202 30.7077 107.053 31.3633C106.917 32.0065 106.849 32.4456 106.849 32.6807C106.849 33.0394 106.899 33.3115 106.997 33.4971C107.096 33.6826 107.301 33.7754 107.61 33.7754C108.265 33.7754 108.946 33.4538 109.651 32.8105C110.356 32.1549 111.042 31.1097 111.71 29.6748L112.248 30.0273C111.914 30.8066 111.525 31.5179 111.08 32.1611C110.647 32.8044 110.177 33.3548 109.669 33.8125C109.162 34.2702 108.618 34.6289 108.037 34.8887C107.468 35.1361 106.886 35.2598 106.292 35.2598ZM111.191 21.585C110.943 21.585 110.677 21.7767 110.393 22.1602C110.108 22.5436 109.824 23.0446 109.539 23.6631C109.255 24.2692 108.977 24.9619 108.705 25.7412C108.432 26.5081 108.185 27.2751 107.962 28.042L111.117 25.5371C111.265 25.0052 111.401 24.4857 111.525 23.9785C111.649 23.459 111.71 23.0693 111.71 22.8096C111.71 22.6735 111.698 22.5374 111.673 22.4014C111.661 22.2529 111.636 22.1169 111.599 21.9932C111.562 21.8695 111.506 21.7705 111.432 21.6963C111.37 21.6221 111.29 21.585 111.191 21.585ZM121.886 20.416C122.146 20.416 122.368 20.5088 122.554 20.6943C122.739 20.8675 122.888 21.0964 122.999 21.3809C123.11 21.6654 123.172 21.9932 123.185 22.3643C123.209 22.7354 123.178 23.1064 123.092 23.4775C122.993 23.9229 122.795 24.2878 122.498 24.5723C122.214 24.8444 121.91 25.0609 121.589 25.2217C121.218 25.4072 120.81 25.5495 120.364 25.6484C120.624 25.1536 120.785 24.7331 120.847 24.3867C120.921 24.0404 120.958 23.7126 120.958 23.4033C120.958 23.2796 120.946 23.1559 120.921 23.0322C120.909 22.8962 120.878 22.7725 120.828 22.6611C120.791 22.5498 120.735 22.457 120.661 22.3828C120.587 22.3086 120.5 22.2715 120.401 22.2715C120.29 22.2715 120.154 22.3148 119.993 22.4014C119.845 22.4756 119.696 22.5869 119.548 22.7354C119.412 22.8838 119.294 23.0632 119.195 23.2734C119.109 23.4714 119.065 23.694 119.065 23.9414C119.065 24.0404 119.115 24.2383 119.214 24.5352C119.313 24.832 119.43 25.1969 119.566 25.6299C119.715 26.0505 119.869 26.5143 120.03 27.0215C120.203 27.5286 120.358 28.0358 120.494 28.543C120.643 29.0501 120.766 29.5387 120.865 30.0088C120.964 30.4788 121.014 30.887 121.014 31.2334C121.014 31.5798 120.902 31.9261 120.68 32.2725C120.457 32.6064 120.179 32.9281 119.845 33.2373C119.511 33.5465 119.14 33.8372 118.731 34.1094C118.336 34.3691 117.952 34.598 117.581 34.7959C117.222 34.9938 116.907 35.1484 116.635 35.2598C116.375 35.3711 116.208 35.4268 116.134 35.4268C116.022 35.4268 115.874 35.4082 115.688 35.3711C115.503 35.3464 115.348 35.2969 115.225 35.2227C115.089 35.1484 114.946 35.0186 114.798 34.833C114.649 34.6475 114.507 34.431 114.371 34.1836C114.223 33.9362 114.093 33.6702 113.981 33.3857C113.858 33.1012 113.765 32.8291 113.703 32.5693L115.985 30.5098C116.084 31.1035 116.214 31.6292 116.375 32.0869C116.449 32.2848 116.53 32.4827 116.616 32.6807C116.703 32.8662 116.802 33.0332 116.913 33.1816C117.024 33.3301 117.148 33.4476 117.284 33.5342C117.42 33.6208 117.569 33.6641 117.73 33.6641C117.977 33.6641 118.162 33.5589 118.286 33.3486C118.422 33.126 118.49 32.8538 118.49 32.5322C118.49 32.4333 118.441 32.2106 118.342 31.8643C118.255 31.5055 118.138 31.0911 117.989 30.6211C117.841 30.151 117.686 29.6501 117.525 29.1182C117.365 28.5739 117.21 28.0729 117.062 27.6152C116.913 27.1452 116.789 26.7432 116.69 26.4092C116.604 26.0752 116.561 25.8711 116.561 25.7969C116.561 25.5866 116.598 25.3206 116.672 24.999C116.758 24.6774 116.888 24.3991 117.062 24.1641C117.123 24.0775 117.266 23.9229 117.488 23.7002C117.711 23.4775 117.971 23.2301 118.268 22.958C118.577 22.6735 118.905 22.3828 119.251 22.0859C119.597 21.7891 119.938 21.5169 120.271 21.2695C120.618 21.0221 120.927 20.818 121.199 20.6572C121.484 20.4964 121.713 20.416 121.886 20.416Z" fill="white"/>
</svg>
