<?xml version="1.0" encoding="UTF-8" standalone="no"?>
<!DOCTYPE svg PUBLIC "-//W3C//DTD SVG 1.1//EN" "http://www.w3.org/Graphics/SVG/1.1/DTD/svg11.dtd">
<svg width="100%" height="100%" viewBox="0 0 447 447" version="1.1" xmlns="http://www.w3.org/2000/svg" xmlns:xlink="http://www.w3.org/1999/xlink" xml:space="preserve" xmlns:serif="http://www.serif.com/" style="fill-rule:evenodd;clip-rule:evenodd;stroke-linecap:round;stroke-linejoin:round;stroke-miterlimit:1.5;">
    <g transform="matrix(1,0,0,1,-750.258,-1443.77)">
        <g>
            <circle cx="973.921" cy="1666.89" r="222.615" style="fill:white;stroke:black;stroke-width:1px;"/>
            <g transform="matrix(0.945115,0,0,1.39074,-134.269,223.483)">
                <path d="M1408.52,1049.83C1408.52,955.368 1302.72,878.792 1172.21,878.792C1041.69,878.792 935.894,955.368 935.894,1049.83L1408.52,1049.83Z"/>
            </g>
            <g transform="matrix(1.60421,0,0,1.60421,-510.257,-348.043)">
                <g transform="matrix(50,0,0,50,1008.71,1258.35)">
                </g>
                <text x="844.744px" y="1258.35px" style="font-family:'ArialMT', 'Arial', sans-serif;font-size:50px;fill:white;">BLACK</text>
            </g>
            <g transform="matrix(-1.60421,1.9646e-16,-1.9646e-16,-1.60421,2460.6,3709.34)">
                <g transform="matrix(50,0,0,50,1005.83,1258.35)">
                </g>
                <text x="844.744px" y="1258.35px" style="font-family:'ArialMT', 'Arial', sans-serif;font-size:50px;">WHITE</text>
            </g>
        </g>
    </g>
</svg>
