<?xml version="1.0" encoding="utf-8"?>
<!-- Generator: Adobe Illustrator 24.2.3, SVG Export Plug-In . SVG Version: 6.00 Build 0)  -->
<svg version="1.1" id="Lager_1" xmlns="http://www.w3.org/2000/svg" xmlns:xlink="http://www.w3.org/1999/xlink" x="0px" y="0px"
	 viewBox="0 0 304 302.77" style="enable-background:new 0 0 304 302.77;" xml:space="preserve">
<style type="text/css">
	.st0{fill:#FFFFFF;}
	.st1{fill:#4D0E10;}
	.st2{fill:#4D0E10;stroke:#4D0E10;stroke-width:2;stroke-miterlimit:10;}
</style>
<g>
	<g>
		
			<ellipse transform="matrix(0.7071 -0.7071 0.7071 0.7071 -62.5253 151.8198)" class="st0" cx="152" cy="151.38" rx="151.62" ry="151.62"/>
	</g>
	<g>
		<g>
			<path class="st1" d="M116.73,229.28c-9.28-3.71-25.99-16.71-27.84-18.56c-3.71-7.42-2.51-7.78,0.04-15.78
				c0.14-0.43,0.26-0.95,0.13-1.35c-1.23-3.99-1.76-8.05-1.12-12.19c0.42-2.75-0.19-5.35-0.71-7.99
				c-2.14-10.91-2.54-21.91-1.51-32.95c0.37-4,1.29-7.96,1.96-11.93c0.01-0.04,0.01-0.07,0.02-0.11c1.51-4.61,2.33-5.59,8.14-4.61
				c2.68,0.46,4.9,1.98,6.96,3.72c2.89,2.44,5.26,5.34,7.41,8.43c2.15,3.07,4.19,6.22,6.29,9.33c3.86,5.72,8.49,10.71,13.89,15.01
				c1.8,1.43,3.61,1.73,5.79,1.35c3.87-0.66,7.76-1.31,11.66-1.65c5.24-0.45,10.25,1,15.22,2.46c0.84,0.25,1.68,0.46,2.52,0.7
				c3.55,1.04,7,0.69,10.3-0.91c5.5-2.67,10.31-6.24,14.39-10.82c4.17-4.68,8.34-9.35,12.68-13.87c2.08-2.16,4.51-4.02,6.89-5.87
				c1.1-0.86,2.42-1.5,3.73-2.01c3.68-1.45,6.56-0.39,8.53,3.03c1.76,3.06,2.86,6.36,3.51,9.82c1.59,8.35,0.91,16.64-1.03,24.81
				c-1.12,4.73-2.78,9.33-4.18,13.99c-0.11,0.38-0.24,0.78-0.22,1.16c0.18,3.85-0.6,7.53-1.9,11.12c-0.32,0.89-0.62,1.79-0.89,2.69
				c-0.33,1.1-0.21,2.13,0.13,3.28c2.39,8.08,1.62,0.89-0.57,9.27c-11.14,11.14-29.7,20.42-27.84,20.42
				C148.28,242.27,139,236.7,116.73,229.28z M174.89,208.93c0.4,0,0.8,0.03,1.2,0c3.28-0.25,6.33-1.08,8.66-3.57
				c1.71-1.83,2.36-3.94,1.54-6.43c-0.7-2.11-1.73-4.01-3.29-5.59c-3.35-3.41-7.51-4.89-12.21-4.96c-3.52-0.05-6.23,1.51-8.17,4.42
				c-1.38,2.07-1.96,4.41-2.45,6.82c-0.54,2.68,0.5,4.55,2.59,5.98c0.92,0.63,1.93,1.18,2.96,1.62
				C168.65,208.45,171.74,208.87,174.89,208.93z M120.13,205.17c0.78-0.09,2.16-0.16,3.52-0.4c4.6-0.81,6.65-2.65,7.22-6.61
				c0.57-4.03-0.12-7.72-3.53-10.43c-2.28-1.81-4.97-2.51-7.82-2.72c-6.32-0.45-12.89,5.29-13.24,11.6
				c-0.18,3.19,1.67,5.14,4.27,6.53C113.36,204.63,116.4,205.08,120.13,205.17z M136.22,206.66c-2.41,0.16-4.02,1.17-4.98,3.07
				c-1.03,2.04-0.2,3.73,1.93,4.56c0.67,0.26,1.28,0.95,1.64,1.6c0.45,0.81,0.6,1.78,0.91,2.67c0.65,1.9,2.74,3.57,4.44,3.54
				c1.92-0.03,3.46-1.35,4.17-3.58c0.01-0.03,0.02-0.07,0.03-0.11c0.37-2.2,1.66-3.3,3.89-3.58c1.94-0.25,2.78-1.84,2-3.64
				c-1.43-3.3-3.55-4.31-6.54-3.58c-1.11,0.27-2.36,0.19-3.51,0.02C138.76,207.42,137.38,206.96,136.22,206.66z"/>
		</g>
		<g>
			<path class="st0" d="M174.89,208.93c-3.15-0.06-6.24-0.49-9.17-1.73c-1.03-0.44-2.04-0.98-2.96-1.62
				c-2.09-1.43-3.13-3.29-2.59-5.98c0.49-2.42,1.07-4.76,2.45-6.82c1.94-2.91,4.65-4.47,8.17-4.42c4.7,0.07,8.86,1.55,12.21,4.96
				c1.56,1.59,2.59,3.48,3.29,5.59c0.82,2.49,0.17,4.6-1.54,6.43c-2.33,2.5-5.39,3.33-8.66,3.57
				C175.7,208.96,175.29,208.93,174.89,208.93z M181.97,201.16c-0.02,0-0.05,0-0.07,0c0-0.33,0.04-0.66-0.01-0.98
				c-0.4-2.93-1.52-5.42-4.49-6.58c-2.78-1.08-5.51-0.2-6.62,2.04c-1.8,3.62-0.05,8.94,3.54,10.8c3.61,1.86,6.63,0.43,7.45-3.55
				C181.89,202.32,181.91,201.74,181.97,201.16z"/>
		</g>
		<g>
			<path class="st0" d="M120.13,205.17c-3.73-0.09-6.78-0.54-9.57-2.03c-2.6-1.39-4.45-3.34-4.27-6.53
				c0.35-6.31,6.92-12.05,13.24-11.6c2.85,0.2,5.54,0.9,7.82,2.72c3.4,2.71,4.1,6.4,3.53,10.43c-0.56,3.97-2.62,5.8-7.22,6.61
				C122.3,205,120.91,205.08,120.13,205.17z M128,196.6c-0.11-0.03-0.21-0.07-0.32-0.1c0-0.29,0.03-0.59-0.01-0.87
				c-0.3-2.28-1.24-4.1-3.57-4.89c-2.2-0.75-4.45-0.18-5.88,1.46c-2.11,2.4-2.28,6.57-0.39,9.14c2.34,3.16,6.68,3.02,8.61-0.39
				C127.19,199.63,127.49,198.06,128,196.6z"/>
		</g>
		<g>
			<path class="st0" d="M136.22,206.66c1.16,0.3,2.55,0.76,3.97,0.97c1.15,0.17,2.4,0.25,3.51-0.02c3-0.73,5.11,0.28,6.54,3.58
				c0.78,1.8-0.06,3.39-2,3.64c-2.23,0.28-3.52,1.38-3.89,3.58c-0.01,0.04-0.02,0.07-0.03,0.11c-0.71,2.23-2.25,3.55-4.17,3.58
				c-1.69,0.02-3.79-1.64-4.44-3.54c-0.3-0.89-0.45-1.87-0.91-2.67c-0.36-0.65-0.98-1.34-1.64-1.6c-2.13-0.83-2.96-2.51-1.93-4.56
				C132.19,207.83,133.8,206.82,136.22,206.66z"/>
		</g>
		<g>
			<path class="st1" d="M181.97,201.16c-0.06,0.58-0.08,1.16-0.2,1.73c-0.82,3.98-3.84,5.42-7.45,3.55
				c-3.59-1.85-5.34-7.18-3.54-10.8c1.11-2.25,3.85-3.13,6.62-2.04c2.97,1.16,4.08,3.64,4.49,6.58c0.04,0.32,0.01,0.65,0.01,0.98
				C181.92,201.16,181.95,201.16,181.97,201.16z"/>
		</g>
		<g>
			<path class="st1" d="M128,196.6c-0.51,1.45-0.81,3.02-1.55,4.34c-1.93,3.41-6.28,3.55-8.61,0.39c-1.9-2.57-1.72-6.74,0.39-9.14
				c1.44-1.64,3.68-2.2,5.88-1.46c2.33,0.79,3.28,2.61,3.57,4.89c0.04,0.29,0.01,0.58,0.01,0.87
				C127.79,196.54,127.89,196.57,128,196.6z"/>
		</g>
	</g>
	<g>
		<g>
			<g>
				<g>
					<path class="st2" d="M152,237.94c-47.73,0-86.55-38.83-86.55-86.55S104.27,64.83,152,64.83s86.55,38.83,86.55,86.55
						S199.73,237.94,152,237.94z M152,66c-47.08,0-85.39,38.3-85.39,85.39s38.3,85.39,85.39,85.39s85.39-38.3,85.39-85.39
						S199.08,66,152,66z"/>
				</g>
			</g>
		</g>
		<g>
			<g>
				<path class="st1" d="M30.43,116.51l2.01,0.49l-1.01,4.2l13.64,3.29l-0.51,2.1l-13.64-3.29l-0.99,4.09l-2.01-0.49L30.43,116.51z"
					/>
				<path class="st1" d="M36.94,109.04c-0.86-1.19-1.38-2.5-1.57-3.95c-0.19-1.45,0.02-2.86,0.61-4.22
					c0.59-1.35,1.48-2.45,2.67-3.31c1.19-0.86,2.52-1.38,3.97-1.56c1.46-0.18,2.86,0.02,4.21,0.61c1.36,0.59,2.47,1.48,3.33,2.67
					c0.86,1.19,1.37,2.51,1.54,3.97c0.17,1.46-0.05,2.86-0.63,4.21c-0.59,1.36-1.48,2.47-2.65,3.34c-1.17,0.87-2.48,1.38-3.92,1.56
					s-2.86-0.05-4.25-0.65C38.91,111.11,37.8,110.23,36.94,109.04z M44.28,110.16c1.07-0.12,2.04-0.49,2.92-1.12
					c0.87-0.63,1.53-1.45,1.97-2.46c0.44-1.01,0.59-2.04,0.46-3.09c-0.13-1.05-0.52-2.01-1.18-2.87c-0.65-0.86-1.49-1.51-2.51-1.96
					c-1.02-0.45-2.07-0.61-3.16-0.5c-1.08,0.11-2.06,0.48-2.94,1.1c-0.87,0.62-1.53,1.44-1.97,2.45c-0.44,1.01-0.59,2.04-0.45,3.11
					c0.14,1.07,0.54,2.03,1.2,2.89c0.66,0.86,1.5,1.52,2.52,1.96C42.17,110.11,43.21,110.27,44.28,110.16z"/>
				<path class="st1" d="M44.79,84.29l2.52-3.62c1.15-1.64,2.42-2.78,3.82-3.4c1.4-0.62,2.79-0.82,4.17-0.6s2.63,0.74,3.78,1.53
					c1.28,0.89,2.2,1.98,2.77,3.26c0.56,1.28,0.76,2.61,0.6,3.97c-0.17,1.37-0.66,2.64-1.47,3.81L58,93.5L44.79,84.29z M59.01,88.39
					c0.68-0.97,1.09-1.98,1.25-3.01c0.15-1.03,0.01-2.02-0.42-2.97c-0.43-0.94-1.15-1.76-2.16-2.47c-1.04-0.72-2.08-1.12-3.14-1.18
					c-1.06-0.07-2.04,0.14-2.94,0.62c-0.91,0.48-1.66,1.16-2.26,2.02l-1.6,2.3l9.79,6.83L59.01,88.39z"/>
				<path class="st1" d="M72.79,68.76l-4.36,4.4l1.8,4.2l-1.51,1.52l-6.95-16.81l0.09-0.1l16.86,6.81l-1.76,1.77L72.79,68.76z
					 M70.95,67.96l-5.79-2.51l2.5,5.83L70.95,67.96z"/>
				<path class="st1" d="M83.06,45.33l1.48,12.23l3.18,4.33l-1.74,1.28l-3.17-4.33l-11.16-5.13l2.15-1.58l8.47,4.06l-1.34-9.29
					L83.06,45.33z"/>
				<path class="st1" d="M97.37,39.84c-0.67,0.13-1.26,0.32-1.78,0.59c-0.78,0.4-1.31,0.89-1.58,1.48
					c-0.28,0.58-0.26,1.18,0.05,1.79c0.31,0.59,0.82,0.94,1.55,1.04c0.73,0.1,1.68,0.08,2.86-0.06c0.88-0.12,1.65-0.15,2.32-0.1
					c0.67,0.05,1.31,0.26,1.93,0.64c0.62,0.38,1.14,0.99,1.58,1.83c0.39,0.77,0.56,1.56,0.49,2.38c-0.06,0.82-0.36,1.59-0.88,2.31
					c-0.52,0.72-1.26,1.32-2.21,1.81c-0.88,0.45-1.81,0.75-2.77,0.89c-0.96,0.14-1.87,0.15-2.71,0.03l0.07-1.96
					c0.68,0.12,1.43,0.13,2.25,0.04c0.82-0.1,1.53-0.3,2.12-0.6c0.77-0.39,1.33-0.94,1.71-1.63c0.37-0.69,0.36-1.43-0.04-2.21
					c-0.34-0.66-0.85-1.06-1.53-1.2c-0.68-0.14-1.55-0.16-2.6-0.06c-0.96,0.11-1.78,0.16-2.47,0.14c-0.68-0.02-1.35-0.18-1.99-0.49
					c-0.64-0.31-1.16-0.85-1.56-1.62c-0.58-1.12-0.65-2.23-0.22-3.33c0.43-1.1,1.26-1.99,2.5-2.67c1.55-0.79,3.18-1.15,4.89-1.06
					l0.03,1.86C98.7,39.65,98.04,39.71,97.37,39.84z"/>
				<path class="st1" d="M122.15,28.66l3.93,15.62l-2.1,0.53l-3.93-15.62L122.15,28.66z"/>
				<path class="st1" d="M146.83,25.02l1.58,16.56l-0.07,0.01l-12.92-10.83l1.14,11.41l-2.17,0.21l-1.58-16.52l0.11-0.01
					l12.91,10.96l-1.15-11.59L146.83,25.02z"/>
				<path class="st1" d="M164.4,27.82c-0.64-0.24-1.24-0.39-1.82-0.44c-0.87-0.07-1.58,0.07-2.12,0.42
					c-0.54,0.35-0.84,0.87-0.9,1.55c-0.05,0.67,0.2,1.23,0.77,1.7c0.57,0.47,1.39,0.96,2.46,1.46c0.81,0.36,1.48,0.74,2.02,1.13
					c0.54,0.39,0.98,0.91,1.3,1.56c0.33,0.65,0.45,1.44,0.38,2.39c-0.07,0.86-0.35,1.62-0.83,2.28c-0.49,0.66-1.14,1.16-1.96,1.5
					c-0.82,0.34-1.77,0.46-2.83,0.38c-0.99-0.08-1.93-0.32-2.83-0.71c-0.89-0.39-1.67-0.86-2.32-1.4l1.09-1.63
					c0.51,0.46,1.14,0.86,1.89,1.21c0.75,0.35,1.45,0.55,2.12,0.61c0.86,0.07,1.63-0.09,2.31-0.48s1.05-1.03,1.13-1.9
					c0.06-0.74-0.16-1.35-0.67-1.83c-0.51-0.48-1.23-0.95-2.18-1.42c-0.88-0.41-1.6-0.81-2.17-1.18c-0.57-0.37-1.05-0.86-1.44-1.47
					c-0.38-0.6-0.54-1.34-0.47-2.19c0.1-1.26,0.62-2.24,1.57-2.95c0.94-0.71,2.12-1.03,3.53-0.96c1.73,0.14,3.3,0.7,4.71,1.68
					l-0.95,1.6C165.63,28.37,165.03,28.07,164.4,27.82z"/>
				<path class="st1" d="M185.18,30.81c0.76,1.08,0.95,2.39,0.59,3.92c-0.21,0.88-0.58,1.66-1.12,2.34
					c-0.54,0.68-1.26,1.17-2.16,1.45c-0.9,0.29-1.95,0.29-3.15,0l-2.32-0.55l-1.38,5.76l-2.1-0.5l3.74-15.66l4.2,1.01
					C183.19,28.98,184.42,29.73,185.18,30.81z M181.77,36.45c0.54-0.21,0.97-0.51,1.28-0.92s0.52-0.83,0.62-1.26
					c0.18-0.75,0.09-1.48-0.26-2.18c-0.35-0.7-1.05-1.18-2.09-1.43l-2.43-0.58l-1.4,5.85l2.32,0.55
					C180.57,36.67,181.22,36.66,181.77,36.45z"/>
				<path class="st1" d="M197.84,33.68l-5.71,15.06l-2.02-0.77l5.71-15.06L197.84,33.68z"/>
				<path class="st1" d="M207.85,56.31l-0.49-7.03c-0.11-0.04-0.27-0.12-0.48-0.24l-2.1-1.14l-2.82,5.21l-1.9-1.03l7.68-14.16
					l3.78,2.05c0.97,0.52,1.73,1.16,2.31,1.91c0.57,0.75,0.9,1.57,0.97,2.46c0.07,0.89-0.14,1.8-0.64,2.73
					c-0.47,0.87-1.1,1.57-1.88,2.1c-0.78,0.52-1.67,0.76-2.67,0.7l0.47,7.63L207.85,56.31z M210.47,47.57
					c0.74-0.29,1.3-0.78,1.67-1.47c0.23-0.42,0.36-0.88,0.38-1.39c0.03-0.51-0.09-1.01-0.35-1.5c-0.27-0.49-0.71-0.91-1.34-1.25
					l-2.19-1.19l-2.87,5.29l2.06,1.11C208.85,47.73,209.73,47.86,210.47,47.57z"/>
				<path class="st1" d="M225.24,63.42l-4.86-3.84l-3.97,2.26l-1.68-1.33l15.92-8.8l0.1,0.08l-4.87,17.52l-1.96-1.55L225.24,63.42z
					 M225.82,61.5l1.85-6.04l-5.51,3.14L225.82,61.5z"/>
				<path class="st1" d="M248.13,69.29l-1.52,1.41l-2.94-3.16L233.4,77.1l-1.47-1.58l10.27-9.56l-2.87-3.08l1.52-1.41L248.13,69.29z
					"/>
				<path class="st1" d="M255.2,78.53l-13.06,9.42l-1.26-1.75l13.06-9.42L255.2,78.53z"/>
				<path class="st1" d="M257.83,89.55c1.46,0.09,2.81,0.52,4.05,1.3c1.24,0.78,2.19,1.83,2.87,3.15c0.67,1.31,0.96,2.7,0.86,4.16
					c-0.09,1.46-0.53,2.82-1.32,4.06c-0.78,1.24-1.83,2.2-3.14,2.86c-1.32,0.68-2.72,0.97-4.18,0.88c-1.46-0.09-2.81-0.53-4.04-1.33
					c-1.23-0.8-2.18-1.85-2.85-3.16c-0.67-1.32-0.97-2.71-0.9-4.17s0.5-2.79,1.29-4.02c0.78-1.22,1.85-2.18,3.2-2.87
					C254.99,89.75,256.37,89.46,257.83,89.55z M252.32,94.52c-0.59,0.9-0.92,1.89-0.99,2.97c-0.07,1.08,0.15,2.1,0.65,3.08
					c0.5,0.98,1.2,1.75,2.1,2.32c0.9,0.57,1.89,0.87,2.97,0.91c1.08,0.04,2.12-0.19,3.11-0.7c0.99-0.51,1.79-1.21,2.39-2.12
					c0.6-0.91,0.94-1.9,1.01-2.97c0.07-1.07-0.14-2.09-0.64-3.07c-0.5-0.98-1.21-1.75-2.12-2.32c-0.91-0.57-1.92-0.87-3-0.91
					c-1.09-0.04-2.13,0.2-3.12,0.7C253.69,92.92,252.91,93.62,252.32,94.52z"/>
				<path class="st1" d="M275.76,124.93l-16.05,4.38l-0.02-0.06l8.47-14.57l-11.06,3.06l-0.57-2.11l16.01-4.37l0.03,0.11
					l-8.61,14.58l11.23-3.11L275.76,124.93z"/>
			</g>
			<g>
				<g>
					<path class="st1" d="M273.57,182.19l-2.01-0.49l1.01-4.2l-13.64-3.29l0.51-2.1l13.64,3.29l0.99-4.09l2.01,0.49L273.57,182.19z"
						/>
					<path class="st1" d="M267.06,189.66c0.86,1.19,1.38,2.5,1.57,3.95c0.19,1.45-0.02,2.86-0.61,4.22
						c-0.59,1.35-1.48,2.45-2.67,3.31c-1.19,0.86-2.52,1.38-3.97,1.56c-1.46,0.18-2.86-0.02-4.21-0.61
						c-1.36-0.59-2.47-1.48-3.33-2.67c-0.86-1.19-1.37-2.51-1.54-3.97c-0.17-1.46,0.05-2.86,0.63-4.21
						c0.59-1.36,1.48-2.47,2.65-3.34c1.17-0.87,2.48-1.38,3.92-1.56c1.44-0.17,2.86,0.05,4.25,0.65
						C265.09,187.59,266.2,188.48,267.06,189.66z M259.72,188.55c-1.07,0.12-2.04,0.49-2.92,1.12c-0.87,0.63-1.53,1.45-1.97,2.46
						c-0.44,1.01-0.59,2.04-0.46,3.09c0.13,1.05,0.52,2.01,1.18,2.87c0.65,0.86,1.49,1.51,2.51,1.96c1.02,0.45,2.07,0.61,3.16,0.5
						c1.08-0.11,2.06-0.48,2.94-1.1c0.87-0.62,1.53-1.44,1.97-2.45c0.44-1.01,0.59-2.04,0.45-3.11c-0.14-1.07-0.54-2.03-1.2-2.89
						c-0.66-0.86-1.5-1.52-2.52-1.96C261.83,188.6,260.79,188.43,259.72,188.55z"/>
					<path class="st1" d="M259.21,214.41l-2.52,3.62c-1.15,1.64-2.42,2.78-3.82,3.4c-1.4,0.62-2.79,0.82-4.17,0.6
						c-1.37-0.22-2.63-0.74-3.78-1.53c-1.28-0.89-2.2-1.98-2.77-3.26c-0.56-1.28-0.76-2.6-0.6-3.97c0.17-1.37,0.66-2.64,1.47-3.81
						l2.97-4.26L259.21,214.41z M244.99,210.31c-0.68,0.97-1.09,1.98-1.25,3.01c-0.15,1.03-0.01,2.02,0.42,2.97
						c0.43,0.94,1.15,1.76,2.16,2.47c1.04,0.72,2.08,1.12,3.14,1.18c1.06,0.07,2.04-0.14,2.94-0.62c0.91-0.48,1.66-1.16,2.26-2.02
						l1.6-2.3l-9.79-6.83L244.99,210.31z"/>
					<path class="st1" d="M231.21,229.95l4.36-4.4l-1.8-4.2l1.51-1.52l6.95,16.81l-0.09,0.09l-16.86-6.81l1.76-1.77L231.21,229.95z
						 M233.05,230.75l5.79,2.51l-2.5-5.83L233.05,230.75z"/>
					<path class="st1" d="M220.94,253.38l-1.48-12.23l-3.18-4.33l1.74-1.28l3.17,4.33l11.16,5.13l-2.15,1.58l-8.47-4.06l1.34,9.29
						L220.94,253.38z"/>
					<path class="st1" d="M206.63,258.87c0.67-0.13,1.26-0.32,1.78-0.59c0.78-0.4,1.31-0.89,1.58-1.48
						c0.28-0.58,0.26-1.18-0.05-1.79c-0.31-0.59-0.82-0.94-1.55-1.04c-0.73-0.1-1.68-0.08-2.86,0.06c-0.88,0.12-1.65,0.15-2.32,0.1
						c-0.67-0.05-1.31-0.26-1.93-0.64c-0.62-0.38-1.14-0.99-1.58-1.83c-0.39-0.77-0.56-1.56-0.49-2.37
						c0.06-0.82,0.36-1.59,0.88-2.31c0.52-0.72,1.26-1.32,2.21-1.81c0.88-0.45,1.81-0.75,2.77-0.89c0.96-0.14,1.87-0.15,2.71-0.03
						l-0.07,1.96c-0.68-0.12-1.43-0.13-2.25-0.04c-0.82,0.1-1.53,0.3-2.12,0.6c-0.77,0.39-1.33,0.94-1.71,1.63s-0.36,1.43,0.04,2.2
						c0.34,0.66,0.85,1.06,1.53,1.2c0.68,0.14,1.55,0.16,2.6,0.06c0.96-0.11,1.78-0.16,2.47-0.14c0.68,0.02,1.35,0.18,1.99,0.49
						c0.64,0.31,1.16,0.85,1.56,1.62c0.58,1.12,0.65,2.23,0.22,3.33c-0.43,1.1-1.26,1.99-2.5,2.67c-1.55,0.79-3.18,1.15-4.89,1.06
						l-0.03-1.86C205.3,259.05,205.96,259,206.63,258.87z"/>
					<path class="st1" d="M181.85,270.05l-3.93-15.62l2.1-0.53l3.93,15.62L181.85,270.05z"/>
					<path class="st1" d="M157.17,273.68l-1.58-16.56l0.07-0.01l12.92,10.83l-1.14-11.41l2.17-0.21l1.58,16.52l-0.11,0.01
						l-12.91-10.96l1.15,11.59L157.17,273.68z"/>
					<path class="st1" d="M139.6,270.89c0.64,0.24,1.24,0.39,1.82,0.44c0.87,0.07,1.58-0.07,2.12-0.42c0.54-0.35,0.84-0.87,0.9-1.55
						c0.05-0.67-0.2-1.23-0.77-1.7c-0.57-0.47-1.39-0.96-2.46-1.46c-0.81-0.36-1.48-0.74-2.02-1.13c-0.54-0.39-0.98-0.91-1.31-1.56
						c-0.33-0.64-0.45-1.44-0.38-2.39c0.07-0.86,0.35-1.62,0.83-2.28c0.49-0.66,1.14-1.16,1.96-1.5c0.82-0.34,1.77-0.46,2.83-0.37
						c0.99,0.08,1.93,0.32,2.83,0.71c0.89,0.39,1.67,0.86,2.32,1.41l-1.09,1.63c-0.51-0.46-1.14-0.86-1.89-1.21
						c-0.75-0.35-1.45-0.55-2.12-0.61c-0.86-0.07-1.63,0.09-2.31,0.49c-0.68,0.39-1.05,1.03-1.13,1.9
						c-0.06,0.74,0.16,1.35,0.67,1.83c0.51,0.48,1.23,0.95,2.18,1.41c0.88,0.41,1.6,0.81,2.17,1.18c0.57,0.37,1.05,0.86,1.44,1.47
						c0.38,0.6,0.54,1.34,0.47,2.19c-0.1,1.26-0.62,2.24-1.57,2.95c-0.94,0.71-2.12,1.03-3.53,0.96c-1.73-0.14-3.3-0.7-4.72-1.68
						l0.96-1.6C138.37,270.34,138.97,270.64,139.6,270.89z"/>
					<path class="st1" d="M118.82,267.9c-0.76-1.08-0.95-2.39-0.59-3.92c0.21-0.88,0.58-1.66,1.12-2.34
						c0.54-0.68,1.26-1.17,2.16-1.45c0.9-0.29,1.95-0.29,3.15,0l2.32,0.55l1.38-5.76l2.1,0.5l-3.74,15.66l-4.2-1
						C120.81,269.72,119.58,268.98,118.82,267.9z M122.23,262.25c-0.54,0.21-0.97,0.51-1.28,0.92c-0.31,0.41-0.52,0.83-0.62,1.26
						c-0.18,0.75-0.09,1.48,0.26,2.18c0.35,0.7,1.05,1.18,2.09,1.43l2.43,0.58l1.4-5.85l-2.32-0.55
						C123.43,262.03,122.78,262.05,122.23,262.25z"/>
					<path class="st1" d="M106.16,265.02l5.71-15.06l2.02,0.77l-5.71,15.06L106.16,265.02z"/>
					<path class="st1" d="M96.15,242.4l0.49,7.03c0.11,0.04,0.27,0.12,0.48,0.24l2.1,1.14l2.82-5.21l1.9,1.03l-7.68,14.16
						l-3.78-2.05c-0.97-0.52-1.74-1.16-2.31-1.91c-0.57-0.75-0.9-1.57-0.97-2.46c-0.07-0.89,0.14-1.8,0.64-2.73
						c0.47-0.87,1.1-1.57,1.88-2.09c0.78-0.52,1.67-0.76,2.67-0.7l-0.47-7.63L96.15,242.4z M93.53,251.13
						c-0.74,0.29-1.3,0.78-1.67,1.47c-0.23,0.42-0.36,0.88-0.38,1.39c-0.03,0.51,0.09,1.01,0.35,1.5c0.27,0.49,0.71,0.91,1.34,1.25
						l2.19,1.19l2.87-5.29l-2.06-1.12C95.15,250.97,94.27,250.84,93.53,251.13z"/>
					<path class="st1" d="M78.76,235.29l4.86,3.84l3.97-2.26l1.68,1.33l-15.92,8.8l-0.1-0.08l4.87-17.52l1.96,1.55L78.76,235.29z
						 M78.18,237.21l-1.85,6.04l5.51-3.14L78.18,237.21z"/>
					<path class="st1" d="M55.87,229.42l1.52-1.41l2.94,3.16l10.27-9.56l1.47,1.58l-10.27,9.56l2.87,3.08l-1.52,1.41L55.87,229.42z"
						/>
					<path class="st1" d="M48.8,220.17l13.06-9.42l1.26,1.75l-13.06,9.42L48.8,220.17z"/>
					<path class="st1" d="M46.18,209.18c-1.46-0.09-2.81-0.52-4.05-1.3c-1.24-0.78-2.19-1.83-2.87-3.15
						c-0.67-1.31-0.96-2.7-0.86-4.16c0.09-1.47,0.53-2.82,1.32-4.06c0.78-1.24,1.83-2.2,3.14-2.87c1.32-0.68,2.72-0.97,4.18-0.88
						s2.81,0.53,4.04,1.33c1.23,0.8,2.18,1.85,2.85,3.16c0.68,1.32,0.98,2.71,0.9,4.17c-0.07,1.45-0.5,2.79-1.28,4.02
						c-0.78,1.23-1.85,2.18-3.2,2.87C49.03,208.97,47.64,209.26,46.18,209.18z M51.69,204.21c0.59-0.9,0.92-1.89,0.99-2.97
						c0.07-1.08-0.15-2.1-0.65-3.08c-0.5-0.98-1.2-1.75-2.1-2.32c-0.9-0.57-1.89-0.87-2.97-0.91s-2.12,0.19-3.11,0.7
						c-0.99,0.51-1.79,1.21-2.39,2.12c-0.6,0.91-0.94,1.9-1.01,2.97c-0.07,1.07,0.14,2.09,0.64,3.07c0.5,0.98,1.21,1.75,2.12,2.32
						c0.91,0.57,1.92,0.87,3,0.91c1.09,0.04,2.13-0.2,3.12-0.7C50.32,205.81,51.1,205.11,51.69,204.21z"/>
					<path class="st1" d="M28.24,173.78l16.05-4.38l0.02,0.06l-8.47,14.57l11.06-3.06l0.57,2.11l-16.01,4.37l-0.03-0.11l8.61-14.58
						l-11.23,3.11L28.24,173.78z"/>
				</g>
			</g>
		</g>
	</g>
	<g>
		<path class="st1" d="M153.61,138.57l-19.78-19.78c-20.47-20.47-0.69-40.26,19.78-19.78c19.3-19.3,39.09,0.48,19.78,19.78
			L153.61,138.57z"/>
		<path class="st1" d="M153.61,139.39l-20.19-20.19c-7-7.01-10.05-14.66-8.35-21c1.07-3.99,3.97-6.89,7.95-7.95
			c6.22-1.66,13.7,1.23,20.59,7.94c10.09-9.8,19.89-9.08,24.78-4.18c4.96,4.96,5.64,14.96-4.59,25.19L153.61,139.39z M136.61,90.95
			c-1.13,0-2.23,0.14-3.29,0.42c-3.57,0.96-6.17,3.56-7.13,7.13c-1.59,5.93,1.34,13.17,8.05,19.87l19.37,19.37l19.37-19.37
			c9.66-9.66,9.15-18.98,4.59-23.54c-4.57-4.57-13.88-5.08-23.55,4.59l-0.41,0.41l-0.41-0.41
			C147.69,93.91,141.82,90.95,136.61,90.95z"/>
	</g>
</g>
</svg>
