<?xml version="1.0" encoding="utf-8"?>
<!-- Generator: Adobe Illustrator 24.2.3, SVG Export Plug-In . SVG Version: 6.00 Build 0)  -->
<svg version="1.1" id="Lager_1" xmlns="http://www.w3.org/2000/svg" xmlns:xlink="http://www.w3.org/1999/xlink" x="0px" y="0px"
	 viewBox="0 0 520.1 155.6" style="enable-background:new 0 0 520.1 155.6;" xml:space="preserve">
<style type="text/css">
	.st0{fill:#4D0E10;}
	.st1{fill:#FFFFFF;}
	.st2{font-family:'BerlinSansFBDemi-Bold';}
	.st3{font-size:115.1866px;}
	.st4{letter-spacing:2.9;}
</style>
<g>
	<g>
		<g>
			<path class="st0" d="M39,143.8c-21.5-10.9-26-16.7-27.8-18.6c-3.7-7.4-2.5-7.8,0-15.8c0.1-0.4,0.3-0.9,0.1-1.4
				c-1.2-4-1.8-8.1-1.1-12.2c0.4-2.8-0.2-5.4-0.7-8C7.3,77,6.9,66,7.9,55c0.4-4,1.3-8,2-12c0,0,0,0,0,0c1.5-4.6,2.3-5.6,8.1-4.6
				c2.7,0.5,4.9,2,7,3.7c2.9,2.4,5.3,5.3,7.4,8.4c2.2,3.1,4.2,6.2,6.3,9.3c3.9,5.7,8.5,10.7,13.9,15c1.8,1.4,3.6,1.7,5.8,1.4
				c3.9-0.7,7.8-1.3,11.7-1.6c5.2-0.4,10.2,1,15.2,2.5c0.8,0.2,1.7,0.5,2.5,0.7c3.6,1,7,0.7,10.3-0.9c5.5-2.7,10.3-6.2,14.4-10.8
				c4.2-4.7,8.3-9.4,12.7-13.9c2.1-2.2,4.5-4,6.9-5.9c1.1-0.9,2.4-1.5,3.7-2c3.7-1.4,6.6-0.4,8.5,3c1.8,3.1,2.9,6.4,3.5,9.8
				c1.6,8.4,0.9,16.6-1,24.8c-1.1,4.7-2.8,9.3-4.2,14c-0.1,0.4-0.2,0.8-0.2,1.2c0.2,3.9-0.6,7.5-1.9,11.1c-0.3,0.9-0.6,1.8-0.9,2.7
				c-0.3,0.9-0.2,1.8,0,2.7c0.1,0.4,0.2,1.2,0.2,1.5c-0.1,5.7,0,2.4-0.1,5.3c-0.1,2.5-1.8,4.7-3.5,6.6c-9.4,10.6-21.8,15-24.9,16.7
				C70.5,156.8,61.2,151.2,39,143.8z M97.1,123.5c0.4,0,0.8,0,1.2,0c3.3-0.2,6.3-1.1,8.7-3.6c1.7-1.8,2.4-3.9,1.5-6.4
				c-0.7-2.1-1.7-4-3.3-5.6c-3.4-3.4-7.5-4.9-12.2-5c-3.5-0.1-6.2,1.5-8.2,4.4c-1.4,2.1-2,4.4-2.4,6.8c-0.5,2.7,0.5,4.6,2.6,6
				c0.9,0.6,1.9,1.2,3,1.6C90.9,123,94,123.4,97.1,123.5z M42.4,119.7c0.8-0.1,2.2-0.2,3.5-0.4c4.6-0.8,6.6-2.6,7.2-6.6
				c0.6-4-0.1-7.7-3.5-10.4c-2.3-1.8-5-2.5-7.8-2.7c-6.3-0.4-12.9,5.3-13.2,11.6c-0.2,3.2,1.7,5.1,4.3,6.5
				C35.6,119.2,38.6,119.6,42.4,119.7z M58.4,121.2c-2.4,0.2-4,1.2-5,3.1c-1,2-0.2,3.7,1.9,4.6c0.7,0.3,1.3,0.9,1.6,1.6
				c0.4,0.8,0.6,1.8,0.9,2.7c0.6,1.9,2.7,3.6,4.4,3.5c1.9,0,3.5-1.4,4.2-3.6c0,0,0-0.1,0-0.1c0.4-2.2,1.7-3.3,3.9-3.6
				c1.9-0.2,2.8-1.8,2-3.6c-1.4-3.3-3.6-4.3-6.5-3.6c-1.1,0.3-2.4,0.2-3.5,0C61,122,59.6,121.5,58.4,121.2z"/>
		</g>
		<g>
			<path class="st1" d="M97.1,123.5c-3.1-0.1-6.2-0.5-9.2-1.7c-1-0.4-2-1-3-1.6c-2.1-1.4-3.1-3.3-2.6-6c0.5-2.4,1.1-4.8,2.4-6.8
				c1.9-2.9,4.6-4.5,8.2-4.4c4.7,0.1,8.9,1.6,12.2,5c1.6,1.6,2.6,3.5,3.3,5.6c0.8,2.5,0.2,4.6-1.5,6.4c-2.3,2.5-5.4,3.3-8.7,3.6
				C97.9,123.5,97.5,123.5,97.1,123.5z M104.2,115.7C104.2,115.7,104.1,115.7,104.2,115.7c-0.1-0.3,0-0.7-0.1-1
				c-0.4-2.9-1.5-5.4-4.5-6.6c-2.8-1.1-5.5-0.2-6.6,2c-1.8,3.6-0.1,8.9,3.5,10.8c3.6,1.9,6.6,0.4,7.4-3.6
				C104.1,116.9,104.1,116.3,104.2,115.7z"/>
		</g>
		<g>
			<path class="st1" d="M42.4,119.7c-3.7-0.1-6.8-0.5-9.6-2c-2.6-1.4-4.4-3.3-4.3-6.5c0.3-6.3,6.9-12.1,13.2-11.6
				c2.8,0.2,5.5,0.9,7.8,2.7c3.4,2.7,4.1,6.4,3.5,10.4c-0.6,4-2.6,5.8-7.2,6.6C44.5,119.5,43.1,119.6,42.4,119.7z M50.2,111.1
				c-0.1,0-0.2-0.1-0.3-0.1c0-0.3,0-0.6,0-0.9c-0.3-2.3-1.2-4.1-3.6-4.9c-2.2-0.8-4.4-0.2-5.9,1.5c-2.1,2.4-2.3,6.6-0.4,9.1
				c2.3,3.2,6.7,3,8.6-0.4C49.4,114.2,49.7,112.6,50.2,111.1z"/>
		</g>
		<g>
			<path class="st1" d="M58.4,121.2c1.2,0.3,2.6,0.8,4,1c1.1,0.2,2.4,0.2,3.5,0c3-0.7,5.1,0.3,6.5,3.6c0.8,1.8-0.1,3.4-2,3.6
				c-2.2,0.3-3.5,1.4-3.9,3.6c0,0,0,0.1,0,0.1c-0.7,2.2-2.2,3.6-4.2,3.6c-1.7,0-3.8-1.6-4.4-3.5c-0.3-0.9-0.4-1.9-0.9-2.7
				c-0.4-0.6-1-1.3-1.6-1.6c-2.1-0.8-3-2.5-1.9-4.6C54.4,122.4,56,121.4,58.4,121.2z"/>
		</g>
		<g>
			<path class="st0" d="M104.2,115.7c-0.1,0.6-0.1,1.2-0.2,1.7c-0.8,4-3.8,5.4-7.4,3.6c-3.6-1.9-5.3-7.2-3.5-10.8
				c1.1-2.2,3.9-3.1,6.6-2c3,1.2,4.1,3.6,4.5,6.6C104.2,115,104.1,115.4,104.2,115.7C104.1,115.7,104.2,115.7,104.2,115.7z"/>
		</g>
		<g>
			<path class="st0" d="M50.2,111.1c-0.5,1.4-0.8,3-1.6,4.3c-1.9,3.4-6.3,3.6-8.6,0.4c-1.9-2.6-1.7-6.7,0.4-9.1
				c1.4-1.6,3.7-2.2,5.9-1.5c2.3,0.8,3.3,2.6,3.6,4.9c0,0.3,0.2,1.1,0.2,1.4C50.2,111.6,50.1,111.1,50.2,111.1z"/>
		</g>
	</g>
	<g>
		<path class="st0" d="M75.8,53.1L56.1,33.3C35.6,12.9,55.4-6.9,75.8,13.5C95.1-5.8,114.9,14,95.6,33.3L75.8,53.1z"/>
		<path class="st0" d="M75.8,53.9L55.6,33.7c-7-7-10.1-14.7-8.3-21c1.1-4,4-6.9,8-7.9c6.2-1.7,13.7,1.2,20.6,7.9
			c10.1-9.8,19.9-9.1,24.8-4.2c5,5,5.6,15-4.6,25.2L75.8,53.9z M58.8,5.5c-1.1,0-2.2,0.1-3.3,0.4c-3.6,1-6.2,3.6-7.1,7.1
			c-1.6,5.9,1.3,13.2,8,19.9l19.4,19.4l19.4-19.4c9.7-9.7,9.1-19,4.6-23.5C95.2,4.8,85.9,4.3,76.2,14l-0.4,0.4L75.4,14
			C69.9,8.4,64,5.5,58.8,5.5z"/>
	</g>
</g>
<text transform="matrix(1.0417 0 0 1 160.1001 136.6346)" class="st0 st2 st3 st4">INSPO</text>
</svg>
