<svg id="Capa_1" enable-background="new 0 0 512 512" height="512" viewBox="0 0 512 512" width="512" xmlns="http://www.w3.org/2000/svg"><g id="XMLID_834_"><g id="XMLID_271_"><path id="XMLID_272_" d="m211.25 196c2.63 0 5.21-1.07 7.08-2.93 1.859-1.86 2.92-4.44 2.92-7.07s-1.061-5.21-2.92-7.07c-1.87-1.86-4.44-2.93-7.08-2.93-2.63 0-5.21 1.07-7.07 2.93s-2.93 4.44-2.93 7.07 1.069 5.21 2.93 7.07c1.87 1.86 4.44 2.93 7.07 2.93z"/><path id="XMLID_275_" d="m462 128h-163.797c-.483-10.247-4.658-19.541-11.219-26.588l52.714-52.714c3.905-3.905 3.905-10.237 0-14.143-3.906-3.905-10.236-3.905-14.143 0l-55.713 55.713c-4.265-1.462-8.833-2.268-13.588-2.268s-9.323.806-13.588 2.269l-87.34-87.34c-3.906-3.905-10.236-3.905-14.143 0-3.905 3.905-3.905 10.237 0 14.142l84.341 84.341c-6.561 7.047-10.736 16.341-11.219 26.588h-164.305c-27.57 0-50 22.43-50 50v284c0 27.57 22.43 50 50 50h412c27.57 0 50-22.43 50-50v-284c0-27.57-22.43-50-50-50zm-205.746-20c11.457 0 20.896 8.802 21.91 20h-43.82c1.013-11.198 10.453-20 21.91-20zm235.746 354c0 16.542-13.458 30-30 30h-412c-16.542 0-30-13.458-30-30v-284c0-16.542 13.458-30 30-30h412c16.542 0 30 13.458 30 30z"/><path id="XMLID_279_" d="m434 195.96c-18.748 0-34 15.252-34 34s15.252 34 34 34 34-15.252 34-34-15.252-34-34-34zm0 48c-7.72 0-14-6.28-14-14s6.28-14 14-14 14 6.28 14 14-6.28 14-14 14z"/><path id="XMLID_282_" d="m434 291.96c-18.748 0-34 15.252-34 34s15.252 34 34 34 34-15.252 34-34-15.252-34-34-34zm0 48c-7.72 0-14-6.28-14-14s6.28-14 14-14 14 6.28 14 14-6.28 14-14 14z"/><path id="XMLID_285_" d="m366 176h-109.746c-5.522 0-10 4.477-10 10s4.478 10 10 10h99.746v248h-20.124l-22.861-115.078c-1.789-9.004-4.734-17.545-8.663-25.482 12.65-6.816 21.148-20.228 21.148-35.256 0-22.056-17.944-40-40-40-16.622 0-30.9 10.081-36.932 24.584-11.435-4.37-23.775-6.768-36.568-6.768s-25.133 2.398-36.568 6.768c-6.032-14.503-20.309-24.584-36.932-24.584-22.056 0-40 17.944-40 40 0 15.028 8.498 28.44 21.147 35.256-3.928 7.936-6.874 16.478-8.663 25.482l-22.86 115.078h-20.124v-248h98.254c5.522 0 10-4.477 10-10s-4.478-10-10-10h-108.254c-5.522 0-10 4.477-10 10v268c0 5.523 4.478 10 10 10h308c5.522 0 10-4.477 10-10v-268c0-5.523-4.478-10-10-10zm-80.5 72.185c11.028 0 20 8.972 20 20 0 7.991-4.801 15.065-11.791 18.232-7.521-9.785-16.721-18.157-27.143-24.691 2.682-7.915 10.151-13.541 18.934-13.541zm-167 20c0-11.028 8.972-20 20-20 8.783 0 16.251 5.627 18.934 13.541-10.421 6.534-19.622 14.906-27.143 24.691-6.99-3.168-11.791-10.241-11.791-18.232zm-9.985 175.815 22.087-111.181c7.692-38.717 41.924-66.819 81.398-66.819s73.706 28.101 81.397 66.819l22.088 111.181z"/><path id="XMLID_288_" d="m458 388h-48c-5.522 0-10 4.477-10 10s4.478 10 10 10h48c5.522 0 10-4.477 10-10s-4.478-10-10-10z"/><path id="XMLID_289_" d="m458 444h-48c-5.522 0-10 4.477-10 10s4.478 10 10 10h48c5.522 0 10-4.477 10-10s-4.478-10-10-10z"/><path id="XMLID_290_" d="m237.152 386.873c-1.677 1.66-3.899 2.574-6.259 2.574-3.183 0-5.972-1.686-7.543-4.205.392-.425.765-.87 1.11-1.342l8.546-11.695c3.447-4.717 3.946-10.883 1.301-16.092s-7.917-8.445-13.759-8.445h-17.096c-5.842 0-11.114 3.236-13.76 8.445-2.645 5.209-2.146 11.375 1.301 16.092l8.547 11.696c.345.472.718.917 1.11 1.342-1.572 2.52-4.361 4.205-7.543 4.205-2.359 0-4.582-.914-6.259-2.574-3.924-3.886-10.256-3.856-14.142.069-3.886 3.924-3.855 10.256.069 14.142 5.445 5.393 12.666 8.363 20.331 8.363 7.219 0 13.823-2.668 18.894-7.061 5.07 4.394 11.674 7.061 18.894 7.061 7.665 0 14.886-2.97 20.331-8.363 3.925-3.886 3.955-10.218.069-14.142-3.886-3.926-10.219-3.956-14.142-.07z"/><path id="XMLID_292_" d="m179.81 330c2.63 0 5.21-1.07 7.07-2.93s2.93-4.44 2.93-7.07-1.069-5.21-2.93-7.07c-1.86-1.86-4.44-2.93-7.07-2.93s-5.21 1.07-7.069 2.93c-1.86 1.86-2.931 4.44-2.931 7.07s1.07 5.21 2.931 7.07c1.859 1.86 4.439 2.93 7.069 2.93z"/><path id="XMLID_293_" d="m244.189 310c-2.63 0-5.21 1.07-7.069 2.93-1.86 1.86-2.931 4.44-2.931 7.07s1.07 5.21 2.931 7.07c1.859 1.86 4.439 2.93 7.069 2.93s5.21-1.07 7.07-2.93 2.93-4.44 2.93-7.07-1.069-5.21-2.93-7.07c-1.86-1.86-4.44-2.93-7.07-2.93z"/></g></g></svg>