<?xml version='1.0' encoding='utf-8'?>
<svg xmlns="http://www.w3.org/2000/svg" version="1.1" id="Layer_1" x="0px" y="0px" viewBox="0 0 4009.246 157.088" enable-background="new 0 0 4009.246 157.088"> <g> <g> <path d="M1028.846,74.381c2.714-6.82,2.717-10.577-4.223-13.267c-8.246-0.551-12.056,3.458-9.348,12.95l-0.103-0.204 c3.771,4.624,13.773,18.605,33.677,20.953c53.488,11.783,171.006-75.537,281.738-76.521c7.05,0.256,23.425-2.045,33.101,12.305 c6.79,9.974,7.112,23.692,4.003,35.35c-8.618,31.013-32.4,23.376-36.167,10.456c-7.331-22.059,53.218-33.112,50.131,4.699 c-8.26,93.005-190.767-19.43-245.467-13.161c-11.827,1.457-23.176,8.554-24.549,18.825c-1.075,10.784,12.77,12.381,23.743,12.909 c57.108-0.396,149.221-69.23,238.064-74.014c56.252-3.188,101.046,21.195,102.911,58.728 c1.326,28.286-23.313,62.887-54.319,49.362c-13.966-5.929-20.509-20.07-11.396-35.294c-12.721,23.754,11.148,39.931,32.04,34.44 c19.77-5.116,30.084-31.289,28.58-48.176c-2.478-35.748-59.284-75.444-176.891-30.153c-64.057,24.8-117.833,59.556-164.726,57.868 c-49.01-3.327-35.9-52.707,4.897-57.883c44.094-5.353,180.387,65.192,221.232,47.439c9.66-4.224,11.792-12.897,12.821-23.15 c-0.003,0.064,0.052-0.604,0.002,0.061c-0.082-3.754-0.302-6.027-3.975-8.205c-7.202-3.707-19.086-0.435-20.892,2.644 c-0.213,0.425,0.026-0.226-0.095-0.405c-0.073-0.126,0.048,0.167,0.097,0.18c0,0-0.248-0.104,1.125,1.188 c0.008,0.049,0.658,0.42,0.921,0.671c0.318,0.077,0.624,0.35,0.848,0.345c6.991,3.178,24.052-41.865-7.18-45.519 c0.546,0.045-0.032,0.007,0.008,0.015c-146.619-4.367-269.725,121.211-325.912,44.97c-2.641-11.076,2.104-15.632,11.272-14.47 C1031.911,63.358,1031.981,67.492,1028.846,74.381z"/> <line fill="none" stroke="#000000" stroke-width="13.8695" stroke-linecap="round" stroke-miterlimit="10" x1="1007.849" y1="71.299" x2="26.583" y2="71.299"/> <circle fill="none" stroke="#000000" stroke-width="9.2463" stroke-miterlimit="10" cx="13.869" cy="71.106" r="9.246"/> <path d="M1712.207,37.395c-108.64,73.438-219.272,95.289-205.982,33.363c8.886-38.589,93.641-21.574,132.198-13.496 c86.611,18.351,171.063,50.658,235.236,44.384c21.957-2.228,41.685-9.454,32.957-29.836c-0.57-1.436-5.883-11.945-7.401-11.88 c-18.068-15.166-110.137-2.017-168.126,37.092c-100.228,66.076-236.622,89.709-283.824,8.119c0.18,0.612-3.881-8.648-4.347-10.308 c-14.411-54.596,34.581-92.657,87.547-94.714c60.177-1.387,106.84,9.365,164.657,25.53 c45.843,13.085,197.499,57.067,266.738,47.384c37.511-5.753,36.816-28.431,36.816-28.431c-0.077-7.38-2.975-12.124-11.067-14.24 c-22.941-6.027-25.36,25.024-20.415,38.452c5.869,15.701,20.891,22.87,37.43,26.369c-5.834-1.027-13.106-2.332-20.964-6.568 c-22.022-12.142-25.331-35.506-15.868-54.911c8.244-12.709,36.314-8.042,34.621,11.436 c-15.313,87.175-290.779-11.656-388.427-27.231c-27.001-4.247-54.732-6.638-82.99-5.771c-13.59,0.591-27.187,3.721-39.458,9.703 c-86.369,42.002-24.603,168.033,151.844,104.243c79.785-28.804,84.007-56.027,165.846-76.491 c88.751-22.278,102.265,5.537,102.265,5.537c11.795,18.381,14.415,36.772-2.96,48.393c-27.621,18.316-86.926,9.221-119.393,2.37 c-82.982-17.195-275.923-91.131-277.439-24.578c-0.028,0.21,0.365,3.836,0.743,4.776c9.251,36.422,116.184,4.716,195.002-45.707 C1710.585,38.413,1712.207,37.395,1712.207,37.395z"/> </g> <g> <path d="M2980.401,74.381c-2.714-6.82-2.718-10.577,4.222-13.267c8.246-0.551,12.056,3.458,9.348,12.95l0.103-0.204 c-3.771,4.624-13.773,18.605-33.677,20.953c-53.488,11.783-171.006-75.537-281.739-76.521c-7.05,0.256-23.425-2.045-33.101,12.305 c-6.79,9.974-7.112,23.692-4.003,35.35c8.618,31.013,32.4,23.376,36.167,10.456c7.331-22.059-53.219-33.112-50.131,4.699 c8.26,93.005,190.767-19.43,245.467-13.161c11.827,1.457,23.176,8.554,24.549,18.825c1.075,10.784-12.77,12.381-23.743,12.909 c-57.108-0.396-149.221-69.23-238.064-74.014c-56.252-3.188-101.045,21.195-102.91,58.728 c-1.326,28.286,23.313,62.887,54.319,49.362c13.966-5.929,20.51-20.07,11.396-35.294c12.721,23.754-11.148,39.931-32.041,34.44 c-19.77-5.116-30.084-31.289-28.58-48.176c2.479-35.748,59.284-75.444,176.891-30.153c64.057,24.8,117.833,59.556,164.726,57.868 c49.01-3.327,35.9-52.707-4.897-57.883c-44.094-5.353-180.387,65.192-221.232,47.439c-9.66-4.224-11.792-12.897-12.822-23.15 c0.003,0.064-0.052-0.604-0.002,0.061c0.082-3.754,0.302-6.027,3.975-8.205c7.202-3.707,19.085-0.435,20.892,2.644 c0.213,0.425-0.025-0.226,0.095-0.405c0.073-0.126-0.048,0.167-0.097,0.18c0,0,0.249-0.104-1.125,1.188 c-0.009,0.049-0.658,0.42-0.921,0.671c-0.318,0.077-0.624,0.35-0.848,0.345c-6.991,3.178-24.052-41.865,7.18-45.519 c-0.546,0.045,0.032,0.007-0.008,0.015c146.619-4.367,269.725,121.211,325.912,44.97c2.641-11.076-2.104-15.632-11.272-14.47 C2977.335,63.358,2977.266,67.492,2980.401,74.381z"/> <line fill="none" stroke="#000000" stroke-width="13.8695" stroke-linecap="round" stroke-miterlimit="10" x1="3001.397" y1="71.299" x2="3982.663" y2="71.299"/> <circle fill="none" stroke="#000000" stroke-width="9.2463" stroke-miterlimit="10" cx="3995.377" cy="71.106" r="9.246"/> <path d="M2297.04,37.395c108.64,73.438,219.272,95.289,205.982,33.363c-8.886-38.589-93.641-21.574-132.198-13.496 c-86.611,18.351-171.063,50.658-235.236,44.384c-21.957-2.228-41.685-9.454-32.957-29.836c0.57-1.436,5.883-11.945,7.401-11.88 c18.068-15.166,110.137-2.017,168.126,37.092c100.228,66.076,236.622,89.709,283.824,8.119c-0.18,0.612,3.881-8.648,4.347-10.308 c14.411-54.596-34.581-92.657-87.547-94.714c-60.177-1.387-106.84,9.365-164.657,25.53 c-45.843,13.085-197.499,57.067-266.738,47.384c-37.511-5.753-36.816-28.431-36.816-28.431c0.077-7.38,2.975-12.124,11.068-14.24 c22.941-6.027,25.36,25.024,20.415,38.452c-5.869,15.701-20.891,22.87-37.43,26.369c5.834-1.027,13.106-2.332,20.964-6.568 c22.022-12.142,25.331-35.506,15.868-54.911c-8.244-12.709-36.314-8.042-34.621,11.436 c15.313,87.175,290.78-11.656,388.427-27.231c27.001-4.247,54.732-6.638,82.99-5.771c13.59,0.591,27.187,3.721,39.458,9.703 c86.369,42.002,24.603,168.033-151.844,104.243c-79.785-28.804-84.008-56.027-165.846-76.491 c-88.751-22.278-102.265,5.537-102.265,5.537c-11.795,18.381-14.415,36.772,2.96,48.393c27.621,18.316,86.926,9.221,119.393,2.37 c82.982-17.195,275.924-91.131,277.439-24.578c0.028,0.21-0.365,3.836-0.743,4.776c-9.251,36.422-116.184,4.716-195.002-45.707 C2298.661,38.413,2297.04,37.395,2297.04,37.395z"/> </g> </g> </svg>