<svg id="Lager_1" data-name="Lager 1" xmlns="http://www.w3.org/2000/svg" xmlns:xlink="http://www.w3.org/1999/xlink" viewBox="0 0 1590 728"><defs><style>.cls-1{fill:#0599a1;}.cls-10,.cls-11,.cls-12,.cls-13,.cls-14,.cls-15,.cls-16,.cls-17,.cls-18,.cls-19,.cls-2,.cls-20,.cls-21,.cls-22,.cls-3,.cls-4,.cls-5,.cls-6,.cls-7,.cls-8,.cls-9{stroke:#000;stroke-miterlimit:10;stroke-width:0.75px;}.cls-3{fill:url(#Namnlös_övertoning_11);}.cls-4{fill:url(#Namnlös_övertoning_11-2);}.cls-5{fill:url(#Namnlös_övertoning_11-3);}.cls-6{fill:url(#Namnlös_övertoning_11-4);}.cls-7{fill:url(#Namnlös_övertoning_11-5);}.cls-8{fill:url(#Namnlös_övertoning_11-6);}.cls-9{fill:url(#Namnlös_övertoning_11-7);}.cls-10{fill:url(#Namnlös_övertoning_11-8);}.cls-11{fill:url(#Namnlös_övertoning_11-9);}.cls-12{fill:url(#Namnlös_övertoning_11-10);}.cls-13{fill:url(#Namnlös_övertoning_11-11);}.cls-14{fill:url(#Namnlös_övertoning_11-12);}.cls-15{fill:url(#Namnlös_övertoning_11-13);}.cls-16{fill:url(#Namnlös_övertoning_11-14);}.cls-17{fill:url(#Namnlös_övertoning_11-15);}.cls-18{fill:url(#Namnlös_övertoning_11-16);}.cls-19{fill:url(#Namnlös_övertoning_11-17);}.cls-20{fill:url(#Namnlös_övertoning_11-18);}.cls-21{fill:url(#Namnlös_övertoning_11-19);}.cls-22{fill:url(#Namnlös_övertoning_11-20);}</style><linearGradient id="Namnlös_övertoning_11" x1="132.78" y1="118.71" x2="291.18" y2="118.71" gradientTransform="translate(-67.5 140.05) rotate(-25.25)" gradientUnits="userSpaceOnUse"><stop offset="0" stop-color="#6b6b6b"/><stop offset="0.03" stop-color="#616161"/><stop offset="0.12" stop-color="#434343"/><stop offset="0.23" stop-color="#2a2a2a"/><stop offset="0.35" stop-color="#171717"/><stop offset="0.48" stop-color="#0a0a0a"/><stop offset="0.66" stop-color="#020202"/><stop offset="1"/></linearGradient><linearGradient id="Namnlös_övertoning_11-2" x1="60.67" y1="83.57" x2="107.56" y2="83.57" gradientTransform="translate(73.35 64.83) rotate(59.4)" xlink:href="#Namnlös_övertoning_11"/><linearGradient id="Namnlös_övertoning_11-3" x1="314.68" y1="85.65" x2="360.37" y2="85.65" gradientTransform="translate(102.23 -229.16) rotate(46.14)" xlink:href="#Namnlös_övertoning_11"/><linearGradient id="Namnlös_övertoning_11-4" x1="138.99" y1="23.24" x2="185.4" y2="23.24" gradientTransform="translate(-49.58 4.66) rotate(24.01)" xlink:href="#Namnlös_övertoning_11"/><linearGradient id="Namnlös_övertoning_11-5" x1="243.2" y1="27.06" x2="289.82" y2="27.06" gradientTransform="translate(-75.65 112.25) rotate(-19.05)" xlink:href="#Namnlös_övertoning_11"/><linearGradient id="Namnlös_övertoning_11-6" x1="50.09" y1="512.18" x2="208.49" y2="512.18" gradientTransform="translate(-136.96 173.26) rotate(-27.15)" xlink:href="#Namnlös_övertoning_11"/><linearGradient id="Namnlös_övertoning_11-7" x1="-22.03" y1="477.03" x2="24.87" y2="477.03" gradientTransform="matrix(0.51, 0.86, -0.86, 0.51, 491.86, 353.06)" xlink:href="#Namnlös_övertoning_11"/><linearGradient id="Namnlös_övertoning_11-8" x1="231.99" y1="479.12" x2="277.67" y2="479.12" gradientTransform="translate(477.33 -32.4) rotate(46.14)" xlink:href="#Namnlös_övertoning_11"/><linearGradient id="Namnlös_övertoning_11-9" x1="56.3" y1="416.7" x2="102.7" y2="416.7" gradientTransform="translate(220.88 94.79) rotate(24.01)" xlink:href="#Namnlös_övertoning_11"/><linearGradient id="Namnlös_övertoning_11-10" x1="160.51" y1="420.53" x2="207.13" y2="420.53" gradientTransform="matrix(0.95, -0.33, 0.33, 0.95, -92.5, 126.06)" xlink:href="#Namnlös_övertoning_11"/><linearGradient id="Namnlös_övertoning_11-11" x1="398.9" y1="384.24" x2="557.29" y2="384.24" gradientTransform="translate(-136.96 173.26) rotate(-27.15)" xlink:href="#Namnlös_övertoning_11"/><linearGradient id="Namnlös_övertoning_11-12" x1="326.78" y1="349.1" x2="373.67" y2="349.1" gradientTransform="matrix(0.51, 0.86, -0.86, 0.51, 456.19, -155.06)" xlink:href="#Namnlös_övertoning_11"/><linearGradient id="Namnlös_övertoning_11-13" x1="580.8" y1="351.18" x2="626.48" y2="351.18" gradientTransform="translate(395.4 -468.27) rotate(46.14)" xlink:href="#Namnlös_övertoning_11"/><linearGradient id="Namnlös_övertoning_11-14" x1="405.1" y1="288.77" x2="451.51" y2="288.77" gradientTransform="translate(102.2 -203.3) rotate(24.01)" xlink:href="#Namnlös_övertoning_11"/><linearGradient id="Namnlös_övertoning_11-15" x1="509.32" y1="292.59" x2="555.94" y2="292.59" gradientTransform="matrix(0.95, -0.33, 0.33, 0.95, -128.46, 87.83)" xlink:href="#Namnlös_övertoning_11"/><linearGradient id="Namnlös_övertoning_11-16" x1="385.18" y1="659.79" x2="543.58" y2="659.79" gradientTransform="translate(-152.8 253.9) rotate(-29.16)" xlink:href="#Namnlös_övertoning_11"/><linearGradient id="Namnlös_övertoning_11-17" x1="313.06" y1="624.64" x2="359.96" y2="624.64" gradientTransform="translate(811.8 27.83) rotate(59.4)" xlink:href="#Namnlös_övertoning_11"/><linearGradient id="Namnlös_övertoning_11-18" x1="567.08" y1="626.73" x2="612.76" y2="626.73" gradientTransform="translate(710.9 -345.83) rotate(46.14)" xlink:href="#Namnlös_övertoning_11"/><linearGradient id="Namnlös_övertoning_11-19" x1="391.39" y1="564.31" x2="437.79" y2="564.31" gradientTransform="translate(335.14 -139.49) rotate(24.01)" xlink:href="#Namnlös_övertoning_11"/><linearGradient id="Namnlös_övertoning_11-20" x1="495.6" y1="568.13" x2="542.22" y2="568.13" gradientTransform="translate(-98.75 129.52) rotate(-19.05)" xlink:href="#Namnlös_övertoning_11"/></defs><path class="cls-1" d="M378.85,236.26a144.62,144.62,0,0,1-2.9,28.56,127.87,127.87,0,0,1-9.49,28.63,116.56,116.56,0,0,1-17.78,27.19,125.25,125.25,0,0,1-26.78,23.09,108.85,108.85,0,0,1-30.73,13.43,170,170,0,0,1-30.89,5.31q-14.64,1-33.62,1H140l4.67-14.8q11.58,0,16.24-6.19t8.37-18.26l41.67-135c1.93-6.86,2.89-11.59,2.89-14.16q0-9.33-5.79-11.9a41.74,41.74,0,0,0-14.64-3.06l4.34-14.8h76.74a228.27,228.27,0,0,1,33.14,2.09,78.25,78.25,0,0,1,27.83,10.14q26.55,15,35,36.35A114.68,114.68,0,0,1,378.85,236.26Zm-46.5-14.48q0-19.78-5.39-32.09t-14.07-18.34a49.63,49.63,0,0,0-19-8,117.84,117.84,0,0,0-22.53-2H263.5l-48.1,157q-2.9,11.1-2.9,13.83,0,15.62,27.35,15.61,29.11,0,47.94-15.93t30.09-42.15A168.72,168.72,0,0,0,329.3,250.9Q332.35,231.93,332.35,221.78Z"/><path class="cls-1" d="M722.15,239.64c0,3.65-1.16,6.19-3.46,7.64a12.57,12.57,0,0,1-6.68,2.17,14.58,14.58,0,0,1-8.36-2.89,8.21,8.21,0,0,0-4.83-1.93q-4,0-6.27,4.5a56.76,56.76,0,0,1,5.07,10.14A37.1,37.1,0,0,1,699.46,272a47.44,47.44,0,0,1-2.89,15.2,46.68,46.68,0,0,1-10.38,16.49q-7.47,8-21.72,13.51t-35.31,5.47q-20.1,0-26.94,3.54t-6.84,10.3a6.77,6.77,0,0,0,2.41,5.22,22.35,22.35,0,0,0,7.32,4q4.9,1.77,17.54,5.22t24.69,7q43.44,12.39,43.44,40.22,0,12.06-8.21,22.36t-27.51,17.05q-19.3,6.76-50.83,6.76A202.07,202.07,0,0,1,575,441.78a84.28,84.28,0,0,1-30.65-10.7q-13.9-8.2-13.91-23.81a27.12,27.12,0,0,1,3.54-13.84,27.47,27.47,0,0,1,8.76-9.49,18.64,18.64,0,0,1,10.06-3.38,10.77,10.77,0,0,1,5.15,1.13,3.51,3.51,0,0,1,2.09,3.22q0,2.08-3.22,6.27-5.62,7.24-5.63,12.87,0,15.45,17.54,20.75a123,123,0,0,0,35.87,5.31q22.51,0,36-6.11t13.44-16.09A11,11,0,0,0,651.2,400q-2.73-2.89-10.37-5.87t-28.08-9.57a248.93,248.93,0,0,1-28.39-10.46q-10.05-4.67-15.2-11T564,347.43q0-13.51,11.5-22t27.43-10.94q-12.54-5-18.66-15a38.88,38.88,0,0,1-6.11-20.6q0-13,8.12-25t22.76-19.39q14.64-7.4,33.3-7.4,27.36,0,41.19,12.87a71.68,71.68,0,0,1,11.18-9.33q5.38-3.54,13.59-3.54,6.27,0,10.06,3.3T722.15,239.64Zm-57.59,19.14a22.79,22.79,0,0,0-2.1-9.89,17,17,0,0,0-6.35-7.16,17.66,17.66,0,0,0-9.73-2.73q-10,0-17.54,8.76a60,60,0,0,0-11.5,20.92Q613.4,280.83,613.4,290q0,9.83,4.74,14.48t12.79,4.67q16.25,0,24.94-17.54T664.56,258.78Z"/><path class="cls-1" d="M864.52,254.44A16.94,16.94,0,0,1,860.1,266q-4.44,5-12,5-5.79,0-9.09-2.25a15,15,0,0,1-5.15-6.28q-1.85-4-4.58-11.9a17.8,17.8,0,0,0-5.07-8.53q-3.47-3-12.79-3.05a27,27,0,0,0-15,4.34q-6.67,4.35-6.68,11.42a16.87,16.87,0,0,0,2.74,9.17,45.48,45.48,0,0,0,6.67,8.21q3.95,3.86,12.31,10.94Q827.2,296,834.36,304.79t7.15,21.88a36.49,36.49,0,0,1-6.11,20.11q-6.12,9.5-20.27,15.45t-36.19,5.95q-31.7,0-44.57-11.67t-12.87-22.6a18.28,18.28,0,0,1,5-12.71q5-5.46,13.19-5.47,16.41,0,18.82,21.08,1.13,9,5.07,14.23t16.33,5.23q10.77,0,17.7-5.47a17.06,17.06,0,0,0,6.91-14,18.59,18.59,0,0,0-2.33-8.85q-2.32-4.35-9.73-10.62-13-10.93-21.48-19.3A75.27,75.27,0,0,1,758.18,282a32.71,32.71,0,0,1-4.34-16.25q0-7.56,5-16.41t18.82-15.52q13.83-6.68,37.48-6.68,14.48,0,24.45,2.66T855,236.5a23.67,23.67,0,0,1,7.48,8.69A22.18,22.18,0,0,1,864.52,254.44Z"/><path class="cls-1" d="M1034.38,508.26a144.62,144.62,0,0,1-2.9,28.56,127.87,127.87,0,0,1-9.49,28.63,116.56,116.56,0,0,1-17.78,27.19,125.25,125.25,0,0,1-26.78,23.09,108.72,108.72,0,0,1-30.73,13.43,170,170,0,0,1-30.89,5.31q-14.64,1-33.62,1H781.48l4.67-14.8c7.72,0,27.13-2.06,30.25-6.19s5.89-10.22,8.36-18.26l41.67-135c1.93-6.86,2.89-11.59,2.89-14.16q0-9.33-5.79-11.9a41.74,41.74,0,0,0-14.64-3.06l4.34-14.8H930a228.27,228.27,0,0,1,33.14,2.09,78.25,78.25,0,0,1,27.83,10.14q26.55,15,35,36.35A114.68,114.68,0,0,1,1034.38,508.26Zm-46.49-14.48q0-19.78-5.39-32.09t-14.08-18.34a49.63,49.63,0,0,0-19-8,117.84,117.84,0,0,0-22.53-2H919l-48.1,157Q868,601.41,868,604.14q0,15.61,27.34,15.61,29.11,0,47.94-15.93t30.09-42.15a168.72,168.72,0,0,0,11.42-38.77Q987.88,503.93,987.89,493.78Z"/><path class="cls-1" d="M1207.8,596.9a115,115,0,0,1-10.46,17.38,79.14,79.14,0,0,1-12.87,13.83,56.83,56.83,0,0,1-14.24,9,37.47,37.47,0,0,1-14.88,3.06q-16.89,0-21.63-10.22T1129,605.59a167,167,0,0,1-25.42,24.94,45.72,45.72,0,0,1-28.63,9.65q-9.5,0-15.77-5.23a30.42,30.42,0,0,1-9.25-14.08,59.21,59.21,0,0,1-3-19q0-21.72,11.1-45.85a117.39,117.39,0,0,1,30.16-40.54q19.07-16.41,41.1-16.41,10.14,0,15.93,4a22,22,0,0,1,8,9,76.62,76.62,0,0,1,3.78,11.1l6-20.11h35.56l-29.93,98.14q-3.21,10.62-3.21,12.87a5,5,0,0,0,1.36,3.54,4.23,4.23,0,0,0,3.14,1.44q10.45,0,22.36-22.2Zm-60-64.18a28.65,28.65,0,0,0-3-13.52q-3-5.62-10.86-5.63-12.07,0-23.41,13.92t-18.34,33.62q-7,19.71-7,33.22,0,19.47,12.23,19.46,8.52,0,17.45-7.8t16.49-20.83a130.13,130.13,0,0,0,12.15-27.35A86.06,86.06,0,0,0,1147.79,532.72Z"/><path class="cls-1" d="M1308.18,596.9q-6.27,14-19.62,28.64t-33.47,14.64q-13.5,0-20.27-6.68a21.52,21.52,0,0,1-6.75-15.84q0-9.33,6-25.9L1254.77,535q3.06-7.72,3.06-10.46a5,5,0,0,0-4.67-4.66q-5.46,0-12,8.52a89.41,89.41,0,0,0-9.73,15.28h-14.16q9.49-21.23,24.69-32.89t30.33-11.67q10.62,0,17.61,5.23a16.52,16.52,0,0,1,7,13.92,51.89,51.89,0,0,1-3.54,18.5l-25.09,67.4q-2.58,6.92-2.58,11.26a5.89,5.89,0,0,0,1.53,3.78,4.3,4.3,0,0,0,3.3,1.85q4.83,0,10-5.14t12.87-19Zm11.91-162.64a20.3,20.3,0,0,1-6.2,14.88,19.93,19.93,0,0,1-14.56,6.2,20.15,20.15,0,0,1-15-6.2,20.57,20.57,0,0,1-6-14.88,21.09,21.09,0,0,1,31.61-17.94,21.13,21.13,0,0,1,7.48,7.4A20.22,20.22,0,0,1,1320.09,434.26Z"/><path class="cls-1" d="M1424.49,413.51,1368.19,598q-4.35,13.68-4.35,17.05a6.77,6.77,0,0,0,1.29,4.35,4.12,4.12,0,0,0,3.38,1.6q4.18,0,11.58-7.56a59.3,59.3,0,0,0,11.75-17.21H1407a143,143,0,0,1-21.08,29.44q-13.19,14.47-33,14.48-12.06,0-19.38-6.68a21.09,21.09,0,0,1-7.32-16.17q0-7.4,5-24.29l41.18-134.17q4-13.19,4-17.53,0-5.62-4.58-7.4t-17.14-1.77l3.87-14.8h17.21q11.1,0,20.27-.8a101.81,101.81,0,0,0,17.53-3.06Z"/><path class="cls-1" d="M1577,529.5q0,28-18.9,60.65t-48.59,61.53q-29.67,28.88-61.69,46.73c-21.34,11.91-54,17.86-70,17.86q-11,0-18.67-4.58c-5.14-3.06,6.28-7.48,6.28-13.28a13.81,13.81,0,0,1,5.63-11.34,20.28,20.28,0,0,1,12.87-4.42,40,40,0,0,1,9.82,1,86,86,0,0,1,10.29,3.62q13.51,4.5,20.11,4.51a31.08,31.08,0,0,0,19.55-6.68,55.81,55.81,0,0,0,14.07-16Q1471,646,1471,603.82q0-10.29-.65-21.64t-1.93-23.24a171.87,171.87,0,0,0-3.7-21.88,25.9,25.9,0,0,0-4.42-9.33q-3.13-4.18-7.16-4.18-12.56,0-15.45,28.31h-13.19q3.71-32.18,16.73-42.47t25.1-10.3q24.29,0,33.22,26.31t8.93,62.66q0,30.08-3.22,49.38,28.63-33.45,30.89-36.84a142.64,142.64,0,0,0,12.06-21.31,49.77,49.77,0,0,0,4.67-20.51q0-7.89-5.47-21.72-5.64-14-5.63-20.43,0-7.72,4.1-12.63t9.73-4.91a17.44,17.44,0,0,1,10.38,3.54,25,25,0,0,1,8,10.38A40.19,40.19,0,0,1,1577,529.5Z"/><path class="cls-2" d="M270.41,161.53c2.41,78.4-29.58,23.13-71.07,42s-27.15,77.57-79.29,26c-31.48-31.14-1.08-86.06,40.41-104.88S269.07,118.07,270.41,161.53Z"/><path class="cls-3" d="M254.84,146.58c-10.22,39.84-48.92-13.14-83.18,2.4S146.32,230,114.83,211c-19-11.49,10.87-68.38,45.14-83.92S260.51,124.49,254.84,146.58Z"/><ellipse class="cls-2" cx="57.07" cy="182.04" rx="25.93" ry="41.97" transform="translate(-131.46 211.23) rotate(-81.39)"/><ellipse class="cls-4" cx="44.23" cy="179.76" rx="20.55" ry="24.37" transform="translate(-138.88 207.03) rotate(-84.65)"/><ellipse class="cls-2" cx="270.01" cy="83.1" rx="41.14" ry="27.34" transform="translate(118.55 321.57) rotate(-74.68)"/><ellipse class="cls-5" cx="274.32" cy="73.57" rx="24.77" ry="20.91" transform="translate(117.05 310.07) rotate(-71.39)"/><ellipse class="cls-2" cx="98.06" cy="101.51" rx="30.36" ry="46.44" transform="translate(-43.08 102.62) rotate(-46.44)"/><ellipse class="cls-6" cx="89.12" cy="91.9" rx="22.17" ry="27.82" transform="translate(-38.67 99.44) rotate(-49.26)"/><ellipse class="cls-2" cx="184.95" cy="61.05" rx="29.77" ry="43.85" transform="translate(-5.59 20.72) rotate(-6.32)"/><ellipse class="cls-7" cx="185.1" cy="50.86" rx="22.68" ry="28.01" transform="translate(-4.41 20.29) rotate(-6.2)"/><path class="cls-2" d="M307.42,571.36c5,78.27-28.79,24.1-69.64,44.29s-24.56,78.43-78.37,28.62c-32.5-30.08-3.94-86,36.9-106.16S304.64,528,307.42,571.36Z"/><path class="cls-8" d="M291.37,556.93c-8.89,40.16-49.34-11.51-83.06,5.17S185.68,644,153.57,626c-19.39-10.84,8.6-68.69,42.33-85.37S296.3,534.67,291.37,556.93Z"/><ellipse class="cls-2" cx="94.89" cy="598.94" rx="25.93" ry="41.97" transform="translate(-511.03 623.24) rotate(-83.29)"/><ellipse class="cls-9" cx="81.97" cy="597.09" rx="20.55" ry="24.37" transform="translate(-518.97 642.99) rotate(-86.55)"/><ellipse class="cls-2" cx="304.42" cy="492.98" rx="41.14" ry="27.34" transform="translate(-245.73 674.74) rotate(-76.59)"/><ellipse class="cls-10" cx="308.41" cy="483.32" rx="24.77" ry="20.91" transform="translate(-243.17 639.75) rotate(-73.29)"/><ellipse class="cls-2" cx="133.17" cy="517.09" rx="30.36" ry="46.44" transform="translate(-341.69 272.9) rotate(-48.34)"/><ellipse class="cls-11" cx="123.92" cy="507.78" rx="22.17" ry="27.82" transform="translate(-349.32 285.86) rotate(-51.16)"/><ellipse class="cls-2" cx="218.67" cy="473.77" rx="29.77" ry="43.85" transform="translate(-65.48 36.13) rotate(-8.22)"/><ellipse class="cls-12" cx="218.49" cy="463.58" rx="22.68" ry="28.01" transform="translate(-63.15 35.42) rotate(-8.1)"/><path class="cls-2" d="M559.42,298.36c5,78.27-28.79,24.1-69.64,44.29s-24.56,78.43-78.37,28.62c-32.5-30.08-3.94-86,36.9-106.16S556.64,255,559.42,298.36Z"/><path class="cls-13" d="M543.37,283.93c-8.89,40.16-49.34-11.51-83.06,5.17S437.68,371,405.57,353c-19.39-10.84,8.6-68.69,42.33-85.37S548.3,261.67,543.37,283.93Z"/><ellipse class="cls-2" cx="346.89" cy="325.94" rx="25.93" ry="41.97" transform="translate(-17.33 632.39) rotate(-83.29)"/><ellipse class="cls-14" cx="333.97" cy="324.09" rx="20.55" ry="24.37" transform="translate(-9.63 637.96) rotate(-86.55)"/><ellipse class="cls-2" cx="556.42" cy="219.98" rx="41.14" ry="27.34" transform="translate(213.36 710.2) rotate(-76.59)"/><ellipse class="cls-15" cx="560.41" cy="210.32" rx="24.77" ry="20.91" transform="translate(197.86 686.6) rotate(-73.29)"/><ellipse class="cls-2" cx="385.17" cy="244.09" rx="30.36" ry="46.44" transform="translate(-53.21 369.64) rotate(-48.34)"/><ellipse class="cls-16" cx="375.92" cy="234.78" rx="22.17" ry="27.82" transform="translate(-42.7 380.36) rotate(-51.16)"/><ellipse class="cls-2" cx="470.67" cy="200.77" rx="29.77" ry="43.85" transform="translate(-23.87 69.35) rotate(-8.22)"/><ellipse class="cls-17" cx="470.49" cy="190.58" rx="22.68" ry="28.01" transform="translate(-22.16 68.21) rotate(-8.1)"/><path class="cls-2" d="M669.82,601.8c7.75,78.05-27.93,25.09-68,46.71s-21.8,79.24-77.33,31.35c-33.53-28.92-7-85.78,33.16-107.39S665.52,558.53,669.82,601.8Z"/><path class="cls-18" d="M653.27,588c-7.48,40.44-49.71-9.78-82.83,8.07S550.7,678.61,518,661.79c-19.76-10.16,6.18-69,39.3-86.8S657.42,565.53,653.27,588Z"/><ellipse class="cls-2" cx="458.38" cy="636.82" rx="25.93" ry="41.97" transform="translate(-213.82 1041.54) rotate(-85.31)"/><ellipse class="cls-19" cx="445.41" cy="635.43" rx="20.55" ry="24.37" transform="translate(-201 1064.74) rotate(-88.56)"/><ellipse class="cls-2" cx="664.07" cy="523.58" rx="41.14" ry="27.34" transform="translate(19.54 1071.03) rotate(-78.6)"/><ellipse class="cls-20" cx="667.72" cy="513.78" rx="24.77" ry="20.91" transform="translate(1.34 1029.29) rotate(-75.3)"/><ellipse class="cls-2" cx="493.77" cy="553.68" rx="30.36" ry="46.44" transform="translate(-247.61 580.62) rotate(-50.35)"/><ellipse class="cls-21" cx="484.2" cy="544.7" rx="22.17" ry="27.82" transform="translate(-242.04 605.78) rotate(-53.17)"/><ellipse class="cls-2" cx="577.7" cy="507.39" rx="29.77" ry="43.85" transform="translate(-80.92 110.66) rotate(-10.23)"/><ellipse class="cls-22" cx="577.16" cy="497.21" rx="22.68" ry="28.01" transform="translate(-78.33 109.06) rotate(-10.11)"/></svg>