<?xml version="1.0" encoding="utf-8"?>
<!-- Generator: Adobe Illustrator 27.0.0, SVG Export Plug-In . SVG Version: 6.00 Build 0)  -->
<svg version="1.1" id="Layer_1" xmlns="http://www.w3.org/2000/svg" xmlns:xlink="http://www.w3.org/1999/xlink" x="0px" y="0px"
	 viewBox="0 0 100 100" style="enable-background:new 0 0 100 100;" xml:space="preserve">
<style type="text/css">
	.st0{fill:#FFFFFF;}
	.st1{fill:none;stroke:#FFFFFF;stroke-miterlimit:10;}
</style>
<g>
	<path class="st0" d="M13.27,27.34h-0.43c-0.73-1.39-0.14-2.93,0.97-3.47c0.55-0.26,1.16-0.33,1.77-0.43v-0.55c0,0,0,0,0,0
		c0-1.21,0.72-1.66,1.34-2.26c0.54-0.52,1.1-1.01,1.7-1.48c-0.27,0.07-0.55,0.1-0.84,0.1c-1.1,0-1.86-0.67-2.96-0.67
		c-0.8,0-1.36,0.45-1.58,1.04h-0.52c0.57-1.42,1.89-2.91,3.85-2.91c1.17,0,2.18,0.56,3.35,0.56c0.78,0,1.47-0.24,1.98-0.57
		l-0.03,0.59c-0.3,0.2-0.59,0.38-0.88,0.57c-0.26,0.18-0.52,0.37-0.79,0.55c-1,0.77-1.74,1.73-1.74,3.65l0,3.15v4.23
		c0,1.25-1.32,2.27-2.56,3.03c1.07,0.05,2.13,0.28,3.16,0.38c0.35-0.22,0.49-0.61,0.49-1.16V20.41l4.32-3.82
		c1.05,0.72,2.17,1.28,3.47,1.71l0.7-0.65l0.62,0.47l-2.73,2.7c-1.21-0.35-2.3-0.89-3.24-1.54v4.08h4.46l-2.53,2.61h-1.92v3.18
		c0,0-2.8,3.74-4.55,5.3c-0.5,0.44-1.45,0.79-2.36,0.8h-0.65c-0.57,0-1.07,0.31-1.07,0.82c0,0.52,0.43,1.08,1.01,1.09v0.58
		c-0.02,0-0.04,0-0.06,0c-1.51,0-2.75-1.14-2.75-2.68c0-1.51,1.13-2.36,2.53-2.56c0.8-1.19,0.78-2.94,0.78-4.99
		c0-0.53,0-1.06,0-1.59c-0.35,0-0.69,0-1.04,0C13.68,25.92,13.1,26.43,13.27,27.34z"/>
	<path class="st0" d="M26.73,31.25c0-1.19,0.92-2.33,2.57-3.21c-1.03-0.44-1.82-1.09-1.82-2.12c0-0.98,0.73-1.54,1.39-1.88
		l2.46-1.28l3.29,2.12l0.9-0.73l0.39,0.48l-1.16,0.94v5.62l1.07,1.07l0.96-0.64l0.11,0.43l-3.1,2.13l-1.7-1.71l-2.35,1.71
		C28.32,34,26.73,32.91,26.73,31.25z M28.13,25.79c0,1.43,2.36,2.02,3.85,2.37c0-0.7,0-1.39,0-2.09l-2.63-1.62
		C28.69,24.8,28.13,25.2,28.13,25.79z M29.71,28.2c-0.15,0.22-0.28,0.6-0.28,1.02c0,1.26,0.7,3.04,2.09,3.04
		c0.16,0,0.31-0.02,0.46-0.07c0-1.12,0-2.25,0-3.37C31.26,28.66,30.45,28.47,29.71,28.2z"/>
	<path class="st0" d="M37.94,19.87v-0.32l3.63-2.56H42v14.42l0.85,0.85l0.64-0.53l0.32,0.43l-2.78,1.92l-2.35-2.03l-0.85,0.53
		l-0.32-0.43l1.5-0.96V21.05C39.01,20.28,38.51,20.05,37.94,19.87z M44.67,25.21l-0.21,0.43l4.38,6.52l0.96-0.64l0.43,0.53
		l-3.42,2.24l-4.38-6.41l3.31-5.13h0.21c0.25,0.46,0.77,0.86,1.44,0.86c0.67,0,1.19-0.39,1.44-0.86h0.43
		c-0.23,1.58-0.94,3.2-2.74,3.2C45.72,25.95,45.13,25.63,44.67,25.21z"/>
	<path class="st0" d="M50.74,32.15l1.05-0.85v-5.87l5.34-2.78l2.24,3.42v0.11l-4.81,2.99v0.96l2.67,1.82l2.46-1.92l0.32,0.53
		l-4.59,3.74l-3.31-2.46l-0.99,0.8L50.74,32.15z M56.81,26.98L55,24.36l-0.43,0.24v3.8L56.81,26.98z"/>
	<path class="st0" d="M14.56,50.68L14.45,51c-0.86-0.23-1.58-1.01-1.58-2.06c0-1.4,1.2-2.51,2.69-2.51c0.01,0,0.02,0,0.03,0V43.4
		c-0.33-0.38-0.66-0.62-0.99-0.62c-0.64,0-0.99,0.44-0.99,1.19l-0.43-0.11c-0.04-0.2-0.06-0.4-0.06-0.61c0-1.62,1.25-2.94,2.79-2.94
		c1.62,0,2.22,1.16,2.81,2.17l5.36,8.97c0-2.45,0-4.9,0-7.35c-0.92-0.08-1.71-0.48-2.24-0.98l-0.85,0.95l-0.32-0.32l2.78-3.21
		l0.44,0.01c0.37,0.47,0.94,0.95,1.73,0.95c0.74,0,1.29-0.5,1.36-1.17l0.3,0.01c0.18,0.34,0.27,0.73,0.27,1.11
		c0,1.54-1.32,2.54-2.84,2.65v13.11h-0.84L16.4,44.56c-0.06-0.1-0.12-0.2-0.18-0.3v8.88c0.73,0.11,1.79,0.45,2.74,1.4l0.75-0.85
		l0.32,0.32l-2.87,3.2c-0.43-0.46-1.04-0.96-1.85-0.96c-0.64,0-1.14,0.4-1.14,1.04c0,0.76,0.71,1.3,1.49,1.22l-0.1,0.42
		c-1.56,0.26-3.34-0.84-3.34-2.81c0-1.8,1.52-3.02,3.37-3.02c0.01,0,0.02,0,0.02,0v-3.66c-0.08,0-0.16,0-0.24,0
		c-0.57,0-1.08,0.17-1.08,0.73C14.27,50.38,14.39,50.58,14.56,50.68z"/>
	<path class="st0" d="M26.67,55.29l1.05-0.85v-5.87l5.34-2.78l2.24,3.42v0.11L30.5,52.3v0.96l2.67,1.82l2.46-1.92l0.32,0.53
		l-4.59,3.74l-3.31-2.46l-0.99,0.8L26.67,55.29z M32.74,50.11l-1.81-2.62l-0.43,0.24v3.8L32.74,50.11z"/>
	<path class="st0" d="M46.56,47.75l-0.83,0.67l0,6.05l1.76,1.16l0.48-0.28V48.6l-0.99-0.9l2.33-1.93l1.4,1.23l0.96-0.78l0.39,0.48
		l-1.32,1.07l0,7.01l-5.17,2.74l-2.15-1.55l-2.81,1.55l-2.55-1.84l-0.69,0.56l-0.39-0.49l1-0.81v-4.74c0-1.09-0.23-1.55-0.74-2.08
		c-0.52-0.53-1.26-1.08-1.26-2.07c0-1.26,1.26-2.47,2.96-2.63l0.11,0.43C38.56,44,38.09,44.4,38.09,45c0,0.72,0.62,1.14,1.09,1.44
		c1.37,0.88,1.59,1.46,1.59,3.58l0,4.45l1.76,1.16l0.42-0.25V48.6l-0.99-0.9l2.34-1.93L46.56,47.75z"/>
	<path class="st0" d="M52.66,56.29c0-0.92,0.37-1.74,2.12-3.37l-1.69-1.33v-3.12l4.61-2.67c0.32,0.48,0.87,0.97,1.63,0.97
		c0.58,0,1.06-0.4,1.11-0.93l0.01,0c0,0,0,0,0,0h0.63c-0.17,1.7-0.69,2.97-1.94,4.13l1.92,1.42v3.37l-4.4,2.67
		c-0.3-0.53-0.86-1.04-1.65-1.04c-0.52,0-1.05,0.3-1.05,0.84c0,0.26,0.14,0.45,0.32,0.55l-0.22,0.59
		C53.28,58.07,52.66,57.34,52.66,56.29z M56.14,52.55c-0.79,0.68-1.58,1.34-2.13,2.02c0.42-0.33,0.97-0.53,1.56-0.53
		c1.28,0,2.19,0.81,2.6,1.71v-2.9l-1.23-0.98L56.14,52.55z M58.52,49.67c0.32-0.28,0.65-0.6,0.95-1.02
		c-0.34,0.15-0.72,0.23-1.12,0.23c-0.97,0-1.94-0.51-2.4-1.64v2.9l0.92,0.94L58.52,49.67z"/>
	<path class="st0" d="M14.19,76.9c0.92,0,1.7,0.74,1.7,1.66c0,0.91-0.7,1.6-1.6,1.6c-0.23,0-0.46-0.05-0.67-0.15
		c0.51,1.1,1.58,1.92,3.08,1.92c1.64,0,4.26-1.07,4.26-4.98v-6.79c0-4.44,1.36-4.73,3.6-6.43l0.28,0.28
		c-0.67,0.74-0.93,1.87-0.93,4.32v6.15c0,7.7-5.89,7.98-7.14,7.98c-0.89,0-1.78-0.17-2.57-0.57c-0.96-0.49-1.96-1.46-1.96-2.84
		C12.22,77.9,13.05,76.9,14.19,76.9z M16.51,73.45c0.18,0,0.37,0,0.55,0v5.78c0,0.81-0.44,1.25-1.07,1.43v0.74
		c2.59,0,4.01-1.98,4.01-3.99v-9.16c0-1.9,0.63-2.74,3.01-4.48l-0.5-0.46c-0.67,0.52-1.47,0.79-2.39,0.79
		c-1.4,0-2.63-0.62-4.02-0.62c-1.79,0-3.31,1.18-3.31,2.97c0,1.35,0.88,2.34,1.9,2.69l0.09-0.19c-0.42-0.14-0.77-0.54-0.77-1.09
		c0-1.05,1.05-1.47,2.1-1.47c0.79,0,1.55,0.17,2.37,0.17c0.41,0,0.83-0.03,1.24-0.11c-2.38,1.73-2.66,2.42-2.66,3.62v0.88
		c-1.1,0.18-2.6,0.65-2.6,2.48c0,0.46,0.12,0.91,0.34,1.31h0.43C15.08,73.9,15.67,73.45,16.51,73.45z"/>
	<path class="st0" d="M25.43,78.35l1.14-0.92c0-1.91,0-3.82,0-5.73l5.02-2.88l3.2,2.46v6.09l-4.91,2.99l-3.13-2.26l-0.93,0.75
		L25.43,78.35z M32.02,78.64v-6.41l-2.56-1.71v6.41L32.02,78.64z"/>
	<path class="st0" d="M35.97,71.18l-0.23-0.32l2.87-1.86c1.05,0.39,1.76,1.22,1.76,2.68v5.36l1.4,1.33l1.06-0.78l0-1.08v-4.58
		l-1.16-1.02l2.1-1.93l1.47,1.27l0.72-0.59l0.39,0.48l-0.96,0.78v5.3l0.01,0.93c0.01,0.67,0.16,1.23,0.6,1.53l0.83-0.68l0.41,0.56
		l-2.67,1.84c-0.82-0.04-1.55-0.74-1.71-2.17l-2.81,2.21l-3.04-2.54l0.7-0.58l0-5.23c0,0,0,0,0-0.01c0-0.68-0.22-1.26-0.89-1.26
		C36.46,70.82,36.19,71,35.97,71.18z"/>
	<path class="st0" d="M54.97,78.05l-3.33,2.41l-2.45-1.92l-0.75,0.53l-0.32-0.43l1.39-0.96V71.8l-0.75-0.96l-0.85,0.53l-0.32-0.43
		l2.99-2.03l1.63,1.76l1.55-1.76H54c0.21,0.33,0.59,0.55,1.01,0.55c0.46,0,0.82-0.25,1.01-0.55h0.66c-0.26,2.76-1.55,3.11-2.22,3.11
		c-0.49,0-1.27-0.22-1.99-0.92v6.57l0.88,0.69l1.2-0.82L54.97,78.05z"/>
	<path class="st0" d="M69.18,78.43l-3.31,2.24l-2.24-2.03l0.75-0.75V72.4l-1.6-1.39l-0.96,0.76v6.12l0.96,0.85l-2.14,1.92
		l-2.56-2.03l0.86-0.75v-5.92l-0.86-0.96l-0.85,0.53l-0.32-0.43l3.1-2.14l1.72,1.91l2.45-1.91l2.53,2.17l0.94-0.76l0.39,0.49
		l-1.08,0.87v5.82l0.96,0.85l0.85-0.64L69.18,78.43z"/>
	<path class="st0" d="M70.11,77.52c0-1.19,0.92-2.33,2.57-3.21c-1.03-0.44-1.82-1.09-1.82-2.12c0-0.98,0.73-1.54,1.39-1.88
		l2.46-1.28l3.29,2.12l0.9-0.73l0.39,0.48l-1.16,0.94v5.62l1.07,1.07l0.96-0.64l0.11,0.43l-3.1,2.13l-1.7-1.71l-2.35,1.71
		C71.7,80.27,70.11,79.19,70.11,77.52z M71.51,72.06c0,1.43,2.36,2.02,3.85,2.37c0-0.7,0-1.39,0-2.09l-2.63-1.62
		C72.07,71.07,71.51,71.48,71.51,72.06z M73.09,74.47c-0.15,0.22-0.28,0.6-0.28,1.02c0,1.26,0.7,3.04,2.09,3.04
		c0.16,0,0.31-0.02,0.46-0.07c0-1.12,0-2.25,0-3.37C74.65,74.93,73.83,74.74,73.09,74.47z"/>
	<path class="st0" d="M86.24,78.53L86.88,78l0.32,0.43l-2.78,1.92l-2.35-2.03l-0.85,0.53l-0.32-0.43l1.5-0.96v-9.7
		c0-1.06-0.09-1.3-1.07-1.62v-0.32l3.63-2.56h0.43v14.42L86.24,78.53z"/>
</g>
<rect x="2.2" y="2.03" class="st1" width="95" height="95"/>
<rect x="4.7" y="4.53" class="st1" width="90" height="90"/>
</svg>
