<?xml version="1.0" encoding="utf-8"?>
<!-- Generator: Adobe Illustrator 26.2.1, SVG Export Plug-In . SVG Version: 6.00 Build 0)  -->
<svg version="1.1" id="Layer_1" xmlns="http://www.w3.org/2000/svg" xmlns:xlink="http://www.w3.org/1999/xlink" x="0px" y="0px"
	 viewBox="0 0 476.9 366.9" style="enable-background:new 0 0 476.9 366.9;" xml:space="preserve">
<g>
	<path d="M476.7,65.3c1.4-15.7-3.4-31.4-13.4-43.6c-10-12.2-24.4-20-40.1-21.7c-15.7,1.7-30.1,9.5-40.1,21.7
		c-10,12.2-14.8,27.9-13.4,43.6c-0.6,12.7,2.5,25.3,9,36.2c6.4,10.9,15.9,19.8,27.3,25.4L396.6,330c-0.1,1-0.1,2,0,3.1
		c0.4,6.9,3.5,13.3,8.7,17.9c5.2,4.6,11.9,6.9,18.8,6.5c6.9-0.4,13.3-3.5,17.9-8.7c4.6-5.2,6.9-11.9,6.5-18.8l-9.4-202.8h0
		c11.7-5.4,21.5-14.2,28.2-25.3S477.3,78.2,476.7,65.3L476.7,65.3z"/>
	<path d="M179.4,8.1C131.8,8.1,86.2,27,52.5,60.6C18.9,94.3,0,139.9,0,187.5c0,47.6,18.9,93.2,52.5,126.9
		c33.6,33.6,79.3,52.5,126.9,52.5c47.6,0,93.2-18.9,126.9-52.5c33.6-33.6,52.5-79.3,52.5-126.9c0-47.6-18.9-93.2-52.5-126.9
		C272.6,27,227,8.1,179.4,8.1L179.4,8.1z M165.4,84.3l134.3,8.6c0,0.9,0.2,1.8,0,2.7c-1.6,24.1-15.8,45.5-37.5,56.2
		c-21.6,10.7-47.3,9-67.4-4.3c-20.1-13.4-31.5-36.5-29.9-60.5C165,86,165.3,85.2,165.4,84.3L165.4,84.3z M122.1,67.2
		c12.8,5.8,21.9,17.6,24.1,31.4c2.3,13.9-2.5,27.9-12.8,37.5c-12.8-5.8-21.9-17.6-24.1-31.4C107.1,90.9,111.9,76.8,122.1,67.2z
		 M93.4,119.2L93.4,119.2c11.9,7.5,19.3,20.4,19.7,34.4c-12.8,5.8-27.7,4.8-39.6-2.7c-11.9-7.5-19.3-20.4-19.7-34.5
		c12.8-5.8,27.7-4.8,39.6,2.7L93.4,119.2z M88.3,208.6c-13.1,5.1-27.9,3.3-39.3-4.8c3-13.7,12.7-25,25.8-30.1
		c13.1-5.1,27.9-3.3,39.3,4.8C111.1,192.2,101.4,203.5,88.3,208.6z M207.9,312.1c-21.9,10-47.6,7.6-67.2-6.4
		c-19.7-14-30.4-37.4-28.1-61.4c2.3-24,17.2-45,39.1-55c0.8-0.4,1.7-0.5,2.6-0.9l56,122.4C209.4,311.1,208.8,311.7,207.9,312.1
		L207.9,312.1z M301.2,237L301.2,237c-13.4,20-36.6,31.4-60.6,29.8c-24.1-1.6-45.5-16-56.1-37.6s-8.9-47.4,4.5-67.4
		c0.5-0.8,1.2-1.4,1.7-2l111.7,74.9C302,235.4,301.7,236.2,301.2,237L301.2,237z"/>
	<path d="M154.9,243.9c0,3.9-3.2,7.1-7.1,7.1c-3.9,0-7.1-3.2-7.1-7.1c0-3.9,3.2-7.1,7.1-7.1C151.7,236.8,154.9,240,154.9,243.9"/>
	<path d="M184.9,282.6c0,3.9-3.2,7.1-7.1,7.1c-3.9,0-7.1-3.2-7.1-7.1s3.2-7.1,7.1-7.1C181.7,275.5,184.9,278.6,184.9,282.6"/>
	<path d="M218.9,209.6c0,3.9-3.2,7.1-7.1,7.1s-7.1-3.2-7.1-7.1s3.2-7.1,7.1-7.1S218.9,205.6,218.9,209.6"/>
	<path d="M268.3,112.2c0,3.9-3.2,7.1-7.1,7.1c-3.9,0-7.1-3.2-7.1-7.1c0-3.9,3.2-7.1,7.1-7.1C265.1,105.1,268.3,108.3,268.3,112.2"/>
	<path d="M216.9,126c0,3.9-3.2,7.1-7.1,7.1c-3.9,0-7.1-3.2-7.1-7.1c0-3.9,3.2-7.1,7.1-7.1C213.7,118.9,216.9,122.1,216.9,126"/>
</g>
</svg>
