<svg xmlns="http://www.w3.org/2000/svg" x="0px" y="0px"
width="96" height="96"
viewBox="0 0 172 172"
style=" fill:#000000;"><defs><linearGradient x1="85.39262" y1="34.9375" x2="85.39262" y2="58.12794" gradientUnits="userSpaceOnUse" id="color-1"><stop offset="0" stop-color="#8ab4ff"></stop><stop offset="1" stop-color="#e492ff"></stop></linearGradient><linearGradient x1="60.68644" y1="57.78125" x2="60.68644" y2="85.04325" gradientUnits="userSpaceOnUse" id="color-2"><stop offset="0" stop-color="#8ab4ff"></stop><stop offset="1" stop-color="#e492ff"></stop></linearGradient><linearGradient x1="80.64112" y1="13.4375" x2="80.64112" y2="157.10856" gradientUnits="userSpaceOnUse" id="color-3"><stop offset="0" stop-color="#1a6dff"></stop><stop offset="1" stop-color="#c822ff"></stop></linearGradient><linearGradient x1="89.6765" y1="13.4375" x2="89.6765" y2="157.10856" gradientUnits="userSpaceOnUse" id="color-4"><stop offset="0" stop-color="#1a6dff"></stop><stop offset="1" stop-color="#c822ff"></stop></linearGradient></defs><g fill="none" fill-rule="nonzero" stroke="none" stroke-width="1" stroke-linecap="butt" stroke-linejoin="miter" stroke-miterlimit="10" stroke-dasharray="" stroke-dashoffset="0" font-family="none" font-weight="none" font-size="none" text-anchor="none" style="mix-blend-mode: normal"><path d="M0,172v-172h172v172z" fill="none"></path><g id="original-icon"><path d="M97.74437,38.68119l-17.10325,17.10325l-7.60025,-7.60025c0,0 9.50031,-9.503 24.7035,-9.503z" fill="url(#color-1)"></path><path d="M52.1375,84.29075l17.10056,-17.10325l-7.60025,-7.60025c0,0 -9.50031,9.50031 -9.50031,24.7035z" fill="url(#color-2)"></path><path d="M80.64112,118.25c13.63906,0 26.46113,-5.31319 36.10656,-14.95594c9.64544,-9.64275 14.95594,-22.4675 14.95594,-36.10656c0,-13.63906 -5.31319,-26.46112 -14.95594,-36.10656c-9.64275,-9.64544 -22.4675,-14.95594 -36.10656,-14.95594c-13.63906,0 -26.46112,5.31319 -36.10656,14.95594c-9.64544,9.64275 -14.95594,22.4675 -14.95594,36.10656c0,13.63906 5.31319,26.46113 14.95594,36.10656c9.64275,9.64544 22.4675,14.95594 36.10656,14.95594zM61.69694,52.04344l15.14406,15.14406l-28.94706,28.94706c-2.55581,-13.96425 3.01,-32.02694 13.803,-44.09112zM99.57456,82.32081l-15.13331,-15.13331l28.94706,-28.94706c2.54506,13.96156 -3.02344,32.01888 -13.81375,44.08037zM95.77444,86.12094c-12.06419,10.793 -30.11881,16.36688 -44.08037,13.81375l28.94706,-28.94706zM80.64112,63.38738l-15.14406,-15.14406c12.0615,-10.79569 30.12687,-16.36956 44.0965,-13.80569zM56.41331,105.8875c0.80625,0.04031 1.60981,0.086 2.42681,0.086c14.00456,-0.00269 29.58669,-5.91519 40.75056,-16.03631l11.36006,11.36006c-8.36619,7.45781 -19.00869,11.57775 -30.30963,11.57775c-8.71019,0 -17.028,-2.46175 -24.22781,-6.9875zM114.75356,97.49981l-11.37619,-11.37619c10.707,-11.81156 16.70281,-28.54662 15.97181,-43.1505c4.52038,7.19444 6.97944,15.50688 6.97944,24.21438c0,11.30094 -4.11994,21.94344 -11.57506,30.31231zM104.85013,28.47675c-14.60656,-0.731 -31.34162,5.25675 -43.15588,15.96375l-11.36544,-11.36544c8.36887,-7.45513 19.01137,-11.57506 30.31231,-11.57506c8.70481,0 17.01456,2.45906 24.209,6.97675zM46.52869,36.87519l11.36544,11.36544c-10.707,11.81156 -16.69744,28.54662 -15.96644,43.15319c-4.51769,-7.19444 -6.97406,-15.50419 -6.97406,-24.20631c0,-11.30094 4.11994,-21.94344 11.57506,-30.31231z" fill="url(#color-3)"></path><path d="M88.37844,128.42756c13.15531,-1.65013 25.88869,-7.45244 35.96681,-17.53056c24.09881,-24.1015 24.1015,-63.3175 0.00269,-87.41631l-3.80013,3.80013c22.00525,22.00525 22.00525,57.81081 0,79.81606c-22.00525,22.00525 -57.8135,22.00525 -79.81606,0l-3.80013,3.80013c10.07812,10.07813 22.80075,15.88044 35.95606,17.53056c0.69606,2.54506 2.36231,4.57413 5.04981,5.45294v8.557h-5.31588c-4.45588,0 -8.07594,3.612 -8.10012,8.0625h-13.459v5.375h59.125v-5.375h-13.42406c-0.02419,-4.4505 -3.64425,-8.0625 -8.10013,-8.0625h-5.35081v-8.557c2.6875,-0.87881 4.36987,-2.90787 5.06594,-5.45294zM91.38306,150.5h-21.48387c0.02419,-1.4835 1.23088,-2.6875 2.71975,-2.6875h16.04169c1.48887,0 2.69825,1.204 2.72244,2.6875z" fill="url(#color-4)"></path></g><path d="" fill="none"></path><path d="M86,172c-47.49649,0 -86,-38.50351 -86,-86v0c0,-47.49649 38.50351,-86 86,-86v0c47.49649,0 86,38.50351 86,86v0c0,47.49649 -38.50351,86 -86,86z" fill="none"></path><path d="M86,168.56c-45.59663,0 -82.56,-36.96337 -82.56,-82.56v0c0,-45.59663 36.96337,-82.56 82.56,-82.56v0c45.59663,0 82.56,36.96337 82.56,82.56v0c0,45.59663 -36.96337,82.56 -82.56,82.56z" fill="none"></path><path d="M0,172v-172h172v172z" fill="none"></path><path d="M3.44,168.56v-165.12h165.12v165.12z" fill="none"></path><path d="M86,172c-47.49649,0 -86,-38.50351 -86,-86v0c0,-47.49649 38.50351,-86 86,-86v0c47.49649,0 86,38.50351 86,86v0c0,47.49649 -38.50351,86 -86,86z" fill="none"></path><path d="M86,168.56c-45.59663,0 -82.56,-36.96337 -82.56,-82.56v0c0,-45.59663 36.96337,-82.56 82.56,-82.56v0c45.59663,0 82.56,36.96337 82.56,82.56v0c0,45.59663 -36.96337,82.56 -82.56,82.56z" fill="none"></path></g></svg>