<svg id="Lager_1" data-name="Lager 1" xmlns="http://www.w3.org/2000/svg" viewBox="0 0 112.52 112.52"><defs><style>.cls-1{opacity:0.17;}.cls-2{fill:#fff;}.cls-3{fill:#895e83;}</style></defs><circle class="cls-1" cx="56.26" cy="56.26" r="56.26"/><circle class="cls-2" cx="53.59" cy="55.42" r="53.45"/><path class="cls-3" d="M16.69,4a4.94,4.94,0,1,0,.3,9.88,5,5,0,0,0,1.86-.43l5.72,6.61a23.31,23.31,0,0,0-3,32.83c.41.49.84,1,1.28,1.41l-6.78,8.83a1.42,1.42,0,1,0,2.24,1.75h0L25,56.23a23.22,23.22,0,0,0,29,0l6.68,8.65a1.41,1.41,0,0,0,2.24-1.72l-6.78-8.83a23.3,23.3,0,0,0-.3-33c-.45-.45-.92-.87-1.41-1.28l5.72-6.61A5,5,0,1,0,58,11.62l-5.87,6.76a23.18,23.18,0,0,0-25.26,0L21,11.6a5,5,0,0,0-.44-5.9A4.92,4.92,0,0,0,16.69,4ZM62,6.81a2.17,2.17,0,0,1,1.54.53,2.12,2.12,0,1,1-3,.21A2.16,2.16,0,0,1,62,6.81Zm-45,0a2.09,2.09,0,0,1,1.45.73,2.11,2.11,0,1,1-3-.23A2.13,2.13,0,0,1,17,6.81ZM39.49,17.47a20.36,20.36,0,0,1,13.56,5.14,29.24,29.24,0,0,0-5.52-.52c-13.88,0-25.48,9.55-27.56,22.1A20.52,20.52,0,0,1,39.49,17.47Zm8,7.44a26.62,26.62,0,0,1,8.89,1.52,20.18,20.18,0,0,1,1.81,3.16,28.85,28.85,0,0,0-5-.43c-14.47,0-26.45,10.38-27.77,23.7a19.69,19.69,0,0,1-2.92-3.45V48.24c0-12.84,11.11-23.36,25-23.36ZM53.19,32a26.7,26.7,0,0,1,6.1.72A20.82,20.82,0,0,1,60,38a20.49,20.49,0,0,1-9,17c2.37-4,3.2-8.67,3.2-13.79A23.12,23.12,0,0,0,52.24,32h.94Zm-3.91.29a20.68,20.68,0,0,1,2.08,8.9c0,6.93-1.45,12.26-6.26,16.47l-.09.08q-.75.21-1.53.36A24.48,24.48,0,0,0,45,49.53,24.93,24.93,0,0,0,40.46,35.2,26,26,0,0,1,49.28,32.27ZM38.05,36.7a22,22,0,0,1,4.14,12.83,23,23,0,0,1-.13,2.35A23,23,0,0,1,29.36,48a23.47,23.47,0,0,1,8.69-11.33ZM28.57,50.88a25.65,25.65,0,0,0,13,3.83,21.72,21.72,0,0,1-1.28,3.74H39.5A20.37,20.37,0,0,1,28.13,55,21.22,21.22,0,0,1,28.57,50.88Z" transform="translate(15.77 10.57)"/><path class="cls-3" d="M.19,77.12l5.39-5.87a.74.74,0,0,1,1,0h0a.75.75,0,0,1,0,1.06L4,75.18l6.29-.3a.74.74,0,0,1,.78.7h0a.76.76,0,0,1-.72.78l-4.22.18-.45,5a.71.71,0,0,1-.75.69h0a.68.68,0,0,1-.47-.19.73.73,0,0,1-.23-.57l.44-4.83-2,.11-1.3,1.42a.76.76,0,0,1-1.06,0,.74.74,0,0,1-.05-1Z" transform="translate(15.77 10.57)"/><path d="M14.88,84.26,13.19,87a.72.72,0,0,1-1,.26h0a.75.75,0,0,1-.24-1l1.7-2.78a1.39,1.39,0,0,0-.46-1.9,1.36,1.36,0,0,0-1.87.45h0L9.6,84.88a.52.52,0,0,1-.1.11.74.74,0,0,1-.92.12.73.73,0,0,1-.25-1h0L10,81.33l1.1-1.8a.73.73,0,0,1,1-.24.75.75,0,0,1,.34.71,2.78,2.78,0,0,1,1.46.39A2.86,2.86,0,0,1,14.88,84.26Z" transform="translate(15.77 10.57)"/><path d="M19.92,84.3l-2.15,4.86a.73.73,0,0,1-1.34-.6h0l2.15-4.85a.73.73,0,0,1,1.34.59Z" transform="translate(15.77 10.57)"/><path d="M20.92,82.05a.74.74,0,0,1-1.39-.52s0,0,0-.08l.12-.26a.74.74,0,0,1,1.35.6Z" transform="translate(15.77 10.57)"/><path d="M25.19,86.17a.74.74,0,0,1-.93.5l-.07,0-.33-.1L22.7,90.16a.77.77,0,0,1,.5,1l0,0a.74.74,0,0,1-.93.5l-.07,0a1.5,1.5,0,0,1-1-1.88v0l1.17-3.62L22,86a.73.73,0,0,1-.48-.93h0a.76.76,0,0,1,.94-.49l.38.13.6-1.88a.77.77,0,0,1,.95-.5l.05,0a.73.73,0,0,1,.48.93h0l-.61,1.88.33.11a.75.75,0,0,1,.59.87Z" transform="translate(15.77 10.57)"/><path d="M29.94,87.26a.76.76,0,0,1-.9.57l-.33-.07-.79,3.72A.76.76,0,0,1,27.61,93a1.52,1.52,0,0,1-1.17-1.8l.75-3.71-.39-.08a.74.74,0,0,1-.57-.88h0a.72.72,0,0,1,.79-.64l.17,0,.39.08L28,84a.75.75,0,0,1,.89-.57h0a.73.73,0,0,1,.59.85v0l-.41,1.94.33.07a.75.75,0,0,1,.55.91Z" transform="translate(15.77 10.57)"/><path d="M37.57,88l-.2,3.21-.12,1.92a3.21,3.21,0,0,1-3.36,3.06,3.31,3.31,0,0,1-1.47-.44.71.71,0,0,1-.32-1l0,0a.76.76,0,0,1,1-.24,1.77,1.77,0,0,0,2.55-.89,2.58,2.58,0,0,1-1.31.25,2.87,2.87,0,0,1-2.66-3l.21-3.21a.72.72,0,0,1,.75-.67.7.7,0,0,1,.67.73v0l-.22,3.15a1.41,1.41,0,0,0,2.81.18l.2-3.21a.69.69,0,0,1,.71-.67h0a.72.72,0,0,1,.7.72S37.57,88,37.57,88Z" transform="translate(15.77 10.57)"/><path class="cls-3" d="M47.67,92.46a.74.74,0,0,1-1.42.42.29.29,0,0,1,0-.09l-1.77-7.72h0a.79.79,0,0,1,.15-.68.76.76,0,0,1,1-.07l5.64,5L50,83.85a.74.74,0,1,1,1.45-.33l1.76,7.71a.73.73,0,0,1-1.16.75l0-.1L46.41,87Z" transform="translate(15.77 10.57)"/><path d="M55.79,87.52a3.36,3.36,0,0,1,1.61-4.47,3.25,3.25,0,0,1,4.29,1.51v.06a.21.21,0,0,1,0,.11.65.65,0,0,1-.42.79l-3.93,1.8a1.81,1.81,0,0,0,.79.63,2.1,2.1,0,0,0,1.44,0,2.23,2.23,0,0,0,1.15-.9.77.77,0,0,1,.91-.46.63.63,0,0,1,.37.81,3.46,3.46,0,0,1-1.81,1.84A3.39,3.39,0,0,1,55.79,87.52Z" transform="translate(15.77 10.57)"/><path class="cls-2" d="M56.86,86.3l3.51-1.6a2.23,2.23,0,0,0-2.44-.48A1.91,1.91,0,0,0,56.86,86.3Z" transform="translate(15.77 10.57)"/><path d="M69.68,76.59,71,82.17a.24.24,0,0,1,0,.12h0v.11h0a.21.21,0,0,1,0,.11h0a.31.31,0,0,1-.06.13h0l-.07.09h0a.28.28,0,0,1-.1.09.21.21,0,0,1-.1.06h-.09a.38.38,0,0,1-.15,0h-.21l-.11,0-2.2-1.31L68.53,84a.29.29,0,0,1,0,.13h0v.11h0v.25h0v.07h0l-.11.09-.43.24h-.08a.2.2,0,0,1-.15,0h-.35L62.48,82a.72.72,0,0,1-.26-1l0,0a.68.68,0,0,1,.93-.26l.07,0,3.46,2-.58-2.4a.73.73,0,0,1,.28-.74.68.68,0,0,1,.79,0l2,1.27L68.31,77a.69.69,0,0,1,.46-.86h0A.73.73,0,0,1,69.68,76.59Z" transform="translate(15.77 10.57)"/><path d="M74.3,77.25a.69.69,0,0,1,.56-.81h0a2.48,2.48,0,0,0,1.45-.7,1.86,1.86,0,0,0,.44-.86.59.59,0,0,0-.14-.46.31.31,0,0,0-.13-.06h-.24a3.26,3.26,0,0,0-1,.55h0a5.39,5.39,0,0,1-1.06.63,2.31,2.31,0,0,1-1.22.16,1.72,1.72,0,0,1-.79-.41,1.93,1.93,0,0,1-.56-1.61,2.9,2.9,0,0,1,.76-1.57,3.51,3.51,0,0,1,1.93-1,.75.75,0,0,1,.89.52.7.7,0,0,1-.51.86h0a2.34,2.34,0,0,0-1.21.59,1.38,1.38,0,0,0-.38.76.48.48,0,0,0,.09.38.17.17,0,0,0,.1,0,.34.34,0,0,0,.2,0,2.73,2.73,0,0,0,.91-.51h0A5.09,5.09,0,0,1,75.56,73a2,2,0,0,1,1.24-.16,1.79,1.79,0,0,1,.84.41,2,2,0,0,1,.58,1.7,3,3,0,0,1-.8,1.67,3.91,3.91,0,0,1-2.31,1.22.72.72,0,0,1-.81-.62Z" transform="translate(15.77 10.57)"/></svg>