<?xml version="1.0" encoding="UTF-8" standalone="no"?>
<!-- Created with Inkscape (http://www.inkscape.org/) -->

<svg
   width="210mm"
   height="297mm"
   viewBox="0 0 210 297"
   version="1.1"
   id="svg222"
   inkscape:version="1.1 (c68e22c387, 2021-05-23)"
   sodipodi:docname="lakelogosmall.svg"
   xmlns:inkscape="http://www.inkscape.org/namespaces/inkscape"
   xmlns:sodipodi="http://sodipodi.sourceforge.net/DTD/sodipodi-0.dtd"
   xmlns="http://www.w3.org/2000/svg"
   xmlns:svg="http://www.w3.org/2000/svg">
  <sodipodi:namedview
     id="namedview224"
     pagecolor="#ffffff"
     bordercolor="#666666"
     borderopacity="1.0"
     inkscape:pageshadow="2"
     inkscape:pageopacity="0.0"
     inkscape:pagecheckerboard="0"
     inkscape:document-units="mm"
     showgrid="false"
     inkscape:zoom="0.72337262"
     inkscape:cx="397.44385"
     inkscape:cy="561.95105"
     inkscape:window-width="1920"
     inkscape:window-height="1001"
     inkscape:window-x="2391"
     inkscape:window-y="-9"
     inkscape:window-maximized="1"
     inkscape:current-layer="layer1" />
  <defs
     id="defs219" />
  <g
     inkscape:label="Ebene 1"
     inkscape:groupmode="layer"
     id="layer1">
    <g
       id="g37"
       transform="matrix(0.26458333,0,0,0.26458333,20.42108,48.218845)">
      <g
         id="g35">
        <g
           id="g29">
          <path
             d="m 28.674,60.124 c -0.266,0 -0.533,-0.075 -0.771,-0.232 -0.645,-0.427 -0.821,-1.296 -0.395,-1.94 l 13.498,-20.4 c 0.269,-0.406 0.733,-0.646 1.218,-0.627 0.487,0.018 0.931,0.288 1.17,0.713 l 5.066,9.008 10.313,-17.862 c 0.25,-0.432 0.711,-0.698 1.211,-0.699 0,0 10e-4,0 0.002,0 0.498,0 0.959,0.265 1.21,0.695 l 14.181,24.368 c 0.389,0.668 0.162,1.525 -0.506,1.914 -0.667,0.389 -1.525,0.163 -1.914,-0.506 L 59.991,32.276 49.656,50.173 c -0.25,0.433 -0.712,0.699 -1.212,0.699 -0.003,0 -0.006,0 -0.008,0 -0.503,-0.003 -0.966,-0.275 -1.213,-0.713 L 42.076,41.007 29.843,59.496 c -0.27,0.407 -0.715,0.628 -1.169,0.628 z"
             id="path27" />
        </g>
        <path
           d="m 89,60.917 c -4.311,0 -6.566,-1.446 -8.557,-2.722 -1.907,-1.223 -3.555,-2.278 -7.046,-2.278 -3.491,0 -5.139,1.056 -7.046,2.278 -1.99,1.275 -4.246,2.722 -8.557,2.722 -4.311,0 -6.565,-1.446 -8.556,-2.722 -1.908,-1.223 -3.555,-2.278 -7.045,-2.278 -3.49,0 -5.137,1.056 -7.044,2.278 -1.99,1.275 -4.245,2.722 -8.556,2.722 -4.309,0 -6.564,-1.446 -8.553,-2.722 -1.906,-1.223 -3.553,-2.278 -7.041,-2.278 -0.773,0 -1.4,-0.627 -1.4,-1.4 0,-0.773 0.626,-1.399 1.4,-1.399 4.309,0 6.563,1.445 8.553,2.721 1.906,1.223 3.553,2.278 7.042,2.278 3.49,0 5.137,-1.056 7.045,-2.278 1.99,-1.275 4.245,-2.721 8.555,-2.721 4.311,0 6.566,1.445 8.556,2.721 1.907,1.223 3.555,2.278 7.045,2.278 3.49,0 5.138,-1.056 7.045,-2.278 1.99,-1.275 4.246,-2.721 8.558,-2.721 4.312,0 6.567,1.445 8.558,2.721 1.907,1.223 3.555,2.278 7.045,2.278 0.773,0 1.4,0.627 1.4,1.4 0,0.773 -0.628,1.4 -1.401,1.4 z"
           id="path31" />
        <path
           d="m 89,71.917 c -4.311,0 -6.566,-1.446 -8.557,-2.722 -1.907,-1.223 -3.555,-2.278 -7.046,-2.278 -3.491,0 -5.139,1.056 -7.046,2.278 -1.99,1.275 -4.246,2.722 -8.557,2.722 -4.311,0 -6.565,-1.446 -8.556,-2.722 -1.908,-1.223 -3.555,-2.278 -7.045,-2.278 -3.49,0 -5.137,1.056 -7.044,2.278 -1.99,1.275 -4.245,2.722 -8.556,2.722 -4.309,0 -6.564,-1.446 -8.553,-2.722 -1.906,-1.223 -3.553,-2.278 -7.041,-2.278 -0.773,0 -1.4,-0.627 -1.4,-1.4 0,-0.773 0.626,-1.4 1.4,-1.4 4.309,0 6.563,1.446 8.553,2.722 1.906,1.223 3.553,2.278 7.042,2.278 3.49,0 5.137,-1.056 7.045,-2.278 1.99,-1.275 4.245,-2.722 8.555,-2.722 4.311,0 6.566,1.446 8.556,2.722 1.907,1.223 3.555,2.278 7.045,2.278 3.49,0 5.138,-1.056 7.045,-2.278 1.99,-1.275 4.246,-2.722 8.558,-2.722 4.312,0 6.567,1.446 8.558,2.722 1.907,1.223 3.555,2.278 7.045,2.278 0.773,0 1.4,0.627 1.4,1.4 0,0.773 -0.628,1.4 -1.401,1.4 z"
           id="path33" />
      </g>
    </g>
  </g>
</svg>
