<svg fill="#ffffff" xmlns="http://www.w3.org/2000/svg" xmlns:xlink="http://www.w3.org/1999/xlink" version="1.1" x="0px" y="0px" enable-background="new 0 0 100 100" xml:space="preserve" viewBox="9.57 28.08 80.87 43.87"><g><g><g><path d="M28.674,60.124c-0.266,0-0.533-0.075-0.771-0.232c-0.645-0.427-0.821-1.296-0.395-1.94l13.498-20.4     c0.269-0.406,0.733-0.646,1.218-0.627c0.487,0.018,0.931,0.288,1.17,0.713l5.066,9.008l10.313-17.862     c0.25-0.432,0.711-0.698,1.211-0.699c0,0,0.001,0,0.002,0c0.498,0,0.959,0.265,1.21,0.695l14.181,24.368     c0.389,0.668,0.162,1.525-0.506,1.914c-0.667,0.389-1.525,0.163-1.914-0.506l-12.966-22.28L49.656,50.173     c-0.25,0.433-0.712,0.699-1.212,0.699c-0.003,0-0.006,0-0.008,0c-0.503-0.003-0.966-0.275-1.213-0.713l-5.147-9.152     L29.843,59.496C29.573,59.903,29.128,60.124,28.674,60.124z"/></g><path d="M89,60.917c-4.311,0-6.566-1.446-8.557-2.722c-1.907-1.223-3.555-2.278-7.046-2.278s-5.139,1.056-7.046,2.278    c-1.99,1.275-4.246,2.722-8.557,2.722s-6.565-1.446-8.556-2.722c-1.908-1.223-3.555-2.278-7.045-2.278s-5.137,1.056-7.044,2.278    c-1.99,1.275-4.245,2.722-8.556,2.722c-4.309,0-6.564-1.446-8.553-2.722c-1.906-1.223-3.553-2.278-7.041-2.278    c-0.773,0-1.4-0.627-1.4-1.4s0.626-1.399,1.4-1.399c4.309,0,6.563,1.445,8.553,2.721c1.906,1.223,3.553,2.278,7.042,2.278    c3.49,0,5.137-1.056,7.045-2.278c1.99-1.275,4.245-2.721,8.555-2.721c4.311,0,6.566,1.445,8.556,2.721    c1.907,1.223,3.555,2.278,7.045,2.278s5.138-1.056,7.045-2.278c1.99-1.275,4.246-2.721,8.558-2.721s6.567,1.445,8.558,2.721    c1.907,1.223,3.555,2.278,7.045,2.278c0.773,0,1.4,0.627,1.4,1.4S89.773,60.917,89,60.917z"/><path d="M89,71.917c-4.311,0-6.566-1.446-8.557-2.722c-1.907-1.223-3.555-2.278-7.046-2.278s-5.139,1.056-7.046,2.278    c-1.99,1.275-4.246,2.722-8.557,2.722s-6.565-1.446-8.556-2.722c-1.908-1.223-3.555-2.278-7.045-2.278s-5.137,1.056-7.044,2.278    c-1.99,1.275-4.245,2.722-8.556,2.722c-4.309,0-6.564-1.446-8.553-2.722c-1.906-1.223-3.553-2.278-7.041-2.278    c-0.773,0-1.4-0.627-1.4-1.4s0.626-1.4,1.4-1.4c4.309,0,6.563,1.446,8.553,2.722c1.906,1.223,3.553,2.278,7.042,2.278    c3.49,0,5.137-1.056,7.045-2.278c1.99-1.275,4.245-2.722,8.555-2.722c4.311,0,6.566,1.446,8.556,2.722    c1.907,1.223,3.555,2.278,7.045,2.278s5.138-1.056,7.045-2.278c1.99-1.275,4.246-2.722,8.558-2.722s6.567,1.446,8.558,2.722    c1.907,1.223,3.555,2.278,7.045,2.278c0.773,0,1.4,0.627,1.4,1.4S89.773,71.917,89,71.917z"/></g></g></svg>