<svg enable-background="new 0 0 124 76" viewBox="0 0 124 76" xmlns="http://www.w3.org/2000/svg"><path d="m107 65.5c3.4 0 6.1-2.7 6.1-6.1 0-.1 0-.2 0-.2-.1-3.2-2.8-5.8-6.1-5.8s-5.9 2.6-6.1 5.8v.2c0 3.3 2.8 6.1 6.1 6.1z" fill="none"/><path d="m113.1 59.2v.2c0 3.4-2.7 6.1-6.1 6.1s-6.1-2.7-6.1-6.1c0-.1 0-.2 0-.2h-10.9c.1 9.3 7.6 16.8 17 16.8 9.3 0 16.9-7.5 17-16.8z" fill="#fe3525"/><path d="m90 59c0 .1 0 .1 0 0z" fill="#f05"/><path d="m124 59c-.1.1-.1.1 0 0-.1.1 0 .1 0 0z" fill="#f05"/><path d="m123.9 59.1c-.1-9.4-7.6-16.9-17-16.9-9.3 0-16.9 7.5-17 16.8v.1.1h11c.1-3.2 2.8-5.8 6.1-5.8s5.9 2.6 6.1 5.8z" fill="#f7941f"/><path d="m86.5 59.1c0 9.3-7.5 16.9-16.9 16.9-9.3 0-16.9-7.6-16.9-16.9s7.5-16.9 16.9-16.9c4.6 0 8.8 1.9 11.9 4.9 0 0-20.1 12.2-19.9 12z" fill="#0025ff"/><path d="m38.1 42.2h11.6v33.8h-11.6z" fill="#ffaec1"/><path d="m41.8 74.8c-.3 0-.5-.1-.8-.1h-.7c-.8 0-1.5.1-2.2.3v1h7c-.6-.3-1.2-.6-1.8-.8-.5-.2-1-.3-1.5-.4z" fill="#fff"/><path d="m46.9 72.3c-.9-.7-1.9-1.3-3-1.7-.3-.1-.6-.2-.8-.3-.3-.1-.6-.2-.9-.2-.3-.1-.6-.1-.9-.1h-.9c-.8 0-1.5.1-2.2.3v1.8c.7-.2 1.5-.4 2.2-.4 2 0 3.8.9 5.4 2.2.8.6 1.5 1.3 2.2 2.1 0 .1.1.1.1.2h1.6v-1.2c-.9-1.1-1.8-1.9-2.8-2.7z" fill="#fff"/><path d="m49.6 69.9c-.8-.8-1.7-1.6-2.6-2.4-1-.7-2-1.4-3.2-1.9l-.9-.3c-.3-.1-.7-.1-1-.2-.4-.1-.7-.1-1-.1h-.4c-.1 0 0 0-.2 0h-.1-.2c-.3 0-.7 0-1 .1l-.9.2v1.7c.1 0 .2-.1.3-.1l.8-.2c.3-.1.5 0 .8-.1h.2.1c-.1 0 0 0 0 0h.4c.3 0 .6 0 .8.1s.5.1.7.2l.7.3c1 .4 1.9 1 2.7 1.7 1.4 1.2 2.7 2.6 3.8 4z" fill="#fff"/><path d="m47 62.6c-1-.7-2-1.4-3.2-1.9l-.9-.3c-.3-.1-.7-.1-1-.2s-.6-.1-.9-.1h-.4c-.1 0 0 0-.2 0h-.1-.2c-.3 0-.7 0-1 .1l-.9.2v1.6c.1 0 .2-.1.3-.1l.8-.2c.3-.1.5 0 .8-.1h.2.1c-.1 0 0 0 .1 0h.4c.3 0 .6 0 .8.1s.5.1.7.2l.8.3c1 .4 1.9 1 2.8 1.7 1.4 1.2 2.6 2.5 3.8 3.9v-2.8c-1-.8-1.9-1.7-2.8-2.4z" fill="#fff"/><path d="m46.9 57.6c-1-.7-2-1.4-3.2-1.9l-.9-.3c-.3-.1-.7-.1-1-.2s-.6-.1-.9-.1h-.4c-.1 0 0 0-.2 0h-.1-.2c-.3 0-.7 0-1 .1l-.9.2v1.5c.1 0 .2-.1.3-.1l.8-.2c.3-.1.5 0 .8-.1h.2.1c-.1 0 0 0 .1 0h.4c.3 0 .6 0 .8.1s.5.1.7.2l.8.3c1 .4 1.9 1 2.8 1.7 1.4 1.1 2.6 2.5 3.7 3.9v-2.6c-.8-.8-1.7-1.7-2.7-2.5z" fill="#fff"/><path d="m46.9 54.7c1 .9 1.9 2 2.8 3.1v-2.5c-.2-.2-.4-.4-.6-.6z" fill="#fff"/><path d="m22.4 58.6v17.4h11.5v-17.5l-8.8.1z" fill="#0025ff"/><path d="m17.1 42.2c-9.3 0-16.9 7.2-16.9 16.2v17.6h11.6v-17.4h10.7 2.7 8.8c-.1-9.1-7.6-16.4-16.9-16.4z" fill="#f7941f"/><path d="m112.4.5h11.6v33.8h-11.6z" fill="#fc3323"/><path d="m91.1.5h11.6v16.9h-11.6z" fill="#ffaec1"/><g fill="#0025ff"><path d="m91.1 18.2v16.1h11.6v-16.1-.8h-11.6z"/><path d="m104.8 12.1c-.7.5-1.5 1-2.2 1.5v1.9c1.6-1.2 3.2-2.3 4.8-3.4z"/><path d="m104.1 18.2c1.9-1.7 4-3.2 6.1-4.7l1.6-1.1.5-.4h-2.5c-2.3 1.5-4.6 3.1-6.8 4.9-.1.1-.3.2-.4.4v2.3c.5-.4 1-.9 1.5-1.4z"/><path d="m106.4 20.9c.8-1 1.6-1.9 2.6-2.7 1.9-1.7 4-3.2 6.1-4.7.7-.5 1.4-.9 2.1-1.4h-2.3c-2.4 1.5-4.7 3.1-6.9 5-1 .9-2 1.8-2.8 2.8-.9 1-1.6 2.2-2.1 3.5h1.8c.4-.9.9-1.7 1.5-2.5z"/><path d="m114 18.2c1.8-1.7 3.9-3.3 6-4.9.7-.5 1.3-1 2-1.5l-2.2.1c-2.3 1.6-4.6 3.3-6.7 5.2-1 .9-1.9 1.9-2.7 2.9s-1.5 2.2-1.9 3.5l1.6-.1c.4-.9.9-1.8 1.5-2.6s1.5-1.7 2.4-2.6z"/><path d="m118.9 18.1c1.6-1.4 3.3-2.7 5.1-3.9v-1.4c-2 1.4-4.1 2.8-6 4.4-1 .9-2 1.8-2.8 2.8s-1.6 2.2-2 3.4h1.5c.9-2 2.5-3.7 4.2-5.3z"/><path d="m123.8 18.1c.1 0 .1-.1.2-.1v-1.6c-.3.3-.7.5-1 .8-1 .9-2 1.8-2.8 2.8s-1.5 2.1-2 3.4h1.4c.4-.9 1-1.8 1.6-2.6.8-1 1.7-1.8 2.6-2.7z"/><path d="m124 21.7c-.3.5-.6 1.1-.8 1.7h.8z"/></g><path d="m87.6 34.3c-9.3 0-16.9-7.6-16.9-16.9s7.5-16.9 16.9-16.9z" fill="#f7941f"/><path d="m51.8.6c4.7 0 8.9 1.9 11.9 4.9-3.1-3.1-7.3-5-11.9-4.9-9.4 0-16.9 7.5-16.9 16.9 0-9.4 7.5-16.9 16.9-16.9z" fill="#d1a537"/><path d="m51.7 34.4c4.6 0 8.8-1.9 11.9-4.9 0 0-20-12.1-19.9-12h-8.9c.1 9.3 7.6 16.9 16.9 16.9z" fill="#fe3525"/><path d="m68.7 17.4c0-4.7-1.9-8.9-4.9-11.9s-7.3-4.9-11.9-4.9c-9.3 0-16.9 7.5-16.9 16.9h8.9z" fill="#ffaec1"/><path d="m15.7.6h11.6v33.8h-11.6z" fill="#fb3222"/><path d="m32.6 6.8v11.6h-32.4v-11.6z" fill="#0025ff"/></svg>