<svg xmlns="http://www.w3.org/2000/svg" width="37.5" viewBox="0 0 37.5 37.5" height="37.5" version="1.0"><g fill="#FFAFAF"><g><g><path d="M 8.070312 -0.542969 C 8.070312 -0.601562 8.070312 -0.566406 7.320312 -5.679688 C 7.257812 -6.019531 6.964844 -6.28125 6.613281 -6.289062 L 5.246094 -6.289062 C 4.898438 -6.289062 4.609375 -6.042969 4.550781 -5.710938 L 4.238281 -3.84375 C 4.230469 -3.769531 4.171875 -3.722656 4.101562 -3.722656 C 4.023438 -3.722656 3.960938 -3.796875 3.960938 -3.867188 L 3.960938 -3.859375 L 3.746094 -5.664062 C 3.699219 -6.011719 3.402344 -6.28125 3.039062 -6.289062 L 1.671875 -6.289062 C 1.324219 -6.289062 1.042969 -6.042969 0.976562 -5.710938 L 0.589844 -3.351562 L 0.246094 -1.285156 L 0.140625 -0.640625 C 0.132812 -0.601562 0.132812 -0.566406 0.132812 -0.542969 C 0.132812 -0.246094 0.378906 0 0.671875 0 L 1.726562 0 C 1.988281 -0.0078125 2.203125 -0.195312 2.242188 -0.449219 L 2.636719 -2.675781 L 2.675781 -2.902344 L 3.015625 -0.480469 C 3.039062 -0.214844 3.265625 0 3.542969 0 L 4.679688 0 C 4.953125 0 5.183594 -0.214844 5.214844 -0.480469 L 5.523438 -2.746094 L 5.539062 -2.824219 L 5.578125 -2.675781 L 5.957031 -0.449219 C 6.003906 -0.195312 6.21875 -0.0078125 6.476562 0 L 7.527344 0 C 7.835938 0 8.070312 -0.246094 8.070312 -0.542969 Z M 8.070312 -0.542969" transform="translate(3.207 24.283)"/></g></g></g><g fill="#FFAFAF"><g><g><path d="M 2.707031 -6.40625 C 1.414062 -6.40625 0.132812 -5.363281 0.132812 -4.0625 L 0.132812 -2.265625 C 0.132812 -0.914062 1.414062 0.132812 2.707031 0.132812 C 4.03125 0.132812 5.277344 -0.914062 5.277344 -2.265625 L 5.277344 -4.0625 C 5.277344 -5.363281 4.03125 -6.40625 2.707031 -6.40625 Z M 3.234375 -2.34375 C 3.234375 -2.074219 2.992188 -1.839844 2.707031 -1.839844 C 2.414062 -1.839844 2.183594 -2.074219 2.183594 -2.34375 L 2.183594 -3.921875 C 2.183594 -4.207031 2.414062 -4.441406 2.707031 -4.441406 C 2.992188 -4.441406 3.234375 -4.207031 3.234375 -3.921875 Z M 3.234375 -2.34375" transform="translate(11.413 24.283)"/></g></g></g><g fill="#FFAFAF"><g><g><path d="M 4.867188 -6.304688 L 3.875 -6.304688 C 3.566406 -6.304688 3.296875 -6.050781 3.296875 -5.734375 L 3.296875 -3.882812 L 2.375 -5.933594 C 2.289062 -6.152344 2.074219 -6.304688 1.832031 -6.304688 L 0.835938 -6.304688 C 0.519531 -6.304688 0.261719 -6.050781 0.261719 -5.734375 L 0.261719 -0.464844 C 0.261719 -0.148438 0.519531 0.101562 0.835938 0.101562 L 1.832031 0.101562 C 2.152344 0.101562 2.40625 -0.148438 2.40625 -0.464844 L 2.40625 -2.242188 L 3.328125 -0.285156 C 3.425781 -0.0625 3.621094 0.101562 3.875 0.101562 L 4.867188 0.101562 C 5.191406 0.101562 5.445312 -0.148438 5.445312 -0.464844 L 5.445312 -5.734375 C 5.445312 -6.050781 5.191406 -6.304688 4.867188 -6.304688 Z M 4.867188 -6.304688" transform="translate(16.825 24.283)"/></g></g></g><g fill="#FFAFAF"><g><g><path d="M 2.460938 -4.601562 L 4.0625 -4.601562 C 4.292969 -4.601562 4.480469 -4.789062 4.480469 -5.011719 L 4.480469 -5.894531 C 4.480469 -6.121094 4.292969 -6.304688 4.0625 -6.304688 L 0.835938 -6.304688 C 0.511719 -6.304688 0.261719 -6.050781 0.261719 -5.871094 L 0.261719 -0.734375 C 0.261719 -0.269531 0.511719 -0.015625 0.835938 -0.015625 L 4.0625 -0.015625 C 4.292969 -0.015625 4.480469 -0.195312 4.480469 -0.425781 L 4.480469 -1.308594 C 4.480469 -1.539062 4.292969 -1.734375 4.0625 -1.734375 L 2.460938 -1.734375 C 2.429688 -1.734375 2.40625 -1.757812 2.40625 -1.789062 L 2.40625 -2.296875 C 2.40625 -2.328125 2.429688 -2.351562 2.460938 -2.351562 L 3.621094 -2.351562 C 3.828125 -2.351562 4 -2.515625 4 -2.730469 L 4 -3.589844 C 4 -3.796875 3.828125 -3.96875 3.621094 -3.96875 L 2.460938 -3.96875 C 2.429688 -3.96875 2.40625 -3.992188 2.40625 -4.015625 L 2.40625 -4.535156 C 2.40625 -4.558594 2.429688 -4.601562 2.460938 -4.601562 Z M 2.460938 -4.601562" transform="translate(22.53 24.283)"/></g></g></g><g fill="#FFAFAF"><g><g><path d="M 6.257812 -5.679688 C 6.304688 -5.71875 6.351562 -5.824219 6.351562 -5.925781 C 6.351562 -6.167969 6.160156 -6.320312 5.957031 -6.320312 L 4.527344 -6.320312 C 4.433594 -6.320312 4.355469 -6.273438 4.285156 -6.167969 L 3.242188 -4.734375 L 2.257812 -6.167969 C 2.175781 -6.296875 2.050781 -6.320312 1.964844 -6.320312 L 0.527344 -6.320312 C 0.324219 -6.320312 0.132812 -6.167969 0.132812 -5.925781 C 0.132812 -5.824219 0.179688 -5.71875 0.238281 -5.679688 L 2.105469 -3.007812 L 2.105469 -0.449219 C 2.105469 -0.1875 2.359375 0 2.605469 0 L 3.882812 0 C 4.125 0 4.386719 -0.1875 4.386719 -0.449219 L 4.386719 -3.007812 Z M 6.257812 -5.679688" transform="translate(27.272 24.283)"/></g></g></g><path transform="matrix(.65749 0 0 .65749 3.15 18.169)" fill="none" d="M 12.777086 8.173586 C 12.777086 8.09041 12.777086 8.137939 11.636381 0.360944 C 11.541322 -0.155938 11.095734 -0.548055 10.555088 -0.565879 L 8.481618 -0.565879 C 7.952854 -0.565879 7.507266 -0.191585 7.42409 0.313415 L 6.942855 3.153295 C 6.930972 3.266178 6.847796 3.337472 6.740855 3.337472 C 6.622031 3.337472 6.521031 3.230531 6.521031 3.117648 L 6.521031 3.129531 L 6.200208 0.384709 C 6.128914 -0.144055 5.671444 -0.548055 5.118915 -0.565879 L 3.045445 -0.565879 C 2.516681 -0.565879 2.082975 -0.191585 1.987917 0.313415 L 1.39974 3.901883 L 0.870976 7.044764 L 0.716506 8.025057 C 0.704623 8.09041 0.704623 8.137939 0.704623 8.173586 C 0.704623 8.625115 1.078917 8.999409 1.518564 8.999409 L 3.128622 8.999409 C 3.520739 8.987527 3.847504 8.702351 3.906915 8.316174 L 4.506974 4.929706 L 4.566386 4.585118 L 5.083268 8.268645 C 5.118915 8.672645 5.469444 8.999409 5.885326 8.999409 L 7.614207 8.999409 C 8.03603 8.999409 8.38656 8.672645 8.428148 8.268645 L 8.8975 4.822765 L 8.921265 4.703941 L 8.986618 4.929706 L 9.556971 8.316174 C 9.634206 8.702351 9.955029 8.987527 10.353088 8.999409 L 11.951263 8.999409 C 12.414675 8.999409 12.777086 8.625115 12.777086 8.173586 Z M 17.096319 -0.744114 C 15.129791 -0.744114 13.187027 0.842179 13.187027 2.82059 L 13.187027 5.553529 C 13.187027 7.609175 15.129791 9.20735 17.096319 9.20735 C 19.110376 9.20735 21.00561 7.609175 21.00561 5.553529 L 21.00561 2.82059 C 21.00561 0.842179 19.110376 -0.744114 17.096319 -0.744114 Z M 17.898377 5.434706 C 17.898377 5.844647 17.524083 6.207058 17.096319 6.207058 C 16.650731 6.207058 16.306143 5.844647 16.306143 5.434706 L 16.306143 3.034472 C 16.306143 2.606708 16.650731 2.244296 17.096319 2.244296 C 17.524083 2.244296 17.898377 2.606708 17.898377 3.034472 Z M 28.616253 -0.589643 L 27.101254 -0.589643 C 26.637842 -0.589643 26.227901 -0.203467 26.227901 0.277768 L 26.227901 3.093884 L 24.825784 -0.025232 C 24.695079 -0.357938 24.368314 -0.589643 23.99402 -0.589643 L 22.484962 -0.589643 C 22.003727 -0.589643 21.605669 -0.203467 21.605669 0.277768 L 21.605669 8.29241 C 21.605669 8.773645 22.003727 9.15388 22.484962 9.15388 L 23.99402 9.15388 C 24.487138 9.15388 24.873314 8.773645 24.873314 8.29241 L 24.873314 5.595117 L 26.275431 8.571645 C 26.42396 8.904351 26.721019 9.15388 27.101254 9.15388 L 28.616253 9.15388 C 29.10937 9.15388 29.489605 8.773645 29.489605 8.29241 L 29.489605 0.277768 C 29.489605 -0.203467 29.10937 -0.589643 28.616253 -0.589643 Z M 33.630602 2.006649 L 36.066483 2.006649 C 36.417012 2.006649 36.70813 1.715532 36.70813 1.382826 L 36.70813 0.0341797 C 36.70813 -0.310408 36.417012 -0.589643 36.066483 -0.589643 L 31.159075 -0.589643 C 30.665957 -0.589643 30.285722 -0.203467 30.285722 0.0757679 L 30.285722 7.882469 C 30.285722 8.59541 30.665957 8.975645 31.159075 8.975645 L 36.066483 8.975645 C 36.417012 8.975645 36.70813 8.702351 36.70813 8.351822 L 36.70813 7.009116 C 36.70813 6.658587 36.417012 6.361529 36.066483 6.361529 L 33.630602 6.361529 C 33.583073 6.361529 33.547426 6.325882 33.547426 6.278352 L 33.547426 5.506 C 33.547426 5.45847 33.583073 5.422823 33.630602 5.422823 L 35.395131 5.422823 C 35.710013 5.422823 35.971425 5.173294 35.971425 4.84653 L 35.971425 3.539472 C 35.971425 3.230531 35.710013 2.963178 35.395131 2.963178 L 33.630602 2.963178 C 33.583073 2.963178 33.547426 2.927531 33.547426 2.891884 L 33.547426 2.101708 C 33.547426 2.066061 33.583073 2.006649 33.630602 2.006649 Z M 46.618006 0.360944 C 46.6893 0.301532 46.760594 0.141121 46.760594 -0.0133497 C 46.760594 -0.381702 46.469477 -0.613408 46.160536 -0.613408 L 43.986066 -0.613408 C 43.843478 -0.613408 43.724655 -0.536173 43.617714 -0.381702 L 42.031421 1.798708 L 40.528304 -0.381702 C 40.409481 -0.577761 40.219363 -0.613408 40.088657 -0.613408 L 37.902306 -0.613408 C 37.593365 -0.613408 37.308188 -0.381702 37.308188 -0.0133497 C 37.308188 0.141121 37.373541 0.301532 37.462659 0.360944 L 40.302539 4.424706 L 40.302539 8.316174 C 40.302539 8.714233 40.688716 8.999409 41.06301 8.999409 L 43.005773 8.999409 C 43.374126 8.999409 43.772184 8.714233 43.772184 8.316174 L 43.772184 4.424706 Z M 46.618006 0.360944" stroke="#FFF" stroke-width=".195"/><g fill="#FFAFAF"><g><g><path d="M 4.710938 -6.335938 L 3.714844 -6.335938 C 3.394531 -6.335938 3.132812 -6.074219 3.132812 -5.75 L 3.132812 -4.347656 C 3.132812 -4.300781 3.09375 -4.253906 3.054688 -4.246094 L 2.507812 -4.246094 C 2.46875 -4.253906 2.429688 -4.300781 2.421875 -4.339844 L 2.421875 -5.75 C 2.421875 -6.074219 2.160156 -6.335938 1.839844 -6.335938 L 0.84375 -6.335938 C 0.519531 -6.335938 0.261719 -6.074219 0.261719 -5.75 L 0.261719 -0.574219 C 0.261719 -0.246094 0.519531 0.015625 0.84375 0.015625 L 1.839844 0.015625 C 2.160156 0.015625 2.421875 -0.246094 2.421875 -0.574219 L 2.421875 -1.972656 C 2.429688 -2.027344 2.453125 -2.058594 2.507812 -2.074219 L 3.054688 -2.074219 C 3.09375 -2.058594 3.132812 -2.027344 3.132812 -1.972656 L 3.132812 -0.574219 C 3.132812 -0.246094 3.394531 0.015625 3.714844 0.015625 L 4.710938 0.015625 C 5.042969 0.015625 5.300781 -0.246094 5.300781 -0.574219 L 5.300781 -5.75 C 5.300781 -6.074219 5.042969 -6.335938 4.710938 -6.335938 Z M 4.710938 -6.335938" transform="translate(10.604 16.565)"/></g></g></g><g fill="#FFAFAF"><g><g><path d="M 2.460938 -4.601562 L 4.0625 -4.601562 C 4.292969 -4.601562 4.480469 -4.789062 4.480469 -5.011719 L 4.480469 -5.894531 C 4.480469 -6.121094 4.292969 -6.304688 4.0625 -6.304688 L 0.835938 -6.304688 C 0.511719 -6.304688 0.261719 -6.050781 0.261719 -5.871094 L 0.261719 -0.734375 C 0.261719 -0.269531 0.511719 -0.015625 0.835938 -0.015625 L 4.0625 -0.015625 C 4.292969 -0.015625 4.480469 -0.195312 4.480469 -0.425781 L 4.480469 -1.308594 C 4.480469 -1.539062 4.292969 -1.734375 4.0625 -1.734375 L 2.460938 -1.734375 C 2.429688 -1.734375 2.40625 -1.757812 2.40625 -1.789062 L 2.40625 -2.296875 C 2.40625 -2.328125 2.429688 -2.351562 2.460938 -2.351562 L 3.621094 -2.351562 C 3.828125 -2.351562 4 -2.515625 4 -2.730469 L 4 -3.589844 C 4 -3.796875 3.828125 -3.96875 3.621094 -3.96875 L 2.460938 -3.96875 C 2.429688 -3.96875 2.40625 -3.992188 2.40625 -4.015625 L 2.40625 -4.535156 C 2.40625 -4.558594 2.429688 -4.601562 2.460938 -4.601562 Z M 2.460938 -4.601562" transform="translate(16.167 16.565)"/></g></g></g><g fill="#FFAFAF"><g><g><path d="M 5.167969 -0.671875 L 4.679688 -2.585938 C 4.664062 -2.652344 4.648438 -2.699219 4.625 -2.738281 C 4.96875 -3.148438 5.191406 -3.652344 5.191406 -4.339844 C 5.191406 -5.546875 4.496094 -6.304688 3.636719 -6.304688 L 0.789062 -6.296875 C 0.480469 -6.296875 0.238281 -6.042969 0.238281 -5.59375 L 0.238281 -0.566406 C 0.238281 -0.277344 0.480469 -0.0234375 0.789062 -0.0234375 L 1.800781 -0.0234375 C 1.957031 -0.0234375 2.113281 -0.0859375 2.21875 -0.214844 C 2.359375 -0.371094 2.351562 -0.457031 2.351562 -0.582031 L 2.351562 -1.902344 C 2.351562 -1.917969 2.359375 -1.949219 2.390625 -1.949219 C 2.421875 -1.949219 2.4375 -1.925781 2.4375 -1.910156 L 2.5 -1.585938 L 2.707031 -0.625 C 2.785156 -0.269531 3.132812 -0.0234375 3.402344 -0.0234375 L 4.679688 -0.0234375 C 4.988281 -0.0234375 5.246094 -0.300781 5.167969 -0.671875 Z M 3.070312 -4.132812 L 3.070312 -4.023438 C 3.070312 -3.769531 2.855469 -3.558594 2.605469 -3.558594 L 2.453125 -3.558594 C 2.390625 -3.558594 2.351562 -3.605469 2.351562 -3.660156 L 2.351562 -4.503906 C 2.351562 -4.558594 2.390625 -4.609375 2.453125 -4.609375 L 2.605469 -4.609375 C 2.855469 -4.609375 3.070312 -4.394531 3.070312 -4.132812 Z M 3.070312 -4.132812" transform="translate(20.908 16.565)"/></g></g></g><path transform="matrix(.65749 0 0 .65749 3.15 10.45)" fill="none" d="M 18.914318 -0.636949 L 17.399319 -0.636949 C 16.912142 -0.636949 16.514084 -0.238891 16.514084 0.254227 L 16.514084 2.387108 C 16.514084 2.458402 16.454672 2.529696 16.39526 2.541578 L 15.569437 2.541578 C 15.504084 2.529696 15.444673 2.458402 15.43279 2.39899 L 15.43279 0.254227 C 15.43279 -0.238891 15.034732 -0.636949 14.547556 -0.636949 L 13.032557 -0.636949 C 12.539439 -0.636949 12.147322 -0.238891 12.147322 0.254227 L 12.147322 8.126281 C 12.147322 8.625339 12.539439 9.023398 13.032557 9.023398 L 14.547556 9.023398 C 15.034732 9.023398 15.43279 8.625339 15.43279 8.126281 L 15.43279 5.999341 C 15.444673 5.916164 15.48032 5.868635 15.569437 5.84487 L 16.39526 5.84487 C 16.454672 5.868635 16.514084 5.916164 16.514084 5.999341 L 16.514084 8.126281 C 16.514084 8.625339 16.912142 9.023398 17.399319 9.023398 L 18.914318 9.023398 C 19.419317 9.023398 19.817376 8.625339 19.817376 8.126281 L 19.817376 0.254227 C 19.817376 -0.238891 19.419317 -0.636949 18.914318 -0.636949 Z M 23.952432 2.006873 L 26.388313 2.006873 C 26.738842 2.006873 27.02996 1.715755 27.02996 1.377108 L 27.02996 0.0344034 C 27.02996 -0.310185 26.738842 -0.58942 26.388313 -0.58942 L 21.480904 -0.58942 C 20.987787 -0.58942 20.607552 -0.203243 20.607552 0.0759916 L 20.607552 7.882693 C 20.607552 8.595633 20.987787 8.975868 21.480904 8.975868 L 26.388313 8.975868 C 26.738842 8.975868 27.02996 8.702574 27.02996 8.352045 L 27.02996 7.00934 C 27.02996 6.658811 26.738842 6.361752 26.388313 6.361752 L 23.952432 6.361752 C 23.904903 6.361752 23.869256 6.326105 23.869256 6.272635 L 23.869256 5.506223 C 23.869256 5.458694 23.904903 5.423047 23.952432 5.423047 L 25.71696 5.423047 C 26.031843 5.423047 26.293254 5.173518 26.293254 4.846753 L 26.293254 3.539695 C 26.293254 3.230754 26.031843 2.963402 25.71696 2.963402 L 23.952432 2.963402 C 23.904903 2.963402 23.869256 2.927755 23.869256 2.892107 L 23.869256 2.101932 C 23.869256 2.066284 23.904903 2.006873 23.952432 2.006873 Z M 35.282248 7.977751 L 34.539602 5.066577 C 34.515837 4.971518 34.492072 4.894283 34.450484 4.834871 C 34.979249 4.211048 35.317896 3.444637 35.317896 2.39899 C 35.317896 0.563168 34.260367 -0.58942 32.953309 -0.58942 L 28.622194 -0.577537 C 28.152841 -0.577537 27.784489 -0.191361 27.784489 0.491874 L 27.784489 8.138163 C 27.784489 8.583751 28.152841 8.963986 28.622194 8.963986 L 30.160958 8.963986 C 30.398604 8.963986 30.636251 8.868927 30.796663 8.672869 C 31.010545 8.435222 30.998663 8.304516 30.998663 8.114398 L 30.998663 6.106282 C 30.998663 6.082517 31.010545 6.034988 31.058075 6.034988 C 31.105604 6.034988 31.129369 6.070635 31.129369 6.0944 L 31.224428 6.587517 L 31.53931 8.049045 C 31.658133 8.595633 32.186897 8.963986 32.590897 8.963986 L 34.539602 8.963986 C 35.008955 8.963986 35.401072 8.542163 35.282248 7.977751 Z M 32.091839 2.713872 L 32.091839 2.880225 C 32.091839 3.266401 31.765074 3.587225 31.384839 3.587225 L 31.153133 3.587225 C 31.058075 3.587225 30.998663 3.515931 30.998663 3.432754 L 30.998663 2.149461 C 30.998663 2.066284 31.058075 1.99499 31.153133 1.99499 L 31.384839 1.99499 C 31.765074 1.99499 32.091839 2.315814 32.091839 2.713872 Z M 32.091839 2.713872" stroke="#FFF" stroke-width=".195"/></svg>