<svg width="104" height="140" viewBox="0 0 104 140" fill="none" xmlns="http://www.w3.org/2000/svg">
<rect y="2.41376" width="103.555" height="137.586" fill="#A0A0A0" fill-opacity="0.95"/>
<rect width="104" height="140" fill="#826E5B" fill-opacity="0.95"/>
<rect x="9.633" y="10.3514" width="31.3073" height="29.1048" fill="#252222"/>
<rect x="57.7982" y="10.3514" width="31.3073" height="29.1048" fill="#252222"/>
<rect x="9.633" y="47.3939" width="31.3073" height="29.1048" fill="#252222"/>
<rect x="9.633" y="92.374" width="31.3073" height="47.626" fill="#252222"/>
<rect x="57.7982" y="47.3939" width="31.3073" height="29.1048" fill="#252222"/>
<path d="M89.1055 76.4988C89.1055 76.4988 87.2728 76.4988 82.7839 76.4988C78.295 76.4988 74.656 76.4988 74.656 76.4988C74.656 69.1924 78.295 63.2693 82.7839 63.2693C87.2728 63.2693 89.1055 69.1924 89.1055 76.4988Z" fill="#3D405B" fill-opacity="0.95"/>
<path d="M40.9404 140C40.9404 140 37.1666 140 32.5115 140C27.8563 140 24.0826 140 24.0826 140C24.0826 123.926 27.8563 110.895 32.5115 110.895C37.1666 110.895 40.9404 123.926 40.9404 140Z" fill="#E07A5F" fill-opacity="0.95"/>
<path d="M36.1239 39.4562C36.1239 39.4562 32.3501 39.4562 27.695 39.4562C23.0398 39.4562 19.2661 39.4562 19.2661 39.4562C19.2661 32.1498 23.0398 26.2267 27.695 26.2267C32.3501 26.2267 36.1239 32.1498 36.1239 39.4562Z" fill="#81B29A"/>
<ellipse cx="77.0643" cy="63.2692" rx="4.81652" ry="7.93767" fill="#E5E5E5"/>
<ellipse cx="28.8991" cy="112.218" rx="4.81652" ry="6.61472" fill="#E5E5E5"/>
<ellipse cx="34.9197" cy="24.9038" rx="6.02064" ry="6.61472" fill="#E5E5E5"/>
</svg>
