<svg width="120" height="80" viewBox="0 0 120 80" fill="none" xmlns="http://www.w3.org/2000/svg">
<path d="M0 0H120V80H0V0Z" fill="#0C2938"/>
<path d="M34.624 58.912C31.328 58.912 28.528 58.304 26.224 57.088C23.952 55.84 22.224 54.08 21.04 51.808C19.856 49.536 19.264 46.848 19.264 43.744V22.96H27.136V44.032C27.136 45.568 27.424 46.912 28 48.064C28.608 49.184 29.456 50.048 30.544 50.656C31.664 51.264 33.024 51.568 34.624 51.568C36.256 51.568 37.616 51.264 38.704 50.656C39.824 50.048 40.672 49.184 41.248 48.064C41.824 46.944 42.112 45.6 42.112 44.032V22.96H49.984V43.744C49.984 46.848 49.392 49.536 48.208 51.808C47.024 54.08 45.296 55.84 43.024 57.088C40.752 58.304 37.952 58.912 34.624 58.912Z" fill="#FCF7F4"/>
<path d="M71.8896 58.912C68.5936 58.912 65.7936 58.304 63.4896 57.088C61.2176 55.84 59.4896 54.08 58.3056 51.808C57.1216 49.536 56.5296 46.848 56.5296 43.744V22.96H64.4016V44.032C64.4016 45.568 64.6896 46.912 65.2656 48.064C65.8736 49.184 66.7216 50.048 67.8096 50.656C68.9296 51.264 70.2896 51.568 71.8896 51.568C73.5216 51.568 74.8816 51.264 75.9696 50.656C77.0896 50.048 77.9376 49.184 78.5136 48.064C79.0896 46.944 79.3776 45.6 79.3776 44.032V22.96H87.2496V43.744C87.2496 46.848 86.6576 49.536 85.4736 51.808C84.2896 54.08 82.5616 55.84 80.2896 57.088C78.0176 58.304 75.2176 58.912 71.8896 58.912Z" fill="#FCF7F4"/>
<path d="M94.2272 46.144V22.96H102.099V46.144H94.2272ZM93.6513 58V50.272H102.675V58H93.6513Z" fill="#FCF7F4"/>
</svg>
