<?xml version="1.0" encoding="UTF-8"?>
<svg id="a" data-name="Layer 1" xmlns="http://www.w3.org/2000/svg" viewBox="0 0 735.32 675">
  <g id="b" data-name="g1429">
    <path id="c" data-name="path1174" d="M597.15,590.02c-52.69,28.43-156.28,31.43-236,31.43s-195.14-9.51-224.17-30.5c16.4-24.55,100.36-53.73,224.17-53.73s208.04,29.95,236,52.8Z" style="fill: #fff; fill-rule: evenodd; stroke-width: 0px;"/>
    <g id="d" data-name="g1457">
      <path id="e" data-name="path1032" d="M367.66,497.9l-9.8-55.5-19.91,6.26,6.1-19.96-18.5-9.65,18.43-9.8-6.26-19.91,19.96,6.1,9.65-57.66,9.8,57.59,19.91-6.26-6.1,19.96,18.5,9.65-18.43,9.8,6.26,19.91-19.96-6.1-9.65,55.57Z" style="fill: #fff; stroke-width: 0px;"/>
      <path id="f" data-name="path1285" d="M546.06,432.73c-1.41,3.74-10.37,15.4-12.45,17.97h0c-23.28,3.14-40.72-7.52-46.13-10.23-16.45,24.9-32.31,29.8-48.06,30.8-10.28,8.53-17.86,17.37-15.81,27.32,64.7,2.76,123.51,17.73,176.51,44.77-11.07-26.61-4.4-52.67-1.47-81.45,1.25-12.2,14.51-19.8,14.4-32.58.24-2.7,5.05-27.91,4.95-30.61-18.41,3.45-47.08,21.78-71.96,34Z" style="fill: #fff; stroke-width: 0px;"/>
      <path id="g" data-name="path1075" d="M493.43,292.19c-15.58,14.55-15.71,27.56-32.86,46.5-2.16,3.65-3.03,9.93-4.02,17.62l-9.37,96.02c19.56,2.36,28.5-33.03,38.64-46.29,11.96-25.03,9.36-76.07,7.62-113.85h0Z" style="fill: #fff; stroke-width: 0px;"/>
      <path id="h" data-name="path1077" d="M475.78,229.81c5.65,5.25,16.94,26.95,7.76,42.39-11.49,13.92-24.34,39.88-34.77,60.9-10.92-15.38-3.8-34.64,8.46-54.28,9.71-15.55,14.64-33.72,18.55-49.01h0Z" style="fill: #fff; stroke-width: 0px;"/>
      <path id="i" data-name="path1079" d="M458.31,176.43c-.68,1.02-.89,2.17-1.38,3.27-7.73,17.04-7.24,32.72-15.96,47.52-7.18,12.2-13.95,19.33-16.68,37.18-2.51,13.26-.39,31.07,5.93,35.76-1.47-18.59,11.7-36.9,21.73-50.18,13.16-24.2,20.64-56.7,11.21-69.6-1.24-1.7-1.84-2.82-4.84-3.96h0Z" style="fill: #fff; stroke-width: 0px;"/>
      <path id="j" data-name="path1081" d="M420.83,116.06s2.28,27.65.31,41.32c-3.51,24.39-21.42,71.36-21.42,71.36-4.26,18.24-.4,29.87,10.25,35.95l1.55-19.32c6.25-31.23,31.96-51.09,34.77-86.66-.6-14.6-9.42-28.45-17.08-43.73-4.18-5.23-6.68-3.68-8.38,1.07h0Z" style="fill: #fff; stroke-width: 0px;"/>
      <path id="k" data-name="path1083" d="M375.19,53.55c-1.6,12.24-3.45,24.6-2.86,37.03,1.35,28.62,5.7,57.62,2.62,91.47-1.46,16.02,1.6,32.08,1.79,48.03.16,4.66,2.35,6.63,4.35,8.85,2.27-13.84,2.64-27.36,8.69-41.85,7.8-12.67,10.72-21.97,14.59-31.93,4.23-55.82-2.04-80.67-11.8-95.24l-3.1.54c-11.59-15.67-10.03-12.01-14.28-16.9h0Z" style="fill: #fff; stroke-width: 0px;"/>
      <path id="l" data-name="path1085" d="M381.49,269.16l2.2,69.96c48,15.39,41.14,114.15,11.29,147.75-1.35,6.16,1.84,8.11,9.14,6.04,20.68-17.98,35.98-46.43,33.87-108.72-2.4-26.73-7.59-69.72-56.51-115.03h0Z" style="fill: #fff; stroke-width: 0px;"/>
      <path id="m" data-name="path1274" d="M635.39,345.46c1.3,7.08-4.46,37.1-22.03,45.51-18.52,6.02-45.93,21.4-68.15,33.82.85-18.02,21.84-36.83,44.69-47.23,18.09-8.24,32.39-21.28,45.49-32.09Z" style="fill: #fff; stroke-width: 0px;"/>
      <path id="n" data-name="path1276" d="M640.91,312.33c-1.19.58-2.39,1.2-3.12,2.2-11.76,16.18-29.33,20.36-45.56,29.26-13.37,7.33-19.6,7.21-32.48,21.36-13.02,10.39-18.66,34.21-15.99,41.26,9.7-16.64,31.83-33.49,48.29-40.5,25.59-15.02,51.2-32.8,50.69-48.05-.07-2,.07-3.23-1.83-5.54h0Z" style="fill: #fff; stroke-width: 0px;"/>
      <path id="o" data-name="path1278" d="M648.29,253.79s-15.94,24.05-26.39,34.46c-18.64,18.56-63.81,48.94-63.81,48.94-15.3,13.1-19.59,24.61-14.68,34.78l13.75-15.29c25.33-22.92,59.48-27.03,84.76-55.21,8.92-12.42,10.53-28.16,14.02-44.53-.1-6.35-3.17-6.28-7.65-3.15h0Z" style="fill: #fff; stroke-width: 0px;"/>
      <path id="p" data-name="path1280" d="M654.45,177.92c-8.78,9.71-17.85,19.4-24.87,30.26-16.19,24.99-30.05,51.67-53.18,79.12-10.94,12.99-18.08,28.06-27.57,41.73-2.69,4.05-2.01,6.71-1.66,9.51,10.32-10.77,20.34-19.16,34.28-28.77,14.32-7.27,33.47-26.82,45.6-43.27,15-20.34,31.79-49.94,32.3-66.77l.12-6.52c-.38-18.6-3.01-15-5.02-15.29h0Z" style="fill: #fff; stroke-width: 0px;"/>
      <path id="q" data-name="path1383" d="M189.26,432.73c1.41,3.74,10.37,15.4,12.45,17.97h0c23.28,3.14,40.72-7.52,46.13-10.23,16.45,24.9,32.31,29.8,48.06,30.8,10.28,8.53,17.86,17.37,15.81,27.32-64.7,2.76-123.51,17.73-176.51,44.77,11.07-26.61,4.4-52.67,1.47-81.45-1.25-12.2-14.51-19.8-14.4-32.58-.24-2.7-5.05-27.91-4.95-30.61,18.41,3.45,47.08,21.78,71.96,34Z" style="fill: #fff; stroke-width: 0px;"/>
      <path id="r" data-name="path1385" d="M241.89,292.19c15.58,14.55,15.71,27.56,32.86,46.5,2.16,3.65,3.03,9.93,4.02,17.62l9.37,96.02c-19.56,2.36-28.5-33.03-38.64-46.29-11.96-25.03-9.36-76.07-7.62-113.85h0Z" style="fill: #fff; stroke-width: 0px;"/>
      <path id="s" data-name="path1387" d="M259.54,229.81c-5.65,5.25-16.94,26.95-7.76,42.39,11.49,13.92,24.34,39.88,34.77,60.9,10.92-15.38,3.8-34.64-8.46-54.28-9.71-15.55-14.64-33.72-18.55-49.01h0Z" style="fill: #fff; stroke-width: 0px;"/>
      <path id="t" data-name="path1389" d="M277.01,176.43c.68,1.02.89,2.17,1.38,3.27,7.73,17.04,7.24,32.72,15.96,47.52,7.18,12.2,13.95,19.33,16.68,37.18,2.51,13.26.39,31.07-5.93,35.76,1.47-18.59-11.7-36.9-21.73-50.18-13.16-24.2-20.64-56.7-11.21-69.6,1.24-1.7,1.84-2.82,4.84-3.96h0Z" style="fill: #fff; stroke-width: 0px;"/>
      <path id="u" data-name="path1391" d="M314.49,116.06s-2.28,27.65-.31,41.32c3.51,24.39,21.42,71.36,21.42,71.36,4.26,18.24.4,29.87-10.25,35.95l-1.55-19.32c-6.25-31.23-31.96-51.09-34.77-86.66.6-14.6,9.42-28.45,17.08-43.73,4.18-5.23,6.68-3.68,8.38,1.07h0Z" style="fill: #fff; stroke-width: 0px;"/>
      <path id="v" data-name="path1393" d="M360.13,53.55c1.6,12.24,3.45,24.6,2.86,37.03-1.35,28.62-5.7,57.62-2.62,91.47,1.46,16.02-1.6,32.08-1.79,48.03-.16,4.66-2.35,6.63-4.35,8.85-2.27-13.84-2.64-27.36-8.69-41.85-7.8-12.67-10.72-21.97-14.59-31.93-4.23-55.82,2.04-80.67,11.8-95.24l3.1.54c11.59-15.67,10.03-12.01,14.28-16.9h0Z" style="fill: #fff; stroke-width: 0px;"/>
      <path id="w" data-name="path1395" d="M353.83,269.16l-2.2,69.96c-48,15.39-41.14,114.15-11.29,147.75,1.35,6.16-1.84,8.11-9.14,6.04-20.68-17.98-35.98-46.43-33.87-108.72,2.4-26.73,7.59-69.72,56.51-115.03h0Z" style="fill: #fff; stroke-width: 0px;"/>
      <path id="x" data-name="path1397" d="M99.93,345.46c-1.3,7.08,4.46,37.1,22.03,45.51,18.52,6.02,45.93,21.4,68.15,33.82-.85-18.02-21.84-36.83-44.69-47.23-18.09-8.24-32.39-21.28-45.49-32.09h0Z" style="fill: #fff; stroke-width: 0px;"/>
      <path id="y" data-name="path1399" d="M94.41,312.33c1.19.58,2.39,1.2,3.12,2.2,11.76,16.18,29.33,20.36,45.56,29.26,13.37,7.33,19.6,7.21,32.48,21.36,13.02,10.39,18.66,34.21,15.99,41.26-9.7-16.64-31.83-33.49-48.29-40.5-25.59-15.02-51.2-32.8-50.69-48.05.07-2-.07-3.23,1.83-5.54h0Z" style="fill: #fff; stroke-width: 0px;"/>
      <path id="z" data-name="path1401" d="M87.03,253.79s15.94,24.05,26.39,34.46c18.64,18.56,63.81,48.94,63.81,48.94,15.3,13.1,19.59,24.61,14.68,34.78l-13.75-15.29c-25.33-22.92-59.48-27.03-84.76-55.21-8.92-12.42-10.53-28.16-14.02-44.53.1-6.35,3.17-6.28,7.65-3.15h0Z" style="fill: #fff; stroke-width: 0px;"/>
      <path id="aa" data-name="path1403" d="M80.87,177.92c8.78,9.71,17.85,19.4,24.87,30.26,16.19,24.99,30.05,51.67,53.18,79.12,10.94,12.99,18.08,28.06,27.57,41.73,2.69,4.05,2.01,6.71,1.66,9.51-10.32-10.77-20.34-19.16-34.28-28.77-14.32-7.27-33.47-26.82-45.6-43.27-15-20.34-31.79-49.94-32.3-66.77l-.12-6.52c.38-18.6,3.01-15,5.02-15.29h0Z" style="fill: #fff; stroke-width: 0px;"/>
    </g>
    <path id="ab" data-name="rect1431" d="M136.5,549.38c94.57-61.02,359.64-60.37,462.32,0v26.61c-145.7-63.85-336.85-61.42-462.32,0v-26.61Z" style="fill: #fff; stroke-width: 0px;"/>
  </g>
</svg>