<?xml version="1.0" encoding="UTF-8" standalone="no"?>
<svg
   width="110.72158"
   height="107.88373"
   version="1.1"
   id="svg77"
   sodipodi:docname="logo.svg"
   xmlns:inkscape="http://www.inkscape.org/namespaces/inkscape"
   xmlns:sodipodi="http://sodipodi.sourceforge.net/DTD/sodipodi-0.dtd"
   xmlns="http://www.w3.org/2000/svg"
   xmlns:svg="http://www.w3.org/2000/svg">
  <sodipodi:namedview
     id="namedview79"
     pagecolor="#ffffff"
     bordercolor="#111111"
     borderopacity="1"
     inkscape:showpageshadow="0"
     inkscape:pageopacity="0"
     inkscape:pagecheckerboard="1"
     inkscape:deskcolor="#d1d1d1"
     showgrid="false" />
  <defs
     id="defs73">
    <clipPath
       id="a"
       clipPathUnits="userSpaceOnUse">
      <path
         d="m 128.704,62.749 h 152.98 v 133.743 h -152.98 z"
         style="fill:#000000"
         id="path70" />
    </clipPath>
  </defs>
  <path
     d="m 207.738,70.958 -0.345,1.365 c -0.706,2.792 -0.795,3.306 -0.725,4.166 0.056,0.691 -0.065,0.88 -0.568,0.88 -0.786,0 -2,-1.466 -1.75,-2.114 0.112,-0.293 0.014,-0.437 -0.258,-0.379 -0.3,0.064 -0.413,-0.175 -0.354,-0.754 0.086,-0.831 0.06,-0.842 -1.548,-0.701 -1.22,0.107 -1.853,-0.003 -2.487,-0.43 -1.031,-0.693 -2.332,-0.78 -2.78,-0.185 -0.33,0.44 -1.43,0.252 -1.43,-0.246 0,-0.144 -0.467,-0.03 -1.038,0.255 -1.201,0.6 -3.66,0.783 -4.504,0.336 -0.38,-0.2 -1.154,-0.18 -2.24,0.059 -2.982,0.657 -3.37,0.658 -3.58,-0.002 -0.15,-0.475 -0.344,-0.55 -0.895,-0.34 -0.387,0.147 -0.684,0.5 -0.66,0.781 0.024,0.282 -0.086,0.432 -0.244,0.334 -0.954,-0.59 -2.52,1.297 -2.52,3.036 0,0.667 -0.157,0.99 -0.48,0.99 a 0.482,0.482 0 0 0 -0.48,0.48 c 0,0.264 0.144,0.479 0.32,0.479 0.176,0 0.32,-0.145 0.32,-0.323 0,-0.19 0.263,-0.157 0.643,0.08 0.354,0.222 0.576,0.577 0.494,0.792 -0.082,0.214 -0.012,0.476 0.156,0.58 0.169,0.104 0.307,0.465 0.307,0.802 0,0.36 0.402,0.822 0.97,1.116 1.058,0.547 1.003,1.11 -0.109,1.119 -0.927,0.006 -1.636,0.477 -1.369,0.91 0.118,0.19 -0.017,0.79 -0.299,1.336 -0.282,0.545 -0.442,1.163 -0.357,1.37 0.085,0.209 0.166,0.127 0.18,-0.18 0.013,-0.309 0.153,-0.561 0.31,-0.561 0.435,0 0.674,0.86 0.674,2.426 0,1.237 0.166,1.575 1.324,2.699 0.728,0.706 1.653,1.367 2.057,1.468 0.403,0.102 0.814,0.396 0.914,0.655 0.1,0.26 0.324,0.383 0.498,0.275 0.174,-0.108 0.822,-0.1 1.441,0.016 0.929,0.174 1.125,0.35 1.125,1.006 0,0.437 0.247,1.213 0.55,1.724 0.54,0.914 1.052,1.22 1.052,0.63 0,-0.166 -0.147,-0.392 -0.326,-0.503 a 0.387,0.387 0 0 1 -0.12,-0.533 c 0.133,-0.214 0.3,-0.178 0.473,0.102 0.148,0.238 0.417,0.452 0.6,0.474 0.182,0.022 0.368,0.068 0.412,0.102 0.16,0.124 1.84,0.292 1.84,0.183 0,-0.061 -0.517,-0.432 -1.149,-0.822 -3.272,-2.022 -3.116,-4.18 0.256,-3.55 0.773,0.144 1.686,0.151 2.03,0.017 1.037,-0.406 1.277,-0.333 2.738,0.828 0.772,0.614 1.63,1.117 1.904,1.12 0.275,0 0.82,0.434 1.211,0.962 0.92,1.243 2.428,1.31 3.523,0.154 0.415,-0.437 0.884,-0.795 1.041,-0.795 0.158,0 0.286,-0.218 0.286,-0.488 0,-0.27 0.207,-0.57 0.459,-0.666 0.252,-0.097 0.446,-0.417 0.433,-0.71 -0.013,-0.295 0.035,-0.678 0.104,-0.854 a 0.394,0.394 0 0 0 -0.196,-0.48 c -0.176,-0.089 -0.365,0.164 -0.422,0.56 -0.056,0.396 -0.284,0.72 -0.505,0.72 -0.548,0 -1.586,-1.177 -2.399,-2.716 -0.783,-1.482 -0.85,-2.084 -0.232,-2.084 0.242,0 0.609,-0.204 0.814,-0.451 0.288,-0.347 0.63,-0.378 1.49,-0.141 1.196,0.33 2.502,0.098 2.2,-0.39 -0.101,-0.164 -0.04,-0.298 0.136,-0.298 0.176,0 0.364,-0.531 0.418,-1.18 0.083,-0.986 0.268,-1.245 1.13,-1.595 0.89,-0.362 1.003,-0.354 0.845,0.059 -0.23,0.6 0.182,0.594 0.986,-0.014 0.542,-0.41 0.552,-0.47 0.08,-0.47 -0.798,0 -0.728,-1.974 0.098,-2.722 0.352,-0.318 0.64,-0.898 0.64,-1.289 0,-1.31 0.396,-2.7 0.712,-2.505 0.69,0.426 -0.413,-1.105 -1.139,-1.58 -0.426,-0.28 -1.205,-1.383 -1.73,-2.452 z m -2.054,3.893 c -0.07,-0.012 -0.149,0.08 -0.266,0.27 -0.17,0.273 -0.138,0.713 0.082,1.11 0.334,0.604 0.373,0.61 0.484,0.079 0.067,-0.319 0.03,-0.819 -0.082,-1.112 -0.085,-0.222 -0.148,-0.336 -0.218,-0.347 z m -1.432,5.539 c 0.205,-0.086 0.443,-0.072 0.785,0.013 0.47,0.117 0.903,0.348 0.963,0.514 0.06,0.166 0.327,0.52 0.592,0.785 0.29,0.291 0.391,0.703 0.254,1.035 -0.156,0.377 -0.275,0.424 -0.377,0.15 -0.258,-0.69 -1.124,-0.477 -0.902,0.221 0.133,0.42 0,0.727 -0.409,0.946 -0.516,0.276 -0.706,0.13 -1.302,-0.987 -0.653,-1.223 -0.666,-1.359 -0.186,-2.091 0.206,-0.315 0.377,-0.5 0.582,-0.586 z m -44.03,4.39 c -0.264,0.029 -0.475,0.115 -0.573,0.274 -0.198,0.32 -0.556,0.332 -1.635,0.058 -0.76,-0.192 -1.451,-0.281 -1.537,-0.195 -0.086,0.086 0.16,0.24 0.548,0.342 0.849,0.222 0.941,0.75 0.131,0.75 -0.316,0 -0.733,0.157 -0.925,0.35 -0.253,0.252 -0.536,0.249 -1.024,-0.012 -0.847,-0.454 -0.89,-0.006 -0.115,1.177 0.535,0.817 0.534,0.845 -0.018,0.633 -0.927,-0.356 -4.404,0.751 -4.754,1.514 -0.27,0.592 -0.596,0.66 -3.279,0.68 -2.461,0.017 -3.184,0.141 -4.162,0.718 -0.651,0.385 -1.345,0.7 -1.541,0.7 -0.196,0 -0.64,0.252 -0.984,0.56 -0.606,0.54 -0.619,0.535 -0.403,-0.16 0.123,-0.396 0.133,-0.72 0.022,-0.72 -0.304,0 -1.736,0.61 -1.93,2.382 1.108,2.596 1.572,4.902 1.951,7.4 0.31,0.936 0.013,0.666 0.617,1.932 0.174,0.363 1.142,1.64 1.19,1.974 0.904,2.047 0.38,1.358 -0.277,3.245 -0.463,0.396 -0.263,2.283 -0.395,2.305 0.334,0.752 0.552,2.642 1.22,4.09 0.53,0.742 0.632,1.274 0.522,2.712 -0.075,0.985 -0.25,1.973 -0.388,2.196 -0.427,0.682 -0.343,6.391 0.11,7.562 0.23,0.594 0.419,1.494 0.419,2 0.037,0.154 0.583,3.63 1.332,5.082 -0.031,0.088 0.133,0.38 0.365,0.652 0.869,1.015 0.922,1.312 0.348,1.946 -0.4,0.442 -0.614,1.294 -0.698,2.78 -0.147,2.61 -1.048,3.01 -1.07,4.004 0.505,2.82 1.431,3.46 2.131,4.097 0.342,1.556 2.666,3.696 5.352,4.925 1.364,0.625 3.004,1.49 3.644,1.924 1.607,1.09 2.962,1.035 4.115,-0.17 0.506,-0.528 1.206,-0.959 1.555,-0.959 0.35,0 1.569,-0.454 2.709,-1.01 1.79,-0.871 2.12,-0.944 2.424,-0.533 0.53,0.718 3.47,-0.021 4.498,-1.13 0.43,-0.466 0.951,-0.846 1.154,-0.846 0.203,0 0.284,-0.222 0.18,-0.492 a 0.507,0.507 0 0 1 0.287,-0.674 c 0.261,-0.1 0.475,-0.378 0.475,-0.617 0,-0.24 0.258,-0.574 0.576,-0.745 0.318,-0.17 0.855,-0.823 1.193,-1.45 0.368,-0.683 0.856,-1.143 1.213,-1.143 0.647,0 2.47,-0.92 2.852,-1.44 0.129,-0.176 0.237,-0.609 0.24,-0.963 0.006,-0.747 1.051,-1.506 1.72,-1.25 0.254,0.098 0.547,0.037 0.653,-0.134 0.106,-0.172 0.444,-0.257 0.752,-0.19 0.308,0.068 1.064,-0.127 1.68,-0.431 0.819,-0.406 1.147,-0.795 1.222,-1.452 0.057,-0.493 0.308,-0.976 0.559,-1.072 0.25,-0.096 0.36,-0.328 0.244,-0.516 -0.13,-0.21 -0.014,-0.266 0.303,-0.144 0.281,0.108 0.573,0.025 0.648,-0.186 0.091,-0.254 0.392,-0.15 0.9,0.31 0.641,0.581 0.829,0.62 1.165,0.253 0.22,-0.241 0.4,-0.588 0.4,-0.772 0,-0.183 0.214,-0.334 0.478,-0.334 0.278,0 0.49,-0.302 0.504,-0.718 0.047,-1.436 1.146,-2.79 2.643,-3.258 0.478,-0.15 0.542,-0.373 0.353,-1.223 -0.375,-1.686 -0.333,-1.946 0.368,-2.304 0.366,-0.188 0.6,-0.535 0.521,-0.772 -0.103,-0.31 0.045,-0.372 0.533,-0.217 0.623,0.198 0.678,0.097 0.678,-1.246 0,-1.086 0.124,-1.46 0.48,-1.46 0.68,0 0.597,-0.758 -0.16,-1.442 a 1.827,1.827 0 0 1 -0.574,-1.457 c 0.037,-0.483 -0.08,-1.073 -0.258,-1.31 -0.177,-0.238 -0.484,-0.812 -0.681,-1.276 -0.322,-0.756 -0.297,-0.827 0.244,-0.686 0.54,0.142 0.573,0.051 0.31,-0.865 -0.161,-0.563 -0.64,-1.373 -1.066,-1.799 -0.425,-0.425 -0.863,-1.333 -0.973,-2.017 -0.147,-0.92 -0.513,-1.502 -1.4,-2.227 l -1.201,-0.98 0.88,-0.01 c 0.723,-0.01 0.88,-0.156 0.88,-0.813 0,-0.675 0.15,-0.799 0.96,-0.799 0.528,0 0.96,-0.06 0.96,-0.134 0,-0.074 0.077,-0.334 0.171,-0.579 0.094,-0.244 -0.086,-0.747 -0.4,-1.119 -1.994,-2.36 -2.244,-3.072 -1.13,-3.23 0.894,-0.127 0.922,-0.735 0.067,-1.508 -0.358,-0.324 -0.578,-0.779 -0.49,-1.01 0.231,-0.601 -0.131,-1.38 -0.642,-1.38 -0.273,0 -0.361,-0.196 -0.235,-0.526 0.247,-0.643 -0.682,-1.395 -1.722,-1.395 -0.407,0 -0.739,-0.144 -0.739,-0.32 0,-0.176 0.449,-0.318 0.998,-0.318 0.876,0 0.947,-0.063 0.579,-0.508 -0.28,-0.336 -0.75,-0.458 -1.399,-0.36 -0.538,0.082 -1.229,0.02 -1.537,-0.142 -0.41,-0.215 -0.56,-0.169 -0.56,0.172 0,0.628 -0.635,0.807 -1.594,0.451 -0.436,-0.162 -1.445,-0.273 -2.24,-0.246 -2.44,0.081 -2.887,0.01 -2.887,-0.465 0,-0.296 -0.648,-0.6 -1.84,-0.863 -1.041,-0.23 -2.508,-0.872 -3.379,-1.479 -1.138,-0.793 -1.722,-1.012 -2.24,-0.842 -0.386,0.127 -1.251,0.194 -1.924,0.149 -2.179,-0.144 -4.856,-1.629 -2.938,-1.629 0.477,0 0.754,-0.136 0.641,-0.318 -0.109,-0.176 -0.44,-0.322 -0.738,-0.323 -0.298,0 -0.955,-0.217 -1.46,-0.48 -0.503,-0.263 -1.116,-0.479 -1.363,-0.479 -0.246,0 -0.711,-0.165 -1.035,-0.367 -0.46,-0.287 -0.821,-0.25 -1.664,0.17 -1.025,0.511 -1.117,0.508 -1.92,-0.086 -0.836,-0.618 -0.847,-0.618 -1.386,0.012 -0.518,0.605 -0.498,0.686 0.431,1.744 1.031,1.174 1.222,1.729 0.594,1.729 -0.21,0 -0.101,0.21 0.24,0.468 0.383,0.29 0.46,0.475 0.201,0.48 -0.23,0.006 -0.33,0.155 -0.22,0.33 0.108,0.177 -0.027,0.321 -0.301,0.321 a 0.5,0.5 0 0 1 -0.498,-0.5 c 0,-0.274 -0.134,-0.416 -0.295,-0.316 -0.161,0.1 -0.688,0.03 -1.172,-0.155 -0.607,-0.23 -0.982,-0.23 -1.21,-0.002 -0.23,0.23 -0.164,0.333 0.212,0.333 0.842,0 0.642,0.547 -0.264,0.72 -0.515,0.099 -0.906,-0.02 -1.078,-0.326 -0.148,-0.265 -0.718,-0.517 -1.267,-0.56 -1.164,-0.092 -1.032,0.337 0.277,0.896 0.887,0.379 0.903,0.422 0.479,1.414 -0.405,0.947 -0.512,1.003 -1.42,0.742 -0.776,-0.222 -0.983,-0.184 -0.983,0.184 0,0.664 1.625,1.244 1.969,0.703 0.144,-0.227 0.263,-0.261 0.266,-0.076 0.003,0.185 -0.155,0.494 -0.35,0.69 -0.26,0.258 -0.163,0.456 0.355,0.734 0.519,0.277 0.613,0.473 0.354,0.732 -0.544,0.544 -0.437,0.756 0.605,1.188 0.674,0.279 1.082,0.297 1.366,0.062 0.299,-0.248 0.502,-0.125 0.787,0.479 0.377,0.8 0.366,0.81 -0.645,0.58 a 22.437,22.437 0 0 0 -2.306,-0.36 c -2.014,-0.196 -2.361,-0.4 -1.62,-0.945 0.443,-0.326 0.49,-0.458 0.16,-0.461 -0.388,-0.004 -0.387,-0.055 0.018,-0.316 0.32,-0.207 0.347,-0.312 0.08,-0.315 -0.22,-0.003 -0.398,-0.22 -0.398,-0.484 0,-0.58 -0.848,-0.644 -1.055,-0.08 -0.116,0.317 -0.237,0.313 -0.584,-0.014 -0.369,-0.349 -0.362,-0.46 0.041,-0.715 0.368,-0.233 0.28,-0.303 -0.385,-0.307 -0.473,-0.003 -0.95,-0.15 -1.058,-0.326 -0.109,-0.176 -0.01,-0.32 0.22,-0.324 0.23,-0.003 0.615,-0.128 0.854,-0.28 0.359,-0.227 0.343,-0.412 -0.088,-1.07 -0.286,-0.437 -0.436,-1.016 -0.332,-1.287 0.104,-0.27 0.033,-0.589 -0.158,-0.707 -0.191,-0.118 -0.26,-0.356 -0.152,-0.529 0.106,-0.173 0.36,-0.991 0.564,-1.818 0.31,-1.258 0.496,-1.506 1.127,-1.512 0.415,-0.004 1.013,-0.327 1.33,-0.719 0.317,-0.392 0.712,-0.713 0.877,-0.713 0.165,0 0.53,-0.257 0.814,-0.57 0.662,-0.731 2.956,-0.847 4.686,-0.236 0.72,0.253 1.299,0.321 1.299,0.152 0,-0.168 0.624,-0.307 1.389,-0.307 1.031,0 1.63,-0.209 2.32,-0.812 0.904,-0.79 0.912,-0.825 0.308,-1.28 -0.341,-0.256 -0.792,-0.466 -1.002,-0.466 -0.21,0 -0.454,-0.279 -0.543,-0.62 -0.151,-0.58 -1.428,-1.015 -2.222,-0.929 z m 48.493,3.215 c -0.333,0.052 -0.338,0.33 -0.354,0.893 -0.024,0.857 0.076,0.96 0.926,0.96 0.524,0 1.126,0.143 1.338,0.317 0.213,0.174 1.179,0.947 2.147,1.719 l 1.76,1.404 0.099,-0.892 c 0.092,-0.832 0.164,-0.874 1.07,-0.614 0.535,0.154 1.181,0.453 1.436,0.664 0.36,0.299 0.547,0.299 0.846,0 0.298,-0.298 0.283,-0.445 -0.067,-0.662 -0.665,-0.41 -3.137,-0.726 -3.869,-0.494 -0.363,0.115 -0.635,0.055 -0.635,-0.14 0,-0.188 -0.288,-0.342 -0.64,-0.342 -0.427,0 -0.64,-0.212 -0.64,-0.639 0,-0.356 0.213,-0.64 0.48,-0.64 1.14,0 0.32,-0.549 -1.573,-1.053 -1.33,-0.355 -1.991,-0.532 -2.324,-0.48 z m -51.943,1.533 a 0.321,0.321 0 0 0 -0.32,0.32 c 0,0.177 0.144,0.321 0.32,0.321 0.176,0 0.32,-0.144 0.32,-0.32 a 0.321,0.321 0 0 0 -0.32,-0.32 z m 52.798,1.002 c -0.212,-0.063 -0.318,0.01 -0.318,0.217 0,0.142 0.397,0.414 0.88,0.606 1.258,0.496 1.294,0.475 0.4,-0.225 -0.43,-0.335 -0.749,-0.534 -0.962,-0.598 z m -11.054,1.004 c 0.117,-0.09 0.324,-0.066 0.529,0.139 0.23,0.23 0.236,0.41 0.018,0.545 -0.18,0.11 -0.424,0.046 -0.541,-0.145 -0.152,-0.246 -0.124,-0.45 -0.006,-0.539 z m 9.072,0.291 c -0.103,0.076 -0.095,0.315 -0.014,0.742 0.174,0.908 0.64,1.053 0.934,0.29 0.108,-0.282 -0.004,-0.64 -0.25,-0.795 -0.355,-0.225 -0.567,-0.313 -0.67,-0.237 z m -9.711,2.98 a 0.29,0.29 0 0 0 -0.295,0.147 c -0.114,0.185 -0.104,0.504 0.022,0.707 0.156,0.254 0.011,0.313 -0.461,0.19 -0.972,-0.254 -0.858,0.201 0.293,1.17 l 0.982,0.828 -0.822,0.312 c -0.454,0.173 -0.825,0.568 -0.828,0.881 -0.002,0.312 -0.091,0.893 -0.198,1.29 -0.23,0.859 0.09,0.918 0.916,0.171 0.524,-0.474 0.649,-0.485 0.932,-0.08 0.243,0.347 0.285,0.216 0.162,-0.508 -0.091,-0.536 -0.067,-1.137 0.055,-1.334 0.229,-0.37 3.997,-0.417 4.36,-0.055 0.22,0.222 2.852,0.072 3.75,-0.212 0.785,-0.25 0.758,-0.769 -0.03,-0.563 -0.401,0.105 -0.765,-0.074 -1.037,-0.51 -0.458,-0.733 -1.244,-0.855 -2.203,-0.342 -1.51,0.809 -4.783,0.146 -4.783,-0.968 0,-0.542 -0.462,-1.084 -0.815,-1.123 z m 25.695,1.497 c -1.348,0.069 -1.854,0.262 -2.566,0.98 -0.687,0.693 -1.072,0.849 -1.705,0.69 -1.015,-0.255 -2.37,0.428 -2.37,1.193 0,0.776 -1.212,1.563 -2.406,1.563 -0.541,0 -1.147,0.162 -1.345,0.36 -0.318,0.319 -1.186,0.477 -3.848,0.7 -0.396,0.033 -0.72,0.192 -0.72,0.354 0,0.161 -0.081,0.212 -0.18,0.113 -0.1,-0.099 -0.551,0.166 -1.006,0.588 -0.455,0.421 -1.176,0.765 -1.602,0.765 -0.629,0 -0.737,0.121 -0.572,0.641 0.172,0.542 0.058,0.639 -0.744,0.639 -0.542,0 -1.025,0.203 -1.129,0.474 -0.1,0.261 -0.369,0.404 -0.596,0.317 -0.302,-0.116 -0.404,0.243 -0.384,1.347 0.014,0.829 0.178,1.557 0.365,1.62 0.187,0.062 0.265,0.405 0.172,0.761 -0.102,0.388 0.118,1.037 0.547,1.617 0.506,0.685 0.664,1.233 0.537,1.868 -0.12,0.596 -0.033,0.955 0.255,1.066 0.262,0.1 0.422,0.611 0.403,1.28 -0.037,1.315 0.615,2.236 1.431,2.023 0.413,-0.108 0.583,0.024 0.583,0.457 0,0.397 0.224,0.611 0.64,0.611 0.365,0 0.64,0.212 0.64,0.494 0,0.273 0.468,0.699 1.04,0.948 1.27,0.551 1.52,0.575 1.52,0.138 0,-0.186 0.153,-0.244 0.34,-0.129 0.186,0.116 0.776,0.03 1.31,-0.191 0.778,-0.323 1.017,-0.323 1.217,0 0.136,0.22 0.902,0.424 1.7,0.451 1.605,0.054 1.647,-0.18 0.17,-0.943 -0.811,-0.42 -1.03,-0.434 -1.255,-0.078 -0.206,0.324 -0.285,0.272 -0.326,-0.211 -0.104,-1.218 0.083,-2.16 0.58,-2.918 0.673,-1.027 1.013,-0.958 1.543,0.308 0.636,1.523 2.393,2.77 3.9,2.772 0.672,0 1.693,0.289 2.27,0.64 l 1.046,0.64 0.313,-0.823 c 0.172,-0.452 0.312,-0.938 0.312,-1.082 0,-0.425 1.122,-0.596 2.721,-0.416 1.126,0.127 1.56,0.334 1.766,0.844 0.253,0.627 0.274,0.615 0.293,-0.17 0.031,-1.31 1.398,-1.467 3.117,-0.36 0.624,0.403 0.734,0.383 1.04,-0.191 0.19,-0.353 0.343,-0.85 0.343,-1.104 0,-0.254 0.216,-0.64 0.48,-0.86 0.385,-0.318 0.583,-0.311 1.002,0.036 0.475,0.394 0.46,0.45 -0.174,0.6 -0.645,0.153 -0.66,0.212 -0.203,0.804 0.467,0.606 0.518,0.61 0.93,0.08 0.24,-0.307 0.6,-0.56 0.8,-0.56 0.201,0 0.366,-0.168 0.366,-0.375 0,-0.207 0.333,-0.062 0.74,0.32 0.861,0.81 1.498,0.9 1.498,0.215 0,-0.578 0.374,-0.618 0.897,-0.096 0.298,0.3 0.384,0.3 0.384,0 0,-0.21 0.228,-0.384 0.506,-0.384 0.395,0 0.458,-0.209 0.293,-0.96 -0.165,-0.75 -0.1,-0.96 0.295,-0.96 0.686,0 0.635,-0.423 -0.135,-1.12 -0.352,-0.318 -0.638,-0.784 -0.638,-1.035 0,-0.25 -0.4,-0.853 -0.889,-1.341 -0.712,-0.713 -0.805,-0.963 -0.476,-1.27 0.295,-0.276 0.725,-0.295 1.546,-0.068 0.845,0.233 1.105,0.217 1.012,-0.06 -0.069,-0.207 -0.61,-0.516 -1.203,-0.686 -0.594,-0.17 -1.306,-0.533 -1.582,-0.805 -0.276,-0.272 -0.86,-0.747 -1.297,-1.055 l -0.793,-0.56 0.72,-0.518 c 0.397,-0.285 0.722,-0.773 0.722,-1.082 0,-0.721 -0.819,-1.404 -1.315,-1.098 -0.218,0.136 -0.564,-0.01 -0.805,-0.34 -0.347,-0.475 -0.507,-0.505 -0.912,-0.17 -0.403,0.335 -0.49,0.32 -0.49,-0.08 0,-0.266 -0.431,-0.946 -0.959,-1.511 -0.528,-0.565 -0.96,-1.169 -0.96,-1.34 0,-0.18 -0.406,-0.223 -0.958,-0.101 -0.653,0.143 -1.109,0.059 -1.434,-0.266 -0.262,-0.262 -0.75,-0.404 -1.085,-0.317 -0.674,0.177 -0.822,0.017 -1.116,-1.216 -0.192,-0.808 -0.137,-0.846 1.405,-0.994 1.49,-0.144 2.198,-0.402 1.88,-0.686 -0.073,-0.065 -1.21,0.014 -2.529,0.176 -1.318,0.161 -2.974,0.247 -3.68,0.19 l -1.283,-0.106 0.88,-0.383 c 1.307,-0.568 1.077,-0.76 -0.8,-0.664 z m -1.808,0.646 c 0.02,-0.051 0.209,-0.033 0.584,0.01 0.426,0.05 0.834,0.27 0.906,0.49 0.18,0.545 -0.308,0.503 -1.06,-0.09 -0.301,-0.236 -0.45,-0.358 -0.43,-0.41 z m -67.25,0.26 a 0.33,0.33 0 0 1 0.338,0.32 c 0,0.176 -0.063,0.32 -0.141,0.32 -0.078,0 -0.231,-0.144 -0.34,-0.32 -0.109,-0.176 -0.044,-0.32 0.143,-0.32 z m 1.342,2.85 c 0.416,0.102 0.886,0.592 0.906,1.07 0.015,0.369 -0.404,0.27 -1.108,-0.262 -0.532,-0.402 -0.563,-0.53 -0.18,-0.767 a 0.49,0.49 0 0 1 0.382,-0.041 z m 36.212,0.488 c -0.11,0.033 -0.121,0.202 0.051,0.48 0.116,0.188 0.364,0.342 0.551,0.342 0.212,0 0.188,-0.184 -0.064,-0.488 -0.22,-0.264 -0.428,-0.367 -0.537,-0.334 z m -37.543,0.666 a 0.6,0.6 0 0 1 0.704,0.084 c 0.417,0.417 -0.12,0.75 -0.666,0.412 -0.319,-0.197 -0.328,-0.317 -0.038,-0.496 z m 41.989,0.8 c -0.467,0.005 -0.476,0.05 -0.063,0.317 0.627,0.405 1.051,0.405 0.801,0 -0.109,-0.176 -0.44,-0.32 -0.738,-0.316 z m -41.983,1.415 c 0.78,-0.221 0.904,0.652 0.135,0.947 -0.772,0.296 -2.055,0.232 -2.055,-0.103 0,-0.165 0.29,-0.381 0.641,-0.48 l 1.28,-0.364 z m 43.84,0.728 c -0.352,0.092 -0.638,0.224 -0.638,0.291 0,0.068 0.286,0.121 0.638,0.121 0.352,0 0.64,-0.13 0.64,-0.289 0,-0.16 -0.288,-0.215 -0.64,-0.123 z m -37.76,0.094 a 0.32,0.32 0 1 1 0.001,0.638 0.32,0.32 0 0 1 0,-0.638 z m -3.134,0.107 c 0.194,0.022 0.422,0.137 0.754,0.354 0.451,0.296 0.764,0.71 0.695,0.918 -0.169,0.506 -0.872,0.55 -1.754,0.11 -0.846,-0.424 -0.89,-0.632 -0.242,-1.169 0.193,-0.16 0.353,-0.234 0.547,-0.213 z m 38.974,0.211 c -0.669,0 -0.77,0.25 -0.445,1.096 0.31,0.81 1.086,0.599 1.086,-0.295 0,-0.586 -0.171,-0.8 -0.64,-0.8 z m 40.32,0.32 c 0.177,0 0.32,0.145 0.32,0.321 0,0.176 -0.143,0.32 -0.32,0.32 a 0.321,0.321 0 0 1 -0.32,-0.32 c 0,-0.176 0.145,-0.32 0.32,-0.32 z m 2.213,2.112 c -0.185,0.042 -0.279,0.211 -0.119,0.47 0.102,0.165 0.41,0.3 0.686,0.3 0.407,0 0.425,-0.09 0.103,-0.477 -0.206,-0.249 -0.484,-0.335 -0.67,-0.293 z m -43.67,2.31 c -0.051,-0.09 -0.091,-0.063 -0.105,0.14 -0.02,0.307 -0.237,0.56 -0.482,0.56 -0.342,0 -0.39,0.253 -0.203,1.082 0.134,0.595 0.343,1.243 0.464,1.44 0.427,0.69 0.823,0.347 0.786,-0.682 -0.034,-0.924 -0.304,-2.267 -0.46,-2.54 z m -39.076,0.167 c 0.23,-0.23 0.854,0.173 0.854,0.55 a 0.303,0.303 0 0 1 -0.3,0.303 c -0.378,0 -0.783,-0.624 -0.554,-0.853 z m -1.375,1.171 c 0.227,0 0.226,0.198 -0.004,0.627 -0.297,0.557 -0.191,0.666 0.948,0.973 0.89,0.24 1.471,0.244 1.902,0.014 0.341,-0.183 1.098,-0.313 1.682,-0.29 0.783,0.033 0.868,0.082 0.322,0.186 -0.57,0.11 -0.66,0.237 -0.389,0.563 0.193,0.232 0.636,0.348 0.983,0.258 0.346,-0.091 1.055,0.011 1.574,0.226 0.91,0.377 0.924,0.417 0.435,1.162 -0.464,0.709 -0.461,0.758 0.016,0.574 0.886,-0.34 0.58,0.233 -0.812,1.518 -0.81,0.747 -1.14,1.23 -0.84,1.23 0.271,0 0.662,0.203 0.867,0.45 0.312,0.376 0.2,0.415 -0.682,0.236 -0.91,-0.184 -1.191,-0.072 -2.066,0.83 -0.84,0.867 -0.91,1.045 -0.418,1.045 0.887,0 1.065,0.563 0.324,1.025 -0.903,0.564 -0.819,1.004 0.147,0.762 0.862,-0.216 1.138,0.342 0.324,0.654 -0.385,0.148 -0.34,0.293 0.23,0.754 0.388,0.314 0.874,0.506 1.082,0.426 a 0.508,0.508 0 0 1 0.59,0.197 c 0.116,0.188 0.476,0.342 0.799,0.342 0.722,0 1.15,0.97 0.586,1.328 -0.715,0.454 -1.48,0.293 -1.686,-0.353 -0.196,-0.618 -0.204,-0.618 -0.822,0 -0.343,0.343 -0.623,0.77 -0.623,0.945 0,0.176 -0.18,0.327 -0.4,0.336 -0.22,0.01 -1.12,0.058 -2,0.11 -0.88,0.05 -1.78,-0.046 -2,-0.215 -0.266,-0.206 -0.4,-0.19 -0.4,0.048 0,0.198 -0.251,0.348 -0.56,0.334 -0.832,-0.037 -1.386,-0.315 -1.206,-0.605 0.087,-0.141 -0.06,-0.437 -0.327,-0.658 -0.42,-0.349 -0.347,-0.487 0.536,-1.024 0.703,-0.428 1.33,-0.56 2.023,-0.43 0.647,0.122 1.227,0.02 1.629,-0.285 0.343,-0.26 0.841,-0.472 1.105,-0.472 0.39,0 0.374,0.08 -0.076,0.422 -0.305,0.231 -0.477,0.5 -0.383,0.593 0.234,0.234 -1.7,0.885 -2.629,0.885 -0.413,0 -0.751,0.144 -0.751,0.32 0,0.405 -0.053,0.409 2.1,-0.152 1.24,-0.323 1.995,-0.374 2.394,-0.16 0.765,0.41 0.843,0.398 1.058,-0.164 0.1,-0.262 0.032,-0.442 -0.154,-0.4 -0.349,0.078 -0.744,-0.466 -1.045,-1.442 -0.145,-0.47 -0.298,-0.5 -0.963,-0.197 -0.463,0.211 -1.03,0.249 -1.37,0.094 -0.723,-0.33 -2.343,-0.4 -2.153,-0.094 0.077,0.124 -0.278,0.433 -0.787,0.687 l -0.926,0.461 -0.412,-1.316 c -0.227,-0.724 -0.38,-1.62 -0.34,-1.99 0.052,-0.49 -0.21,-0.791 -0.951,-1.098 -1.02,-0.422 -1.02,-0.425 -0.35,-0.967 0.369,-0.299 0.591,-0.621 0.494,-0.719 -0.388,-0.388 0.267,-2.085 0.865,-2.242 0.544,-0.142 0.581,-0.28 0.282,-1.068 -0.19,-0.498 -0.623,-1.163 -0.963,-1.48 -1.177,-1.097 -0.594,-1.675 2.02,-1.999 1.011,-0.125 1.84,-0.356 1.84,-0.511 0,-0.156 0.149,-0.284 0.331,-0.284 z m 7.024,3.51 c -0.005,-0.043 -0.146,0.005 -0.422,0.11 -0.322,0.122 -0.717,0.222 -0.879,0.222 -0.354,0 -0.256,0.622 0.186,1.174 0.433,0.543 0.587,0.525 0.369,-0.045 -0.1,-0.259 0.064,-0.72 0.365,-1.023 0.258,-0.26 0.386,-0.394 0.38,-0.438 z m -7.694,0.332 c -0.186,0 -0.249,0.143 -0.14,0.319 0.109,0.176 0.26,0.32 0.338,0.32 0.077,0 0.14,-0.144 0.14,-0.32 0,-0.176 -0.151,-0.319 -0.338,-0.319 z m -0.99,2.018 c -0.253,0.1 -0.148,0.18 0.254,0.195 0.377,0.014 0.77,0.242 0.871,0.506 0.194,0.505 0.844,0.67 0.844,0.215 0,-0.415 -1.488,-1.108 -1.969,-0.916 z m 67.912,0.555 c 0.278,-0.007 0.843,0.345 1.256,0.785 1.086,1.155 0.63,1.271 -0.66,0.168 -0.722,-0.618 -0.927,-0.944 -0.596,-0.953 z m -68.203,0.306 c -0.186,0 -0.25,0.145 -0.14,0.32 0.108,0.177 0.262,0.32 0.34,0.32 0.077,0 0.14,-0.143 0.14,-0.32 0,-0.175 -0.153,-0.32 -0.34,-0.32 z m 5.547,0.035 c -0.027,0.027 0.007,0.151 0.094,0.38 0.12,0.315 0.298,0.492 0.396,0.394 0.099,-0.099 0.002,-0.357 -0.217,-0.574 -0.158,-0.157 -0.246,-0.227 -0.273,-0.2 z m -1.154,0.286 c -0.813,0 -0.878,0.458 -0.147,1.021 0.404,0.31 0.877,0.557 1.053,0.547 0.176,-0.01 0.142,-0.09 -0.078,-0.18 -0.22,-0.089 -0.4,-0.438 -0.4,-0.775 0,-0.337 -0.194,-0.613 -0.428,-0.613 z m -1.399,0.76 c -0.058,0.025 -0.093,0.088 -0.093,0.181 a 0.33,0.33 0 0 0 0.32,0.338 c 0.176,0 0.318,-0.063 0.318,-0.14 0,-0.078 -0.142,-0.23 -0.318,-0.339 -0.088,-0.054 -0.169,-0.066 -0.227,-0.04 z m -1.375,0.519 c -0.352,0 -0.638,0.144 -0.638,0.32 0,0.176 0.286,0.32 0.638,0.32 0.352,0 0.641,-0.144 0.641,-0.32 0,-0.176 -0.289,-0.32 -0.64,-0.32 z m 75.442,0.174 c -0.303,0.116 -0.427,0.43 -0.324,0.82 0.162,0.62 0.174,0.62 0.636,-0.04 0.533,-0.761 0.414,-1.059 -0.312,-0.78 z m -67.961,0.918 c 0.063,-0.063 0.147,0.101 0.3,0.443 0.25,0.557 0.216,0.845 -0.142,1.203 -0.415,0.415 -0.453,0.329 -0.328,-0.732 0.066,-0.562 0.107,-0.851 0.17,-0.914 z m -6.022,0.508 c -0.077,0 -0.229,0.144 -0.338,0.32 -0.108,0.176 -0.045,0.32 0.141,0.32 0.186,0 0.34,-0.144 0.34,-0.32 0,-0.176 -0.065,-0.32 -0.143,-0.32 z m 58.963,0.32 c -0.212,0 -0.188,0.184 0.065,0.488 0.222,0.268 0.472,0.422 0.552,0.342 0.222,-0.222 -0.23,-0.83 -0.617,-0.83 z m -10.066,0.17 c -0.081,0.099 0.012,0.42 0.258,0.99 0.44,1.021 1.173,1.848 1.882,2.127 0.256,0.1 0.504,0.195 0.551,0.209 0.374,0.11 -1.352,-2.601 -1.902,-2.986 -0.452,-0.317 -0.708,-0.44 -0.79,-0.34 z m -41.735,0.47 c 0.166,0 0.377,0.121 0.467,0.268 0.09,0.147 -0.044,0.266 -0.3,0.266 -0.257,0 -0.467,-0.12 -0.467,-0.266 0,-0.147 0.135,-0.268 0.3,-0.268 z m -7.02,0.028 c -0.732,0.016 -0.745,0.04 -0.16,0.293 0.353,0.151 0.928,0.283 1.28,0.293 0.528,0.014 0.556,-0.037 0.16,-0.293 -0.264,-0.17 -0.84,-0.303 -1.28,-0.293 z m -1.28,0.293 a 0.321,0.321 0 0 0 -0.32,0.32 c 0,0.176 0.144,0.32 0.32,0.32 0.176,0 0.32,-0.144 0.32,-0.32 a 0.321,0.321 0 0 0 -0.32,-0.32 z m 65.318,0.011 c -0.723,0.014 -1.318,0.1 -1.318,0.248 0,0.143 0.611,0.573 1.359,0.956 1.528,0.782 1.435,0.762 2.363,0.513 0.872,-0.234 0.66,-1.274 -0.312,-1.535 -0.517,-0.138 -1.368,-0.195 -2.092,-0.182 z m -3.559,0.245 c -0.44,0.053 -1.123,0.105 -1.52,0.115 -0.733,0.017 -0.956,0.405 -0.423,0.734 0.163,0.1 0.388,0.613 0.504,1.139 0.115,0.526 0.38,0.958 0.586,0.96 0.249,0.004 0.232,0.094 -0.049,0.272 -0.305,0.194 -0.081,0.438 0.8,0.873 l 1.224,0.604 -0.9,0.105 c -0.515,0.061 -0.844,0.269 -0.772,0.485 0.072,0.215 0.56,0.333 1.138,0.273 0.574,-0.059 1.012,0.043 1.012,0.238 0,0.19 0.207,0.346 0.459,0.346 0.252,0 0.549,0.282 0.658,0.627 0.196,0.618 0.22,0.616 1.61,-0.059 1.949,-0.946 2.321,-2.17 0.662,-2.17 -0.855,0 -2.895,-1.29 -2.783,-1.76 0.041,-0.175 0.349,-0.286 0.683,-0.245 1.106,0.135 0.325,-0.807 -0.912,-1.1 -0.86,-0.203 -1.175,-0.447 -1.176,-0.906 0,-0.482 -0.186,-0.606 -0.8,-0.531 z m -53.978,0.603 c 0.118,0.035 0.163,0.11 0.125,0.223 -0.155,0.465 -1.072,0.64 -1.313,0.252 -0.102,-0.166 0.179,-0.37 0.623,-0.455 0.256,-0.05 0.447,-0.055 0.565,-0.02 z m 63.584,0.258 c -0.188,0.005 -0.343,0.052 -0.442,0.15 -0.182,0.183 -0.573,0.332 -0.869,0.332 -0.295,0 -0.716,0.218 -0.937,0.485 -0.221,0.266 -0.563,0.464 -0.76,0.441 -1.08,-0.127 -1.74,0.1 -1.883,0.647 -0.088,0.337 -0.038,0.734 0.11,0.88 0.35,0.348 3.214,0.346 3.752,-0.002 0.228,-0.147 0.619,-0.19 0.869,-0.093 0.718,0.275 0.922,-0.432 0.267,-0.928 -0.566,-0.429 -0.561,-0.449 0.102,-0.459 0.381,-0.006 0.754,0.169 0.828,0.389 0.105,0.31 0.253,0.303 0.67,-0.041 0.43,-0.355 0.458,-0.537 0.144,-0.914 -0.44,-0.532 -1.289,-0.902 -1.851,-0.887 z m -62.457,0.328 c 0.147,0.023 0.3,0.129 0.498,0.326 0.283,0.283 0.514,0.575 0.514,0.65 0,0.266 -1.564,0.134 -1.737,-0.146 -0.096,-0.156 0.022,-0.448 0.266,-0.65 0.17,-0.141 0.312,-0.203 0.459,-0.18 z m 48.193,0.475 c -0.274,0 -0.41,0.144 -0.3,0.32 0.108,0.176 0.332,0.32 0.497,0.32 0.166,0 0.301,-0.144 0.301,-0.32 0,-0.176 -0.223,-0.32 -0.498,-0.32 z m 1.36,0.324 c -0.23,0.003 -0.19,0.13 0.1,0.316 0.614,0.398 0.725,0.398 0.48,0 a 0.747,0.747 0 0 0 -0.58,-0.316 z m 16.459,0.021 c -0.58,-0.074 -1,0.046 -1,0.395 0,0.231 0.514,0.666 1.14,0.965 0.72,0.343 1.118,0.748 1.082,1.1 -0.03,0.305 -0.04,0.662 -0.02,0.794 0.021,0.132 0.748,0.24 1.616,0.24 1.546,0 1.58,-0.02 1.553,-0.96 -0.02,-0.72 -0.18,-0.96 -0.637,-0.96 -0.335,0 -1.138,-0.36 -1.785,-0.8 -0.633,-0.43 -1.37,-0.7 -1.95,-0.774 z m -25.229,0.452 c -0.914,-0.072 -0.996,0.01 -1.184,1.181 -0.2,1.251 -0.027,1.999 0.4,1.735 0.124,-0.076 0.725,0.27 1.337,0.77 1.223,0.997 1.708,1.004 0.808,0.01 -0.313,-0.346 -0.488,-0.842 -0.388,-1.1 0.1,-0.26 0.009,-0.533 -0.201,-0.608 -0.21,-0.075 -0.264,-0.266 -0.118,-0.422 0.151,-0.16 0.45,-0.031 0.69,0.297 0.243,0.332 0.506,0.444 0.619,0.262 0.108,-0.175 0.04,-0.416 -0.15,-0.534 -0.192,-0.118 -0.458,-0.507 -0.59,-0.865 -0.16,-0.43 -0.572,-0.675 -1.223,-0.726 z m 30.309,1.123 a 0.321,0.321 0 0 0 -0.32,0.32 c 0,0.176 0.144,0.32 0.32,0.32 0.176,0 0.32,-0.144 0.32,-0.32 a 0.321,0.321 0 0 0 -0.32,-0.32 z m -1.76,0.64 c 0.264,0 0.48,0.143 0.48,0.319 0,0.176 -0.216,0.32 -0.48,0.32 -0.264,0 -0.48,-0.144 -0.48,-0.32 0,-0.176 0.216,-0.319 0.48,-0.319 z m -75.045,2.256 c 0.185,-0.024 0.324,0.112 0.324,0.422 0,0.264 0.505,0.52 1.262,0.64 1.003,0.161 1.25,0.333 1.21,0.842 -0.061,0.82 -0.604,0.82 -1.116,0 -0.468,-0.75 -1.356,-0.854 -1.356,-0.16 0,0.54 -0.275,0.6 -0.906,0.2 -0.465,-0.295 -0.467,-0.547 -0.01,-1.4 0.178,-0.334 0.407,-0.52 0.592,-0.544 z m 38.883,0.033 c -0.159,-0.106 -0.194,0.1 -0.049,0.655 0.101,0.386 0.047,0.87 -0.121,1.072 -0.2,0.241 -0.125,0.733 0.22,1.426 0.495,0.99 0.555,1.02 0.96,0.466 0.562,-0.769 0.55,-0.902 -0.215,-2.402 -0.354,-0.693 -0.636,-1.11 -0.795,-1.217 z m 35.826,0.403 c -0.319,0.027 -0.62,0.102 -0.86,0.232 -0.398,0.216 -1.14,0.363 -1.648,0.326 -0.508,-0.037 -1.227,0.123 -1.6,0.356 -0.434,0.271 -1.536,0.4 -3.076,0.36 -1.32,-0.036 -2.22,0.005 -2,0.09 0.22,0.087 0.4,0.303 0.4,0.483 0,0.18 -0.235,0.239 -0.52,0.13 -0.338,-0.13 -0.847,0.141 -1.448,0.77 -0.774,0.81 -1.035,0.916 -1.566,0.632 -0.86,-0.46 -1.266,-0.143 -1.266,0.988 0,0.623 -0.163,0.941 -0.48,0.941 -0.264,0 -0.479,0.153 -0.479,0.34 0,0.187 -0.253,0.308 -0.56,0.27 -0.309,-0.04 -1.243,0.112 -2.077,0.336 -1.368,0.367 -1.499,0.483 -1.326,1.171 0.116,0.46 0.052,0.762 -0.162,0.762 -0.195,0 -0.355,0.213 -0.355,0.473 0,0.26 -0.416,0.685 -0.922,0.947 -0.507,0.262 -1.006,0.698 -1.11,0.969 -0.271,0.707 -0.85,0.606 -0.85,-0.149 0,-0.677 -0.31,-0.817 -0.814,-0.367 -0.436,0.39 -3.045,0.053 -2.992,-0.387 0.024,-0.2 0.027,-0.984 0.006,-1.738 -0.035,-1.252 -0.093,-1.341 -0.658,-1.039 -0.827,0.443 -0.98,0.42 -0.98,-0.148 0,-0.544 -0.503,-0.644 -0.801,-0.16 -0.11,0.176 -0.477,0.32 -0.819,0.32 -0.445,0 -0.62,0.221 -0.62,0.781 0,0.43 -0.17,0.885 -0.376,1.012 -0.248,0.153 -0.308,0.06 -0.18,-0.276 0.23,-0.596 -1.092,-2.158 -1.826,-2.158 -0.27,0 -0.673,0.289 -0.892,0.64 -0.22,0.353 -0.573,0.64 -0.785,0.64 -0.37,0 -1.135,1.13 -1.57,2.32 -0.114,0.308 -0.312,0.56 -0.44,0.56 -0.416,0 -1.612,1.183 -1.612,1.594 0,0.22 0.54,0.893 1.198,1.496 0.947,0.868 1.101,1.155 0.742,1.377 -0.32,0.197 -0.438,0.836 -0.402,2.147 0.06,2.201 -0.137,2.986 -0.749,2.986 -0.597,0 -1.26,1.258 -0.869,1.648 0.185,0.185 0.829,0.179 1.692,-0.015 0.766,-0.172 1.509,-0.242 1.65,-0.154 0.412,0.254 0.298,0.97 -0.223,1.402 -0.657,0.545 -0.614,1.6 0.065,1.6 0.377,0 0.441,0.101 0.21,0.332 -0.461,0.461 -3.355,-0.201 -3.874,-0.887 -0.227,-0.3 -0.4,-0.363 -0.4,-0.147 0,0.534 -2.259,0.467 -2.99,-0.088 -0.326,-0.246 -0.783,-0.374 -1.016,-0.285 -0.234,0.09 -0.727,0.002 -1.096,-0.195 -0.37,-0.198 -0.848,-0.246 -1.065,-0.106 -0.216,0.14 -2.15,0.275 -4.296,0.3 -2.148,0.024 -4.667,0.233 -5.6,0.464 -0.933,0.231 -1.858,0.39 -2.055,0.352 -0.196,-0.038 -0.555,0.185 -0.799,0.496 -0.402,0.512 -0.39,0.524 0.118,0.125 0.671,-0.527 0.76,0.032 0.093,0.586 -0.255,0.212 -0.7,1.202 -0.988,2.199 -0.288,0.997 -0.87,2.272 -1.295,2.832 -0.424,0.56 -0.771,1.136 -0.773,1.28 -0.002,0.143 -0.507,0.75 -1.121,1.347 -0.896,0.87 -1.118,1.33 -1.118,2.32 0,1.26 0.414,1.647 0.77,0.721 0.14,-0.366 0.427,-0.457 0.994,-0.314 0.565,0.141 0.797,0.07 0.797,-0.249 0,-0.246 0.52,-0.843 1.154,-1.328 l 1.156,-0.88 -0.216,0.982 c -0.12,0.545 -0.06,1.276 0.132,1.637 0.258,0.48 0.246,0.816 -0.044,1.28 -0.34,0.543 -0.273,0.742 0.476,1.436 0.479,0.444 1.074,0.729 1.322,0.633 0.266,-0.102 0.61,0.135 0.836,0.572 0.212,0.41 0.69,1.086 1.065,1.502 l 0.68,0.756 -0.99,-0.21 c -0.692,-0.148 -1.108,-0.07 -1.384,0.263 -0.33,0.399 -0.184,0.583 0.909,1.14 0.717,0.366 1.304,0.803 1.304,0.971 0,0.168 0.452,0.539 1.004,0.825 0.825,0.426 1.154,0.451 1.84,0.134 0.46,-0.212 1.466,-0.578 2.234,-0.812 l 1.397,-0.424 -0.19,1.191 c -0.187,1.174 -0.175,1.19 0.842,1.155 0.568,-0.02 1.353,-0.237 1.744,-0.483 0.57,-0.358 0.793,-0.368 1.114,-0.047 0.756,0.757 -0.13,1.504 -1.783,1.504 -1.522,0 -1.642,0.065 -1.237,0.672 0.695,1.041 2.518,1.175 4.194,0.309 0.532,-0.276 1.244,-0.502 1.578,-0.502 0.396,0 0.803,-0.434 1.172,-1.252 0.64,-1.422 1.745,-1.955 2.003,-0.967 0.09,0.34 0.435,0.62 0.766,0.62 0.481,0 0.602,0.237 0.602,1.177 0,1.782 0.635,3.231 1.511,3.451 0.417,0.105 0.888,0.11 1.047,0.012 0.16,-0.098 0.452,0.126 0.65,0.498 0.343,0.64 0.395,0.645 0.965,0.129 0.569,-0.515 1.64,-0.457 1.551,0.084 a 3.197,3.197 0 0 0 -0.002,0.648 c 0.07,0.74 0.663,0.408 1.432,-0.8 0.669,-1.053 0.708,-1.277 0.324,-1.83 -0.583,-0.84 -0.555,-1.914 0.063,-2.426 0.275,-0.23 0.723,-0.845 0.994,-1.37 0.27,-0.524 0.757,-1.235 1.078,-1.58 0.321,-0.344 0.68,-1.2 0.799,-1.9 0.175,-1.036 0.403,-1.35 1.222,-1.686 2.035,-0.831 2.386,-0.867 2.547,-0.261 0.13,0.49 0.186,0.465 0.389,-0.17 0.13,-0.41 0.578,-0.875 0.994,-1.033 0.416,-0.159 0.756,-0.502 0.756,-0.762 0,-0.68 1.475,-2.758 1.766,-2.488 0.133,0.124 0.175,0.01 0.093,-0.254 -0.082,-0.264 -0.459,-0.525 -0.838,-0.58 -0.378,-0.056 -0.977,-0.468 -1.33,-0.916 -0.459,-0.584 -0.8,-0.747 -1.205,-0.575 -1.316,0.56 -1.685,0.406 -1.685,-0.703 0,-1.19 0.42,-1.344 1.533,-0.564 0.684,0.48 0.778,0.437 2.176,-0.961 0.803,-0.804 1.34,-1.476 1.195,-1.494 -0.146,-0.019 -0.66,-0.008 -1.145,0.023 -0.74,0.049 -0.88,-0.068 -0.88,-0.736 0,-0.498 0.374,-1.11 0.998,-1.635 1.119,-0.942 2.61,-0.965 4.345,-0.068 0.528,0.272 1.267,0.415 1.645,0.316 0.496,-0.13 0.946,0.096 1.619,0.816 1.126,1.206 1.73,1.26 2.215,0.198 0.29,-0.635 0.6,-0.801 1.502,-0.801 0.625,0 1.62,0.202 2.21,0.45 1.005,0.419 1.204,0.387 3.026,-0.481 1.073,-0.511 2.246,-0.928 2.606,-0.928 0.36,0 0.735,-0.253 0.834,-0.56 0.378,-1.184 0.868,-1.973 1.126,-1.813 0.148,0.091 0.84,-0.292 1.536,-0.852 1.51,-1.214 1.878,-2.432 1.164,-3.863 -0.63,-1.264 -0.7,-3.253 -0.088,-2.514 0.218,0.264 0.681,0.64 1.03,0.834 0.347,0.195 0.704,0.813 0.792,1.373 0.088,0.561 0.268,1.013 0.4,1.006 0.132,-0.007 0.395,-0.011 0.584,-0.011 0.203,0 0.304,-0.496 0.245,-1.202 -0.096,-1.141 -0.055,-1.199 0.855,-1.199 0.791,0 0.94,-0.116 0.863,-0.68 -0.055,-0.401 0.123,-0.765 0.434,-0.884 0.365,-0.14 0.47,-0.429 0.342,-0.94 -0.183,-0.727 0.259,-1.604 1.467,-2.916 0.314,-0.341 0.57,-0.81 0.57,-1.04 0,-0.232 0.135,-0.42 0.299,-0.42 0.49,0 0.721,-1.209 0.359,-1.885 -0.186,-0.347 -0.624,-0.723 -0.977,-0.834 -0.653,-0.208 -0.88,-1.254 -0.343,-1.586 0.163,-0.102 0.257,-0.568 0.207,-1.036 -0.091,-0.854 -1.202,-1.578 -1.828,-1.191 -0.168,0.104 -0.505,0.022 -0.75,-0.182 -0.245,-0.203 -0.97,-0.419 -1.61,-0.478 -1.383,-0.129 -1.752,-0.407 -1.107,-0.834 0.364,-0.241 0.288,-0.3 -0.33,-0.254 -2.475,0.182 -2.942,-0.359 -1.04,-1.203 0.857,-0.38 1.043,-0.571 0.651,-0.666 -0.302,-0.073 -0.778,-0.006 -1.057,0.15 -0.773,0.433 -2.348,0.086 -2.554,-0.562 -0.179,-0.562 -1.3,-0.908 -2.256,-0.826 z m -73.434,1.316 c 0.177,0.04 0.33,0.161 0.33,0.33 0,0.078 -0.225,0.14 -0.5,0.14 -0.274,0 -0.407,-0.145 -0.296,-0.323 0.09,-0.148 0.29,-0.188 0.466,-0.147 z m -0.24,3.713 c 0.175,0.032 0.186,0.123 0.086,0.285 -0.195,0.316 -0.031,0.368 0.697,0.223 0.718,-0.144 1.062,-0.039 1.395,0.424 0.29,0.403 0.518,0.492 0.662,0.26 0.308,-0.5 0.93,-0.035 0.93,0.695 0,0.778 -1.163,1.448 -1.717,0.988 -0.218,-0.18 -0.728,-0.243 -1.133,-0.137 -0.414,0.109 -0.836,0.03 -0.965,-0.178 -0.17,-0.275 -0.487,-0.278 -1.246,-0.013 -1.054,0.367 -1.381,0.931 -0.539,0.931 0.593,0 0.61,0.341 0.055,1.1 -0.352,0.48 -0.545,0.518 -1.116,0.213 -0.576,-0.309 -0.782,-0.263 -1.246,0.28 -0.305,0.356 -0.697,0.648 -0.869,0.648 -0.183,0 -0.167,-0.145 0.035,-0.348 0.488,-0.488 0.134,-1.572 -0.513,-1.572 -0.297,0 -0.71,-0.174 -0.922,-0.385 -0.299,-0.299 -0.385,-0.216 -0.385,0.373 0,0.417 0.095,0.663 0.211,0.547 0.278,-0.278 1.07,0.392 1.07,0.906 0,0.436 -1.093,0.735 -2,0.547 -0.308,-0.064 -0.56,-0.389 -0.56,-0.723 0,-0.444 0.15,-0.55 0.56,-0.396 0.485,0.182 0.503,0.139 0.133,-0.317 -0.235,-0.289 -0.353,-0.646 -0.262,-0.794 0.092,-0.149 0.044,-0.466 -0.105,-0.707 -0.372,-0.602 0.583,-2.019 1.201,-1.782 0.26,0.1 0.644,0.04 0.852,-0.133 0.208,-0.172 1.019,-0.39 1.8,-0.484 0.782,-0.094 2.054,-0.263 2.827,-0.375 0.551,-0.08 0.89,-0.108 1.064,-0.076 z m 5.66,0.28 c 0.16,0 0.215,0.286 0.123,0.638 -0.092,0.352 -0.31,0.64 -0.484,0.64 -0.174,0 -0.23,-0.227 -0.123,-0.505 0.107,-0.279 0.193,-0.567 0.193,-0.64 0,-0.075 0.132,-0.134 0.291,-0.134 z m 3.91,0.697 a 0.54,0.54 0 0 1 0.262,0.232 c 0.155,0.25 0.437,0.327 0.672,0.182 0.264,-0.163 0.324,-0.122 0.176,0.119 -0.274,0.443 -0.517,0.455 -1.14,0.06 -0.26,-0.163 -0.36,-0.408 -0.223,-0.545 0.068,-0.068 0.16,-0.082 0.253,-0.048 z m -1.072,0.084 c 0.128,0.128 -0.128,0.502 -0.568,0.832 -0.44,0.329 -1.183,0.892 -1.65,1.251 -1.362,1.047 -1.771,0.757 -0.51,-0.36 0.545,-0.484 0.584,-0.596 0.16,-0.462 -0.65,0.205 -0.7,-0.072 -0.149,-0.797 0.26,-0.34 0.604,-0.434 1.03,-0.279 0.352,0.128 0.822,0.088 1.047,-0.092 0.224,-0.18 0.512,-0.222 0.64,-0.093 z m -6.736,0.078 a 0.92,0.92 0 0 0 -0.533,0.002 c -0.873,0.228 -0.84,0.664 0.06,0.808 0.9,0.144 1.004,0.075 0.78,-0.512 a 0.495,0.495 0 0 0 -0.307,-0.298 z m 8.068,1.379 c 0.187,0 0.34,0.144 0.34,0.32 0,0.176 -0.063,0.32 -0.14,0.32 -0.078,0 -0.232,-0.144 -0.34,-0.32 -0.11,-0.176 -0.046,-0.32 0.14,-0.32 z m -14.293,0.078 c -0.077,0.018 -0.088,0.177 -0.088,0.49 0,0.437 0.249,0.716 0.721,0.806 0.396,0.077 0.827,0.158 0.959,0.182 0.132,0.024 0.24,-0.1 0.24,-0.275 0,-0.176 -0.169,-0.32 -0.375,-0.32 -0.206,0 -0.637,-0.239 -0.959,-0.53 -0.274,-0.248 -0.42,-0.372 -0.498,-0.353 z m 57.194,0.242 a 0.321,0.321 0 0 0 -0.32,0.32 c 0,0.176 0.144,0.32 0.32,0.32 0.176,0 0.32,-0.144 0.32,-0.32 a 0.321,0.321 0 0 0 -0.32,-0.32 z m -38.631,0.056 c 0.042,0.012 0.113,0.15 0.23,0.424 0.41,0.953 0.372,1.663 -0.113,2.149 -0.238,0.238 -0.665,0.86 -0.947,1.382 -0.438,0.809 -0.517,0.85 -0.528,0.28 -0.007,-0.369 0.275,-0.932 0.627,-1.25 0.76,-0.688 0.823,-1.121 0.16,-1.121 a 0.48,0.48 0 0 1 0,-0.96 c 0.264,0 0.492,-0.252 0.504,-0.56 0.01,-0.24 0.024,-0.355 0.067,-0.344 z m 57.94,0.041 c 0.071,0.004 0.179,0.065 0.32,0.182 0.236,0.196 0.524,0.26 0.64,0.145 0.297,-0.297 0.264,-0.03 -0.14,1.128 -0.348,0.998 -0.622,1.209 -1.036,0.795 -0.317,-0.317 -0.259,-0.812 0.073,-0.607 0.157,0.097 0.381,-0.071 0.498,-0.375 0.116,-0.304 0.059,-0.604 -0.127,-0.666 -0.186,-0.062 -0.338,-0.262 -0.338,-0.445 0,-0.11 0.037,-0.16 0.11,-0.157 z m -67.956,0.233 c 0.302,0.026 0.57,0.162 0.56,0.39 -0.007,0.22 0.01,0.688 0.04,1.04 0.043,0.494 0.12,0.54 0.336,0.199 0.162,-0.257 0.448,-0.337 0.683,-0.192 0.307,0.19 0.262,0.355 -0.185,0.682 -0.325,0.237 -0.69,0.432 -0.81,0.432 -0.416,0 -0.994,-0.932 -0.786,-1.268 0.114,-0.185 -0.015,-0.424 -0.289,-0.53 -0.274,-0.104 -0.42,-0.318 -0.322,-0.476 0.134,-0.217 0.471,-0.303 0.773,-0.277 z m 11.432,0.105 c 0.058,0.022 0.093,0.08 0.093,0.168 0,0.176 -0.144,0.409 -0.32,0.518 -0.176,0.109 -0.318,0.053 -0.318,-0.123 0,-0.176 0.142,-0.409 0.318,-0.518 0.088,-0.054 0.169,-0.067 0.227,-0.045 z m -15.082,0.08 c 0.376,-0.144 0.475,-0.014 0.398,0.524 -0.101,0.709 -1.222,1.246 -1.222,0.586 0,-0.19 0.153,-0.344 0.34,-0.344 0.186,0 0.259,-0.13 0.161,-0.287 -0.097,-0.158 0.048,-0.373 0.323,-0.479 z m 7.931,0.248 c 0.09,0.004 0.193,0.058 0.305,0.17 0.191,0.192 0.692,0.348 1.111,0.348 0.472,0 0.709,0.15 0.621,0.398 -0.077,0.22 -0.376,0.382 -0.664,0.358 -0.287,-0.024 -0.447,0.075 -0.357,0.22 0.09,0.146 -0.12,0.243 -0.465,0.217 -0.345,-0.026 -0.7,-0.33 -0.79,-0.675 -0.162,-0.615 -0.027,-1.047 0.24,-1.036 z m -0.779,0.053 c 0.034,0.094 -0.106,0.32 -0.434,0.647 -0.531,0.531 -0.822,0.584 -0.822,0.148 0,-0.17 0.289,-0.462 0.64,-0.65 0.374,-0.2 0.582,-0.239 0.616,-0.145 z m 35.672,0.535 c 0.175,0.13 0.174,0.652 -0.102,1.414 -0.331,0.917 -0.334,1.299 -0.02,1.887 0.225,0.418 0.585,0.664 0.835,0.568 0.33,-0.126 0.45,0.2 0.486,1.307 0.027,0.81 0.063,1.652 0.08,1.87 0.04,0.497 -0.956,0.714 -1.232,0.267 -0.113,-0.183 -0.11,-0.838 0.006,-1.457 0.137,-0.73 0.088,-1.127 -0.139,-1.127 -0.297,0 -1.963,-2.842 -1.963,-3.35 0,-0.094 0.2,-0.17 0.442,-0.17 0.242,0 0.66,-0.324 0.925,-0.72 0.174,-0.258 0.326,-0.413 0.452,-0.48 0.094,-0.051 0.172,-0.052 0.23,-0.009 z m 14.432,0.25 c 0.264,0 0.48,0.143 0.48,0.319 0,0.176 -0.216,0.32 -0.48,0.32 -0.264,0 -0.48,-0.144 -0.48,-0.32 0,-0.176 0.216,-0.319 0.48,-0.319 z m -55.784,0.346 c 0.071,0.03 0.135,0.103 0.174,0.213 0.079,0.22 0.347,0.4 0.596,0.4 0.25,0 0.453,0.145 0.453,0.32 0,0.49 -0.83,0.381 -1.285,-0.167 -0.223,-0.269 -0.294,-0.593 -0.156,-0.721 0.068,-0.064 0.147,-0.075 0.218,-0.045 z m 68.198,0.094 c 0.058,-0.026 0.138,-0.016 0.226,0.039 0.176,0.109 0.32,0.262 0.32,0.34 0,0.077 -0.144,0.14 -0.32,0.14 a 0.33,0.33 0 0 1 -0.32,-0.338 c 0,-0.093 0.036,-0.156 0.094,-0.181 z m -62.795,0.199 c 0.186,0 0.25,0.144 0.14,0.32 -0.108,0.176 -0.26,0.32 -0.338,0.32 -0.077,0 -0.14,-0.144 -0.14,-0.32 a 0.33,0.33 0 0 1 0.338,-0.32 z m 49.556,0.158 c 0.198,0.095 0.344,0.28 0.344,0.502 0,0.372 -0.343,0.378 -0.914,0.016 -0.303,-0.192 -0.327,-0.342 -0.08,-0.494 a 0.682,0.682 0 0 1 0.65,-0.024 z m 14.485,0.162 c 0.366,0 0.323,0.564 -0.06,0.801 -0.177,0.109 -0.32,0.46 -0.32,0.78 0,0.743 -0.818,1.47 -1.114,0.99 -0.269,-0.435 -0.882,-0.074 -0.715,0.42 0.069,0.203 -0.288,0.621 -0.791,0.93 -1.485,0.907 -1.807,0.756 -2.196,-1.032 -0.018,-0.084 0.124,-0.205 0.313,-0.268 0.19,-0.063 0.344,0.186 0.344,0.553 0,0.373 0.205,0.666 0.468,0.666 0.288,0 0.4,-0.186 0.286,-0.482 -0.134,-0.347 -0.04,-0.429 0.334,-0.286 0.367,0.141 0.466,0.062 0.34,-0.269 -0.11,-0.287 0.163,-0.693 0.706,-1.049 0.489,-0.32 1.172,-0.846 1.518,-1.168 0.346,-0.322 0.744,-0.586 0.887,-0.586 z m -70.518,0.1 c 0.067,0.015 0.035,0.137 -0.056,0.375 -0.114,0.296 -0.206,0.598 -0.206,0.672 0,0.073 -0.216,0.133 -0.48,0.133 -0.686,0 -0.592,-0.416 0.207,-0.915 0.304,-0.19 0.468,-0.28 0.535,-0.265 z m 53.947,0.357 c 0.255,-0.104 0.602,-0.118 0.85,0.035 0.27,0.167 0.252,0.304 -0.064,0.504 -0.573,0.363 -0.835,0.352 -1.077,-0.039 -0.125,-0.203 0.037,-0.396 0.291,-0.5 z m -14.476,0.207 c 0.335,0.064 0.619,0.76 0.787,1.989 0.165,1.205 0.114,1.507 -0.262,1.507 -0.573,0 -1.327,-2.88 -0.875,-3.343 0.121,-0.124 0.238,-0.174 0.35,-0.153 z m -45.557,0.112 c 0.02,0.064 0.01,0.206 -0.035,0.414 -0.11,0.501 0.024,0.765 0.457,0.902 0.337,0.107 0.529,0.329 0.428,0.492 -0.304,0.492 0.386,0.334 0.818,-0.187 0.306,-0.368 0.505,-0.398 0.838,-0.121 0.24,0.2 0.438,0.244 0.438,0.1 0,-0.521 0.561,0.363 0.755,1.189 0.157,0.667 0.065,0.878 -0.439,1.01 -0.647,0.169 -0.902,0.865 -0.316,0.865 0.176,0 0.32,0.288 0.32,0.64 0,0.352 -0.131,0.64 -0.293,0.64 -0.162,0 -0.522,0.087 -0.8,0.194 -0.483,0.185 -0.697,-0.244 -0.497,-0.994 0.047,-0.176 0.1,-0.679 0.117,-1.119 0.024,-0.574 0.236,-0.829 0.752,-0.902 0.396,-0.057 0.72,-0.22 0.72,-0.364 0,-0.388 -1.231,-0.637 -1.353,-0.273 -0.165,0.495 -2.512,-0.075 -2.728,-0.662 -0.105,-0.286 -0.342,-0.62 -0.525,-0.742 -0.2,-0.134 -0.081,-0.317 0.296,-0.457 0.347,-0.129 0.752,-0.388 0.899,-0.577 0.078,-0.1 0.128,-0.113 0.148,-0.048 z m 6.463,0.185 a 0.32000039,0.32000039 0 1 1 0.001,0.64 0.32,0.32 0 0 1 0,-0.64 z m 3.756,0.04 c 0.062,-0.003 0.086,0.07 0.086,0.216 0,0.211 0.214,0.383 0.478,0.383 0.264,0 0.48,0.144 0.48,0.32 0,0.401 -0.648,0.405 -1.276,0.008 -0.38,-0.24 -0.397,-0.383 -0.08,-0.699 0.15,-0.15 0.25,-0.226 0.312,-0.229 z m -1.855,0.019 c 0.24,-0.08 0.36,0.041 0.28,0.281 a 1,1 0 0 1 -0.56,0.559 c -0.24,0.08 -0.36,-0.04 -0.28,-0.28 a 1,1 0 0 1 0.56,-0.56 z m -7,0.26 c 0.186,0 0.249,0.144 0.14,0.32 -0.109,0.176 -0.262,0.32 -0.34,0.32 -0.077,0 -0.14,-0.144 -0.14,-0.32 0,-0.176 0.153,-0.32 0.34,-0.32 z m 12.761,0 c 0.166,0 0.39,0.144 0.498,0.32 0.109,0.176 -0.026,0.32 -0.3,0.32 -0.275,0 -0.499,-0.144 -0.499,-0.32 0,-0.176 0.136,-0.32 0.301,-0.32 z m 1.62,0.228 c 0.351,-0.092 0.629,-0.073 0.617,0.043 -0.013,0.116 -0.125,0.465 -0.248,0.777 -0.178,0.45 -0.307,0.486 -0.618,0.176 -0.553,-0.553 -0.49,-0.803 0.248,-0.996 z m 37.154,0.092 c 0.46,0.12 0.59,0.7 0.13,1.588 -0.296,0.573 -0.416,1.293 -0.296,1.77 0.126,0.5 0.065,0.802 -0.16,0.802 -0.22,0 -0.287,0.296 -0.17,0.76 0.153,0.612 -0.125,1.075 -1.434,2.385 -0.894,0.893 -1.625,1.909 -1.625,2.257 0,0.349 -0.419,0.933 -0.93,1.297 -1.155,0.823 -1.13,0.823 -1.742,-0.11 -0.489,-0.745 -0.46,-0.81 0.877,-2.042 0.76,-0.7 1.673,-1.366 2.027,-1.479 0.481,-0.152 0.747,-0.692 1.05,-2.117 0.222,-1.051 0.529,-1.91 0.68,-1.91 0.153,0 0.278,-0.216 0.278,-0.48 0,-0.264 -0.128,-0.48 -0.285,-0.48 -0.669,0 -0.64,-1.047 0.045,-1.618 0.364,-0.304 0.702,-0.494 0.992,-0.584 0.218,-0.067 0.409,-0.08 0.563,-0.04 z m -35.616,0.031 c 0.052,0.02 0.034,0.209 -0.01,0.584 -0.049,0.426 -0.27,0.834 -0.49,0.906 -0.544,0.18 -0.503,-0.308 0.09,-1.06 0.237,-0.301 0.359,-0.45 0.41,-0.43 z m -10.888,0.29 c 0.138,0 0.252,0.288 0.252,0.64 0,0.352 -0.2,0.638 -0.446,0.638 -0.275,0 -0.371,-0.193 -0.252,-0.505 0.107,-0.279 0.196,-0.566 0.196,-0.64 0,-0.073 0.111,-0.134 0.25,-0.134 z m 6.1,0.19 c 0.309,-0.19 0.689,0.086 0.689,0.502 0,0.147 -0.135,0.268 -0.301,0.268 -0.434,0 -0.72,-0.565 -0.389,-0.77 z m -4.116,1.252 c 0.179,-0.11 0.324,0.025 0.324,0.3 0,0.561 -0.19,0.642 -0.464,0.199 -0.102,-0.164 -0.039,-0.388 0.14,-0.499 z m 1.66,0.516 c 0.254,-0.058 0.645,0.104 1.188,0.484 0.575,0.404 0.803,0.431 0.992,0.125 0.152,-0.246 0.32,-0.275 0.441,-0.078 0.282,0.456 -0.502,1.01 -1.34,0.948 -0.436,-0.033 -0.65,-0.215 -0.554,-0.467 0.087,-0.226 0.025,-0.41 -0.137,-0.41 -0.162,0 -0.44,0.252 -0.619,0.56 -0.279,0.479 -0.328,0.432 -0.336,-0.32 -0.006,-0.504 0.111,-0.783 0.365,-0.842 z m -4.992,0.088 c 0.085,-0.013 0.137,0.025 0.137,0.12 0,0.178 -0.217,0.408 -0.48,0.509 -0.265,0.101 -0.48,0.135 -0.48,0.074 0,-0.06 0.215,-0.29 0.48,-0.51 0.138,-0.114 0.258,-0.18 0.343,-0.193 z m 1.078,0.193 a 0.33,0.33 0 0 1 0.338,0.32 c 0,0.177 -0.063,0.321 -0.14,0.321 -0.078,0 -0.23,-0.144 -0.338,-0.32 -0.11,-0.176 -0.046,-0.32 0.14,-0.32 z m -0.965,1.166 c 0.316,0.027 0.64,0.312 0.778,0.836 0.147,0.564 0.25,0.6 0.677,0.244 0.278,-0.23 0.609,-0.313 0.735,-0.187 0.126,0.126 -0.058,0.395 -0.408,0.598 -0.644,0.37 -2.374,0.521 -2.559,0.222 -0.055,-0.089 -0.028,-0.541 0.06,-1.004 0.097,-0.505 0.402,-0.735 0.717,-0.709 z m 3.616,0.547 c 0.09,-0.075 0.335,-0.027 0.808,0.086 1.152,0.276 1.28,0.414 0.711,0.774 -0.696,0.44 -1.178,0.37 -1.396,-0.2 -0.148,-0.385 -0.214,-0.584 -0.123,-0.66 z m 44.709,0.528 c 0.186,0 0.34,0.144 0.34,0.32 0,0.176 -0.064,0.32 -0.141,0.32 -0.078,0 -0.231,-0.144 -0.34,-0.32 -0.109,-0.176 -0.046,-0.32 0.14,-0.32 z m 2.328,3.343 c 0.255,-0.076 0.565,-0.053 1.037,0.035 1.317,0.247 1.364,0.499 0.478,2.5 -0.36,0.815 -0.683,1.476 -0.718,1.47 a 27.863,27.863 0 0 1 -1.106,-0.466 c -0.823,-0.358 -1.037,-0.638 -1.03,-1.347 0.007,-0.493 0.288,-1.228 0.626,-1.633 0.255,-0.307 0.457,-0.482 0.713,-0.559 z m 0.084,4.016 c 0.665,0 0.918,0.602 0.476,1.135 -0.405,0.488 -0.539,0.516 -1.187,0.254 -0.525,-0.212 0.078,-1.389 0.71,-1.389 z m -9.451,0.232 c 0.685,-0.179 0.978,-0.005 0.978,0.582 0,0.213 -0.36,0.387 -0.8,0.387 -0.943,0 -1.078,-0.733 -0.178,-0.969 z m 1.648,1.424 c -0.005,-0.043 0.128,-0.007 0.396,0.078 0.323,0.103 0.718,0.186 0.88,0.186 0.161,0 0.294,0.144 0.294,0.32 0,0.464 -0.427,0.394 -1.138,-0.185 -0.285,-0.232 -0.427,-0.355 -0.432,-0.399 z m 10.787,0.371 c 0.37,-0.055 0.752,0.23 0.623,0.616 -0.135,0.406 -1.697,0.526 -2.252,0.173 -0.254,-0.16 -0.162,-0.249 0.268,-0.252 0.36,-0.003 0.816,-0.163 1.011,-0.359 a 0.622,0.622 0 0 1 0.35,-0.178 z m -8.646,0.93 c 0.047,0.036 0.062,0.191 0.064,0.482 0.003,0.396 -0.138,0.721 -0.314,0.721 -0.401,0 -0.401,-0.338 0,-0.959 0.125,-0.194 0.203,-0.28 0.25,-0.244 z m 10.629,4.883 c -0.176,0.109 -0.32,0.479 -0.32,0.82 0,0.342 0.144,0.621 0.32,0.621 0.176,0 0.32,-0.37 0.32,-0.82 0,-0.465 -0.139,-0.733 -0.32,-0.621 z m -7.66,3.68 c 0.165,0 0.3,0.144 0.3,0.32 0,0.176 -0.224,0.32 -0.498,0.32 -0.274,0 -0.411,-0.144 -0.303,-0.32 0.11,-0.176 0.335,-0.32 0.5,-0.32 z m -23.618,10.3 a 0.904,0.904 0 0 0 -0.662,0.662 c -0.074,0.383 0.041,0.498 0.371,0.371 0.723,-0.277 0.973,-1.164 0.291,-1.033 z"
     clip-path="url(#a)"
     style="fill:#333333;stroke-width:0.32"
     transform="rotate(-90,87.484363,158.44236)"
     id="path75" />
</svg>
