
<svg width="77" height="107" viewBox="0 0 77 107" fill="none" xmlns="http://www.w3.org/2000/svg">
<path d="M76.9395 53.011H30.9115L23.3535 25.648L17.5705 4.725C17.3973 4.10392 17.3883 3.4485 17.5444 2.82289C17.7005 2.19729 18.0164 1.62293 18.4611 1.15604C18.9058 0.68915 19.4641 0.345728 20.0814 0.159387C20.6987 -0.0269532 21.3537 -0.0498264 21.9825 0.093004H21.9945C22.0007 0.092203 22.007 0.0928728 22.0129 0.0949571C22.0188 0.0970413 22.0242 0.100483 22.0285 0.105005C22.0405 0.105005 22.0525 0.116007 22.0755 0.116007C22.0926 0.119532 22.1084 0.127456 22.1215 0.139002C22.2662 0.176662 22.4085 0.223081 22.5475 0.278002C22.7962 0.382377 23.0313 0.516703 23.2475 0.678003C23.424 0.788318 23.5866 0.919606 23.7315 1.069L70.2775 46.51C70.2819 46.5189 70.2884 46.5267 70.2964 46.5326C70.3044 46.5385 70.3137 46.5424 70.3235 46.544L70.3585 46.579L76.9395 53.011Z" fill="url(#paint0_linear_1_30)"/>
<path d="M30.9117 53.0109L29.2297 51.1559L28.3887 50.2339L0.633661 19.7029C0.294529 19.3299 0.0807016 18.86 0.0221806 18.3593C-0.0363405 17.8585 0.0633806 17.352 0.307356 16.9108C0.551331 16.4697 0.927315 16.1159 1.38255 15.8993C1.83778 15.6826 2.34942 15.614 2.84566 15.7029L6.70566 17.5809C6.71766 17.5809 6.74066 17.5919 6.75166 17.5919L15.4617 21.8209L22.3617 25.1729L23.3517 25.6459L30.9117 53.0109Z" fill="url(#paint1_linear_1_30)"/>
<g style="mix-blend-mode:screen" opacity="0.3">
<path d="M55.0263 49.5541H33.5503L23.1123 11.8101L55.0263 49.5541Z" fill="white"/>
</g>
<g style="mix-blend-mode:multiply" opacity="0.15">
<path d="M30.9119 53.011L28.2849 47.711L15.4619 21.823L22.3619 25.176L23.3529 25.648L30.9119 53.011Z" fill="black"/>
</g>
<g style="mix-blend-mode:screen" opacity="0.5">
<path d="M70.2803 46.513C69.7503 46.087 66.6513 43.552 62.3883 39.727C60.0263 37.627 57.3073 35.153 54.4383 32.457C53.0103 31.109 51.5123 29.726 50.0253 28.286C48.5383 26.846 47.0253 25.394 45.5093 23.942C44.0233 22.468 42.5253 20.993 41.0503 19.53C39.5763 18.09 38.1703 16.63 36.7763 15.221C34.0223 12.421 31.4763 9.75998 29.3223 7.45498C27.1683 5.14998 25.4043 3.20398 24.1833 1.83298C23.7618 1.27004 23.2475 0.783059 22.6623 0.392975C22.4612 0.275941 22.2488 0.17946 22.0283 0.10498C22.6735 0.268377 23.2627 0.602387 23.7343 1.07198L70.2803 46.513Z" fill="white"/>
</g>
<g style="mix-blend-mode:multiply" opacity="0.25">
<path d="M76.9393 53.0111H30.9113L29.2293 51.1561L28.2853 47.7111L26.5103 41.2251C25.4503 37.1921 24.3793 33.1601 23.3533 29.1041C23.0193 27.7901 22.6853 26.4891 22.3633 25.1751L23.3533 25.6481L17.5703 4.7251C18.9413 8.6771 20.1623 12.6631 21.4643 16.6381C22.7083 20.6241 23.9296 24.6181 25.1283 28.6201C26.3283 32.6201 27.4783 36.6281 28.6423 40.6371L31.7873 51.8701C35.3243 51.8931 38.8733 51.8821 42.4213 51.9391C46.2583 51.9851 50.0953 52.0321 53.9313 52.1391C57.7563 52.2081 61.5933 52.3391 65.4313 52.4731C69.2663 52.6421 73.1033 52.7571 76.9393 53.0111Z" fill="black"/>
</g>
<g style="mix-blend-mode:multiply" opacity="0.25">
<path d="M28.3887 50.2339L0.633661 19.7029C0.294529 19.3299 0.0807016 18.86 0.0221806 18.3593C-0.0363405 17.8585 0.0633806 17.352 0.307356 16.9108C0.551331 16.4697 0.927315 16.1159 1.38255 15.8993C1.83778 15.6826 2.34942 15.614 2.84566 15.7029L6.70566 17.5809C5.36966 17.1079 4.05566 16.6129 2.75366 16.1059C2.36679 16.0678 1.97761 16.1503 1.63945 16.3421C1.30128 16.5338 1.03066 16.8254 0.86466 17.1769C0.703189 17.4934 0.647336 17.8533 0.705282 18.2039C0.763228 18.5544 0.931929 18.8772 1.18666 19.1249L3.23766 21.2099C3.92866 21.9099 4.62066 22.6159 5.29966 23.3299C6.65966 24.7469 8.03066 26.1639 9.35566 27.6299C10.6917 29.0709 12.0407 30.5109 13.3417 31.9849C14.6427 33.4589 15.9687 34.9119 17.2477 36.4099C18.5267 37.9079 19.8167 39.3939 21.0727 40.9099C23.5957 43.9549 26.0727 47.0199 28.3887 50.2339Z" fill="black"/>
</g>
<path d="M76.9394 53.011L70.3614 59.44L70.3264 59.4741C70.3166 59.4759 70.3073 59.48 70.2993 59.4861C70.2913 59.4921 70.2848 59.5 70.2804 59.509L23.7344 104.949C23.5895 105.099 23.427 105.23 23.2504 105.341C23.0342 105.502 22.7992 105.637 22.5504 105.741C22.4114 105.796 22.2691 105.842 22.1244 105.88C22.1114 105.892 22.0955 105.9 22.0784 105.903C22.0554 105.903 22.0434 105.914 22.0314 105.914C22.0271 105.919 22.0218 105.922 22.0159 105.924C22.01 105.926 22.0037 105.927 21.9974 105.926H21.9854C21.3567 106.069 20.7016 106.046 20.0843 105.86C19.467 105.673 18.9087 105.33 18.464 104.863C18.0193 104.396 17.7034 103.822 17.5473 103.196C17.3912 102.571 17.4002 101.915 17.5734 101.294L23.3564 80.371L30.9144 53.0081L76.9394 53.011Z" fill="url(#paint2_linear_1_30)"/>
<path d="M30.9116 53.011L23.3536 80.374L22.3636 80.847L15.4636 84.199L6.75361 88.428C6.74261 88.428 6.71962 88.439 6.70762 88.439L2.84762 90.317C2.35137 90.4059 1.83973 90.3372 1.3845 90.1206C0.929268 89.904 0.553288 89.5502 0.309313 89.1091C0.0653372 88.6679 -0.0343877 88.1614 0.0241334 87.6606C0.0826544 87.1599 0.296482 86.69 0.635614 86.317L28.3906 55.786L29.2316 54.864L30.9116 53.011Z" fill="url(#paint3_linear_1_30)"/>
<g style="mix-blend-mode:screen" opacity="0.3">
<path d="M55.0263 56.467H33.5503L23.1123 94.211L55.0263 56.467Z" fill="white"/>
</g>
<g style="mix-blend-mode:multiply" opacity="0.15">
<path d="M30.9119 53.011L28.2849 58.311L15.4619 84.199L22.3619 80.846L23.3529 80.374L30.9119 53.011Z" fill="black"/>
</g>
<g style="mix-blend-mode:screen" opacity="0.5">
<path d="M70.2803 59.509C69.7503 59.935 66.6513 62.47 62.3883 66.295C60.0263 68.395 57.3073 70.869 54.4383 73.565C53.0103 74.913 51.5123 76.296 50.0253 77.736C48.5383 79.176 47.0253 80.628 45.5093 82.079C44.0233 83.554 42.5253 85.029 41.0503 86.492C39.5763 87.932 38.1703 89.392 36.7763 90.801C34.0223 93.601 31.4763 96.262 29.3223 98.566C27.1683 100.87 25.4043 102.818 24.1833 104.189C23.7618 104.752 23.2475 105.239 22.6623 105.629C22.461 105.746 22.2486 105.842 22.0283 105.917C22.6734 105.753 23.2625 105.419 23.7343 104.949L70.2803 59.509Z" fill="white"/>
</g>
<g style="mix-blend-mode:multiply" opacity="0.25">
<path d="M30.9113 53.011L23.3533 80.374L22.3633 80.847C22.6853 79.533 23.0193 78.231 23.3533 76.918C24.3793 72.862 25.4533 68.83 26.5103 64.797L28.2853 58.311L29.2293 54.866L30.9113 53.011Z" fill="black"/>
</g>
<g style="mix-blend-mode:multiply" opacity="0.25">
<path d="M28.3887 55.7881L0.633661 86.3191C0.294529 86.6921 0.0807016 87.162 0.0221806 87.6627C-0.0363405 88.1635 0.0633806 88.67 0.307356 89.1111C0.551331 89.5523 0.927315 89.9061 1.38255 90.1227C1.83778 90.3393 2.34942 90.408 2.84566 90.3191L6.70566 88.4411C5.36966 88.9141 4.05566 89.4091 2.75366 89.9161C2.36666 89.9542 1.97734 89.8716 1.63914 89.6797C1.30093 89.4878 1.03039 89.1959 0.86466 88.8441C0.703111 88.5278 0.647211 88.168 0.705164 87.8176C0.763117 87.4672 0.931875 87.1445 1.18666 86.8971L3.23766 84.8121C3.92866 84.1121 4.62066 83.4061 5.29966 82.6921C6.65966 81.2751 8.03066 79.8581 9.35566 78.3921C10.6917 76.9521 12.0407 75.5121 13.3417 74.0371C14.6427 72.5621 15.9687 71.1111 17.2477 69.6131C18.5267 68.1151 19.8167 66.6291 21.0727 65.1081C23.5957 62.0671 26.0727 59.0021 28.3887 55.7881Z" fill="black"/>
</g>
<g style="mix-blend-mode:screen" opacity="0.5">
<path d="M76.9393 53.0111C73.1033 53.2641 69.2663 53.3801 65.4303 53.5521C61.5933 53.6911 57.7563 53.8171 53.9303 53.8871C50.0943 53.9871 46.2573 54.0361 42.4203 54.0871C38.8723 54.1451 35.3203 54.1331 31.7863 54.1561L28.6423 65.3811C27.4783 69.3901 26.3263 73.4001 25.1283 77.3981C23.9303 81.3961 22.7083 85.3931 21.4643 89.3801C20.1643 93.3551 18.9413 97.3411 17.5703 101.293L23.3533 80.3701L30.9113 53.0071L76.9393 53.0111Z" fill="white"/>
</g>
<defs>
<linearGradient id="paint0_linear_1_30" x1="17.4336" y1="26.5057" x2="76.9395" y2="26.5057" gradientUnits="userSpaceOnUse">
<stop stop-color="#FC535D"/>
<stop offset="1" stop-color="#F8A700"/>
</linearGradient>
<linearGradient id="paint1_linear_1_30" x1="0.00585938" y1="34.338" x2="30.9117" y2="34.338" gradientUnits="userSpaceOnUse">
<stop stop-color="#CA1EE7"/>
<stop offset="0.078125" stop-color="#CA1EE7"/>
<stop offset="0.078225" stop-color="#CA1EE7"/>
<stop offset="0.078325" stop-color="#CA1EE7"/>
<stop offset="0.104167" stop-color="#CA1EE7"/>
<stop offset="0.171875" stop-color="#CA1EE7"/>
<stop offset="0.255208" stop-color="#CA1EE7"/>
<stop offset="0.494792" stop-color="#CA1EE7"/>
<stop offset="0.588542" stop-color="#CA1EE7"/>
<stop offset="0.666667" stop-color="#CA1EE7"/>
<stop offset="0.739583" stop-color="#CA1EE7"/>
<stop offset="1" stop-color="#CA1EE7"/>
</linearGradient>
<linearGradient id="paint2_linear_1_30" x1="47.188" y1="52.3719" x2="47.188" y2="107.132" gradientUnits="userSpaceOnUse">
<stop stop-color="#FC535D"/>
<stop offset="1" stop-color="#F8A700"/>
</linearGradient>
<linearGradient id="paint3_linear_1_30" x1="0.0078125" y1="71.6829" x2="30.9116" y2="71.6829" gradientUnits="userSpaceOnUse">
<stop stop-color="#CA1EE7"/>
<stop offset="0.140625" stop-color="#CA1EE7"/>
<stop offset="0.286458" stop-color="#CA1EE7"/>
<stop offset="0.427083" stop-color="#CA1EE7"/>
<stop offset="0.5625" stop-color="#CA1EE7"/>
<stop offset="0.677083" stop-color="#CA1EE7"/>
<stop offset="0.848958" stop-color="#CA1EE7"/>
</linearGradient>
</defs>
</svg>
