<svg xmlns="http://www.w3.org/2000/svg" width="152.98" height="133.743"><defs><clipPath id="a" clipPathUnits="userSpaceOnUse"><path d="M128.704 62.749h152.98v133.743h-152.98z" style="fill:#000"/></clipPath></defs><path d="m184.451 61.655.756.657c.416.36 1.06.656 1.432.656.666 0 .667-.005.045-.436a5.65 5.65 0 0 0-1.432-.658zm14 2.278c-.478.004-.49.05-.08.316.604.39.64.39.64 0 0-.176-.252-.319-.56-.316zm3.742.634c-.186 0-.249.145-.14.32.109.177.26.321.338.321.077 0 .14-.144.14-.32a.33.33 0 0 0-.338-.32zm-4.896.014c-.232-.04-.494.154-.613.61-.09.341-.083.7.015.798.455.455 1.033.108 1.033-.62 0-.476-.203-.748-.435-.788zm-4.291.791c-.086.062-.07.223.076.461a.4.4 0 0 0 .547.14c.215-.132.181-.298-.094-.468-.256-.159-.443-.195-.529-.133zm-10.885.797c-1.066 0-1.193 1.428-.238 2.68.848 1.112 1.027 1.946.488 2.279-.176.109-.318.304-.318.432 0 .127.286.232.638.232.352 0 .641-.168.641-.373s.217-.552.48-.772c.265-.219.48-.687.48-1.04 0-.624-1.094-1.838-1.655-1.838-.153 0-.187-.361-.076-.801.164-.654.083-.8-.44-.8zm6.97 1.6c-.637 0-.83.34-.425.746.39.39 1.067.221 1.067-.266 0-.267-.286-.48-.641-.48zm24.972 1.6c-.17 0-.229.216-.127.48.1.264.241.48.31.48.07 0 .125-.216.125-.48s-.138-.48-.308-.48zm-52.33.653c-.176.003-.043.217.296.473.34.257.694.389.79.293.2-.2-.611-.773-1.086-.766zm-5.624.46c-.405-.02-.705.246-.933.798-.26.626-.642.98-1.082 1-.663.031-.664.038-.035.24 1.07.345 2.003 1.145 2.431 2.084.223.489.773 1.088 1.223 1.333.45.244.845.452.877.459.032.007-.074-.446-.234-1.006-.161-.56-.212-1.533-.112-2.16.148-.927.042-1.27-.564-1.825-.652-.596-1.165-.903-1.57-.924zm51.63.476-.346 1.365c-.706 2.792-.795 3.306-.725 4.166.056.691-.065.88-.568.88-.786 0-2-1.466-1.75-2.114.112-.293.014-.437-.258-.379-.3.064-.413-.175-.354-.754.086-.831.06-.842-1.548-.701-1.22.107-1.853-.003-2.487-.43-1.031-.693-2.332-.78-2.78-.185-.33.44-1.43.252-1.43-.246 0-.144-.467-.03-1.038.255-1.201.6-3.66.783-4.504.336-.38-.2-1.154-.18-2.24.059-2.982.657-3.37.658-3.58-.002-.15-.475-.344-.55-.895-.34-.387.147-.684.5-.66.781.024.282-.086.432-.244.334-.954-.59-2.52 1.297-2.52 3.036 0 .667-.157.99-.48.99a.482.482 0 0 0-.48.48c0 .264.144.479.32.479.176 0 .32-.145.32-.323 0-.19.263-.157.643.08.354.222.576.577.494.792-.082.214-.012.476.156.58.169.104.307.465.307.802 0 .36.402.822.97 1.116 1.058.547 1.003 1.11-.109 1.119-.927.006-1.636.477-1.369.91.118.19-.017.79-.299 1.336-.282.545-.442 1.163-.357 1.37.085.209.166.127.18-.18.013-.309.153-.561.31-.561.435 0 .674.86.674 2.426 0 1.237.166 1.575 1.324 2.699.728.706 1.653 1.367 2.057 1.468.403.102.814.396.914.655.1.26.324.383.498.275.174-.108.822-.1 1.441.016.929.174 1.125.35 1.125 1.006 0 .437.247 1.213.55 1.724.54.914 1.052 1.22 1.052.63 0-.166-.147-.392-.326-.503a.387.387 0 0 1-.12-.533c.133-.214.3-.178.473.102.148.238.417.452.6.474.182.022.368.068.412.102.16.124 1.84.292 1.84.183 0-.061-.517-.432-1.149-.822-3.272-2.022-3.116-4.18.256-3.55.773.144 1.686.151 2.03.017 1.037-.406 1.277-.333 2.738.828.772.614 1.63 1.117 1.904 1.12.275 0 .82.434 1.211.962.92 1.243 2.428 1.31 3.523.154.415-.437.884-.795 1.041-.795.158 0 .286-.218.286-.488s.207-.57.459-.666c.252-.097.446-.417.433-.71-.013-.295.035-.678.104-.854a.394.394 0 0 0-.196-.48c-.176-.089-.365.164-.422.56-.056.396-.284.72-.505.72-.548 0-1.586-1.177-2.399-2.716-.783-1.482-.85-2.084-.232-2.084.242 0 .609-.204.814-.451.288-.347.63-.378 1.49-.141 1.196.33 2.502.098 2.2-.39-.101-.164-.04-.298.136-.298.176 0 .364-.531.418-1.18.083-.986.268-1.245 1.13-1.595.89-.362 1.003-.354.845.059-.23.6.182.594.986-.014.542-.41.552-.47.08-.47-.798 0-.728-1.974.098-2.722.352-.318.64-.898.64-1.289 0-1.31.396-2.7.712-2.505.69.426-.413-1.105-1.139-1.58-.426-.28-1.205-1.383-1.73-2.452zm-59.368.336c-.789.004-.923.079-.558.314.629.407 1.6.407 1.6 0 0-.176-.47-.317-1.042-.314zm3.87 1.281c-.199.044-.176.2.05.473.447.539.918.599 1.549.2.319-.203.238-.322-.32-.472-.66-.176-1.081-.245-1.28-.2zm8.69 1.754c-.175.109-.32.333-.32.498 0 .166.145.3.32.3.177 0 .321-.223.321-.497 0-.275-.144-.41-.32-.3zm44.753.522c-.07-.012-.149.08-.266.27-.17.273-.138.713.082 1.11.334.604.373.61.484.079.067-.319.03-.819-.082-1.112-.085-.222-.148-.336-.218-.347zm-52.252.277c-.078 0-.231.144-.34.32-.109.176-.046.32.14.32.187 0 .34-.144.34-.32 0-.176-.063-.32-.14-.32zm-2.17 1.549c-.07-.21-.636.137-1.297.799-.645.644-1.303 1.171-1.463 1.171-.16 0-.446.188-.635.415-.527.635 2.05.634 3.27-.002.58-.303 1.819-.53 2.969-.545 2.33-.03 2.34-.183.035-.547-.927-.147-1.733-.412-1.793-.592-.06-.18-.3-.328-.535-.328-.235 0-.483-.167-.551-.371zm6.951 2.627c-.457-.03-.8.108-.8.427 0 .245.43.786.956 1.202.527.415.957.926.96 1.134.001.209.144.748.316 1.2.351.924 1.24 1.123 1.171.261-.03-.373.222-.592.756-.656.44-.053 1.016-.183 1.28-.289.264-.106.769-.159 1.12-.117 1.1.13-.1-.755-1.92-1.416-.88-.32-1.943-.847-2.362-1.172a2.842 2.842 0 0 0-1.477-.574zm3.64.625c-.175 0-.23.144-.12.32.108.176.341.318.517.318s.23-.142.121-.318c-.109-.176-.341-.32-.517-.32zm-17.314.142c-.214.026-.487.131-.85.319-1.12.58-1.133.606-.644 1.52.345.644.377.636 1.35-.337.724-.724.898-1.091.642-1.347-.128-.129-.283-.18-.498-.155zm59.713.319c.205-.086.443-.072.785.013.47.117.903.348.963.514.06.166.327.52.592.785.29.291.391.703.254 1.035-.156.377-.275.424-.377.15-.258-.69-1.124-.477-.903.221.134.42.001.727-.408.946-.516.276-.706.13-1.302-.987-.653-1.223-.666-1.359-.186-2.091.206-.315.377-.5.582-.586zm14.684.931c-.018.042.061.156.23.36.46.555.647.612.647.2 0-.156-.237-.375-.526-.485-.22-.085-.334-.116-.351-.075zm-7.643 1.29c-.081.059-.071.277.064.63.111.288.338.439.504.336.18-.111.148-.37-.08-.644-.234-.282-.407-.382-.488-.323zm-71.252.001c-.22-.22-1.51 1.041-1.51 1.477 0 .176.14.32.313.32.395 0 1.434-1.56 1.197-1.797zm20.182 2.168c-.265.029-.476.115-.574.274-.198.32-.556.332-1.635.058-.76-.192-1.451-.281-1.537-.195-.086.086.16.24.548.342.849.222.941.75.131.75-.316 0-.733.157-.925.35-.253.252-.536.249-1.024-.012-.847-.454-.89-.006-.115 1.177.535.817.534.845-.018.633-.927-.356-4.404.751-4.754 1.514-.27.592-.596.66-3.279.68-2.461.017-3.184.141-4.162.718-.651.385-1.345.7-1.541.7-.196 0-.64.252-.984.56-.606.54-.619.535-.403-.16.123-.396.133-.72.022-.72-.304 0-1.92 1.995-1.93 2.382-.005.186-.11.501-.236.701-.224.357.646 1.337 1.006 1.133.1-.057.235.051.298.24.064.19-.15.352-.472.364-.5.017-.486.06.1.296.901.364 1.258.973.751 1.286-.495.306-.208 1.663.504 2.375.457.456.457.549 0 1.005-.75.751-.586 1.266.617 1.932.352.195.68.626.729.96.206 1.419.834 3.006 1.05 2.655a.43.43 0 0 1 .587-.152c.576.356.407.771-.358.88-.391.057-.884.45-1.095.876-.212.426-.598.893-.858 1.039-.389.218-.306.442.463 1.266.757.81.86 1.09.549 1.466-.303.365-.295.521.035.725.231.143.32.42.2.617-.122.197.075.773.437 1.281.528.743.63 1.275.521 2.713-.075.985-.25 1.973-.388 2.196-.427.682-.343 6.391.11 7.562.23.594.419 1.494.419 2 0 .77-.133.922-.8.922-.44 0-.8.16-.8.36 0 .241.422.293 1.28.156.784-.126 1.28-.08 1.28.119 0 .34-.634.465-1.84.361-.518-.045-.72.11-.72.555 0 .45.3.673 1.115.826.967.181 2.019 1.214 1.817 1.783-.031.088.133.38.365.652.869 1.015.922 1.312.348 1.946-.4.442-.614 1.294-.698 2.78-.147 2.61-.614 3.808-1.578 4.05-1.038.26-.901.792.264 1.025 1.053.21 2.03 1.457 2.375 3.026.342 1.556 2.666 3.696 5.352 4.925 1.364.625 3.004 1.49 3.644 1.924 1.607 1.09 2.962 1.035 4.115-.17.506-.528 1.206-.959 1.555-.959.35 0 1.569-.454 2.709-1.01 1.79-.871 2.12-.944 2.424-.533.53.718 3.47-.021 4.498-1.13.43-.466.951-.846 1.154-.846.203 0 .284-.222.18-.492a.507.507 0 0 1 .287-.674c.261-.1.475-.378.475-.617 0-.24.258-.574.576-.745.318-.17.855-.823 1.193-1.45.368-.683.856-1.143 1.213-1.143.647 0 2.47-.92 2.852-1.44.129-.176.237-.609.24-.963.006-.747 1.051-1.506 1.72-1.25.254.098.547.037.653-.134.106-.172.444-.257.752-.19.308.068 1.064-.127 1.68-.431.819-.406 1.147-.795 1.222-1.452.057-.493.308-.976.559-1.072.25-.096.36-.328.244-.516-.13-.21-.014-.266.303-.144.281.108.573.025.648-.186.091-.254.392-.15.9.31.641.581.829.62 1.165.253.22-.241.4-.588.4-.772 0-.183.214-.334.478-.334.278 0 .49-.302.504-.718.047-1.436 1.146-2.79 2.643-3.258.478-.15.542-.373.353-1.223-.375-1.686-.333-1.946.368-2.304.366-.188.6-.535.521-.772-.103-.31.045-.372.533-.217.623.198.678.097.678-1.246 0-1.086.124-1.46.48-1.46.68 0 .597-.758-.16-1.442a1.827 1.827 0 0 1-.574-1.457c.037-.483-.08-1.073-.258-1.31-.177-.238-.484-.812-.681-1.276-.322-.756-.297-.827.244-.686.54.142.573.051.31-.865-.161-.563-.64-1.373-1.066-1.799-.425-.425-.863-1.333-.973-2.017-.147-.92-.513-1.502-1.4-2.227l-1.201-.98.88-.01c.723-.01.88-.156.88-.813 0-.675.15-.799.96-.799.528 0 .96-.06.96-.134 0-.074.077-.334.171-.579.094-.244-.086-.747-.4-1.119-1.995-2.36-2.244-3.072-1.13-3.23.894-.127.922-.735.067-1.508-.358-.324-.578-.779-.49-1.01.231-.601-.131-1.38-.642-1.38-.273 0-.361-.196-.235-.526.247-.643-.682-1.395-1.722-1.395-.407 0-.739-.144-.739-.32 0-.176.449-.318.998-.318.876 0 .947-.063.579-.508-.28-.336-.75-.458-1.399-.36-.538.082-1.229.02-1.537-.142-.41-.215-.56-.169-.56.172 0 .628-.635.807-1.594.451-.436-.162-1.445-.273-2.24-.246-2.44.081-2.887.01-2.887-.465 0-.296-.648-.6-1.84-.863-1.041-.23-2.509-.872-3.379-1.479-1.138-.793-1.722-1.012-2.24-.842-.386.127-1.251.194-1.924.149-2.179-.144-4.856-1.629-2.938-1.629.477 0 .754-.136.641-.318-.109-.176-.44-.322-.738-.323-.298 0-.955-.217-1.46-.48-.503-.263-1.116-.479-1.363-.479-.246 0-.711-.165-1.035-.367-.46-.287-.821-.25-1.664.17-1.025.511-1.117.508-1.92-.086-.836-.618-.847-.618-1.386.012-.518.605-.498.686.431 1.744 1.031 1.174 1.222 1.729.594 1.729-.21 0-.101.21.24.468.383.29.46.475.201.48-.23.006-.33.155-.22.33.108.177-.027.321-.301.321a.5.5 0 0 1-.498-.5c0-.274-.134-.416-.295-.316-.161.1-.688.03-1.172-.155-.607-.23-.982-.23-1.21-.002-.23.23-.164.333.212.333.842 0 .642.547-.264.72-.515.099-.906-.02-1.078-.326-.148-.265-.718-.517-1.267-.56-1.164-.092-1.032.337.277.896.887.379.903.422.479 1.414-.405.947-.512 1.003-1.42.742-.776-.222-.983-.184-.983.184 0 .664 1.625 1.244 1.969.703.144-.227.263-.261.266-.076.003.185-.155.494-.35.69-.26.258-.163.456.355.734.519.277.613.473.354.732-.544.544-.437.756.605 1.188.674.279 1.082.297 1.366.062.299-.248.502-.125.787.479.377.8.366.81-.645.58a22.437 22.437 0 0 0-2.306-.36c-2.014-.196-2.361-.4-1.62-.945.443-.326.49-.458.16-.461-.388-.004-.387-.055.018-.316.32-.207.347-.312.08-.315-.22-.003-.398-.22-.398-.484 0-.58-.848-.644-1.055-.08-.116.317-.237.313-.584-.014-.369-.349-.362-.46.041-.715.368-.233.28-.303-.385-.307-.473-.003-.95-.15-1.058-.326-.109-.176-.01-.32.22-.324.23-.003.615-.128.854-.28.359-.227.343-.412-.088-1.07-.286-.437-.436-1.016-.332-1.287.104-.27.033-.589-.158-.707s-.26-.356-.152-.529c.106-.173.36-.991.564-1.818.31-1.258.496-1.506 1.127-1.512.415-.004 1.013-.327 1.33-.719.317-.392.712-.713.877-.713.164 0 .53-.257.814-.57.662-.731 2.956-.847 4.686-.236.72.253 1.299.321 1.299.152 0-.168.624-.307 1.388-.307 1.032 0 1.63-.209 2.32-.812.905-.79.913-.825.31-1.28-.342-.256-.793-.466-1.003-.466-.21 0-.454-.279-.543-.62-.151-.58-1.428-1.015-2.222-.929zm48.492 3.215c-.333.052-.338.33-.354.893-.024.857.076.96.926.96.524 0 1.126.143 1.338.317.213.174 1.179.947 2.147 1.719l1.76 1.404.099-.892c.092-.832.164-.874 1.07-.614.535.154 1.181.453 1.436.664.36.299.547.299.845 0 .299-.298.284-.445-.066-.662-.665-.41-3.137-.726-3.869-.494-.363.115-.635.055-.635-.14 0-.188-.288-.342-.64-.342-.427 0-.64-.212-.64-.639 0-.356.213-.64.48-.64 1.14 0 .32-.549-1.573-1.053-1.33-.355-1.991-.532-2.324-.48zm-51.943 1.533a.321.321 0 0 0-.32.32c0 .177.144.321.32.321.176 0 .32-.144.32-.32a.321.321 0 0 0-.32-.32zm-14.72.348c-.263-.01-.696.122-.96.293-.585.378-.079.378.8 0 .423-.181.477-.281.16-.293zm67.518.654c-.212-.063-.318.01-.318.217 0 .142.397.414.88.606 1.258.496 1.294.475.4-.225-.43-.335-.749-.534-.962-.598zm-11.054 1.004c.117-.09.324-.066.529.139.23.23.236.41.018.545-.18.11-.424.046-.541-.145-.152-.246-.124-.45-.006-.539zm23.855.235c-.331 0-.69.144-.799.32-.115.187.215.32.8.32.583 0 .916-.133.8-.32-.109-.176-.47-.32-.8-.32zm-14.783.056c-.103.076-.095.315-.014.742.174.908.64 1.053.934.29.108-.282-.004-.64-.25-.795-.355-.225-.567-.313-.67-.237zm13.006 1.864c-.465 0-.733.138-.621.32.109.176.477.32.818.32.342 0 .621-.144.621-.32 0-.176-.368-.32-.818-.32zm-22.717 1.117a.29.29 0 0 0-.295.146c-.114.185-.104.504.022.707.156.254.011.313-.461.19-.972-.254-.858.201.293 1.17l.982.828-.822.312c-.454.173-.825.568-.828.881-.002.312-.091.893-.198 1.29-.23.859.09.918.916.171.524-.474.649-.485.932-.08.243.347.285.216.162-.508-.091-.536-.067-1.137.055-1.334.229-.37 3.997-.417 4.36-.055.22.222 2.852.072 3.75-.212.785-.25.758-.769-.03-.563-.401.105-.765-.074-1.037-.51-.458-.733-1.244-.855-2.203-.342-1.51.809-4.783.146-4.783-.968 0-.542-.462-1.084-.815-1.123zm27.645.484c-.237.001.003.29.53.639 1.25.827 1.763.827.712 0-.448-.352-1.006-.64-1.242-.639zm-1.95 1.012c-1.348.069-1.854.262-2.566.98-.687.693-1.072.849-1.705.69-1.015-.255-2.37.428-2.37 1.193 0 .776-1.212 1.563-2.406 1.563-.541 0-1.147.162-1.345.36-.318.319-1.186.477-3.848.7-.396.033-.72.192-.72.354 0 .161-.081.212-.18.113-.1-.099-.551.166-1.006.588-.455.421-1.176.765-1.602.765-.629 0-.737.121-.572.641.172.542.058.639-.744.639-.542 0-1.025.203-1.129.474-.1.261-.369.404-.596.317-.302-.116-.404.243-.384 1.347.014.829.178 1.557.365 1.62.187.062.265.405.172.761-.102.388.118 1.037.547 1.617.506.685.664 1.233.537 1.868-.12.596-.033.955.255 1.066.262.1.422.611.403 1.28-.037 1.315.615 2.236 1.431 2.023.413-.108.583.024.583.457 0 .397.224.611.64.611.365 0 .64.212.64.494 0 .273.468.699 1.04.948 1.27.551 1.52.575 1.52.138 0-.186.153-.244.34-.129.186.116.776.03 1.31-.191.778-.323 1.017-.323 1.217 0 .136.22.902.424 1.7.451 1.605.054 1.647-.18.17-.943-.811-.42-1.03-.434-1.255-.078-.206.324-.285.272-.326-.211-.104-1.218.083-2.16.58-2.918.673-1.027 1.013-.958 1.543.308.636 1.523 2.393 2.77 3.9 2.772.672 0 1.693.289 2.27.64l1.046.64.313-.823c.172-.452.312-.938.312-1.082 0-.425 1.122-.596 2.721-.416 1.126.127 1.56.334 1.766.844.253.627.274.615.293-.17.031-1.31 1.398-1.467 3.117-.36.624.403.734.383 1.04-.191.19-.353.343-.85.343-1.104 0-.254.216-.64.48-.86.385-.318.583-.311 1.002.036.475.394.46.45-.174.6-.645.153-.66.212-.203.804.467.606.518.61.93.08.24-.307.6-.56.8-.56.201 0 .366-.168.366-.375s.333-.062.74.32c.861.81 1.498.9 1.498.215 0-.578.374-.618.897-.096.298.3.384.3.384 0 0-.21.228-.384.506-.384.395 0 .458-.209.293-.96-.165-.75-.1-.96.295-.96.686 0 .635-.423-.135-1.12-.352-.318-.638-.784-.638-1.035 0-.25-.4-.853-.889-1.341-.712-.713-.805-.963-.476-1.27.295-.276.725-.295 1.546-.068.845.233 1.105.217 1.012-.06-.069-.207-.61-.516-1.203-.686-.594-.17-1.306-.533-1.582-.805s-.86-.747-1.297-1.055l-.793-.56.72-.518c.397-.285.722-.773.722-1.082 0-.721-.819-1.404-1.315-1.098-.218.136-.564-.01-.805-.34-.347-.475-.507-.505-.912-.17-.403.335-.49.32-.49-.08 0-.266-.431-.946-.959-1.511s-.96-1.169-.96-1.34c0-.18-.406-.223-.958-.101-.653.143-1.109.059-1.434-.266-.262-.262-.75-.404-1.085-.317-.674.177-.822.017-1.116-1.216-.192-.808-.137-.846 1.405-.994 1.49-.144 2.198-.402 1.88-.686-.073-.065-1.21.014-2.529.176-1.318.161-2.974.247-3.68.19l-1.283-.106.88-.383c1.307-.568 1.077-.76-.8-.664zm-1.808.646c.02-.051.209-.033.584.01.426.05.833.27.906.49.18.545-.308.503-1.06-.09-.301-.236-.45-.358-.43-.41zm-67.25.26a.33.33 0 0 1 .338.32c0 .176-.063.32-.141.32-.078 0-.231-.144-.34-.32-.109-.176-.044-.32.143-.32zm1.342 2.85c.416.102.886.592.906 1.07.015.369-.404.27-1.108-.262-.532-.402-.563-.53-.18-.767a.49.49 0 0 1 .382-.041zm36.212.488c-.11.033-.121.202.051.48.116.188.364.342.551.342.212 0 .188-.184-.064-.488-.22-.264-.428-.367-.537-.334zm-37.543.666a.6.6 0 0 1 .704.084c.417.417-.12.75-.666.412-.319-.197-.328-.317-.038-.496zm41.989.8c-.467.005-.476.05-.063.317.627.405 1.051.405.801 0-.109-.176-.44-.32-.738-.316zm-41.983 1.415c.78-.221.904.652.135.947-.772.296-2.055.232-2.055-.103 0-.165.29-.381.641-.48l1.28-.364zm43.84.728c-.352.092-.638.224-.638.291 0 .068.286.121.638.121.352 0 .64-.13.64-.289 0-.16-.288-.215-.64-.123zm-37.76.094a.32.32 0 1 1 .001.638.32.32 0 0 1 0-.638zm-3.134.107c.194.022.422.137.754.354.451.296.764.71.695.918-.169.506-.872.55-1.754.11-.846-.424-.89-.632-.242-1.169.193-.16.353-.234.547-.213zm38.974.211c-.669 0-.77.25-.445 1.096.31.81 1.086.599 1.086-.295 0-.586-.171-.8-.64-.8zm40.32.32c.177 0 .32.145.32.321 0 .176-.143.32-.32.32a.321.321 0 0 1-.32-.32c0-.176.145-.32.32-.32zm2.213 2.112c-.185.042-.279.211-.119.47.102.165.41.3.686.3.407 0 .425-.09.103-.477-.206-.249-.484-.335-.67-.293zm-43.67 2.31c-.051-.09-.091-.063-.105.14-.02.307-.237.56-.482.56-.342 0-.39.253-.203 1.082.134.595.343 1.243.464 1.44.427.69.823.347.786-.682-.034-.924-.304-2.267-.46-2.54zm-39.076.167c.23-.23.854.173.854.55a.303.303 0 0 1-.3.303c-.378 0-.783-.624-.554-.853zm-1.375 1.171c.227 0 .226.198-.004.627-.297.557-.191.666.948.973.89.24 1.471.244 1.902.014.341-.183 1.098-.313 1.682-.29.783.033.868.082.322.186-.57.11-.66.237-.389.563.193.232.636.348.983.258.346-.091 1.055.011 1.574.226.91.377.924.417.435 1.162-.464.709-.461.758.016.574.886-.34.58.233-.812 1.518-.81.747-1.14 1.23-.84 1.23.271 0 .662.203.867.45.312.376.2.415-.682.236-.91-.184-1.191-.072-2.066.83-.84.867-.91 1.045-.418 1.045.887 0 1.065.563.324 1.025-.903.564-.819 1.004.147.762.862-.216 1.138.342.324.654-.385.148-.34.293.23.754.388.314.874.506 1.082.426a.508.508 0 0 1 .59.197c.116.188.476.342.799.342.722 0 1.15.97.586 1.328-.715.454-1.48.293-1.686-.353-.196-.618-.204-.618-.822 0-.343.343-.623.77-.623.945 0 .176-.18.327-.4.336-.22.01-1.12.058-2 .11-.88.05-1.78-.046-2-.215-.266-.206-.4-.19-.4.048 0 .198-.251.348-.56.334-.832-.037-1.386-.315-1.206-.605.087-.141-.06-.437-.327-.658-.42-.349-.347-.487.536-1.024.703-.428 1.33-.56 2.023-.43.647.122 1.227.02 1.629-.285.343-.26.841-.472 1.105-.472.39 0 .374.08-.076.422-.305.231-.477.5-.383.593.234.234-1.7.885-2.629.885-.413 0-.751.144-.751.32 0 .405-.053.409 2.1-.152 1.24-.323 1.995-.374 2.394-.16.765.41.843.398 1.058-.164.1-.262.032-.442-.154-.4-.349.078-.744-.466-1.045-1.442-.145-.47-.298-.5-.963-.197-.463.211-1.03.249-1.37.094-.723-.33-2.343-.4-2.153-.094.077.124-.278.433-.787.687l-.926.461-.412-1.316c-.227-.724-.38-1.62-.34-1.99.052-.49-.21-.791-.951-1.098-1.02-.422-1.02-.425-.35-.967.369-.299.591-.621.494-.719-.388-.388.267-2.085.865-2.242.544-.142.581-.28.282-1.068-.19-.498-.623-1.163-.963-1.48-1.177-1.097-.594-1.675 2.02-1.999 1.011-.125 1.84-.356 1.84-.511 0-.156.149-.284.331-.284zm86.57 1.635c-.08.073.015.293.321.631.389.43.646.53.729.283.07-.21-.07-.507-.311-.66-.4-.253-.658-.327-.738-.254zm-79.546 1.875c-.005-.043-.146.005-.422.11-.322.122-.717.222-.879.222-.354 0-.256.622.186 1.174.433.543.587.525.369-.045-.1-.259.064-.72.365-1.023.258-.26.386-.394.38-.438zm-7.694.332c-.186 0-.249.143-.14.319.109.176.26.32.338.32.077 0 .14-.144.14-.32 0-.176-.151-.319-.338-.319zm-.99 2.018c-.253.1-.148.18.254.195.377.014.77.242.871.506.194.505.844.67.844.215 0-.415-1.488-1.108-1.969-.916zm67.912.555c.278-.007.843.345 1.256.785 1.086 1.155.63 1.271-.66.168-.722-.618-.927-.944-.596-.953zm-68.203.306c-.186 0-.25.145-.14.32.108.177.262.32.34.32.077 0 .14-.143.14-.32 0-.175-.153-.32-.34-.32zm5.547.035c-.027.027.007.151.094.38.12.315.298.492.396.394.099-.099.002-.357-.217-.574-.158-.157-.246-.227-.273-.2zm-1.154.286c-.813 0-.878.458-.147 1.021.404.31.877.557 1.053.547.176-.01.142-.09-.078-.18-.22-.089-.4-.438-.4-.775s-.194-.613-.428-.613zm-1.399.76c-.058.025-.093.088-.093.181a.33.33 0 0 0 .32.338c.176 0 .318-.063.318-.14 0-.078-.142-.23-.318-.339-.088-.054-.169-.066-.227-.04zm-1.375.519c-.352 0-.638.144-.638.32 0 .176.286.32.638.32.352 0 .641-.144.641-.32 0-.176-.289-.32-.64-.32zm75.442.174c-.303.116-.427.43-.324.82.162.62.174.62.636-.04.533-.761.414-1.059-.312-.78zm-67.961.918c.063-.063.147.101.3.443.25.557.216.845-.142 1.203-.415.415-.453.329-.328-.732.066-.562.107-.851.17-.914zm-6.022.508c-.077 0-.229.144-.338.32-.108.176-.045.32.141.32s.34-.144.34-.32c0-.176-.065-.32-.143-.32zm40.782.32a.321.321 0 0 0-.32.32c0 .176.144.32.32.32.176 0 .32-.144.32-.32a.321.321 0 0 0-.32-.32zm18.181 0c-.212 0-.188.184.065.488.222.268.472.422.552.342.222-.222-.23-.83-.617-.83zm-10.066.17c-.081.099.012.42.258.99.44 1.021 1.173 1.848 1.882 2.127.256.1.504.195.551.209.374.11-1.352-2.601-1.902-2.986-.452-.317-.708-.44-.79-.34zm-41.735.47c.166 0 .377.121.467.268.09.147-.044.266-.3.266-.257 0-.467-.12-.467-.266 0-.147.135-.268.3-.268zm-7.02.028c-.732.016-.745.04-.16.293.353.151.928.283 1.28.293.528.014.556-.037.16-.293-.264-.17-.84-.303-1.28-.293zm-1.28.293a.321.321 0 0 0-.32.32c0 .176.144.32.32.32.176 0 .32-.144.32-.32a.321.321 0 0 0-.32-.32zm65.318.011c-.723.014-1.318.1-1.318.248 0 .143.611.573 1.359.956 1.528.782 1.435.762 2.363.513.872-.234.66-1.274-.312-1.535-.517-.138-1.368-.195-2.092-.182zm-3.559.245c-.44.053-1.123.105-1.52.115-.733.017-.956.405-.423.734.163.1.388.613.504 1.139.115.526.38.958.586.96.249.004.232.094-.049.272-.305.194-.081.438.8.873l1.224.604-.9.105c-.515.061-.844.269-.772.485.072.215.56.333 1.138.273.574-.059 1.012.043 1.012.238 0 .19.207.346.459.346s.549.282.658.627c.196.618.22.616 1.61-.059 1.949-.946 2.321-2.17.662-2.17-.855 0-2.895-1.29-2.783-1.76.041-.175.349-.286.683-.245 1.106.135.325-.807-.912-1.1-.86-.203-1.175-.447-1.176-.906 0-.482-.186-.606-.8-.531zm-53.978.603c.118.035.163.11.125.223-.155.465-1.072.64-1.313.252-.102-.166.179-.37.623-.455.256-.05.447-.055.565-.02zm63.584.258c-.188.005-.343.052-.442.15-.182.183-.573.332-.869.332-.295 0-.716.218-.937.485-.221.266-.563.464-.76.441-1.08-.127-1.74.1-1.883.647-.088.337-.038.734.11.88.35.348 3.214.346 3.752-.002.228-.147.619-.19.869-.093.718.275.922-.432.267-.928-.566-.429-.561-.449.102-.459.381-.006.754.169.828.389.105.31.253.303.67-.041.43-.355.458-.537.144-.914-.44-.532-1.289-.902-1.851-.887zm-62.457.328c.147.023.3.129.498.326.283.283.514.575.514.65 0 .266-1.564.134-1.737-.146-.096-.156.022-.448.266-.65.17-.141.312-.203.459-.18zm48.193.475c-.274 0-.41.144-.3.32.108.176.332.32.497.32.166 0 .301-.144.301-.32 0-.176-.223-.32-.498-.32zm1.36.324c-.23.003-.19.13.1.316.614.398.725.398.48 0a.747.747 0 0 0-.58-.316zm16.459.021c-.58-.074-1 .046-1 .395 0 .231.514.666 1.14.965.72.343 1.118.748 1.082 1.1-.03.305-.04.662-.02.794.021.132.748.24 1.616.24 1.546 0 1.58-.02 1.553-.96-.02-.72-.18-.96-.637-.96-.335 0-1.138-.36-1.785-.8-.633-.43-1.37-.7-1.95-.774zm-25.229.452c-.914-.072-.996.01-1.184 1.181-.2 1.251-.027 1.999.4 1.735.124-.076.725.27 1.337.77 1.223.997 1.708 1.004.808.01-.313-.346-.488-.842-.388-1.1.1-.26.009-.533-.201-.608-.21-.075-.264-.266-.118-.422.151-.16.45-.031.69.297.243.332.506.444.619.262.108-.175.04-.416-.15-.534-.192-.118-.458-.507-.59-.865-.16-.43-.572-.675-1.223-.726zm30.309 1.123a.321.321 0 0 0-.32.32c0 .176.144.32.32.32.176 0 .32-.144.32-.32a.321.321 0 0 0-.32-.32zm-1.76.64c.264 0 .48.143.48.319 0 .176-.216.32-.48.32s-.48-.144-.48-.32c0-.176.216-.319.48-.319zm-93.152 1.791c-.6-.23-.566.107.082.823.666.735.729.733.529-.032-.09-.34-.365-.696-.611-.79zm98.752.448c-.528 0-.96.144-.96.32 0 .176.432.32.96.32s.96-.144.96-.32c0-.176-.432-.32-.96-.32zm-80.645.017c.185-.024.324.112.324.422 0 .264.505.52 1.262.64 1.003.161 1.25.333 1.21.842-.061.82-.604.82-1.116 0-.468-.75-1.356-.854-1.356-.16 0 .54-.275.6-.906.2-.465-.295-.467-.547-.01-1.4.178-.334.407-.52.592-.544zm38.883.033c-.159-.106-.194.1-.049.655.101.386.047.87-.121 1.072-.2.241-.125.733.22 1.426.495.99.555 1.02.96.466.562-.769.55-.902-.215-2.402-.354-.693-.636-1.11-.795-1.217zm35.826.403c-.319.027-.62.102-.86.232-.398.216-1.14.363-1.648.326-.508-.037-1.227.123-1.6.356-.434.271-1.536.4-3.076.36-1.32-.036-2.22.005-2 .09.22.087.4.303.4.483s-.235.239-.52.13c-.338-.13-.847.141-1.448.77-.774.81-1.035.916-1.566.632-.86-.46-1.266-.143-1.266.988 0 .623-.163.941-.48.941-.264 0-.479.153-.479.34 0 .187-.253.308-.56.27-.309-.04-1.243.112-2.077.336-1.368.367-1.499.483-1.326 1.171.116.46.052.762-.162.762-.195 0-.355.213-.355.473s-.416.685-.922.947c-.507.262-1.006.698-1.11.969-.271.707-.85.606-.85-.149 0-.677-.31-.817-.814-.367-.436.39-3.045.053-2.992-.387.024-.2.027-.984.006-1.738-.035-1.252-.093-1.341-.658-1.039-.827.443-.98.42-.98-.148 0-.544-.503-.644-.801-.16-.11.176-.477.32-.819.32-.445 0-.62.221-.62.781 0 .43-.17.885-.376 1.012-.248.153-.308.06-.18-.276.23-.596-1.092-2.158-1.826-2.158-.27 0-.673.289-.892.64-.22.353-.573.64-.785.64-.37 0-1.135 1.13-1.57 2.32-.114.308-.312.56-.44.56-.416 0-1.612 1.183-1.612 1.594 0 .22.54.893 1.198 1.496.947.868 1.101 1.155.742 1.377-.32.197-.438.836-.402 2.147.06 2.201-.137 2.986-.749 2.986-.597 0-1.26 1.258-.869 1.648.185.185.829.179 1.692-.015.766-.172 1.509-.242 1.65-.154.412.254.298.97-.223 1.402-.657.545-.614 1.6.065 1.6.377 0 .441.101.21.332-.461.461-3.355-.201-3.874-.887-.227-.3-.4-.363-.4-.147 0 .534-2.259.467-2.99-.088-.326-.246-.783-.374-1.016-.285-.234.09-.727.002-1.096-.195-.37-.198-.848-.246-1.065-.106-.216.14-2.15.275-4.296.3-2.148.024-4.667.233-5.6.464-.933.231-1.858.39-2.055.352-.196-.038-.555.185-.799.496-.402.512-.39.524.118.125.671-.527.76.032.093.586-.255.212-.7 1.202-.988 2.199-.288.997-.87 2.272-1.295 2.832-.424.56-.771 1.136-.773 1.28-.002.143-.507.75-1.121 1.347-.896.87-1.118 1.33-1.118 2.32 0 1.26.414 1.647.77.721.14-.366.427-.457.994-.314.565.141.797.07.797-.249 0-.246.52-.843 1.154-1.328l1.156-.88-.216.982c-.12.545-.06 1.276.132 1.637.258.48.246.816-.044 1.28-.34.543-.273.742.476 1.436.479.444 1.074.729 1.322.633.266-.102.61.135.836.572.212.41.69 1.086 1.065 1.502l.68.756-.99-.21c-.692-.148-1.108-.07-1.384.263-.33.399-.184.583.909 1.14.717.366 1.304.803 1.304.971 0 .168.452.539 1.004.825.825.426 1.154.451 1.84.134.46-.212 1.466-.578 2.234-.812l1.397-.424-.19 1.191c-.187 1.174-.175 1.19.842 1.155.568-.02 1.353-.237 1.744-.483.57-.358.793-.368 1.114-.047.756.757-.13 1.504-1.783 1.504-1.522 0-1.642.065-1.237.672.695 1.041 2.518 1.175 4.194.309.532-.276 1.244-.502 1.578-.502.396 0 .803-.434 1.172-1.252.64-1.422 1.745-1.955 2.003-.967.09.34.435.62.766.62.481 0 .602.237.602 1.177 0 1.782.635 3.231 1.511 3.451.417.105.888.11 1.047.012.16-.098.452.126.65.498.343.64.395.645.965.129.569-.515 1.64-.457 1.551.084a3.197 3.197 0 0 0-.002.648c.07.74.663.408 1.432-.8.669-1.053.708-1.277.324-1.83-.583-.84-.555-1.914.063-2.426.275-.23.723-.845.994-1.37.27-.524.757-1.235 1.078-1.58.321-.344.68-1.2.799-1.9.175-1.036.403-1.35 1.222-1.686 2.035-.831 2.386-.867 2.547-.261.13.49.186.465.389-.17.13-.41.578-.875.994-1.033.416-.159.756-.502.756-.762 0-.68 1.475-2.758 1.766-2.488.133.124.175.01.093-.254-.082-.264-.459-.525-.838-.58-.378-.056-.977-.468-1.33-.916-.459-.584-.8-.747-1.205-.575-1.316.56-1.685.406-1.685-.703 0-1.19.42-1.344 1.533-.564.684.48.778.437 2.176-.961.803-.804 1.34-1.476 1.195-1.494-.146-.019-.66-.008-1.145.023-.74.049-.88-.068-.88-.736 0-.498.374-1.11.998-1.635 1.119-.942 2.61-.965 4.345-.068.528.272 1.267.415 1.645.316.496-.13.946.096 1.619.816 1.126 1.206 1.73 1.26 2.215.198.29-.635.6-.801 1.502-.801.625 0 1.62.202 2.21.45 1.005.419 1.204.387 3.026-.481 1.073-.511 2.246-.928 2.606-.928.36 0 .735-.253.834-.56.378-1.184.868-1.973 1.126-1.813.148.091.84-.292 1.536-.852 1.51-1.214 1.878-2.432 1.164-3.863-.63-1.264-.7-3.253-.088-2.514.218.264.681.64 1.03.834.347.195.704.813.792 1.373.088.561.268 1.013.4 1.006.132-.007.395-.011.584-.011.203 0 .304-.496.245-1.202-.096-1.141-.055-1.199.855-1.199.791 0 .94-.116.863-.68-.055-.401.123-.765.434-.884.365-.14.47-.429.342-.94-.183-.727.259-1.604 1.467-2.916.314-.341.57-.81.57-1.04 0-.232.135-.42.299-.42.49 0 .721-1.209.359-1.885-.186-.347-.624-.723-.977-.834-.653-.208-.88-1.254-.343-1.586.163-.102.257-.568.207-1.036-.091-.854-1.202-1.578-1.828-1.191-.168.104-.505.022-.75-.182-.245-.203-.97-.419-1.61-.478-1.383-.129-1.752-.407-1.107-.834.364-.241.288-.3-.33-.254-2.475.182-2.942-.359-1.04-1.203.857-.38 1.043-.571.651-.666-.302-.073-.778-.006-1.057.15-.773.433-2.348.086-2.554-.562-.179-.562-1.3-.908-2.256-.826zm9.955 1.148c-.078 0-.231.144-.34.32-.109.176-.044.319.143.319.186 0 .338-.143.338-.319 0-.176-.063-.32-.141-.32zm-83.389.168c.177.04.33.161.33.33 0 .078-.225.14-.5.14-.274 0-.407-.145-.296-.323.09-.148.29-.188.466-.147zm81.272.47c-.187 0-.252.145-.143.321.109.176.263.32.34.32.078 0 .14-.144.14-.32a.33.33 0 0 0-.337-.32zm-100.367 1.08c-.058.026-.094.09-.094.182 0 .187.142.34.318.34.176 0 .32-.065.32-.142 0-.078-.144-.23-.32-.338-.088-.055-.166-.067-.224-.041zm18.855 2.163c.175.032.186.123.086.285-.195.316-.031.368.697.223.718-.144 1.062-.039 1.395.424.29.403.518.492.662.26.308-.5.93-.035.93.695 0 .778-1.163 1.448-1.717.988-.218-.18-.728-.243-1.133-.137-.414.109-.836.03-.965-.178-.17-.275-.487-.278-1.246-.013-1.054.367-1.381.931-.539.931.593 0 .61.341.055 1.1-.352.48-.545.518-1.116.213-.576-.309-.782-.263-1.246.28-.305.356-.697.648-.869.648-.183 0-.167-.145.035-.348.488-.488.134-1.572-.513-1.572-.297 0-.71-.174-.922-.385-.299-.299-.385-.216-.385.373 0 .417.095.663.211.547.278-.278 1.07.392 1.07.906 0 .436-1.093.735-2 .547-.308-.064-.56-.389-.56-.723 0-.444.15-.55.56-.396.485.182.503.139.133-.317-.235-.289-.353-.646-.262-.794.092-.149.044-.466-.105-.707-.372-.602.583-2.019 1.201-1.782.26.1.644.04.852-.133.208-.172 1.019-.39 1.8-.484.782-.094 2.054-.263 2.827-.375.551-.08.89-.108 1.064-.076zm5.66.28c.16 0 .215.286.123.638-.092.352-.31.64-.484.64s-.23-.227-.123-.505c.107-.279.193-.567.193-.64 0-.075.132-.134.291-.134zm3.91.697a.54.54 0 0 1 .262.232c.155.25.437.327.672.182.264-.163.324-.122.176.119-.274.443-.517.455-1.14.06-.26-.163-.36-.408-.223-.545.068-.068.16-.082.253-.048zm-1.072.084c.128.128-.128.502-.568.832-.44.329-1.183.892-1.65 1.251-1.362 1.047-1.771.757-.51-.36.545-.484.584-.596.16-.462-.65.205-.7-.072-.149-.797.26-.34.604-.434 1.03-.279.352.128.822.088 1.047-.092.224-.18.512-.222.64-.093zm-6.736.078a.92.92 0 0 0-.533.002c-.873.228-.84.664.06.808.9.144 1.004.075.78-.512a.495.495 0 0 0-.307-.298zm8.068 1.379c.187 0 .34.144.34.32 0 .176-.063.32-.14.32-.078 0-.232-.144-.34-.32-.11-.176-.046-.32.14-.32zm-14.293.078c-.077.018-.088.177-.088.49 0 .437.249.716.721.806.396.077.827.158.959.182.132.024.24-.1.24-.275 0-.176-.169-.32-.375-.32s-.637-.239-.959-.53c-.274-.248-.42-.372-.498-.353zm57.194.242a.321.321 0 0 0-.32.32c0 .176.144.32.32.32.176 0 .32-.144.32-.32a.321.321 0 0 0-.32-.32zm-38.631.056c.042.012.113.15.23.424.41.953.372 1.663-.113 2.149-.238.238-.665.86-.947 1.382-.438.809-.517.85-.528.28-.007-.369.275-.932.627-1.25.76-.688.823-1.121.16-1.121a.479.479 0 0 1 0-.96c.264 0 .492-.252.504-.56.01-.24.024-.355.067-.344zm57.94.041c.071.004.179.065.32.182.236.196.524.26.64.145.297-.297.264-.03-.14 1.128-.348.998-.622 1.209-1.036.795-.317-.317-.259-.812.073-.607.157.097.381-.071.498-.375.116-.304.059-.604-.127-.666-.186-.062-.338-.262-.338-.445 0-.11.037-.16.11-.157zm-67.956.233c.302.026.57.162.56.39-.007.22.01.688.04 1.04.043.494.12.54.336.199.162-.257.448-.337.683-.192.307.19.262.355-.185.682-.325.237-.69.432-.81.432-.416 0-.994-.932-.786-1.268.114-.185-.015-.424-.289-.53-.274-.104-.42-.318-.322-.476.134-.217.471-.303.773-.277zm11.432.105c.058.022.093.08.093.168 0 .176-.144.41-.32.518-.176.109-.318.053-.318-.123s.142-.409.318-.518c.088-.054.169-.067.227-.045zm-15.082.08c.376-.144.475-.014.398.524-.101.709-1.222 1.246-1.222.586 0-.19.153-.344.34-.344.186 0 .259-.13.161-.287-.097-.158.048-.373.323-.479zm7.931.248c.09.004.193.058.305.17.191.192.692.348 1.111.348.472 0 .709.15.621.398-.077.22-.376.382-.664.358-.287-.024-.447.075-.357.22.09.146-.12.243-.465.217-.345-.026-.7-.33-.79-.675-.162-.615-.027-1.047.24-1.036zm-.779.053c.034.094-.106.32-.434.647-.531.531-.822.584-.822.148 0-.17.289-.462.64-.65.374-.2.582-.239.616-.145zm35.672.535c.175.13.174.652-.102 1.414-.331.917-.334 1.299-.02 1.887.225.418.585.664.835.568.33-.126.45.2.486 1.307.027.81.063 1.652.08 1.87.04.497-.956.714-1.232.267-.113-.183-.11-.838.006-1.457.137-.73.088-1.127-.139-1.127-.297 0-1.963-2.842-1.963-3.35 0-.094.2-.17.442-.17s.66-.324.925-.72c.174-.258.326-.413.452-.48.094-.051.172-.052.23-.009zm14.432.25c.264 0 .48.143.48.319 0 .176-.216.32-.48.32s-.48-.144-.48-.32c0-.176.216-.319.48-.319zm-55.784.346c.071.03.135.103.174.213.079.22.347.4.596.4.25 0 .453.145.453.32 0 .49-.83.381-1.285-.167-.223-.269-.294-.593-.156-.721.068-.064.147-.075.218-.045zm68.198.094c.058-.026.138-.016.226.039.176.109.32.262.32.34 0 .077-.144.14-.32.14a.33.33 0 0 1-.32-.338c0-.093.036-.156.094-.181zm-62.795.199c.186 0 .25.144.14.32-.108.176-.26.32-.338.32-.077 0-.14-.144-.14-.32a.33.33 0 0 1 .338-.32zm49.556.158c.198.095.344.28.344.502 0 .372-.343.378-.914.016-.303-.192-.327-.342-.08-.494a.682.682 0 0 1 .65-.024zm14.485.162c.366 0 .323.564-.06.801-.177.109-.32.46-.32.78 0 .743-.818 1.47-1.114.99-.269-.435-.882-.074-.715.42.068.203-.288.621-.791.93-1.485.907-1.807.756-2.196-1.032-.018-.084.124-.205.313-.268.19-.063.344.186.344.553 0 .373.205.666.468.666.288 0 .4-.186.286-.482-.134-.347-.04-.428.334-.285.367.14.466.061.34-.27-.11-.287.163-.693.706-1.049.489-.32 1.172-.846 1.518-1.168.346-.322.744-.586.887-.586zm-70.518.1c.067.015.035.137-.056.375-.114.296-.206.598-.206.672 0 .073-.216.133-.48.133-.686 0-.592-.416.207-.915.304-.19.468-.28.535-.265zm53.947.357c.255-.104.602-.118.85.035.27.167.252.304-.064.504-.573.363-.835.352-1.077-.039-.125-.203.037-.396.291-.5zm-14.476.207c.335.064.619.76.787 1.989.165 1.205.114 1.507-.262 1.507-.573 0-1.327-2.88-.875-3.343.121-.124.238-.174.35-.153zm-45.557.112c.02.064.01.206-.035.414-.11.501.024.765.457.902.337.107.529.329.428.492-.304.492.386.334.818-.187.306-.368.505-.398.838-.121.24.2.438.244.438.1 0-.521.561.363.755 1.189.157.667.065.878-.439 1.01-.647.169-.902.865-.316.865.176 0 .32.288.32.64 0 .352-.131.64-.293.64-.162 0-.522.087-.8.194-.483.185-.697-.244-.497-.994.047-.176.1-.679.117-1.119.024-.574.236-.829.752-.902.396-.057.72-.22.72-.364 0-.388-1.231-.637-1.353-.273-.165.495-2.512-.075-2.728-.662-.105-.286-.342-.62-.525-.742-.2-.134-.081-.317.296-.457.347-.129.752-.388.899-.577.078-.1.128-.113.148-.048zm6.463.185a.32.32 0 1 1 .001.64.32.32 0 0 1 0-.64zm3.756.04c.062-.003.086.07.086.216 0 .211.214.383.478.383s.48.144.48.32c0 .401-.648.405-1.276.008-.38-.24-.397-.383-.08-.699.15-.15.25-.226.312-.229zm-1.855.019c.24-.08.36.041.28.281a1 1 0 0 1-.56.559c-.24.08-.36-.04-.28-.28a1 1 0 0 1 .56-.56zm-7 .26c.186 0 .249.144.14.32-.109.176-.262.32-.34.32-.077 0-.14-.144-.14-.32 0-.176.153-.32.34-.32zm12.761 0c.166 0 .39.144.498.32.109.176-.026.32-.3.32-.275 0-.499-.144-.499-.32 0-.176.136-.32.301-.32zm1.62.228c.351-.092.629-.073.617.043-.013.116-.125.465-.249.777-.177.45-.306.486-.617.176-.553-.553-.49-.803.248-.996zm37.154.092c.46.12.59.7.13 1.588-.296.573-.416 1.293-.296 1.77.125.5.065.802-.16.802-.22 0-.287.296-.17.76.153.612-.125 1.075-1.434 2.385-.894.893-1.625 1.909-1.625 2.257 0 .349-.419.933-.93 1.297-1.155.823-1.13.823-1.742-.11-.489-.745-.46-.81.877-2.042.76-.7 1.673-1.366 2.027-1.479.481-.152.747-.692 1.05-2.117.222-1.051.529-1.91.68-1.91.153 0 .278-.216.278-.48s-.128-.48-.285-.48c-.669 0-.64-1.047.045-1.618.364-.304.702-.494.992-.584.218-.067.409-.08.563-.04zm-35.616.031c.052.02.034.209-.01.584-.049.426-.27.834-.49.906-.544.18-.503-.308.09-1.06.237-.301.359-.45.41-.43zm-10.888.29c.138 0 .252.288.252.64 0 .352-.2.638-.446.638-.275 0-.371-.193-.252-.505.107-.279.196-.566.196-.64 0-.073.111-.134.25-.134zm6.1.19c.309-.19.689.086.689.502 0 .147-.135.268-.301.268-.434 0-.72-.565-.389-.77zm-26.21.13c-.186 0-.249.144-.14.32.109.176.26.32.338.32.077 0 .14-.144.14-.32a.33.33 0 0 0-.338-.32zm22.094 1.122c.179-.11.324.025.324.3 0 .561-.19.642-.464.199-.102-.164-.039-.388.14-.499zm1.66.516c.254-.058.645.104 1.188.484.575.404.803.431.992.125.152-.246.32-.275.441-.078.282.456-.502 1.01-1.34.948-.436-.033-.65-.215-.554-.467.087-.226.025-.41-.137-.41s-.44.252-.619.56c-.279.479-.328.432-.336-.32-.006-.504.111-.783.365-.842zm-4.992.088c.085-.013.137.025.137.12 0 .178-.217.408-.48.509-.265.101-.48.135-.48.074 0-.06.215-.29.48-.51.138-.114.258-.18.343-.193zm1.078.193a.33.33 0 0 1 .338.32c0 .177-.063.321-.14.321-.078 0-.23-.144-.338-.32-.11-.176-.046-.32.14-.32zm-.965 1.166c.316.027.64.312.778.836.147.564.25.6.677.244.278-.23.609-.313.735-.187s-.058.395-.408.598c-.644.37-2.374.521-2.559.222-.055-.089-.028-.541.06-1.004.097-.505.402-.735.717-.709zm-20.431.48c-.188-.022-.357.08-.664.286-.416.278-.397.385.14.795.725.553.821.562 1.457.16.41-.26.388-.37-.16-.783-.381-.288-.586-.435-.773-.457zm24.047.067c.09-.075.335-.027.808.086 1.152.276 1.28.414.711.774-.696.44-1.178.37-1.396-.2-.148-.385-.214-.584-.123-.66zm44.709.528c.186 0 .34.144.34.32 0 .176-.064.32-.141.32-.078 0-.231-.144-.34-.32-.109-.176-.046-.32.14-.32zm-13.93.664c-.252-.073-.451.01-.451.295 0 .176.22.32.49.32s.575.222.68.494c.104.272.253.43.332.352.078-.079-.047-.446-.278-.815-.216-.346-.52-.574-.773-.646zm16.258 2.68c.255-.077.565-.054 1.037.034 1.317.247 1.364.499.478 2.5-.36.815-.683 1.476-.718 1.47a27.863 27.863 0 0 1-1.106-.466c-.823-.358-1.037-.638-1.03-1.347.007-.493.288-1.228.626-1.633.255-.307.457-.482.713-.559zm-28.229 1.296c-.176.109-.32.414-.32.678 0 .264.144.39.32.281.176-.109.32-.414.32-.678 0-.264-.144-.39-.32-.28zm65.02.553c-.234-.078-.305.067-.186.379.107.279.334.508.506.508.42 0 .158-.728-.32-.887zm-36.707 2.166c.665 0 .918.602.476 1.135-.405.488-.539.516-1.187.254-.525-.212.078-1.389.71-1.389zm37.287 0c-.176 0-.32.26-.32.576 0 .317-.172.75-.383.961-.299.299-.272.383.125.383.513 0 .898-.626.898-1.465 0-.25-.144-.455-.32-.455zm-46.738.232c.685-.179.978-.005.978.582 0 .213-.36.387-.8.387-.943 0-1.078-.733-.178-.969zm1.648 1.424c-.005-.043.128-.007.396.078.323.103.718.186.88.186.16 0 .294.144.294.32 0 .464-.427.394-1.138-.185-.285-.232-.427-.355-.432-.399zm10.787.371c.37-.055.752.23.623.616-.135.406-1.697.526-2.252.173-.254-.16-.162-.249.268-.252.36-.003.816-.163 1.011-.359a.622.622 0 0 1 .35-.178zm-70.976.854c-.176 0-.32.296-.32.658 0 .362.144.57.32.461.176-.109.32-.405.32-.658 0-.254-.144-.461-.32-.461zm62.33.076c.046.036.062.191.064.482.003.396-.138.721-.314.721-.401 0-.401-.338 0-.959.125-.194.203-.28.25-.244zm29.546 1.844c-.344 0-.624.969-.439 1.52.255.758.723.396.723-.561 0-.528-.128-.96-.284-.96zm12.551 1.62c-.14.025-.353.178-.635.46-.264.264-.756.478-1.095.478-.34 0-.617.145-.617.32 0 .42.133.408 1.449-.142.61-.255 1.11-.616 1.11-.8 0-.235-.07-.34-.212-.315zm-31.468 1.419c-.176.109-.32.479-.32.82 0 .342.143.621.32.621.176 0 .32-.37.32-.82 0-.465-.139-.733-.32-.621zm18.857 0-.457.8c-.252.44-.463.903-.469 1.03-.006.126.205.148.469.047.264-.102.475-.566.469-1.031zm-26.518 3.68c.166 0 .301.144.301.32 0 .176-.224.32-.498.32s-.411-.144-.303-.32c.11-.176.335-.32.5-.32zm23.8.03c-.085-.083-.402.107-.706.425-.528.55-.522.559.152.154.388-.233.637-.494.553-.578zm12.888.725c-.058-.022-.139-.009-.227.045-.176.109-.32.342-.32.518s.144.232.32.123c.176-.109.32-.342.32-.518 0-.088-.035-.146-.093-.168zm-60.305 9.545a.904.904 0 0 0-.662.662c-.074.383.041.498.371.371.723-.277.973-1.164.291-1.033zm7.613 4.74c-.712 0-.286.66.706 1.094l1.101.48c.034.015.146-.112.25-.28.186-.3-1.394-1.294-2.057-1.294zM55.332 258.49v28.479h416v-28.479h-208zm24.96 6.04v12.84h-2.253l.086-6.321.088-6.32 1.039-.1zm335.84 2.279c.177 0 .32.721.32 1.601s-.143 1.6-.32 1.6c-.175 0-.32-.72-.32-1.6 0-.88.145-1.601.32-1.601zm15.04 0c.176 0 .32.721.32 1.601s-.144 1.6-.32 1.6c-.176 0-.32-.72-.32-1.6 0-.88.144-1.601.32-1.601zm2.016 0c1.118 0 1.664.526 1.664 1.601 0 .458-.172 1.004-.383 1.215-.211.211-.789.385-1.281.385-.862 0-.897-.06-.897-1.6 0-1.539.035-1.601.897-1.601zm7.734 0c.142 0 .364.54.494 1.2l.236 1.2.39-1.12c.213-.615.508-1.12.657-1.12.15 0 .416.505.59 1.12l.317 1.12.32-1.2c.176-.66.422-1.2.549-1.2.126 0 .064.656-.14 1.459-.436 1.707-.891 1.842-1.284.382l-.28-1.04-.564 1.279c-.597 1.355-.664 1.307-1.232-.88-.172-.66-.195-1.2-.053-1.2zm4.488 0c.176 0 .32.314.32.697 0 .695 0 .695.878-.08.637-.563.725-.594.32-.112-.684.816-.702 1.217-.078 1.735.264.219.474.561.468.76-.006.198-.366-.072-.798-.6l-.786-.959v.879h-.002c0 .484-.146.88-.322.88-.176 0-.32-.719-.32-1.599s.144-1.601.32-1.601zm2.563 0 1.039.045c.752.031.84.08.32.181-.396.076-.72.335-.72.574 0 .24.324.498.72.575l.72.138-.72.043c-.483.03-.72.248-.72.662 0 .387.27.67.72.756.52.1.432.15-.32.182l-1.04.045v-1.6zm-372.844.013c.546.096 1.07.346 1.498.774.75.75.785.965.785 4.773 0 2.194.087 4.216.194 4.494.155.404-.038.506-.96.506-.86 0-1.154-.134-1.154-.53 0-.477-.054-.48-.56-.036-.976.856-1.853.95-2.676.283-.621-.503-.764-.92-.764-2.215 0-1.8.506-2.555 2.438-3.64 1.303-.733 1.739-1.636 1.062-2.198-.554-.46-1.1-.123-1.1.676 0 .497-.225.621-1.12.621-1.035 0-1.12-.074-1.12-.974 0-1.736 1.838-2.822 3.477-2.534zm16.541.006c.45 0 .915.16 1.236.48.454.454.568.454 1.215 0 .908-.635 1.67-.633 2.309.005.412.412.502 1.366.502 5.3v4.797l-1.04-.1-1.04-.1-.07-3.84-.08-4.24c-.014-.577-.866-.493-1.096.107-.107.278-.194 2.22-.194 4.318v3.814h-2.221l-.09-4.24c-.073-3.516-.172-4.24-.57-4.24-.398 0-.494.724-.568 4.24l-.09 4.24H87.637l.088-5.171.088-5.172.902-.041c.496-.022 1.01.155 1.143.392.197.353.318.341.658-.068.266-.321.703-.48 1.154-.48zm362.336.026c.738-.03 1.028.08.926.355-.082.22-.342.94-.578 1.6-.237.66-.547 1.201-.69 1.201-.143 0-.044-.523.223-1.16.634-1.517.617-1.65-.235-1.815-.503-.097-.397-.15.354-.181zm-369.623.045c2.325.262 2.454.554 2.572 5.841l.104 4.63h-.965c-.53 0-1.047-.136-1.149-.3-.107-.173-.55-.106-1.058.159-1.117.582-1.112.583-2.112-.203-.675-.532-.84-.93-.832-2 .016-1.787.51-2.577 2.338-3.737 1.19-.754 1.51-1.134 1.432-1.687-.131-.923-.97-.918-1.377.008-.238.543-.583.72-1.4.72-1.051 0-1.079-.033-.885-1.04.11-.573.586-1.38 1.058-1.795.71-.624 1.107-.728 2.274-.596zm366.633.025c1.05-.403 1.794 1.141 1.242 2.58-.196.51-1.116.689-1.512.293-.434-.434-.223-2.684.27-2.873zm-353.283.076h1.919l.16 4.145c.15 3.878.2 4.144.8 4.144.598 0 .65-.266.8-4.144l.16-4.145h1.92l.086 5.934c.082 5.607.051 5.978-.582 6.783-.601.765-.88.852-2.726.852h-2.057v-.96c0-.879.092-.96 1.094-.96 1.573 0 2.105-.287 2.105-1.135 0-.695-.057-.718-.803-.33-.44.229-1.16.347-1.597.263-1.16-.221-1.495-1.782-1.38-6.462zm341.582.016c.489.554 1.283 2.994.974 2.994-.174 0-.316-.217-.316-.48 0-.3-.303-.481-.801-.481-.498 0-.8.182-.8.48 0 .264-.143.481-.32.481-.423 0-.423-.006.35-1.754.369-.833.78-1.39.913-1.24zm-5.858.17c-.42-.083-.525.165-.525 1.224 0 1.06.105 1.306.525 1.223.827-.163 1.298-1.118.879-1.783-.194-.308-.59-.607-.879-.664zm17.928.03c-.426.141-.669 1.338-.408 2.017.453 1.182 1.39-.22.99-1.48-.115-.363-.377-.604-.582-.536zm-15.572.233c.176 0 .32.145.32.32 0 .177-.144.321-.32.321a.321.321 0 0 1-.32-.32c0-.176.144-.32.32-.32zm-10.836.063c.773-.09.855.012.968 1.197.068.712.016 1.584-.115 1.938-.147.397-.517.635-.969.623l-.728-.022.719-.289c.396-.16.72-.428.72-.598 0-.169-.324-.353-.72-.41-.59-.083-.72-.305-.72-1.222 0-.973.111-1.132.845-1.217zm-2.606.039c.67.05.817.241.897 1.187.085 1.011.007 1.137-.733 1.198-.476.04-.9-.126-1.002-.393-.227-.591.106-1.133.698-1.133.648 0 .576-.56-.098-.756-.324-.093-.224-.137.238-.103zm-5.119.008 1.68.025 1.68.026.05 1.28.049 1.28-.209-1.12c-.13-.69-.394-1.12-.69-1.12-.297 0-.554.425-.677 1.12l-.2 1.12-.04-1.021c-.024-.562-.203-1.121-.399-1.242-.488-.302-.966.507-.816 1.382.068.396-.001.721-.153.721-.151 0-.275-.55-.275-1.224zm10.555.05c.503 0 .836.207.904.561.08.42-.105.559-.742.559-1.047 0-.917.691.187 1 .641.179.664.222.135.244-1.033.044-1.499-.44-1.385-1.437.085-.744.261-.926.9-.926zm11.416.022c-.07-.037-.147.03-.25.192-.15.235-.273.536-.276.668-.003.132.198.238.446.238.298 0 .39-.224.275-.666-.066-.254-.126-.395-.195-.432zm-11.41.17c-.118 0-.236.075-.385.225-.299.298-.213.385.385.385.597 0 .681-.087.382-.385-.149-.15-.265-.225-.382-.225zm-2.801.049c-.49-.164-.859.696-.594 1.387.282.733.994.369.994-.508 0-.41-.18-.806-.4-.879zm-2.774.879a.508.508 0 0 0-.505.508c0 .278.17.448.378.379.594-.198.692-.887.127-.887zm13.575.64c.176 0 .32.145.32.32 0 .177-.144.321-.32.321a.321.321 0 0 1-.32-.32c0-.176.144-.32.32-.32zm-351.237 3.2c-.593 0-1.404 1.15-1.404 1.992 0 .784.115.916.72.83.6-.085.737-.33.819-1.46.054-.749-.006-1.362-.135-1.362zm-9.357.062c-.144-.048-.416.175-.906.635-.724.68-.955 1.543-.528 1.97.733.733 1.497-.061 1.565-1.624.026-.616.012-.933-.131-.98zm355.953 1.219c.373 0 .48.427.48 1.92 0 1.493-.107 1.92-.48 1.92s-.48-.427-.48-1.92c0-1.493.107-1.92.48-1.92zm-18.516.959c.24 0 .436.289.436.64 0 .353.144.641.32.641.176 0 .32-.288.32-.64 0-.947.858-.777 1.213.24l.309.879.232-.88c.241-.904.805-1.217.805-.446 0 .873-.715 2.447-1.111 2.447-.225 0-.517-.47-.65-1.041l-.243-1.04-.201.956c-.324 1.55-1.146 1.387-1.533-.303-.269-1.175-.249-1.453.103-1.453zm4.48 0c.24 0 .436.289.436.64 0 .353.145.641.32.641.177 0 .321-.299.321-.664 0-.943 1.035-.667 1.299.346l.209.797.24-.88c.192-.7.428-.88 1.166-.88.712 0 .926.148.926.64 0 .353.142.641.318.641.176 0 .32-.299.32-.664 0-.943 1.037-.667 1.301.346l.207.799.242-.881c.248-.906.811-1.216.811-.447 0 .873-.715 2.447-1.111 2.447-.225 0-.517-.47-.65-1.041l-.245-1.04-.199.958c-.315 1.506-1.21 1.421-1.473-.139-.277-1.64-.596-1.644-1.084-.017-.463 1.547-1.15 1.656-1.48.238l-.242-1.04-.202.956c-.323 1.55-1.146 1.387-1.533-.303-.269-1.175-.249-1.453.104-1.453zm11.458 0c.935 0 1.19.352 1.254 1.725h.002c.045.962-.027 1.036-1.018 1.064-1.622.046-1.9-1.618-.32-1.92l.74-.14-.72-.045c-.977-.06-.92-.684.062-.684zm4.828 0c.889 0 1.414.902 1.193 2.05-.092.48-.398.69-1.08.739-1.538.11-1.74-1.63-.222-1.92l.74-.14-.72-.045c-.995-.06-.913-.684.089-.684zm7.346 0c.228 0 .524.397.658.88l.244.88.332-.88c.183-.483.532-.88.773-.88.489 0 .378.524-.597 2.8-.324.757-.801 1.36-1.074 1.36-.589 0-.658-.53-.094-.719.307-.102.277-.51-.131-1.787-.415-1.299-.438-1.654-.111-1.654zm5.642.012c.329-.022.602.063.602.271 0 .156-.289.36-.64.451-.353.092-.64.41-.64.707s.287.615.64.707c.351.092.64.294.64.45 0 .3-.853.34-1.52.07-.51-.206-.52-1.778-.015-2.283.222-.223.605-.352.933-.373zm4.442.064 1.931.043c2.106.047 2.535.363 2.543 1.881.003.571-.163.88-.474.88-.338 0-.48-.34-.48-1.146 0-1.445-.756-1.336-.901.131-.055.559-.225 1.016-.38 1.016-.153 0-.323-.457-.378-1.016-.145-1.467-.9-1.576-.9-.13 0 .805-.143 1.146-.48 1.146-.355 0-.481-.37-.481-1.402zm-1.627.006c.8.266 1.335 1.514.652 2.336-.211.254-.636.463-.945.463-1.291 0-1.703-1.97-.56-2.686a.98.98 0 0 1 .853-.113zm-13.733.014h1.934c2.107-.001 2.478.283 2.47 1.904-.001.532-.179.881-.445.881-.291 0-.44-.387-.44-1.146 0-1.446-.755-1.337-.9.13-.055.559-.225 1.016-.378 1.016-.154 0-.326-.457-.381-1.016-.145-1.467-.9-1.576-.9-.13 0 .805-.142 1.146-.48 1.146-.352 0-.48-.368-.48-1.393zm13.42.613c-.382.012-.713.508-.513 1.03.105.275.346.501.533.501.518 0 .773-.955.363-1.365a.514.514 0 0 0-.383-.166zm-20.19.654c-.196.029-.418.202-.517.498-.07.21.102.38.381.38a.507.507 0 0 0 .506-.506c0-.283-.172-.4-.37-.372zm4.802 0c-.197.029-.42.202-.518.498-.07.21.1.38.379.38a.508.508 0 0 0 .508-.506c0-.283-.173-.4-.37-.372zm-7.239.864c.132-.023.252.055.272.246.013.127-.15.289-.362.36-.21.07-.326-.046-.255-.257.068-.206.213-.327.345-.35zm17.6 0c.132-.023.252.055.271.246.014.127-.148.289-.359.36-.211.07-.328-.046-.258-.257.069-.206.214-.327.346-.35z" clip-path="url(#a)" style="fill:#000;stroke-width:.32" transform="rotate(-90 105.085 157.136)"/></svg>