<?xml version="1.0" encoding="UTF-8"?>
<svg id="a" data-name="Layer 1" xmlns="http://www.w3.org/2000/svg" viewBox="0 0 2520 675">
  <g id="b" data-name="g1429">
    <path id="c" data-name="path1174" d="M576.85,571.86c-52.69,28.43-156.28,31.43-236,31.43s-195.14-9.51-224.17-30.5c16.4-24.55,100.36-53.73,224.17-53.73s208.04,29.95,236,52.8Z" style="fill: #fff; fill-rule: evenodd; stroke-width: 0px;"/>
    <g id="d" data-name="g1457">
      <path id="e" data-name="path1032" d="M347.36,479.74l-9.8-55.5-19.91,6.26,6.1-19.96-18.5-9.65,18.43-9.8-6.26-19.91,19.96,6.1,9.65-57.66,9.8,57.59,19.91-6.26-6.1,19.96,18.5,9.65-18.43,9.8,6.26,19.91-19.96-6.1-9.65,55.57Z" style="fill: #fff; stroke-width: 0px;"/>
      <path id="f" data-name="path1285" d="M525.76,414.57c-1.41,3.74-10.37,15.4-12.45,17.97h0c-23.28,3.14-40.72-7.52-46.13-10.23-16.45,24.9-32.31,29.8-48.06,30.8-10.28,8.53-17.86,17.37-15.81,27.32,64.7,2.76,123.51,17.73,176.51,44.77-11.07-26.61-4.4-52.67-1.47-81.45,1.25-12.2,14.51-19.8,14.4-32.58.24-2.7,5.05-27.91,4.95-30.61-18.41,3.45-47.08,21.78-71.96,34Z" style="fill: #fff; stroke-width: 0px;"/>
      <path id="g" data-name="path1075" d="M473.13,274.03c-15.58,14.55-15.71,27.56-32.86,46.5-2.16,3.65-3.03,9.93-4.02,17.62l-9.37,96.02c19.56,2.36,28.5-33.03,38.64-46.29,11.96-25.03,9.36-76.07,7.62-113.85h0Z" style="fill: #fff; stroke-width: 0px;"/>
      <path id="h" data-name="path1077" d="M455.48,211.65c5.65,5.25,16.94,26.95,7.76,42.39-11.49,13.92-24.34,39.88-34.77,60.9-10.92-15.38-3.8-34.64,8.46-54.28,9.71-15.55,14.64-33.72,18.55-49.01h0Z" style="fill: #fff; stroke-width: 0px;"/>
      <path id="i" data-name="path1079" d="M438.01,158.26c-.68,1.02-.89,2.17-1.38,3.27-7.73,17.04-7.24,32.72-15.96,47.52-7.18,12.2-13.95,19.33-16.68,37.18-2.51,13.26-.39,31.07,5.93,35.76-1.47-18.59,11.7-36.9,21.73-50.18,13.16-24.2,20.64-56.7,11.21-69.6-1.24-1.7-1.84-2.82-4.84-3.96h0Z" style="fill: #fff; stroke-width: 0px;"/>
      <path id="j" data-name="path1081" d="M400.53,97.9s2.28,27.65.31,41.32c-3.51,24.39-21.42,71.36-21.42,71.36-4.26,18.24-.4,29.87,10.25,35.95l1.55-19.32c6.25-31.23,31.96-51.09,34.77-86.66-.6-14.6-9.42-28.45-17.08-43.73-4.18-5.23-6.68-3.68-8.38,1.07h0Z" style="fill: #fff; stroke-width: 0px;"/>
      <path id="k" data-name="path1083" d="M354.89,35.39c-1.6,12.24-3.45,24.6-2.86,37.03,1.35,28.62,5.7,57.62,2.62,91.47-1.46,16.02,1.6,32.08,1.79,48.03.16,4.66,2.35,6.63,4.35,8.85,2.27-13.84,2.64-27.36,8.69-41.85,7.8-12.67,10.72-21.97,14.59-31.93,4.23-55.82-2.04-80.67-11.8-95.24l-3.1.54c-11.59-15.67-10.03-12.01-14.28-16.9h0Z" style="fill: #fff; stroke-width: 0px;"/>
      <path id="l" data-name="path1085" d="M361.19,251l2.2,69.96c48,15.39,41.14,114.15,11.29,147.75-1.35,6.16,1.84,8.11,9.14,6.04,20.68-17.98,35.98-46.43,33.87-108.72-2.4-26.73-7.59-69.72-56.51-115.03h0Z" style="fill: #fff; stroke-width: 0px;"/>
      <path id="m" data-name="path1274" d="M615.09,327.3c1.3,7.08-4.46,37.1-22.03,45.51-18.52,6.02-45.93,21.4-68.15,33.82.85-18.02,21.84-36.83,44.69-47.23,18.09-8.24,32.39-21.28,45.49-32.09Z" style="fill: #fff; stroke-width: 0px;"/>
      <path id="n" data-name="path1276" d="M620.61,294.17c-1.19.58-2.39,1.2-3.12,2.2-11.76,16.18-29.33,20.36-45.56,29.26-13.37,7.33-19.6,7.21-32.48,21.36-13.02,10.39-18.66,34.21-15.99,41.26,9.7-16.64,31.83-33.49,48.29-40.5,25.59-15.02,51.2-32.8,50.69-48.05-.07-2,.07-3.23-1.83-5.54h0Z" style="fill: #fff; stroke-width: 0px;"/>
      <path id="o" data-name="path1278" d="M627.99,235.62s-15.94,24.05-26.39,34.46c-18.64,18.56-63.81,48.94-63.81,48.94-15.3,13.1-19.59,24.61-14.68,34.78l13.75-15.29c25.33-22.92,59.48-27.03,84.76-55.21,8.92-12.42,10.53-28.16,14.02-44.53-.1-6.35-3.17-6.28-7.65-3.15h0Z" style="fill: #fff; stroke-width: 0px;"/>
      <path id="p" data-name="path1280" d="M634.15,159.76c-8.78,9.71-17.85,19.4-24.87,30.26-16.19,24.99-30.05,51.67-53.18,79.12-10.94,12.99-18.08,28.06-27.57,41.73-2.69,4.05-2.01,6.71-1.66,9.51,10.32-10.77,20.34-19.16,34.28-28.77,14.32-7.27,33.47-26.82,45.6-43.27,15-20.34,31.79-49.94,32.3-66.77l.12-6.52c-.38-18.6-3.01-15-5.02-15.29h0Z" style="fill: #fff; stroke-width: 0px;"/>
      <path id="q" data-name="path1383" d="M168.96,414.57c1.41,3.74,10.37,15.4,12.45,17.97h0c23.28,3.14,40.72-7.52,46.13-10.23,16.45,24.9,32.31,29.8,48.06,30.8,10.28,8.53,17.86,17.37,15.81,27.32-64.7,2.76-123.51,17.73-176.51,44.77,11.07-26.61,4.4-52.67,1.47-81.45-1.25-12.2-14.51-19.8-14.4-32.58-.24-2.7-5.05-27.91-4.95-30.61,18.41,3.45,47.08,21.78,71.96,34Z" style="fill: #fff; stroke-width: 0px;"/>
      <path id="r" data-name="path1385" d="M221.58,274.03c15.58,14.55,15.71,27.56,32.86,46.5,2.16,3.65,3.03,9.93,4.02,17.62l9.37,96.02c-19.56,2.36-28.5-33.03-38.64-46.29-11.96-25.03-9.36-76.07-7.62-113.85h0Z" style="fill: #fff; stroke-width: 0px;"/>
      <path id="s" data-name="path1387" d="M239.24,211.65c-5.65,5.25-16.94,26.95-7.76,42.39,11.49,13.92,24.34,39.88,34.77,60.9,10.92-15.38,3.8-34.64-8.46-54.28-9.71-15.55-14.64-33.72-18.55-49.01h0Z" style="fill: #fff; stroke-width: 0px;"/>
      <path id="t" data-name="path1389" d="M256.71,158.26c.68,1.02.89,2.17,1.38,3.27,7.73,17.04,7.24,32.72,15.96,47.52,7.18,12.2,13.95,19.33,16.68,37.18,2.51,13.26.39,31.07-5.93,35.76,1.47-18.59-11.7-36.9-21.73-50.18-13.16-24.2-20.64-56.7-11.21-69.6,1.24-1.7,1.84-2.82,4.84-3.96h0Z" style="fill: #fff; stroke-width: 0px;"/>
      <path id="u" data-name="path1391" d="M294.19,97.9s-2.28,27.65-.31,41.32c3.51,24.39,21.42,71.36,21.42,71.36,4.26,18.24.4,29.87-10.25,35.95l-1.55-19.32c-6.25-31.23-31.96-51.09-34.77-86.66.6-14.6,9.42-28.45,17.08-43.73,4.18-5.23,6.68-3.68,8.38,1.07h0Z" style="fill: #fff; stroke-width: 0px;"/>
      <path id="v" data-name="path1393" d="M339.83,35.39c1.6,12.24,3.45,24.6,2.86,37.03-1.35,28.62-5.7,57.62-2.62,91.47,1.46,16.02-1.6,32.08-1.79,48.03-.16,4.66-2.35,6.63-4.35,8.85-2.27-13.84-2.64-27.36-8.69-41.85-7.8-12.67-10.72-21.97-14.59-31.93-4.23-55.82,2.04-80.67,11.8-95.24l3.1.54c11.59-15.67,10.03-12.01,14.28-16.9h0Z" style="fill: #fff; stroke-width: 0px;"/>
      <path id="w" data-name="path1395" d="M333.53,251l-2.2,69.96c-48,15.39-41.14,114.15-11.29,147.75,1.35,6.16-1.84,8.11-9.14,6.04-20.68-17.98-35.98-46.43-33.87-108.72,2.4-26.73,7.59-69.72,56.51-115.03h0Z" style="fill: #fff; stroke-width: 0px;"/>
      <path id="x" data-name="path1397" d="M79.63,327.3c-1.3,7.08,4.46,37.1,22.03,45.51,18.52,6.02,45.93,21.4,68.15,33.82-.85-18.02-21.84-36.83-44.69-47.23-18.09-8.24-32.39-21.28-45.49-32.09h0Z" style="fill: #fff; stroke-width: 0px;"/>
      <path id="y" data-name="path1399" d="M74.11,294.17c1.19.58,2.39,1.2,3.12,2.2,11.76,16.18,29.33,20.36,45.56,29.26,13.37,7.33,19.6,7.21,32.48,21.36,13.02,10.39,18.66,34.21,15.99,41.26-9.7-16.64-31.83-33.49-48.29-40.5-25.59-15.02-51.2-32.8-50.69-48.05.07-2-.07-3.23,1.83-5.54h0Z" style="fill: #fff; stroke-width: 0px;"/>
      <path id="z" data-name="path1401" d="M66.73,235.62s15.94,24.05,26.39,34.46c18.64,18.56,63.81,48.94,63.81,48.94,15.3,13.1,19.59,24.61,14.68,34.78l-13.75-15.29c-25.33-22.92-59.48-27.03-84.76-55.21-8.92-12.42-10.53-28.16-14.02-44.53.1-6.35,3.17-6.28,7.65-3.15h0Z" style="fill: #fff; stroke-width: 0px;"/>
      <path id="aa" data-name="path1403" d="M60.57,159.76c8.78,9.71,17.85,19.4,24.87,30.26,16.19,24.99,30.05,51.67,53.18,79.12,10.94,12.99,18.08,28.06,27.57,41.73,2.69,4.05,2.01,6.71,1.66,9.51-10.32-10.77-20.34-19.16-34.28-28.77-14.32-7.27-33.47-26.82-45.6-43.27-15-20.34-31.79-49.94-32.3-66.77l-.12-6.52c.38-18.6,3.01-15,5.02-15.29h0Z" style="fill: #fff; stroke-width: 0px;"/>
    </g>
    <path id="ab" data-name="rect1431" d="M116.2,531.22c94.57-61.02,359.64-60.37,462.32,0v26.61c-145.7-63.85-336.85-61.42-462.32,0v-26.61Z" style="fill: #fff; stroke-width: 0px;"/>
  </g>
  <g>
    <path d="M820.24,318.84c.14,1.01.22,2.12.22,3.35,0,2.59-.42,7.27-1.24,14.04-.83,6.77-1.24,11.8-1.24,15.11,0,1.73.07,3.31.22,4.75-.5,2.23-.9,5.25-1.19,9.07.07.29.32,1.19.76,2.7.36,1.22.5,2.27.43,3.13-.29.72-.68,1.66-1.19,2.81-.07,1.15.18,4.64.76,10.47-2.09,2.95-4,4.43-5.72,4.43-.79,0-1.58-.79-2.38-2.38.72-7.2.93-11.62.65-13.28-.22-1.94-.68-4.71-1.4-8.31-1.8-5.4-5.04-11.34-9.72-17.81-1.73-2.45-5.97-5.68-12.74-9.72-.72-.43-3.49-1.26-8.31-2.48-3.17-.79-7.74-1.19-13.71-1.19-17.13,0-30.55,6.41-40.27,19.22-1.22.94-2.99,2.84-5.29,5.72-7.49,14.68-11.73,29.08-12.74,43.18-.43,5.83-.65,15.47-.65,28.93v12.2c0-.79.61,2.45,1.83,9.72.07,3.74.47,8.85,1.19,15.33.5.72,1.4,2.55,2.7,5.51.07,1.58.32,3.71.76,6.37,1.3,2.3,3.17,5.76,5.61,10.36.36,1.51.97,3.64,1.83,6.37,3.89,9.93,9.9,18.21,18.03,24.83,3.67,2.95,7.27,5.04,10.8,6.26,16.99,5.69,27.89,8.53,32.71,8.53,2.23,0,4.43-.36,6.58-1.08,1.08-.29,2.59-1.04,4.54-2.27.43-4.9.65-7.27.65-7.13,0-1.8-.54-2.95-1.62-3.45-1.51-.79-2.56-1.8-3.13-3.02-.86-1.94-.9-5.72-.11-11.34v-29.36c-.58-7.05-1.29-12.59-2.16-16.63-.58-.58-1.3-1.76-2.16-3.56-1.44-6.4-4.57-10.54-9.39-12.42-2.02-.72-6.26-1.19-12.74-1.4-.22-.29-.61-.76-1.19-1.4v-4.64c2.16-1.01,5.68-1.51,10.58-1.51.43,0,3.47.36,9.12,1.08,5.65.72,8.69,1.08,9.12,1.08.36,0,1.08-.3,2.16-.92,1.08-.61,1.83-.92,2.27-.92,5.25-.65,8.21-.97,8.85-.97,12.16,0,17.34.04,15.55.11v7.99c0,.29-.43,1.62-1.3,4s-1.37,4.07-1.51,5.07c-1.44,8.49-2.3,17.09-2.59,25.8-.29,10.94-.43,18.5-.43,22.67,0,8.42.65,20.01,1.94,34.76-3.17,2.3-8.35,4.79-15.55,7.45-7.2,2.66-12.7,4.17-16.52,4.53-1.29-.07-3.17.04-5.61.32-3.89,1.22-6.62,1.84-8.21,1.84-.36,0-.99-.18-1.89-.54-.9-.36-1.5-.58-1.78-.65-8.92-.58-16.34-1.66-22.24-3.24-2.23-1.15-5.54-2.63-9.93-4.43-8.71-2.45-18.35-10.33-28.93-23.64-10.94-13.68-17.67-26.92-20.19-39.73-.72-2.81-1.73-7.02-3.02-12.63-.65-1.8-1.51-4.57-2.59-8.31-1.08-5.97-1.62-11.01-1.62-15.11,0,.36.22-1.91.65-6.8.43-4.17.47-7.12.11-8.85-.29-1.94-.43-4.03-.43-6.26,0-4.17.68-10.11,2.05-17.81,1.8-9.57,2.84-16.01,3.13-19.33,8.56-21.66,13.71-32.5,15.44-32.5.36,0,.61.23.76.7.14.47.47.7.97.7,1.44,0,2.63-.5,3.56-1.51.36-1.44,1.04-3.46,2.05-6.05,7.99-12.67,12.85-19,14.58-19,.43,0,.74.13.92.38.18.25.45.38.81.38s1.28-.81,2.75-2.43c1.47-1.62,2.46-2.43,2.97-2.43.36,0,.84.23,1.46.7.61.47,1.1.7,1.46.7.43,0,4.27-1.29,11.5-3.89,7.23-2.59,11.07-3.89,11.5-3.89h33.47c.36,0,4.3.59,11.82,1.78,7.52,1.19,11.46,1.78,11.82,1.78h11.01Z" style="fill: #fff; stroke-width: 0px;"/>
    <path d="M976.78,426.91c0,4.1-.11,7.23-.32,9.39-.72,1.66-1.48,4.21-2.27,7.67-.15,3.45-.9,7.12-2.27,11.01-1.15,1.44-2.84,3.78-5.07,7.02-.58,2.16-2.16,5.25-4.75,9.28-2.09,2.09-5.25,5.33-9.5,9.72-.65.22-1.48.58-2.48,1.08-.94.86-2.59,2.12-4.96,3.78-11.81,6.26-23.03,9.82-33.68,10.69h-14.25c.14,0-.14-.22-.86-.65-7.77-.22-13.6-1.3-17.49-3.24-1.01-.22-2.38-.58-4.1-1.08-2.88-1.15-7.2-3.2-12.96-6.15-6.91-4.39-13.39-10.58-19.43-18.57-3.38-4.46-6.37-10.22-8.96-17.27-2.45-6.55-3.82-12.05-4.1-16.52-.5-7.63-.22-15.11.86-22.46.43-.93,1.01-2.27,1.73-3.99.43-2.16,1.19-5.29,2.27-9.39,1.58-2.52,3.67-6.19,6.26-11.01.36-.79.54-1.73.54-2.81.36-.36,1.08-.25,2.16.32.36-1.01.36-2.45,0-4.32.94-.29,2.27-.9,4-1.83.58-1.51,1.94-3.35,4.1-5.51,4.32-2.3,10.83-5.69,19.54-10.15,2.23-1.08,5.07-2.01,8.53-2.81,8.78-2.01,14.75-3.02,17.92-3.02h8.42c6.55,0,12.16.61,16.84,1.83,2.52.72,8.06,2.74,16.62,6.05,1.8,1.15,4.64,2.95,8.53,5.4,5.61,3.6,10.72,8.53,15.33,14.79,4.1,5.61,6.76,10.8,7.99,15.55.58.79,1.3,1.98,2.16,3.56,1.58,4.32,2.48,10.72,2.7,19.22,0,.29.16.96.49,2,.32,1.04.49,1.85.49,2.43ZM952.81,429.72c-.65-9.07-2.41-17.34-5.29-24.83-3.67-9.64-7.99-17.24-12.96-22.78-7.05-7.77-14.76-12.34-23.1-13.71-7.92-1.3-13.35-1.73-16.3-1.3-5.76.72-10.65,1.98-14.68,3.78-.5.22-3.78,2.12-9.82,5.72-.36.72-1.01,1.58-1.94,2.59-.58.15-1.22.36-1.94.65-1.44,1.87-3.24,4.39-5.4,7.56-.29.86-.76,2.09-1.4,3.67-1.08,1.73-2.23,3.78-3.45,6.15-.65,2.66-1.66,6.66-3.02,11.98.07,2.02.04,5.07-.11,9.18,0,.22-.15.68-.43,1.4-.29.72-.4,1.22-.32,1.51,1.01,4.68,2.45,11.16,4.32,19.43-.22.58-.36,1.26-.43,2.05.5,1.01,1.22,2.38,2.16,4.1.07.94.29,2.16.65,3.67,3.02,6.05,4.61,9.14,4.75,9.29,2.16,3.74,5.11,7.31,8.85,10.69.07.07.54,1.55,1.4,4.43.29.07,1.51.29,3.67.65,3.53,3.24,6.22,5.44,8.1,6.59,5.33,3.17,14.97,4.14,28.93,2.92,1.15-.36,2.66-.83,4.53-1.4,2.38-.5,5.79-1.69,10.26-3.56,1.01-.93,2.34-2.05,4-3.35,7.2-4.46,11.48-9.97,12.85-16.52.72-.86,1.58-2.09,2.59-3.67.14-1.37.36-2.99.65-4.86.43-.43.86-1.11,1.29-2.05.14-1.66.5-5.25,1.08-10.8.5-4.46.68-7.52.54-9.18Z" style="fill: #fff; stroke-width: 0px;"/>
    <path d="M1121.23,363.54c-1.37.22-3.35.58-5.94,1.08-2.74.79-4.89,2.52-6.48,5.18-2.23,3.96-3.6,7.85-4.1,11.66-.94,6.62-1.4,12.02-1.4,16.19,0,.29.14,3.4.43,9.34.29,5.94.43,9.09.43,9.45v17.17c0,.22.12.94.38,2.16.25,1.22.34,2.16.27,2.81-.43,8.71-.65,13.6-.65,14.68,0,.58.14,1.75.43,3.51.29,1.76.43,2.79.43,3.08v33.14c0,.43.05.67.16.7.11.04.16.09.16.16-5.04.86-7.31,1.3-6.8,1.3-3.02,0-4.89-.32-5.61-.97-4.97-4.61-12.31-12.67-22.02-24.18-1.73-2.3-4.32-5.61-7.77-9.93-3.02-2.95-7.12-7.27-12.31-12.96-1.3-2.16-3.45-5.36-6.48-9.61-6.48-7.84-15.65-19.4-27.53-34.66-1.58-1.22-3.74-3.17-6.48-5.83-.07-.5-.29-1.22-.65-2.16-.86-1.37-2.3-3.42-4.32-6.15-1.51.72-2.27,1.83-2.27,3.35,0-.07.5,3.6,1.51,11.01.07.43,0,1.1-.22,2-.22.9-.32,1.49-.32,1.78,0,2.88.12,7.32.38,13.33.25,6.01.38,8.94.38,8.8v15.11c0,.43.05,4.1.16,11.01.11,6.91.16,10.54.16,10.9,0,15.04,5.36,22.96,16.09,23.75.22,0,.49.31.81.92.32.61.56.99.7,1.13.07,1.29-.11,2.38-.54,3.24h-37.68c-.29,0-1.6.2-3.94.59-2.34.4-3.69.59-4.05.59h-1.73c-.65-.65-.97-1.04-.97-1.19,0-2.52.79-4.21,2.38-5.07,1.87-.58,4.61-1.66,8.21-3.24,3.53-1.94,5.65-5.04,6.37-9.28,1.87-10.44,2.27-16.8,1.19-19.11-.5-1.01-.58-1.87-.21-2.59l.86-1.08-.65-.97c-.07-.79-.04-2.18.11-4.16.14-1.98.22-3.4.22-4.26,0-1.01-.2-2.73-.59-5.18-.4-2.45-.59-4.17-.59-5.18,0,1.08.14-1.15.43-6.69-.07-.22-.4-.93-.97-2.16l.54-.54c.29-.43.47-1.22.54-2.38.14-.22.14-.47,0-.76-1.01-8.13-1.51-13.6-1.51-16.41v-14.9c-.5-8.49-.76-13.67-.76-15.55,0-.22.12-.68.38-1.4.25-.72.34-1.33.27-1.83-5.47-5.76-12.34-8.35-20.62-7.77l-.54-.54v-3.56c.79-.93,2.73-1.4,5.83-1.4.36,0,3.26.14,8.69.43,5.43.29,8.33.43,8.69.43.29,0,2.97-.14,8.04-.43,5.07-.29,7.79-.43,8.15-.43,1.73,0,2.73.07,3.02.22,1.01.36,3.09,2.7,6.26,7.02,5.97,8.42,14.97,20.94,26.99,37.57,2.45,3.09,6.12,7.7,11.01,13.82-.86,6.33.04,9.5,2.7,9.5.29,0,.86-.22,1.73-.65.86-.43,1.47-.65,1.83-.65.93,0,2.19,1.33,3.78,4,.79,1.37,1.55,2.7,2.27,3.99,5.25,4.25,8.53,7.49,9.82,9.72.29,1.23.79,3.02,1.51,5.4.58.79,1.04,1.19,1.4,1.19s.72-.14,1.08-.43c.36-.29.58-.43.65-.43,1.94,2.09,4.57,5.15,7.88,9.18,1.22-.58,1.84-1.12,1.84-1.62,0-.36-.15-.97-.43-1.83-.29-.86-.43-1.47-.43-1.83v-11.55c0-.36-.05-.88-.16-1.57-.11-.68-.16-1.57-.16-2.65.29-1.37.5-3.31.65-5.83-.36-2.09-.83-5.14-1.4-9.18-.15-.58-.07-1.65.22-3.24.29-1.58.43-2.48.43-2.7,0-.29-.11-.88-.32-1.78-.22-.9-.32-1.53-.32-1.89-.15-1.29-.15-3.06,0-5.29.14-2.81.22-4.68.22-5.61,0-.36-.16-.97-.49-1.84-.32-.86-.52-1.51-.59-1.94l.43-2.91c.07-.58-.05-1.69-.38-3.35-.32-1.65-.49-2.91-.49-3.78,0-.29.14-.93.43-1.94.29-1.01.4-1.73.32-2.16-.43-2.95-1.19-7.27-2.27-12.96-1.01-3.74-5.11-6.22-12.31-7.45.14-1.22,0-2.52-.43-3.89.79-.65,3.35-.97,7.67-.97l19.65.76c-.43,0,2.81-.22,9.72-.65,4.1-.29,7.3-.04,9.61.76v3.99ZM1081.18,446.02l-.97,1.19-.65-.65.54-2.27c1.22,1.15,1.58,1.73,1.08,1.73Z" style="fill: #fff; stroke-width: 0px;"/>
    <path d="M1255.86,416.44c.43,3.67.07,10.15-1.08,19.43-.72,2.88-1.76,7.09-3.13,12.63-2.95,12.24-8.31,21.99-16.09,29.26-3.02,2.81-6.91,5.61-11.66,8.42-5.61,3.38-10.15,5.22-13.6,5.51-.43.29-1.15.61-2.16.97-10.65,1.58-15.8,2.38-15.44,2.38h-70.28c-.58-2.52-.4-4.1.54-4.75,3.02-1.08,5.11-1.62,6.26-1.62.43-.58,1.04-1.37,1.83-2.38,3.38-3.53,5.07-7.41,5.07-11.66,0-.07-.21-.97-.65-2.7.29-.72.5-1.76.65-3.13-.29-.58-.65-1.47-1.08-2.7-.07-.43.07-1.24.43-2.43.36-1.19.57-2.07.65-2.64.14-2.73.22-7.05.22-12.96v-12.2c-.07-8.28,0-20.3.21-36.06,0-.22-.18-.7-.54-1.46-.36-.76-.54-1.31-.54-1.67,0-1.15.18-2.93.54-5.34.36-2.41.54-4.23.54-5.45,0-.29-.21-.83-.65-1.62-.43-.79-.72-1.44-.87-1.94.07-1.37-.04-3.46-.32-6.26-1.23-4.82-3.06-7.88-5.51-9.18-2.02-1.01-5.47-1.87-10.36-2.59-.07-.43-.11-1.37-.11-2.81,3.09-1.51,6.19-1.94,9.28-1.3,1.01.79,1.69,1.15,2.05,1.08.5-.29,1.11-.65,1.83-1.08,2.37-.07,4.75-.14,7.13-.22,2.59.07,4.6,1.15,6.04,3.24.22,0,.47-.04.76-.11.65-1.08,1.73-2.48,3.24-4.21,1.73.29,4.14.65,7.23,1.08.14.07.45-.14.92-.65.47-.5.88-.83,1.24-.97,2.23-.72,5.58-1.08,10.04-1.08h27.42c11.88,2.66,20.26,5.07,25.15,7.23,9.29,4.03,16.91,10.22,22.89,18.57,1.22,1.58,2.92,4.14,5.07,7.67,3.17,6.26,5.43,14.83,6.8,25.69ZM1251,416.33c-8.78-.58-14.97-.79-18.57-.65-.58-.29-.79-1.51-.65-3.67-1.29-3.17-3.35-7.7-6.15-13.6-3.82-7.77-8.03-13.94-12.63-18.51-4.61-4.57-12.09-7.79-22.46-9.66-4.68-.79-6.8-1.19-6.37-1.19h-11.12c-.29,0-2.27.34-5.94,1.03-3.67.69-6.12,1.1-7.34,1.24-1.01,5.04-1.4,10.51-1.19,16.41.14,2.81.22,8.53.22,17.17v42.64c0-.07-.11,1.15-.32,3.67-.14,2.23-.14,3.89,0,4.97.36,4.17.54,5.97.54,5.4-.22,2.88-.25,5.29-.11,7.23,0,.43.22,1.4.65,2.92.36,1.22.5,2.16.43,2.81-.07.07-1.26.54-3.56,1.4-1.66.72-2.66,1.66-3.02,2.81,1.22,1.08,2.84,1.73,4.86,1.94,1.44.07,2.88.11,4.32.11,14.47,1.66,22.85,2.48,25.15,2.48,6.84,0,12.88-1.04,18.14-3.13,4.61-1.87,8.38-4.32,11.34-7.34,6.33-6.41,10.54-14.36,12.63-23.86,1.01-4.61,1.73-12.27,2.16-23,0-.86-.65-2.09-1.94-3.67-.14-1.01.07-1.58.65-1.73,1.08-.36,3.31-.76,6.69-1.19,2.95-.29,7.16-.76,12.63-1.4.65-.5.97-1.04.97-1.62Z" style="fill: #fff; stroke-width: 0px;"/>
    <path d="M1416.93,426.91c0,4.1-.11,7.23-.32,9.39-.72,1.66-1.48,4.21-2.27,7.67-.15,3.45-.9,7.12-2.27,11.01-1.15,1.44-2.84,3.78-5.07,7.02-.58,2.16-2.16,5.25-4.75,9.28-2.09,2.09-5.25,5.33-9.5,9.72-.65.22-1.48.58-2.48,1.08-.94.86-2.59,2.12-4.97,3.78-11.8,6.26-23.03,9.82-33.68,10.69h-14.25c.14,0-.15-.22-.86-.65-7.77-.22-13.6-1.3-17.49-3.24-1.01-.22-2.38-.58-4.1-1.08-2.88-1.15-7.2-3.2-12.96-6.15-6.91-4.39-13.39-10.58-19.43-18.57-3.38-4.46-6.37-10.22-8.96-17.27-2.45-6.55-3.82-12.05-4.1-16.52-.5-7.63-.22-15.11.86-22.46.43-.93,1.01-2.27,1.73-3.99.43-2.16,1.19-5.29,2.27-9.39,1.58-2.52,3.67-6.19,6.26-11.01.36-.79.54-1.73.54-2.81.36-.36,1.08-.25,2.16.32.36-1.01.36-2.45,0-4.32.93-.29,2.27-.9,4-1.83.58-1.51,1.94-3.35,4.1-5.51,4.32-2.3,10.83-5.69,19.54-10.15,2.23-1.08,5.07-2.01,8.53-2.81,8.78-2.01,14.75-3.02,17.92-3.02h8.42c6.55,0,12.16.61,16.84,1.83,2.52.72,8.06,2.74,16.62,6.05,1.8,1.15,4.64,2.95,8.53,5.4,5.61,3.6,10.72,8.53,15.33,14.79,4.1,5.61,6.76,10.8,7.99,15.55.58.79,1.3,1.98,2.16,3.56,1.58,4.32,2.48,10.72,2.7,19.22,0,.29.16.96.49,2,.32,1.04.49,1.85.49,2.43ZM1392.97,429.72c-.65-9.07-2.41-17.34-5.29-24.83-3.67-9.64-7.99-17.24-12.96-22.78-7.05-7.77-14.75-12.34-23.1-13.71-7.92-1.3-13.35-1.73-16.3-1.3-5.76.72-10.65,1.98-14.68,3.78-.5.22-3.78,2.12-9.82,5.72-.36.72-1.01,1.58-1.94,2.59-.58.15-1.22.36-1.94.65-1.44,1.87-3.24,4.39-5.4,7.56-.29.86-.76,2.09-1.4,3.67-1.08,1.73-2.23,3.78-3.45,6.15-.65,2.66-1.66,6.66-3.02,11.98.07,2.02.04,5.07-.11,9.18,0,.22-.15.68-.43,1.4-.29.72-.4,1.22-.32,1.51,1.01,4.68,2.45,11.16,4.32,19.43-.22.58-.36,1.26-.43,2.05.5,1.01,1.22,2.38,2.16,4.1.07.94.29,2.16.65,3.67,3.02,6.05,4.61,9.14,4.75,9.29,2.16,3.74,5.11,7.31,8.85,10.69.07.07.54,1.55,1.4,4.43.29.07,1.51.29,3.67.65,3.53,3.24,6.22,5.44,8.1,6.59,5.33,3.17,14.97,4.14,28.93,2.92,1.15-.36,2.66-.83,4.53-1.4,2.38-.5,5.79-1.69,10.26-3.56,1.01-.93,2.34-2.05,3.99-3.35,7.2-4.46,11.48-9.97,12.85-16.52.72-.86,1.58-2.09,2.59-3.67.14-1.37.36-2.99.65-4.86.43-.43.86-1.11,1.29-2.05.14-1.66.5-5.25,1.08-10.8.5-4.46.68-7.52.54-9.18Z" style="fill: #fff; stroke-width: 0px;"/>
    <path d="M1550.8,491.9c-.58.79-1.51,1.76-2.81,2.92-3.24,1.8-5.58,2.7-7.02,2.7h-12.96c-4.39,0-7.67-.18-9.82-.54-1.58-.58-3.99-1.4-7.23-2.48-2.74-.86-7.52-5.18-14.36-12.96-.58-.65-3.38-5.29-8.42-13.93-4.53-7.84-8.1-14.43-10.69-19.76-.65-2.01-1.8-4.61-3.46-7.77-.72-.79-2.52-1.08-5.4-.86-1.8.22-3.64.43-5.51.65-2.38-.14-5.9-.18-10.58-.11-.5,0-1.12.43-1.84,1.3.29,2.81.65,11.62,1.08,26.45.07,2.88.65,6.66,1.73,11.34,0,1.29.36,3.2,1.08,5.72,1.51,2.59,3.96,4.46,7.34,5.61,2.73.79,5.47,1.58,8.21,2.38.07.79,0,1.73-.22,2.81-2.09.86-4.21,1.3-6.37,1.3h-11.34c-.14,0-1.12-.18-2.92-.54-1.8-.36-3.09-.54-3.89-.54-2.23,0-8.06.36-17.49,1.08h-10.9c-1.08,0-2.38-.32-3.89-.97,0-.22-.09-.65-.27-1.3-.18-.65-.27-1.12-.27-1.4,3.74-1.01,6.05-1.73,6.91-2.16,2.66-1.22,4.82-3.31,6.48-6.26.72-1.3,1.22-4.61,1.51-9.93,0-.86.25-3.09.76-6.69.43-3.31.65-5.83.65-7.56,0-9.79.09-15.08.27-15.87.18-.79.85-2.09,2-3.89-.5-.5-1.15-1.47-1.94-2.92-.36-1.3-.54-3.13-.54-5.51v-10.9c0-.07-.11-1.19-.32-3.35.07.86.4-3.89.97-14.25-.07-.14-.25-.39-.54-.76-.79-2.81-.76-6.51.11-11.12.29-1.29-.18-5.61-1.4-12.96-.07-2.3-.72-5.33-1.94-9.07-1.58-1.94-3.63-3.17-6.15-3.67-2.16-.5-4.28-.97-6.37-1.4,0-4.1-.11-4.97-.32-2.59.14-1.15.86-1.76,2.16-1.83,2.95-.14,7.67-.47,14.14-.97,5.97-.58,9.03-.86,9.18-.86h13.93c2.59,0,5.25-.22,7.99-.65,2.73-.43,5.07-.65,7.02-.65,2.45,0,5.51.22,9.18.65,2.3.5,5.68,1.22,10.15,2.16.43.29,1.15.61,2.16.97,6.91,1.08,13.03,4.36,18.35,9.82,2.95,3.1,5.58,8.57,7.88,16.41.07,1.15.18,2.84.32,5.07.14,1.8,0,4.5-.43,8.1-.94,7.63-2.74,13.39-5.4,17.27-2.45,3.6-7.16,8.64-14.14,15.11-.07,1.51.22,2.84.86,4,4.53,8.71,9.07,17.42,13.6,26.13,5.4,9.43,11.95,17.45,19.65,24.08.65.58,3.31,1.51,7.99,2.81,2.81.72,5.18.9,7.13.54,2.88-.58,4.93-.79,6.15-.65.14.5.22,1.26.22,2.27ZM1491.64,399.49c0-2.38-.18-3.96-.54-4.75-3.6-9.57-6.66-15.69-9.18-18.35-3.46-3.74-7.31-6.12-11.55-7.13-2.81-.65-7.34-.83-13.6-.54-.65.07-1.66.47-3.02,1.19-1.15,12.38-1.87,22.38-2.16,30.01.36.58.72,1.4,1.08,2.48,0,1.01-.32,5.11-.97,12.31-.43,4.75-.32,9.5.32,14.25.22.22.5.54.86.97h10.69c1.22.29,2.52.43,3.89.43,4.25,0,8.33-1.35,12.25-4.05,3.92-2.7,6.32-4.91,7.18-6.64,3.17-5.9,4.75-12.63,4.75-20.19Z" style="fill: #fff; stroke-width: 0px;"/>
    <path d="M1739.73,318.84c.15,1.01.22,2.12.22,3.35,0,2.59-.43,7.27-1.29,14.04-.86,6.77-1.29,11.8-1.29,15.11,0,1.73.07,3.31.22,4.75-.52,2.23-.94,5.25-1.24,9.07.07.29.34,1.19.79,2.7.37,1.22.52,2.27.45,3.13-.3.72-.71,1.66-1.24,2.81-.08,1.15.19,4.64.79,10.47-2.17,2.95-4.15,4.43-5.95,4.43-.82,0-1.65-.79-2.47-2.38.75-7.2.97-11.62.67-13.28-.22-1.94-.71-4.71-1.46-8.31-1.87-5.4-5.24-11.34-10.11-17.81-1.8-2.45-6.21-5.68-13.25-9.72-.75-.43-3.63-1.26-8.65-2.48-3.29-.79-8.05-1.19-14.26-1.19-17.82,0-31.77,6.41-41.88,19.22-1.27.94-3.11,2.84-5.5,5.72-7.79,14.68-12.2,29.08-13.25,43.18-.45,5.83-.67,15.47-.67,28.93v12.2c0-.79.63,2.45,1.91,9.72.07,3.74.49,8.85,1.24,15.33.52.72,1.46,2.55,2.81,5.51.07,1.58.34,3.71.79,6.37,1.35,2.3,3.29,5.76,5.84,10.36.37,1.51,1.01,3.64,1.91,6.37,4.04,9.93,10.29,18.21,18.75,24.83,3.82,2.95,7.56,5.04,11.23,6.26,17.67,5.69,29,8.53,34.02,8.53,2.32,0,4.6-.36,6.85-1.08,1.12-.29,2.7-1.04,4.72-2.27.45-4.9.67-7.27.67-7.13,0-1.8-.56-2.95-1.68-3.45-1.57-.79-2.66-1.8-3.26-3.02-.9-1.94-.94-5.72-.11-11.34v-29.36c-.6-7.05-1.35-12.59-2.25-16.63-.6-.58-1.35-1.76-2.25-3.56-1.5-6.4-4.75-10.54-9.77-12.42-2.1-.72-6.51-1.19-13.25-1.4-.22-.29-.64-.76-1.24-1.4v-4.64c2.25-1.01,5.91-1.51,11-1.51.45,0,3.61.36,9.49,1.08,5.88.72,9.04,1.08,9.49,1.08.37,0,1.12-.3,2.25-.92,1.12-.61,1.91-.92,2.36-.92,5.46-.65,8.53-.97,9.21-.97,12.65,0,18.04.04,16.17.11v7.99c0,.29-.45,1.62-1.35,4s-1.42,4.07-1.57,5.07c-1.5,8.49-2.4,17.09-2.69,25.8-.3,10.94-.45,18.5-.45,22.67,0,8.42.67,20.01,2.02,34.76-3.29,2.3-8.68,4.79-16.17,7.45-7.49,2.66-13.21,4.17-17.18,4.53-1.35-.07-3.29.04-5.84.32-4.04,1.22-6.89,1.84-8.53,1.84-.38,0-1.03-.18-1.96-.54-.94-.36-1.55-.58-1.85-.65-9.28-.58-16.99-1.66-23.13-3.24-2.32-1.15-5.77-2.63-10.33-4.43-9.06-2.45-19.09-10.33-30.09-23.64-11.38-13.68-18.38-26.92-21-39.73-.75-2.81-1.8-7.02-3.14-12.63-.67-1.8-1.57-4.57-2.69-8.31-1.12-5.97-1.68-11.01-1.68-15.11,0,.36.22-1.91.67-6.8.45-4.17.49-7.12.11-8.85-.3-1.94-.45-4.03-.45-6.26,0-4.17.71-10.11,2.13-17.81,1.87-9.57,2.96-16.01,3.26-19.33,8.91-21.66,14.26-32.5,16.06-32.5.37,0,.63.23.79.7.15.47.49.7,1.01.7,1.5,0,2.73-.5,3.71-1.51.37-1.44,1.08-3.46,2.13-6.05,8.31-12.67,13.36-19,15.16-19,.45,0,.77.13.96.38.19.25.47.38.84.38s1.33-.81,2.86-2.43c1.53-1.62,2.56-2.43,3.09-2.43.37,0,.88.23,1.52.7.63.47,1.14.7,1.52.7.45,0,4.43-1.29,11.96-3.89,7.52-2.59,11.51-3.89,11.96-3.89h34.81c.37,0,4.47.59,12.29,1.78,7.82,1.19,11.92,1.78,12.29,1.78h11.45Z" style="fill: #fff; stroke-width: 0px;"/>
    <path d="M1877.28,494.93c-1.35.58-3.33.76-5.95.54-4.34-.36-6.36-.54-6.06-.54h-8.98c-10.85,0-19.31.54-25.38,1.62-3.37.58-5.61.25-6.74-.97-.15-2.16-.04-3.99.34-5.51,1.5-.14,3.59-.65,6.29-1.51,1.12-.65,1.98-1.73,2.58-3.24.6-1.51.71-2.7.34-3.56-.97-4.17-2.47-10.44-4.49-18.79-.15-.5-.97-2.55-2.47-6.15-1.2-2.88-1.8-5.07-1.8-6.58-.08-.43-.56-.65-1.46-.65-1.27,0-7.41.29-18.41.86l-23.69.32c-1.72-.07-3.33,1.44-4.83,4.54-.75,1.58-1.8,3.92-3.14,7.02-1.72,5.04-2.54,8.03-2.47,8.96,0-.5-.38,1.66-1.12,6.48-.52,3.38-.52,5.69,0,6.91.3.72,1.44,1.87,3.42,3.46,1.98,1.58,3.69,2.63,5.11,3.13.37.15.97.32,1.8.54.6,1.01,1.08,1.8,1.46,2.38-1.57.43-3.74.9-6.51,1.4-4.34-.36-10.59-.65-18.75-.86-1.72.5-4.38,1.01-7.97,1.51-.15,0-2.88-.32-8.2-.97-.15-.36-.22-.69-.22-.97,0-.86,1.12-2.09,3.37-3.67.82-1.08,2.21-2.48,4.15-4.21,1.72-1.08,3.22-2.93,4.49-5.56,1.27-2.63,3.22-6.71,5.84-12.25,1.12-3.45,2.81-8.67,5.05-15.65,1.5-3.31,3.41-8.35,5.73-15.11,1.72-4.97,4.23-12.34,7.52-22.13.3-.29.67-.72,1.12-1.29.22,1.15.52,1.73.9,1.73.52,0,1.2-1.55,2.02-4.64.75-2.81,1.12-4.82,1.12-6.05,0-.22-.04-.32-.11-.32-.15.22-.41.86-.79,1.94,0-.72.07-1.73.22-3.02,1.2-3.02,2.88-7.49,5.05-13.39.52-2.81,2.13-6.98,4.83-12.52.37-1.22.94-3.09,1.68-5.61.67-2.16,1.98-5.4,3.93-9.72.22-.93.79-2.27,1.68-3.99.45-.5,2.21-.65,5.28-.43,2.92.07,7.33.32,13.25.75,1.95,5.4,5.43,14,10.44,25.8.15,1.37.56,3.38,1.24,6.05,1.2,3.38,2.77,6.51,4.72,9.39-.38.5-.08,2.38.9,5.61,1.2,2.59,2.96,6.41,5.28,11.44,1.57,4.97,4,11.88,7.3,20.73.22,2.02.93,4.9,2.13,8.64,0,.58.19,1.48.56,2.7.9,1.87,2.51,5.47,4.83,10.8.82,1.15,1.95,2.92,3.37,5.29-.08.58,0,1.37.22,2.38,1.05,2.95,2.66,7.09,4.83,12.42.75,1.23,2.02,3.46,3.82,6.69.45.86,2.58,1.98,6.4,3.35,1.12.36,2.77.9,4.94,1.62v2.92ZM1819.56,438.35c-.08-.07-2.81-7.23-8.2-21.48-.9-2.88-2.28-7.16-4.15-12.85-.9-1.73-2.1-4.21-3.59-7.45-.45-1.51-1.24-3.67-2.36-6.48-2.7,5.9-5.69,11.88-8.98,17.92-.45.43-.97,1.12-1.57,2.05-.22,1.08-.64,2.74-1.24,4.97-.52,1.01-1.16,2.45-1.91,4.32-.08,1.22-.26,2.81-.56,4.75-.52.72-1.12,1.73-1.8,3.02-.38,1.66-.94,3.99-1.68,7.02-.38.58-.86,1.37-1.46,2.38.15-.79.22-.18.22,1.83h37.28Z" style="fill: #fff; stroke-width: 0px;"/>
    <path d="M2008.87,470.63c0,4.46-.08,6.12-.22,4.97.22,2.02-.15,4.75-1.12,8.21,0,.07-.34.68-1.01,1.83-.45.79-.53,1.44-.22,1.94,1.57,2.59,2.36,4.32,2.36,5.18,0,1.44-1.46,2.16-4.38,2.16h-119.69c-3.29-.5-4.57-1.8-3.82-3.89.75-.36,1.72-.9,2.92-1.62,1.27-1.87,2.84-4.5,4.72-7.88.9-2.16,3.71-6.19,8.42-12.09,4.34-5.33,6.62-8.92,6.85-10.8,1.2-1.15,2.84-2.95,4.94-5.4,2.92-3.53,7.19-8.85,12.8-15.98.97-2.45,3.29-6.22,6.96-11.34.07-.43.37-1.01.9-1.73,1.87-.29,9.43-.43,22.68-.43.07-.36-.45-.79-1.57-1.3-3.44-1.37-6.06-2.19-7.86-2.48-1.27,0-3.22-.04-5.84-.11-1.2-.14-2.13-.61-2.81-1.4,1.57-1.3,3.44-3.17,5.61-5.61,1.05-2.3,2.92-5.58,5.61-9.82,1.42-.86,3.11-2.19,5.05-4,.07-1.22.52-2.91,1.35-5.07,1.95-1.73,4.68-4.46,8.2-8.21.45-1.73,1.46-4.43,3.03-8.1.52-.93,2.17-2.41,4.94-4.43,2.39-1.8,3.59-3.06,3.59-3.78,0-.86-1.42-1.51-4.27-1.94h-13.14c.37,0-1.65.11-6.06.32-4.04.22-7.04.29-8.98.22-1.27-.07-2.73-.39-4.38-.97-.15-.07-1.2-.86-3.14-2.38-1.57-1.22-3.07-1.73-4.49-1.51,0,.29.09.97.28,2.05.19,1.08.24,1.91.17,2.48-1.35.65-2.7,1.04-4.04,1.19-2.77.29-6.17.88-10.22,1.78-4.04.9-7.19,2.54-9.43,4.91-5.09,5.33-7.63,8.74-7.63,10.26,0,.43.13,1.03.39,1.78.26.76.39,1.31.39,1.67,0,.86-.49,1.62-1.46,2.27-.97.65-2.32.97-4.04.97-1.95,0-3.29-.54-4.04-1.62-.08-.07.15-1.37.67-3.89.9-4.25,1.08-7.67.56-10.26-.08-.36-.43-1.01-1.07-1.94-.64-.93-.96-1.62-.96-2.05s.41-1.15,1.24-2.16c.82-1.01,1.27-1.8,1.35-2.38-.38-1.65-.26-4.17.34-7.56.45-.65,2.06-1.19,4.83-1.62,2.99-.36,6.92-.29,11.79.22l93.53-.32c4.04-.72,6.29-.04,6.74,2.05.45,2.23.19,4.25-.79,6.05-1.27,2.3-2.88,4.28-4.83,5.94-1.35.79-3,2.05-4.94,3.78-.15.29-.41,1.62-.79,3.99-.67.65-1.65,1.62-2.92,2.92-1.2,2.38-3.07,5.72-5.61,10.04-2.1,1.66-4.83,4.18-8.2,7.56-.38,1.15-1.01,2.92-1.91,5.29-1.12,2.23-3.37,5.18-6.74,8.85-3.67,4.03-5.76,6.44-6.29,7.23-3.89,4.39-7.82,9-11.79,13.82,0,.65-.08,1.58-.22,2.81-1.12.86-2.62,2.23-4.49,4.1-.15.86-.6,2.09-1.35,3.67-.82.79-1.8,1.83-2.92,3.13-.45,1.44-1.42,3.56-2.92,6.37-1.57,1.44-3.78,3.85-6.62,7.23-1.8,3.02-5.17,7.74-10.1,14.14-.9,1.51-2.7,3.89-5.39,7.13,1.65.94,6.36,1.4,14.15,1.4h14.26c.45,0,1.12-.09,2.02-.27.9-.18,1.46-.27,1.68-.27,2.17,0,5.73-.07,10.67-.22,1.57-.29,4.04-.72,7.41-1.3,1.5-.07,3.97-.25,7.41-.54,4.12-.5,8.61-2.55,13.47-6.15.6-.79,1.61-1.94,3.03-3.45,2.77-2.3,4.42-3.78,4.94-4.43,1.72-1.8,2.62-3.71,2.69-5.72-.15-1.44.11-3.49.79-6.15.52-.79,1.65-1.19,3.37-1.19,3.14,0,5.01.72,5.61,2.16v11.66Z" style="fill: #fff; stroke-width: 0px;"/>
    <path d="M2126.08,459.73c-.22,3.74-.71,9.03-1.46,15.87-.9,1.87-2.02,4.5-3.37,7.88-.3,1.44-.86,3.46-1.68,6.05-.3.79-1.27,2.12-2.92,4-1.95,2.3-3.52,3.45-4.72,3.45h-28.63c-.52,0-3.89-.11-10.1-.32-6.21-.22-9.58-.32-10.11-.32h-17.29c-.45,0-2.75-.2-6.91-.59-4.15-.4-6.49-.59-7.02-.59h-16.95l-1.46-1.51c.82-1.01,4.08-3.17,9.77-6.48,3.89-2.38,5.84-5.25,5.84-8.64v-34.12c0-5.54.9-12.99,2.7-22.35-.97-2.88-1.16-6.48-.56-10.8-1.35-1.08-2.02-2.59-2.02-4.53,0-.14.75-3.09,2.25-8.85.07-.5-.3-1.51-1.12-3.02-1.05-1.8-1.61-2.73-1.68-2.81-.52-1.51-.75-3.89-.67-7.13v-7.34c-.22-2.45-.75-4.43-1.57-5.94-1.12-2.09-2.96-3.74-5.5-4.97-2.25-.93-4.49-1.91-6.74-2.92,1.05-2.38,2.17-3.63,3.37-3.78,2.32.29,5.65.36,9.99.22,4.79-1.08,7.11-1.62,6.96-1.62h19.87c.3,0,2.56.25,6.79.76,4.23.5,7.43.79,9.6.86.9,0,8.38-.47,22.46-1.4,3.22-.22,11.64,0,25.26.65,1.2.79,1.8,1.76,1.8,2.92,0,.65-.24,1.58-.73,2.81-.49,1.22-.73,2.12-.73,2.7-.08,2.38-.86,10.22-2.36,23.54-.22.43-1.31,1.12-3.26,2.05-.45-.72-1.83-4.57-4.15-11.55-1.5-4.53-4.27-7.02-8.31-7.45-1.65-.36-3.33-.72-5.05-1.08-2.32-.5-4.12-.58-5.39-.22-3.29.94-10.44,1.04-21.45.32-6.06-.43-10.63-.32-13.7.32-.9.22-1.5,1.04-1.8,2.48,2.7,8.42,2.81,15.87.34,22.35.15-.43.22,1.37.22,5.4,0,1.01-.19,3.09-.56,6.26-.38,2.59-.45,4.68-.22,6.26.07.72.79,1.66,2.13,2.81h42.33c1.35-.43,2.66-.86,3.93-1.3,2.09-.72,3.55-1.83,4.38-3.35.75-1.87,2.13-4.46,4.15-7.77,2.39,0,3.93.79,4.6,2.38-.3,4.1-.6,9.36-.9,15.76-.08,4.25-.6,10.47-1.57,18.68-.3,1.22-1.8,1.62-4.49,1.19-.97-1.73-2.69-4-5.16-6.8-4.57-3.31-8.72-4.97-12.46-4.97h-15.5c-.97,0-2.88-.18-5.73-.54-2.85-.36-4.98-.54-6.4-.54-3.97,0-6.47,1.12-7.52,3.35-1.2,2.52-1.8,4.46-1.8,5.83,0,1.3.26,3.74.79,7.34.52,3.6.75,6.37.67,8.31-.08,1.01-.43,2.9-1.07,5.67-.64,2.77-.95,4.95-.95,6.53,0,1.22.15,2.34.45,3.35.52,1.73,2.56,3.82,6.12,6.26,3.55,2.45,6.6,3.85,9.15,4.21.37.14.75.29,1.12.43.75.22,1.42.32,2.02.32h18.64c4.19,0,7.71-.65,10.55-1.94,3.97-1.73,7.82-4.61,11.56-8.64,4.12-4.46,6.33-8.71,6.62-12.74,1.95-1.22,4.38-1.44,7.3-.65Z" style="fill: #fff; stroke-width: 0px;"/>
    <path d="M2239.15,360.62c-.45,2.74-.97,6.01-1.57,9.82v25.05c-.38,0-1.05.11-2.02.32-.97.22-1.65.32-2.02.32-.15-.58-.75-4.86-1.8-12.85-.6-4.61-2.81-8.13-6.62-10.58-1.65-1.15-5.54-1.08-11.68.22-3.07.29-7.49.97-13.25,2.05-2.02.65-3.29,1.87-3.82,3.67-1.27,4.61-1.4,11.27-.39,19.97,1.01,8.71.73,20.69-.84,35.95,0-.07.49,4.9,1.46,14.9-.3,3.45-.38,8.64-.22,15.55.82,3.67,2.02,9.25,3.59,16.73.75,3.6,3.26,5.9,7.52,6.91,3.44.79,6.89,1.55,10.33,2.27,0,1.08-.86,2.66-2.58,4.75h-63.66c-.6,0-.9-.43-.9-1.3,0-.22.04-.79.11-1.73,2.32-.5,5.73-1.55,10.22-3.13,3.89-2.01,6.77-4.43,8.65-7.23.52-.79,1.05-4.03,1.57-9.72.3-9.93.67-20.33,1.12-31.2v-38.87h3.03c.15-.07.41-.39.79-.97-1.05-2.38-2.32-5.79-3.82-10.26-.15-.86-.75-6.37-1.8-16.52h-20.77c-2.17,0-4.87,1.15-8.08,3.46-3.22,2.3-4.98,4.17-5.28,5.61-1.57,6.41-3.11,10.83-4.6,13.28-.75,1.23-2.43,1.84-5.05,1.84,0-.29-.15-1.19-.45-2.7-.22-1.3-.26-2.23-.11-2.81.9-2.95,1.76-7.52,2.58-13.71.97-7.49,1.72-12.52,2.25-15.11l3.59-4.54c-2.25-.22,4.6-.32,20.55-.32,4.64,0,11.7.4,21.17,1.19,9.47.79,14.02,1.19,13.64,1.19h18.53c-.08,0,2.17-.36,6.74-1.08,4.94-.72,9.69-1.19,14.26-1.4,1.72-.22,3.44-.43,5.17-.65,2.25-.22,3.74.32,4.49,1.62Z" style="fill: #fff; stroke-width: 0px;"/>
    <path d="M2355.47,360.62c-.45,2.74-.97,6.01-1.57,9.82v25.05c-.38,0-1.05.11-2.02.32-.97.22-1.65.32-2.02.32-.15-.58-.75-4.86-1.8-12.85-.6-4.61-2.81-8.13-6.62-10.58-1.65-1.15-5.54-1.08-11.68.22-3.07.29-7.49.97-13.25,2.05-2.02.65-3.29,1.87-3.82,3.67-1.27,4.61-1.4,11.27-.39,19.97,1.01,8.71.73,20.69-.84,35.95,0-.07.49,4.9,1.46,14.9-.3,3.45-.38,8.64-.22,15.55.82,3.67,2.02,9.25,3.59,16.73.75,3.6,3.26,5.9,7.52,6.91,3.44.79,6.89,1.55,10.33,2.27,0,1.08-.86,2.66-2.58,4.75h-63.66c-.6,0-.9-.43-.9-1.3,0-.22.04-.79.11-1.73,2.32-.5,5.73-1.55,10.22-3.13,3.89-2.01,6.77-4.43,8.65-7.23.52-.79,1.05-4.03,1.57-9.72.3-9.93.67-20.33,1.12-31.2v-38.87h3.03c.15-.07.41-.39.79-.97-1.05-2.38-2.32-5.79-3.82-10.26-.15-.86-.75-6.37-1.8-16.52h-20.77c-2.17,0-4.87,1.15-8.08,3.46-3.22,2.3-4.98,4.17-5.28,5.61-1.57,6.41-3.11,10.83-4.6,13.28-.75,1.23-2.43,1.84-5.05,1.84,0-.29-.15-1.19-.45-2.7-.22-1.3-.26-2.23-.11-2.81.9-2.95,1.76-7.52,2.58-13.71.97-7.49,1.72-12.52,2.25-15.11l3.59-4.54c-2.25-.22,4.6-.32,20.55-.32,4.64,0,11.7.4,21.17,1.19,9.47.79,14.02,1.19,13.64,1.19h18.53c-.08,0,2.17-.36,6.74-1.08,4.94-.72,9.69-1.19,14.26-1.4,1.72-.22,3.44-.43,5.17-.65,2.25-.22,3.74.32,4.49,1.62Z" style="fill: #fff; stroke-width: 0px;"/>
    <path d="M2473.7,459.73c-.22,3.74-.71,9.03-1.46,15.87-.9,1.87-2.02,4.5-3.37,7.88-.3,1.44-.86,3.46-1.68,6.05-.3.79-1.27,2.12-2.92,4-1.95,2.3-3.52,3.45-4.72,3.45h-28.63c-.52,0-3.89-.11-10.1-.32-6.21-.22-9.58-.32-10.11-.32h-17.29c-.45,0-2.75-.2-6.91-.59-4.15-.4-6.49-.59-7.02-.59h-16.95l-1.46-1.51c.82-1.01,4.08-3.17,9.77-6.48,3.89-2.38,5.84-5.25,5.84-8.64v-34.12c0-5.54.9-12.99,2.7-22.35-.97-2.88-1.16-6.48-.56-10.8-1.35-1.08-2.02-2.59-2.02-4.53,0-.14.75-3.09,2.25-8.85.07-.5-.3-1.51-1.12-3.02-1.05-1.8-1.61-2.73-1.68-2.81-.52-1.51-.75-3.89-.67-7.13v-7.34c-.22-2.45-.75-4.43-1.57-5.94-1.12-2.09-2.96-3.74-5.5-4.97-2.25-.93-4.49-1.91-6.74-2.92,1.05-2.38,2.17-3.63,3.37-3.78,2.32.29,5.65.36,9.99.22,4.79-1.08,7.11-1.62,6.96-1.62h19.87c.3,0,2.56.25,6.79.76,4.23.5,7.43.79,9.6.86.9,0,8.38-.47,22.46-1.4,3.22-.22,11.64,0,25.26.65,1.2.79,1.8,1.76,1.8,2.92,0,.65-.24,1.58-.73,2.81-.49,1.22-.73,2.12-.73,2.7-.08,2.38-.86,10.22-2.36,23.54-.22.43-1.31,1.12-3.26,2.05-.45-.72-1.83-4.57-4.15-11.55-1.5-4.53-4.27-7.02-8.31-7.45-1.65-.36-3.33-.72-5.05-1.08-2.32-.5-4.12-.58-5.39-.22-3.29.94-10.44,1.04-21.45.32-6.06-.43-10.63-.32-13.7.32-.9.22-1.5,1.04-1.8,2.48,2.7,8.42,2.81,15.87.34,22.35.15-.43.22,1.37.22,5.4,0,1.01-.19,3.09-.56,6.26-.38,2.59-.45,4.68-.22,6.26.07.72.79,1.66,2.13,2.81h42.33c1.35-.43,2.66-.86,3.93-1.3,2.09-.72,3.55-1.83,4.38-3.35.75-1.87,2.13-4.46,4.15-7.77,2.39,0,3.93.79,4.6,2.38-.3,4.1-.6,9.36-.9,15.76-.08,4.25-.6,10.47-1.57,18.68-.3,1.22-1.8,1.62-4.49,1.19-.97-1.73-2.69-4-5.16-6.8-4.57-3.31-8.72-4.97-12.46-4.97h-15.5c-.97,0-2.88-.18-5.73-.54-2.85-.36-4.98-.54-6.4-.54-3.97,0-6.47,1.12-7.52,3.35-1.2,2.52-1.8,4.46-1.8,5.83,0,1.3.26,3.74.79,7.34.52,3.6.75,6.37.67,8.31-.08,1.01-.43,2.9-1.07,5.67-.64,2.77-.95,4.95-.95,6.53,0,1.22.15,2.34.45,3.35.52,1.73,2.56,3.82,6.12,6.26,3.55,2.45,6.6,3.85,9.15,4.21.37.14.75.29,1.12.43.75.22,1.42.32,2.02.32h18.64c4.19,0,7.71-.65,10.55-1.94,3.97-1.73,7.82-4.61,11.56-8.64,4.12-4.46,6.33-8.71,6.62-12.74,1.95-1.22,4.38-1.44,7.3-.65Z" style="fill: #fff; stroke-width: 0px;"/>
  </g>
</svg>