<svg id="_390_mountain_outline" data-name="#390_mountain_outline" xmlns="http://www.w3.org/2000/svg" viewBox="0 0 400 400" width="300" height="400" class="illustration"><path d="M293.85,150a94.29,94.29,0,0,1-.74,11.83c-.39,3.12-.94,6.19-1.62,9.2-.21.9-.43,1.79-.67,2.67a93.87,93.87,0,0,1-177.61,12,90.73,90.73,0,0,1-4.13-12.41c-.74-2.88-1.35-5.81-1.81-8.79A94.16,94.16,0,0,1,106.15,150c0-1.47,0-2.93.1-4.38A93.85,93.85,0,0,1,293.85,150Z" fill="#fff"></path><path d="M200,244.84a94.51,94.51,0,0,1-87.71-58.71,91,91,0,0,1-4.18-12.55c-.76-3-1.37-5.94-1.83-8.88a95.76,95.76,0,0,1-1.13-14.7c0-1.58,0-3,.1-4.42a94.85,94.85,0,0,1,172.43-50A94.46,94.46,0,0,1,294.85,150a94.83,94.83,0,0,1-.75,12c-.38,3-.93,6.18-1.63,9.3-.22.91-.44,1.82-.68,2.72A94.81,94.81,0,0,1,200,244.84Zm0-187.68a92.08,92.08,0,0,0-55.71,18.56,93.56,93.56,0,0,0-33.08,47.07,92.36,92.36,0,0,0-4,22.88c-.07,1.37-.1,2.79-.1,4.33a93,93,0,0,0,1.11,14.39,87.83,87.83,0,0,0,1.79,8.7,90,90,0,0,0,4.08,12.27,92.88,92.88,0,0,0,175.72-11.9c.24-.88.46-1.76.67-2.65.69-3.05,1.22-6.11,1.6-9.1a94.76,94.76,0,0,0,.73-11.71A92.85,92.85,0,0,0,200,57.16Z" fill="#093f68"></path><circle cx="176.63" cy="89.02" r="19.3" fill="#ffbc0e"></circle><path d="M176.63,109.32A20.3,20.3,0,1,1,196.93,89,20.33,20.33,0,0,1,176.63,109.32Zm0-38.6A18.3,18.3,0,1,0,194.93,89,18.32,18.32,0,0,0,176.63,70.72Z" fill="#093f68"></path><path d="M291.49,171c-.21.9-.43,1.79-.67,2.67h-57.5l6.19-11.65,4.57-8.61,5.78-10.3,6.66-11.82,28,31.81Z" fill="#093f68"></path><path d="M290.82,174.71h-57.5a1,1,0,0,1-.86-.48,1,1,0,0,1,0-1L243.2,153l12.45-22.15a1,1,0,0,1,1.62-.17l35,39.71a1,1,0,0,1,.22.89c-.21.91-.43,1.82-.67,2.72A1,1,0,0,1,290.82,174.71Zm-55.84-2h55.07c.12-.46.24-.93.35-1.4L256.7,133,245,153.94Z" fill="#093f68"></path><polygon points="256.52 131.32 258.13 173.72 233.31 173.72 256.52 131.32" fill="#68e1fd"></polygon><path d="M258.13,174.72H233.32a1,1,0,0,1-.86-.49,1,1,0,0,1,0-1l23.2-42.4a1,1,0,0,1,1.11-.49,1,1,0,0,1,.77.94l1.61,42.39a1,1,0,0,1-1,1Zm-23.13-2h22.09L255.66,135Z" fill="#093f68"></path><polygon points="162.97 113.81 135.56 160.59 174.72 176.25 189.47 167.96 162.97 113.81" fill="#68e1fd"></polygon><path d="M174.72,177.25a1,1,0,0,1-.37-.07l-39.17-15.67a1,1,0,0,1-.57-.6,1,1,0,0,1,.08-.83l27.42-46.77a1,1,0,0,1,.9-.5,1,1,0,0,1,.86.56l26.5,54.15a1,1,0,0,1-.41,1.31l-14.75,8.29A1,1,0,0,1,174.72,177.25ZM137,160.09l37.64,15.06,13.51-7.6-25.27-51.62Z" fill="#093f68"></path><path d="M189.47,151.37,163,113.81s-1.15,16.59,3.23,24.66S172.65,168,173.34,168,189.47,151.37,189.47,151.37Z" fill="#093f68"></path><path d="M173.34,169c-1.07,0-1.11-.24-2.11-6.35-1.13-6.87-3-18.35-5.91-23.67-4.47-8.22-3.39-24.51-3.34-25.2a1,1,0,0,1,1.81-.5l26.5,37.55a1,1,0,0,1-.09,1.26C174.47,169,173.9,169,173.34,169Zm-9.48-52.16c-.1,5.06.11,15.47,3.22,21.19s5,17.3,6.12,24.29c.24,1.45.48,2.93.67,3.94,2.63-2.52,9.57-9.85,14.32-14.94Z" fill="#093f68"></path><path d="M212.74,94.46l68,89.17-24.19,1.84s-56.45-24-52.3-43.78S212.74,94.46,212.74,94.46Z" fill="#093f68"></path><path d="M256.52,186.47a1,1,0,0,1-.39-.08c-2.34-1-57.16-24.52-52.89-44.9,4.09-19.57,8.47-46.92,8.51-47.19a1,1,0,0,1,.75-.81,1,1,0,0,1,1,.36l68,89.17a1,1,0,0,1,.11,1,1,1,0,0,1-.83.58l-24.19,1.85ZM213.36,96.91c-1.15,7-4.75,28.69-8.16,45-1.61,7.65,6.74,17.42,24.12,28.25a229.64,229.64,0,0,0,27.37,14.3l22.11-1.68Z" fill="#093f68"></path><path d="M212.74,94.46s12,22.58,11.75,31.33-2.29,13.14,0,15.9,32,43.78,32,43.78H148.46Z" fill="#68e1fd"></path><path d="M256.52,186.47H148.46a1,1,0,0,1-.89-.54,1,1,0,0,1,.07-1l64.29-91a1,1,0,0,1,.88-.42,1,1,0,0,1,.82.53c.49.93,12.1,22.91,11.86,31.83a76.57,76.57,0,0,1-.69,8.06c-.45,3.58-.72,5.75.46,7.17,2.3,2.76,30.86,42.16,32.07,43.83a1,1,0,0,1,.08,1A1,1,0,0,1,256.52,186.47Zm-106.13-2H254.56c-5.5-7.58-28.84-39.74-30.83-42.14-1.74-2.09-1.41-4.72-.91-8.7a77.07,77.07,0,0,0,.67-7.86c.19-7.14-8.28-24.29-10.88-29.39Z" fill="#093f68"></path><path d="M136.48,125.79,182.79,185l-23,2.3s-31.8-29-29.95-36.86S136.48,125.79,136.48,125.79Z" fill="#093f68"></path><path d="M159.75,188.31a1,1,0,0,1-.68-.26c-3.29-3-32.17-29.66-30.25-37.83,1.83-7.77,6.65-24.54,6.7-24.7a1,1,0,0,1,1.74-.34l46.32,59.21a1,1,0,0,1,.13,1,1,1,0,0,1-.82.6l-23,2.31ZM136.9,128c-1.32,4.61-4.68,16.54-6.13,22.72-1.23,5.24,17.19,24.47,29.32,35.59l20.79-2.08Z" fill="#093f68"></path><path d="M159.75,187.32l-26.63-.9-.79,0-19.12-.64a90.73,90.73,0,0,1-4.13-12.41c-.74-2.88-1.35-5.81-1.81-8.79,12.78-16.82,28.65-38,29.2-38.73v0l0,.14,0,.11c-.49,2.25-3.45,16.2,1,19.11,2.11,1.38,3.87,2.12,5.35,3.11,1.92,1.28,3.39,3,4.56,7.08.69,2.43,2.32,6.81,4.17,11.56,1.17,3,2.44,6.19,3.63,9.1.79,1.94,1.53,3.76,2.19,5.36s1.25,3,1.68,4C159.46,186.64,159.75,187.32,159.75,187.32Z" fill="#68e1fd"></path><path d="M159.75,188.32h0l-46.54-1.57a1,1,0,0,1-.89-.61,91,91,0,0,1-4.18-12.55c-.76-3-1.37-5.94-1.83-8.88a1,1,0,0,1,.19-.76c10.23-13.46,22.55-29.87,27.19-36l2-2.68a1,1,0,0,1,1.8.61,1.26,1.26,0,0,1-.05.33s0,.09,0,.16c-1.56,7.14-2.34,16.15.57,18.06,1.08.71,2.05,1.23,3,1.74s1.63.88,2.37,1.37c2.06,1.38,3.69,3.2,5,7.65.6,2.09,1.95,5.84,4.14,11.46,1.09,2.82,2.34,6,3.63,9.09l.35.86c.66,1.62,1.27,3.14,1.83,4.49l.7,1.69,1,2.36c.48,1.16.77,1.84.77,1.84a1,1,0,0,1-.92,1.4Zm-45.86-3.55,44.34,1.49c-.06-.13-.11-.27-.18-.42-.26-.64-.6-1.44-1-2.36l-.69-1.68c-.57-1.36-1.18-2.88-1.84-4.5l-.36-.87c-1.28-3.14-2.54-6.29-3.63-9.11-2.22-5.68-3.59-9.49-4.2-11.64-1.11-3.87-2.41-5.37-4.15-6.53-.66-.44-1.38-.83-2.21-1.28s-2-1.08-3.14-1.83c-3.59-2.35-3.2-10-2.19-16.15-5,6.65-16.57,22.07-26.34,34.92.44,2.74,1,5.52,1.73,8.28A89.06,89.06,0,0,0,113.89,184.77Z" fill="#093f68"></path><path d="M293.11,161.84c-.39,3.12-.94,6.19-1.62,9.2-.21.9-.43,1.79-.67,2.67a93.87,93.87,0,0,1-177.61,12,90.73,90.73,0,0,1-4.13-12.41,16,16,0,0,1,3.81,4.53,4.46,4.46,0,0,1,7.76,4.3,9.74,9.74,0,0,1,11.68,4.22c.11.2.22.4.31.61.15-.2.31-.39.48-.58,4.19-4.8,11.62-6.35,17.51-4,3.16,1.24,2.67,1.68,5.51.47,2-.87,3.61-1.57,5.89-.85a12,12,0,0,1,5.82,4.61,9,9,0,0,1,14.88-5.3c2-10.28,15.87-12.23,19.76-2.09a10,10,0,0,1,14.16,2.13c8.56-7.05,22.95-4.86,29.31,4.09.3.42.57.85.83,1.29.43-.45.87-.88,1.33-1.29a25.35,25.35,0,0,1,3.07-2.4,24.23,24.23,0,0,1,2.5-1.49,27.14,27.14,0,0,1,14.44-3.09,15.79,15.79,0,0,1,1.25-4.77,17.79,17.79,0,0,1,1.59-2.86,17.5,17.5,0,0,1,13.21-7.7h.35c2.25-.08,4.56.22,6.71-.46A10.48,10.48,0,0,0,293.11,161.84Z" fill="#fff"></path><path d="M200,244.84a94.51,94.51,0,0,1-87.71-58.71,91,91,0,0,1-4.18-12.55,1,1,0,0,1,.43-1.09,1,1,0,0,1,1.18.07,17.18,17.18,0,0,1,3.35,3.69,5.43,5.43,0,0,1,8.89,4.49,10.85,10.85,0,0,1,10.86,4.52A17.1,17.1,0,0,1,151,181.47c.68.26,1.19.5,1.61.68,1.3.58,1.3.59,3.14-.2l.09,0c2.09-.89,3.89-1.66,6.49-.85a11.52,11.52,0,0,1,5.07,3.44,10,10,0,0,1,14.73-4.86,11.61,11.61,0,0,1,10-8,10.67,10.67,0,0,1,10.76,6.11A11.15,11.15,0,0,1,216.84,180,21.1,21.1,0,0,1,232,176.39a21.43,21.43,0,0,1,14.76,8.5l.19.27c.16-.16.33-.31.49-.45a27,27,0,0,1,3.17-2.49,26.67,26.67,0,0,1,2.6-1.54,28,28,0,0,1,14-3.25,17,17,0,0,1,1.2-4.12,19.84,19.84,0,0,1,1.68-3,18.6,18.6,0,0,1,14-8.13l.4,0c.61,0,1.26,0,1.91,0a14.4,14.4,0,0,0,4.5-.41,8.92,8.92,0,0,0,1.68-.76,1,1,0,0,1,1.05,0,1,1,0,0,1,.43,1c-.38,3-.93,6.18-1.63,9.3-.22.91-.44,1.82-.68,2.72A94.81,94.81,0,0,1,200,244.84ZM111.12,177c.86,2.83,1.87,5.65,3,8.41a92.88,92.88,0,0,0,175.72-11.9c.24-.88.46-1.76.67-2.65.55-2.44,1-4.89,1.35-7.29l-.33.11a16,16,0,0,1-5.12.5c-.62,0-1.24,0-1.85,0h-.3a16.61,16.61,0,0,0-12.48,7.27,17.37,17.37,0,0,0-1.5,2.71,15,15,0,0,0-1.17,4.45,1,1,0,0,1-1.06.9,26,26,0,0,0-13.9,3,22.72,22.72,0,0,0-2.4,1.43,23.36,23.36,0,0,0-3,2.32c-.43.37-.84.77-1.29,1.24a1,1,0,0,1-.83.3,1,1,0,0,1-.75-.49c-.29-.48-.53-.86-.78-1.2a19.44,19.44,0,0,0-13.39-7.68,18.81,18.81,0,0,0-14.47,3.77,1,1,0,0,1-.79.21,1,1,0,0,1-.69-.44A9,9,0,0,0,203.13,180a1,1,0,0,1-1.57-.41,8.86,8.86,0,0,0-9.24-6,9.54,9.54,0,0,0-8.61,7.93,1,1,0,0,1-1.64.56,8,8,0,0,0-13.24,4.71,1,1,0,0,1-.75.81,1,1,0,0,1-1-.38,10.79,10.79,0,0,0-5.31-4.25c-1.89-.59-3.17,0-5.11.78l-.09,0c-2.46,1.05-2.93,1-4.74.19-.39-.18-.88-.4-1.53-.65a15,15,0,0,0-16.39,3.74c-.15.18-.3.35-.43.53a1,1,0,0,1-.92.39,1,1,0,0,1-.8-.6,4.74,4.74,0,0,0-.26-.5,8.76,8.76,0,0,0-10.44-3.8,1,1,0,0,1-1.29-1.31,3.47,3.47,0,0,0-6-3.33,1,1,0,0,1-.87.41,1,1,0,0,1-.81-.51A13.86,13.86,0,0,0,111.12,177Z" fill="#093f68"></path><path d="M257.4,191.1a14.31,14.31,0,0,0-20.16,5.29c-2.13-3.14-6.94-2.82-10.36-1.2a21.28,21.28,0,0,0-11.75,16.27" fill="#fff"></path><path d="M215.13,212.46H215a1,1,0,0,1-.87-1.12,22.36,22.36,0,0,1,12.31-17.05c3.49-1.66,8-1.92,10.64.42a15.31,15.31,0,0,1,20.84-4.46,1,1,0,1,1-1.06,1.7,13.32,13.32,0,0,0-18.75,4.91,1,1,0,0,1-1.7.09c-1.75-2.57-5.91-2.38-9.11-.85a20.31,20.31,0,0,0-11.19,15.49A1,1,0,0,1,215.13,212.46Z" fill="#093f68"></path><path d="M168.22,186.68c2.85.79,5.93.64,8.66,1.76A10.2,10.2,0,0,1,182.66,200a26,26,0,0,1,7.09-2,9.09,9.09,0,0,1,6.92,2,10.46,10.46,0,0,1,2.89,6,16.67,16.67,0,0,1-1.86,11.8c1.67-1.07,3.88-.28,5.67.6,2.32,1.15,4.71,2.55,5.87,4.87,1.79,3.59,0,7.85-.11,11.86" fill="#fff"></path><path d="M209.13,236.09h0a1,1,0,0,1-1-1,32.49,32.49,0,0,1,.46-4.07c.43-2.66.83-5.18-.24-7.32s-3.21-3.32-5.43-4.42-3.69-1.29-4.69-.66a1,1,0,0,1-1.24-.13,1,1,0,0,1-.14-1.24,15.48,15.48,0,0,0,1.72-11.09,9.27,9.27,0,0,0-2.58-5.42,8.07,8.07,0,0,0-6.15-1.72A24.89,24.89,0,0,0,183,201a1,1,0,0,1-1.33-1.18,9.23,9.23,0,0,0-5.2-10.4,18.52,18.52,0,0,0-4.7-1,27.33,27.33,0,0,1-3.83-.7,1,1,0,0,1-.7-1.23,1,1,0,0,1,1.23-.69,28.07,28.07,0,0,0,3.56.64,20.08,20.08,0,0,1,5.21,1.16,11.24,11.24,0,0,1,6.66,10.94,22.68,22.68,0,0,1,5.74-1.45,10.05,10.05,0,0,1,7.68,2.23,11.19,11.19,0,0,1,3.2,6.54,18.45,18.45,0,0,1-.93,10.47,10,10,0,0,1,4.2,1.22c2.53,1.25,5.05,2.75,6.32,5.31,1.36,2.72.89,5.68.44,8.54a29.52,29.52,0,0,0-.44,3.8A1,1,0,0,1,209.13,236.09Z" fill="#093f68"></path><path d="M133.81,208.83a10.16,10.16,0,0,1,16.8,9.24c2.41-2.42,6.15-3.06,9.54-2.61A18.72,18.72,0,0,1,174,225" fill="#fff"></path><path d="M174,226a1,1,0,0,1-.88-.53,17.7,17.7,0,0,0-13.09-9c-3.59-.47-6.76.38-8.7,2.33a1,1,0,0,1-1.69-.87,9.17,9.17,0,0,0-15.15-8.33,1,1,0,0,1-1.33-1.49A11.13,11.13,0,0,1,151.72,216a13.38,13.38,0,0,1,8.56-1.49,19.76,19.76,0,0,1,14.59,10.07,1,1,0,0,1-.4,1.35A1,1,0,0,1,174,226Z" fill="#093f68"></path><path d="M169.85,228.63c2.81-3.64,7.52-6.2,12-5.1,3.36.82,5.91,3.47,8.27,6" fill="#fff"></path><path d="M190.1,230.53a1,1,0,0,1-.73-.32c-2.05-2.2-4.6-4.93-7.78-5.71-4.23-1-8.55,1.63-10.94,4.74a1,1,0,0,1-1.59-1.22c2.79-3.62,7.9-6.72,13-5.46,3.76.92,6.53,3.9,8.76,6.29a1,1,0,0,1-.73,1.68Z" fill="#093f68"></path><path d="M289.34,121.2c-4.9.39-9.84.44-14.75.49q-13.92.15-27.83.27c-1.32,0-3.13-.44-3-1.76a2.26,2.26,0,0,1,.71-1.25,15.31,15.31,0,0,1,13.05-4.66c-1.58-1.83-.91-4.81.79-6.52s4.11-2.45,6.41-3.14,5.16-1.2,6.71.61a14.22,14.22,0,0,1,5.45-9.09A93.2,93.2,0,0,1,289.34,121.2Z" fill="#fff"></path><path d="M246.68,123a4.84,4.84,0,0,1-3.34-1.15,2.21,2.21,0,0,1-.6-1.71,3.28,3.28,0,0,1,1-1.85,16.34,16.34,0,0,1,11.83-5.11h.24a6.58,6.58,0,0,1,1.79-6.1c1.89-1.91,4.51-2.7,6.83-3.39,1.89-.56,4.4-1.1,6.35-.17a15.08,15.08,0,0,1,5.5-8.14,1,1,0,0,1,.76-.19,1,1,0,0,1,.66.41,93.8,93.8,0,0,1,12.61,25.31,1,1,0,0,1-.87,1.3c-4.93.39-9.95.44-14.81.49q-13.94.16-27.84.28Zm8.86-7.82a14.28,14.28,0,0,0-10.36,4.48,1.57,1.57,0,0,0-.44.67s0,.09.06.16a3.23,3.23,0,0,0,1.94.5q13.93-.12,27.84-.28c4.41,0,8.95-.09,13.41-.39a92.21,92.21,0,0,0-11.33-22.68,13.13,13.13,0,0,0-4.26,7.78,1,1,0,0,1-.72.81,1,1,0,0,1-1-.31c-.92-1.08-2.72-1.18-5.67-.31-2.18.66-4.45,1.34-6,2.89-1.35,1.35-2,3.75-.75,5.16a1,1,0,0,1,.13,1.13,1,1,0,0,1-1,.52A12.28,12.28,0,0,0,255.54,115.15Z" fill="#093f68"></path><path d="M139.26,140.83c-.3,1-1.59,1.32-2.65,1.44l-30.17,3.34-.19,0a93.36,93.36,0,0,1,4-23.13,13.45,13.45,0,0,1,3.58,6.57c2-1.25,4.61-2.34,7-1.47s3.78,4.22,2.06,6.08c5.28,2.12,12.48.62,15.81,5.24A2.32,2.32,0,0,1,139.26,140.83Z" fill="#fff"></path><path d="M106.34,146.62a1.12,1.12,0,0,1-.74-.28,1.06,1.06,0,0,1-.35-.76,94.91,94.91,0,0,1,4-23.38,1,1,0,0,1,1.68-.4,15,15,0,0,1,3.5,5.76c2.55-1.32,4.76-1.61,6.73-.91a5.52,5.52,0,0,1,3.34,3.84,4.36,4.36,0,0,1-.13,2.64,33.3,33.3,0,0,0,5,.91c3.84.5,7.81,1,10.16,4.29a3.16,3.16,0,0,1,.68,2.78c-.53,1.81-2.76,2.07-3.5,2.15l-30.17,3.34h-.21Zm4.34-22.07a93,93,0,0,0-3.37,20l29.19-3.23c1.43-.16,1.74-.52,1.8-.72h0a1.47,1.47,0,0,0-.38-1c-1.85-2.57-5.22-3-8.8-3.48a27,27,0,0,1-6.57-1.42,1,1,0,0,1-.61-.71,1,1,0,0,1,.25-.89,2.22,2.22,0,0,0,.41-2,3.51,3.51,0,0,0-2.08-2.43c-1.65-.6-3.67-.15-6.17,1.38a1,1,0,0,1-.92.06,1,1,0,0,1-.58-.72A11.67,11.67,0,0,0,110.68,124.55Z" fill="#093f68"></path></svg>