<svg id="illustration" width="768" height="340" viewBox="0 0 768 340" xmlns="http://www.w3.org/2000/svg" xmlns:xlink="http://www.w3.org/1999/xlink">
<symbol id="triangle" viewBox="0 0 100 100">
<polygon points="0,100 100,100 50,0"></polygon>
</symbol>
<rect width="768" height="340" fill="#1098ad"></rect>
<g class="patterns"><use xlink:href="#triangle" width="100" height="100" fill="#000000" fill-opacity="0.15" transform="translate(271.5669568109112 110.02143528508519) scale(3.773453855317369) rotate(245.48613959598228)"></use><use xlink:href="#triangle" width="100" height="100" fill="#000000" fill-opacity="0.15" transform="translate(87.71176494141912 321.12265354283767) scale(1.365102755295004) rotate(228.74575021212746)"></use><use xlink:href="#triangle" width="100" height="100" fill="#000000" fill-opacity="0.15" transform="translate(56.827943621852285 254.4542356419454) scale(1.6371206718332036) rotate(17.298215227260947)"></use><use xlink:href="#triangle" width="100" height="100" fill="#000000" fill-opacity="0.15" transform="translate(354.06557896907077 337.1812906248568) scale(3.2492645339270902) rotate(88.50563223231838)"></use><use xlink:href="#triangle" width="100" height="100" fill="#000000" fill-opacity="0.15" transform="translate(296.26152554242236 124.61541787506373) scale(2.386939298405267) rotate(167.10528180032668)"></use><use xlink:href="#triangle" width="100" height="100" fill="#000000" fill-opacity="0.15" transform="translate(442.1220316231155 38.46775674399784) scale(2.4086994003200024) rotate(137.5050086047121)"></use><use xlink:href="#triangle" width="100" height="100" fill="#000000" fill-opacity="0.15" transform="translate(279.9603211904999 113.16722740784354) scale(1.2678400313493572) rotate(91.969740708867)"></use><use xlink:href="#triangle" width="100" height="100" fill="#000000" fill-opacity="0.15" transform="translate(647.5041963122801 298.2977395787331) scale(1.943597125062775) rotate(174.39410995282472)"></use><use xlink:href="#triangle" width="100" height="100" fill="#000000" fill-opacity="0.15" transform="translate(19.04261787046397 286.4713301549292) scale(3.9731291131120714) rotate(236.12891268203418)"></use><use xlink:href="#triangle" width="100" height="100" fill="#000000" fill-opacity="0.15" transform="translate(651.7744914729076 315.7986744894972) scale(1.8469864358633088) rotate(42.94483412895331)"></use><use xlink:href="#triangle" width="100" height="100" fill="#000000" fill-opacity="0.15" transform="translate(316.57628606134034 82.12979046180867) scale(1.1752139546450462) rotate(192.7430619367006)"></use><use xlink:href="#triangle" width="100" height="100" fill="#000000" fill-opacity="0.15" transform="translate(345.624202532702 16.234814096030803) scale(3.9577909319223004) rotate(28.781579869780415)"></use><use xlink:href="#triangle" width="100" height="100" fill="#000000" fill-opacity="0.15" transform="translate(352.1274366781548 231.13140962263972) scale(2.924590835625052) rotate(18.112285504421735)"></use><use xlink:href="#triangle" width="100" height="100" fill="#000000" fill-opacity="0.15" transform="translate(96.74940808928807 268.8061003805626) scale(3.5945089996352246) rotate(332.953978694624)"></use><use xlink:href="#triangle" width="100" height="100" fill="#000000" fill-opacity="0.15" transform="translate(615.3997179915107 25.657277596123947) scale(3.807549800560845) rotate(272.75362543270626)"></use><use xlink:href="#triangle" width="100" height="100" fill="#000000" fill-opacity="0.15" transform="translate(77.39549720321406 120.61358084452769) scale(3.6124265484439606) rotate(203.8559458260793)"></use><use xlink:href="#triangle" width="100" height="100" fill="#000000" fill-opacity="0.15" transform="translate(442.325652939545 277.25219773293435) scale(3.3666074739060265) rotate(78.8610856378748)"></use><use xlink:href="#triangle" width="100" height="100" fill="#000000" fill-opacity="0.15" transform="translate(284.3465592327911 228.34080228809134) scale(3.408622098663808) rotate(336.6403242290451)"></use><use xlink:href="#triangle" width="100" height="100" fill="#000000" fill-opacity="0.15" transform="translate(145.9720524293275 123.14122374180718) scale(2.06566854931146) rotate(83.140168469808)"></use><use xlink:href="#triangle" width="100" height="100" fill="#000000" fill-opacity="0.15" transform="translate(664.9011598790962 190.19335404121057) scale(1.2519654613769147) rotate(320.69571218332516)"></use><use xlink:href="#triangle" width="100" height="100" fill="#000000" fill-opacity="0.15" transform="translate(652.2844994834104 141.7316914723562) scale(1.1459824689200429) rotate(347.8729935467804)"></use><use xlink:href="#triangle" width="100" height="100" fill="#000000" fill-opacity="0.15" transform="translate(114.70054907200898 214.93983571540363) scale(1.6384880034705798) rotate(106.94163879272875)"></use><use xlink:href="#triangle" width="100" height="100" fill="#000000" fill-opacity="0.15" transform="translate(3.293928420570637 1.1360971929596664) scale(2.9871938978284005) rotate(102.81320363016282)"></use><use xlink:href="#triangle" width="100" height="100" fill="#000000" fill-opacity="0.15" transform="translate(765.0820425279107 49.65506482307559) scale(2.74567633678722) rotate(138.41798052878434)"></use><use xlink:href="#triangle" width="100" height="100" fill="#000000" fill-opacity="0.15" transform="translate(373.61714532416585 247.74586798987332) scale(3.0316098337532065) rotate(273.3836610550216)"></use><use xlink:href="#triangle" width="100" height="100" fill="#000000" fill-opacity="0.15" transform="translate(109.2340662456545 189.34086205349837) scale(1.2939857420388132) rotate(46.07878618242958)"></use><use xlink:href="#triangle" width="100" height="100" fill="#000000" fill-opacity="0.15" transform="translate(349.5388460100077 59.0518412002333) scale(2.5015934571734406) rotate(18.674755157579384)"></use><use xlink:href="#triangle" width="100" height="100" fill="#000000" fill-opacity="0.15" transform="translate(114.64230370320087 279.5274489618509) scale(1.0544955571390762) rotate(103.5001262391817)"></use><use xlink:href="#triangle" width="100" height="100" fill="#000000" fill-opacity="0.15" transform="translate(7.540677930302536 54.77961093983075) scale(3.5275822894809883) rotate(236.39726461622007)"></use><use xlink:href="#triangle" width="100" height="100" fill="#000000" fill-opacity="0.15" transform="translate(287.5598260528059 109.46160193579408) scale(1.833591445900536) rotate(195.3983056793236)"></use><use xlink:href="#triangle" width="100" height="100" fill="#000000" fill-opacity="0.15" transform="translate(18.303295535148266 182.0933134311752) scale(2.447135832789386) rotate(317.08613340310967)"></use><use xlink:href="#triangle" width="100" height="100" fill="#000000" fill-opacity="0.15" transform="translate(139.34799544556444 167.165662553685) scale(1.9052671783584396) rotate(111.67748933505125)"></use><use xlink:href="#triangle" width="100" height="100" fill="#000000" fill-opacity="0.15" transform="translate(13.457390886976441 321.54986928803874) scale(3.76504954195397) rotate(358.5778727649621)"></use><use xlink:href="#triangle" width="100" height="100" fill="#000000" fill-opacity="0.15" transform="translate(761.8566201893447 118.2443982314881) scale(1.970076145369235) rotate(195.35052595770003)"></use><use xlink:href="#triangle" width="100" height="100" fill="#000000" fill-opacity="0.15" transform="translate(347.2242434850925 28.317466887374692) scale(2.0959980264581666) rotate(295.9930388855867)"></use><use xlink:href="#triangle" width="100" height="100" fill="#000000" fill-opacity="0.15" transform="translate(484.5099958736386 196.29351240095914) scale(2.7697793044992496) rotate(214.60138323766822)"></use><use xlink:href="#triangle" width="100" height="100" fill="#000000" fill-opacity="0.15" transform="translate(318.0754757885076 139.29045666124753) scale(2.799891831225467) rotate(236.10038185629202)"></use><use xlink:href="#triangle" width="100" height="100" fill="#000000" fill-opacity="0.15" transform="translate(613.0497387048549 79.86192234678353) scale(3.919791897873015) rotate(46.508895694400856)"></use><use xlink:href="#triangle" width="100" height="100" fill="#000000" fill-opacity="0.15" transform="translate(201.99386050068716 330.89440219866736) scale(2.78773369848659) rotate(311.49387671624316)"></use><use xlink:href="#triangle" width="100" height="100" fill="#000000" fill-opacity="0.15" transform="translate(474.854448533835 296.6968690199422) scale(1.1025144070082185) rotate(305.43702768322476)"></use></g><g class="patterns"><use xlink:href="#triangle" width="100" height="100" fill="#ffffff" fill-opacity="0.4" transform="translate(357.1074509096686 284.96880586804957) scale(1.4936878965346103) rotate(209.68974517067375)"></use><use xlink:href="#triangle" width="100" height="100" fill="#ffffff" fill-opacity="0.4" transform="translate(648.3667971385578 272.77904321604547) scale(3.6275007961288983) rotate(212.06589522245537)"></use><use xlink:href="#triangle" width="100" height="100" fill="#ffffff" fill-opacity="0.4" transform="translate(134.25744804087026 138.73651963423674) scale(1.150842807889829) rotate(151.01468411333738)"></use><use xlink:href="#triangle" width="100" height="100" fill="#ffffff" fill-opacity="0.4" transform="translate(632.5965004143742 275.23100887247955) scale(1.0071533420508663) rotate(357.3107910799611)"></use><use xlink:href="#triangle" width="100" height="100" fill="#ffffff" fill-opacity="0.4" transform="translate(216.84637883647991 318.1017306148882) scale(1.987117339842972) rotate(215.0360547039223)"></use><use xlink:href="#triangle" width="100" height="100" fill="#ffffff" fill-opacity="0.4" transform="translate(377.81274645251574 252.12903937280146) scale(2.9901329656588143) rotate(21.168071190440727)"></use><use xlink:href="#triangle" width="100" height="100" fill="#ffffff" fill-opacity="0.4" transform="translate(464.89382034199605 70.38381700927046) scale(2.59517363760148) rotate(173.8305688320984)"></use><use xlink:href="#triangle" width="100" height="100" fill="#ffffff" fill-opacity="0.4" transform="translate(680.6898255581684 200.8116647078893) scale(3.557349567361207) rotate(319.24057628023206)"></use><use xlink:href="#triangle" width="100" height="100" fill="#ffffff" fill-opacity="0.4" transform="translate(267.26647684686907 290.9763792840754) scale(3.855481793264066) rotate(324.3857743232623)"></use><use xlink:href="#triangle" width="100" height="100" fill="#ffffff" fill-opacity="0.4" transform="translate(30.42390029476053 183.95720634476697) scale(2.7671531826113407) rotate(153.6347406563058)"></use><use xlink:href="#triangle" width="100" height="100" fill="#ffffff" fill-opacity="0.4" transform="translate(569.1861213016908 146.0662405128321) scale(1.79365710844092) rotate(69.2388817181733)"></use><use xlink:href="#triangle" width="100" height="100" fill="#ffffff" fill-opacity="0.4" transform="translate(648.0748595642724 291.8785006574231) scale(2.2566002715654823) rotate(257.6861589563858)"></use><use xlink:href="#triangle" width="100" height="100" fill="#ffffff" fill-opacity="0.4" transform="translate(352.89163171528793 318.46376663577024) scale(2.1782020816859067) rotate(98.7789285012974)"></use><use xlink:href="#triangle" width="100" height="100" fill="#ffffff" fill-opacity="0.4" transform="translate(249.06568397061073 266.7917298375929) scale(1.9272162397085977) rotate(3.311373735711287)"></use><use xlink:href="#triangle" width="100" height="100" fill="#ffffff" fill-opacity="0.4" transform="translate(21.938075811089732 83.79612189603795) scale(1.200932283784664) rotate(108.89873562292463)"></use><use xlink:href="#triangle" width="100" height="100" fill="#ffffff" fill-opacity="0.4" transform="translate(266.52841347863085 196.3854539128375) scale(2.813653022292871) rotate(140.32547918810778)"></use><use xlink:href="#triangle" width="100" height="100" fill="#ffffff" fill-opacity="0.4" transform="translate(428.16398323672064 306.4990499486492) scale(2.0949545123399647) rotate(2.1423946641404523)"></use><use xlink:href="#triangle" width="100" height="100" fill="#ffffff" fill-opacity="0.4" transform="translate(339.8557597257582 305.0307211500853) scale(3.9267015925934126) rotate(292.74385652071976)"></use><use xlink:href="#triangle" width="100" height="100" fill="#ffffff" fill-opacity="0.4" transform="translate(690.9583567727084 244.42881142933322) scale(3.7530644339302723) rotate(110.31595501065551)"></use><use xlink:href="#triangle" width="100" height="100" fill="#ffffff" fill-opacity="0.4" transform="translate(67.25982962383767 194.59566189131206) scale(2.399536439142195) rotate(135.15316032999212)"></use><use xlink:href="#triangle" width="100" height="100" fill="#ffffff" fill-opacity="0.4" transform="translate(725.3483186050362 197.2090965552772) scale(3.5314362897107814) rotate(240.6783831708659)"></use><use xlink:href="#triangle" width="100" height="100" fill="#ffffff" fill-opacity="0.4" transform="translate(561.7456770357114 328.479649675704) scale(1.3341908903261133) rotate(223.21145254266514)"></use><use xlink:href="#triangle" width="100" height="100" fill="#ffffff" fill-opacity="0.4" transform="translate(547.5534856536481 333.76502370657926) scale(3.1710245400240056) rotate(306.20559796935)"></use><use xlink:href="#triangle" width="100" height="100" fill="#ffffff" fill-opacity="0.4" transform="translate(639.8977395390527 98.76078020265199) scale(2.8250100031612293) rotate(10.630456760698559)"></use><use xlink:href="#triangle" width="100" height="100" fill="#ffffff" fill-opacity="0.4" transform="translate(140.25253948731842 298.9938182772385) scale(3.0450787024313146) rotate(285.37120429322965)"></use><use xlink:href="#triangle" width="100" height="100" fill="#ffffff" fill-opacity="0.4" transform="translate(575.0758537746879 129.70920915092412) scale(2.6297760661035268) rotate(275.8234878654588)"></use><use xlink:href="#triangle" width="100" height="100" fill="#ffffff" fill-opacity="0.4" transform="translate(498.3171305079559 45.503158606269764) scale(1.557208205220435) rotate(40.00120329523827)"></use><use xlink:href="#triangle" width="100" height="100" fill="#ffffff" fill-opacity="0.4" transform="translate(403.71979144856704 143.88390088310175) scale(2.7279143435220363) rotate(110.86924442443583)"></use><use xlink:href="#triangle" width="100" height="100" fill="#ffffff" fill-opacity="0.4" transform="translate(619.4270395734327 182.17368861882673) scale(3.5084433339466785) rotate(246.97312445489453)"></use><use xlink:href="#triangle" width="100" height="100" fill="#ffffff" fill-opacity="0.4" transform="translate(420.17376338397963 17.65258978952822) scale(1.8509546199555733) rotate(301.01845297267676)"></use></g></svg>