<svg width="56" height="48" viewBox="0 0 56 48" fill="none" xmlns="http://www.w3.org/2000/svg">
<path d="M52 0H20C17.79 0 16 1.79 16 4V8H4C1.79 8 0 9.79 0 12V47C0 47.41 0.25 47.78 0.64 47.93C0.76 47.98 0.88 48 1 48C1.28 48 1.55 47.89 1.74 47.67L11.44 37H36C38.21 37 40 35.21 40 33V29H44.56L54.26 39.67C54.45 39.89 54.72 40 55 40C55.12 40 55.24 39.98 55.36 39.93C55.75 39.78 56 39.41 56 39V4C56 1.79 54.21 0 52 0ZM25.5 9C25.5 8.72 25.72 8.5 26 8.5H34C34.28 8.5 34.5 8.72 34.5 9V15C34.5 15.07 34.43 21.5 28 21.5C27.82 21.5 27.65 21.4 27.56 21.24C27.47 21.07 27.48 20.88 27.58 20.72C27.6 20.7 29.28 18.14 29.48 15.5H26C25.72 15.5 25.5 15.28 25.5 15V9ZM38 33C38 34.1 37.1 35 36 35H11C10.72 35 10.45 35.12 10.26 35.33L2 44.41V12C2 10.9 2.9 10 4 10H16V25C16 27.21 17.79 29 20 29H38V33ZM46.5 15C46.5 15.07 46.43 21.5 40 21.5C39.82 21.5 39.65 21.4 39.56 21.24C39.47 21.07 39.48 20.88 39.58 20.72C39.6 20.7 41.28 18.14 41.48 15.5H38C37.72 15.5 37.5 15.28 37.5 15V9C37.5 8.72 37.72 8.5 38 8.5H46C46.28 8.5 46.5 8.72 46.5 9V15Z" fill="#333333"/>
</svg>
