<?xml version="1.0" standalone="no"?>
<!DOCTYPE svg PUBLIC "-//W3C//DTD SVG 20010904//EN"
 "http://www.w3.org/TR/2001/REC-SVG-20010904/DTD/svg10.dtd">
<svg version="1.0" xmlns="http://www.w3.org/2000/svg"
 width="1447.000000pt" height="1436.000000pt" viewBox="0 0 1447.000000 1436.000000"
 preserveAspectRatio="xMidYMid meet">

<g transform="translate(0.000000,1436.000000) scale(0.100000,-0.100000)"
fill="#000000" stroke="none">
<path d="M6785 13819 c-2063 -122 -3972 -1229 -5118 -2969 -852 -1294 -1219
-2837 -1046 -4395 215 -1947 1295 -3705 2939 -4788 1294 -852 2837 -1219 4395
-1046 2799 310 5105 2382 5720 5138 230 1034 204 2169 -75 3197 -641 2358
-2557 4185 -4949 4719 -577 128 -1249 180 -1866 144z m741 -169 c1943 -113
3699 -1055 4855 -2605 753 -1011 1194 -2235 1269 -3519 69 -1193 -246 -2480
-870 -3556 -1092 -1881 -3058 -3083 -5254 -3210 -1193 -69 -2480 246 -3556
870 -1881 1092 -3083 3058 -3210 5254 -69 1193 246 2480 870 3556 719 1238
1839 2208 3177 2749 853 344 1840 512 2719 461z"/>
<path d="M6247 13335 c-28 -26 -46 -35 -73 -35 -40 0 -81 -19 -107 -50 -12
-14 -24 -19 -37 -15 -32 10 -89 -24 -115 -70 -27 -45 -31 -81 -14 -118 9 -20
6 -33 -15 -75 -32 -63 -33 -102 -2 -168 26 -56 62 -89 106 -99 22 -5 30 -12
30 -28 0 -31 -9 -40 -65 -62 -76 -31 -86 -87 -28 -155 25 -31 26 -34 14 -81
-22 -85 4 -154 80 -209 33 -24 52 -30 91 -30 56 0 105 -18 132 -48 45 -51 152
-28 195 41 27 44 47 52 79 31 14 -9 42 -17 61 -18 33 -1 36 -4 39 -32 2 -23
-6 -41 -32 -73 -20 -24 -36 -49 -36 -55 0 -33 24 -73 55 -94 19 -12 35 -29 35
-37 0 -28 22 -60 55 -83 41 -26 43 -45 14 -121 -25 -68 -17 -95 34 -105 19 -4
51 -19 71 -34 19 -15 45 -34 56 -42 12 -8 27 -34 36 -58 8 -24 39 -72 68 -107
30 -35 62 -76 72 -90 26 -40 67 -57 120 -49 53 8 69 -3 79 -53 14 -77 44 -98
159 -109 65 -6 72 -10 111 -49 23 -24 55 -46 73 -49 17 -4 43 -22 58 -39 22
-26 25 -38 21 -74 -7 -67 -42 -103 -149 -155 -83 -40 -113 -49 -253 -72 -289
-48 -373 -80 -520 -197 -99 -78 -135 -97 -249 -128 -42 -12 -108 -37 -146 -56
-94 -47 -155 -45 -293 11 -32 13 -71 24 -87 24 -16 0 -49 9 -75 20 -53 23
-201 125 -256 177 -30 28 -41 33 -63 27 -15 -4 -44 -1 -64 5 -30 10 -42 10
-65 -2 -32 -17 -67 -12 -67 10 0 7 16 23 36 35 28 16 34 26 32 47 -3 22 -8 26
-40 29 -33 3 -44 -3 -89 -45 -60 -56 -119 -141 -119 -172 0 -26 38 -88 74
-118 14 -13 26 -29 26 -36 0 -19 -28 -42 -70 -59 -54 -23 -65 -41 -51 -86 7
-20 11 -61 9 -91 -3 -56 3 -65 57 -84 20 -7 -15 -57 -56 -77 l-41 -21 7 -57
c8 -68 23 -103 50 -117 11 -5 35 -20 53 -33 25 -19 31 -28 26 -47 -10 -41 4
-64 47 -75 48 -13 63 -42 57 -115 -4 -52 -53 -160 -111 -246 -17 -25 -17 -29
3 -100 28 -104 30 -182 5 -209 -27 -30 -68 -50 -102 -50 -15 0 -48 -9 -72 -21
-25 -11 -61 -19 -80 -17 -24 1 -59 -10 -103 -31 -52 -26 -74 -32 -95 -26 -15
5 -59 9 -96 9 -64 1 -70 3 -95 34 -37 44 -76 44 -102 -1 -11 -19 -31 -39 -44
-45 -40 -18 -93 -25 -100 -13 -11 17 -41 13 -61 -9 -16 -18 -17 -23 -5 -45 16
-30 4 -47 -52 -76 -24 -12 -58 -46 -89 -89 -54 -74 -94 -100 -153 -100 -39 0
-104 -28 -126 -55 -7 -9 -27 -23 -44 -32 -17 -9 -76 -57 -131 -108 -60 -55
-116 -97 -138 -104 -53 -18 -72 -57 -58 -119 6 -26 15 -209 19 -407 7 -286 12
-367 24 -396 10 -23 39 -53 86 -87 79 -59 97 -91 89 -158 -4 -43 -26 -81 -102
-186 -34 -46 -29 -61 39 -133 37 -38 78 -101 132 -203 141 -266 268 -436 473
-635 61 -59 116 -119 122 -134 19 -51 -9 -116 -246 -558 -64 -121 -123 -237
-131 -259 -33 -92 -6 -177 63 -195 49 -14 175 -114 217 -174 71 -99 81 -137
81 -293 0 -128 2 -144 20 -164 30 -33 63 -47 132 -55 74 -8 156 -45 240 -109
113 -86 185 -191 222 -325 11 -40 27 -84 35 -96 8 -13 54 -42 103 -67 68 -34
95 -54 119 -88 55 -77 83 -103 102 -95 9 4 46 9 82 12 89 7 171 -15 300 -83
330 -171 338 -174 590 -220 274 -49 325 -59 337 -67 7 -4 24 -47 39 -95 14
-48 38 -125 54 -172 51 -153 64 -306 37 -455 -54 -304 -54 -303 -36 -353 6
-18 35 -68 64 -112 36 -53 56 -94 60 -124 9 -60 36 -100 91 -139 26 -17 110
-76 187 -131 144 -102 204 -129 234 -104 19 16 13 74 -22 217 -14 57 -24 106
-21 109 3 2 50 -3 104 -12 54 -9 154 -16 222 -17 69 0 150 -4 181 -8 73 -9
102 -1 113 31 18 51 -16 85 -163 163 -207 109 -225 131 -345 430 -18 44 -59
121 -91 170 -32 50 -69 106 -81 125 -42 64 -101 204 -117 275 -25 112 -29 221
-9 244 24 28 184 96 337 142 133 41 192 72 229 122 23 31 24 43 15 482 -5 228
-6 222 82 382 64 116 142 199 244 259 84 49 94 69 77 152 -20 97 -15 131 42
293 134 381 153 409 371 522 149 79 335 235 437 370 33 43 76 88 96 101 21 13
43 30 50 39 7 9 25 80 38 159 14 79 47 256 74 394 70 361 128 797 116 881 -8
63 -35 107 -127 213 -45 52 -147 172 -225 265 -78 94 -166 193 -195 222 -55
53 -202 160 -320 233 -37 22 -110 78 -164 123 -54 45 -106 88 -116 96 -17 12
-30 8 -113 -33 -125 -61 -156 -71 -262 -86 -149 -20 -297 14 -342 78 -51 73
-24 151 86 253 142 131 274 218 549 360 133 69 165 82 180 73 17 -10 18 -35
18 -358 0 -297 2 -348 15 -356 8 -5 41 -10 73 -10 69 0 92 -10 101 -45 3 -13
18 -32 31 -41 21 -14 32 -15 70 -5 25 6 68 8 98 5 68 -8 93 5 101 50 4 22 25
55 55 88 l48 52 44 -17 c55 -21 73 -21 90 -1 11 13 10 20 -5 42 -97 149 -87
241 24 226 59 -8 66 1 49 66 -11 44 -11 52 4 68 21 22 21 49 2 82 -8 14 -14
39 -15 56 0 30 18 94 26 94 2 0 37 -9 76 -20 40 -11 91 -20 114 -20 38 0 47 5
103 65 108 116 230 316 395 645 83 168 175 361 203 430 89 222 121 289 186
403 35 62 70 128 77 147 8 19 22 48 33 64 l20 29 24 -29 c55 -66 65 -74 98
-74 19 0 41 7 49 16 33 32 13 123 -38 179 -38 41 -40 64 -15 131 12 32 23 79
23 104 1 38 -2 45 -19 48 -14 2 -26 -8 -38 -30 l-19 -33 -34 40 c-18 22 -39
56 -45 75 -6 19 -18 42 -26 51 -10 13 -12 32 -7 82 6 61 5 67 -19 91 -39 39
-63 34 -88 -19 -12 -25 -25 -48 -30 -51 -18 -11 -45 8 -81 57 -38 53 -52 97
-86 274 -19 98 -51 189 -93 270 -12 22 -39 74 -61 115 -100 188 -253 334 -465
442 l-101 52 -36 -16 c-59 -28 -92 -113 -77 -194 7 -37 18 -56 42 -76 27 -23
30 -28 16 -34 -57 -22 59 -264 207 -434 112 -128 268 -252 388 -309 64 -31
152 -129 179 -200 33 -88 19 -175 -56 -338 -27 -59 -35 -90 -40 -165 -18 -254
-72 -455 -176 -660 l-62 -121 -199 -196 c-110 -108 -208 -197 -220 -199 -70
-12 -78 114 -11 177 27 26 27 48 -1 116 -27 63 -77 67 -229 20 -92 -29 -141
-31 -183 -7 -39 21 -142 136 -219 243 -54 74 -72 112 -120 244 -13 35 -36 67
-78 107 -58 55 -60 58 -54 99 3 22 21 67 41 98 20 33 42 87 51 129 9 39 25 82
35 95 26 33 97 51 171 44 50 -6 70 -3 126 20 37 15 84 42 105 61 32 29 38 41
38 75 0 30 -6 46 -26 64 -26 24 -27 28 -21 106 4 61 2 88 -10 110 -14 27 -13
31 12 69 48 72 31 104 -96 183 -24 15 -37 34 -50 73 -10 28 -34 79 -54 111
-35 57 -37 62 -30 121 9 75 -3 96 -81 146 -40 26 -54 41 -54 58 0 15 -17 42
-45 70 -47 49 -48 51 -49 131 -2 100 -79 194 -159 195 -40 0 -92 24 -139 65
-23 19 -47 35 -53 35 -28 0 -164 76 -206 115 -28 26 -63 48 -89 55 -41 11 -45
10 -121 -35 -87 -50 -94 -50 -131 4 -34 51 -70 73 -118 75 -37 1 -47 -4 -75
-37 -38 -43 -56 -46 -83 -12 -29 37 -87 58 -136 50 -61 -9 -84 -25 -140 -101
-31 -42 -60 -70 -73 -72 -12 -2 -56 11 -98 27 -93 38 -128 39 -189 6 -37 -20
-62 -25 -117 -25 -69 0 -69 0 -69 28 0 54 34 66 76 27 15 -14 32 -24 38 -22
18 6 56 89 56 125 0 27 -9 43 -39 73 -47 48 -81 50 -157 12 -51 -26 -53 -26
-79 -9 -19 13 -24 22 -19 34 4 9 9 33 11 52 4 30 -1 40 -31 69 -45 43 -47 75
-6 96 40 21 47 19 65 -15 19 -37 38 -38 53 -5 19 42 102 67 102 31 0 -6 -9
-17 -20 -24 -49 -31 -1 -80 66 -68 64 12 95 78 74 154 -9 34 -25 54 -83 102
-40 33 -85 78 -102 101 -37 51 -71 69 -127 69 -36 0 -50 -6 -81 -35z m447
-3782 c-4 -38 -8 -147 -9 -243 -1 -197 -24 -379 -57 -448 -20 -43 -102 -118
-162 -149 -63 -33 -247 -29 -265 5 -11 21 3 72 62 222 28 70 56 167 71 243 39
196 61 234 195 337 163 123 177 126 165 33z"/>
</g>
</svg>
