<?xml version="1.0" standalone="no"?>
<!DOCTYPE svg PUBLIC "-//W3C//DTD SVG 20010904//EN"
 "http://www.w3.org/TR/2001/REC-SVG-20010904/DTD/svg10.dtd">
<svg version="1.0" xmlns="http://www.w3.org/2000/svg"
 width="1261.000000pt" height="1261.000000pt" viewBox="0 0 1261.000000 1261.000000"
 preserveAspectRatio="xMidYMid meet">
<metadata>
Created by potrace 1.12, written by Peter Selinger 2001-2015
</metadata>
<g transform="translate(0.000000,1261.000000) scale(0.100000,-0.100000)"
fill="#000000" stroke="none">
<path d="M7906 12221 c-4 -6 -15 -11 -25 -11 -9 0 -33 -17 -53 -37 -32 -34
-36 -45 -41 -109 -5 -68 -4 -73 22 -98 15 -14 34 -26 42 -26 7 0 29 -20 47
-44 18 -24 45 -56 60 -72 15 -16 38 -45 52 -64 40 -58 43 -61 95 -116 69 -73
87 -95 107 -126 10 -14 27 -29 38 -33 13 -4 19 -12 16 -21 -3 -8 -2 -14 3 -14
7 0 19 -24 56 -117 33 -86 38 -99 42 -118 2 -11 13 -49 24 -85 18 -57 39 -168
50 -270 8 -74 0 -388 -12 -443 -16 -77 -37 -92 -117 -82 -31 4 -75 13 -97 20
-72 22 -152 38 -163 31 -6 -4 -42 1 -79 9 -75 18 -76 18 -218 34 -55 7 -131
18 -170 26 -112 23 -379 55 -450 55 -192 0 -324 -12 -378 -35 -18 -7 -56 -15
-83 -16 -27 -1 -58 -7 -69 -12 -46 -24 -353 -109 -443 -124 -18 -3 -35 -9 -38
-14 -3 -5 -16 -9 -30 -9 -14 0 -34 -5 -44 -10 -11 -6 -42 -12 -71 -15 -28 -2
-62 -11 -76 -20 -14 -9 -33 -15 -44 -12 -10 3 -26 -1 -36 -9 -10 -7 -26 -14
-36 -14 -9 0 -25 -4 -35 -9 -9 -5 -25 -12 -34 -15 -29 -9 -48 -68 -37 -116 7
-32 6 -49 -7 -76 -14 -30 -15 -39 -3 -60 15 -29 66 -84 77 -84 15 0 79 36 102
58 13 12 30 22 37 22 8 0 25 7 39 16 24 17 85 33 135 38 14 2 31 6 37 10 7 4
12 5 12 2 0 -3 30 5 66 19 37 14 85 25 107 25 40 0 139 20 204 41 18 5 58 10
90 10 32 0 119 2 193 4 159 4 506 8 535 6 11 -1 52 -2 90 -2 123 -2 199 -7
245 -19 25 -6 60 -9 79 -6 19 3 40 1 47 -5 6 -5 29 -11 50 -14 62 -7 145 -31
161 -48 14 -14 10 -17 -43 -32 -66 -18 -264 -113 -264 -126 0 -5 -10 -9 -22
-9 -12 0 -31 -9 -42 -19 -23 -21 -76 -54 -121 -75 -16 -8 -41 -26 -53 -39 -13
-14 -35 -28 -49 -32 -40 -10 -219 -137 -288 -204 -16 -16 -48 -40 -70 -54 -22
-14 -69 -53 -105 -86 -36 -34 -69 -61 -74 -61 -5 0 -34 -22 -65 -50 -31 -27
-78 -69 -105 -92 -27 -24 -61 -55 -75 -71 -14 -15 -42 -44 -61 -65 -20 -20
-44 -50 -55 -67 -17 -28 -93 -124 -106 -135 -23 -19 -109 -132 -109 -143 0 -8
-9 -22 -20 -32 -11 -10 -20 -24 -20 -31 0 -7 -6 -19 -12 -26 -17 -17 -98 -137
-98 -144 0 -3 -13 -25 -30 -49 -16 -24 -30 -48 -30 -54 0 -6 -15 -32 -34 -58
-18 -27 -36 -60 -40 -75 -3 -15 -18 -44 -31 -65 -14 -20 -28 -48 -31 -62 -4
-14 -19 -50 -35 -78 -16 -29 -29 -59 -29 -66 0 -7 -9 -30 -20 -52 -11 -22 -20
-44 -20 -50 0 -6 -9 -28 -20 -50 -11 -22 -20 -47 -20 -56 0 -9 -7 -22 -15 -29
-8 -7 -15 -21 -15 -32 0 -11 -7 -26 -15 -34 -10 -10 -15 -35 -15 -73 0 -50 4
-61 28 -83 39 -37 77 -44 99 -18 43 50 92 147 100 200 4 19 13 45 20 57 8 12
12 26 9 31 -3 6 1 16 10 23 15 12 25 32 82 161 12 25 33 58 47 74 14 15 25 30
25 34 0 4 11 19 25 34 21 22 23 31 14 47 -8 16 -7 26 5 44 9 14 16 33 16 44 0
22 22 65 78 150 20 31 42 64 47 72 6 9 24 35 40 59 17 24 35 50 40 59 6 9 40
47 76 84 54 55 71 67 97 67 47 0 74 22 129 103 26 40 53 76 60 80 7 4 13 18
13 30 1 28 27 60 69 81 17 10 34 23 37 30 9 24 222 196 282 227 31 17 67 42
79 56 13 13 38 29 55 35 18 6 49 24 69 39 49 38 165 103 212 119 21 6 41 18
44 26 3 8 16 14 29 14 13 0 24 3 24 8 0 4 24 18 53 31 28 13 59 29 67 36 16
13 96 54 145 75 17 7 38 16 47 21 10 5 24 9 32 9 9 0 32 11 52 25 37 25 80 40
147 51 30 5 37 3 37 -9 0 -9 -17 -36 -37 -61 -67 -80 -103 -128 -103 -135 0
-10 -51 -35 -78 -40 -12 -2 -42 -57 -42 -76 0 -23 -54 -139 -90 -191 -15 -23
-31 -52 -35 -64 -4 -12 -18 -38 -31 -57 -13 -20 -24 -44 -24 -54 0 -10 -14
-35 -32 -55 -45 -51 -210 -372 -233 -451 -3 -13 -10 -23 -15 -23 -5 0 -18 -30
-30 -67 -11 -36 -29 -81 -40 -98 -11 -18 -20 -38 -20 -45 0 -7 -11 -38 -24
-69 -32 -77 -47 -122 -51 -150 -3 -21 -9 -38 -35 -106 -4 -11 -14 -42 -23 -70
-47 -155 -58 -192 -61 -205 -2 -8 -6 -22 -9 -30 -12 -32 -41 -137 -48 -180
-18 -99 -22 -116 -35 -135 -8 -11 -14 -29 -14 -40 0 -11 -9 -44 -19 -73 -11
-28 -22 -71 -26 -94 -4 -23 -16 -62 -26 -86 -11 -24 -19 -58 -19 -76 0 -18 -4
-36 -9 -41 -4 -6 -14 -32 -21 -58 -7 -27 -21 -65 -32 -85 -10 -20 -18 -51 -18
-69 0 -17 -4 -35 -10 -38 -5 -3 -10 -17 -10 -30 0 -13 -5 -27 -10 -30 -6 -4
-8 -10 -5 -14 2 -5 -2 -30 -10 -57 -8 -27 -16 -83 -19 -124 -2 -41 -7 -95 -10
-120 -21 -171 -38 -291 -46 -330 -5 -25 -12 -83 -16 -130 -4 -47 -11 -90 -16
-97 -5 -7 -12 -68 -14 -135 -3 -68 -10 -135 -16 -151 -8 -20 -7 -31 1 -41 9
-10 9 -20 3 -33 -6 -10 -13 -65 -17 -123 -4 -58 -9 -130 -11 -160 -14 -161
-15 -217 -7 -295 3 -33 -1 -136 -8 -230 -16 -205 -15 -222 9 -249 26 -28 34
-69 22 -101 -5 -14 -12 -114 -15 -221 -2 -107 -7 -199 -9 -203 -8 -12 -25
-128 -31 -206 -3 -38 -10 -101 -15 -140 -22 -150 -40 -336 -45 -460 -3 -71
-10 -146 -15 -165 -5 -19 -14 -75 -20 -125 -5 -49 -14 -124 -20 -165 -5 -41
-9 -115 -8 -165 1 -119 -11 -364 -22 -445 -8 -61 -20 -254 -25 -420 -1 -41 -5
-154 -9 -250 -3 -96 -8 -280 -11 -409 -2 -128 -6 -236 -9 -238 -2 -2 2 -23 9
-46 7 -26 9 -53 4 -72 -11 -40 17 -142 41 -150 9 -3 23 -17 30 -30 14 -25 53
-34 65 -15 3 5 7 53 8 105 1 52 3 95 4 95 2 0 26 -18 54 -40 42 -33 55 -38 82
-33 18 3 42 15 54 26 20 18 22 27 18 86 -2 36 -8 80 -13 96 -5 17 -10 93 -11
170 -3 247 -21 649 -29 655 -16 12 -22 361 -10 575 10 171 27 371 33 397 3 13
7 73 9 133 3 61 7 119 9 130 11 50 18 129 18 235 1 63 7 167 15 230 7 63 15
142 19 175 16 179 27 274 36 306 5 20 12 92 15 160 3 68 12 167 19 219 8 52
16 140 19 195 6 139 51 492 67 533 5 13 9 52 9 88 0 36 4 73 9 82 7 14 15 81
24 200 1 12 5 22 9 22 11 0 7 103 -3 116 -6 8 -5 14 4 17 8 3 14 20 15 39 2
31 25 236 38 336 l6 44 37 -7 c44 -8 46 -10 102 -80 27 -34 51 -55 64 -55 30
0 80 51 95 96 13 41 103 176 139 208 12 11 21 24 21 31 0 6 18 26 40 44 23 18
51 49 64 69 27 42 150 169 274 283 45 42 82 81 82 87 0 6 15 20 34 31 18 12
54 43 80 71 25 27 79 74 119 103 39 30 81 64 91 76 11 11 25 21 31 21 7 0 18
6 24 14 7 8 27 17 46 20 19 4 38 12 42 19 5 7 22 18 38 26 17 7 38 17 47 22
39 20 105 39 134 39 17 0 37 7 44 15 7 8 18 15 25 15 7 0 18 6 24 14 14 17
174 29 265 20 l68 -7 -6 -39 c-8 -47 -21 -72 -64 -119 -18 -19 -35 -49 -38
-65 -5 -30 -11 -39 -64 -109 -16 -22 -33 -47 -36 -55 -4 -8 -15 -24 -24 -35
-9 -11 -24 -41 -34 -66 -18 -49 -58 -114 -101 -163 -14 -17 -28 -41 -32 -55
-3 -14 -9 -28 -12 -31 -4 -3 -17 -27 -31 -55 -14 -27 -27 -52 -31 -55 -3 -3
-14 -21 -25 -40 -10 -19 -24 -42 -30 -50 -7 -8 -19 -36 -28 -63 -9 -26 -27
-65 -42 -88 -14 -22 -23 -43 -20 -46 3 -3 -1 -15 -9 -27 -8 -11 -15 -29 -15
-39 0 -10 -6 -31 -14 -45 -8 -15 -20 -47 -27 -72 -8 -25 -26 -59 -41 -76 -15
-17 -29 -43 -32 -58 -6 -33 -23 -56 -42 -56 -8 0 -14 -5 -14 -11 0 -6 -11 -25
-24 -42 -33 -43 -82 -129 -91 -157 -4 -13 -21 -45 -36 -71 -16 -25 -29 -58
-29 -73 0 -14 -4 -26 -9 -26 -6 0 -16 -11 -23 -24 -7 -13 -23 -41 -34 -62 -12
-22 -25 -58 -29 -81 -3 -23 -19 -59 -34 -80 -31 -43 -101 -183 -101 -201 0 -7
-11 -35 -25 -62 -14 -27 -25 -56 -25 -65 0 -13 -33 -86 -82 -179 -14 -27 -38
-108 -38 -129 0 -10 -7 -25 -15 -33 -8 -9 -17 -27 -20 -42 -3 -15 -19 -67 -36
-117 -34 -102 -40 -128 -39 -169 0 -17 -3 -27 -6 -23 -10 10 -34 -57 -45 -123
-10 -66 -22 -116 -43 -190 -9 -30 -23 -84 -32 -120 -8 -36 -20 -70 -25 -76 -5
-7 -9 -16 -8 -20 1 -5 -3 -21 -8 -35 -6 -14 -16 -45 -23 -70 -7 -24 -20 -62
-30 -84 -10 -22 -27 -71 -39 -108 -12 -38 -30 -86 -41 -107 -11 -22 -20 -55
-20 -74 0 -19 -4 -37 -9 -40 -4 -3 -11 -20 -15 -37 -3 -17 -19 -59 -35 -92
-16 -34 -32 -75 -36 -92 -9 -43 -27 -78 -48 -93 -27 -21 -15 -80 23 -110 16
-13 35 -32 41 -43 13 -24 -7 -261 -23 -270 -6 -4 -14 -46 -18 -93 -4 -46 -12
-91 -18 -99 -7 -8 -15 -63 -18 -123 -4 -70 -12 -115 -20 -125 -8 -9 -17 -50
-20 -95 -3 -43 -11 -95 -18 -114 -32 -85 -35 -102 -25 -127 7 -18 6 -30 -1
-37 -24 -24 -11 -74 30 -115 22 -22 40 -44 40 -48 0 -4 17 -9 37 -11 20 -1 43
-8 51 -14 29 -25 89 -2 77 29 -2 7 0 15 5 18 6 4 10 17 10 31 0 14 5 35 11 46
7 12 18 73 25 137 7 63 18 119 24 125 5 5 10 42 10 82 0 51 4 75 15 84 8 7 15
23 15 35 0 12 9 50 20 85 11 34 17 66 15 71 -3 4 1 25 10 45 8 20 15 51 15 70
0 82 38 194 65 194 8 0 15 5 15 10 0 6 0 12 0 15 0 3 7 21 15 41 8 20 15 49
15 65 0 21 10 36 40 60 l40 32 0 81 c0 54 6 98 19 132 10 28 21 78 25 112 4
39 20 88 41 132 19 38 35 80 35 93 0 14 7 30 15 37 8 7 15 18 15 26 0 7 7 34
16 60 9 26 18 59 21 73 2 14 17 52 34 85 16 34 29 72 29 86 0 14 8 41 19 60
10 19 22 46 26 60 4 14 13 39 20 55 7 17 22 66 35 110 12 44 26 88 31 97 5 10
9 31 9 46 0 16 7 51 15 78 8 27 15 65 15 84 0 20 6 44 14 55 14 22 27 78 31
137 1 21 7 44 13 51 6 7 8 23 5 36 -3 13 -1 26 5 30 6 3 14 29 17 56 4 28 10
55 14 60 8 11 28 77 34 115 6 30 48 150 86 245 110 268 131 322 131 333 0 7 4
20 9 30 42 86 71 161 71 183 0 11 10 24 23 30 16 7 22 19 24 46 1 27 12 47 41
77 44 47 72 89 72 109 0 8 7 20 15 27 8 7 29 39 47 72 17 33 42 68 55 78 13
10 23 22 23 28 0 5 7 15 15 22 8 7 29 40 46 75 17 34 43 72 59 84 18 13 27 27
24 36 -4 8 -1 15 5 15 6 0 11 5 11 10 0 6 18 33 40 61 22 28 40 59 40 70 0 10
8 23 18 28 9 5 28 31 41 58 14 26 35 59 47 73 12 14 36 53 54 87 30 60 52 78
63 51 2 -7 -1 -64 -9 -126 -7 -63 -12 -126 -12 -140 0 -15 -8 -74 -17 -132
-14 -89 -37 -228 -49 -305 -1 -11 -6 -30 -10 -42 -4 -12 -9 -32 -11 -45 -14
-79 -30 -138 -38 -138 -4 0 -5 -5 -2 -11 4 -5 2 -22 -4 -37 -6 -15 -12 -38
-15 -52 -9 -52 -66 -210 -76 -210 -3 0 -5 -16 -6 -35 0 -21 -9 -44 -22 -58
l-21 -23 24 -49 c28 -54 39 -65 73 -65 12 0 32 -6 43 -12 18 -11 23 -10 33 7
6 10 24 33 41 50 17 17 28 39 27 51 -3 23 30 50 69 56 20 2 26 11 34 49 5 25
15 52 21 60 6 8 15 63 18 123 6 85 14 125 38 188 17 43 28 82 25 84 -7 7 39
134 53 148 5 5 10 23 10 38 0 15 4 28 8 28 5 0 10 20 10 45 1 24 6 55 12 70 5
14 7 38 4 54 -3 16 -1 52 5 81 8 37 8 63 0 95 -9 36 -8 59 6 122 14 61 16 102
11 188 -9 154 17 384 50 442 13 23 24 50 24 61 0 10 9 27 20 37 19 17 21 17
38 2 10 -10 22 -17 26 -17 5 0 31 -20 58 -45 28 -25 57 -45 65 -45 8 0 49 -36
91 -79 80 -82 96 -102 111 -138 6 -11 15 -24 22 -28 6 -4 20 -27 31 -51 10
-24 23 -44 28 -44 6 0 10 -5 10 -12 0 -6 18 -35 40 -64 22 -29 40 -58 40 -63
0 -11 78 -110 122 -154 15 -16 28 -33 28 -38 0 -6 16 -31 35 -56 19 -25 40
-64 46 -85 5 -22 19 -55 29 -74 11 -19 20 -37 20 -42 0 -6 15 -56 36 -122 3
-8 5 -17 5 -20 0 -3 7 -13 16 -22 9 -10 13 -26 10 -38 -3 -11 -1 -20 4 -20 5
0 9 -7 9 -15 0 -8 3 -15 8 -15 10 0 35 -58 28 -68 -6 -9 37 -96 61 -123 7 -9
20 -52 27 -95 22 -122 42 -201 75 -299 17 -49 34 -112 37 -140 3 -27 12 -63
19 -78 17 -35 30 -140 20 -164 -4 -10 -8 -37 -9 -61 -1 -33 4 -49 21 -68 13
-14 23 -28 23 -31 0 -17 44 -40 78 -41 32 -1 44 4 68 29 16 17 39 40 52 52 12
11 34 40 47 63 23 39 25 50 20 120 -4 43 -10 85 -16 95 -5 10 -9 32 -9 50 0
18 -4 46 -9 63 -9 31 -30 129 -36 176 -7 46 -31 120 -43 132 -7 7 -12 22 -12
34 0 12 -7 41 -15 64 -8 23 -15 53 -15 65 0 12 -6 28 -14 35 -8 6 -12 18 -9
25 3 8 -5 26 -16 41 -12 15 -21 35 -21 45 0 10 -4 21 -10 24 -5 3 -10 14 -10
23 0 9 -7 30 -15 46 -8 15 -15 36 -15 46 0 10 -7 23 -15 30 -8 7 -23 38 -31
69 -9 31 -21 59 -26 62 -6 4 -8 15 -6 25 2 11 -10 42 -27 69 -17 28 -35 62
-38 78 -4 15 -12 27 -17 27 -17 0 -71 128 -64 154 4 19 -1 28 -26 46 -18 13
-42 47 -60 86 -15 35 -47 89 -69 120 -23 32 -41 63 -41 70 0 7 -20 35 -45 61
-24 26 -70 82 -102 123 -32 41 -63 81 -70 88 -6 6 -14 20 -17 30 -3 9 -25 33
-48 52 -23 19 -62 56 -86 81 -29 32 -54 49 -77 53 -19 4 -38 12 -42 19 -5 7
-23 23 -40 36 -18 12 -33 28 -33 35 0 21 32 43 80 56 25 7 62 21 82 31 20 10
45 19 54 19 9 0 30 6 47 14 82 36 299 95 397 107 36 4 83 12 105 16 22 5 74 8
115 6 41 -2 102 1 135 7 89 16 267 -9 350 -49 11 -5 41 -12 68 -16 26 -3 47
-10 47 -16 0 -5 6 -9 13 -9 8 0 24 -11 37 -25 13 -14 30 -25 39 -25 8 0 30
-10 48 -22 32 -22 34 -25 28 -70 -7 -67 6 -94 50 -101 46 -8 64 -1 71 29 3 13
10 24 14 24 5 0 12 9 15 21 4 11 21 27 38 34 32 14 51 32 75 73 14 26 16 62 2
62 -13 0 -13 36 1 61 8 16 7 24 -9 37 -10 9 -24 27 -31 40 -6 12 -17 22 -23
22 -7 0 -22 10 -35 22 -15 14 -34 21 -57 20 -34 -1 -120 30 -130 47 -3 5 -20
11 -38 15 -18 3 -41 15 -53 25 -11 11 -34 21 -51 24 -17 3 -45 12 -62 21 -17
9 -39 16 -49 16 -10 0 -28 7 -41 15 -12 9 -41 17 -64 19 -24 2 -56 9 -73 16
-16 6 -86 22 -155 33 -135 23 -244 25 -425 8 -189 -18 -197 -19 -208 -30 -6
-6 -22 -11 -34 -11 -13 0 -37 -7 -53 -15 -16 -9 -51 -18 -77 -21 -27 -4 -64
-15 -83 -24 -19 -10 -55 -23 -80 -30 -46 -13 -82 -26 -112 -41 -42 -21 -88 5
-59 34 6 6 11 17 11 25 0 24 212 349 269 412 23 25 44 53 47 63 3 9 9 17 15
17 5 0 15 15 23 33 7 17 61 91 120 162 59 72 126 154 149 183 44 55 72 87 177
203 36 39 85 94 110 122 63 70 199 205 237 236 159 127 140 119 290 121 26 0
34 5 39 25 3 14 10 25 15 25 5 0 9 6 9 13 0 6 25 28 56 47 84 52 97 108 41
172 -28 34 -37 38 -82 39 -40 1 -66 -7 -132 -40 -45 -23 -89 -41 -97 -41 -8 0
-19 -6 -23 -13 -10 -17 -119 -90 -158 -105 -17 -7 -47 -28 -68 -47 -21 -19
-46 -35 -56 -35 -10 0 -26 -9 -37 -21 -10 -11 -32 -27 -49 -34 -16 -7 -52 -35
-80 -61 -27 -27 -64 -59 -81 -72 -17 -12 -37 -33 -43 -46 -7 -12 -25 -30 -39
-39 -28 -17 -48 -36 -159 -155 -37 -41 -86 -93 -108 -116 -78 -83 -160 -173
-179 -197 -16 -20 -94 -109 -176 -200 -26 -30 -54 -28 -67 4 -7 16 -13 38 -13
49 0 11 -11 33 -25 50 -30 36 -32 70 -5 108 24 34 19 92 -12 150 -10 19 -18
42 -18 51 0 17 -13 46 -42 89 -9 14 -19 41 -23 60 -4 19 -16 46 -26 59 -11 13
-19 32 -19 42 0 10 -4 21 -10 24 -5 3 -10 13 -10 22 0 8 -9 26 -20 40 -11 14
-20 36 -20 48 0 12 -8 33 -19 46 -10 13 -22 38 -25 56 -4 18 -17 47 -30 65
-22 33 -56 101 -56 112 0 3 -11 29 -25 58 -14 28 -25 57 -25 63 0 6 -10 17
-23 24 -12 7 -28 25 -35 40 -7 16 -29 46 -50 68 -126 133 -195 212 -212 241
-11 17 -24 32 -30 32 -15 0 -180 171 -191 198 -11 28 4 70 28 79 10 4 34 17
53 30 19 12 64 34 100 48 86 34 109 44 143 61 16 8 37 14 46 14 10 0 36 12 57
26 21 15 57 29 79 32 22 3 51 13 65 22 31 21 90 41 100 35 5 -3 11 -1 15 4 3
6 12 8 20 4 9 -3 22 0 30 7 8 7 22 9 31 6 10 -4 25 1 36 10 13 12 38 18 86 19
38 1 73 5 79 8 9 6 209 20 268 19 11 0 54 5 95 11 67 9 495 11 510 2 3 -2 59
-7 125 -10 66 -4 126 -12 133 -18 13 -11 47 -18 101 -22 53 -3 130 45 178 113
26 35 30 49 26 85 -7 72 -23 121 -49 150 -44 51 -78 58 -313 63 -119 3 -225 5
-236 5 -11 1 -153 -2 -315 -5 -216 -4 -311 -10 -353 -21 -32 -8 -75 -15 -95
-15 -20 0 -62 -7 -92 -15 -30 -8 -74 -15 -98 -15 -47 0 -220 -26 -267 -40
-163 -48 -246 -77 -260 -91 -5 -5 -21 -9 -36 -9 -15 0 -30 -4 -34 -9 -3 -5
-18 -12 -33 -16 -16 -3 -64 -27 -108 -53 -127 -76 -292 -155 -305 -147 -9 6
-10 36 -4 119 4 61 9 156 11 211 2 55 6 112 8 128 6 29 -18 218 -34 277 -6 19
-10 50 -10 68 0 17 -4 32 -9 32 -8 0 -16 26 -28 100 -3 19 -9 40 -14 45 -4 6
-20 49 -34 95 -35 112 -33 106 -103 250 -34 69 -62 131 -62 139 0 7 -13 30
-30 51 -16 20 -34 48 -40 61 -5 13 -14 31 -19 39 -5 8 -21 41 -35 73 -14 31
-30 57 -35 57 -5 0 -31 19 -57 43 -27 24 -69 49 -94 57 -25 7 -50 17 -57 22
-19 15 -179 22 -187 9z m1024 -2025 c0 -10 -33 -36 -46 -36 -17 0 -19 26 -1
33 15 7 47 8 47 3z m-336 -638 c-3 -5 -1 -14 4 -21 16 -19 27 -254 13 -271
-13 -15 -64 -7 -85 14 -5 5 -17 10 -26 10 -9 0 -27 11 -40 25 -13 14 -29 25
-35 25 -6 0 -21 9 -33 20 -23 22 -22 30 21 138 21 54 56 82 101 82 12 0 28 5
36 10 16 10 54 -16 44 -32z m355 -199 c17 -6 36 -21 43 -32 10 -20 106 -146
118 -157 3 -3 21 -26 40 -52 18 -27 38 -48 44 -48 13 -1 51 -58 71 -106 8 -19
19 -34 24 -34 6 0 11 -6 11 -13 0 -8 12 -24 26 -38 14 -13 32 -35 39 -49 7
-14 31 -45 54 -69 22 -24 45 -60 52 -80 14 -45 47 -101 72 -123 10 -9 16 -22
12 -27 -3 -6 -1 -11 4 -11 6 0 11 -13 11 -29 0 -16 7 -36 15 -45 8 -8 15 -21
15 -29 0 -8 7 -20 15 -27 9 -8 15 -30 16 -59 0 -54 30 -176 47 -193 7 -7 12
-18 12 -25 0 -8 7 -16 15 -19 8 -4 15 -14 15 -25 0 -10 10 -24 23 -30 27 -14
67 -50 67 -60 0 -4 -6 -14 -13 -21 -21 -21 -103 -132 -110 -148 -4 -8 -11 -22
-16 -30 -5 -8 -26 -43 -47 -77 -24 -41 -43 -63 -55 -63 -17 0 -19 9 -20 68 -3
165 -19 291 -40 318 -5 6 -11 28 -14 50 -3 21 -10 50 -14 64 -5 14 -14 52 -21
85 -17 87 -16 85 -41 150 -12 33 -30 68 -40 78 -11 10 -19 26 -19 36 0 10 -3
21 -7 25 -5 4 -8 11 -9 14 -3 22 -45 100 -63 116 -11 11 -21 25 -21 33 0 8
-21 33 -46 56 -25 23 -57 61 -71 84 -14 24 -29 43 -33 43 -11 0 -191 157 -209
183 -11 16 -12 32 -3 86 17 100 23 221 11 221 -6 0 -7 5 -4 10 8 12 5 12 44
-1z m-737 -264 c-3 -18 0 -25 11 -25 9 0 29 -13 45 -30 17 -16 40 -30 51 -30
12 0 21 -4 21 -8 0 -5 17 -9 38 -10 28 -1 44 -9 67 -35 17 -19 38 -37 48 -40
9 -4 21 -17 26 -29 5 -13 20 -34 33 -48 23 -24 23 -29 17 -136 -3 -60 -11
-119 -17 -130 -5 -10 -14 -31 -20 -45 -9 -24 -17 -27 -83 -33 -41 -4 -77 -10
-82 -15 -4 -4 -3 -19 2 -33 8 -21 18 -26 62 -31 61 -7 72 -19 63 -67 -4 -19
-13 -66 -20 -105 -7 -38 -22 -106 -34 -150 -12 -44 -28 -106 -35 -138 -7 -32
-20 -68 -28 -81 -9 -13 -19 -40 -22 -60 -4 -20 -11 -39 -16 -42 -5 -3 -9 -13
-9 -22 0 -9 -7 -30 -15 -46 -8 -15 -15 -34 -15 -40 0 -6 -9 -29 -20 -51 -11
-22 -20 -47 -20 -57 0 -9 -4 -19 -9 -23 -5 -3 -17 -27 -25 -53 -9 -26 -27 -64
-41 -84 -14 -20 -25 -49 -25 -63 0 -14 -6 -28 -14 -31 -8 -3 -18 -19 -21 -36
-7 -30 -58 -133 -76 -152 -5 -6 -9 -17 -9 -26 0 -9 -9 -25 -20 -35 -11 -10
-20 -24 -20 -30 0 -36 -78 -175 -134 -239 -15 -16 -26 -32 -26 -36 0 -4 -9
-10 -20 -13 -11 -3 -23 -13 -27 -23 -9 -25 -115 -122 -156 -144 -18 -10 -33
-27 -35 -39 -2 -11 -26 -40 -53 -64 -27 -23 -60 -60 -74 -82 -13 -22 -46 -61
-74 -88 -28 -26 -51 -53 -51 -60 0 -7 -5 -18 -11 -24 -14 -14 -35 -50 -49 -85
-14 -33 -40 -27 -40 11 1 14 10 62 21 106 12 44 21 91 21 105 1 25 13 156 22
235 11 91 27 178 35 193 4 9 9 44 10 76 1 33 5 65 9 70 3 6 12 43 19 81 7 39
19 97 27 130 8 33 20 87 26 120 6 33 16 76 22 95 6 19 12 55 13 80 1 25 4 52
8 60 6 14 13 39 58 204 10 37 26 82 34 99 8 16 15 36 15 44 0 22 39 131 74
207 18 39 43 98 55 131 13 33 29 72 37 87 8 14 14 36 14 47 0 12 5 21 10 21 6
0 10 11 10 23 0 25 24 81 45 107 7 8 15 29 19 45 8 36 28 82 79 183 20 40 37
79 37 85 1 7 14 28 30 47 17 19 30 39 30 46 0 6 7 17 15 24 8 7 26 36 41 66
14 29 32 58 40 65 8 6 14 16 14 22 0 9 67 77 75 77 1 0 0 -11 -3 -25z m667
-642 c32 -32 65 -75 75 -95 9 -20 21 -40 26 -43 15 -9 70 -95 70 -110 0 -8 5
-17 10 -20 6 -3 10 -23 10 -43 0 -21 7 -48 16 -61 26 -37 45 -121 43 -193 -2
-52 2 -72 15 -87 10 -11 16 -33 15 -52 -1 -19 6 -63 16 -98 10 -40 17 -107 18
-179 l2 -116 -30 -9 c-16 -5 -38 -13 -47 -18 -10 -5 -31 -9 -47 -9 -16 0 -42
-5 -58 -12 -15 -6 -68 -15 -118 -19 -49 -5 -115 -11 -145 -15 -57 -6 -167 -51
-190 -79 -7 -8 -16 -15 -21 -15 -4 0 -31 -13 -59 -30 -28 -16 -57 -30 -64 -30
-8 0 -19 -7 -26 -15 -7 -8 -25 -15 -41 -15 -19 0 -29 5 -29 15 0 8 6 15 13 15
12 0 37 53 37 79 0 7 23 60 50 117 28 57 57 123 66 146 9 24 28 70 44 103 15
33 35 85 45 115 10 30 22 64 26 75 5 11 13 38 18 60 17 70 42 159 53 190 6 17
14 53 18 80 14 94 32 170 42 183 6 6 14 47 18 90 9 90 32 152 55 152 9 0 42
-26 74 -57z m27 -1328 c-23 -17 -42 -19 -50 -6 -7 11 11 19 44 20 24 0 24 0 6
-14z m-598 -41 c-4 -24 -53 -58 -72 -51 -25 10 0 55 33 60 14 2 30 5 34 6 5 0
7 -6 5 -15z m-1639 -6698 c-6 -6 -13 -6 -21 2 -8 8 -8 15 2 28 13 15 15 14 21
-3 4 -10 3 -22 -2 -27z"/>
<path d="M4175 8891 c-29 -13 -46 -30 -60 -59 -11 -23 -25 -43 -31 -46 -9 -4
-45 2 -112 18 -31 7 -59 -23 -68 -71 -4 -21 -14 -49 -24 -63 -9 -14 -22 -39
-28 -55 -7 -17 -28 -47 -47 -67 -18 -21 -60 -84 -92 -140 -31 -57 -61 -104
-65 -106 -4 -2 -8 -7 -8 -12 0 -5 -16 -32 -35 -61 -19 -30 -35 -59 -35 -65 0
-6 -13 -30 -30 -52 -16 -23 -30 -46 -30 -50 0 -5 -9 -17 -20 -27 -11 -10 -20
-25 -20 -34 0 -9 -11 -38 -24 -66 -13 -27 -31 -66 -39 -85 -9 -20 -25 -47 -36
-60 -39 -47 -61 -84 -61 -100 0 -19 -50 -117 -65 -130 -8 -7 -15 -21 -15 -32
0 -10 -7 -21 -16 -25 -8 -3 -13 -11 -10 -18 2 -7 -1 -21 -8 -31 -7 -11 -25
-53 -39 -94 -30 -89 -73 -198 -87 -222 -6 -10 -10 -26 -10 -37 0 -10 -9 -30
-21 -45 -23 -30 -54 -107 -70 -176 -5 -24 -16 -58 -24 -75 -8 -16 -23 -61 -33
-100 -11 -38 -24 -70 -31 -69 -6 1 -20 2 -31 3 -13 0 -28 19 -46 54 -14 28
-41 73 -60 99 -67 95 -427 458 -454 458 -5 0 -17 14 -27 30 -9 17 -22 30 -28
30 -6 0 -26 15 -45 33 -32 29 -56 44 -100 61 -26 10 -202 124 -210 136 -3 4
-28 19 -57 33 -28 15 -55 31 -58 37 -4 6 -32 23 -63 38 -32 14 -68 37 -82 49
-14 13 -32 23 -40 23 -9 0 -23 9 -33 20 -9 11 -23 20 -30 20 -8 0 -22 10 -33
21 -10 12 -38 30 -61 40 -24 10 -43 23 -43 29 0 5 -16 27 -35 47 -19 20 -35
41 -35 45 0 13 -45 9 -84 -7 -20 -9 -43 -14 -50 -13 -8 2 -32 -11 -53 -29
l-40 -32 26 -53 c29 -60 64 -108 78 -108 6 0 25 -7 43 -16 18 -10 51 -18 74
-19 43 -2 109 -40 155 -89 14 -14 32 -26 42 -26 21 0 146 -99 154 -122 3 -9
14 -19 23 -23 9 -3 35 -27 57 -54 22 -26 68 -68 102 -92 35 -24 63 -47 63 -51
0 -4 50 -58 111 -120 100 -102 159 -187 159 -227 0 -6 5 -11 10 -11 6 0 18
-17 27 -37 17 -38 111 -163 147 -196 19 -17 30 -34 63 -95 17 -33 17 -34 -2
-48 -10 -8 -36 -14 -56 -14 -64 0 -141 -21 -226 -61 -45 -22 -85 -39 -89 -39
-3 0 -35 -20 -70 -45 -34 -25 -69 -45 -76 -45 -8 0 -47 -22 -88 -49 -41 -27
-88 -52 -105 -55 -16 -4 -45 -19 -64 -34 -18 -15 -54 -44 -80 -64 -25 -21 -51
-38 -57 -38 -13 0 -54 -43 -54 -57 0 -6 -11 -13 -23 -17 -28 -7 -177 -154
-177 -174 0 -7 -5 -10 -11 -7 -6 4 -49 -32 -97 -79 -47 -48 -101 -92 -119 -98
-18 -7 -33 -16 -33 -20 0 -4 -8 -8 -19 -8 -41 0 -132 -141 -151 -235 -6 -33
-21 -73 -32 -89 -12 -17 -27 -53 -33 -81 -12 -51 -12 -52 21 -96 21 -28 34
-55 34 -76 0 -38 10 -46 62 -46 24 0 42 -5 45 -13 9 -25 41 -15 70 21 30 38
53 44 73 20 7 -8 18 -15 25 -15 7 0 24 -9 38 -20 27 -21 77 -27 77 -9 0 6 9
23 21 37 17 22 20 38 18 92 -2 36 1 76 5 90 11 33 58 134 65 140 3 3 18 21 33
40 14 19 49 60 77 90 28 30 51 57 51 61 0 8 208 191 214 187 8 -5 56 45 56 58
0 7 15 28 33 47 19 18 46 51 62 71 15 20 42 43 59 50 17 7 49 30 71 50 43 40
75 57 145 76 25 6 59 18 75 24 57 24 225 64 308 73 41 4 47 3 47 -14 0 -10 13
-33 29 -50 47 -52 47 -56 -13 -170 -10 -18 -21 -35 -27 -38 -5 -4 -9 -14 -9
-23 0 -10 -10 -36 -21 -57 -12 -22 -30 -57 -40 -77 -10 -20 -23 -40 -29 -43
-5 -3 -10 -15 -10 -26 0 -10 -3 -19 -7 -19 -5 0 -17 -19 -27 -43 -11 -23 -25
-47 -31 -52 -12 -10 -115 -219 -115 -233 0 -4 -9 -18 -20 -32 -11 -14 -20 -32
-20 -40 -1 -19 -38 -96 -66 -135 -12 -17 -29 -52 -38 -80 -9 -27 -26 -69 -36
-92 -11 -24 -20 -49 -20 -57 0 -7 -7 -19 -15 -26 -8 -7 -15 -19 -15 -27 0 -14
-17 -53 -50 -113 -10 -19 -19 -44 -20 -55 0 -11 -9 -31 -20 -45 -11 -14 -20
-41 -20 -60 0 -19 -7 -44 -15 -54 -8 -11 -15 -26 -15 -35 0 -18 -49 -143 -61
-156 -5 -5 -9 -21 -9 -35 0 -14 -7 -35 -15 -46 -8 -10 -15 -31 -15 -46 0 -28
-19 -78 -29 -78 -3 0 -7 -20 -9 -45 -2 -40 -19 -107 -41 -160 -8 -19 -28 -122
-38 -198 -3 -20 -9 -37 -14 -37 -5 0 -9 -12 -9 -27 1 -48 -21 -157 -36 -181
-12 -19 -16 -56 -14 -142 1 -30 -13 -75 -26 -83 -25 -14 -16 -63 21 -111 19
-25 34 -49 34 -54 -1 -4 -1 -33 0 -64 1 -45 5 -58 16 -58 12 0 14 7 9 26 -4
17 -2 29 7 35 11 6 11 11 1 21 -16 16 -15 28 3 28 8 0 21 -12 28 -26 9 -17 17
-23 21 -16 4 6 -2 20 -14 32 -25 25 -25 34 0 27 19 -5 21 -2 24 36 1 6 10 17
21 22 11 6 21 21 23 33 4 28 27 24 28 -5 1 -11 4 -25 8 -31 3 -6 -1 -17 -9
-25 -8 -9 -15 -22 -15 -30 0 -27 -12 -47 -29 -47 -10 -1 -5 -7 14 -17 20 -11
30 -12 33 -4 2 6 8 11 13 11 6 0 7 -5 3 -11 -4 -7 -1 -10 7 -7 8 3 17 20 22
39 4 19 12 48 18 65 5 17 9 42 9 57 0 15 5 27 10 27 6 0 8 10 5 23 -8 29 11
80 28 75 16 -6 22 -45 9 -61 -10 -12 -8 -130 3 -147 10 -16 42 -11 51 7 4 10
8 41 9 68 2 63 20 148 33 153 5 1 8 11 6 20 -4 15 12 136 32 242 4 19 15 43
24 52 14 13 17 27 13 57 -3 23 0 53 6 68 6 16 13 69 15 118 4 99 23 220 37
248 6 10 7 26 4 37 -3 10 2 37 10 61 9 24 18 77 20 118 3 44 11 83 20 98 9 13
14 32 10 42 -3 11 3 25 15 36 11 10 22 34 26 54 3 20 12 46 20 58 8 12 14 30
14 40 0 10 11 38 25 62 14 23 25 50 25 60 0 18 41 123 56 143 6 7 18 36 28 63
10 28 29 72 42 98 13 27 24 55 24 63 0 8 4 14 8 14 5 0 16 26 26 58 16 50 44
106 108 212 9 16 22 48 29 72 18 66 47 123 78 155 15 16 34 51 42 77 13 45 15
47 43 42 20 -4 35 -1 47 10 32 29 53 14 61 -41 9 -70 19 -107 33 -128 8 -11
11 -34 8 -56 -3 -24 1 -49 11 -69 10 -19 16 -57 17 -99 0 -37 6 -103 13 -146
7 -43 11 -90 9 -105 -1 -15 4 -44 12 -65 8 -21 17 -68 20 -105 3 -37 10 -94
15 -127 6 -33 15 -91 20 -130 6 -38 14 -90 19 -115 5 -25 7 -48 5 -52 -3 -4 0
-17 6 -28 6 -12 11 -56 11 -98 0 -42 5 -95 11 -117 10 -41 11 -50 22 -240 4
-60 11 -150 17 -200 6 -49 12 -218 14 -375 4 -269 -3 -396 -25 -445 -5 -11
-12 -50 -15 -87 -6 -60 -4 -71 16 -99 22 -31 23 -31 89 -26 60 5 68 3 81 -16
7 -12 14 -41 14 -65 0 -41 2 -44 47 -70 49 -28 72 -26 88 9 4 8 12 24 19 37 9
17 10 59 6 148 -3 68 -8 132 -10 142 -2 10 -6 56 -10 103 -3 46 -11 122 -16
169 -23 191 -30 282 -35 409 -4 131 -4 136 21 173 27 40 31 78 15 143 -5 22
-12 128 -15 235 -3 107 -9 197 -13 200 -4 3 -8 30 -9 60 -1 30 -7 84 -13 120
-6 36 -13 90 -15 120 -3 30 -10 89 -15 130 -6 41 -12 111 -15 155 -3 44 -12
100 -19 125 -8 25 -17 61 -21 80 -3 19 -10 44 -14 55 -5 11 -17 56 -26 100
-10 44 -21 90 -26 103 -11 29 -12 69 0 76 4 3 11 19 14 36 5 22 12 30 27 30
19 0 98 -44 110 -60 3 -4 23 -20 46 -36 66 -46 145 -113 165 -138 17 -22 77
-46 116 -46 11 0 35 -18 53 -40 18 -22 38 -40 44 -40 6 0 27 -25 46 -56 19
-31 65 -87 101 -124 37 -38 69 -80 73 -94 3 -14 11 -26 16 -26 6 0 10 -7 10
-16 0 -15 33 -58 97 -126 26 -28 44 -55 62 -94 5 -12 16 -24 25 -27 9 -4 13
-13 10 -22 -4 -10 2 -24 15 -36 11 -11 21 -24 21 -29 0 -5 6 -15 14 -23 8 -8
37 -56 64 -108 26 -52 71 -130 98 -175 62 -101 123 -225 128 -260 1 -7 10 -21
19 -32 9 -10 17 -24 17 -30 0 -6 13 -30 29 -54 16 -24 39 -65 51 -93 12 -27
28 -57 35 -65 7 -8 18 -33 25 -55 7 -22 21 -52 32 -67 11 -16 35 -58 55 -95
53 -103 86 -158 106 -177 10 -10 17 -33 17 -54 0 -20 7 -48 14 -62 43 -76 119
-243 131 -289 4 -12 18 -39 31 -58 13 -20 24 -42 24 -49 0 -8 4 -14 8 -14 5 0
14 -19 20 -42 14 -57 72 -220 82 -233 4 -5 11 -26 15 -45 4 -19 11 -37 15 -40
10 -7 60 -153 60 -176 0 -11 11 -44 25 -72 14 -29 25 -59 25 -67 0 -8 4 -15 8
-15 9 0 50 -102 76 -188 9 -30 25 -67 37 -83 11 -16 18 -36 16 -44 -3 -7 0
-18 7 -24 7 -6 25 -50 41 -98 16 -48 36 -106 46 -128 51 -119 59 -139 59 -156
0 -10 9 -42 20 -71 11 -29 20 -61 20 -70 0 -10 9 -37 19 -60 11 -24 29 -77 41
-118 12 -41 31 -92 42 -114 17 -31 19 -49 14 -98 -3 -33 -3 -78 0 -99 5 -32
10 -38 24 -34 14 4 20 -1 25 -25 4 -16 14 -36 24 -42 9 -7 27 -33 40 -58 46
-91 63 -116 107 -150 24 -19 44 -41 44 -47 0 -21 23 -15 62 17 45 37 54 71 31
110 -9 17 -23 30 -31 30 -7 0 -19 16 -27 34 -8 19 -22 39 -30 43 -10 6 -17 30
-20 68 -16 194 -27 254 -52 290 -7 11 -13 36 -13 57 0 20 -4 39 -9 42 -13 8
-8 32 11 53 17 20 65 118 70 145 5 27 -34 77 -64 83 -34 8 -42 18 -63 85 -9
30 -21 69 -27 85 -14 44 -25 83 -42 150 -17 65 -19 72 -60 155 -14 30 -26 62
-26 70 0 14 -30 94 -68 180 -23 53 -52 128 -73 193 -10 31 -29 81 -42 110 -13
28 -29 75 -36 102 -7 28 -30 87 -52 132 -22 45 -39 85 -38 90 3 10 -15 58 -36
96 -8 16 -15 35 -15 43 0 8 -4 14 -9 14 -5 0 -12 19 -16 43 -5 23 -9 44 -10
47 -1 3 -7 24 -14 48 -6 23 -25 67 -40 97 -16 30 -31 73 -35 96 -4 23 -15 60
-26 82 -11 22 -20 51 -20 64 0 13 -8 31 -17 41 -10 10 -19 27 -21 37 -4 28
-53 147 -68 165 -6 8 -15 31 -19 50 -4 19 -14 43 -23 53 -8 9 -12 17 -8 17 4
0 -2 12 -13 26 -12 15 -21 35 -21 45 0 23 -21 69 -32 69 -4 0 -8 10 -8 23 0
12 -9 36 -20 52 -11 17 -20 38 -20 48 0 9 -4 17 -10 17 -5 0 -10 8 -10 18 -1
16 -25 68 -87 183 -16 30 -33 68 -37 85 -4 16 -18 43 -30 59 -12 17 -30 48
-40 70 -9 22 -21 47 -25 56 -5 8 -21 40 -36 70 -15 30 -31 61 -36 69 -5 8 -16
30 -25 49 -14 31 -59 94 -91 129 -7 7 -13 19 -13 26 0 21 -68 147 -106 195
-19 24 -34 51 -34 59 0 8 -6 12 -15 8 -10 -4 -15 1 -15 14 0 11 -4 20 -10 20
-5 0 -10 9 -10 20 0 11 -8 28 -17 38 -10 10 -38 42 -62 72 -55 68 -138 150
-150 150 -6 0 -18 14 -28 30 -9 17 -25 33 -35 36 -9 3 -20 14 -23 25 -4 10
-11 19 -16 19 -6 0 -40 32 -77 72 -162 174 -305 308 -328 308 -2 0 -18 12 -34
26 -32 29 -57 45 -107 69 -17 8 -34 19 -38 25 -8 13 -226 122 -232 116 -9 -9
-43 14 -43 29 0 25 99 67 215 91 39 7 79 18 90 23 34 16 118 40 160 46 62 8
148 16 170 16 11 -1 75 6 142 14 67 9 152 14 188 11 36 -3 86 -2 113 2 50 8
80 5 235 -25 53 -11 111 -18 127 -15 17 2 30 0 30 -6 0 -6 17 -14 38 -18 20
-4 48 -12 62 -19 14 -7 45 -15 69 -19 23 -4 58 -18 75 -31 18 -14 42 -25 53
-25 11 0 30 -9 43 -20 13 -11 36 -20 52 -20 43 0 104 -45 122 -91 9 -21 23
-39 31 -39 8 0 15 -4 15 -10 0 -5 9 -10 21 -10 11 0 30 -5 41 -11 19 -10 25
-7 47 20 14 17 34 31 43 31 9 0 20 5 23 10 3 6 14 10 24 10 29 0 54 36 54 77
0 26 -12 60 -39 108 l-40 70 -69 1 c-73 0 -147 25 -174 58 -7 9 -21 16 -31 16
-9 0 -28 8 -41 18 -13 11 -42 22 -65 25 -36 6 -78 22 -126 48 -10 5 -28 9 -41
9 -12 0 -31 6 -42 13 -11 7 -33 14 -50 15 -29 2 -77 12 -155 32 -19 5 -60 12
-90 15 -30 3 -86 10 -125 16 -54 7 -381 30 -440 31 -42 1 -237 -13 -313 -22
-51 -6 -96 -8 -100 -6 -4 2 -27 0 -52 -6 -25 -5 -76 -13 -115 -18 -98 -11
-192 -28 -244 -46 -36 -12 -46 -12 -52 -2 -12 19 -11 35 6 68 9 16 18 50 22
75 3 25 9 45 14 45 12 0 30 38 36 72 2 17 13 46 24 64 10 19 19 43 19 52 0 10
16 50 35 89 19 39 35 78 35 86 0 8 7 20 15 27 8 7 15 17 15 22 0 5 13 37 29
71 17 34 33 74 36 89 4 15 13 32 21 39 8 6 14 17 14 23 0 6 13 38 30 71 16 33
30 66 30 73 0 6 4 12 9 12 5 0 12 13 16 30 4 16 11 32 16 35 5 4 9 17 9 30 0
14 9 42 21 64 11 22 22 46 23 53 1 7 9 27 18 43 8 17 21 48 28 70 7 22 24 56
36 75 13 19 24 40 24 47 0 7 3 13 8 13 4 0 22 26 40 59 17 32 39 64 47 71 8 7
15 18 15 24 0 7 16 27 35 46 19 19 35 39 35 45 0 6 7 20 15 30 64 83 125 170
125 179 0 6 16 29 36 51 20 22 46 51 57 65 12 14 34 33 50 43 15 9 27 26 27
37 0 10 5 22 10 25 6 3 10 17 10 29 0 22 18 47 30 43 3 -1 18 8 33 19 22 18
27 30 27 63 0 23 -7 57 -14 76 -13 30 -20 35 -48 35 -18 0 -51 -9 -73 -19z
m-2235 -5179 c0 -16 -6 -37 -14 -47 -8 -11 -12 -25 -9 -31 5 -14 -34 -94 -46
-94 -16 0 1 95 21 114 12 11 18 26 14 39 -5 21 9 47 25 47 5 0 9 -13 9 -28z
m-133 -464 c-3 -8 -6 -5 -6 6 -1 11 2 17 5 13 3 -3 4 -12 1 -19z m33 -48 c0
-5 -7 -10 -15 -10 -8 0 -15 5 -15 10 0 6 7 10 15 10 8 0 15 -4 15 -10z"/>
<path d="M1660 2900 c0 -13 5 -20 13 -17 6 2 12 10 12 17 0 7 -6 15 -12 18 -8
2 -13 -5 -13 -18z"/>
<path d="M7997 1783 c-4 -3 -7 -11 -7 -17 0 -6 5 -5 12 2 6 6 9 14 7 17 -3 3
-9 2 -12 -2z"/>
</g>
</svg>
