<?xml version="1.0" encoding="utf-8"?>
<!-- Generator: Adobe Illustrator 25.4.1, SVG Export Plug-In . SVG Version: 6.00 Build 0)  -->
<svg version="1.1" id="Lager_1" xmlns="http://www.w3.org/2000/svg" xmlns:xlink="http://www.w3.org/1999/xlink" x="0px" y="0px"
	 viewBox="0 0 283.46 40.16" style="enable-background:new 0 0 283.46 40.16;" xml:space="preserve">
<style type="text/css">
	.st0{fill:#FFFFFF;}
</style>
<g>
	<path class="st0" d="M11.31,9.44v16.16c0,0.91,0.22,1.61,0.63,2.09c0.41,0.48,0.94,0.72,1.57,0.72c1.02,0,1.83-0.5,2.41-1.52
		l0.67,0.28c-0.46,1.3-1.3,2.39-2.54,3.26s-2.72,1.3-4.41,1.3c-2.28,0-3.98-0.54-5.09-1.61c-1.11-1.07-1.65-2.48-1.65-4.24V9.46H0
		V8.48h2.89L11,1.35h0.35v7.13h5.44v0.98L11.31,9.44z"/>
	<path class="st0" d="M43.81,30.84v0.35H30.89v-0.35l2.22-2.41V14.87c0-2.46-1-3.7-3.02-3.7c-1.02,0-1.94,0.46-2.76,1.39v15.85
		l2.22,2.41v0.35H16.63v-0.35l2.24-2.41V3.22l-2.24-2.85V0h10.7v11.46c1.85-2.35,4.31-3.52,7.39-3.52c2.24,0,3.94,0.63,5.11,1.89
		c1.17,1.26,1.76,3.04,1.76,5.37v13.22L43.81,30.84z"/>
	<path class="st0" d="M53.53,19.74c0.17,2.28,0.85,4.07,2,5.35s2.67,1.91,4.54,1.91c2.89,0,5.02-1.15,6.39-3.48l0.78,0.22
		c-0.63,2.35-1.87,4.26-3.72,5.74c-1.85,1.48-4.22,2.22-7.09,2.22c-3.5,0-6.37-1.07-8.59-3.2c-2.22-2.13-3.33-4.94-3.33-8.39
		c0-3.94,1.13-6.96,3.39-9.05c2.26-2.09,5.28-3.13,9.05-3.13c3.26,0,5.87,0.89,7.81,2.67c1.94,1.78,2.91,4.52,2.91,8.2v0.98H53.61
		L53.53,19.74z M59.49,18.77v-1.02c0-3.46-0.22-5.81-0.65-7.07c-0.43-1.26-1.13-1.89-2.09-1.89c-2.2,0-3.28,3.33-3.26,9.98H59.49z"
		/>
	<path class="st0" d="M90.1,9.44v16.16c0,0.91,0.22,1.61,0.63,2.09c0.41,0.48,0.94,0.72,1.57,0.72c1.02,0,1.83-0.5,2.41-1.52
		l0.67,0.28c-0.46,1.3-1.3,2.39-2.54,3.26c-1.24,0.87-2.72,1.3-4.41,1.3c-2.28,0-3.98-0.54-5.09-1.61
		c-1.11-1.07-1.65-2.48-1.65-4.24V9.46H78.8V8.48h2.89l8.11-7.13h0.35v7.13h5.44v0.98L90.1,9.44z"/>
	<path class="st0" d="M104.79,19.74c0.17,2.28,0.85,4.07,2,5.35c1.15,1.28,2.67,1.91,4.54,1.91c2.89,0,5.02-1.15,6.39-3.48
		l0.78,0.22c-0.63,2.35-1.87,4.26-3.72,5.74c-1.85,1.48-4.22,2.22-7.09,2.22c-3.5,0-6.37-1.07-8.59-3.2
		c-2.22-2.13-3.33-4.94-3.33-8.39c0-3.94,1.13-6.96,3.39-9.05c2.26-2.09,5.28-3.13,9.05-3.13c3.26,0,5.87,0.89,7.81,2.67
		s2.91,4.52,2.91,8.2v0.98h-14.07L104.79,19.74z M110.75,18.77v-1.02c0-3.46-0.22-5.81-0.65-7.07c-0.43-1.26-1.13-1.89-2.09-1.89
		c-2.2,0-3.28,3.33-3.26,9.98H110.75z"/>
	<path class="st0" d="M119.82,30.84l2.24-2.41V3.22l-2.24-2.85V0h10.7v28.42l2.22,2.41v0.35h-12.92V30.84z"/>
	<path class="st0" d="M142.68,19.74c0.17,2.28,0.85,4.07,2,5.35s2.67,1.91,4.54,1.91c2.89,0,5.02-1.15,6.39-3.48l0.78,0.22
		c-0.63,2.35-1.87,4.26-3.72,5.74c-1.85,1.48-4.22,2.22-7.09,2.22c-3.5,0-6.37-1.07-8.59-3.2s-3.33-4.94-3.33-8.39
		c0-3.94,1.13-6.96,3.39-9.05c2.26-2.09,5.28-3.13,9.05-3.13c3.26,0,5.87,0.89,7.81,2.67c1.94,1.78,2.91,4.52,2.91,8.2v0.98h-14.07
		L142.68,19.74z M148.64,18.77v-1.02c0-3.46-0.22-5.81-0.65-7.07c-0.43-1.26-1.13-1.89-2.09-1.89c-2.2,0-3.28,3.33-3.26,9.98H148.64
		z"/>
	<path class="st0" d="M173.83,25.9c2.91,0.02,5.13,0.57,6.63,1.63c1.5,1.07,2.26,2.59,2.26,4.54c0,2.7-1.35,4.72-4.04,6.07
		c-2.7,1.35-6.05,2.02-10.07,2.02c-7.76,0-11.63-1.54-11.61-4.63c0-0.91,0.39-1.72,1.17-2.41c0.78-0.7,1.94-1.2,3.46-1.48
		c-1.98-0.8-2.98-2.2-2.98-4.2c0-1.04,0.39-2.04,1.17-2.98c0.78-0.94,1.87-1.74,3.26-2.41c-2.63-1.46-3.96-3.57-3.96-6.33
		c0-2.35,0.98-4.24,2.91-5.68c1.94-1.44,4.5-2.15,7.68-2.15c1.98,0,3.78,0.3,5.39,0.89l7.09-4.98h0.35v6h-5.48
		c2.17,1.46,3.26,3.44,3.26,5.94c0,2.35-0.98,4.24-2.91,5.68c-1.94,1.44-4.5,2.15-7.7,2.15c-2.11,0-3.94-0.3-5.48-0.94
		c-0.2,0.41-0.3,0.83-0.33,1.24c0,1.3,0.78,1.96,2.37,1.96l7.57,0.04L173.83,25.9z M169.28,39.21c4.68,0,7-1.35,7-4.02
		c0-0.85-0.33-1.52-0.96-2.02c-0.63-0.5-1.52-0.74-2.67-0.74l-7.44-0.09c-0.48,0-0.83-0.02-1.02-0.04
		c-1.07,0.54-1.61,1.39-1.61,2.54c0,1.37,0.61,2.44,1.83,3.22s2.85,1.17,4.89,1.17L169.28,39.21z M167.72,10.44
		c-0.35,1-0.52,2.78-0.52,5.37c0,2.61,0.17,4.39,0.52,5.37c0.35,0.98,1,1.46,1.96,1.46s1.61-0.48,1.96-1.44
		c0.35-0.96,0.52-2.76,0.52-5.39c0-2.59-0.17-4.37-0.52-5.37c-0.35-1-1-1.5-1.96-1.5S168.07,9.44,167.72,10.44z"/>
	<path class="st0" d="M200.79,7.96c1.63,0,2.87,0.35,3.72,1.07l-2.85,7.78h-0.37l-4.76-5.2c-0.67,0.41-1.24,1.02-1.7,1.83v15
		l3.44,2.41v0.35h-14.11v-0.35l2.22-2.41v-17.2l-2.22-2.39V8.5h9.35l1.24,3.78c0.67-1.28,1.54-2.33,2.59-3.13s2.2-1.22,3.44-1.22
		L200.79,7.96z"/>
	<path class="st0" d="M229.57,27.96c-0.96,2.5-2.89,3.74-5.78,3.74c-1.41,0-2.59-0.33-3.5-0.96c-0.91-0.63-1.48-1.44-1.72-2.41
		c-1.78,2.26-4.07,3.39-6.83,3.39c-0.72,0-1.44-0.11-2.15-0.3c-0.72-0.2-1.44-0.52-2.15-0.96s-1.3-1.09-1.74-1.96
		c-0.43-0.87-0.65-1.91-0.65-3.11c0-3.35,2.26-5.74,6.76-7.18c1.89-0.57,4.11-1.13,6.63-1.7v-3.87c0-2.5-0.83-3.74-2.48-3.74
		c-0.24,0-0.41,0.02-0.54,0.04l-6.24,7.98h-0.35l-2.76-7.05c3.24-1.3,7.02-1.96,11.35-1.96c3.15,0,5.52,0.59,7.11,1.78
		c1.59,1.2,2.39,2.76,2.39,4.72v12.2c0,1.24,0.28,1.87,0.87,1.87c0.46,0,0.83-0.28,1.11-0.85L229.57,27.96z M216.24,28.49
		c0.83,0,1.54-0.41,2.17-1.24v-9.94c-0.17,0.09-0.43,0.22-0.78,0.39c-0.35,0.17-0.61,0.28-0.78,0.35c-2.35,1.07-3.52,3-3.52,5.78
		c0,1.5,0.28,2.65,0.85,3.46s1.26,1.2,2.09,1.2H216.24z"/>
	<path class="st0" d="M246.73,7.94c2.44,0,4.46,0.94,6.07,2.83s2.41,4.76,2.41,8.61c0,3.94-0.96,6.98-2.89,9.13
		c-1.94,2.15-4.18,3.22-6.72,3.22c-2.35,0-4.15-0.85-5.44-2.54v7.96l3.11,2.15v0.35h-13.81v-0.35l2.24-2.15V11.22l-2.24-2.39V8.48
		h9.35l1.26,2.89c1.48-2.28,3.7-3.44,6.63-3.44H246.73z M242.12,29.05c2.83,0,4.24-3.11,4.24-9.31c0-3.11-0.33-5.31-0.96-6.59
		c-0.63-1.28-1.59-1.94-2.87-1.94c-0.96,0-1.74,0.33-2.35,0.96v15.81c0.63,0.72,1.28,1.07,1.96,1.07H242.12z"/>
	<path class="st0" d="M283.46,30.84v0.35h-12.92v-0.35l2.22-2.41V14.87c0-2.46-1-3.7-3.02-3.7c-1.02,0-1.94,0.46-2.76,1.39v15.85
		l2.22,2.41v0.35h-12.92v-0.35l2.24-2.41V3.22l-2.24-2.85V0h10.7v11.46c1.85-2.35,4.31-3.52,7.39-3.52c2.24,0,3.94,0.63,5.11,1.89
		s1.76,3.04,1.76,5.37v13.22L283.46,30.84z"/>
</g>
</svg>
