<svg xmlns="http://www.w3.org/2000/svg" xmlns:xlink="http://www.w3.org/1999/xlink" version="1.1" x="0px" y="0px" viewBox="0 0 91 113.75" style="enable-background:new 0 0 91 91;" xml:space="preserve"><g><path d="M22.8,66.7c8.2,4,17.3,5.9,26.3,4.1c-0.6,5.3-2,10.5-3.9,15.5c-1.3,3.3,4.2,4.9,5.3,1.5c2.3-7,2.9-14.2,1.8-21.3   c7.8-7.2,15.5-14.5,21.9-22.9c5.9-7.8,12-17.7,12.1-27.8C86.5,5.9,78.8-1.2,69,1C58.8,3.3,52.1,14.3,49.1,23.5   c-4,12.2-3.2,25.1-0.3,37.4c-0.1,0.3-0.2,0.5-0.3,0.8c-1.9-4.9-6-9.3-9.6-12.5c-5.5-5-13-10.9-20.8-11.1C11.2,37.9,4.4,43.5,6,50.8   C7.4,58.4,16.4,63.5,22.8,66.7z M51.5,32.2c1.8-8.8,6-18.7,13.7-23.9c3.6-2.4,8.6-3.7,12.4-1c3.4,2.3,3.8,7,3.3,10.7   c-1.1,8.5-6.4,16.6-11.5,23.3c-3.9,5.1-8.3,9.7-12.9,14.2c2.1-5,4.2-10,6.3-15C66,32.8,69.1,25,74.9,19c2.2-2.2-1.2-5.6-3.4-3.4   c-5.9,6-9.2,13.6-12.5,21.2c-2.7,6.3-5.4,12.6-8.1,19C50.2,47.9,50,39.9,51.5,32.2z M12.6,44.9c6.3-5.5,15.9,1.8,21,5.8   c3.1,2.4,5.9,5.1,8.2,8.2c0.6,0.8,1.1,1.6,1.6,2.5c-5.6-3.1-11.1-6.1-16.7-9.2c-3-1.7-5.7,3-2.7,4.6c5.7,3.2,11.5,6.3,17.2,9.5   C35.6,66.2,30.1,64.5,25,62C20.6,59.7,5.3,51.3,12.6,44.9z"/></g><text x="0" y="106" fill="#000000" font-size="5px" font-weight="bold" font-family="'Helvetica Neue', Helvetica, Arial-Unicode, Arial, Sans-serif">Created by BomSymbols</text><text x="0" y="111" fill="#000000" font-size="5px" font-weight="bold" font-family="'Helvetica Neue', Helvetica, Arial-Unicode, Arial, Sans-serif">from the Noun Project</text></svg>