<svg height="511pt" viewBox="0 1 511.99948 511" width="511pt" xmlns="http://www.w3.org/2000/svg"><path d="m200 301.773438c-20.753906 0-37.636719 16.882812-37.636719 37.636718 0 20.75 16.882813 37.636719 37.636719 37.636719s37.636719-16.886719 37.636719-37.636719c0-20.753906-16.882813-37.636718-37.636719-37.636718zm0 55.273437c-9.726562 0-17.636719-7.914063-17.636719-17.640625 0-9.722656 7.910157-17.636719 17.636719-17.636719 9.722656 0 17.636719 7.914063 17.636719 17.636719 0 9.726562-7.914063 17.640625-17.636719 17.640625zm0 0"/><path d="m508.207031 134.382812c-6.980469-5.527343-13.757812-9.023437-19.9375-11.183593 9.15625-12.898438 14.171875-33.226563 5.765625-63.179688-.941406-3.359375-3.566406-5.984375-6.925781-6.929687-29.960937-8.40625-50.289063-3.390625-63.183594 5.769531-2.15625-6.1875-5.65625-12.957031-11.179687-19.941406-3.042969-3.84375-8.425782-4.914063-12.710938-2.523438-22.246094 12.402344-30.011718 29.5-31.425781 43.476563-1.890625-.363282-3.949219-.6875-6.203125-.960938-4.875-.59375-9.46875 2.441406-10.824219 7.164063-2.148437 7.492187-3.464843 14.453125-3.984375 20.894531-16.675781 15.40625-38.199218 23.863281-61.035156 23.863281h-2.230469c-5.523437 0-10 4.476563-10 10 0 5.519531 4.476563 10 10 10h2.230469c11.351562 0 22.4375-1.714843 32.96875-5.007812l1.710938 1.710937c8.324218 8.324219 13.175781 19.195313 13.839843 30.859375-9.65625 2.257813-18.109375 7.675781-24.195312 15.113281-7.289063-8.914062-17.980469-14.9375-30.078125-16.082031-7.914063-22.929687-24.21875-41.808593-45.683594-52.972656v-113.953125c0-5.523438-4.480469-10-10-10h-50.25c-5.519531 0-10 4.476562-10 10v113.957031c-31.113281 16.191407-50.875 48.421875-50.875 83.867188v4.300781h-104c-5.523438 0-10 4.480469-10 10v144.609375c0 33.566406 24.800781 61.441406 57.035156 66.28125l.050782 58.984375h-15.648438c-5.519531 0-10 4.476562-10 10 0 5.519531 4.480469 10 10 10h51.3125c5.523438 0 10-4.480469 10-10 0-5.523438-4.476562-10-10-10h-15.664062l-.050782-58.988281c14.289063-2.148438 27.113282-8.828125 36.964844-18.519531v87.507812c0 5.519531 4.476562 10 10 10h152c5.519531 0 10-4.480469 10-10v-185.003906c5.230469 3.570312 11.261719 6.042968 17.761719 7.097656-1.851563 4.875-2.875 10.15625-2.875 15.671875 0 24.417969 19.863281 44.277344 44.28125 44.277344 24.414062 0 44.273437-19.859375 44.273437-44.277344 0-5.515625-1.019531-10.796875-2.871094-15.671875 21.035157-3.417969 37.152344-21.707031 37.152344-43.695312 0-5.527344-1.027344-10.816407-2.886718-15.699219 21.042968-3.414063 37.164062-21.707031 37.164062-43.699219 0-8.648438-2.503906-16.71875-6.808594-23.546875 3.183594-.640625 6.476563-1.4375 9.859375-2.410156 4.722657-1.355469 7.761719-5.941407 7.164063-10.820313-.273438-2.253906-.597656-4.316406-.960938-6.203125 13.976563-1.417969 31.074219-9.183593 43.476563-31.425781 2.390625-4.285156 1.320312-9.667969-2.523438-12.710938zm-158.058593-3.753906c1.632812 4.632813 3.949218 8.800782 7.007812 12.453125 5.578125 6.660157 12.65625 10.511719 19.429688 12.734375-6.886719 5.113282-14.558594 9.078125-22.789063 11.738282-2.25-11.0625-7.25-21.347657-14.644531-30.050782 3.785156-2.0625 7.457031-4.355468 10.996094-6.875zm29.296874 62.878906c-3.210937-3.925781-7.082031-7.289062-11.441406-9.925781 8.289063-3.492187 16.035156-8.089843 23.074219-13.683593.636719 2.023437 1.40625 4.078124 2.367187 6.125.804688 1.710937 1.71875 3.3125 2.691407 4.851562-6.527344 2.835938-12.242188 7.195312-16.691407 12.632812zm-245.386718 72.992188h131.941406v145.816406h-132zm211.109375-69.277344c13.386719 0 24.273437 10.890625 24.273437 24.277344s-10.890625 24.277344-24.273437 24.277344c-13.386719 0-24.28125-10.890625-24.28125-24.277344s10.894531-24.277344 24.28125-24.277344zm-44.28125 24.277344c0 13.386719-10.890625 24.277344-24.273438 24.277344-13.386719 0-24.28125-10.890625-24.28125-24.277344s10.894531-24.277344 24.28125-24.277344c13.382813 0 24.273438 10.890625 24.273438 24.277344zm-85.761719-201v64.574219h-30.25v-64.574219zm-36.265625 119.433594c3.652344-1.585938 6.015625-5.1875 6.015625-9.171875v-25.6875h30.25v25.6875c0 3.980469 2.363281 7.585937 6.015625 9.171875 18.046875 7.839844 32.066406 22.316406 39.367187 40.332031-16.472656 6.457031-28.175781 22.5-28.175781 41.234375 0 9.269531 2.871094 17.878906 7.757813 25h-106.03125v-23.875c0-.355469-.023438-.707031-.058594-1.054688v-13.246093c0-29.710938 17.609375-56.554688 44.859375-68.390625zm-64.859375 92.691406.058594 60.355469h-94.058594v-60.355469zm-46.972656 181.636719c-25.929688 0-47.027344-21.097657-47.027344-47.027344v-54.25h94.058594v46.210937c-.039063.347657-.058594.699219-.058594 1.054688v9.21875c-1.167969 24.894531-21.789062 44.792969-46.972656 44.792969zm66.972656 78.238281v-60.183594h132v25.183594h-53c-5.523438 0-10 4.476562-10 10 0 5.519531 4.476562 10 10 10h53v15zm152.609375-211.601562c0-13.386719 10.890625-24.277344 24.277344-24.277344s24.277343 10.890625 24.277343 24.277344c0 13.386718-10.890624 24.277343-24.277343 24.277343s-24.277344-10.890625-24.277344-24.277343zm58.558594 83.644531c-13.386719 0-24.28125-10.890625-24.28125-24.277344 0-13.382813 10.894531-24.277344 24.28125-24.277344 13.382812 0 24.273437 10.894531 24.273437 24.277344 0 13.386719-10.886718 24.277344-24.273437 24.277344zm34.273437-59.367188c-13.386718 0-24.273437-10.890625-24.273437-24.277343 0-13.386719 10.890625-24.277344 24.273437-24.277344 13.386719 0 24.28125 10.890625 24.28125 24.277344 0 13.386718-10.890625 24.277343-24.28125 24.277343zm34.28125-59.398437c-13.386718 0-24.277344-10.890625-24.277344-24.277344 0-13.382812 10.890626-24.277344 24.277344-24.277344 13.386719 0 24.277344 10.890625 24.277344 24.277344s-10.890625 24.277344-24.277344 24.277344zm41.839844-87.976563c-4.570312-1.691406-9.589844.203125-12.023438 4.433594-2.230468 3.871094-1.507812 8.734375 1.519532 11.910156.238281.398438.921875 1.679688 1.664062 4.320313-1.035156.199218-2.054687.378906-3.046875.535156-7.242187 1.132812-13.390625 1.046875-18.390625-.238281-.21875-.058594-.4375-.121094-.660156-.179688-1.546875-.4375-2.992188-.988281-4.308594-1.667969-3.871094-2.007812-6.742187-5.082031-8.769531-9.398437-3.902344-8.300781-3.0625-17.851563-3.0625-17.894531.3125-2.996094-.71875-5.976563-2.847656-8.105469-1.886719-1.886719-4.417969-2.933594-7.050781-2.933594-.339844 0-.683594.019531-1.027344.054688-.167969.019531-16.90625 1.453125-25.125-8.464844-6.0625-7.3125-5.835938-19.066406-3.761719-29.765625 2.644531.746094 3.921875 1.429688 4.3125 1.664062 3.140625 2.980469 7.90625 3.628907 11.769531 1.46875 4.230469-2.371093 6.152344-7.4375 4.554688-12.015624-.015625-.050782-1.65625-5.414063-.382813-12.332032 1.417969-7.730468 5.839844-14.523437 13.179688-20.277344 7.144531 13.148438 4.554687 23.152344 4.417969 23.648438-1.441407 5.277344 1.628906 10.738281 6.890624 12.246094 5.261719 1.511718 10.757813-1.492188 12.335938-6.734375.855469-2.84375 9.289062-26.53125 50.4375-17.132813 9.390625 41.136719-14.292969 49.582032-17.136719 50.4375-5.242187 1.578125-8.242187 7.074219-6.730469 12.335938 1.511719 5.261718 6.972657 8.328125 12.25 6.886718.492188-.132812 10.488282-2.726562 23.636719 4.414063-14.027343 17.832031-30.347656 13.507813-32.644531 12.785156zm0 0"/><path d="m176 457.5c-2.628906 0-5.210938 1.066406-7.070312 2.929688-1.859376 1.859374-2.929688 4.4375-2.929688 7.070312 0 2.628906 1.070312 5.207031 2.929688 7.066406 1.859374 1.863282 4.441406 2.933594 7.070312 2.933594s5.210938-1.070312 7.070312-2.933594c1.859376-1.859375 2.929688-4.4375 2.929688-7.066406 0-2.632812-1.070312-5.210938-2.929688-7.070312-1.859374-1.859376-4.441406-2.929688-7.070312-2.929688zm0 0"/></svg>