<?xml version="1.0" standalone="no"?>
<!DOCTYPE svg PUBLIC "-//W3C//DTD SVG 20010904//EN"
 "http://www.w3.org/TR/2001/REC-SVG-20010904/DTD/svg10.dtd">
<svg version="1.0" xmlns="http://www.w3.org/2000/svg"
 width="96.000000pt" height="96.000000pt" viewBox="0 0 96.000000 96.000000"
 preserveAspectRatio="xMidYMid meet">

<g transform="translate(0.000000,96.000000) scale(0.100000,-0.100000)"
fill="#000000" stroke="none">
<path d="M270 812 c0 -16 11 -51 25 -78 14 -27 25 -50 25 -50 0 -1 -13 -4 -30
-7 -42 -9 -106 -71 -126 -123 -47 -123 43 -312 180 -378 45 -22 62 -25 146
-23 89 2 98 5 142 35 127 87 204 249 168 356 -34 105 -160 172 -254 136 -21
-8 -26 -7 -26 6 0 20 18 54 42 81 16 17 18 25 9 42 -16 28 -24 27 -58 -12
l-29 -34 -35 29 c-38 32 -85 48 -141 48 -35 0 -38 -2 -38 -28z m142 -71 c38
-34 32 -49 -12 -31 -27 11 -50 36 -50 54 0 15 33 3 62 -23z m37 -140 l31 -22
30 21 c88 63 217 16 236 -85 15 -84 -52 -214 -141 -273 -42 -28 -50 -29 -135
-28 -83 2 -94 5 -133 33 -113 82 -160 245 -95 328 45 58 144 70 207 26z"/>
</g>
</svg>
