<?xml version="1.0" encoding="iso-8859-1"?>
<!-- Generator: Adobe Illustrator 19.0.0, SVG Export Plug-In . SVG Version: 6.00 Build 0)  -->
<svg version="1.1" id="Capa_1" xmlns="http://www.w3.org/2000/svg" xmlns:xlink="http://www.w3.org/1999/xlink" x="0px" y="0px"
	 viewBox="0 0 512 512" style="enable-background:new 0 0 512 512;" xml:space="preserve">
<path style="fill:#FD3018;" d="M271,150h165c6.064,0,11.543-3.647,13.857-9.258c2.329-5.61,1.04-12.056-3.252-16.348L397.211,75
	l49.395-49.395c4.292-4.292,5.581-10.737,3.252-16.348C447.543,3.647,442.064,0,436,0H256c-8.291,0-15,6.709-15,15v135H271z"/>
<path style="fill:#896748;" d="M271,15v272c0,8.399-6.599,15-15,15s-15-6.601-15-15V15c0-8.401,6.599-15,15-15S271,6.599,271,15z"/>
<path style="fill:#73553A;" d="M271,15v272c0,8.399-6.599,15-15,15V0C264.401,0,271,6.599,271,15z"/>
<path style="fill:#CAE8F9;" d="M477.499,369.5C434,293.299,350.799,244.399,264.401,242.3c-2.701-0.3-5.7-0.3-8.401-0.3
	c-2.999-0.3-5.4,0-6.599,0.3c-88.2,2.098-171.402,50.999-214.9,127.2C12.001,407.599,0,451.7,0,497c0,8.399,6.599,15,15,15h482
	c8.401,0,15-6.601,15-15C512,451.7,499.999,407.599,477.499,369.5z"/>
<g>
	<path style="fill:#B7E0F6;" d="M512,497c0,8.399-6.599,15-15,15H256V242c2.701,0,5.7,0,8.401,0.3
		c86.398,2.098,169.6,50.999,213.098,127.2C499.999,407.599,512,451.7,512,497z"/>
	<path style="fill:#B7E0F6;" d="M451.7,384.5C413,317.3,339.699,274.1,262,272.3c-3.3-0.3-4.501-0.3-6-0.3h-4.2
		C172.301,274.1,99,317.3,60.3,384.5c-17.401,29.399-27.599,62.999-29.7,97.5h450.799C479.299,447.499,469.1,413.899,451.7,384.5z"
		/>
</g>
<path style="fill:#A4D9F5;" d="M481.399,482H256V272c1.5,0,2.701,0,6,0.3c77.699,1.8,151,45,189.699,112.2
	C469.1,413.899,479.299,447.499,481.399,482z"/>
<g>
	<path style="fill:#CAE8F9;" d="M374.2,372.8c-21.899-76.8-63.3-125.7-109.799-130.499c-3.001-0.3-5.7-0.3-8.401-0.3
		c-2.999,0-5.4,0-7.8,0.3C201.1,247.1,159.7,296,137.8,372.8c-11.1,38.1-16.8,81-16.8,124.2c0,8.399,6.599,15,15,15h240
		c8.401,0,15-6.601,15-15C391,453.8,385.3,410.9,374.2,372.8z M151.3,482c1.199-35.101,6.299-69.901,15.3-100.8
		c18.3-63.9,50.7-105.601,85.199-109.2h4.2c1.5,0,2.701,0,4.799,0.3c33.9,3.3,66.301,45,84.6,108.9
		c9.001,30.899,14.101,65.698,15.3,100.8H151.3z"/>
	<path style="fill:#CAE8F9;" d="M271,257v240c0,8.399-6.599,15-15,15s-15-6.601-15-15V257c0-8.401,6.599-15,15-15
		S271,248.599,271,257z"/>
	<path style="fill:#CAE8F9;" d="M479.599,377c0,8.399-6.599,15-15,15H47.401c-8.401,0-15-6.601-15-15c0-8.401,6.599-15,15-15H464.6
		C473,362,479.599,368.599,479.599,377z"/>
</g>
<g>
	<path style="fill:#B7E0F6;" d="M391,497c0,8.399-6.599,15-15,15H256v-30h104.7c-1.199-35.101-6.299-69.901-15.3-100.8
		c-18.3-63.9-50.7-105.601-84.6-108.9c-2.098-0.3-3.3-0.3-4.799-0.3v-30c2.701,0,5.4,0,8.401,0.3
		c46.5,4.799,87.9,53.699,109.799,130.499C385.3,410.9,391,453.8,391,497z"/>
	<path style="fill:#B7E0F6;" d="M479.599,377c0,8.399-6.599,15-15,15H256v-30h208.599C473,362,479.599,368.599,479.599,377z"/>
	<path style="fill:#B7E0F6;" d="M271,257v240c0,8.399-6.599,15-15,15V242C264.401,242,271,248.599,271,257z"/>
</g>
<g>
</g>
<g>
</g>
<g>
</g>
<g>
</g>
<g>
</g>
<g>
</g>
<g>
</g>
<g>
</g>
<g>
</g>
<g>
</g>
<g>
</g>
<g>
</g>
<g>
</g>
<g>
</g>
<g>
</g>
</svg>
