<svg id="Capa_1" enable-background="new 0 0 512.003 512.003" height="512" viewBox="0 0 512.003 512.003" width="512" xmlns="http://www.w3.org/2000/svg"><g><path d="m287.716 86.087 17.711-30.675c14.781-25.603 38.648-43.917 67.205-51.568 28.557-7.65 58.382-3.724 83.985 11.057s43.917 38.648 51.568 67.205c7.651 28.556 3.725 58.382-11.057 83.985l-25.989 45.013z" fill="#d2d2d7"/><path d="m380.396 32.822c-20.816 5.578-38.214 18.927-48.989 37.59l-3.79 6.565 133.705 91.131 9.825-17.017c10.775-18.663 13.637-40.405 8.06-61.221s-18.927-38.213-37.59-48.989c-12.432-7.178-26.228-10.843-40.208-10.843-7.008 0-14.064.921-21.013 2.784z" fill="#607882"/><path d="m40.866 211.104-25.989-45.013c-14.781-25.603-18.708-55.429-11.057-83.986 7.652-28.556 25.966-52.423 51.568-67.205 25.604-14.78 55.428-18.707 83.986-11.056 28.556 7.652 52.423 25.966 67.205 51.568l17.711 30.675z" fill="#ebebf0"/><path d="m110.597 30.038c-13.98 0-27.776 3.666-40.208 10.843-18.663 10.776-32.013 28.173-37.591 48.989s-2.715 42.558 8.06 61.221l9.825 17.017 133.705-91.131-3.79-6.565c-10.775-18.663-28.173-32.013-48.989-37.59-6.95-1.863-14.005-2.784-21.012-2.784z" fill="#9bb9c3"/><path d="m512.003 287.894c0-123.757-100.325-224.083-224.083-224.083h-31.919l-20.016 147.21 20.016 300.957h256.002z" fill="#ebebf0"/><path d="m224.083 63.811c-123.757 0-224.083 100.326-224.083 224.083v224.083h256.002v-448.166z" fill="#fff5f5"/><path d="m282.579 211.02h-26.577l-20.016 138.151 20.016 99.071h26.577c55.66 0 100.943-45.283 100.943-100.944v-35.336c0-55.659-45.283-100.942-100.943-100.942z" fill="#d2d2d7"/><path d="m229.424 211.02c-55.66 0-100.943 45.283-100.943 100.943v35.336c0 55.661 45.283 100.944 100.943 100.944h26.577v-237.223z" fill="#ebebf0"/><path d="m96.125 169.443h31.893v30h-31.893z" fill="#07485e"/><path d="m383.985 169.443h31.893v30h-31.893z" fill="#04303e"/><path d="m282.579 274.755h-26.577l-20.016 37.208 20.016 37.208h26.577c20.55 0 37.208-16.659 37.208-37.208 0-20.549-16.658-37.208-37.208-37.208z" fill="#04303e"/><path d="m229.424 274.755c-20.55 0-37.208 16.659-37.208 37.208 0 20.55 16.659 37.208 37.208 37.208h26.577v-74.417h-26.577z" fill="#07485e"/></g></svg>