<?xml version="1.0" encoding="utf-8"?>
<!-- Svg Vector Icons : http://www.onlinewebfonts.com/icon -->
<!DOCTYPE svg PUBLIC "-//W3C//DTD SVG 1.1//EN" "http://www.w3.org/Graphics/SVG/1.1/DTD/svg11.dtd">
<svg version="1.1" xmlns="http://www.w3.org/2000/svg" xmlns:xlink="http://www.w3.org/1999/xlink" x="0px" y="0px" viewBox="0 0 1000 1000" enable-background="new 0 0 1000 1000" xml:space="preserve">
<metadata> Svg Vector Icons : http://www.onlinewebfonts.com/icon </metadata>
<g><g><g><path d="M987.5,291.9c0.4-54.6,16.5-174-66.9-181C717.3,93.8,510.5,88.9,306.4,81.9c-73.2-2.4-190.8-11.5-238,61.6C9.6,234.1,22.2,370.6,16.2,474.6c-3.5,60.9-27,235.2,47.6,273c104,52.9,238.7,5.3,348.3-3.2c3.5-0.3,6.3-1.8,8.8-3.5c15.4,58.5,37.5,117.6,68.6,168.7c10.2,16.8,31.5,11.2,38.2-4.9c15.8-38.2,22-79.5,29.1-119.7c3.2-18.2,10.9-40.3,15.4-61.3c1.8,0.4,3.5,0.7,5.6,0.7c101.5-7.7,258,35.7,345.8-29.4C1010.6,630.7,986.8,382.2,987.5,291.9z M873.4,672c-85.8,32.6-205.5,1.4-296.1,8.4c-2.1,0-3.5,1.1-5.3,1.4c-4.6-7.3-13.3-11.2-22.4-6.3c-26.9,15.1-27.6,61.6-32.2,88.2c-4.9,28-9.5,56.7-16.1,84.7c-23.8-45.5-41.7-93.5-67.6-138.3c-4.9-8.4-15.8-5.3-18.6,1.8c-1.1-0.4-2.1-0.7-3.2-0.7c-70.4-0.4-139.7,5.6-209.7,9.1C53.7,728,56.5,623,59.6,507.5c1.8-70.7,11.2-140.7,13-211.4c4.2-157.9,102.2-172.9,234.2-169.4c134.4,3.5,269.2,10.8,403.2,19.3c56,3.5,111,8.8,167,8.8c76,0,64.8,85.8,64.8,137.2C941.3,374.5,969.7,635.6,873.4,672z"/><path d="M230.1,194.6c0-27.3-42-27.3-42.4,0c-0.7,53.9,0,116.6,18.9,167.7c3.2,8.8,18.6,8.4,17.5-2.4C219.6,303.8,230.1,250.2,230.1,194.6z"/><path d="M469.2,324.1c-17.5-2.5-34-2.1-51.1-5.3c-1.8-37.1-3.2-74.6-7.4-111.3c-1.8-14.7-21.3-14.7-23.1,0c-4.9,42-6,84.7-8,127.1c-0.4,8.8,6.3,16.1,14.3,18.9c26.6,8.4,57.8,16.5,83.3,1.8C493.7,346.1,484.2,326.2,469.2,324.1z"/><path d="M548.3,194.6c-10.5,3.1-11.9,14.4-5.9,22.4c0.3,0.4,0.7,0.7,0.7,1.1c-25.2,1-39.2,57.8-43.8,75.3c-10.9,41,1,87.5,51.5,85.1C648.4,373.1,618.3,172.9,548.3,194.6z M540.6,340.5c-28.4-4.9,8-88.6,8-115.9c13.3,16.8,23.5,30.5,25.9,55.3C577,302,572.8,346.1,540.6,340.5z"/><path d="M723.6,216.3c-2.5-8.4-12.3-12.3-20-8c-19.3,10.9-21.7,32.6-28,52.5c-4.9,15.4-10.1,30.8-16.4,45.2c-9.5-35.4-16.1-71.1-22.1-107.5c-1.8-11.6-17.1-7-18.5,2.4c-6.6,52.9,8,105.7,16.8,157.5c2.1,13.3,22.8,18.9,31.5,8.4c16.5-21,28-43.1,37.1-67.9C712.8,275.4,731,241.1,723.6,216.3z"/><path d="M824.1,326.2c-13.7,2.1-25.6,8-38.5,11.5c-0.4-10.2-0.4-20.7-0.4-30.8c14.4,1,29.8,0.3,37.4-10.9c4.2-6,0.4-17.2-7.3-18.2c-10.2-1.4-13,2.8-22.1,5.6c-2.8,0.7-5.6,1-8.4,1.8c0-20,0-40.3-0.4-60.2c13,4.2,30.1,3.2,40.3,4.9c8.8,1.4,18.6-2.1,20.7-11.6c0.7-3.5,0.7-5.3,0-8.8c-2.1-9.4-11.9-13.3-20.7-11.5c-11.9,2.1-32.5,0-45.9,6.6c-2.8,1.4-4.2,3.5-5.3,5.3c-4.2,0-8.8,2.1-10.2,7.4c-12.9,45.9-11.9,95.6-14.7,142.5c-0.7,9.8,8.8,18.9,18.5,18.6c22.1-1.1,58.1-4.6,73.1-23.5c4.6-5.6,7.7-14,2.8-20.7C838.8,327.2,832.5,324.8,824.1,326.2z"/><path d="M223.1,450.4c-30.8,7.3-65.5,1.8-97,4.9c-16.1,1.8-16.1,23.1,0,24.9c13.3,1.4,27.3,1,41,1c-1.8,18.5,2.1,38.9,3.2,56.4c1.8,24.1,4.2,48.6,10.1,72.4c2.5,10.2,18.6,8.1,18.2-2.4c-0.3-23.5-1.4-46.6-1.4-70c0-17.9,3.5-37.5,1.8-56c8.1,0.7,15.8,1.4,23.5,3.5C252.2,492.1,252.2,443.4,223.1,450.4z"/><path d="M346.7,609c-9.5-25.5-15.8-48.7-31.1-67.6c19.6-13.7,33.3-34,31.1-60.6c-2.8-35-36.4-51.1-67.9-49.4c-9.5,0.3-17.2,7.4-17.2,17.2c-0.3,51.1-3.8,101.5-7.7,152.3c-1,13.3,21.4,16.4,23.5,3.2c2.5-14.7,4.9-29.1,7.3-43.8c15.4,15.8,19.6,36.8,27.7,58.1C320.4,639.4,354.7,630.7,346.7,609z M294.9,467.6c23.8,7,18.2,33.6-3.8,47.6C292.8,499.1,294.2,483.3,294.9,467.6z"/><path d="M457.3,539.7c-8.4-38.9-20.7-79.1-43.1-112.4c-7.3-10.9-22.8-11.2-29.8,0c-36.1,56.7-33.3,138.6-19.9,202c2.4,11.2,19.3,8.4,19.3-2.4c0-13.7,0-27.7,0-41.7c10.5,0.7,20.6,1.4,31.1,2.4c4.5,0.4,9.1,1.4,13.3,2.8c1.8,11.2,4.2,22.1,8.8,31.5c4.9,9.4,21.4,10.2,26.3,0C474.1,597.4,462.5,563.8,457.3,539.7z M420.9,566.3c-12.3,0-24.5,0-36.8,0.4c1-31.9,4.5-63.7,15.8-92.8c9.1,21,15.4,43.1,21,65.5c2.1,8.4,3.2,17.5,4.2,26.9C423.7,566.3,422.3,566.3,420.9,566.3z"/><path d="M617.6,444.5c-4.2-10.5-16.8-15.4-25.9-6.7c-16.1,15.4-19.3,46.2-26.3,66.5c-7.7,21.7-16.4,43.4-25.9,64.4c-14.4-36.4-24.9-75.3-35-112.7c-3.1-11.5-18.9-8.4-19.9,2.8c-4.5,53.2,16.8,116.6,37.8,164.9c6,13.3,26.6,11.5,32.9,0c16.5-29.4,29.1-60.6,41-91.7C605.3,508.9,627,469.3,617.6,444.5z"/><path d="M710.7,567c-14.3,0.7-30.1,4.5-45.2,8.8c-0.4-11.2,0-22.4-0.4-33.3c14.7,2.5,34.7,8,43.8-4.9c2.5-3.5,2.5-9.4,0-12.9c-9.1-13-29.1-7.4-43.8-4.9c0-3.8,0-7.7,0-11.9c0.4-8.8,0-22.4,0-35c3.2,1.1,6.7,1.8,9.8,2.8c12.3,3.2,22.8,7,35.7,5.9c10.5-1,20.3-15,9.8-23.4c-15.8-12.6-34.7-11.6-53.6-12.6c0-0.4,0-0.7,0.4-1.1c2.1-7-7.7-13.3-12.6-7.3c-1.8,2.1-3.1,4.5-4.5,6.7c-11.2-1.8-20.3,13.7-10.5,20.3c-15,41-9.8,97.7-11.2,137.2c-0.3,12.3,12.3,21.4,23.8,18.2c26.3-7,55-5.6,71.4-29.8C729.9,580.3,721.5,566.6,710.7,567z"/><path d="M832.5,568.7c-14.7-7.7-34.3-1.4-52.5,3.1c-1.4-43,0.4-86.5,1-129.5c0.4-15-23.1-18.6-26.3-3.5c-11.2,51.5-9.8,104-12.9,156.1c-0.7,10.5,9.4,20,19.6,19.6c23.8-0.7,70-0.7,78.4-28.4C841.6,579.6,838.8,571.9,832.5,568.7z"/></g></g><g></g><g></g><g></g><g></g><g></g><g></g><g></g><g></g><g></g><g></g><g></g><g></g><g></g><g></g><g></g></g>
</svg>