<?xml version="1.0" standalone="no"?>
<!DOCTYPE svg PUBLIC "-//W3C//DTD SVG 20010904//EN"
 "http://www.w3.org/TR/2001/REC-SVG-20010904/DTD/svg10.dtd">
<svg version="1.0" xmlns="http://www.w3.org/2000/svg"
 width="232.000000pt" height="236.000000pt" viewBox="0 0 232.000000 236.000000"
 preserveAspectRatio="xMidYMid meet">

<g transform="translate(0.000000,236.000000) scale(0.100000,-0.100000)"
fill="#000000" stroke="none">
<path d="M371 1896 l-25 -26 85 6 c177 14 306 -29 424 -139 l66 -62 2 -67 c1
-37 4 -63 5 -57 3 6 9 6 18 -2 10 -8 14 -8 14 0 0 6 -4 11 -8 11 -4 0 -8 9 -8
20 0 10 2 17 4 15 5 -5 42 33 42 44 0 4 -11 6 -25 3 -18 -3 -25 0 -25 12 0 9
6 19 14 22 19 7 5 49 -16 49 -8 0 -37 22 -64 49 -70 71 -222 134 -324 135 -8
0 -46 3 -85 7 -67 6 -71 5 -94 -20z"/>
<path d="M910 1475 c0 -26 3 -44 8 -42 4 3 6 -23 4 -56 -1 -44 2 -68 13 -82
13 -16 17 -17 24 -6 12 19 28 6 36 -29 5 -21 11 -27 23 -23 14 5 14 3 -1 -9
-17 -13 -17 -15 -3 -27 11 -9 16 -10 16 -2 0 6 6 11 14 11 13 0 13 -4 0 -27
-13 -27 -13 -29 14 -40 15 -6 29 -8 32 -5 10 13 66 38 77 35 15 -5 4 -43 -13
-43 -8 0 -11 6 -8 15 5 11 2 13 -10 9 -20 -8 -20 -13 3 -43 l18 -23 13 32 c11
27 17 31 41 26 35 -7 46 18 18 38 -14 9 -17 16 -9 21 6 4 9 14 6 22 -4 10 -2
13 8 10 10 -4 12 0 8 16 -7 32 -23 49 -41 44 -9 -2 -26 9 -39 25 -13 15 -18
28 -12 28 6 0 10 5 8 11 -2 6 -6 10 -8 9 -3 -1 -18 3 -33 9 -16 6 -26 7 -22 2
3 -5 -4 -12 -14 -16 -13 -4 -18 -12 -14 -21 7 -20 -30 -54 -59 -54 -19 0 -20
2 -8 11 13 9 12 10 -2 5 -19 -6 -25 9 -8 19 13 8 13 45 -1 45 -5 0 -7 4 -4 10
3 5 -4 20 -17 33 -24 24 -28 40 -15 53 12 12 8 21 -18 38 l-25 16 0 -45z"/>
<path d="M1260 1291 c0 -5 12 -12 28 -15 15 -4 36 -9 47 -12 11 -3 5 4 -13 15
-34 22 -62 27 -62 12z"/>
<path d="M958 1246 c-4 -19 11 -46 26 -46 9 0 0 48 -10 58 -9 8 -13 5 -16 -12z"/>
<path d="M1682 913 c-1 -10 -2 -26 -3 -36 0 -9 -4 -15 -10 -12 -5 4 -9 2 -9
-4 0 -6 -6 -8 -14 -5 -9 3 -17 -3 -21 -15 -7 -24 -25 -28 -25 -6 0 21 -30 19
-46 -2 -10 -14 -17 -16 -31 -7 -10 6 -20 20 -22 30 -2 10 -8 22 -13 25 -16 10
-48 -2 -48 -17 0 -24 -109 -124 -136 -124 -3 0 -2 9 1 20 4 14 2 20 -9 20 -8
0 -13 -6 -11 -12 7 -18 -15 -47 -22 -30 -2 6 -9 12 -15 12 -6 0 -3 -11 6 -25
22 -33 21 -35 -14 -25 -32 9 -49 8 -67 -3 -6 -4 -19 -4 -30 0 -15 5 -16 4 -6
-8 15 -19 15 -91 0 -86 -7 2 -14 15 -17 28 -3 13 -11 25 -19 27 -12 3 -12 1 0
-14 11 -13 11 -18 2 -21 -17 -6 -17 -24 0 -21 6 2 11 -5 11 -14 -1 -10 4 -18
12 -18 8 0 14 5 14 10 0 6 5 10 10 10 6 0 10 -7 10 -15 0 -8 6 -15 13 -15 9 0
8 -3 -2 -9 -8 -5 -10 -14 -6 -21 6 -10 2 -12 -13 -8 -24 7 -30 -6 -9 -19 18
-11 59 -3 81 15 22 20 106 24 99 5 -3 -6 -11 -14 -19 -17 -20 -8 -17 -32 8
-55 19 -19 20 -21 4 -27 -10 -4 -22 -2 -29 5 -16 16 -37 14 -31 -4 9 -23 -13
-18 -30 7 -9 12 -19 19 -23 15 -3 -4 -1 -13 5 -19 17 -17 15 -28 -4 -28 -10 0
-14 6 -11 14 8 19 -29 52 -37 34 -3 -7 -3 -3 0 10 6 25 -20 32 -30 7 -3 -8 -1
-15 3 -15 13 0 1 -40 -13 -41 -6 -1 -20 0 -31 1 -16 2 -17 -1 -7 -13 10 -12 9
-16 -4 -21 -10 -4 -22 1 -31 11 -14 17 -14 17 -9 1 6 -21 -14 -24 -32 -6 -9 9
-12 9 -12 0 0 -25 71 -89 130 -117 53 -25 58 -30 40 -37 -13 -5 -18 -13 -14
-19 8 -13 428 -6 474 8 l25 7 -24 6 c-23 5 -21 8 30 44 71 52 117 105 111 129
-3 14 0 18 13 15 10 -2 20 3 23 11 3 10 0 11 -9 5 -10 -6 -9 -1 3 17 20 31 39
99 28 99 -5 0 -11 -5 -13 -10 -3 -6 -4 -5 -3 2 1 7 13 15 27 19 l24 7 -24 1
c-17 1 -21 4 -14 14 5 6 10 28 12 47 1 19 5 37 10 40 8 6 23 40 16 40 -2 0
-10 -6 -17 -14 -12 -11 -14 -7 -13 25 0 22 2 39 5 39 3 0 6 9 6 19 0 15 -3 17
-13 9 -13 -10 -18 1 -14 26 3 15 -20 35 -35 29 -8 -3 -14 1 -14 10 0 10 -11
17 -27 19 -18 2 -28 9 -28 20 0 25 -21 44 -23 21z m38 -63 c0 -5 -2 -10 -4
-10 -3 0 -8 5 -11 10 -3 6 -1 10 4 10 6 0 11 -4 11 -10z m-199 -312 c7 -13 7
-23 2 -27 -5 -3 -12 -14 -16 -23 -8 -23 -23 -23 -44 2 -21 24 -33 26 -33 5 0
-8 -4 -15 -10 -15 -5 0 -10 5 -10 10 0 6 -10 8 -22 5 -26 -6 -62 13 -40 22 7
2 18 10 25 17 7 7 18 11 25 8 6 -2 12 1 12 6 0 5 23 10 50 10 40 0 53 -4 61
-20z m169 -24 c0 -8 -7 -14 -15 -14 -8 0 -15 2 -15 4 0 2 -3 11 -6 19 -4 12 0
14 15 10 12 -3 21 -12 21 -19z m74 -9 c-4 -8 -8 -15 -10 -15 -2 0 -4 7 -4 15
0 8 4 15 10 15 5 0 7 -7 4 -15z m-337 -35 c13 0 13 -3 3 -15 -7 -9 -19 -14
-25 -11 -7 2 -17 0 -23 -6 -8 -8 -13 -6 -18 6 -8 20 13 39 34 31 8 -3 21 -5
29 -5z m343 -10 c0 -5 -5 -10 -11 -10 -5 0 -7 5 -4 10 3 6 8 10 11 10 2 0 4
-4 4 -10z m-86 -25 c-4 -8 -8 -15 -10 -15 -2 0 -4 7 -4 15 0 8 4 15 10 15 5 0
7 -7 4 -15z m-637 -107 c-3 -8 -6 -5 -6 6 -1 11 2 17 5 13 3 -3 4 -12 1 -19z"/>
<path d="M1310 796 c0 -2 7 -9 15 -16 9 -7 15 -8 15 -2 0 5 -7 12 -15 16 -8 3
-15 4 -15 2z"/>
<path d="M1105 689 c-4 -6 -5 -12 -2 -15 2 -3 7 2 10 11 7 17 1 20 -8 4z"/>
<path d="M1842 610 c0 -14 2 -19 5 -12 2 6 2 18 0 25 -3 6 -5 1 -5 -13z"/>
<path d="M1246 511 c-3 -5 1 -11 9 -14 9 -4 12 -1 8 9 -6 16 -10 17 -17 5z"/>
<path d="M1199 470 c32 -27 56 -27 39 0 -8 12 -23 20 -38 20 l-25 -1 24 -19z"/>
</g>
</svg>
