<?xml version="1.0" standalone="no"?>
<!DOCTYPE svg PUBLIC "-//W3C//DTD SVG 20010904//EN"
 "http://www.w3.org/TR/2001/REC-SVG-20010904/DTD/svg10.dtd">
<svg version="1.0" xmlns="http://www.w3.org/2000/svg"
 width="512.000000pt" height="512.000000pt" viewBox="0 0 512.000000 512.000000"
 preserveAspectRatio="xMidYMid meet">

<g transform="translate(0.000000,512.000000) scale(0.100000,-0.100000)"
fill="#000000" stroke="none">
<path d="M1281 4978 c203 -402 502 -784 975 -1248 115 -113 267 -253 338 -312
125 -105 130 -108 177 -108 76 0 66 23 -53 126 -341 295 -563 506 -762 724
-309 339 -457 524 -611 758 -68 104 -103 136 -64 60z"/>
<path d="M2866 4385 c-3 -49 -10 -265 -16 -480 -5 -214 -13 -438 -16 -498 l-6
-107 59 6 c32 4 59 7 60 8 1 1 7 51 13 111 22 232 100 991 104 1020 l4 31 -98
-1 -98 0 -6 -90z"/>
<path d="M4857 3505 c-85 -60 -238 -102 -322 -88 -30 5 -35 3 -35 -15 0 -16 9
-21 48 -27 92 -12 230 22 340 85 53 31 62 46 40 68 -15 15 -15 16 -71 -23z"/>
<path d="M4847 3283 c-20 -19 12 -101 34 -88 15 10 10 62 -7 79 -18 18 -18 18
-27 9z"/>
<path d="M4660 3216 c0 -35 21 -63 40 -51 13 8 13 28 -2 60 -17 37 -38 32 -38
-9z"/>
<path d="M4876 3153 c-3 -3 -6 -26 -6 -49 0 -58 -15 -94 -39 -94 -10 0 -39 23
-64 50 -25 28 -48 50 -51 50 -16 0 -3 -41 24 -78 81 -113 160 -85 160 57 0 56
-9 79 -24 64z"/>
<path d="M4286 2825 c-15 -213 -28 -355 -38 -418 -5 -38 -8 -70 -5 -73 2 -2
29 9 61 26 51 28 57 29 63 13 64 -188 267 -394 419 -427 23 -5 34 -2 48 13 18
20 18 21 0 27 -128 41 -267 150 -348 273 -71 108 -93 165 -106 276 -11 101
-47 267 -73 340 l-14 40 -7 -90z"/>
<path d="M5070 2848 c-14 -11 -50 -32 -80 -47 -100 -46 -268 -30 -432 43 -14
6 -18 3 -18 -13 0 -15 14 -27 48 -44 172 -86 391 -81 501 11 27 22 32 33 27
50 -9 27 -14 27 -46 0z"/>
<path d="M261 2640 c-71 -10 -190 -44 -234 -66 -18 -10 -27 -22 -27 -39 l0
-25 48 24 c88 45 163 58 309 54 131 -3 133 -3 133 19 0 12 -4 24 -9 27 -18 11
-157 15 -220 6z"/>
<path d="M4496 2574 c-9 -22 7 -46 65 -98 112 -101 234 -149 379 -149 105 -1
135 10 142 48 3 14 5 25 4 25 0 0 -35 -7 -76 -16 -158 -33 -310 20 -452 156
-29 28 -53 50 -54 50 -1 0 -5 -7 -8 -16z"/>
<path d="M425 2333 c-188 -40 -406 -171 -346 -208 5 -3 35 12 66 34 99 70 214
109 368 126 54 6 58 8 53 28 -3 12 -6 25 -6 30 0 11 -57 7 -135 -10z"/>
<path d="M4111 2281 c-11 -7 -11 -23 -3 -88 18 -132 111 -353 185 -438 29 -34
36 -37 65 -30 18 3 32 8 32 10 0 2 -23 35 -52 72 -92 121 -178 336 -178 445 0
39 -17 49 -49 29z"/>
<path d="M3629 2238 c-75 -139 -94 -348 -48 -520 8 -33 41 -59 55 -45 3 3 -3
33 -12 68 -11 42 -18 103 -18 174 -1 120 13 177 65 271 16 28 29 53 29 56 0 3
-14 8 -31 10 -22 4 -33 0 -40 -14z"/>
<path d="M3871 2241 c-22 -14 -51 -158 -51 -257 0 -177 51 -359 90 -318 4 5
-3 50 -16 99 -30 117 -32 257 -5 370 11 44 23 88 26 98 5 12 2 17 -11 17 -11
0 -25 -4 -33 -9z"/>
<path d="M564 2138 c-112 -118 -190 -272 -213 -419 -7 -43 -6 -57 6 -71 21
-23 33 -14 33 25 0 52 38 176 77 249 19 36 64 101 99 144 65 78 70 89 56 112
-6 9 -22 -2 -58 -40z"/>
<path d="M757 1922 c-80 -122 -153 -314 -158 -417 -2 -50 0 -60 18 -72 20 -13
21 -11 32 78 14 108 51 210 121 332 40 71 49 92 39 103 -17 21 -24 18 -52 -24z"/>
<path d="M1025 1830 c-27 -44 -48 -157 -52 -290 -6 -170 6 -255 38 -265 29 -9
30 -5 20 52 -21 111 -24 245 -6 343 27 151 29 170 17 170 -6 0 -14 -5 -17 -10z"/>
<path d="M1153 1698 c6 -137 35 -295 73 -396 26 -71 44 -92 80 -92 22 0 22 1
-13 102 -51 152 -64 219 -71 368 l-7 135 -34 3 -34 3 6 -123z"/>
<path d="M4269 1706 c-3 -3 -46 -10 -97 -17 -51 -6 -92 -16 -92 -22 0 -24 -77
-220 -126 -322 -75 -156 -124 -227 -233 -335 -144 -143 -267 -200 -433 -200
-96 0 -165 14 -246 51 -69 31 -180 114 -206 154 -9 14 -20 25 -25 25 -4 0 -22
-20 -40 -45 -139 -194 -377 -354 -624 -420 -56 -15 -109 -30 -117 -32 -22 -7
60 -41 155 -64 145 -35 311 -20 417 38 60 33 126 102 169 177 17 32 35 54 38
49 4 -4 24 -34 46 -66 72 -109 184 -191 300 -222 97 -25 110 -22 166 39 53 58
84 74 209 106 45 12 125 38 178 58 89 34 99 41 153 104 179 208 319 497 433
896 14 49 14 52 -3 52 -10 0 -20 -2 -22 -4z"/>
</g>
</svg>
