<?xml version="1.0" encoding="UTF-8"?><svg id="Lager_1" xmlns="http://www.w3.org/2000/svg" viewBox="0 0 535 533"><defs><style>.cls-1{fill:#fff;}.cls-2{fill:none;stroke:#fff;stroke-miterlimit:10;stroke-width:4px;}</style></defs><path class="cls-1" d="M343.6,168.79c13.95,13.95,27.41,27.41,40.69,40.69-64.94,64.94-130.07,130.06-194.94,194.93-18.69-18.71-37.67-37.71-56.37-56.43,64.61-64.61,129.75-129.74,195.16-195.16,2.48,1.77,4.86,4.73,7.8,7.57-61.96,61.94-123.8,123.76-185.6,185.54,2.75,2.74,5.36,5.34,8.11,8.08,61.74-61.77,123.55-123.6,185.15-185.22Z"/><path class="cls-1" d="M394.95,199.89c-19.42-19.39-38.37-38.31-57.56-57.46,7.3-7.12,14.04-15.07,22.12-21.57,8.61-6.93,22.85-9.76,33.34,2.07,6.8,7.67,14.18,14.88,21.76,21.78,9.94,9.06,8.92,20.75,3.86,29.79-2.59,4.63-6.53,8.05-10.16,11.75-4.47,4.58-8.96,9.14-13.37,13.64Z"/><path class="cls-1" d="M448.61,430.77c-3.22,2.32-7,2.62-10.6,3.1-30.9,4.1-61.34,2.73-90.87-8.29-4.51-1.68-8.78-3.84-12.33-7.17-5.83-5.46-7.56-11.99-4.9-19.61,5.47-15.65,28.32-29.2,44.72-26.62,11.56,1.82,18.34,8.95,22.01,19.53,2.31,6.65,4.48,13.33,7.34,19.78,4.79,10.8,13.22,16.32,24.81,17.24,4.91,.39,9.84,.54,14.75,.81,1.69,.09,3.46-.15,5.06,1.24Z"/><path class="cls-1" d="M179.12,414.07c-24.51,6.09-49.16,12.21-74.45,18.49,6.32-25.46,12.44-50.14,18.47-74.44,18.56,18.55,37.16,37.14,55.99,55.95Z"/><path class="cls-1" d="M280.18,332.32c9.6-9.59,19.01-18.98,28.52-28.47,1.27,.49,1.72,2,2.55,3.14,11.81,16.23,22.58,33.21,35.42,48.71,4.48,5.4,4.08,7.17-1.26,11.49-4.76,3.85-9.5,7.72-14.29,11.52-4.89,3.89-6.7,3.95-10.6-1.03-12.52-15.94-26.94-30.16-40.33-45.36Z"/><path class="cls-1" d="M177.92,117.79c-6.66-9.3-16.12-15.38-27.35-18.36-19.9-5.29-36.53,5.55-38.9,25.88-1.73,14.8,3.77,27.52,13.5,38.35,14.97,16.65,30.25,33.02,45.41,49.51,12.53,13.63,25.07,27.25,37.7,40.99,12.48-12.47,24.83-24.81,37.17-37.15,.46-.46,.84-1.01,1.34-1.62-22.94-32.58-45.69-65.24-68.87-97.59Zm-14.53,13.47c-5.11-10.96-14.16-17.57-23.96-23.83,13.53-2.14,27.17,4.12,33.76,15.26-3.18,2.78-6.37,5.57-9.8,8.58Z"/><circle class="cls-2" cx="267.92" cy="267.04" r="260.14"/></svg>