<svg width="64" height="64" viewBox="0 0 64 64" fill="none" xmlns="http://www.w3.org/2000/svg">
<rect width="64" height="64" rx="32" fill="black"/>
<path fill-rule="evenodd" clip-rule="evenodd" d="M15.1363 13C15.0872 13.0004 15.0389 13.0035 14.9901 13.0076C14.7391 13.056 14.5424 13.1898 14.3975 13.4009C14.2281 13.6475 14.0951 14.1098 13.986 14.4889C13.9547 14.5978 13.9253 14.6999 13.8976 14.788C12.9974 17.6532 12.7173 20.7837 13.3198 23.7412C13.7354 25.7815 14.6559 28.0507 15.9166 29.7189C15.848 29.728 15.7654 29.7377 15.6743 29.7484L15.6742 29.7484C15.2587 29.7972 14.6652 29.8668 14.4046 30.0051C14.2961 30.0627 14.1913 30.166 14.1187 30.2644C14.1017 30.2872 14.0859 30.3109 14.0713 30.3353C14.0567 30.3598 14.0434 30.3849 14.0314 30.4107C14.0193 30.4365 14.0087 30.4628 13.9993 30.4896C13.99 30.5166 13.982 30.5439 13.9755 30.5715C13.9689 30.5992 13.9638 30.6272 13.9601 30.6554C13.9564 30.6836 13.9541 30.712 13.9533 30.7404C13.9525 30.7688 13.9531 30.7973 13.9552 30.8256C13.9573 30.854 13.9608 30.8822 13.9657 30.9103C14.0091 31.1559 14.1582 31.3946 14.2939 31.6117C14.3164 31.6478 14.3386 31.6832 14.3598 31.7181C14.4609 31.8815 14.5664 32.0421 14.6763 32.1998C14.7861 32.3576 14.9002 32.5122 15.0185 32.6637C15.1368 32.8152 15.2591 32.9634 15.3854 33.1082C15.5118 33.2531 15.642 33.3943 15.7761 33.532C15.9102 33.6698 16.0479 33.8038 16.1893 33.934C16.3307 34.0643 16.4755 34.1905 16.6237 34.3128C16.772 34.4352 16.9235 34.5534 17.0782 34.6675C17.2329 34.7816 17.3906 34.8914 17.5513 34.9968C19.1763 36.0802 20.7311 36.7795 22.5669 37.4231C22.6074 37.4373 22.648 37.4515 22.6887 37.4658C23.2242 37.654 23.7847 37.851 24.3354 37.9699C24.2292 38.0523 24.0955 38.147 23.9523 38.2484C23.5829 38.5102 23.1495 38.8173 22.9571 39.0753C22.8673 39.1957 22.8211 39.3294 22.8023 39.4772C22.7701 39.73 22.8475 39.9523 23.0059 40.1483C23.1628 40.3422 23.3565 40.5189 23.5432 40.6892L23.581 40.7237C23.5968 40.7381 23.6124 40.7524 23.6279 40.7667C25.5244 42.5088 28.229 43.2472 30.7351 43.496C33.0235 43.7231 35.8705 43.6322 38.1163 43.1666C38.1862 43.3855 38.2938 43.6023 38.3997 43.8159C38.4502 43.9177 38.5004 44.0188 38.5459 44.119C38.6774 44.4087 38.7907 44.7085 38.9035 45.007C38.9283 45.0725 38.953 45.1379 38.9779 45.2031C39.2923 46.027 39.4969 46.8666 39.7038 47.7154C39.742 47.8723 39.7803 48.0295 39.8194 48.187L39.8059 48.1897C38.7489 48.4068 37.9771 48.5653 37.0014 49.0762L36.9735 49.0908C36.71 49.2285 36.4283 49.3757 36.2579 49.6279C36.2414 49.6523 36.2262 49.6775 36.2122 49.7035C36.1983 49.7294 36.1856 49.756 36.1743 49.7833C36.1629 49.8105 36.1529 49.8382 36.1443 49.8664C36.1357 49.8946 36.1285 49.9231 36.1228 49.952C36.117 49.9809 36.1126 50.0101 36.1097 50.0394C36.1068 50.0687 36.1054 50.0981 36.1054 50.1276C36.1054 50.1571 36.1068 50.1865 36.1097 50.2158C36.1126 50.2452 36.117 50.2743 36.1228 50.3032C36.1291 50.332 36.1368 50.3604 36.1458 50.3884C36.1549 50.4164 36.1654 50.4439 36.1772 50.471C36.189 50.4979 36.2021 50.5243 36.2165 50.55C36.2309 50.5757 36.2466 50.6007 36.2634 50.6248C36.2802 50.649 36.2982 50.6723 36.3174 50.6947C36.3366 50.7171 36.3568 50.7385 36.3781 50.7589C36.3994 50.7793 36.4216 50.7986 36.4448 50.8168C36.4679 50.835 36.4919 50.852 36.5168 50.8678C36.7188 50.9949 36.9469 51.0291 37.1783 50.9758C37.3848 50.9282 37.5687 50.8127 37.7517 50.6979C37.8613 50.629 37.9706 50.5604 38.0842 50.5068C38.8656 50.1376 39.8009 49.9591 40.6578 49.9025C41.4171 49.8523 42.0945 49.9695 42.7879 50.0895C43.1392 50.1502 43.4946 50.2117 43.8667 50.2525C46.1022 50.4976 49.8311 50.3671 51.1366 48.1886C51.5249 47.5406 51.6004 46.7301 51.4121 46.0059C51.152 45.0058 50.6093 44.2807 50.0073 43.4763L49.964 43.4186C48.9355 42.1029 47.2698 39.9231 47.0932 38.2357L47.0915 38.2194C47.076 38.0717 47.0592 37.9119 47.0779 37.7648C47.0958 37.6243 47.1456 37.5026 47.2607 37.4146C47.4202 37.2928 47.6191 37.2599 47.8176 37.2271C48.1875 37.166 48.5559 37.1052 48.6645 36.469C48.7012 36.2542 48.6554 36.0383 48.528 35.8601C48.3796 35.6524 48.1577 35.5062 47.9041 35.4682C47.3637 35.3873 46.6103 35.654 46.1845 35.9826C45.6579 36.3892 45.3896 36.9856 45.3098 37.6363C45.0653 39.6297 46.8572 42.298 48.0107 43.8319C48.1432 44.0081 48.2884 44.1869 48.4366 44.3694C48.9794 45.038 49.5623 45.756 49.7094 46.5753C49.7918 47.0345 49.5839 47.4092 49.2337 47.6861C48.065 48.6104 45.5131 48.6723 44.0726 48.4932C43.7462 48.4526 43.422 48.3926 43.0978 48.3325L43.0975 48.3325C42.8695 48.2902 42.6416 48.248 42.413 48.2126C42.2144 48.1818 42.0123 48.1646 41.8113 48.1474C41.7495 48.1422 41.6878 48.1369 41.6263 48.1313C41.2671 46.3141 40.7471 44.5702 39.9562 42.8904C39.7231 42.3954 39.4755 41.8922 39.1758 41.4333C39.1721 40.298 39.1101 39.1894 38.902 38.0699C38.3692 35.2045 36.9697 32.7334 35.0284 30.59C34.9761 30.5322 34.9239 30.474 34.8716 30.4158L34.8715 30.4157C34.6859 30.2089 34.4996 30.0013 34.303 29.8061C32.0084 27.5284 29.235 25.8035 26.4318 24.2271L24.3459 23.0597C24.2865 23.0267 24.227 22.9938 24.1676 22.9608C23.5458 22.6164 22.9226 22.2713 22.3353 21.8699C21.6502 21.3934 21.0049 20.8678 20.3996 20.2932C19.0072 18.9522 17.6824 17.2424 16.8294 15.5041C16.6399 15.1179 16.4519 14.7278 16.2812 14.333C16.2402 14.238 16.2015 14.1353 16.1622 14.0307C16.0733 13.7945 15.9806 13.5484 15.8476 13.3578C15.6844 13.124 15.4172 12.9981 15.1363 13ZM15.5867 16.9687C15.493 16.7857 15.394 16.5924 15.2738 16.4525C15.2566 16.5369 15.2393 16.6212 15.2221 16.7054C15.0737 17.4285 14.9263 18.147 14.8551 18.8845C14.5461 22.0843 15.2237 25.4999 17.0165 28.1999C17.2575 28.5628 17.5265 28.9144 17.802 29.2516C17.8585 29.3206 17.924 29.3918 17.9914 29.465C18.1425 29.629 18.3025 29.8027 18.3876 29.9831C18.4621 30.1411 18.4793 30.3318 18.4476 30.5024C18.4045 30.7334 18.2779 30.9345 18.0826 31.067C17.8195 31.2455 17.2023 31.3327 16.7152 31.4015C16.552 31.4245 16.4034 31.4455 16.2877 31.4672L16.3118 31.4898C16.4559 31.6262 16.5854 31.7783 16.7147 31.93C16.7831 32.0103 16.8514 32.0904 16.9218 32.1682C17.1501 32.4206 17.4133 32.6575 17.6745 32.8758C19.8086 34.6595 22.6978 35.7145 25.366 36.3943C25.6007 36.4541 25.8376 36.5041 26.0744 36.554C26.2337 36.5876 26.393 36.6212 26.5516 36.6578C26.9687 36.7539 27.3284 37.0192 27.3434 37.4851C27.3513 37.7335 27.2446 37.9846 27.0734 38.162C26.8921 38.3499 26.6558 38.512 26.4289 38.6678C26.3472 38.7239 26.2666 38.7792 26.1903 38.8345C26.0724 38.92 25.9549 39.0073 25.8372 39.0947C25.5839 39.2829 25.3296 39.4717 25.0684 39.6447C25.6124 40.1211 26.2305 40.4557 26.8909 40.741C28.9928 41.6489 31.2853 41.8542 33.5512 41.809C33.6405 41.8072 33.7299 41.8057 33.8193 41.8043C34.131 41.7993 34.4437 41.7942 34.7539 41.7749C35.1666 41.7492 35.5769 41.6986 35.9869 41.6481C36.3657 41.6014 36.7441 41.5548 37.1238 41.5278C37.0371 41.4115 36.9509 41.2943 36.8647 41.1769C36.6452 40.8783 36.4251 40.5788 36.1927 40.2922C35.6017 39.5753 34.9698 38.8965 34.297 38.2558C33.5846 37.5804 32.8171 36.9678 32.0385 36.3715C30.6379 35.2989 29.1784 34.3152 27.7175 33.3305C27.4007 33.117 27.0838 32.9034 26.7675 32.6889C25.8149 32.0354 24.8786 31.3593 23.9587 30.6607L23.9214 30.6328C23.1219 30.0345 22.315 29.4306 21.5498 28.7896C21.494 28.7434 21.4275 28.6886 21.352 28.6265C20.4273 27.8656 18.1634 26.0027 18.096 25.2234C18.076 24.9918 18.1618 24.7498 18.3129 24.5748C18.4626 24.4013 18.6909 24.2865 18.9194 24.2701C19.1847 24.2511 19.3648 24.3388 19.5578 24.5112C19.6937 24.6324 19.8147 24.7716 19.9355 24.9107C20.0214 25.0095 20.1072 25.1083 20.1984 25.2006C20.629 25.6366 21.0878 26.0524 21.5448 26.4605C23.0154 27.7739 24.6192 28.9597 26.2083 30.1254C26.9553 30.6734 27.7255 31.1907 28.4949 31.7076C28.6806 31.8324 28.8664 31.9572 29.0518 32.0823C31.1453 33.4961 33.2739 34.9408 35.1547 36.6332C35.8733 37.2897 36.5532 37.9841 37.1944 38.7165C37.1241 38.4847 37.0719 38.2478 37.0198 38.0108C36.9787 37.8243 36.9376 37.6378 36.8877 37.4538C36.6724 36.6601 36.3663 35.8838 36.0169 35.14C35.7475 34.5669 35.3904 34.0068 35.0349 33.4829C32.5841 29.8722 28.7645 27.6033 25.0365 25.5138C24.7586 25.3581 24.4788 25.2039 24.1985 25.0496C22.801 24.2797 21.3923 23.5037 20.1592 22.4929C19.9714 22.3374 19.7866 22.1784 19.6048 22.0158C19.423 21.8532 19.2444 21.6873 19.069 21.5178C18.8936 21.3484 18.7215 21.1758 18.5527 20.9998C18.3838 20.8238 18.2184 20.6447 18.0564 20.4624C17.8944 20.2801 17.7359 20.0948 17.581 19.9065C17.4261 19.7181 17.2749 19.5269 17.1273 19.3328C16.9797 19.1387 16.8358 18.9418 16.6957 18.7422C16.5556 18.5426 16.4194 18.3404 16.2871 18.1356C16.0851 17.8293 15.8875 17.5136 15.7063 17.1946C15.6666 17.1247 15.6272 17.0477 15.5867 16.9687Z" fill="white"/>
</svg>
