<svg width="280" height="38" viewBox="0 0 280 38" fill="none" xmlns="http://www.w3.org/2000/svg">
<path fill-rule="evenodd" clip-rule="evenodd" d="M2.13625 2.21387e-05C2.08724 0.00036063 2.0389 0.00348755 1.99009 0.00758975C1.73909 0.0560021 1.54238 0.189844 1.39745 0.400877C1.22811 0.647456 1.0951 1.10976 0.986014 1.4889C0.954677 1.59782 0.925313 1.69987 0.897631 1.78798C-0.00264351 4.65324 -0.282681 7.78372 0.319778 10.7412C0.735421 12.7815 1.6559 15.0507 2.91656 16.7189C2.84796 16.728 2.76542 16.7377 2.67434 16.7484L2.67422 16.7484C2.25868 16.7972 1.66521 16.8668 1.40457 17.0051C1.29607 17.0627 1.19132 17.166 1.11867 17.2644C1.10167 17.2872 1.08587 17.3109 1.07129 17.3353C1.0567 17.3598 1.04339 17.3849 1.03137 17.4107C1.01934 17.4365 1.00866 17.4628 0.999316 17.4896C0.989978 17.5166 0.982029 17.5439 0.975468 17.5715C0.968913 17.5992 0.963782 17.6272 0.960075 17.6554C0.956368 17.6836 0.954106 17.712 0.953289 17.7404C0.952472 17.7688 0.953104 17.7973 0.955183 17.8256C0.957262 17.854 0.960781 17.8822 0.965741 17.9103C1.00909 18.1559 1.15823 18.3946 1.29388 18.6117C1.31641 18.6478 1.33857 18.6832 1.35981 18.7181C1.46091 18.8815 1.56639 19.0421 1.67625 19.1998C1.7861 19.3576 1.90018 19.5122 2.01847 19.6637C2.13675 19.8152 2.25908 19.9634 2.38545 20.1082C2.51181 20.2531 2.64203 20.3943 2.77611 20.532C2.91018 20.6698 3.0479 20.8038 3.18928 20.934C3.33065 21.0643 3.47547 21.1905 3.62373 21.3128C3.77199 21.4352 3.92348 21.5534 4.07819 21.6675C4.23288 21.7816 4.39058 21.8914 4.55129 21.9968C6.17629 23.0802 7.73109 23.7795 9.56692 24.4231C9.60736 24.4373 9.64796 24.4515 9.6887 24.4658C10.2242 24.654 10.7847 24.851 11.3354 24.9699C11.2292 25.0523 11.0955 25.147 10.9523 25.2484C10.5829 25.5102 10.1495 25.8173 9.95708 26.0753C9.8673 26.1957 9.82112 26.3294 9.80234 26.4772C9.7701 26.73 9.84747 26.9523 10.0059 27.1483C10.1628 27.3422 10.3565 27.5189 10.5432 27.6892L10.581 27.7237C10.5968 27.7381 10.6124 27.7524 10.6279 27.7667C12.5244 29.5088 15.229 30.2472 17.7351 30.496C20.0235 30.7231 22.8705 30.6322 25.1163 30.1666C25.1862 30.3855 25.2938 30.6023 25.3997 30.8159C25.4502 30.9177 25.5004 31.0188 25.5459 31.119C25.6774 31.4087 25.7907 31.7085 25.9035 32.007C25.9283 32.0725 25.953 32.1379 25.9779 32.2031C26.2923 33.027 26.4969 33.8666 26.7038 34.7154C26.742 34.8723 26.7803 35.0295 26.8194 35.187L26.8059 35.1897C25.7489 35.4068 24.9771 35.5653 24.0014 36.0762L23.9735 36.0908C23.71 36.2285 23.4283 36.3757 23.2579 36.6279C23.2414 36.6523 23.2262 36.6775 23.2122 36.7035C23.1983 36.7294 23.1856 36.756 23.1743 36.7833C23.1629 36.8105 23.1529 36.8382 23.1443 36.8664C23.1357 36.8946 23.1285 36.9231 23.1228 36.952C23.117 36.9809 23.1126 37.0101 23.1097 37.0394C23.1068 37.0687 23.1054 37.0981 23.1054 37.1276C23.1054 37.1571 23.1068 37.1865 23.1097 37.2158C23.1126 37.2452 23.117 37.2743 23.1228 37.3032C23.1291 37.332 23.1368 37.3604 23.1458 37.3884C23.1549 37.4164 23.1654 37.4439 23.1772 37.471C23.189 37.4979 23.2021 37.5243 23.2165 37.55C23.2309 37.5757 23.2466 37.6007 23.2634 37.6248C23.2802 37.649 23.2982 37.6723 23.3174 37.6947C23.3366 37.7171 23.3568 37.7385 23.3781 37.7589C23.3994 37.7793 23.4216 37.7986 23.4448 37.8168C23.4679 37.835 23.4919 37.852 23.5168 37.8678C23.7188 37.9949 23.9469 38.0291 24.1783 37.9758C24.3848 37.9282 24.5687 37.8127 24.7517 37.6979C24.8613 37.629 24.9706 37.5604 25.0842 37.5068C25.8656 37.1376 26.8009 36.9591 27.6578 36.9025C28.4171 36.8523 29.0945 36.9695 29.7879 37.0895C30.1392 37.1502 30.4946 37.2117 30.8667 37.2525C33.1022 37.4976 36.8311 37.3671 38.1366 35.1886C38.5249 34.5406 38.6004 33.7301 38.4121 33.0059C38.152 32.0058 37.6093 31.2807 37.0073 30.4763L36.964 30.4186C35.9355 29.1029 34.2698 26.9231 34.0932 25.2357L34.0915 25.2194C34.076 25.0717 34.0592 24.9119 34.0779 24.7648C34.0958 24.6243 34.1456 24.5026 34.2607 24.4146C34.4202 24.2928 34.6191 24.2599 34.8176 24.2271C35.1875 24.166 35.5559 24.1052 35.6645 23.469C35.7012 23.2542 35.6554 23.0383 35.528 22.8601C35.3796 22.6524 35.1577 22.5062 34.9041 22.4682C34.3637 22.3873 33.6103 22.654 33.1845 22.9826C32.6579 23.3892 32.3896 23.9856 32.3098 24.6363C32.0653 26.6297 33.8572 29.298 35.0107 30.8319C35.1432 31.0081 35.2884 31.1869 35.4366 31.3694C35.9794 32.038 36.5623 32.756 36.7094 33.5753C36.7918 34.0345 36.5839 34.4092 36.2337 34.6861C35.065 35.6104 32.5131 35.6723 31.0726 35.4932C30.7462 35.4526 30.422 35.3926 30.0978 35.3325L30.0975 35.3325C29.8695 35.2902 29.6416 35.248 29.413 35.2126C29.2144 35.1818 29.0123 35.1646 28.8113 35.1474C28.7495 35.1422 28.6878 35.1369 28.6263 35.1313C28.2671 33.3141 27.7471 31.5702 26.9562 29.8904C26.7231 29.3954 26.4755 28.8922 26.1758 28.4333C26.1721 27.298 26.1101 26.1894 25.902 25.0699C25.3692 22.2045 23.9697 19.7334 22.0284 17.59C21.9761 17.5322 21.9239 17.474 21.8716 17.4158L21.8715 17.4157C21.6859 17.2089 21.4996 17.0013 21.303 16.8061C19.0084 14.5284 16.235 12.8035 13.4318 11.2271L11.3459 10.0597C11.2865 10.0267 11.227 9.99378 11.1676 9.96085C10.5458 9.61644 9.92259 9.27128 9.3353 8.86988C8.65015 8.39335 8.00492 7.86781 7.39961 7.29323C6.0072 5.95224 4.68241 4.24239 3.82942 2.50407C3.6399 2.11787 3.45195 1.72782 3.28124 1.33296C3.24017 1.23796 3.20153 1.13533 3.16217 1.03075C3.07325 0.794534 2.9806 0.548397 2.84762 0.35784C2.68442 0.123991 2.41724 -0.00192016 2.13625 2.21387e-05ZM2.58674 3.96873C2.49304 3.78574 2.39403 3.59239 2.27383 3.45252C2.25664 3.53691 2.23935 3.6212 2.22207 3.70543C2.07374 4.42845 1.92633 5.14704 1.85512 5.88454C1.54613 9.08433 2.22369 12.4999 4.01648 15.1999C4.25748 15.5628 4.52654 15.9144 4.80201 16.2516C4.85845 16.3206 4.92405 16.3918 4.9914 16.465C5.14255 16.629 5.30252 16.8027 5.3876 16.9831C5.46207 17.1411 5.47932 17.3318 5.44756 17.5024C5.40453 17.7334 5.27791 17.9345 5.08264 18.067C4.81951 18.2455 4.20228 18.3327 3.71524 18.4015C3.55202 18.4245 3.40343 18.4455 3.28768 18.4672L3.31183 18.4898C3.45592 18.6262 3.58545 18.7783 3.71474 18.93C3.78311 19.0103 3.8514 19.0904 3.92176 19.1682C4.15008 19.4206 4.41331 19.6575 4.67451 19.8758C6.80862 21.6595 9.69781 22.7145 12.366 23.3943C12.6007 23.4541 12.8376 23.5041 13.0744 23.554C13.2337 23.5876 13.393 23.6212 13.5516 23.6578C13.9687 23.7539 14.3284 24.0192 14.3434 24.4851C14.3513 24.7335 14.2446 24.9846 14.0734 25.162C13.8921 25.3499 13.6558 25.512 13.4289 25.6678C13.3472 25.7239 13.2666 25.7792 13.1903 25.8345C13.0724 25.92 12.9549 26.0073 12.8372 26.0947C12.5839 26.2829 12.3296 26.4717 12.0684 26.6447C12.6124 27.1211 13.2305 27.4557 13.8909 27.741C15.9928 28.6489 18.2853 28.8542 20.5512 28.809C20.6405 28.8072 20.7299 28.8057 20.8193 28.8043C21.131 28.7993 21.4437 28.7942 21.7539 28.7749C22.1666 28.7492 22.5769 28.6986 22.9869 28.6481C23.3657 28.6014 23.7441 28.5548 24.1238 28.5278C24.0371 28.4115 23.9509 28.2943 23.8647 28.1769C23.6452 27.8783 23.4251 27.5788 23.1927 27.2922C22.6017 26.5753 21.9698 25.8965 21.297 25.2558C20.5846 24.5804 19.8171 23.9678 19.0385 23.3715C17.6379 22.2989 16.1784 21.3152 14.7175 20.3305C14.4007 20.117 14.0838 19.9034 13.7675 19.6889C12.8149 19.0354 11.8786 18.3593 10.9587 17.6607L10.9214 17.6328C10.1219 17.0345 9.31503 16.4306 8.54976 15.7896C8.49404 15.7434 8.42749 15.6886 8.35201 15.6265C7.42726 14.8656 5.16337 13.0027 5.09602 12.2234C5.07603 11.9918 5.16178 11.7498 5.31289 11.5748C5.46263 11.4013 5.69087 11.2865 5.91936 11.2701C6.18467 11.2511 6.36479 11.3388 6.55781 11.5112C6.69375 11.6324 6.81466 11.7716 6.93551 11.9107C7.02138 12.0095 7.10721 12.1083 7.19837 12.2006C7.62898 12.6366 8.0878 13.0524 8.54476 13.4605C10.0154 14.7739 11.6192 15.9597 13.2083 17.1254C13.9553 17.6734 14.7255 18.1907 15.4949 18.7076C15.6806 18.8324 15.8664 18.9572 16.0518 19.0823C18.1453 20.4961 20.2739 21.9408 22.1547 23.6332C22.8733 24.2897 23.5532 24.9841 24.1944 25.7165C24.1241 25.4847 24.0719 25.2478 24.0198 25.0108C23.9787 24.8243 23.9376 24.6378 23.8877 24.4538C23.6724 23.6601 23.3663 22.8838 23.0169 22.14C22.7475 21.5669 22.3904 21.0068 22.0349 20.4829C19.5841 16.8722 15.7645 14.6033 12.0365 12.5138C11.7586 12.3581 11.4788 12.2039 11.1985 12.0496C9.801 11.2797 8.39226 10.5037 7.1592 9.49294C6.97137 9.3374 6.78657 9.17836 6.6048 9.01583C6.42304 8.85325 6.24444 8.68725 6.06902 8.51784C5.89359 8.34844 5.72147 8.17575 5.55266 7.99979C5.38379 7.82383 5.21836 7.6447 5.05636 7.46239C4.89437 7.28009 4.73592 7.09478 4.58102 6.90646C4.42612 6.71814 4.27487 6.52692 4.12728 6.3328C3.97967 6.13868 3.83582 5.94181 3.69573 5.74221C3.55564 5.54261 3.41942 5.3404 3.28706 5.13559C3.08506 4.82925 2.88746 4.51365 2.70631 4.19462C2.66659 4.12467 2.62716 4.04766 2.58674 3.96873Z" fill="black"/>
<path d="M263.929 26.0941V25.8141L264.321 25.7021C264.974 25.5154 265.301 25.0581 265.301 24.3301V15.5661C265.301 15.1554 265.235 14.8567 265.105 14.6701C264.974 14.4647 264.722 14.3247 264.349 14.2501L263.929 14.1381V13.8581L268.717 12.2341L268.997 12.5141L269.221 14.1941C269.874 13.6154 270.611 13.1394 271.433 12.7661C272.254 12.3927 273.066 12.2061 273.869 12.2061C275.101 12.2061 276.043 12.5421 276.697 13.2141C277.369 13.8861 277.705 14.9127 277.705 16.2941V24.3581C277.705 25.0861 278.059 25.5434 278.769 25.7301L279.021 25.8141V26.0941H272.413V25.8141L272.777 25.7021C273.43 25.4967 273.757 25.0394 273.757 24.3301V15.3981C273.757 14.2034 273.159 13.6061 271.965 13.6061C271.143 13.6061 270.247 14.0167 269.277 14.8381V24.3581C269.277 25.0861 269.603 25.5434 270.257 25.7301L270.509 25.8141V26.0941H263.929Z" fill="black"/>
<path d="M255.755 26.5141C254.336 26.5141 253.104 26.2247 252.059 25.6461C251.014 25.0487 250.202 24.2087 249.623 23.1261C249.063 22.0434 248.783 20.7741 248.783 19.3181C248.783 17.8621 249.082 16.6021 249.679 15.5381C250.295 14.4741 251.126 13.6527 252.171 13.0741C253.235 12.4954 254.43 12.2061 255.755 12.2061C257.08 12.2061 258.266 12.4954 259.311 13.0741C260.356 13.6341 261.178 14.4461 261.775 15.5101C262.391 16.5741 262.699 17.8434 262.699 19.3181C262.699 20.7927 262.41 22.0714 261.831 23.1541C261.271 24.2181 260.468 25.0487 259.423 25.6461C258.396 26.2247 257.174 26.5141 255.755 26.5141ZM255.755 25.9541C256.408 25.9541 256.931 25.7674 257.323 25.3941C257.715 25.0207 257.995 24.3581 258.163 23.4061C258.35 22.4541 258.443 21.1101 258.443 19.3741C258.443 17.6194 258.35 16.2661 258.163 15.3141C257.995 14.3621 257.715 13.6994 257.323 13.3261C256.931 12.9527 256.408 12.7661 255.755 12.7661C255.102 12.7661 254.57 12.9527 254.159 13.3261C253.767 13.6994 253.478 14.3621 253.291 15.3141C253.123 16.2661 253.039 17.6194 253.039 19.3741C253.039 21.1101 253.123 22.4541 253.291 23.4061C253.478 24.3581 253.767 25.0207 254.159 25.3941C254.57 25.7674 255.102 25.9541 255.755 25.9541Z" fill="black"/>
<path d="M243.956 26.5141C242.761 26.5141 241.828 26.2154 241.156 25.6181C240.502 25.0207 240.176 24.0687 240.176 22.7621V13.1861H238.244V12.9061L238.916 12.7941C239.494 12.6634 239.989 12.4767 240.4 12.2341C240.829 11.9914 241.249 11.6647 241.66 11.2541L243.956 8.70605H244.236L244.152 12.6261H247.288V13.1861H244.124V23.2661C244.124 23.9194 244.264 24.4141 244.544 24.7501C244.842 25.0861 245.216 25.2541 245.664 25.2541C246.056 25.2541 246.401 25.1607 246.7 24.9741C246.998 24.7687 247.297 24.4981 247.596 24.1621L247.876 24.4421C247.502 25.0767 246.989 25.5807 246.336 25.9541C245.682 26.3274 244.889 26.5141 243.956 26.5141Z" fill="black"/>
<path d="M229.865 21.2501C228.577 21.2501 227.485 21.0355 226.589 20.6061V21.5581C226.589 22.1368 226.878 22.4821 227.457 22.5941L232.721 23.5741C233.598 23.7421 234.391 23.9661 235.101 24.2461C235.81 24.5075 236.379 24.8901 236.809 25.3941C237.238 25.8795 237.453 26.5515 237.453 27.4101C237.453 28.3248 237.154 29.1648 236.557 29.9301C235.959 30.7141 235.073 31.3395 233.897 31.8061C232.739 32.2915 231.293 32.5341 229.557 32.5341C228.063 32.5341 226.878 32.3755 226.001 32.0581C225.123 31.7595 224.498 31.3675 224.125 30.8821C223.77 30.3968 223.593 29.8835 223.593 29.3421C223.593 28.6701 223.817 27.9888 224.265 27.2981C224.731 26.6261 225.301 26.0848 225.973 25.6741C225.394 25.4501 224.974 25.1608 224.713 24.8061C224.451 24.4515 224.321 24.0688 224.321 23.6581C224.321 23.2848 224.414 22.9395 224.601 22.6221C224.806 22.2861 225.049 21.9501 225.329 21.6141L226.253 20.4381C224.89 19.6541 224.209 18.4221 224.209 16.7421C224.209 15.3981 224.685 14.3061 225.637 13.4661C226.607 12.6261 228.026 12.2061 229.893 12.2061C230.845 12.2061 231.675 12.3181 232.385 12.5421C233.113 12.7661 233.71 13.0835 234.177 13.4941C234.774 13.4008 235.334 13.2515 235.857 13.0461C236.398 12.8221 236.883 12.5235 237.313 12.1501L237.705 12.4301V13.8581H234.541C235.213 14.6048 235.549 15.5661 235.549 16.7421C235.549 18.0488 235.063 19.1315 234.093 19.9901C233.141 20.8301 231.731 21.2501 229.865 21.2501ZM229.837 20.6901C230.583 20.6901 231.125 20.3821 231.461 19.7661C231.815 19.1501 231.993 18.1235 231.993 16.6861C231.993 15.2488 231.815 14.2408 231.461 13.6621C231.125 13.0648 230.602 12.7661 229.893 12.7661C229.202 12.7661 228.679 13.0741 228.325 13.6901C227.97 14.2875 227.793 15.3048 227.793 16.7421C227.793 18.1795 227.951 19.1968 228.269 19.7941C228.605 20.3915 229.127 20.6901 229.837 20.6901ZM225.665 28.4461C225.665 29.5475 226.001 30.3781 226.673 30.9381C227.363 31.4981 228.446 31.7781 229.921 31.7781C231.47 31.7781 232.637 31.5261 233.421 31.0221C234.205 30.5181 234.597 29.8088 234.597 28.8941C234.597 28.3715 234.401 27.9515 234.009 27.6341C233.635 27.3168 232.991 27.0741 232.077 26.9061L227.009 25.9541C226.859 25.9168 226.71 25.8795 226.561 25.8421C226.299 26.2155 226.085 26.6355 225.917 27.1021C225.749 27.5875 225.665 28.0355 225.665 28.4461Z" fill="black"/>
<path d="M207.573 26.0941V25.8141L207.965 25.7021C208.619 25.5154 208.945 25.0581 208.945 24.3301V15.5661C208.945 15.1554 208.88 14.8567 208.749 14.6701C208.619 14.4647 208.367 14.3247 207.993 14.2501L207.573 14.1381V13.8581L212.361 12.2341L212.641 12.5141L212.865 14.1941C213.519 13.6154 214.256 13.1394 215.077 12.7661C215.899 12.3927 216.711 12.2061 217.513 12.2061C218.745 12.2061 219.688 12.5421 220.341 13.2141C221.013 13.8861 221.349 14.9127 221.349 16.2941V24.3581C221.349 25.0861 221.704 25.5434 222.413 25.7301L222.665 25.8141V26.0941H216.057V25.8141L216.421 25.7021C217.075 25.4967 217.401 25.0394 217.401 24.3301V15.3981C217.401 14.2034 216.804 13.6061 215.609 13.6061C214.788 13.6061 213.892 14.0167 212.921 14.8381V24.3581C212.921 25.0861 213.248 25.5434 213.901 25.7301L214.153 25.8141V26.0941H207.573Z" fill="black"/>
<path d="M203.086 10.7501C202.451 10.7501 201.91 10.5541 201.462 10.1621C201.032 9.75147 200.818 9.23814 200.818 8.62214C200.818 7.98747 201.032 7.47414 201.462 7.08214C201.91 6.69014 202.451 6.49414 203.086 6.49414C203.72 6.49414 204.252 6.69014 204.682 7.08214C205.111 7.47414 205.326 7.98747 205.326 8.62214C205.326 9.23814 205.111 9.75147 204.682 10.1621C204.252 10.5541 203.72 10.7501 203.086 10.7501ZM199.782 26.0941V25.8141L200.174 25.7021C200.547 25.5901 200.799 25.4221 200.93 25.1981C201.079 24.9741 201.154 24.6755 201.154 24.3021V15.5381C201.154 15.1461 201.079 14.8568 200.93 14.6701C200.799 14.4648 200.547 14.3248 200.174 14.2501L199.782 14.1661V13.8861L204.906 12.2341L205.186 12.5141L205.102 16.4901V24.3301C205.102 24.7035 205.167 25.0021 205.298 25.2261C205.447 25.4501 205.699 25.6181 206.054 25.7301L206.334 25.8141V26.0941H199.782Z" fill="black"/>
<path d="M187.366 26.0941V25.8141L187.786 25.7021C188.16 25.5901 188.412 25.4221 188.542 25.1981C188.692 24.9741 188.766 24.6847 188.766 24.3301V15.5661C188.766 15.1554 188.692 14.8567 188.542 14.6701C188.412 14.4647 188.16 14.3247 187.786 14.2501L187.366 14.1381V13.8581L192.182 12.2341L192.462 12.5141L192.714 14.9221V15.1461C192.976 14.6234 193.312 14.1474 193.722 13.7181C194.152 13.2701 194.618 12.9061 195.122 12.6261C195.645 12.3461 196.158 12.2061 196.662 12.2061C197.372 12.2061 197.913 12.4021 198.286 12.7941C198.66 13.1861 198.846 13.6807 198.846 14.2781C198.846 14.9127 198.66 15.4074 198.286 15.7621C197.932 16.0981 197.502 16.2661 196.998 16.2661C196.214 16.2661 195.524 15.8741 194.926 15.0901L194.87 15.0341C194.684 14.7727 194.469 14.6327 194.226 14.6141C193.984 14.5767 193.76 14.6887 193.554 14.9501C193.368 15.1181 193.209 15.3234 193.078 15.5661C192.966 15.7901 192.854 16.0514 192.742 16.3501V24.1621C192.742 24.9087 193.069 25.3754 193.722 25.5621L194.618 25.8141V26.0941H187.366Z" fill="black"/>
<path d="M180.203 12.2061C181.416 12.2061 182.452 12.4581 183.311 12.9621C184.17 13.4474 184.823 14.1194 185.271 14.9781C185.738 15.8181 185.971 16.7794 185.971 17.8621C185.971 18.0674 185.962 18.2821 185.943 18.5061C185.924 18.7114 185.887 18.8981 185.831 19.0661H177.487C177.506 21.0821 177.86 22.5381 178.551 23.4341C179.26 24.3114 180.306 24.7501 181.687 24.7501C182.62 24.7501 183.376 24.6007 183.955 24.3021C184.534 24.0034 185.075 23.5647 185.579 22.9861L185.859 23.2381C185.28 24.2647 184.506 25.0674 183.535 25.6461C182.583 26.2247 181.435 26.5141 180.091 26.5141C178.766 26.5141 177.59 26.2341 176.563 25.6741C175.536 25.0954 174.734 24.2741 174.155 23.2101C173.576 22.1461 173.287 20.8767 173.287 19.4021C173.287 17.8714 173.623 16.5741 174.295 15.5101C174.967 14.4274 175.826 13.6061 176.871 13.0461C177.935 12.4861 179.046 12.2061 180.203 12.2061ZM180.119 12.7661C179.578 12.7661 179.111 12.9341 178.719 13.2701C178.346 13.5874 178.047 14.1661 177.823 15.0061C177.618 15.8274 177.506 16.9941 177.487 18.5061H182.275C182.462 16.4714 182.387 15.0061 182.051 14.1101C181.715 13.2141 181.071 12.7661 180.119 12.7661Z" fill="black"/>
<path d="M157.017 26.0941V25.8141L157.353 25.7021C158.025 25.4781 158.361 25.0114 158.361 24.3021V9.35006C158.361 8.95806 158.295 8.66873 158.165 8.48207C158.034 8.2954 157.782 8.1554 157.409 8.06206L156.989 7.95007V7.67006L161.917 6.46606L162.365 6.71806L162.253 10.6661V14.1661C162.906 13.6247 163.606 13.1674 164.353 12.7941C165.118 12.4021 165.958 12.2061 166.873 12.2061C168.086 12.2061 169.047 12.5514 169.757 13.2421C170.485 13.9327 170.849 14.9967 170.849 16.4341V24.3301C170.849 24.7034 170.923 25.0021 171.073 25.2261C171.222 25.4501 171.483 25.6181 171.857 25.7301L172.081 25.8141V26.0941H165.529V25.8141L165.865 25.7301C166.537 25.5061 166.873 25.0301 166.873 24.3021V15.5101C166.873 14.7634 166.742 14.2501 166.481 13.9701C166.238 13.6901 165.799 13.5501 165.165 13.5501C164.754 13.5501 164.306 13.6341 163.821 13.8021C163.335 13.9514 162.841 14.2221 162.337 14.6141V24.3581C162.337 25.0861 162.673 25.5527 163.345 25.7581L163.569 25.8141V26.0941H157.017Z" fill="black"/>
<path d="M152.135 26.5141C150.941 26.5141 150.007 26.2154 149.335 25.6181C148.682 25.0207 148.355 24.0687 148.355 22.7621V13.1861H146.423V12.9061L147.095 12.7941C147.674 12.6634 148.169 12.4767 148.579 12.2341C149.009 11.9914 149.429 11.6647 149.839 11.2541L152.135 8.70605H152.415L152.331 12.6261H155.467V13.1861H152.303V23.2661C152.303 23.9194 152.443 24.4141 152.723 24.7501C153.022 25.0861 153.395 25.2541 153.843 25.2541C154.235 25.2541 154.581 25.1607 154.879 24.9741C155.178 24.7687 155.477 24.4981 155.775 24.1621L156.055 24.4421C155.682 25.0767 155.169 25.5807 154.515 25.9541C153.862 26.3274 153.069 26.5141 152.135 26.5141Z" fill="black"/>
<path d="M136.411 26.5141C135.329 26.5141 134.414 26.2061 133.667 25.5901C132.939 24.9741 132.575 24.0874 132.575 22.9301C132.575 22.0527 133.023 21.2501 133.919 20.5221C134.815 19.7754 136.225 19.2154 138.147 18.8421C138.446 18.7861 138.782 18.7301 139.155 18.6741C139.529 18.5994 139.921 18.5247 140.331 18.4501V16.2381C140.331 14.9687 140.173 14.0821 139.855 13.5781C139.557 13.0554 139.081 12.7941 138.427 12.7941C137.979 12.7941 137.625 12.9434 137.363 13.2421C137.102 13.5221 136.934 14.0167 136.859 14.7261L136.803 15.0341C136.766 15.8367 136.57 16.4247 136.215 16.7981C135.861 17.1714 135.422 17.3581 134.899 17.3581C134.414 17.3581 134.013 17.2087 133.695 16.9101C133.378 16.6114 133.219 16.2101 133.219 15.7061C133.219 14.9407 133.481 14.2967 134.003 13.7741C134.545 13.2514 135.254 12.8594 136.131 12.5981C137.009 12.3367 137.961 12.2061 138.987 12.2061C140.649 12.2061 141.927 12.6167 142.823 13.4381C143.738 14.2407 144.195 15.5567 144.195 17.3861V23.5741C144.195 24.4141 144.587 24.8341 145.371 24.8341H145.987L146.239 25.0581C145.885 25.5061 145.493 25.8514 145.063 26.0941C144.653 26.3367 144.065 26.4581 143.299 26.4581C142.478 26.4581 141.825 26.2714 141.339 25.8981C140.873 25.5061 140.565 24.9927 140.415 24.3581C139.855 24.9554 139.277 25.4687 138.679 25.8981C138.101 26.3087 137.345 26.5141 136.411 26.5141ZM138.119 24.8061C138.493 24.8061 138.838 24.7221 139.155 24.5541C139.491 24.3674 139.883 24.0874 140.331 23.7141V19.0101C140.145 19.0474 139.958 19.0847 139.771 19.1221C139.585 19.1594 139.37 19.1967 139.127 19.2341C138.269 19.4581 137.578 19.8407 137.055 20.3821C136.551 20.9047 136.299 21.6141 136.299 22.5101C136.299 23.2754 136.477 23.8541 136.831 24.2461C137.186 24.6194 137.615 24.8061 138.119 24.8061Z" fill="black"/>
<path d="M125.269 12.2061C126.483 12.2061 127.519 12.4581 128.377 12.9621C129.236 13.4474 129.889 14.1194 130.337 14.9781C130.804 15.8181 131.037 16.7794 131.037 17.8621C131.037 18.0674 131.028 18.2821 131.009 18.5061C130.991 18.7114 130.953 18.8981 130.897 19.0661H122.553C122.572 21.0821 122.927 22.5381 123.617 23.4341C124.327 24.3114 125.372 24.7501 126.753 24.7501C127.687 24.7501 128.443 24.6007 129.021 24.3021C129.6 24.0034 130.141 23.5647 130.645 22.9861L130.925 23.2381C130.347 24.2647 129.572 25.0674 128.601 25.6461C127.649 26.2247 126.501 26.5141 125.157 26.5141C123.832 26.5141 122.656 26.2341 121.629 25.6741C120.603 25.0954 119.8 24.2741 119.221 23.2101C118.643 22.1461 118.353 20.8767 118.353 19.4021C118.353 17.8714 118.689 16.5741 119.361 15.5101C120.033 14.4274 120.892 13.6061 121.937 13.0461C123.001 12.4861 124.112 12.2061 125.269 12.2061ZM125.185 12.7661C124.644 12.7661 124.177 12.9341 123.785 13.2701C123.412 13.5874 123.113 14.1661 122.889 15.0061C122.684 15.8274 122.572 16.9941 122.553 18.5061H127.341C127.528 16.4714 127.453 15.0061 127.117 14.1101C126.781 13.2141 126.137 12.7661 125.185 12.7661Z" fill="black"/>
<path d="M104.653 26.094V25.814L105.157 25.646C105.53 25.5153 105.782 25.338 105.913 25.114C106.043 24.89 106.109 24.5913 106.109 24.218C106.127 23.098 106.137 21.9687 106.137 20.83C106.137 19.6913 106.137 18.5527 106.137 17.414V16.294C106.137 15.174 106.137 14.054 106.137 12.934C106.137 11.7953 106.127 10.666 106.109 9.54601C106.109 9.17268 106.053 8.87401 105.941 8.65001C105.847 8.42601 105.623 8.24868 105.269 8.11801L104.653 7.89401V7.61401H118.205L118.401 12.262H118.121L116.525 9.32201C116.338 8.96735 116.123 8.68735 115.881 8.48201C115.638 8.27668 115.302 8.17401 114.873 8.17401H110.365C110.346 9.49935 110.337 10.8527 110.337 12.234C110.337 13.6153 110.337 14.9873 110.337 16.35H113.249C113.678 16.35 113.995 16.2567 114.201 16.07C114.406 15.8833 114.602 15.6127 114.789 15.258L115.377 14.194H115.657V19.094H115.377L114.761 18.03C114.574 17.694 114.378 17.4233 114.173 17.218C113.986 17.0127 113.678 16.91 113.249 16.91H110.337C110.337 18.2167 110.337 19.4673 110.337 20.662C110.337 21.838 110.346 22.9953 110.365 24.134C110.365 24.862 110.719 25.338 111.429 25.562L112.269 25.814V26.094H104.653Z" fill="black"/>
<path d="M91.3357 12.2061C92.549 12.2061 93.585 12.4581 94.4437 12.9621C95.3023 13.4474 95.9557 14.1194 96.4037 14.9781C96.8703 15.8181 97.1037 16.7794 97.1037 17.8621C97.1037 18.0674 97.0943 18.2821 97.0757 18.5061C97.057 18.7114 97.0197 18.8981 96.9637 19.0661H88.6197C88.6383 21.0821 88.993 22.5381 89.6837 23.4341C90.393 24.3114 91.4383 24.7501 92.8197 24.7501C93.753 24.7501 94.509 24.6007 95.0877 24.3021C95.6663 24.0034 96.2077 23.5647 96.7117 22.9861L96.9917 23.2381C96.413 24.2647 95.6383 25.0674 94.6677 25.6461C93.7157 26.2247 92.5677 26.5141 91.2237 26.5141C89.8983 26.5141 88.7223 26.2341 87.6957 25.6741C86.669 25.0954 85.8663 24.2741 85.2877 23.2101C84.709 22.1461 84.4197 20.8767 84.4197 19.4021C84.4197 17.8714 84.7557 16.5741 85.4277 15.5101C86.0997 14.4274 86.9583 13.6061 88.0037 13.0461C89.0677 12.4861 90.1783 12.2061 91.3357 12.2061ZM91.2517 12.7661C90.7103 12.7661 90.2437 12.9341 89.8517 13.2701C89.4783 13.5874 89.1797 14.1661 88.9557 15.0061C88.7503 15.8274 88.6383 16.9941 88.6197 18.5061H93.4077C93.5943 16.4714 93.5197 15.0061 93.1837 14.1101C92.8477 13.2141 92.2037 12.7661 91.2517 12.7661Z" fill="black"/>
<path d="M68.1495 26.0941V25.8141L68.4855 25.7021C69.1575 25.4781 69.4935 25.0114 69.4935 24.3021V9.35006C69.4935 8.95806 69.4281 8.66873 69.2975 8.48207C69.1668 8.2954 68.9148 8.1554 68.5415 8.06206L68.1215 7.95007V7.67006L73.0495 6.46606L73.4975 6.71806L73.3855 10.6661V14.1661C74.0388 13.6247 74.7388 13.1674 75.4855 12.7941C76.2508 12.4021 77.0908 12.2061 78.0055 12.2061C79.2188 12.2061 80.1801 12.5514 80.8895 13.2421C81.6175 13.9327 81.9815 14.9967 81.9815 16.4341V24.3301C81.9815 24.7034 82.0561 25.0021 82.2055 25.2261C82.3548 25.4501 82.6161 25.6181 82.9895 25.7301L83.2135 25.8141V26.0941H76.6615V25.8141L76.9975 25.7301C77.6695 25.5061 78.0055 25.0301 78.0055 24.3021V15.5101C78.0055 14.7634 77.8748 14.2501 77.6135 13.9701C77.3708 13.6901 76.9321 13.5501 76.2975 13.5501C75.8868 13.5501 75.4388 13.6341 74.9535 13.8021C74.4681 13.9514 73.9735 14.2221 73.4695 14.6141V24.3581C73.4695 25.0861 73.8055 25.5527 74.4775 25.7581L74.7015 25.8141V26.0941H68.1495Z" fill="black"/>
<path d="M54.3187 26.094V25.814L55.4667 25.534C56.2321 25.366 56.6147 24.8993 56.6147 24.134V8.17401H54.2347C53.5441 8.17401 53.0494 8.36068 52.7507 8.73401C52.4521 9.08868 52.1347 9.58335 51.7987 10.218L50.7907 12.178H50.5107L50.6507 7.61401H66.8067L66.9187 12.178H66.6387L65.6307 10.218C65.3134 9.58335 65.0054 9.08868 64.7067 8.73401C64.4081 8.36068 63.9134 8.17401 63.2227 8.17401H60.8427V24.134C60.8427 24.8993 61.2254 25.366 61.9907 25.534L63.1387 25.814V26.094H54.3187Z" fill="black"/>
</svg>
