<svg width="229" height="107" viewBox="0 0 229 107" fill="none" xmlns="http://www.w3.org/2000/svg">
<path fill-rule="evenodd" clip-rule="evenodd" d="M90.8288 3.02951e-05C90.7617 0.000493494 90.6956 0.00477244 90.6288 0.010386C90.2853 0.0766345 90.0161 0.259786 89.8178 0.548568C89.5861 0.885992 89.4041 1.51862 89.2548 2.03744C89.2119 2.18649 89.1717 2.32614 89.1339 2.4467C87.9019 6.36759 87.5187 10.6514 88.3431 14.6984C88.9119 17.4904 90.1715 20.5956 91.8966 22.8784C91.8027 22.891 91.6898 22.9043 91.5651 22.9189L91.565 22.9189C90.9963 22.9856 90.1842 23.0809 89.8276 23.2702C89.6791 23.3489 89.5357 23.4903 89.4363 23.625C89.4131 23.6562 89.3914 23.6886 89.3715 23.722C89.3515 23.7555 89.3333 23.7898 89.3169 23.8251C89.3004 23.8604 89.2858 23.8964 89.273 23.9332C89.2602 23.97 89.2493 24.0074 89.2404 24.0453C89.2314 24.0831 89.2244 24.1214 89.2193 24.1601C89.2142 24.1987 89.2111 24.2374 89.21 24.2763C89.2089 24.3153 89.2098 24.3542 89.2126 24.393C89.2155 24.4318 89.2203 24.4704 89.2271 24.5088C89.2864 24.8449 89.4905 25.1716 89.6761 25.4687C89.7069 25.518 89.7372 25.5666 89.7663 25.6142C89.9047 25.8379 90.049 26.0577 90.1993 26.2735C90.3497 26.4893 90.5058 26.7009 90.6676 26.9083C90.8295 27.1155 90.9969 27.3183 91.1698 27.5165C91.3427 27.7147 91.5209 27.908 91.7044 28.0965C91.8879 28.285 92.0763 28.4684 92.2698 28.6466C92.4633 28.8248 92.6614 28.9976 92.8643 29.1649C93.0672 29.3323 93.2745 29.4941 93.4862 29.6503C93.6979 29.8064 93.9137 29.9566 94.1336 30.1009C96.3573 31.5835 98.4849 32.5404 100.997 33.4211C101.052 33.4405 101.108 33.46 101.164 33.4796C101.897 33.7371 102.664 34.0066 103.417 34.1694C103.272 34.2821 103.089 34.4116 102.893 34.5505C102.387 34.9087 101.794 35.3289 101.531 35.682C101.408 35.8468 101.345 36.0297 101.319 36.232C101.275 36.5779 101.381 36.8822 101.598 37.1503C101.812 37.4157 102.078 37.6575 102.333 37.8904L102.385 37.9377C102.406 37.9574 102.428 37.977 102.449 37.9965C105.044 40.3805 108.745 41.391 112.175 41.7313C115.306 42.0421 119.202 41.9177 122.275 41.2806C122.371 41.5802 122.518 41.8769 122.663 42.1691C122.732 42.3084 122.801 42.4468 122.863 42.5839C123.043 42.9803 123.198 43.3906 123.352 43.799C123.386 43.8886 123.42 43.9781 123.454 44.0674C123.884 45.1949 124.164 46.3438 124.448 47.5053C124.5 47.72 124.552 47.9351 124.606 48.1506L124.587 48.1544C123.141 48.4514 122.085 48.6683 120.75 49.3675L120.711 49.3874C120.351 49.5759 119.965 49.7773 119.732 50.1224C119.71 50.1558 119.689 50.1903 119.67 50.2258C119.651 50.2613 119.633 50.2977 119.618 50.335C119.602 50.3722 119.588 50.4101 119.577 50.4487C119.565 50.4873 119.555 50.5264 119.547 50.5659C119.539 50.6055 119.533 50.6453 119.529 50.6855C119.525 50.7256 119.523 50.7659 119.523 50.8061C119.523 50.8465 119.525 50.8868 119.529 50.9269C119.533 50.9671 119.539 51.0069 119.547 51.0465C119.556 51.0859 119.566 51.1248 119.579 51.1631C119.591 51.2014 119.605 51.2391 119.622 51.2761C119.638 51.313 119.656 51.349 119.675 51.3843C119.695 51.4194 119.717 51.4535 119.74 51.4866C119.763 51.5197 119.787 51.5516 119.814 51.5822C119.84 51.6129 119.867 51.6421 119.897 51.67C119.926 51.6979 119.956 51.7244 119.988 51.7493C120.02 51.7742 120.052 51.7974 120.086 51.8191C120.363 51.993 120.675 52.0398 120.992 51.9669C121.274 51.9018 121.526 51.7437 121.776 51.5865C121.926 51.4923 122.076 51.3984 122.231 51.325C123.301 50.8198 124.58 50.5756 125.753 50.4981C126.792 50.4295 127.719 50.5899 128.668 50.754C129.149 50.8372 129.635 50.9213 130.144 50.9771C133.203 51.3125 138.306 51.1339 140.092 48.1528C140.624 47.2661 140.727 46.1569 140.469 45.166C140.113 43.7974 139.371 42.8052 138.547 41.7045L138.488 41.6254C137.08 39.825 134.801 36.8421 134.559 34.5331L134.557 34.5108C134.536 34.3086 134.513 34.0899 134.538 33.8887C134.563 33.6964 134.631 33.5298 134.789 33.4095C135.007 33.2427 135.279 33.1978 135.551 33.1529C136.057 33.0693 136.561 32.986 136.71 32.1155C136.76 31.8215 136.697 31.526 136.523 31.2822C136.32 30.998 136.016 30.7979 135.669 30.746C134.93 30.6353 133.899 31.0002 133.316 31.4499C132.595 32.0063 132.228 32.8224 132.119 33.7128C131.784 36.4407 134.236 40.092 135.815 42.191C135.996 42.4321 136.195 42.6768 136.398 42.9265C137.14 43.8415 137.938 44.824 138.139 45.9451C138.252 46.5735 137.968 47.0862 137.488 47.4652C135.889 48.73 132.397 48.8147 130.426 48.5697C129.979 48.5141 129.536 48.4319 129.092 48.3498L129.092 48.3497C128.78 48.2919 128.468 48.2341 128.155 48.1857C127.883 48.1436 127.607 48.12 127.331 48.0965C127.247 48.0893 127.163 48.0821 127.078 48.0744C126.587 45.5877 125.875 43.2013 124.793 40.9026C124.474 40.2252 124.135 39.5367 123.725 38.9088C123.72 37.3552 123.635 35.8382 123.35 34.3062C122.621 30.3851 120.706 27.0036 118.05 24.0705C117.978 23.9914 117.907 23.9118 117.835 23.8321L117.835 23.832C117.581 23.549 117.326 23.265 117.057 22.9978C113.917 19.881 110.122 17.5205 106.286 15.3634L103.431 13.7659C103.35 13.7208 103.269 13.6757 103.187 13.6306C102.337 13.1593 101.484 12.687 100.68 12.1377C99.7426 11.4856 98.8596 10.7665 98.0313 9.98021C96.1259 8.14517 94.313 5.80537 93.1458 3.42662C92.8864 2.89814 92.6292 2.36439 92.3956 1.82405C92.3394 1.69405 92.2866 1.5536 92.2327 1.4105C92.111 1.08726 91.9842 0.750439 91.8023 0.489676C91.5789 0.169672 91.2133 -0.00262759 90.8288 3.02951e-05ZM91.4453 5.43089C91.317 5.18049 91.1816 4.9159 91.0171 4.7245C90.9936 4.83998 90.9699 4.95533 90.9462 5.07059C90.7433 6.05999 90.5415 7.04332 90.4441 8.05253C90.0213 12.4312 90.9485 17.1051 93.4018 20.7999C93.7315 21.2965 94.0997 21.7776 94.4767 22.239C94.5539 22.3335 94.6437 22.4309 94.7359 22.531C94.9427 22.7555 95.1616 22.9932 95.278 23.2401C95.3799 23.4562 95.4035 23.7173 95.3601 23.9506C95.3012 24.2668 95.1279 24.542 94.8607 24.7233C94.5006 24.9675 93.656 25.0868 92.9895 25.181C92.7662 25.2125 92.5628 25.2412 92.4044 25.2709L92.4375 25.3018C92.6347 25.4885 92.8119 25.6966 92.9889 25.9042C93.0824 26.014 93.1759 26.1237 93.2721 26.2301C93.5846 26.5755 93.9448 26.8998 94.3022 27.1984C97.2226 29.6393 101.176 31.083 104.827 32.0133C105.149 32.0951 105.473 32.1635 105.797 32.2318C106.015 32.2778 106.233 32.3237 106.45 32.3738C107.021 32.5054 107.513 32.8683 107.533 33.506C107.544 33.8459 107.398 34.1894 107.164 34.4322C106.916 34.6893 106.592 34.9112 106.282 35.1244C106.17 35.2011 106.06 35.2768 105.955 35.3525C105.794 35.4695 105.633 35.5889 105.472 35.7085C105.126 35.9661 104.778 36.2245 104.42 36.4612C105.165 37.1131 106.01 37.571 106.914 37.9614C109.79 39.2038 112.928 39.4847 116.028 39.4228C116.15 39.4204 116.273 39.4184 116.395 39.4164C116.822 39.4095 117.249 39.4026 117.674 39.3762C118.239 39.341 118.8 39.2718 119.361 39.2026C119.88 39.1387 120.397 39.0749 120.917 39.038C120.798 38.8789 120.68 38.7185 120.562 38.5579C120.262 38.1492 119.961 37.7393 119.643 37.3472C118.834 36.3662 117.969 35.4373 117.049 34.5605C116.074 33.6363 115.024 32.7981 113.958 31.9821C112.042 30.5143 110.044 29.1682 108.045 27.8206C107.612 27.5285 107.178 27.2362 106.745 26.9427C105.442 26.0484 104.16 25.1233 102.902 24.1672L102.851 24.1291C101.757 23.3103 100.652 22.484 99.6052 21.6068C99.5289 21.5436 99.4379 21.4686 99.3346 21.3836C98.0691 20.3423 94.9712 17.7931 94.879 16.7267C94.8517 16.4099 94.969 16.0787 95.1758 15.8392C95.3807 15.6018 95.693 15.4447 96.0057 15.4222C96.3687 15.3962 96.6152 15.5163 96.8794 15.7521C97.0654 15.9181 97.2308 16.1085 97.3962 16.2988C97.5137 16.434 97.6312 16.5692 97.7559 16.6955C98.3452 17.2921 98.973 17.8612 99.5983 18.4196C101.611 20.2169 103.806 21.8395 105.98 23.4347C107.002 24.1846 108.056 24.8926 109.109 25.5998C109.363 25.7706 109.617 25.9414 109.871 26.1127C112.736 28.0473 115.649 30.0243 118.222 32.3402C119.206 33.2385 120.136 34.1888 121.014 35.191C120.917 34.8738 120.846 34.5496 120.775 34.2253C120.718 33.9701 120.662 33.7148 120.594 33.4631C120.299 32.377 119.88 31.3146 119.402 30.2969C119.034 29.5125 118.545 28.7462 118.058 28.0292C114.705 23.0883 109.478 19.9834 104.376 17.1242C103.996 16.9111 103.613 16.7001 103.23 16.4889C101.317 15.4354 99.3897 14.3734 97.7023 12.9903C97.4453 12.7775 97.1924 12.5599 96.9437 12.3375C96.6949 12.115 96.4505 11.8878 96.2105 11.656C95.9704 11.4242 95.7349 11.1879 95.5039 10.9471C95.2728 10.7063 95.0464 10.4612 94.8248 10.2117C94.6031 9.96223 94.3863 9.70865 94.1743 9.45095C93.9623 9.19325 93.7553 8.93158 93.5534 8.66594C93.3514 8.40029 93.1545 8.1309 92.9628 7.85776C92.7711 7.58462 92.5847 7.30792 92.4036 7.02764C92.1272 6.60845 91.8568 6.17657 91.6089 5.74001C91.5545 5.64428 91.5006 5.53891 91.4453 5.43089Z" fill="white"/>
<path d="M213.418 99.628V99.348L213.81 99.236C214.463 99.0493 214.79 98.592 214.79 97.864V89.1C214.79 88.6893 214.725 88.3907 214.594 88.204C214.463 87.9987 214.211 87.8587 213.838 87.784L213.418 87.672V87.392L218.206 85.768L218.486 86.048L218.71 87.728C219.363 87.1493 220.101 86.6733 220.922 86.3C221.743 85.9267 222.555 85.74 223.358 85.74C224.59 85.74 225.533 86.076 226.186 86.748C226.858 87.42 227.194 88.4467 227.194 89.828V97.892C227.194 98.62 227.549 99.0773 228.258 99.264L228.51 99.348V99.628H221.902V99.348L222.266 99.236C222.919 99.0307 223.246 98.5733 223.246 97.864V88.932C223.246 87.7373 222.649 87.14 221.454 87.14C220.633 87.14 219.737 87.5507 218.766 88.372V97.892C218.766 98.62 219.093 99.0773 219.746 99.264L219.998 99.348V99.628H213.418Z" fill="white"/>
<path d="M205.244 100.048C203.825 100.048 202.593 99.7587 201.548 99.18C200.503 98.5827 199.691 97.7427 199.112 96.66C198.552 95.5773 198.272 94.308 198.272 92.852C198.272 91.396 198.571 90.136 199.168 89.072C199.784 88.008 200.615 87.1867 201.66 86.608C202.724 86.0293 203.919 85.74 205.244 85.74C206.569 85.74 207.755 86.0293 208.8 86.608C209.845 87.168 210.667 87.98 211.264 89.044C211.88 90.108 212.188 91.3773 212.188 92.852C212.188 94.3267 211.899 95.6053 211.32 96.688C210.76 97.752 209.957 98.5827 208.912 99.18C207.885 99.7587 206.663 100.048 205.244 100.048ZM205.244 99.488C205.897 99.488 206.42 99.3013 206.812 98.928C207.204 98.5547 207.484 97.892 207.652 96.94C207.839 95.988 207.932 94.644 207.932 92.908C207.932 91.1533 207.839 89.8 207.652 88.848C207.484 87.896 207.204 87.2333 206.812 86.86C206.42 86.4867 205.897 86.3 205.244 86.3C204.591 86.3 204.059 86.4867 203.648 86.86C203.256 87.2333 202.967 87.896 202.78 88.848C202.612 89.8 202.528 91.1533 202.528 92.908C202.528 94.644 202.612 95.988 202.78 96.94C202.967 97.892 203.256 98.5547 203.648 98.928C204.059 99.3013 204.591 99.488 205.244 99.488Z" fill="white"/>
<path d="M193.445 100.048C192.25 100.048 191.317 99.7493 190.645 99.152C189.992 98.5547 189.665 97.6027 189.665 96.296V86.72H187.733V86.44L188.405 86.328C188.984 86.1973 189.478 86.0107 189.889 85.768C190.318 85.5253 190.738 85.1987 191.149 84.788L193.445 82.24H193.725L193.641 86.16H196.777V86.72H193.613V96.8C193.613 97.4533 193.753 97.948 194.033 98.284C194.332 98.62 194.705 98.788 195.153 98.788C195.545 98.788 195.89 98.6947 196.189 98.508C196.488 98.3027 196.786 98.032 197.085 97.696L197.365 97.976C196.992 98.6107 196.478 99.1147 195.825 99.488C195.172 99.8613 194.378 100.048 193.445 100.048Z" fill="white"/>
<path d="M179.354 94.784C178.066 94.784 176.974 94.5693 176.078 94.14V95.092C176.078 95.6707 176.367 96.016 176.946 96.128L182.21 97.108C183.087 97.276 183.881 97.5 184.59 97.78C185.299 98.0413 185.869 98.424 186.298 98.928C186.727 99.4133 186.942 100.085 186.942 100.944C186.942 101.859 186.643 102.699 186.046 103.464C185.449 104.248 184.562 104.873 183.386 105.34C182.229 105.825 180.782 106.068 179.046 106.068C177.553 106.068 176.367 105.909 175.49 105.592C174.613 105.293 173.987 104.901 173.614 104.416C173.259 103.931 173.082 103.417 173.082 102.876C173.082 102.204 173.306 101.523 173.754 100.832C174.221 100.16 174.79 99.6187 175.462 99.208C174.883 98.984 174.463 98.6947 174.202 98.34C173.941 97.9853 173.81 97.6027 173.81 97.192C173.81 96.8187 173.903 96.4733 174.09 96.156C174.295 95.82 174.538 95.484 174.818 95.148L175.742 93.972C174.379 93.188 173.698 91.956 173.698 90.276C173.698 88.932 174.174 87.84 175.126 87C176.097 86.16 177.515 85.74 179.382 85.74C180.334 85.74 181.165 85.852 181.874 86.076C182.602 86.3 183.199 86.6173 183.666 87.028C184.263 86.9347 184.823 86.7853 185.346 86.58C185.887 86.356 186.373 86.0573 186.802 85.684L187.194 85.964V87.392H184.03C184.702 88.1387 185.038 89.1 185.038 90.276C185.038 91.5827 184.553 92.6653 183.582 93.524C182.63 94.364 181.221 94.784 179.354 94.784ZM179.326 94.224C180.073 94.224 180.614 93.916 180.95 93.3C181.305 92.684 181.482 91.6573 181.482 90.22C181.482 88.7827 181.305 87.7747 180.95 87.196C180.614 86.5987 180.091 86.3 179.382 86.3C178.691 86.3 178.169 86.608 177.814 87.224C177.459 87.8213 177.282 88.8387 177.282 90.276C177.282 91.7133 177.441 92.7307 177.758 93.328C178.094 93.9253 178.617 94.224 179.326 94.224ZM175.154 101.98C175.154 103.081 175.49 103.912 176.162 104.472C176.853 105.032 177.935 105.312 179.41 105.312C180.959 105.312 182.126 105.06 182.91 104.556C183.694 104.052 184.086 103.343 184.086 102.428C184.086 101.905 183.89 101.485 183.498 101.168C183.125 100.851 182.481 100.608 181.566 100.44L176.498 99.488C176.349 99.4507 176.199 99.4133 176.05 99.376C175.789 99.7493 175.574 100.169 175.406 100.636C175.238 101.121 175.154 101.569 175.154 101.98Z" fill="white"/>
<path d="M157.062 99.628V99.348L157.454 99.236C158.108 99.0493 158.435 98.592 158.435 97.864V89.1C158.435 88.6893 158.369 88.3907 158.239 88.204C158.108 87.9987 157.856 87.8587 157.482 87.784L157.062 87.672V87.392L161.851 85.768L162.131 86.048L162.355 87.728C163.008 87.1493 163.745 86.6733 164.566 86.3C165.388 85.9267 166.2 85.74 167.003 85.74C168.235 85.74 169.177 86.076 169.831 86.748C170.503 87.42 170.839 88.4467 170.839 89.828V97.892C170.839 98.62 171.193 99.0773 171.902 99.264L172.155 99.348V99.628H165.547V99.348L165.911 99.236C166.564 99.0307 166.891 98.5733 166.891 97.864V88.932C166.891 87.7373 166.293 87.14 165.098 87.14C164.277 87.14 163.381 87.5507 162.411 88.372V97.892C162.411 98.62 162.737 99.0773 163.391 99.264L163.643 99.348V99.628H157.062Z" fill="white"/>
<path d="M152.575 84.284C151.94 84.284 151.399 84.088 150.951 83.696C150.522 83.2853 150.307 82.772 150.307 82.156C150.307 81.5213 150.522 81.008 150.951 80.616C151.399 80.224 151.94 80.028 152.575 80.028C153.21 80.028 153.742 80.224 154.171 80.616C154.6 81.008 154.815 81.5213 154.815 82.156C154.815 82.772 154.6 83.2853 154.171 83.696C153.742 84.088 153.21 84.284 152.575 84.284ZM149.271 99.628V99.348L149.663 99.236C150.036 99.124 150.288 98.956 150.419 98.732C150.568 98.508 150.643 98.2093 150.643 97.836V89.072C150.643 88.68 150.568 88.3907 150.419 88.204C150.288 87.9987 150.036 87.8587 149.663 87.784L149.271 87.7V87.42L154.395 85.768L154.675 86.048L154.591 90.024V97.864C154.591 98.2373 154.656 98.536 154.787 98.76C154.936 98.984 155.188 99.152 155.543 99.264L155.823 99.348V99.628H149.271Z" fill="white"/>
<path d="M136.855 99.628V99.348L137.275 99.236C137.649 99.124 137.901 98.956 138.031 98.732C138.181 98.508 138.255 98.2187 138.255 97.864V89.1C138.255 88.6893 138.181 88.3907 138.031 88.204C137.901 87.9987 137.649 87.8587 137.275 87.784L136.855 87.672V87.392L141.671 85.768L141.951 86.048L142.203 88.456V88.68C142.465 88.1573 142.801 87.6813 143.211 87.252C143.641 86.804 144.107 86.44 144.611 86.16C145.134 85.88 145.647 85.74 146.151 85.74C146.861 85.74 147.402 85.936 147.775 86.328C148.149 86.72 148.335 87.2147 148.335 87.812C148.335 88.4467 148.149 88.9413 147.775 89.296C147.421 89.632 146.991 89.8 146.487 89.8C145.703 89.8 145.013 89.408 144.415 88.624L144.359 88.568C144.173 88.3067 143.958 88.1667 143.715 88.148C143.473 88.1107 143.249 88.2227 143.043 88.484C142.857 88.652 142.698 88.8573 142.567 89.1C142.455 89.324 142.343 89.5853 142.231 89.884V97.696C142.231 98.4427 142.558 98.9093 143.211 99.096L144.107 99.348V99.628H136.855Z" fill="white"/>
<path d="M129.692 85.74C130.905 85.74 131.941 85.992 132.8 86.496C133.659 86.9813 134.312 87.6533 134.76 88.512C135.227 89.352 135.46 90.3133 135.46 91.396C135.46 91.6013 135.451 91.816 135.432 92.04C135.413 92.2453 135.376 92.432 135.32 92.6H126.976C126.995 94.616 127.349 96.072 128.04 96.968C128.749 97.8453 129.795 98.284 131.176 98.284C132.109 98.284 132.865 98.1347 133.444 97.836C134.023 97.5373 134.564 97.0987 135.068 96.52L135.348 96.772C134.769 97.7987 133.995 98.6013 133.024 99.18C132.072 99.7587 130.924 100.048 129.58 100.048C128.255 100.048 127.079 99.768 126.052 99.208C125.025 98.6293 124.223 97.808 123.644 96.744C123.065 95.68 122.776 94.4107 122.776 92.936C122.776 91.4053 123.112 90.108 123.784 89.044C124.456 87.9613 125.315 87.14 126.36 86.58C127.424 86.02 128.535 85.74 129.692 85.74ZM129.608 86.3C129.067 86.3 128.6 86.468 128.208 86.804C127.835 87.1213 127.536 87.7 127.312 88.54C127.107 89.3613 126.995 90.528 126.976 92.04H131.764C131.951 90.0053 131.876 88.54 131.54 87.644C131.204 86.748 130.56 86.3 129.608 86.3Z" fill="white"/>
<path d="M106.506 99.628V99.348L106.842 99.236C107.514 99.012 107.85 98.5453 107.85 97.836V82.884C107.85 82.492 107.785 82.2027 107.654 82.016C107.523 81.8293 107.271 81.6893 106.898 81.596L106.478 81.484V81.204L111.406 80L111.854 80.252L111.742 84.2V87.7C112.395 87.1587 113.095 86.7013 113.842 86.328C114.607 85.936 115.447 85.74 116.362 85.74C117.575 85.74 118.537 86.0853 119.246 86.776C119.974 87.4667 120.338 88.5307 120.338 89.968V97.864C120.338 98.2373 120.413 98.536 120.562 98.76C120.711 98.984 120.973 99.152 121.346 99.264L121.57 99.348V99.628H115.018V99.348L115.354 99.264C116.026 99.04 116.362 98.564 116.362 97.836V89.044C116.362 88.2973 116.231 87.784 115.97 87.504C115.727 87.224 115.289 87.084 114.654 87.084C114.243 87.084 113.795 87.168 113.31 87.336C112.825 87.4853 112.33 87.756 111.826 88.148V97.892C111.826 98.62 112.162 99.0867 112.834 99.292L113.058 99.348V99.628H106.506Z" fill="white"/>
<path d="M101.625 100.048C100.43 100.048 99.4967 99.7493 98.8247 99.152C98.1714 98.5547 97.8447 97.6027 97.8447 96.296V86.72H95.9127V86.44L96.5847 86.328C97.1634 86.1973 97.658 86.0107 98.0687 85.768C98.498 85.5253 98.918 85.1987 99.3287 84.788L101.625 82.24H101.905L101.821 86.16H104.957V86.72H101.793V96.8C101.793 97.4533 101.933 97.948 102.213 98.284C102.511 98.62 102.885 98.788 103.333 98.788C103.725 98.788 104.07 98.6947 104.369 98.508C104.667 98.3027 104.966 98.032 105.265 97.696L105.545 97.976C105.171 98.6107 104.658 99.1147 104.005 99.488C103.351 99.8613 102.558 100.048 101.625 100.048Z" fill="white"/>
<path d="M85.9005 100.048C84.8178 100.048 83.9032 99.74 83.1565 99.124C82.4285 98.508 82.0645 97.6213 82.0645 96.464C82.0645 95.5867 82.5125 94.784 83.4085 94.056C84.3045 93.3093 85.7138 92.7493 87.6365 92.376C87.9352 92.32 88.2712 92.264 88.6445 92.208C89.0178 92.1333 89.4098 92.0587 89.8205 91.984V89.772C89.8205 88.5027 89.6618 87.616 89.3445 87.112C89.0458 86.5893 88.5698 86.328 87.9165 86.328C87.4685 86.328 87.1138 86.4773 86.8525 86.776C86.5912 87.056 86.4232 87.5507 86.3485 88.26L86.2925 88.568C86.2552 89.3707 86.0592 89.9587 85.7045 90.332C85.3498 90.7053 84.9112 90.892 84.3885 90.892C83.9032 90.892 83.5018 90.7427 83.1845 90.444C82.8672 90.1453 82.7085 89.744 82.7085 89.24C82.7085 88.4747 82.9698 87.8307 83.4925 87.308C84.0338 86.7853 84.7432 86.3933 85.6205 86.132C86.4978 85.8707 87.4498 85.74 88.4765 85.74C90.1378 85.74 91.4165 86.1507 92.3125 86.972C93.2272 87.7747 93.6845 89.0907 93.6845 90.92V97.108C93.6845 97.948 94.0765 98.368 94.8605 98.368H95.4765L95.7285 98.592C95.3738 99.04 94.9818 99.3853 94.5525 99.628C94.1418 99.8707 93.5538 99.992 92.7885 99.992C91.9672 99.992 91.3138 99.8053 90.8285 99.432C90.3618 99.04 90.0538 98.5267 89.9045 97.892C89.3445 98.4893 88.7658 99.0027 88.1685 99.432C87.5898 99.8427 86.8338 100.048 85.9005 100.048ZM87.6085 98.34C87.9818 98.34 88.3272 98.256 88.6445 98.088C88.9805 97.9013 89.3725 97.6213 89.8205 97.248V92.544C89.6338 92.5813 89.4472 92.6187 89.2605 92.656C89.0738 92.6933 88.8592 92.7307 88.6165 92.768C87.7578 92.992 87.0672 93.3747 86.5445 93.916C86.0405 94.4387 85.7885 95.148 85.7885 96.044C85.7885 96.8093 85.9658 97.388 86.3205 97.78C86.6752 98.1533 87.1045 98.34 87.6085 98.34Z" fill="white"/>
<path d="M74.7585 85.74C75.9718 85.74 77.0078 85.992 77.8665 86.496C78.7251 86.9813 79.3785 87.6533 79.8265 88.512C80.2931 89.352 80.5265 90.3133 80.5265 91.396C80.5265 91.6013 80.5171 91.816 80.4985 92.04C80.4798 92.2453 80.4425 92.432 80.3865 92.6H72.0425C72.0611 94.616 72.4158 96.072 73.1065 96.968C73.8158 97.8453 74.8611 98.284 76.2425 98.284C77.1758 98.284 77.9318 98.1347 78.5105 97.836C79.0891 97.5373 79.6305 97.0987 80.1345 96.52L80.4145 96.772C79.8358 97.7987 79.0611 98.6013 78.0905 99.18C77.1385 99.7587 75.9905 100.048 74.6465 100.048C73.3211 100.048 72.1451 99.768 71.1185 99.208C70.0918 98.6293 69.2891 97.808 68.7105 96.744C68.1318 95.68 67.8425 94.4107 67.8425 92.936C67.8425 91.4053 68.1785 90.108 68.8505 89.044C69.5225 87.9613 70.3811 87.14 71.4265 86.58C72.4905 86.02 73.6011 85.74 74.7585 85.74ZM74.6745 86.3C74.1331 86.3 73.6665 86.468 73.2745 86.804C72.9011 87.1213 72.6025 87.7 72.3785 88.54C72.1731 89.3613 72.0611 90.528 72.0425 92.04H76.8305C77.0171 90.0053 76.9425 88.54 76.6065 87.644C76.2705 86.748 75.6265 86.3 74.6745 86.3Z" fill="white"/>
<path d="M54.1419 99.628V99.348L54.6459 99.18C55.0193 99.0493 55.2713 98.872 55.4019 98.648C55.5326 98.424 55.5979 98.1253 55.5979 97.752C55.6166 96.632 55.6259 95.5027 55.6259 94.364C55.6259 93.2253 55.6259 92.0867 55.6259 90.948V89.828C55.6259 88.708 55.6259 87.588 55.6259 86.468C55.6259 85.3293 55.6166 84.2 55.5979 83.08C55.5979 82.7067 55.5419 82.408 55.4299 82.184C55.3366 81.96 55.1126 81.7827 54.7579 81.652L54.1419 81.428V81.148H67.6939L67.8899 85.796H67.6099L66.0139 82.856C65.8273 82.5013 65.6126 82.2213 65.3699 82.016C65.1273 81.8107 64.7913 81.708 64.3619 81.708H59.8539C59.8353 83.0333 59.8259 84.3867 59.8259 85.768C59.8259 87.1493 59.8259 88.5213 59.8259 89.884H62.7379C63.1673 89.884 63.4846 89.7907 63.6899 89.604C63.8953 89.4173 64.0913 89.1467 64.2779 88.792L64.8659 87.728H65.1459V92.628H64.8659L64.2499 91.564C64.0633 91.228 63.8673 90.9573 63.6619 90.752C63.4753 90.5467 63.1673 90.444 62.7379 90.444H59.8259C59.8259 91.7507 59.8259 93.0013 59.8259 94.196C59.8259 95.372 59.8353 96.5293 59.8539 97.668C59.8539 98.396 60.2086 98.872 60.9179 99.096L61.7579 99.348V99.628H54.1419Z" fill="white"/>
<path d="M40.8249 85.74C42.0382 85.74 43.0742 85.992 43.9329 86.496C44.7915 86.9813 45.4449 87.6533 45.8929 88.512C46.3595 89.352 46.5929 90.3133 46.5929 91.396C46.5929 91.6013 46.5835 91.816 46.5649 92.04C46.5462 92.2453 46.5089 92.432 46.4529 92.6H38.1089C38.1275 94.616 38.4822 96.072 39.1729 96.968C39.8822 97.8453 40.9275 98.284 42.3089 98.284C43.2422 98.284 43.9982 98.1347 44.5769 97.836C45.1555 97.5373 45.6969 97.0987 46.2009 96.52L46.4809 96.772C45.9022 97.7987 45.1275 98.6013 44.1569 99.18C43.2049 99.7587 42.0569 100.048 40.7129 100.048C39.3875 100.048 38.2115 99.768 37.1849 99.208C36.1582 98.6293 35.3555 97.808 34.7769 96.744C34.1982 95.68 33.9089 94.4107 33.9089 92.936C33.9089 91.4053 34.2449 90.108 34.9169 89.044C35.5889 87.9613 36.4475 87.14 37.4929 86.58C38.5569 86.02 39.6675 85.74 40.8249 85.74ZM40.7409 86.3C40.1995 86.3 39.7329 86.468 39.3409 86.804C38.9675 87.1213 38.6689 87.7 38.4449 88.54C38.2395 89.3613 38.1275 90.528 38.1089 92.04H42.8969C43.0835 90.0053 43.0089 88.54 42.6729 87.644C42.3369 86.748 41.6929 86.3 40.7409 86.3Z" fill="white"/>
<path d="M17.6387 99.628V99.348L17.9747 99.236C18.6467 99.012 18.9827 98.5453 18.9827 97.836V82.884C18.9827 82.492 18.9174 82.2027 18.7867 82.016C18.656 81.8293 18.404 81.6893 18.0307 81.596L17.6107 81.484V81.204L22.5387 80L22.9867 80.252L22.8747 84.2V87.7C23.528 87.1587 24.228 86.7013 24.9747 86.328C25.74 85.936 26.58 85.74 27.4947 85.74C28.708 85.74 29.6694 86.0853 30.3787 86.776C31.1067 87.4667 31.4707 88.5307 31.4707 89.968V97.864C31.4707 98.2373 31.5454 98.536 31.6947 98.76C31.844 98.984 32.1054 99.152 32.4787 99.264L32.7027 99.348V99.628H26.1507V99.348L26.4867 99.264C27.1587 99.04 27.4947 98.564 27.4947 97.836V89.044C27.4947 88.2973 27.364 87.784 27.1027 87.504C26.86 87.224 26.4214 87.084 25.7867 87.084C25.376 87.084 24.928 87.168 24.4427 87.336C23.9574 87.4853 23.4627 87.756 22.9587 88.148V97.892C22.9587 98.62 23.2947 99.0867 23.9667 99.292L24.1907 99.348V99.628H17.6387Z" fill="white"/>
<path d="M3.808 99.628V99.348L4.956 99.068C5.72133 98.9 6.104 98.4333 6.104 97.668V81.708H3.724C3.03333 81.708 2.53867 81.8947 2.24 82.268C1.94133 82.6227 1.624 83.1173 1.288 83.752L0.28 85.712H0L0.14 81.148H16.296L16.408 85.712H16.128L15.12 83.752C14.8027 83.1173 14.4947 82.6227 14.196 82.268C13.8973 81.8947 13.4027 81.708 12.712 81.708H10.332V97.668C10.332 98.4333 10.7147 98.9 11.48 99.068L12.628 99.348V99.628H3.808Z" fill="white"/>
</svg>
