<svg width="296" height="78" viewBox="0 0 296 78" fill="none" xmlns="http://www.w3.org/2000/svg">
<path d="M1.6875 37.5917L20.7891 29.0604V35.3417L6.23438 41.2479V41.6229L20.7891 47.5292V53.8807L1.6875 45.4667V37.5917ZM27 21.8182H39C40.2344 21.8182 41.4141 21.9042 42.5391 22.076C43.6797 22.2479 44.7344 22.5526 45.7031 22.9901C46.6719 23.4276 47.5547 24.037 48.3516 24.8182C49.1484 25.5995 49.8281 26.5995 50.3906 27.8182C50.9531 29.037 51.3828 30.5057 51.6797 32.2245C51.9922 33.9432 52.1484 35.9589 52.1484 38.2714C52.1484 40.662 52.0078 42.7479 51.7266 44.5292C51.4453 46.2948 51.0391 47.8104 50.5078 49.076C49.9766 50.326 49.3281 51.3573 48.5625 52.1698C47.7969 52.9667 46.9219 53.5995 45.9375 54.0682C44.9688 54.5214 43.8984 54.8339 42.7266 55.0057C41.5703 55.1776 40.3281 55.2635 39 55.2635H27V21.8182ZM37.4766 50.037C38.2734 50.037 39.0469 50.0214 39.7969 49.9901C40.5469 49.9432 41.2422 49.8026 41.8828 49.5682C42.5391 49.3339 43.1328 48.9823 43.6641 48.5135C44.2109 48.0292 44.6719 47.3495 45.0469 46.4745C45.4375 45.5995 45.7344 44.4979 45.9375 43.1698C46.1562 41.826 46.2656 40.1776 46.2656 38.2245C46.2656 36.412 46.1641 34.8807 45.9609 33.6307C45.7578 32.3651 45.4688 31.3182 45.0938 30.4901C44.7188 29.662 44.2656 29.0214 43.7344 28.5682C43.2188 28.0995 42.6328 27.7557 41.9766 27.537C41.3203 27.3026 40.6094 27.162 39.8438 27.1151C39.0938 27.0682 38.3047 27.0448 37.4766 27.0448H32.625V50.037H37.4766ZM57.0469 42.6307C57.0469 40.0526 57.3828 37.9354 58.0547 36.2792C58.7266 34.6229 59.6172 33.3182 60.7266 32.3651C61.8359 31.412 63.1016 30.7557 64.5234 30.3964C65.9453 30.0214 67.4062 29.8339 68.9062 29.8339C70.7969 29.8339 72.3594 30.0917 73.5938 30.6073C74.8438 31.1229 75.8359 31.8495 76.5703 32.787C77.3047 33.7089 77.8203 34.8182 78.1172 36.1151C78.4141 37.412 78.5625 38.8417 78.5625 40.4042C78.5625 41.1385 78.5312 41.8964 78.4688 42.6776C78.4219 43.4589 78.3516 44.2635 78.2578 45.0917H62.7656C62.7812 46.201 62.8984 47.1385 63.1172 47.9042C63.3516 48.6542 63.7266 49.2714 64.2422 49.7557C64.7734 50.2245 65.4688 50.5682 66.3281 50.787C67.2031 50.9901 68.2891 51.0917 69.5859 51.0917C70.6797 51.0917 71.7031 51.0682 72.6562 51.0214C73.6094 50.9589 74.4453 50.8885 75.1641 50.8104C76.0078 50.7323 76.7734 50.6307 77.4609 50.5057V54.3964C76.6641 54.6932 75.7969 54.9589 74.8594 55.1932C74.0625 55.3964 73.1328 55.576 72.0703 55.7323C71.0078 55.9042 69.875 55.9901 68.6719 55.9901C66.8281 55.9901 65.1875 55.7557 63.75 55.287C62.3125 54.8339 61.0938 54.0839 60.0938 53.037C59.1094 51.9745 58.3516 50.5917 57.8203 48.8885C57.3047 47.1854 57.0469 45.0995 57.0469 42.6307ZM73.4297 40.9198V40.0292C73.4297 39.0917 73.3672 38.2792 73.2422 37.5917C73.1328 36.8885 72.8984 36.3104 72.5391 35.8573C72.1797 35.4042 71.6719 35.0682 71.0156 34.8495C70.3594 34.6307 69.4844 34.5214 68.3906 34.5214C67.2188 34.5214 66.2578 34.662 65.5078 34.9432C64.7734 35.2089 64.1953 35.6151 63.7734 36.162C63.3672 36.6932 63.0859 37.3573 62.9297 38.1542C62.7891 38.951 62.7188 39.8729 62.7188 40.9198H73.4297ZM80.4375 30.537H86.4844L92.5781 50.0839H92.6719L98.7656 30.537H104.812L96.2812 55.2635H88.9922L80.4375 30.537ZM109.219 21.8182H118.547L130.734 50.037H130.852C130.836 49.4745 130.82 48.9042 130.805 48.326C130.789 47.826 130.781 47.287 130.781 46.7089C130.781 46.1307 130.781 45.576 130.781 45.0448V21.8182H136.336V55.2635H127.219L116.906 31.7323C116.625 31.076 116.359 30.4667 116.109 29.9042C115.859 29.3417 115.648 28.8495 115.477 28.4276C115.258 27.9276 115.062 27.4667 114.891 27.0448H114.797V55.2635H109.219V21.8182ZM142.828 42.6307C142.828 40.0526 143.164 37.9354 143.836 36.2792C144.508 34.6229 145.398 33.3182 146.508 32.3651C147.617 31.412 148.883 30.7557 150.305 30.3964C151.727 30.0214 153.188 29.8339 154.688 29.8339C156.578 29.8339 158.141 30.0917 159.375 30.6073C160.625 31.1229 161.617 31.8495 162.352 32.787C163.086 33.7089 163.602 34.8182 163.898 36.1151C164.195 37.412 164.344 38.8417 164.344 40.4042C164.344 41.1385 164.312 41.8964 164.25 42.6776C164.203 43.4589 164.133 44.2635 164.039 45.0917H148.547C148.562 46.201 148.68 47.1385 148.898 47.9042C149.133 48.6542 149.508 49.2714 150.023 49.7557C150.555 50.2245 151.25 50.5682 152.109 50.787C152.984 50.9901 154.07 51.0917 155.367 51.0917C156.461 51.0917 157.484 51.0682 158.438 51.0214C159.391 50.9589 160.227 50.8885 160.945 50.8104C161.789 50.7323 162.555 50.6307 163.242 50.5057V54.3964C162.445 54.6932 161.578 54.9589 160.641 55.1932C159.844 55.3964 158.914 55.576 157.852 55.7323C156.789 55.9042 155.656 55.9901 154.453 55.9901C152.609 55.9901 150.969 55.7557 149.531 55.287C148.094 54.8339 146.875 54.0839 145.875 53.037C144.891 51.9745 144.133 50.5917 143.602 48.8885C143.086 47.1854 142.828 45.0995 142.828 42.6307ZM159.211 40.9198V40.0292C159.211 39.0917 159.148 38.2792 159.023 37.5917C158.914 36.8885 158.68 36.3104 158.32 35.8573C157.961 35.4042 157.453 35.0682 156.797 34.8495C156.141 34.6307 155.266 34.5214 154.172 34.5214C153 34.5214 152.039 34.662 151.289 34.9432C150.555 35.2089 149.977 35.6151 149.555 36.162C149.148 36.6932 148.867 37.3573 148.711 38.1542C148.57 38.951 148.5 39.8729 148.5 40.9198H159.211ZM166.359 30.537H171.938L176.531 50.3182H176.93L180.82 30.537H188.438L192.328 50.3182H192.656L197.367 30.537H202.219L195.984 55.2635H188.672L184.547 35.8339H184.172L180.469 55.2635H172.805L166.359 30.537ZM205.219 50.5057C205.906 50.662 206.672 50.8026 207.516 50.9276C208.234 51.037 209.078 51.1307 210.047 51.2089C211.031 51.287 212.109 51.326 213.281 51.326C214.562 51.326 215.578 51.2792 216.328 51.1854C217.078 51.0917 217.641 50.9354 218.016 50.7167C218.406 50.4823 218.656 50.1698 218.766 49.7792C218.875 49.3885 218.93 48.8964 218.93 48.3026C218.93 47.9901 218.906 47.7089 218.859 47.4589C218.828 47.1932 218.734 46.9589 218.578 46.7557C218.438 46.537 218.219 46.3573 217.922 46.2167C217.641 46.0604 217.258 45.9432 216.773 45.8651L211.594 44.9042C210.406 44.701 209.406 44.4276 208.594 44.0839C207.781 43.7401 207.125 43.287 206.625 42.7245C206.141 42.1464 205.789 41.4432 205.57 40.6151C205.367 39.7714 205.266 38.7479 205.266 37.5448C205.266 34.951 206.125 33.0214 207.844 31.7557C209.578 30.4745 212.047 29.8339 215.25 29.8339C216.375 29.8339 217.406 29.9042 218.344 30.0448C219.297 30.1698 220.125 30.3182 220.828 30.4901C221.641 30.6776 222.383 30.8885 223.055 31.1229V35.1073C222.305 34.9823 221.523 34.8729 220.711 34.7792C220.008 34.701 219.219 34.6229 218.344 34.5448C217.484 34.4667 216.609 34.4276 215.719 34.4276C214.703 34.4276 213.859 34.4745 213.188 34.5682C212.516 34.6464 211.984 34.787 211.594 34.9901C211.203 35.1932 210.93 35.4589 210.773 35.787C210.617 36.0995 210.539 36.4979 210.539 36.9823C210.539 37.3573 210.57 37.6932 210.633 37.9901C210.695 38.287 210.828 38.5526 211.031 38.787C211.234 39.0214 211.516 39.2245 211.875 39.3964C212.234 39.5682 212.719 39.7089 213.328 39.8182L218.695 40.826C219.742 41.0292 220.625 41.2948 221.344 41.6229C222.078 41.951 222.672 42.3964 223.125 42.9589C223.578 43.5214 223.906 44.2401 224.109 45.1151C224.312 45.9745 224.414 47.037 224.414 48.3026C224.414 49.5057 224.289 50.5839 224.039 51.537C223.805 52.4901 223.32 53.2948 222.586 53.951C221.852 54.6073 220.812 55.1073 219.469 55.451C218.125 55.8104 216.352 55.9901 214.148 55.9901C212.93 55.9901 211.781 55.9042 210.703 55.7323C209.625 55.576 208.68 55.3964 207.867 55.1932C206.914 54.9589 206.031 54.6932 205.219 54.3964V50.5057ZM254.086 18.8417H259.734L244.664 55.2635H239.016L254.086 18.8417ZM262.359 53.6698V47.3417L276.891 41.4354V41.0604L262.359 35.1542V28.8729L281.461 37.4042V45.2792L262.359 53.6698Z" fill="#005481"/>
</svg>
