<svg width="227" height="27" viewBox="0 0 227 27" fill="none" xmlns="http://www.w3.org/2000/svg">
<path d="M20.12 24.4C19.6293 25.1253 19.1387 25.648 18.648 25.968C18.1573 26.288 17.5067 26.448 16.696 26.448C15.8213 26.448 15.096 26.192 14.52 25.68C13.9653 25.168 13.5493 24.272 13.272 22.992L12.568 19.792C12.312 18.6827 12.0667 17.8293 11.832 17.232C11.6187 16.6347 11.288 16.1547 10.84 15.792C10.392 15.4293 9.76267 15.248 8.952 15.248H5.912V22.608C5.912 23.4187 5.976 24.0053 6.104 24.368C6.232 24.7307 6.46667 24.976 6.808 25.104C7.17067 25.232 7.736 25.3173 8.504 25.36V26C7.52267 25.936 6.168 25.904 4.44 25.904C2.60533 25.904 1.24 25.936 0.344 26V25.36C1.112 25.3173 1.66667 25.232 2.008 25.104C2.37067 24.976 2.616 24.7307 2.744 24.368C2.872 24.0053 2.936 23.4187 2.936 22.608V6.736C2.936 5.92533 2.872 5.33867 2.744 4.976C2.616 4.61333 2.37067 4.368 2.008 4.24C1.66667 4.112 1.112 4.02667 0.344 3.984V3.344C1.24 3.408 2.54133 3.44 4.248 3.44L7.704 3.408C8.10933 3.38667 8.568 3.376 9.08 3.376C11.5547 3.376 13.4533 3.89867 14.776 4.944C16.12 5.968 16.792 7.30133 16.792 8.944C16.792 9.776 16.5893 10.6187 16.184 11.472C15.8 12.304 15.1387 13.0613 14.2 13.744C13.2827 14.4053 12.0773 14.8533 10.584 15.088L10.968 15.152C12.376 15.3867 13.4 15.8133 14.04 16.432C14.68 17.0507 15.1493 18.032 15.448 19.376L16.248 22.64C16.4613 23.6213 16.6853 24.304 16.92 24.688C17.1547 25.072 17.4747 25.264 17.88 25.264C18.2427 25.264 18.5413 25.168 18.776 24.976C19.032 24.784 19.32 24.4747 19.64 24.048L20.12 24.4ZM8.28 3.984C7.61867 3.984 7.11733 4.05867 6.776 4.208C6.456 4.35733 6.232 4.624 6.104 5.008C5.976 5.392 5.912 5.968 5.912 6.736V14.608H8.056C10.168 14.608 11.6187 14.1387 12.408 13.2C13.1973 12.2613 13.592 10.96 13.592 9.296C13.592 7.54667 13.176 6.224 12.344 5.328C11.512 4.432 10.1573 3.984 8.28 3.984ZM34.566 22.16C34.182 23.3333 33.4567 24.3467 32.39 25.2C31.3447 26.032 30.0753 26.448 28.582 26.448C27.0673 26.448 25.7553 26.1067 24.646 25.424C23.5367 24.72 22.6833 23.7493 22.086 22.512C21.51 21.2533 21.222 19.8027 21.222 18.16C21.222 16.304 21.5207 14.6933 22.118 13.328C22.7153 11.9627 23.558 10.9173 24.646 10.192C25.734 9.44533 27.0033 9.072 28.454 9.072C30.374 9.072 31.846 9.65867 32.87 10.832C33.9153 11.984 34.438 13.744 34.438 16.112H24.422C24.358 16.7093 24.326 17.392 24.326 18.16C24.326 19.568 24.55 20.7947 24.998 21.84C25.4673 22.8853 26.0753 23.696 26.822 24.272C27.59 24.8267 28.39 25.104 29.222 25.104C30.246 25.104 31.1527 24.8587 31.942 24.368C32.7313 23.8773 33.3927 23.056 33.926 21.904L34.566 22.16ZM28.326 9.68C27.3233 9.68 26.4593 10.1707 25.734 11.152C25.0087 12.1333 24.5607 13.584 24.39 15.504H31.366C31.4087 13.84 31.1633 12.4533 30.63 11.344C30.118 10.2347 29.35 9.68 28.326 9.68ZM41.1535 26.224C39.8095 26.224 38.8068 25.8933 38.1455 25.232C37.5055 24.5493 37.1855 23.6107 37.1855 22.416C37.1855 21.456 37.4415 20.6667 37.9535 20.048C38.4868 19.4293 39.1055 18.9387 39.8095 18.576C40.5348 18.2133 41.4842 17.8293 42.6575 17.424C43.8522 17.0187 44.7375 16.6453 45.3135 16.304C45.8895 15.9627 46.1775 15.504 46.1775 14.928V12.944C46.1775 11.7067 45.9108 10.864 45.3775 10.416C44.8655 9.94667 44.1402 9.712 43.2015 9.712C41.7082 9.712 40.6522 10.096 40.0335 10.864C40.4602 10.9707 40.8122 11.1947 41.0895 11.536C41.3882 11.8773 41.5375 12.304 41.5375 12.816C41.5375 13.3493 41.3668 13.776 41.0255 14.096C40.6842 14.3947 40.2468 14.544 39.7135 14.544C39.1162 14.544 38.6682 14.3627 38.3695 14C38.0708 13.616 37.9215 13.1573 37.9215 12.624C37.9215 12.112 38.0388 11.6853 38.2735 11.344C38.5295 11.0027 38.9028 10.6613 39.3935 10.32C39.9055 9.95733 40.5562 9.65867 41.3455 9.424C42.1348 9.18933 42.9988 9.072 43.9375 9.072C45.6015 9.072 46.8602 9.46667 47.7135 10.256C48.2468 10.7467 48.5988 11.344 48.7695 12.048C48.9615 12.7307 49.0575 13.6373 49.0575 14.768V23.664C49.0575 24.1973 49.1322 24.5813 49.2815 24.816C49.4308 25.0507 49.6868 25.168 50.0495 25.168C50.3055 25.168 50.5402 25.1147 50.7535 25.008C50.9882 24.88 51.2335 24.7093 51.4895 24.496L51.8415 25.04C51.2868 25.4667 50.8068 25.776 50.4015 25.968C50.0175 26.1387 49.5268 26.224 48.9295 26.224C47.9055 26.224 47.1908 25.968 46.7855 25.456C46.3802 24.944 46.1775 24.2507 46.1775 23.376C45.5375 24.4427 44.8015 25.1893 43.9695 25.616C43.1375 26.0213 42.1988 26.224 41.1535 26.224ZM42.5615 24.944C43.9695 24.944 45.1748 24.1333 46.1775 22.512V16.24C45.9855 16.5387 45.7188 16.784 45.3775 16.976C45.0362 17.168 44.5135 17.424 43.8095 17.744C42.9988 18.0853 42.3375 18.416 41.8255 18.736C41.3348 19.0347 40.9082 19.4507 40.5455 19.984C40.1828 20.5173 40.0015 21.2 40.0015 22.032C40.0015 22.992 40.2362 23.7173 40.7055 24.208C41.1748 24.6987 41.7935 24.944 42.5615 24.944ZM57.891 23.024C57.891 23.8987 58.0723 24.5067 58.435 24.848C58.7977 25.168 59.427 25.328 60.323 25.328V26C58.3603 25.9147 57.0697 25.872 56.451 25.872C55.8323 25.872 54.5417 25.9147 52.579 26V25.328C53.475 25.328 54.1043 25.168 54.467 24.848C54.8297 24.5067 55.011 23.8987 55.011 23.024V4.752C55.011 3.77067 54.8297 3.056 54.467 2.608C54.1043 2.16 53.475 1.936 52.579 1.936V1.264C53.2403 1.328 53.9017 1.36 54.563 1.36C55.907 1.36 57.0163 1.21067 57.891 0.911999V23.024ZM86.312 3.344C86.1627 4.85867 86.088 6.224 86.088 7.44C86.088 8.50667 86.12 9.38133 86.184 10.064H85.448C85.2773 8.42133 85.064 7.20533 84.808 6.416C84.552 5.60533 84.104 5.01867 83.464 4.656C82.824 4.272 81.8427 4.08 80.52 4.08H78.504C77.736 4.08 77.1707 4.144 76.808 4.272C76.4667 4.37867 76.232 4.61333 76.104 4.976C75.976 5.33867 75.912 5.92533 75.912 6.736V14.608H78.248C78.9947 14.608 79.5707 14.4373 79.976 14.096C80.3813 13.7333 80.648 13.3173 80.776 12.848C80.9253 12.3573 81.0427 11.7493 81.128 11.024L81.224 10.384H81.96C81.896 11.28 81.864 12.2827 81.864 13.392V14.928C81.864 16.016 81.928 17.5307 82.056 19.472H81.32C81.2987 19.3227 81.2347 18.8107 81.128 17.936C81.0213 17.04 80.7227 16.368 80.232 15.92C79.7627 15.472 79.1013 15.248 78.248 15.248H75.912V22.608C75.912 23.4187 75.9973 24.0053 76.168 24.368C76.3387 24.7307 76.6373 24.976 77.064 25.104C77.4907 25.232 78.184 25.3173 79.144 25.36V26C78.0347 25.936 76.4667 25.904 74.44 25.904C72.6053 25.904 71.24 25.936 70.344 26V25.36C71.112 25.3173 71.6667 25.232 72.008 25.104C72.3707 24.976 72.616 24.7307 72.744 24.368C72.872 24.0053 72.936 23.4187 72.936 22.608V6.736C72.936 5.92533 72.872 5.33867 72.744 4.976C72.616 4.61333 72.3707 4.368 72.008 4.24C71.6667 4.112 71.112 4.02667 70.344 3.984V3.344C72.4347 3.408 75.528 3.44 79.624 3.44C82.76 3.44 84.9893 3.408 86.312 3.344ZM91.9973 26.224C90.6533 26.224 89.6506 25.8933 88.9893 25.232C88.3493 24.5493 88.0293 23.6107 88.0293 22.416C88.0293 21.456 88.2853 20.6667 88.7973 20.048C89.3306 19.4293 89.9493 18.9387 90.6533 18.576C91.3786 18.2133 92.3279 17.8293 93.5013 17.424C94.6959 17.0187 95.5813 16.6453 96.1573 16.304C96.7333 15.9627 97.0213 15.504 97.0213 14.928V12.944C97.0213 11.7067 96.7546 10.864 96.2213 10.416C95.7093 9.94667 94.9839 9.712 94.0453 9.712C92.5519 9.712 91.4959 10.096 90.8773 10.864C91.3039 10.9707 91.6559 11.1947 91.9333 11.536C92.2319 11.8773 92.3813 12.304 92.3813 12.816C92.3813 13.3493 92.2106 13.776 91.8693 14.096C91.5279 14.3947 91.0906 14.544 90.5573 14.544C89.9599 14.544 89.5119 14.3627 89.2133 14C88.9146 13.616 88.7653 13.1573 88.7653 12.624C88.7653 12.112 88.8826 11.6853 89.1173 11.344C89.3733 11.0027 89.7466 10.6613 90.2373 10.32C90.7493 9.95733 91.3999 9.65867 92.1893 9.424C92.9786 9.18933 93.8426 9.072 94.7812 9.072C96.4453 9.072 97.7039 9.46667 98.5573 10.256C99.0906 10.7467 99.4426 11.344 99.6133 12.048C99.8053 12.7307 99.9013 13.6373 99.9013 14.768V23.664C99.9013 24.1973 99.9759 24.5813 100.125 24.816C100.275 25.0507 100.531 25.168 100.893 25.168C101.149 25.168 101.384 25.1147 101.597 25.008C101.832 24.88 102.077 24.7093 102.333 24.496L102.685 25.04C102.131 25.4667 101.651 25.776 101.245 25.968C100.861 26.1387 100.371 26.224 99.7733 26.224C98.7493 26.224 98.0346 25.968 97.6293 25.456C97.2239 24.944 97.0213 24.2507 97.0213 23.376C96.3813 24.4427 95.6453 25.1893 94.8133 25.616C93.9813 26.0213 93.0426 26.224 91.9973 26.224ZM93.4053 24.944C94.8133 24.944 96.0186 24.1333 97.0213 22.512V16.24C96.8293 16.5387 96.5626 16.784 96.2213 16.976C95.8799 17.168 95.3573 17.424 94.6533 17.744C93.8426 18.0853 93.1813 18.416 92.6693 18.736C92.1786 19.0347 91.7519 19.4507 91.3893 19.984C91.0266 20.5173 90.8453 21.2 90.8453 22.032C90.8453 22.992 91.0799 23.7173 91.5493 24.208C92.0186 24.6987 92.6373 24.944 93.4053 24.944ZM117.855 23.664C118.26 24.1973 118.623 24.592 118.943 24.848C119.263 25.104 119.647 25.264 120.095 25.328V26C118.815 25.9147 117.951 25.872 117.503 25.872C116.927 25.872 115.743 25.9147 113.951 26V25.328C114.249 25.328 114.484 25.2747 114.655 25.168C114.847 25.04 114.943 24.8907 114.943 24.72C114.943 24.5493 114.879 24.3893 114.751 24.24L111.071 18.864C110.708 18.3307 110.356 17.9787 110.015 17.808C109.695 17.616 109.247 17.4987 108.671 17.456V23.024C108.671 23.8987 108.82 24.5067 109.119 24.848C109.439 25.168 109.993 25.328 110.783 25.328V26C108.991 25.9147 107.807 25.872 107.231 25.872C106.612 25.872 105.321 25.9147 103.359 26V25.328C104.255 25.328 104.884 25.168 105.247 24.848C105.609 24.5067 105.791 23.8987 105.791 23.024V4.752C105.791 3.77067 105.609 3.056 105.247 2.608C104.884 2.16 104.255 1.936 103.359 1.936V1.264C104.041 1.328 104.703 1.36 105.343 1.36C106.687 1.36 107.796 1.21067 108.671 0.911999V16.784C109.289 16.6987 109.801 16.56 110.207 16.368C110.633 16.1547 111.039 15.856 111.423 15.472L113.791 13.008C114.473 12.304 114.815 11.7173 114.815 11.248C114.815 10.8853 114.591 10.6187 114.143 10.448C113.716 10.256 113.151 10.16 112.447 10.16V9.52C113.94 9.60533 115.145 9.648 116.063 9.648C117.065 9.648 117.993 9.60533 118.847 9.52V10.16C117.801 10.2453 116.841 10.7467 115.967 11.664L112.063 15.76L117.855 23.664ZM134.222 22.16C133.838 23.3333 133.113 24.3467 132.046 25.2C131.001 26.032 129.732 26.448 128.238 26.448C126.724 26.448 125.412 26.1067 124.302 25.424C123.193 24.72 122.34 23.7493 121.742 22.512C121.166 21.2533 120.878 19.8027 120.878 18.16C120.878 16.304 121.177 14.6933 121.774 13.328C122.372 11.9627 123.214 10.9173 124.302 10.192C125.39 9.44533 126.66 9.072 128.11 9.072C130.03 9.072 131.502 9.65867 132.526 10.832C133.572 11.984 134.094 13.744 134.094 16.112H124.078C124.014 16.7093 123.982 17.392 123.982 18.16C123.982 19.568 124.206 20.7947 124.654 21.84C125.124 22.8853 125.732 23.696 126.478 24.272C127.246 24.8267 128.046 25.104 128.878 25.104C129.902 25.104 130.809 24.8587 131.598 24.368C132.388 23.8773 133.049 23.056 133.582 21.904L134.222 22.16ZM127.982 9.68C126.98 9.68 126.116 10.1707 125.39 11.152C124.665 12.1333 124.217 13.584 124.046 15.504H131.022C131.065 13.84 130.82 12.4533 130.286 11.344C129.774 10.2347 129.006 9.68 127.982 9.68ZM165.003 3.984C164.256 4.02667 163.701 4.144 163.339 4.336C162.976 4.50667 162.731 4.80533 162.603 5.232C162.475 5.63733 162.411 6.24533 162.411 7.056V26.16H161.675L148.235 5.392V22.288C148.235 23.12 148.299 23.7387 148.427 24.144C148.576 24.5493 148.853 24.848 149.259 25.04C149.664 25.2107 150.293 25.3173 151.147 25.36V26C150.379 25.936 149.291 25.904 147.883 25.904C146.603 25.904 145.611 25.936 144.907 26V25.36C145.653 25.3173 146.208 25.2107 146.571 25.04C146.933 24.848 147.179 24.5493 147.307 24.144C147.435 23.7173 147.499 23.0987 147.499 22.288V6.736C147.499 5.92533 147.435 5.33867 147.307 4.976C147.179 4.61333 146.933 4.368 146.571 4.24C146.229 4.112 145.675 4.02667 144.907 3.984V3.344C145.611 3.408 146.603 3.44 147.883 3.44C148.843 3.44 149.675 3.408 150.379 3.344L161.675 20.752V7.056C161.675 6.224 161.6 5.60533 161.451 5.2C161.323 4.79467 161.056 4.50667 160.651 4.336C160.245 4.144 159.616 4.02667 158.763 3.984V3.344C159.531 3.408 160.619 3.44 162.027 3.44C163.307 3.44 164.299 3.408 165.003 3.344V3.984ZM180.41 22.16C180.026 23.3333 179.3 24.3467 178.234 25.2C177.188 26.032 175.919 26.448 174.426 26.448C172.911 26.448 171.599 26.1067 170.49 25.424C169.38 24.72 168.527 23.7493 167.93 22.512C167.354 21.2533 167.066 19.8027 167.066 18.16C167.066 16.304 167.364 14.6933 167.962 13.328C168.559 11.9627 169.402 10.9173 170.49 10.192C171.578 9.44533 172.847 9.072 174.298 9.072C176.218 9.072 177.69 9.65867 178.714 10.832C179.759 11.984 180.282 13.744 180.282 16.112H170.266C170.202 16.7093 170.17 17.392 170.17 18.16C170.17 19.568 170.394 20.7947 170.842 21.84C171.311 22.8853 171.919 23.696 172.666 24.272C173.434 24.8267 174.234 25.104 175.066 25.104C176.09 25.104 176.996 24.8587 177.786 24.368C178.575 23.8773 179.236 23.056 179.77 21.904L180.41 22.16ZM174.17 9.68C173.167 9.68 172.303 10.1707 171.578 11.152C170.852 12.1333 170.404 13.584 170.234 15.504H177.21C177.252 13.84 177.007 12.4533 176.474 11.344C175.962 10.2347 175.194 9.68 174.17 9.68ZM203.768 9.616C204.707 9.616 205.518 9.584 206.2 9.52V10.16C205.752 10.224 205.358 10.4267 205.016 10.768C204.675 11.088 204.376 11.632 204.12 12.4L199.48 26.16H198.936L193.88 13.296L189.304 26.16H188.76L183.512 11.984C183.214 11.2373 182.904 10.7573 182.584 10.544C182.286 10.3093 181.976 10.192 181.656 10.192V9.52C182.488 9.648 183.427 9.712 184.472 9.712C185.539 9.712 186.926 9.648 188.632 9.52V10.192C187.843 10.192 187.267 10.256 186.904 10.384C186.563 10.512 186.392 10.8427 186.392 11.376C186.392 11.76 186.499 12.2613 186.712 12.88L189.912 22.096L194.52 9.392H195.256L200.152 22.32L203.16 13.168C203.352 12.592 203.448 12.112 203.448 11.728C203.448 11.216 203.267 10.8427 202.904 10.608C202.542 10.3733 201.934 10.224 201.08 10.16V9.52C202.211 9.584 203.107 9.616 203.768 9.616ZM212.719 9.072C213.487 9.072 214.169 9.18933 214.767 9.424C215.364 9.65867 215.844 9.936 216.207 10.256C216.441 10.4267 216.633 10.512 216.783 10.512C217.167 10.512 217.401 10.0427 217.487 9.104H218.223C218.137 10.1493 218.095 11.9627 218.095 14.544H217.359C217.124 13.136 216.665 11.9733 215.983 11.056C215.321 10.1387 214.329 9.68 213.007 9.68C212.239 9.68 211.609 9.904 211.119 10.352C210.628 10.7787 210.383 11.376 210.383 12.144C210.383 12.8907 210.639 13.52 211.151 14.032C211.663 14.5227 212.484 15.12 213.615 15.824C213.807 15.9307 214.095 16.112 214.479 16.368C215.46 17.008 216.249 17.5733 216.847 18.064C217.444 18.5547 217.924 19.12 218.287 19.76C218.671 20.4 218.863 21.136 218.863 21.968C218.863 23.376 218.329 24.4747 217.263 25.264C216.217 26.0533 214.927 26.448 213.391 26.448C212.431 26.448 211.588 26.2987 210.863 26C210.393 25.7653 209.956 25.4773 209.551 25.136C209.465 25.0507 209.369 25.008 209.263 25.008C209.113 25.008 208.975 25.1147 208.847 25.328C208.74 25.5413 208.655 25.84 208.591 26.224H207.855C207.94 25.008 207.983 22.8747 207.983 19.824H208.719C208.953 21.8293 209.38 23.3333 209.999 24.336C210.617 25.3173 211.673 25.808 213.167 25.808C213.913 25.808 214.575 25.5627 215.151 25.072C215.727 24.5813 216.015 23.8133 216.015 22.768C216.015 21.936 215.727 21.232 215.151 20.656C214.596 20.08 213.679 19.3867 212.399 18.576C211.353 17.9147 210.543 17.3707 209.967 16.944C209.412 16.5173 208.943 15.9947 208.559 15.376C208.175 14.7573 207.983 14.032 207.983 13.2C207.983 11.856 208.431 10.832 209.327 10.128C210.223 9.424 211.353 9.072 212.719 9.072Z" fill="black"/>
<path d="M224.407 22.352C224.962 22.352 225.442 22.5547 225.847 22.96C226.252 23.3653 226.455 23.8453 226.455 24.4C226.455 24.9547 226.252 25.4347 225.847 25.84C225.442 26.2453 224.962 26.448 224.407 26.448C223.852 26.448 223.372 26.2453 222.967 25.84C222.562 25.4347 222.359 24.9547 222.359 24.4C222.359 23.8453 222.562 23.3653 222.967 22.96C223.372 22.5547 223.852 22.352 224.407 22.352Z" fill="#EB5757"/>
</svg>
