<svg width="62" height="62" viewBox="0 0 62 62" fill="none" xmlns="http://www.w3.org/2000/svg">
<rect width="62" height="62" fill="#EB5757"/>
<path d="M22.088 39.944C21.656 40.44 21.192 40.792 20.696 41C20.2 41.224 19.6 41.336 18.896 41.336C17.968 41.336 17.232 41.144 16.688 40.76C16.16 40.36 15.816 39.688 15.656 38.744L15.224 36.344C15.016 35.176 14.76 34.32 14.456 33.776C14.168 33.216 13.68 32.936 12.992 32.936H11.432V38.456C11.432 39.064 11.472 39.504 11.552 39.776C11.648 40.048 11.816 40.232 12.056 40.328C12.296 40.424 12.688 40.488 13.232 40.52V41C12.368 40.952 11.16 40.928 9.608 40.928C7.896 40.928 6.632 40.952 5.816 41V40.52C6.344 40.488 6.728 40.424 6.968 40.328C7.224 40.232 7.392 40.048 7.472 39.776C7.568 39.504 7.616 39.064 7.616 38.456V26.552C7.616 25.944 7.568 25.504 7.472 25.232C7.392 24.96 7.224 24.776 6.968 24.68C6.728 24.584 6.344 24.52 5.816 24.488V24.008C6.632 24.056 7.848 24.08 9.464 24.08L12.128 24.056C12.448 24.04 12.816 24.032 13.232 24.032C15.44 24.032 17.096 24.392 18.2 25.112C19.32 25.832 19.88 26.864 19.88 28.208C19.88 29.344 19.464 30.344 18.632 31.208C17.8 32.072 16.424 32.616 14.504 32.84C15.944 32.968 17.016 33.28 17.72 33.776C18.424 34.272 18.88 35.016 19.088 36.008L19.64 38.48C19.768 39.12 19.912 39.568 20.072 39.824C20.248 40.08 20.488 40.208 20.792 40.208C20.984 40.192 21.144 40.144 21.272 40.064C21.416 39.984 21.576 39.848 21.752 39.656L22.088 39.944ZM12.92 24.488C12.488 24.488 12.168 24.544 11.96 24.656C11.768 24.768 11.632 24.968 11.552 25.256C11.472 25.544 11.432 25.976 11.432 26.552V32.456H12.464C13.776 32.456 14.672 32.112 15.152 31.424C15.648 30.72 15.896 29.736 15.896 28.472C15.896 27.16 15.664 26.168 15.2 25.496C14.736 24.824 13.976 24.488 12.92 24.488ZM35.7532 24.008C35.6412 25.368 35.5852 26.584 35.5852 27.656C35.5852 28.408 35.6092 29.016 35.6572 29.48H35.1052C34.7852 27.672 34.3052 26.4 33.6652 25.664C33.0252 24.928 32.1292 24.56 30.9772 24.56H30.1852C29.6892 24.56 29.3292 24.6 29.1052 24.68C28.8812 24.76 28.7292 24.92 28.6492 25.16C28.5692 25.384 28.5292 25.752 28.5292 26.264V32.312H29.3692C30.2172 32.312 30.8572 32 31.2892 31.376C31.7372 30.752 32.0492 30.008 32.2252 29.144H32.7772C32.7292 29.816 32.7052 30.568 32.7052 31.4V32.552C32.7052 33.368 32.7532 34.504 32.8492 35.96H32.2972C31.9612 33.848 30.9852 32.792 29.3692 32.792H28.5292V38.312C28.5292 38.952 28.5932 39.424 28.7212 39.728C28.8652 40.016 29.1052 40.208 29.4412 40.304C29.7932 40.4 30.3452 40.456 31.0972 40.472V41C29.1292 40.952 27.6652 40.928 26.7052 40.928C25.9052 40.928 24.8972 40.944 23.6812 40.976L22.9132 41V40.52C23.4412 40.488 23.8252 40.424 24.0652 40.328C24.3212 40.232 24.4892 40.048 24.5692 39.776C24.6652 39.504 24.7132 39.064 24.7132 38.456V26.552C24.7132 25.944 24.6652 25.504 24.5692 25.232C24.4892 24.96 24.3212 24.776 24.0652 24.68C23.8252 24.584 23.4412 24.52 22.9132 24.488V24.008C24.6412 24.056 27.2492 24.08 30.7372 24.08C33.0892 24.08 34.7612 24.056 35.7532 24.008ZM52.6923 24.488C52.1643 24.568 51.7723 24.704 51.5163 24.896C51.2763 25.088 51.1083 25.392 51.0123 25.808C50.9323 26.224 50.8923 26.84 50.8923 27.656V41.048L50.3163 41.024L49.6683 41.048L39.2523 27.848V37.064C39.2523 38.008 39.3003 38.704 39.3963 39.152C39.4923 39.584 39.7003 39.904 40.0203 40.112C40.3403 40.304 40.8603 40.44 41.5803 40.52V41C40.9563 40.952 40.0923 40.928 38.9883 40.928C38.1083 40.928 37.4123 40.952 36.9003 41V40.52C37.4283 40.44 37.8123 40.304 38.0523 40.112C38.3083 39.92 38.4763 39.616 38.5563 39.2C38.6523 38.784 38.7003 38.168 38.7003 37.352V26.552C38.7003 25.944 38.6523 25.504 38.5563 25.232C38.4763 24.96 38.3083 24.776 38.0523 24.68C37.8123 24.584 37.4283 24.52 36.9003 24.488V24.008C37.4123 24.056 38.1083 24.08 38.9883 24.08C39.7883 24.08 40.4763 24.056 41.0523 24.008L50.3403 35.456V27.944C50.3403 27 50.2923 26.312 50.1963 25.88C50.1003 25.432 49.8923 25.112 49.5723 24.92C49.2523 24.712 48.7323 24.568 48.0123 24.488V24.008C48.6363 24.056 49.5003 24.08 50.6043 24.08C51.5003 24.08 52.1963 24.056 52.6923 24.008V24.488Z" fill="#FAFAFA"/>
<path d="M54.6226 37.922C55.0906 37.922 55.4956 38.093 55.8376 38.435C56.1796 38.777 56.3506 39.182 56.3506 39.65C56.3506 40.118 56.1796 40.523 55.8376 40.865C55.4956 41.207 55.0906 41.378 54.6226 41.378C54.1546 41.378 53.7496 41.207 53.4076 40.865C53.0656 40.523 52.8946 40.118 52.8946 39.65C52.8946 39.182 53.0656 38.777 53.4076 38.435C53.7496 38.093 54.1546 37.922 54.6226 37.922Z" fill="black"/>
</svg>
