<svg xmlns="http://www.w3.org/2000/svg" viewBox="0 0 400 300" data-imageid="salad-outline" imageName="Salad" class="illustrations_image" style="width: 144px;"><g id="_422_salad_outline" data-name="#422_salad_outline"><circle cx="140.66" cy="102.31" r="9.57" fill="#f56132"/><path d="M140.66,112.88a10.57,10.57,0,1,1,10.56-10.57A10.58,10.58,0,0,1,140.66,112.88Zm0-19.13a8.57,8.57,0,1,0,8.56,8.56A8.57,8.57,0,0,0,140.66,93.75Z" fill="#093f68"/><path d="M234.2,86.21c.31.22.61.46.89.7a3.21,3.21,0,0,0,1.69,1,3.1,3.1,0,0,0,1.66-.55,16.42,16.42,0,0,1,16,.41c3.19,1.94,5.8,5.71,4.69,9.27,4,.13,7.29,3.66,8.38,7.53s.45,8-.38,11.94c-1.26,6-2.56,9.64,1.88,14.16,3.55,3.61,7.48,6.86,7,12.4-.39,4-2.49,7.73-5,10.92-5.54,7.06-13.19,12.29-21.43,15.85a70.77,70.77,0,0,1-23.92,5.65c-16,.91-32.67-4.05-44.42-15a48.35,48.35,0,0,1-15.09-30.08A32.77,32.77,0,0,1,167.7,116c1.74-5,1.72-9.69,2.58-14.88.8-4.81,3.9-10.77,9.22-11.58,3.1-.48,4.37,1,6.68,2.51,3.3,2.17,9.13,3.22,12.89,1.93,5.43-1.86,8.6-5,14.92-3.32,1.66.43,3.38,1.12,5,.7s2.95-2,4.31-3.24C226.27,85.46,230.78,83.78,234.2,86.21Z" fill="#70cc40"/><path d="M221.78,176.57c-15.8,0-30.66-5.5-41.26-15.38a49.38,49.38,0,0,1-15.4-30.71,33.62,33.62,0,0,1,1.63-14.85,43.37,43.37,0,0,0,1.89-9.77c.19-1.59.37-3.24.66-4.94.92-5.56,4.39-11.55,10-12.41,3-.45,4.57.69,6.27,1.9.35.25.72.51,1.11.77,3.22,2.11,8.73,2.94,12,1.81a40.31,40.31,0,0,0,3.89-1.61c3.42-1.55,6.64-3,11.6-1.73l.94.26a7.16,7.16,0,0,0,3.6.44,7.08,7.08,0,0,0,2.91-2.08c.33-.32.65-.64,1-.93,3.28-2.93,8.29-4.67,12.11-1.94h0q.5.36,1,.75l.11.1a1.27,1.27,0,0,0,2,.25l.1,0a17.34,17.34,0,0,1,17,.44c3.07,1.87,5.87,5.45,5.38,9.24,4.21.74,7.14,4.59,8.13,8.14,1.19,4.21.44,8.61-.36,12.41q-.17.79-.33,1.53c-1.12,5.15-1.73,8,2,11.73.35.37.71.72,1.07,1.08,3.28,3.28,6.68,6.66,6.16,12.12-.35,3.68-2,7.42-5.2,11.44-5.23,6.66-12.78,12.25-21.83,16.15a71.48,71.48,0,0,1-24.25,5.73C224.38,176.53,223.07,176.57,221.78,176.57ZM180.61,90.41a5.48,5.48,0,0,0-1,.08c-4.65.7-7.6,6.07-8.38,10.76-.27,1.65-.46,3.27-.64,4.84a45.62,45.62,0,0,1-2,10.2,31.68,31.68,0,0,0-1.53,14,47.37,47.37,0,0,0,14.77,29.45c11.07,10.31,27,15.69,43.69,14.73a69.25,69.25,0,0,0,23.57-5.57c8.74-3.77,16-9.15,21.05-15.55,2.9-3.71,4.47-7.1,4.78-10.39.43-4.52-2.49-7.43-5.58-10.51-.37-.36-.73-.73-1.09-1.09-4.44-4.52-3.61-8.32-2.47-13.56.1-.49.21-1,.32-1.52.75-3.56,1.46-7.69.4-11.46-.93-3.29-3.78-6.68-7.46-6.8a1,1,0,0,1-.92-1.3c1-3-1.41-6.39-4.25-8.11a15.3,15.3,0,0,0-15-.39l-.09.05a3.85,3.85,0,0,1-2.13.62,3.72,3.72,0,0,1-2.15-1.12l-.1-.09c-.27-.22-.54-.44-.83-.64h0c-2.92-2.09-6.93-.6-9.61,1.8-.31.27-.61.57-.91.87a8.66,8.66,0,0,1-3.83,2.59,8.93,8.93,0,0,1-4.64-.45l-.89-.25c-4.28-1.11-6.92.09-10.27,1.61a43.88,43.88,0,0,1-4.07,1.69c-3.86,1.32-10,.41-13.77-2L184.47,92C183.12,91.09,182.16,90.41,180.61,90.41Z" fill="#093f68"/><path d="M231.39,116.89a25.95,25.95,0,1,1-42.62-29.61Z" fill="#f56132"/><path d="M210,129a27,27,0,0,1-22.08-42.33,1,1,0,0,1,1.4-.25L232,116.07a1,1,0,0,1,.25,1.39,26.81,26.81,0,0,1-17.35,11.15A27.38,27.38,0,0,1,210,129ZM189,88.69A24.95,24.95,0,0,0,230,117.13Z" fill="#093f68"/><path d="M204.9,123.14c2.56-.49,5.3-.61,7.45-2.08,2.76-1.88,3.76-5.39,4.77-8.56,1.13-3.54,2.59-7.12,5.26-9.71s6.81-4,10.21-2.46c1.13.5,2.12,1.28,3.27,1.72,5.06,1.93,9.76-2.67,14.45-3.73,2.66-.6,5.17-.36,7.09,1.8s1.84,5.11,5.09,5.71c2.16.41,4.36-.31,6.55-.5a14.31,14.31,0,0,1,14.9,12.13c.21,1.74.1,3.58.89,5.14,1.72,3.37,6.77,3.88,8.51,7.23a7.06,7.06,0,0,1,.46,4.56c-1,5.23-5,9.3-9.18,12.62-4.35,3.48-9.7,5.79-13.94,9.27-3.51,2.87-6.15,6.38-10.08,9-9.07,6-20.1,9.54-31,7.73a40.82,40.82,0,0,1-14.5-5.52,35.26,35.26,0,0,1-13-13.1C198,146.78,192.15,125.56,204.9,123.14Z" fill="#70cc40"/><path d="M235.41,174.47a36.25,36.25,0,0,1-6-.49,41.35,41.35,0,0,1-14.86-5.65,36.22,36.22,0,0,1-13.32-13.48c-2.76-5.15-7.51-19.17-3.63-27.29a9.4,9.4,0,0,1,7.11-5.4c.56-.11,1.12-.2,1.68-.29a12.91,12.91,0,0,0,5.4-1.64c2.33-1.58,3.29-4.62,4.22-7.55l.16-.49c1.09-3.41,2.6-7.29,5.51-10.11,2.7-2.63,7.25-4.47,11.32-2.66a16.82,16.82,0,0,1,1.58.84,11.08,11.08,0,0,0,1.63.85c2.91,1.11,5.77-.28,8.79-1.74a23.71,23.71,0,0,1,5.09-2c3.46-.78,6.09-.09,8.06,2.12a11,11,0,0,1,1.58,2.52c.82,1.64,1.37,2.58,2.94,2.87a12.06,12.06,0,0,0,4.11-.22c.7-.11,1.43-.23,2.17-.3a15.27,15.27,0,0,1,16,13c.05.47.08.94.12,1.41a8.7,8.7,0,0,0,.66,3.4c.73,1.42,2.25,2.29,3.87,3.22,1.79,1,3.63,2.07,4.64,4a7.94,7.94,0,0,1,.55,5.21c-1.07,5.79-5.66,10.1-9.54,13.21a62.38,62.38,0,0,1-7,4.64,58.37,58.37,0,0,0-6.93,4.62c-1.4,1.14-2.69,2.43-3.94,3.67a41.48,41.48,0,0,1-6.21,5.38C252.92,171.59,244,174.47,235.41,174.47ZM204.9,123.14l.18,1a7.43,7.43,0,0,0-5.68,4.31c-3.35,7,.69,20,3.59,25.48a34.36,34.36,0,0,0,12.6,12.72A39.52,39.52,0,0,0,229.73,172c9.79,1.62,20.55-1.07,30.32-7.57A39.77,39.77,0,0,0,266,159.3c1.29-1.28,2.61-2.59,4.08-3.8a60,60,0,0,1,7.17-4.78,62.17,62.17,0,0,0,6.78-4.49c3.61-2.89,7.88-6.87,8.83-12a6.07,6.07,0,0,0-.36-3.92c-.74-1.41-2.25-2.27-3.86-3.19-1.8-1-3.66-2.09-4.66-4a10.5,10.5,0,0,1-.88-4.16c0-.44-.06-.88-.11-1.31-.76-6.46-7.33-11.83-13.82-11.26-.67.06-1.33.17-2,.29a13.75,13.75,0,0,1-4.8.21c-2.62-.49-3.55-2.33-4.36-3.94a9.42,9.42,0,0,0-1.28-2.09c-1.46-1.64-3.41-2.12-6.13-1.5a22.91,22.91,0,0,0-4.66,1.87c-3.12,1.52-6.65,3.24-10.37,1.82a13.57,13.57,0,0,1-1.94-1,12.32,12.32,0,0,0-1.37-.74c-3.2-1.42-7,.18-9.11,2.26-2.6,2.52-4,6.11-5,9.29l-.15.49c-1,3.1-2.1,6.62-5,8.6a14.77,14.77,0,0,1-6.22,2c-.54.09-1.08.17-1.62.27Z" fill="#093f68"/><path d="M129.9,103.08c4.37.22,9.52,1.74,12.57-1.4,1.29-1.34,1.81-3.22,2.63-4.89,3.81-7.75,15.59-10,22-4.17,3.42,3.12,5.78,8.19,10.38,8.76,3.44.43,6.56-2,10-2.64,6.75-1.28,13.45,6.28,11.36,12.82-.9,2.83-3.09,5.57-2.29,8.43,1.21,4.31,7.32,4.16,11.19,6.42,6.23,3.63,5.48,13,2.29,19.48-7.17,14.49-22.31,24.17-38.27,26.75-18.2,2.94-50.47-1.23-54.94-22.3C113.7,135.85,102.78,101.73,129.9,103.08Z" fill="#70cc40"/><path d="M160.29,174.51c-18.81,0-40.81-6.55-44.5-24-.3-1.42-.68-3-1.08-4.77-2.77-11.8-6.94-29.63.43-38.48,3.16-3.78,8.14-5.54,14.81-5.21,1,0,2,.16,3,.27,3.49.38,6.79.75,8.84-1.37a10.13,10.13,0,0,0,1.79-3.15c.21-.5.42-1,.66-1.48a15.66,15.66,0,0,1,23.55-4.47,34,34,0,0,1,3.08,3.38c2,2.46,4,4.79,6.75,5.13,1.85.23,3.67-.51,5.6-1.29a22.21,22.21,0,0,1,4.06-1.34,10.71,10.71,0,0,1,9.93,3.79,10.85,10.85,0,0,1,2.57,10.32,23,23,0,0,1-1.1,2.67c-.84,1.82-1.63,3.54-1.17,5.18.64,2.31,3.15,3.09,6.05,4a22.56,22.56,0,0,1,4.67,1.83c6.53,3.81,6.26,13.56,2.68,20.79-7,14.08-21.9,24.53-39,27.29A72.79,72.79,0,0,1,160.29,174.51ZM128.39,104c-5.26,0-9.2,1.53-11.71,4.54-6.74,8.07-2.7,25.32,0,36.73.41,1.76.79,3.39,1.1,4.82,2.4,11.34,13.09,16.81,21.63,19.41a76.51,76.51,0,0,0,32.17,2.11C188,169,202.41,159,209.08,145.44c3.17-6.42,3.59-15-1.9-18.17a21,21,0,0,0-4.25-1.65c-3.17-1-6.45-2-7.39-5.36-.66-2.34.33-4.49,1.29-6.56a22.18,22.18,0,0,0,1-2.44,9.51,9.51,0,0,0-10.23-11.53,19.82,19.82,0,0,0-3.68,1.22c-2.08.85-4.23,1.72-6.6,1.43-3.56-.45-5.84-3.19-8-5.85a32.61,32.61,0,0,0-2.88-3.17A13.68,13.68,0,0,0,146,97.23c-.22.45-.42.92-.62,1.39a11.68,11.68,0,0,1-2.2,3.76c-2.73,2.81-6.85,2.36-10.49,2-1-.11-1.93-.21-2.84-.26h0C129.35,104.06,128.87,104,128.39,104Z" fill="#093f68"/><circle cx="140.66" cy="140.12" r="22.98" fill="#f56132"/><path d="M140.66,164.1a24,24,0,1,1,24-24A24,24,0,0,1,140.66,164.1Zm0-46a22,22,0,1,0,22,22A22,22,0,0,0,140.66,118.14Z" fill="#093f68"/><circle cx="140.66" cy="140.12" r="12.85" fill="#f56132"/><path d="M140.66,154a14,14,0,0,1-2.92-.32A13.85,13.85,0,1,1,154.2,143h0A13.88,13.88,0,0,1,140.66,154Zm0-25.72a11.87,11.87,0,1,0,2.53.27A12.09,12.09,0,0,0,140.63,128.26Zm12.59,14.57h0Z" fill="#093f68"/><path d="M269.4,151.5c-7.33,13.43-22.29,19.39-33.43,13.31s-14.24-21.88-6.92-35.31,25.76-25.74,36.9-19.66S276.72,138.08,269.4,151.5Z" fill="#fff"/><path d="M245.42,168.18a20.58,20.58,0,0,1-9.93-2.49c-11.61-6.33-14.89-22.78-7.32-36.67a47.7,47.7,0,0,1,17.4-17.53c8-4.62,15.39-5.51,20.86-2.53s8.72,9.69,9.17,18.9A47.76,47.76,0,0,1,270.27,152C264.72,162.16,254.86,168.18,245.42,168.18Zm13.9-58.92c-3.82,0-8.22,1.34-12.75,4A45.54,45.54,0,0,0,229.93,130c-7.05,12.92-4.12,28.15,6.51,34s25,0,32.08-12.91A45.61,45.61,0,0,0,273.6,128c-.41-8.36-3.37-14.65-8.13-17.25A12.76,12.76,0,0,0,259.32,109.26Z" fill="#093f68"/><circle cx="247.93" cy="142.88" r="15.62" fill="#ffbc0e"/><path d="M247.9,159.51a16.62,16.62,0,1,1,14.61-8.67h0a16.72,16.72,0,0,1-14.61,8.67Zm0-31.24a14.61,14.61,0,0,0-7,27.44,14.62,14.62,0,0,0,19.83-5.83,14.63,14.63,0,0,0-5.84-19.83A14.49,14.49,0,0,0,248,128.27Zm13.68,22.09h0Z" fill="#093f68"/><path d="M106,137.72a95.59,95.59,0,0,0,93.48,75.7h0A95.59,95.59,0,0,0,293,137.72Z" fill="#c4fd68" class="target-color"/><path d="M199.51,214.42a96.59,96.59,0,0,1-94.46-76.5,1,1,0,0,1,1-1.2H293a1,1,0,0,1,1,1.2,96.59,96.59,0,0,1-94.47,76.5Zm-92.24-75.7a94.58,94.58,0,0,0,184.49,0Z" fill="#093f68"/><path d="M106,137.72a95.59,95.59,0,0,0,93.48,75.7h0A95.59,95.59,0,0,0,293,137.72Z" fill="#c4fd68" class="target-color"/><path d="M199.51,214.42a96.59,96.59,0,0,1-94.46-76.5,1,1,0,0,1,1-1.2H293a1,1,0,0,1,1,1.2,96.59,96.59,0,0,1-94.47,76.5Zm-92.24-75.7a94.58,94.58,0,0,0,184.49,0Z" fill="#093f68"/><rect x="150.77" y="200.52" width="97.48" height="14.45" fill="#c4fd68" class="target-color"/><path d="M248.25,216H150.77a1,1,0,0,1-1-1V200.52a1,1,0,0,1,1-1h97.48a1,1,0,0,1,1,1V215A1,1,0,0,1,248.25,216Zm-96.48-2h95.48V201.52H151.77Z" fill="#093f68"/></g></svg>