<?xml version="1.0" encoding="UTF-8"?><svg id="Layer_1" xmlns="http://www.w3.org/2000/svg" viewBox="0 0 92.2 92.2"><path d="m74.91,0c4.76,0,8.83,1.69,12.22,5.07s5.07,7.45,5.07,12.22v57.63c0,4.76-1.69,8.83-5.07,12.22-3.38,3.38-7.45,5.07-12.22,5.07h-11.29v-35.72h11.95l1.8-13.93h-13.75v-8.88c0-2.24.47-3.92,1.41-5.04s2.77-1.68,5.49-1.68l7.32-.06v-12.43c-2.52-.36-6.08-.54-10.68-.54-5.44,0-9.79,1.6-13.06,4.8-3.26,3.2-4.89,7.72-4.89,13.57v10.26h-12.01v13.93h12.01v35.72h-31.93c-4.76,0-8.83-1.69-12.22-5.07-3.38-3.38-5.07-7.45-5.07-12.22V17.29c0-4.76,1.69-8.83,5.07-12.22C8.45,1.69,12.53,0,17.29,0h57.63Zm0,0"/></svg>