<?xml version="1.0" encoding="UTF-8"?><svg id="Layer_1" xmlns="http://www.w3.org/2000/svg" viewBox="0 0 442.4 60.96"><defs><style>.cls-1{fill:none;stroke:#000;stroke-miterlimit:10;stroke-width:7px;}</style></defs><g><path d="m74.11,60.57c-3.2,0-6.38-.51-9.55-1.52-3.17-1.01-6.06-2.6-8.68-4.76-2.61-2.16-4.71-4.92-6.28-8.29-1.57-3.37-2.36-7.39-2.36-12.06,0-3.35.62-6.81,1.86-10.39,1.24-3.58,3.12-6.87,5.63-9.89,2.51-3.02,5.68-5.47,9.51-7.34,3.83-1.88,8.31-2.82,13.43-2.82,3.2,0,6.38.51,9.55,1.52,3.17,1.02,6.06,2.6,8.68,4.76,2.61,2.16,4.71,4.92,6.28,8.29,1.57,3.37,2.36,7.4,2.36,12.06,0,3.35-.62,6.81-1.86,10.39-1.24,3.58-3.12,6.88-5.63,9.89-2.51,3.02-5.68,5.47-9.51,7.34-3.83,1.88-8.31,2.82-13.43,2.82Zm.15-10.65c3.45,0,6.38-.6,8.79-1.79,2.41-1.19,4.35-2.75,5.82-4.68,1.47-1.93,2.55-4.01,3.23-6.24.68-2.23,1.03-4.39,1.03-6.47,0-2.23-.39-4.34-1.18-6.32-.79-1.98-1.89-3.74-3.31-5.29-1.42-1.55-3.1-2.76-5.02-3.65-1.93-.89-4.06-1.33-6.39-1.33-3.45,0-6.37.6-8.75,1.79-2.39,1.19-4.3,2.75-5.75,4.68-1.45,1.93-2.49,4.01-3.12,6.24-.64,2.23-.95,4.39-.95,6.47,0,2.18.38,4.27,1.14,6.28.76,2,1.83,3.78,3.2,5.33,1.37,1.55,3.01,2.77,4.91,3.65,1.9.89,4.02,1.33,6.35,1.33Z"/><path d="m117.72,0h10.65l-7.31,60.04h-10.65L117.72,0Z"/><path d="m147.85,60.96c-3.15,0-5.96-.74-8.45-2.21-2.49-1.47-4.43-3.44-5.82-5.9-1.4-2.46-2.09-5.14-2.09-8.03,0-2.33.42-4.65,1.26-6.96.84-2.31,2.1-4.43,3.8-6.35,1.7-1.93,3.79-3.47,6.28-4.64,2.49-1.17,5.35-1.75,8.6-1.75,2.69,0,5.07.48,7.15,1.45,2.08.96,3.68,2.13,4.79,3.5l-1.83,2.44,3.96-32.49h10.58l-7.38,60.04h-10.65l.84-6.47.53,2.28c-1.88,1.42-3.72,2.63-5.52,3.61-1.8.99-3.82,1.48-6.05,1.48Zm3.35-8.98c1.12,0,2.17-.19,3.16-.57s1.94-.94,2.85-1.67c.91-.73,1.75-1.66,2.51-2.78l.99-8.14c-.25-1.12-.76-2.07-1.52-2.85-.76-.79-1.71-1.39-2.85-1.83-1.14-.43-2.42-.65-3.84-.65-1.98,0-3.73.39-5.25,1.18-1.52.79-2.7,1.9-3.54,3.35-.84,1.45-1.26,3.18-1.26,5.21,0,1.78.35,3.32,1.07,4.64.71,1.32,1.72,2.33,3.04,3.04,1.32.71,2.87,1.07,4.64,1.07Z"/><path d="m232.62,60.8l-7.76-21.46-12.02,21.38h-.61l-10.65-33.94h10.35l5.86,17.88-3.65-.53,8.14-13.55-1.29-3.81h9.06l5.25,16.51-1.98.15,8.45-16.67h10.35l-18.87,34.02h-.61Z"/><path d="m271.21,60.96c-1.98,0-4.03-.32-6.16-.95-2.13-.63-4.12-1.61-5.97-2.93-1.85-1.32-3.35-3.02-4.49-5.1-1.14-2.08-1.71-4.57-1.71-7.46,0-2.03.34-4.16,1.03-6.39.69-2.23,1.79-4.32,3.31-6.28,1.52-1.95,3.55-3.54,6.09-4.76,2.54-1.22,5.63-1.83,9.28-1.83,2.99,0,5.87.62,8.64,1.86,2.76,1.24,5.05,3.08,6.85,5.52,1.8,2.44,2.7,5.45,2.7,9.06,0,1.27-.18,2.75-.53,4.45-.36,1.7-.96,3.41-1.83,5.14-.86,1.73-2.03,3.31-3.5,4.76-1.47,1.45-3.34,2.63-5.59,3.54-2.26.91-4.96,1.37-8.1,1.37Zm.3-8.75c2.18,0,3.88-.56,5.1-1.67,1.22-1.12,2.08-2.46,2.59-4.03.51-1.57.76-3.02.76-4.34,0-1.78-.29-3.21-.88-4.3-.58-1.09-1.31-1.91-2.17-2.47-.86-.56-1.73-.94-2.59-1.14-.86-.2-1.57-.3-2.13-.3-2.08,0-3.75.55-5.02,1.64-1.27,1.09-2.18,2.42-2.74,4-.56,1.57-.84,3.04-.84,4.41,0,2.28.47,4.01,1.41,5.17.94,1.17,2.03,1.97,3.27,2.4,1.24.43,2.32.65,3.23.65Z"/><path d="m310.78,26.79l.15,6.47-.15-1.07c1.57-2.23,3.44-3.97,5.59-5.21,2.16-1.24,4.63-1.86,7.42-1.86s4.86.52,6.51,1.56c1.65,1.04,2.6,2.73,2.85,5.06l-.15.08c1.62-1.93,3.51-3.53,5.67-4.79,2.16-1.27,4.32-1.9,6.51-1.9,3.3,0,5.81.93,7.53,2.78,1.72,1.85,2.44,4.25,2.13,7.19l-3.04,24.96h-10.58l2.51-20.55c.1-1.47.01-2.68-.27-3.61-.28-.94-1.15-1.46-2.63-1.56-1.73,0-3.25.6-4.57,1.79-1.32,1.19-2.39,2.71-3.2,4.57-.81,1.85-1.34,3.77-1.6,5.75l-1.67,13.62h-10.65l2.51-20.55c.1-1.47-.03-2.68-.38-3.61-.36-.94-1.27-1.46-2.74-1.56-1.67,0-3.16.6-4.45,1.79-1.29,1.19-2.33,2.7-3.12,4.53-.79,1.83-1.31,3.7-1.56,5.63l-1.67,13.77h-10.65l4.03-33.26h9.66Z"/><path d="m381.63,51.9c1.01,0,1.99-.18,2.93-.53.94-.35,1.89-.79,2.85-1.29l3.73,8.22c-1.67.81-3.44,1.45-5.29,1.9-1.85.46-3.64.68-5.37.68-3.65,0-6.84-.62-9.55-1.86-2.71-1.24-4.83-3.15-6.35-5.71-1.52-2.56-2.28-5.77-2.28-9.63,0-1.98.37-4.03,1.1-6.16.73-2.13,1.88-4.12,3.42-5.97,1.55-1.85,3.58-3.36,6.09-4.53,2.51-1.17,5.54-1.75,9.09-1.75,1.93,0,3.84.24,5.75.72,1.9.48,3.65,1.34,5.25,2.59,1.6,1.24,2.97,2.98,4.11,5.21,1.14,2.23,1.94,5.12,2.4,8.68l-26.79,6.62-1.67-5.94,20.85-5.4-3.73,1.14c-.41-1.72-1.21-3.04-2.4-3.96-1.19-.91-2.58-1.37-4.15-1.37-2.08,0-3.75.43-5.02,1.29-1.27.86-2.19,1.98-2.78,3.35-.58,1.37-.88,2.79-.88,4.26,0,2.54.47,4.49,1.41,5.86.94,1.37,2.08,2.31,3.42,2.82,1.34.51,2.63.76,3.84.76Z"/><path d="m418.76,26.79l.23,6.62-.38-1.22c1.42-2.08,3.31-3.77,5.67-5.06,2.36-1.29,5.09-1.94,8.18-1.94s5.64.93,7.5,2.78c1.85,1.85,2.65,4.25,2.4,7.19l-3.04,24.88h-10.65l2.59-20.93c.1-1.47-.17-2.65-.8-3.54-.63-.89-1.81-1.33-3.54-1.33-1.62,0-3.11.53-4.45,1.6-1.34,1.06-2.45,2.51-3.31,4.34-.86,1.83-1.45,3.93-1.75,6.32l-1.67,13.55h-10.65l4.03-33.26h9.66Z"/></g><line class="cls-1" y1="38.96" x2="206" y2="38.96"/></svg>