<?xml version="1.0" encoding="utf-8"?>
<!-- Generator: Adobe Illustrator 18.1.1, SVG Export Plug-In . SVG Version: 6.00 Build 0)  -->
<svg version="1.1" id="Capa_5" xmlns="http://www.w3.org/2000/svg" xmlns:xlink="http://www.w3.org/1999/xlink" x="0px" y="0px"
	 viewBox="0 0 1400 980" enable-background="new 0 0 1400 980" xml:space="preserve">
<g>
	<path fill="#151D38" d="M489.5,825.5c0-3.1-0.4-2.9,2.8-2.9c28.6,0,57.3,0,85.9,0c0.6,0,1.1,0,1.7,0c2.6,0,2.6,0,2.6-2.6
		c0-10.8,0-21.6,0-32.4c0-0.6,0-1.3,0-1.9c0.1-4.3,3-7.2,7.3-7.2c2.3,0,4.6-0.1,7,0c1.2,0,1.8-0.4,1.7-1.7c-0.1-0.6,0-1.3,0-1.9
		c0-25.1,0-50.2,0-75.3c0-1.4-0.1-2.9,0.3-4.3c1.2-4.5,4-7.6,8.3-9.2c1.1-0.4,1.5-0.6,1-2c-1.1-3.2-0.8-6.5-0.3-9.7
		c0.5-2.7,3.3-4.6,6.2-4.9c0.6-0.1,1.3,0,1.9,0c10,0,20,0,30,0c2.4,0,2.5,0,2.9-2.3c0.5-2.8,1.7-5.3,3.3-7.7
		c1.1-1.7,2.2-3.3,3.5-4.9c7.9-9.7,9.2-20.8,6.5-32.6c-1-4.4-2.8-8.5-4.7-12.5c-2.4-5.2-4.9-10.4-6.5-16c-2.7-9.9-3-19.9-1.2-29.9
		c1.2-7,2.7-14,3.4-21.1c1.4-13.9,0.4-27.5-4.9-40.5c-1.8-4.5-3-9.3-3.8-14.1c-0.1-0.4-0.1-1-0.3-1.1c-0.5-0.2-0.8,0.3-1.1,0.7
		c-6,6.1-11.9,12.3-17.9,18.4c-7.5,7.7-14.9,15.4-22.4,23.1c-1.4,1.5-1.4,1.5-2.9,0c-18.5-17.9-37-35.8-55.5-53.7
		c-23.8-23-47.6-46.1-71.3-69.1c-0.5-0.5-1-1.3-1.9-1.3c0-0.2,0-0.3,0-0.5c0.9-0.1,1.3-0.8,1.9-1.4c26.1-26.9,52.1-53.8,78.1-80.6
		c0.1-0.1,0.2-0.2,0.3-0.3c1.4-1.4,1.4-1.4,2.8-0.1c4.1,4,8.3,8,12.4,12c19.2,18.6,38.5,37.3,57.7,55.9c0.4,0.4,0.9,1.3,1.5,1
		c0.6-0.3,0.1-1.2,0-1.8c-0.5-4.8-0.9-9.6-1.1-14.4c-0.3-10.2-0.3-20.3-0.2-30.5c0-3.1,0.4-6.2,1.1-9.3c1.4-6.2,5-10.6,10.9-13.2
		c3.9-1.7,8-2.6,12.2-3.4c3-0.5,6-0.9,9-1.5c5.5-1.3,9.3-4.5,10.5-10.2c0.2-0.8,0.2-1.6,0.4-2.4c0.5-2.5,0.2-4.5-1.9-6.4
		c-3.2-3-5.1-7-6.4-11.1c-2.9-9.7-2.7-19.4,0.4-29c0.7-2.3,1.9-4.4,3.2-6.4c7.8-12.2,26.5-12.2,34.3,0c2.7,4.2,4.2,8.8,4.9,13.6
		c1.1,7.1,0.9,14.2-1.2,21.1c-1.5,5-3.8,9.5-7.7,13c-0.8,0.7-1.1,1.5-1,2.5c0,0.2,0,0.3,0,0.5c0.3,9.4,4.5,14,13.8,15.3
		c4.3,0.6,8.5,1.2,12.7,2.4c1.4,0.4,2.8,0.8,4.1,1.3c0.9,0.3,1.3,0,1.4-0.9c0.3-2.5,0.6-4.9,1.1-7.3c5.4-25.6,26.3-45.3,52.2-49.1
		c33.6-5,65.3,17.6,71.3,51c6.1,34-15.7,66.1-49.5,73.1c-1.7,0.4-3.5,0.5-5.2,0.8c-0.2,0-0.5,0.2-0.4,0.5c0,0.1,0.2,0.2,0.4,0.2
		c1.4,0.2,2.9,0.4,4.3,0.5c36.9,2.8,69.1-8.2,96.4-33.2c13.2-12.1,23-26.8,29.8-43.3c0.2-0.4,0.4-0.9,0.5-1.3
		c0.3-0.7,0.5-1.3,1.6-0.9c0.9,0.4,1.6,0.7,1.2,1.9c-0.2,0.5-0.4,1.1-0.6,1.6c-15.9,39.3-51.4,68.4-93,76.4
		c-23.2,4.5-45.8,2.6-68-5.3c-11.3-4-20.7-10.6-28.3-19.8c-0.4-0.5-0.6-1.4-1.3-1.2c-0.6,0.2-0.3,1.1-0.3,1.7
		c-0.3,9.9-0.6,19.8-2.3,29.6c-1,5.8-2.4,11.6-4.8,17c-2.3,5-5.3,9.3-10.1,12.2c-1.4,0.8-2,2-2,3.6c0,1.8,0,3.5,0,5.3
		c0,13.9,0,27.8,0,41.8c0,3.8-0.2,7.5-0.7,11.2c-0.1,0.4-0.3,0.8,0.1,1.1c0.4,0.2,0.7-0.2,1-0.5c2.3-2,4.6-4,6.9-6
		c28.4-24.7,56.7-49.3,85.1-74c0.4-0.4,0.8-0.8,1.3-1.1c0.9-0.7,1.8-0.6,2.5,0.3c0.6,0.7,1.2,1.3,1.7,2c4.6,5.3,9.2,10.6,13.9,15.9
		c1.9,2.2,1.9,2.4-0.4,4.4c-28,24.4-56,48.7-84,73.1c-5.8,5-11.6,10.1-17.4,15.1c-0.4,0.4-0.8,0.7-1.2,1.1c-0.1,0.1-0.1,0.3-0.1,0.4
		c0.2,0,0.3,0.1,0.4,0.1c0.5-0.1,1.1-0.3,1.6-0.5c41.7-13.7,83.4-27.3,125.1-41c0.6-0.2,1.2-0.4,1.8-0.6c2.3-0.7,2.7-0.5,3.5,1.8
		c2.9,8.9,5.8,17.8,8.7,26.7c8.4,25.5,16.7,51,25.1,76.6c0.1,0.3,0.2,0.6,0.3,0.9c0.5,1.9,0.3,2.4-1.6,3c-7.1,2.4-14.3,4.7-21.4,7
		c-39.4,12.9-78.8,25.8-118.2,38.7c-3.7,1.2-3.8,1.2-5-2.5c-11.2-34.1-22.4-68.2-33.4-102.3c-0.8-2.5-2.1-4.4-3.7-6.2
		c-0.2-0.3-0.5-0.7-0.9-0.6c-0.5,0.2-0.3,0.7-0.4,1c-0.8,6.1-0.6,12.3-0.3,18.4c0.5,8.6,2.5,16.9,3.8,25.4c2,12.6,0.9,24.9-4.3,36.7
		c-1.7,4-3.6,7.9-5.3,11.8c-3.2,7.1-4.7,14.6-4.2,22.4c0.4,5.6,2,10.8,5.2,15.5c1.6,2.3,3.3,4.5,4.9,6.8c2.2,3.1,4,6.4,4.4,10.2
		c0.1,0.9,0.5,1.3,1.4,1.3c0.6,0,1.3,0,1.9,0c10.2,0,20.3,0,30.5,0c3.8,0,6.8,2.2,7.3,5.6c0.4,3.1,0.8,6.2-0.5,9.2
		c-0.4,0.9-0.2,1.2,0.7,1.5c6.5,2.7,9.1,6.6,9.1,13.7c0,25.3,0,50.6,0,75.8c0,3.3-0.3,2.9,3,2.9c1.8,0,3.5,0,5.3,0
		c4.7,0,7.6,2.9,7.6,7.7c0,11,0,22.1,0,33.1c0,3.8-0.5,3.4,3.3,3.4c28.5,0,57,0,85.4,0c0.6,0,1.1,0,1.7,0c2.7,0,2.7,0,2.3,2.9
		C744.2,825.5,616.9,825.5,489.5,825.5z"/>
	<path fill="#EDC062" d="M680.6,669.6c8.8,0,17.6,0,26.4,0c0.6,0,1.1,0,1.7,0c1,0,1.2-0.5,1-1.4c-0.5-2.3-1.3-4.5-2.6-6.4
		c-1.6-2.3-3.2-4.6-4.9-6.8c-5.8-7.7-7.8-16.5-7-26c0.5-6.2,2.2-12.1,4.8-17.7c1.6-3.6,3.3-7.1,4.9-10.7c4.8-11.2,6-22.8,4.2-34.8
		c-1.2-8-3-15.9-3.7-23.9c-1.3-14.1-0.1-27.9,5.3-41.2c2.9-7.2,4.3-14.7,4.3-22.5c0-14.8,0-29.6,0-44.4c0-1.8,0-3.5,0.1-5.3
		c0.1-2.5,1.2-4.4,3.4-5.7c3.1-1.8,5.3-4.5,7.2-7.6c1.8-3,3-6.2,4-9.5c2.8-9.4,3.8-19.1,4.2-28.9c0.5-9.9,0.5-19.8,0.4-29.7
		c0-4-0.3-8-1.3-11.9c-1.3-4.8-4.1-8.2-8.6-10.3c-1.8-0.8-3.7-1.5-5.6-2c-4.3-1.2-8.8-1.7-13.2-2.4c-8.5-1.3-13.5-5.8-15.1-13.6
		c-0.2-0.9-0.2-1.7-0.3-2.6c-0.2-1.8-0.2-1.9-2-1.2c-4.9,1.9-9.8,1.9-14.7-0.1c-0.3-0.1-0.6-0.3-0.9-0.4c-0.5-0.2-0.9-0.1-1,0.6
		c0,0.5,0,1-0.1,1.4c-1,8.6-5.2,13.5-13.7,15.4c-2.7,0.6-5.5,0.9-8.3,1.4c-3.9,0.7-7.7,1.5-11.3,3c-5.4,2.2-8.7,6.1-9.8,11.8
		c-0.6,2.8-1,5.7-0.9,8.6c0,9-0.1,18.1,0.1,27.1c0.2,9.1,0.9,18.2,2.8,27.2c1.1,5.1,2.5,10.1,4.9,14.7c1.8,3.4,4,6.6,7.4,8.6
		c2.9,1.7,4.1,4.1,4,7.3c0,0.6,0,1.3,0,1.9c0,15,0,29.9-0.1,44.9c-0.1,8.7,1.5,17,4.7,25.1c4.6,11.8,6.1,24.1,5.2,36.7
		c-0.5,7.9-1.9,15.7-3.4,23.5c-1.5,7.9-1.9,15.9-0.7,23.9c0.9,6.2,3,12.1,5.6,17.8c1.8,3.9,3.7,7.8,5.2,11.8c3,7.9,4,16.1,2.7,24.5
		c-0.8,5.3-3,10.1-6.1,14.4c-1.6,2.3-3.3,4.5-4.9,6.8c-1.4,2-2.4,4.1-2.9,6.5c-0.4,1.9-0.3,1.9,1.5,2c0.5,0,1,0,1.4,0
		C663.4,669.6,672,669.6,680.6,669.6z"/>
	<path fill="#C47659" d="M680.6,778.5c25.4,0,50.7,0,76.1,0c3.7,0,3.4,0.6,3.4-3.3c0-25,0-50.1,0-75.1c0-0.6,0-1.3,0-1.9
		c-0.3-5.6-4.2-9.5-9.8-9.8c-0.6,0-1.3,0-1.9,0c-45,0-90.1,0-135.1,0c-0.8,0-1.6,0-2.4,0c-4.7,0.4-8.3,3.5-9.2,8.1
		c-0.2,1-0.2,2.1-0.2,3.1c0,25.4,0,50.7,0,76.1c0,3.1-0.3,2.8,2.9,2.8C629.7,778.5,655.1,778.5,680.6,778.5z"/>
	<path fill="#CED8DC" d="M750.8,629c0.4-0.1,1-0.3,1.6-0.5c44.8-14.7,89.6-29.3,134.4-44c3.2-1,3.2-1.1,2.1-4.4
		c-0.1-0.2-0.1-0.3-0.1-0.5c-8-24.3-15.9-48.6-23.9-72.9c-0.7-2.2-0.3-2.4-2.9-1.5c-0.1,0-0.2,0.1-0.2,0.1
		c-32.8,10.7-65.6,21.5-98.4,32.2c-12.4,4.1-24.8,8.1-37.1,12.1c-2,0.7-2,0.7-1.4,2.6c0.1,0.2,0.2,0.4,0.2,0.7
		c8.1,24.7,16.2,49.4,24.2,74c0.2,0.5,0.3,1.1,0.6,1.6C750,628.8,750.3,629.1,750.8,629z"/>
	<path fill="#FFFFFF" d="M643.5,437.8C643.5,437.8,643.5,437.8,643.5,437.8c0-1.6,0-3.2,0-4.8c0-0.3,0.1-0.7-0.3-0.8
		c-0.4-0.1-0.6,0.2-0.8,0.3c-0.7,0.5-1.1,1.7-2,1.5c-0.8-0.2-1.3-1.1-2-1.7c-0.6-0.5-1.1-1.1-1.7-1.7c-4.1-4-8.3-8-12.4-12
		c-0.8-0.8-0.9-1.3,0-2.1c1.7-1.7,3.3-3.5,5-5.1c0.7-0.6,0.8-1.2,0.5-2.1c-1.3-3.5-2.2-7-2.8-10.7c-0.2-1.3-0.8-2.3-1.8-3.2
		c-23.5-22.7-47-45.5-70.5-68.3c-0.5-0.4-0.9-0.9-1.4-1.3c-1.5-1.2-1.9,0.6-2.5,1.2c-0.6,0.6-2.1,1.1-0.9,2.4c0.3,0.4,0.7,0.7,1,1
		c4,3.9,8,7.8,12.1,11.7c1.2,1.2,1.2,1.3,0.1,2.4c-2,2.1-4.1,4.3-6.2,6.4c-1.2,1.2-1.2,1.2-2.4,0c-3.1-2.9-6.1-5.9-9.1-8.8
		c-1.3-1.3-2.7-2.5-4-3.8c-1.2-1.2-1.8,0.1-2.2,0.7c-0.5,0.8-2.6,1.1-1.3,2.8c0.3,0.4,0.7,0.7,1,1c10.2,9.9,20.5,19.8,30.7,29.7
		c1.6,1.6,1.6,1.6,0,3.3c-14.4,14.9-28.8,29.8-43.2,44.6c-0.3,0.3-0.6,0.6-0.8,0.8c-0.4,0.4-0.8,0.5-1.2,0c-0.3-0.3-0.7-0.7-1-1
		c-9.9-9.6-19.7-19.2-29.6-28.7c-2.9-2.8-2.9-2.8-5.7,0.2c-0.9,1-0.7,1.5,0.1,2.3c1.7,1.6,3.3,3.2,5,4.8c2.6,2.6,5.3,5.1,7.9,7.7
		c0.5,0.5,1.2,0.9,0.4,1.7c-2.4,2.4-4.8,4.9-7.2,7.4c-0.5,0.5-0.9,0.4-1.4,0c-0.3-0.3-0.7-0.7-1-1c-4.1-4-8.2-7.9-12.2-11.9
		c-0.9-0.9-1.4-0.9-2.3,0c-2,2.3-2.2,1.6,0,3.8c13.8,13.4,27.7,26.8,41.5,40.2c26.9,26,53.8,52.1,80.6,78.1c1.5,1.4,1.5,1.4,2.9-0.1
		c0.3-0.3,0.6-0.6,0.8-0.9c0.5-0.5,0.5-0.9,0-1.4c-0.4-0.3-0.7-0.7-1-1c-4.1-4-8.1-7.9-12.2-11.8c-0.9-0.8-1-1.4-0.1-2.3
		c2.2-2.1,4.3-4.3,6.4-6.5c0.8-0.9,1.4-0.9,2.3,0c3.6,3.6,7.3,7.1,11,10.7c3.3,3.2,3.3,3.2,6.2-0.4c0.4-0.5,0.5-0.9,0-1.4
		c-0.3-0.3-0.6-0.6-0.9-0.8c-9.2-8.9-18.4-17.8-27.6-26.7c-1.3-1.3-2.6-2.6-4-3.8c-0.9-0.8-0.9-1.4,0-2.1c0.4-0.4,0.8-0.8,1.2-1.2
		c8.1-8.3,16.1-16.7,24.2-25c6.1-6.3,12.2-12.6,18.4-19c1.5-1.6,1.4-1.8,3.1,0c1.8,1.8,3.7,3.6,5.5,5.3c2.1,2,4.1,4,6.2,6
		c0.4,0.4,0.7,1.1,1.3,0.7c0.5-0.2,0.2-0.9,0.3-1.3C643.5,440.5,643.5,439.1,643.5,437.8z"/>
	<path fill="#AEDEF8" d="M847.6,325.7c0.1-2.1-0.1-4.7-0.5-7.3c-0.3-1.8-0.6-3.6-1-5.4c-7.1-31.4-38.2-51.7-69.7-45.6
		c-26.6,5.1-46.2,27.1-48.5,54.2c-0.1,1.3,0.3,2,1.3,2.8c2.5,1.7,4.3,4.1,5.5,6.8c1.2,2.7,1.8,5.6,2.1,8.6
		c0.6,5.6,0.4,11.2,0.4,16.8c0,1.4,0.3,2.6,1.1,3.8c13.1,19.1,36.4,28.9,59.2,25.1C826.5,380.6,847.7,355.6,847.6,325.7z"/>
	<path fill="#C47659" d="M680.8,822.6c16.2,0,32.3,0,48.5,0c14.8,0,29.6,0,44.4,0c2.2,0,2.2,0,2.3-2.2c0-4.6,0-9.1,0-13.7
		c0-3.7,0.2-3.2-3.2-3.2c-61.3,0-122.7,0-184,0c-0.5,0-1,0-1.4,0c-1.7,0.1-1.7,0.1-1.7,1.8c0,4.8,0,9.6,0,14.4c0,3.3-0.3,3,3,3
		C619.2,822.6,650,822.6,680.8,822.6z"/>
	<path fill="#C47659" d="M680.7,800.6c25.8,0,51.7,0,77.5,0c5.2,0,10.4,0,15.6,0c2.1,0,2.2,0,2.2-2.1c0-3.5-0.1-7,0-10.6
		c0.2-4.3-1-6.5-6.5-6.5c-59.2,0.1-118.4,0.1-177.6,0.1c-0.5,0-1,0-1.4,0c-3.5,0.1-5,1.5-5,5c0,3.7,0,7.4,0,11c0,3.5-0.4,3.1,3,3.1
		C619.2,800.6,649.9,800.6,680.7,800.6z"/>
	<path fill="#FFFFFF" d="M566.8,374.1c-0.1-0.5-0.6-0.9-1-1.2c-9.8-9.5-19.5-18.9-29.3-28.4c-1.4-1.4-1.4-1.3-2.8,0
		c-4.2,4.3-8.3,8.6-12.5,12.9c-8.9,9.2-17.8,18.4-26.7,27.6c-1.5,1.5-1.5,1.6-0.1,3c9.7,9.4,19.4,18.8,29.1,28.2
		c1.4,1.3,1.4,1.3,2.8-0.1c5.8-6,11.6-11.9,17.4-17.9c7.3-7.5,14.6-15.1,21.9-22.6C566,375.2,566.5,374.8,566.8,374.1z"/>
	<path fill="#FFFFFF" d="M643.6,465.3C643.5,465.3,643.5,465.3,643.6,465.3c0-5.1-0.1-10.2,0-15.4c0-1.2-0.4-2.1-1.2-2.9
		c-4.1-3.9-8.2-7.9-12.2-11.8c-1.4-1.3-1.4-1.3-2.8,0.1c-13.1,13.5-26.3,27.1-39.4,40.7c-1.3,1.4-1.3,1.4,0.1,2.7
		c9.8,9.5,19.5,18.9,29.3,28.4c1.2,1.2,1.3,1.2,2.4,0c7.6-7.9,15.2-15.7,22.9-23.6c0.7-0.7,1-1.5,1-2.6
		C643.5,475.7,643.6,470.5,643.6,465.3z"/>
	<path fill="#EDC062" d="M700.5,272.9c-0.1-2.6-0.2-5.5-0.8-8.3c-0.9-4.7-2.5-9.1-5.4-12.9c-6.5-8.4-20.9-8.5-27.4,0.3
		c-1.6,2.1-2.8,4.4-3.7,7c-2.4,7.2-2.9,14.5-1.6,22c0.9,5.4,2.8,10.5,6.5,14.7c6.7,7.7,17.8,7.8,24.7,0.4c1.9-2,3.3-4.3,4.4-6.8
		C699.6,284.2,700.4,278.8,700.5,272.9z"/>
	<path fill="#C47659" d="M680.7,685.4c21.4,0,42.7,0,64.1,0c0.7,0,1.4,0,2.2,0c2.3-0.1,3.8-1.4,4-3.7c0.2-1.8,0.2-3.7,0-5.5
		c-0.2-2.2-1.7-3.4-3.9-3.5c-0.6,0-1.1,0-1.7,0c-43.1,0-86.2,0-129.3,0c-0.6,0-1.3,0-1.9,0c-2.2,0.2-3.5,1.6-3.6,3.8
		c-0.1,1.8-0.1,3.5,0,5.3c0.1,2,1.5,3.4,3.5,3.6c0.8,0.1,1.6,0,2.4,0C637.8,685.4,659.3,685.4,680.7,685.4z"/>
	<path fill="#E8384A" d="M832,511.8c0.2-0.1,0.4-0.1,0.7-0.2c5.2-1.7,10.3-3.4,15.5-5c0.8-0.2,1.2-0.7,1.3-1.5
		c1.8-7.7,3.6-15.4,5.3-23.1c0.3-1.4,0.2-1.5-1.3-1.1c-5,1.6-10,3.3-15,4.9c-1.1,0.3-1.4,1.1-1.6,2.1c-1.7,7.4-3.4,14.8-5.2,22.1
		c-0.1,0.4-0.2,0.8-0.3,1.2C831.4,511.5,831.6,511.8,832,511.8z"/>
	<path fill="#EFD2E6" d="M810.2,517.9c-0.1,0.9,0,1.1,1.2,0.7c5.1-1.6,10.2-3.4,15.3-5c1.1-0.3,1.3-1,1.5-1.9
		c0.5-1.9,0.9-3.9,1.4-5.8c1.3-5.6,2.6-11.2,3.9-16.8c0.3-1.4,0.2-1.6-1.2-1.1c-5,1.6-10,3.3-15,4.9c-1.1,0.4-1.5,1.1-1.7,2.1
		c-0.6,2.6-1.2,5.3-1.8,7.9C812.6,507.8,811.4,512.8,810.2,517.9z"/>
	<path fill="#EFD2E6" d="M765.4,479.8c-0.4-2.4-0.9-5.1-1.3-7.7c-0.9-5.3-1.8-10.5-2.7-15.8c-0.2-0.9-0.4-1.4-1.3-0.6
		c-4.2,3.6-8.3,7.2-12.5,10.8c-0.6,0.6-0.7,1.2-0.5,1.9c1.4,7.8,2.7,15.6,4,23.3c0.2,1.2,0.4,1.3,1.3,0.6c4.2-3.6,8.3-7.2,12.5-10.8
		C765.3,481.1,765.6,480.7,765.4,479.8z"/>
	<path fill="#E8384A" d="M789.4,525.8c0.2-0.1,0.5-0.1,0.7-0.2c5.1-1.7,10.2-3.3,15.2-5c1-0.3,1.4-0.9,1.6-1.8c1-4.7,2.2-9.3,3.3-14
		c0.7-3,1.4-6.1,2.1-9.1c0.2-1-0.1-1.2-1-0.9c-0.2,0.1-0.5,0.1-0.7,0.2c-4.9,1.6-9.7,3.2-14.6,4.7c-1.1,0.4-1.6,1-1.9,2.2
		c-1.7,7.3-3.4,14.6-5.1,21.9c-0.1,0.5-0.2,0.9-0.2,1.4C788.9,525.6,789,525.8,789.4,525.8z"/>
	<path fill="#E8384A" d="M797.7,423.5c0,0.3,0.1,0.5,0.1,0.6c1.3,7.7,2.6,15.4,4,23.1c0.3,1.7,0.4,1.7,1.7,0.6
		c3.9-3.4,7.8-6.8,11.8-10.2c0.8-0.7,1.2-1.3,0.9-2.5c-0.4-1.3-0.5-2.7-0.7-4c-1.1-6.4-2.2-12.7-3.3-19.1c-0.2-1.3-0.4-1.4-1.4-0.6
		c-4.1,3.5-8.1,7-12.1,10.5C798.1,422.5,797.6,422.9,797.7,423.5z"/>
	<path fill="#EFD2E6" d="M791,502.7c0.2-1.2-0.3-1.1-1.2-0.9c-5,1.7-10,3.3-15,4.9c-1.1,0.3-1.5,0.9-1.8,2
		c-1.7,7.6-3.5,15.1-5.3,22.7c-0.3,1.5-0.2,1.6,1.2,1.2c5-1.6,10-3.3,15-4.9c1.1-0.4,1.5-1,1.7-2c1.1-4.9,2.3-9.8,3.4-14.7
		C789.7,508.1,790.4,505.4,791,502.7z"/>
	<path fill="#E8384A" d="M764,453.3c0.1,0.5,0.1,1,0.2,1.5c0.8,4.9,1.7,9.8,2.5,14.6c0.4,2.5,0.8,5,1.3,7.6c0.2,1.3,0.5,1.3,1.5,0.5
		c0.3-0.2,0.5-0.4,0.7-0.6c3.6-3.1,7.1-6.3,10.7-9.2c1.3-1.1,1.6-2.2,1.3-3.7c-0.8-4.4-1.5-8.8-2.3-13.2c-0.5-3.1-1-6.1-1.6-9.2
		c-0.2-1.2-0.5-1.2-1.3-0.5c-4.1,3.5-8.1,7-12.1,10.5C764.3,452,763.7,452.5,764,453.3z"/>
	<path fill="#EFD2E6" d="M799.3,450.8c0-0.2,0-0.4-0.1-0.6c-1.3-7.9-2.7-15.8-4-23.6c-0.2-1.4-0.9-0.7-1.5-0.2
		c-3.9,3.4-7.7,6.8-11.6,10c-1.2,1-1.4,2-1.1,3.3c0.5,2.5,0.9,5,1.3,7.6c0.8,4.9,1.6,9.8,2.5,14.6c0.3,1.7,0.5,1.7,1.6,0.7
		c4-3.4,8-6.9,12-10.4C798.9,451.9,799.4,451.5,799.3,450.8z"/>
	<path fill="#E8384A" d="M735.6,506c0.8,0.1,1.4-0.2,2-0.7c3.4-3,6.7-5.9,10.1-8.8c0.7-0.6,1-1.1,0.8-2.1
		c-1.4-7.8-2.7-15.6-4.1-23.4c-0.2-1.3-0.4-1.4-1.4-0.5c-4.1,3.5-8.1,7-12.1,10.5c-0.7,0.6-0.9,1.2-0.7,2.1
		c1.3,7.2,2.5,14.3,3.7,21.5C734,505.8,734.6,506.1,735.6,506z"/>
	<path fill="#E8384A" d="M747.7,532.8c0.5,1.4,1,2.9,1.4,4.5c0.3,1.3,1,1.4,2.1,1c3.6-1.2,7.3-2.5,10.9-3.6c1.3-0.4,1.9-1.1,2.2-2.4
		c1.7-7.4,3.4-14.8,5.1-22.2c0.4-1.6,0.2-1.8-1.3-1.3c-4.9,1.6-9.9,3.3-14.8,4.8c-1,0.3-1.6,0.9-1.8,2c-1.2,5.4-2.5,10.7-3.7,16.1
		C747.9,532.1,747.8,532.4,747.7,532.8z"/>
	<path fill="#EFD2E6" d="M722.8,505.4c0,0.1,0,0.3,0,0.4c2.3,0,4.6,0,6.9,0c1,0,1.2-0.3,1.1-1.3c-1.1-6.3-2.2-12.6-3.3-18.9
		c-0.2-1.2-0.5-1.3-1.5-0.4c-2,1.7-3.9,3.6-6,5.1c-2.9,2.1-4.7,4.7-5.6,8.3c-0.5,1.9-0.5,3.6-0.2,5.4c0.1,0.9,0.6,1.4,1.6,1.4
		C718.2,505.4,720.5,505.4,722.8,505.4z"/>
	<path fill="#FFFFFF" d="M547.3,331.1c-0.5-0.1-0.7,0.2-1,0.4c-0.8,0.8-1.6,1.8-2.5,2.6c-0.9,0.8-0.9,1.4,0,2.3
		c2.9,2.7,5.7,5.6,8.6,8.3c1.1,1,1.9,2.9,3.4,2.7c1.4-0.2,2.1-2,3.3-3c0.8-0.7,0.8-1.2,0-2c-3.7-3.6-7.5-7.2-11.2-10.8
		C547.7,331.4,547.4,331.2,547.3,331.1z"/>
	<path fill="#FFFFFF" d="M606,520.8c0.3-0.2,0.5-0.2,0.7-0.4c1.1-1.1,2.1-2.2,3.2-3.3c0.6-0.6,0.2-1-0.3-1.4
		c-3.8-3.7-7.6-7.3-11.3-11c-0.6-0.6-1.1-0.6-1.6,0c-0.9,1-1.8,2-2.8,2.9c-0.7,0.6-0.4,1,0.1,1.6c3.8,3.6,7.6,7.3,11.3,11
		C605.5,520.5,605.8,520.6,606,520.8z"/>
	<path fill="#FFFFFF" d="M497.6,407.5c-0.1-0.2-0.2-0.4-0.4-0.5c-3.9-3.8-7.8-7.5-11.7-11.3c-0.5-0.5-0.9-0.4-1.4,0.1
		c-0.9,1-1.9,1.9-2.8,2.9c-0.6,0.6-0.6,1,0,1.6c3.8,3.6,7.6,7.3,11.3,11c0.3,0.3,0.7,0.7,1,0.5c1.4-1.1,2.7-2.5,3.9-3.9
		C497.6,407.7,497.5,407.6,497.6,407.5z"/>
	<path fill="#EFD2E6" d="M863,500.9c-0.2-0.7-0.5-1.5-0.8-2.4c-1.3-4.1-2.7-8.2-4-12.3c-0.1-0.4-0.2-1.2-0.7-1.2
		c-0.7,0-0.5,0.8-0.6,1.3c-0.8,3.2-1.5,6.4-2.2,9.5c-0.6,2.6-1.2,5.1-1.8,7.7c-0.1,0.6-0.4,1.5,0.8,1.1c2.9-0.9,5.8-1.9,8.6-2.8
		C862.8,501.8,863,501.5,863,500.9z"/>
	<path fill="#EFD2E6" d="M819.2,433.9c0.1,0,0.3,0,0.4-0.1c2.4-2.1,4.8-4.2,7.2-6.3c0.5-0.4,0.3-0.8,0-1.2c-3.5-4-6.9-7.9-10.4-11.9
		c-0.2-0.2-0.5-0.6-0.8-0.4c-0.3,0.2-0.1,0.5-0.1,0.8c0.6,3.8,1.3,7.5,1.9,11.3c0.4,2.4,0.8,4.7,1.2,7.1
		C818.9,433.4,818.8,433.8,819.2,433.9z"/>
	<path fill="#FFFFFF" d="M643.1,427.2c-0.3-1-1-1.4-1.7-1.8c-3.5-2.2-6.1-5.2-8.2-8.6c-0.6-1-0.8-2.7-1.9-2.8c-1,0-1.7,1.5-2.6,2.3
		c-1.1,1.1-1.1,1.2,0.1,2.4c3.5,3.4,7,6.8,10.5,10.2c0.4,0.4,0.8,1.3,1.5,0.7C641.8,428.9,642.6,428.2,643.1,427.2z"/>
	<path fill="#EFD2E6" d="M745.9,526.1c0.1-0.1,0.3-0.2,0.3-0.3c0.8-3.2,1.5-6.5,2.2-9.7c0.1-0.6-0.4-0.6-0.8-0.5
		c-1.4,0.4-2.7,0.9-4.1,1.3c-0.7,0.2-0.8,0.7-0.6,1.3c0.8,2.5,1.6,5,2.5,7.5C745.5,526,745.6,526.2,745.9,526.1z"/>
	<path fill="#AEDEF8" d="M717,154.5c0.9,0.9,0.9,1.9,0.9,3.1c0,4.3,0.9,8.4,2.6,12.4c2.3,5.3,5.8,9.5,10.7,12.5
		c2,1.2,2.1,2.2,0.3,3.3c-9,5.5-12.8,13.9-13.6,24c-0.1,0.8,0,1.6-0.1,2.4c-0.1,0.9-0.6,1.5-1.5,1.5c-1,0-1.3-0.7-1.4-1.6
		c-0.2-2.5-0.3-4.9-0.8-7.4c-1.7-8-5.6-14.5-12.8-18.9c-1.9-1.1-1.9-2.2,0-3.3c8.3-5.1,12.2-12.8,13.3-22.2c0.2-2-0.1-4,0.9-5.8
		C716.1,154.5,716.6,154.5,717,154.5z M727.9,184.1c-0.1-0.2-0.3-0.4-0.4-0.5c-5.1-3.8-8.5-8.8-10.6-14.7c-0.1-0.3-0.3-0.7-0.6-0.6
		c-0.2,0-0.3,0.5-0.4,0.8c-2,5.7-5.3,10.5-10.1,14.2c-1.1,0.9-1.1,0.9,0.1,1.9c3.2,2.5,5.7,5.5,7.7,9c1,1.7,1.7,3.6,2.4,5.5
		c0.1,0.2,0.2,0.4,0.3,0.6c0.2-0.2,0.4-0.3,0.5-0.5c0.4-0.9,0.7-1.8,1.1-2.7c2-4.6,4.9-8.5,8.9-11.7
		C727.2,185,727.8,184.8,727.9,184.1z"/>
	<path fill="#AEDEF8" d="M929.2,469.4c-0.4,0.3-0.9,0.7-1.3,1c-7.8,4.7-11.8,11.9-13.1,20.7c-0.3,1.7-0.4,3.5-0.4,5.2
		c0,1-0.3,1.8-1.4,1.9c-1,0.1-1.5-0.5-1.5-1.9c-0.1-3.8-0.6-7.5-1.8-11.1c-2.1-6.3-5.9-11.3-11.6-14.8c-2-1.2-2-2.2,0-3.4
		c7.9-4.8,11.8-12.1,13-21c0.2-1.7,0.3-3.5,0.4-5.3c0.1-0.9,0.5-1.5,1.5-1.5c0.8,0,1.3,0.5,1.4,1.4c0.1,0.6,0.1,1.1,0.1,1.7
		c0.1,2.1,0.3,4.1,0.8,6.2c1.7,8,5.7,14.5,12.9,18.7c0.4,0.2,0.8,0.5,1.2,0.8C929.2,468.4,929.2,468.9,929.2,469.4z"/>
	<path fill="#FFFFFF" d="M924.4,468.5c-0.2-0.2-0.4-0.4-0.7-0.6c-1.4-1.1-2.7-2.2-3.9-3.5c-2.8-3.1-4.9-6.7-6.3-10.6
		c-0.1-0.4-0.1-0.9-0.6-0.9c-0.6-0.1-0.5,0.5-0.6,0.8c-2.1,5.7-5.4,10.5-10.2,14.2c-0.7,0.5-1,0.9-0.1,1.6
		c4.9,3.7,8.3,8.6,10.3,14.3c0.1,0.3,0.1,0.7,0.5,0.7c0.5,0,0.5-0.5,0.7-0.9c0.7-1.8,1.4-3.6,2.4-5.2c2-3.4,4.5-6.4,7.6-8.8
		C923.8,469.3,924.3,469.1,924.4,468.5z"/>
	<path fill="#7DA6ED" d="M877.5,393.9c0.7,0,1.3,0.3,1.4,1c0.1,0.7,0.2,1.4,0.2,2.1c0.6,6.9,4.1,11.8,10,15.1c0.9,0.5,2.1,0.6,2.1,2
		c0,1.4-1.3,1.5-2.1,2c-6,3.3-9.5,8.2-10,15.1c-0.1,0.6-0.1,1.3-0.2,1.9c-0.1,0.8-0.6,1.3-1.5,1.3c-0.8,0-1.3-0.6-1.4-1.4
		c-0.1-0.4-0.1-0.8-0.1-1.2c-0.4-7.1-3.9-12.2-9.9-15.6c-0.9-0.5-2.3-0.6-2.2-2.1c0.1-1.3,1.3-1.4,2.2-1.9c6.1-3.4,9.6-8.5,10-15.6
		c0-0.5,0-1,0.1-1.4C876.3,394.4,876.7,394,877.5,393.9z"/>
	<path fill="#FFFFFF" d="M877.6,404.2c-0.2,0.2-0.4,0.3-0.5,0.5c-1.7,3.7-4.4,6.6-7.7,8.9c-0.6,0.4-0.3,0.8,0.1,1.1
		c3.3,2.3,5.9,5.1,7.6,8.8c0.3,0.5,0.6,0.7,0.9,0c1.7-3.5,4.2-6.4,7.4-8.6c0.7-0.5,0.9-0.9,0.1-1.4c-3.2-2.2-5.7-5-7.4-8.6
		C877.9,404.7,877.8,404.5,877.6,404.2z"/>
	<path fill="#7DA6ED" d="M562.1,276.9c-0.9-0.1-1.3-0.7-1.4-1.6c-0.1-1-0.1-2.1-0.2-3.1c-1-6.1-4.4-10.5-9.8-13.5
		c-0.5-0.3-1-0.4-1.5-0.8c-1-0.7-1-1.8,0-2.6c0.5-0.3,1-0.5,1.5-0.8c6.1-3.4,9.6-8.5,10-15.6c0.1-1.9,0.5-2.5,1.5-2.6
		c1,0,1.5,0.5,1.6,2.5c0.5,7.5,4.1,12.8,10.8,16.1c0.7,0.4,1.5,0.7,1.5,1.7c0,1-0.8,1.3-1.5,1.7c-5.4,2.7-9,6.8-10.3,12.8
		c-0.3,1.4-0.4,2.9-0.5,4.3C563.5,276.3,563.1,276.8,562.1,276.9z M570.6,256.9c0.1-0.4,0.1-0.5-0.6-1c-3.1-2.2-5.6-5-7.2-8.4
		c-0.3-0.7-0.7-0.9-1.1-0.1c-1.7,3.5-4.2,6.4-7.4,8.6c-0.8,0.5-0.7,0.9,0,1.4c3.2,2.2,5.7,5,7.4,8.6c0.4,0.8,0.7,0.7,1.1-0.1
		c1.6-3.5,4.1-6.3,7.2-8.4C570.2,257.2,570.4,257,570.6,256.9z"/>
	<path fill="#151D38" d="M598.9,302.6c0.1-4.1,3.5-7.4,7.7-7.2c4.2,0.2,7.3,3.6,7.1,7.8c-0.2,4-3.6,7.2-7.6,7.1
		C602,310.1,598.8,306.7,598.9,302.6z M610.8,302.7c0-2.4-2.1-4.3-4.5-4.3c-2.4,0-4.4,2.1-4.4,4.5c0,2.4,2.1,4.4,4.5,4.3
		C608.9,307.1,610.8,305.1,610.8,302.7z"/>
	<path fill="#249A4B" d="M829.6,685.9c-4.2,0-7.5-3.1-7.5-7.3c0-4.1,3.3-7.5,7.4-7.5c4.1,0,7.5,3.4,7.4,7.5
		C836.9,682.6,833.7,685.9,829.6,685.9z M829.5,674.1c-2.4,0-4.4,2-4.4,4.4c0,2.4,2.1,4.4,4.5,4.4c2.4,0,4.4-2,4.4-4.5
		C833.9,676.1,831.9,674.1,829.5,674.1z"/>
	<path fill="#249A4B" d="M617.7,243.7c0-4.2,3.4-7.5,7.5-7.4c4.2,0.1,7.4,3.4,7.4,7.6c-0.1,4-3.3,7.3-7.4,7.3
		C621,251.2,617.6,247.9,617.7,243.7z M629.5,243.7c0-2.4-2.1-4.4-4.5-4.3c-2.4,0-4.4,2.1-4.4,4.4c0,2.4,2.1,4.4,4.5,4.3
		C627.6,248.1,629.5,246.1,629.5,243.7z"/>
	<path fill="#249A4B" d="M761.1,234.6c-2,0-3.4-1.6-3.4-3.6c0-1.9,1.6-3.5,3.5-3.5c1.9,0,3.4,1.6,3.4,3.6
		C764.6,233.2,763.1,234.7,761.1,234.6z M761.1,231.4c0.1-0.1,0.3-0.1,0.4-0.2c0-0.1,0-0.3-0.1-0.4c-0.2-0.1-0.5-0.1-0.5,0.2
		C760.8,231.2,761,231.3,761.1,231.4z"/>
	<path fill="#151D38" d="M602.7,195.9c1.9-0.1,3.5,1.5,3.6,3.4c0,2-1.4,3.6-3.4,3.6c-2,0.1-3.5-1.4-3.6-3.4
		C599.3,197.6,600.8,196,602.7,195.9z M602.8,199.8c0.1-0.1,0.3-0.1,0.3-0.2c0.1-0.2-0.1-0.4-0.3-0.4c-0.1,0-0.3,0.1-0.4,0.2
		C602.4,199.5,602.5,199.7,602.8,199.8z"/>
	<path fill="#151D38" d="M809.3,654.4c0,2-1.6,3.5-3.5,3.5c-1.9,0-3.4-1.6-3.4-3.6c0-2,1.5-3.5,3.5-3.5
		C807.8,650.9,809.3,652.4,809.3,654.4z M806.2,654.4c-0.1-0.1-0.2-0.2-0.3-0.2c-0.1,0-0.2,0.1-0.3,0.2c0.1,0.1,0.2,0.2,0.3,0.2
		C805.9,654.6,806,654.5,806.2,654.4z"/>
	<path fill="#7DA6ED" d="M584.5,566.2c1.1,0.2,1.4,0.9,1.4,1.9c0,1.9,0.1,3.8,0.5,5.7c1.4,8.6,5.4,15.6,13,20.3
		c1.8,1.1,1.9,2.1,0.2,3.2c-9.1,5.5-12.9,14-13.6,24.2c0,0.6,0,1.1,0,1.7c0,1.1-0.3,1.9-1.5,2.1c-0.9,0.1-1.4-0.5-1.5-2
		c-0.2-2.1-0.3-4.3-0.7-6.4c-1.6-8.3-5.6-15-13-19.5c-1.7-1-1.7-2.1,0-3.2c8.5-5.2,12.4-13,13.4-22.6c0.1-1.3,0.2-2.5,0.3-3.8
		C583.1,566.8,583.5,566.2,584.5,566.2z M595.9,595.6c-0.3-0.2-0.5-0.5-0.9-0.7c-1.6-1.2-3-2.6-4.3-4.1c-2.6-3-4.5-6.4-5.8-10.1
		c-0.1-0.3-0.3-0.7-0.5-0.8c-0.6-0.1-0.5,0.5-0.6,0.8c-2,5.6-5.2,10.4-10,14.1c-1.3,1-1.3,1.1,0.1,2.2c4.4,3.5,7.6,8,9.6,13.2
		c0.1,0.4,0.3,0.8,0.4,1.1c0.1,0.2,0.2,0.3,0.4,0.5c0.2-0.2,0.4-0.3,0.5-0.5c0.2-0.4,0.3-0.9,0.5-1.3c2-5.2,5.1-9.5,9.5-13
		C595.2,596.5,595.9,596.3,595.9,595.6z"/>
	<path fill="#AEDEF8" d="M532.7,562.3c-0.8-0.1-1.4-0.4-1.5-1.3c-0.1-0.9-0.2-1.7-0.3-2.6c-0.7-6.6-4.2-11.2-9.9-14.4
		c-0.9-0.5-2.1-0.6-2.2-1.9c-0.1-1.4,1.2-1.5,2.1-2c5.8-3.1,9.3-7.9,10-14.5c0.1-0.7,0.1-1.4,0.2-2.1c0.1-0.9,0.4-1.6,1.4-1.6
		c1.1,0,1.5,0.7,1.6,1.7c0,0.3,0,0.6,0,1c0.4,7,3.8,12,9.8,15.4c0.9,0.5,2.3,0.6,2.4,2c0.1,1.5-1.4,1.6-2.3,2.1
		c-6.1,3.4-9.5,8.6-9.9,15.6c0,0.5,0,1-0.1,1.4C533.9,561.8,533.4,562.2,532.7,562.3z M541.1,541.8c-0.2-0.2-0.4-0.4-0.7-0.6
		c-3.1-2.2-5.6-4.9-7.3-8.4c-0.4-0.9-0.8-0.8-1.2,0c-1.6,3.4-4,6.1-7.1,8.3c-0.8,0.6-1.1,1-0.1,1.7c3.1,2.1,5.5,4.8,7.1,8.2
		c0.3,0.7,0.7,1.1,1.2,0.1c1.7-3.5,4.2-6.3,7.5-8.6C540.9,542.5,541.2,542.3,541.1,541.8z"/>
	<path fill="#151D38" d="M625.1,644.2c-4.2,0-7.5-3.3-7.4-7.4c0-4,3.3-7.3,7.3-7.4c4.1-0.1,7.5,3.3,7.6,7.4
		C632.5,640.9,629.3,644.2,625.1,644.2z M620.6,636.8c0,2.4,2.1,4.4,4.5,4.4c2.4,0,4.4-2,4.4-4.4c0-2.4-2-4.4-4.5-4.4
		C622.6,632.4,620.6,634.4,620.6,636.8z"/>
	<path fill="#249A4B" d="M502.8,612.5c-4.2,0-7.5-3.1-7.5-7.3c0-4.1,3.3-7.5,7.4-7.5c4,0,7.3,3.2,7.4,7.3
		C510.2,609.1,507,612.4,502.8,612.5z M507.2,605.1c0-2.4-2-4.4-4.5-4.3c-2.4,0-4.4,2-4.4,4.4c0,2.4,2.1,4.4,4.5,4.4
		C505.1,609.5,507.2,607.5,507.2,605.1z"/>
	<path fill="#151D38" d="M545.3,670.9c-1.9,0-3.5-1.5-3.5-3.5c0-2,1.4-3.5,3.4-3.6c2,0,3.5,1.5,3.5,3.5
		C548.7,669.2,547.2,670.8,545.3,670.9z M545.5,667.4c-0.1-0.1-0.1-0.3-0.2-0.3c-0.1,0-0.3,0.1-0.4,0.2c0.1,0.1,0.1,0.2,0.2,0.3
		C545.3,667.7,545.5,667.6,545.5,667.4z"/>
	<path fill="#249A4B" d="M623,555.7c-1.9,0-3.5-1.5-3.6-3.4c-0.1-2,1.5-3.7,3.5-3.7c1.9,0,3.4,1.6,3.4,3.5
		C626.4,554.1,624.9,555.7,623,555.7z M623.3,552.2c-0.1-0.1-0.1-0.3-0.2-0.3c-0.1,0-0.3,0.1-0.4,0.2c0.1,0.1,0.1,0.2,0.2,0.3
		C623.1,552.5,623.2,552.4,623.3,552.2z"/>
	<path fill="#151D38" d="M661,457.4c-0.2,7-0.4,14.1,0.3,21.1c0.6,5.3,1.2,10.7,4.1,15.4c0.5,0.8,0.6,1.7-0.3,2.3
		c-0.9,0.6-1.7,0.1-2.2-0.7c-1.4-2.1-2.3-4.4-2.9-6.8c-1.3-4.7-1.7-9.6-1.9-14.5c-0.5-11.3,0.1-22.7,0-34c0-0.5,0-1,0.2-1.4
		c0.2-0.7,0.7-1.1,1.5-1c0.7,0.1,1.2,0.5,1.3,1.2c0.1,0.6,0.1,1.3,0.1,1.9C661,446.4,661,451.9,661,457.4z"/>
	<path fill="#151D38" d="M644,364.3c0,10.2,0.2,18.7,1.5,27.2c0.5,2.9,1,5.8,2.3,8.5c0.1,0.2,0.2,0.4,0.3,0.7c0.3,0.8,0,1.4-0.7,1.8
		c-0.7,0.4-1.4,0.2-1.9-0.5c-0.7-1-1.1-2.1-1.5-3.3c-1.4-4.3-1.9-8.7-2.3-13.2c-1.1-12.5-0.8-25-0.4-37.6c0-0.6,0-1.1,0.2-1.7
		c0.2-0.8,0.7-1.3,1.6-1.2c0.9,0.1,1.2,0.7,1.3,1.4c0.1,0.4,0,0.8,0,1.2C644,353.8,644,359.8,644,364.3z"/>
	<path fill="#151D38" d="M660.2,575.1c0-7.4,1.6-14.6,2.9-21.8c0.2-1,0.5-1.9,1.7-1.8c1,0.1,1.4,0.8,1.2,2.4
		c-0.6,3.8-1.3,7.5-2,11.3c-1.9,10.6-0.9,20.8,3.4,30.7c0.5,1.2,1.1,2.5,1.5,3.8c0.6,1.5,0.4,2.3-0.6,2.6c-1.2,0.4-1.8-0.4-2.2-1.3
		c-2-4.7-3.9-9.4-5-14.5C660.5,582.7,660.2,578.9,660.2,575.1z"/>
	<path fill="#151D38" d="M680.7,731.4c-19.4,0-38.7,0-58.1,0c-0.6,0-1.3,0-1.9,0c-1.1,0.1-1.6-0.3-1.6-1.5c0-6.5,0-13,0-19.4
		c0-1,0.3-1.5,1.4-1.5c0.6,0,1.1,0,1.7,0c38.9,0,77.9,0,116.8,0c3.3,0,3-0.3,3,2.9c0,5.6,0,11.2,0,16.8c0,2.9,0.1,2.6-2.6,2.6
		c-12.4,0-24.8,0-37.2,0C695.1,731.4,687.9,731.4,680.7,731.4z"/>
	<path fill="#EDC062" d="M680.8,712.1c-1.7,0-3.4,0-5,0c-16.9,0-33.8,0-50.6,0c-3.2,0-2.9-0.3-2.9,3c0,3.4,0,6.9,0,10.3
		c0,3.4-0.1,3,3,3c37,0,73.9,0,110.9,0c0.2,0,0.3,0,0.5,0c2.5,0,2.5,0,2.5-2.4c0-3.8,0-7.7,0-11.5c0-2.3,0-2.3-2.4-2.4
		c-0.6,0-1.1,0-1.7,0C717,712.1,698.9,712.1,680.8,712.1z"/>
	<path fill="#151D38" d="M761.8,600.5c-1,0-1.5-0.3-1.8-1c-0.2-0.7,0-1.3,0.6-1.6c0.7-0.4,1.5-0.6,2.2-0.8
		c21.9-7.2,43.9-14.4,65.8-21.6c10.1-3.3,20.2-6.6,30.3-9.9c0.7-0.2,1.4-0.5,2.1-0.6c0.8-0.1,1.4,0.3,1.6,1.1
		c0.2,0.7-0.1,1.3-0.7,1.6c-0.5,0.3-1,0.4-1.6,0.6c-32.3,10.6-64.7,21.2-97,31.8C762.8,600.2,762.2,600.4,761.8,600.5z"/>
	<path fill="#151D38" d="M755.8,582.6c-0.9,0-1.5-0.4-1.7-1.2c-0.2-0.7,0.1-1.3,0.8-1.6c0.6-0.3,1.2-0.5,1.8-0.7
		c32.3-10.6,64.5-21.1,96.8-31.7c0.6-0.2,1.2-0.4,1.8-0.5c0.7-0.1,1.3,0.3,1.4,1c0.2,0.7,0,1.3-0.6,1.6c-0.8,0.4-1.6,0.6-2.5,0.9
		c-22.8,7.5-45.7,15-68.5,22.5c-9.2,3-18.4,6-27.5,9C757,582.2,756.4,582.4,755.8,582.6z"/>
	<path fill="#151D38" d="M749.8,564.1c-0.8,0-1.4-0.2-1.6-1c-0.2-0.7-0.1-1.3,0.6-1.7c0.6-0.3,1.3-0.6,2-0.8
		c32.3-10.6,64.5-21.1,96.8-31.7c0.5-0.2,1.1-0.4,1.6-0.5c0.8-0.1,1.4,0.3,1.6,1.1c0.2,0.7-0.1,1.3-0.7,1.6
		c-0.6,0.3-1.2,0.5-1.8,0.7c-28.2,9.2-56.3,18.5-84.5,27.7c-4.1,1.3-8.2,2.7-12.3,4C750.9,563.8,750.3,564,749.8,564.1z"/>
	<path fill="#151D38" d="M581.7,384.4c0.8,0.2,1.2,0.8,1.6,1.2c5,4.8,10,9.7,15,14.5c6.1,5.9,12.2,11.8,18.3,17.7
		c1.5,1.5,1.5,1.5,0.2,2.9c-14.5,15-29,30-43.6,45c-1.3,1.4-1.4,1.4-2.7,0c-11.2-10.8-22.4-21.7-33.6-32.5c-1.3-1.2-1.3-1.3,0-2.6
		c14.6-15,29.2-30.1,43.7-45.1C580.9,385.1,581.3,384.8,581.7,384.4z M581.8,388.7c-0.4,0.4-0.9,0.8-1.4,1.2
		c-4.3,4.4-8.6,8.8-12.9,13.3c-8.8,9.1-17.6,18.1-26.4,27.2c-1.4,1.5-1.4,1.5-0.3,2.6c9.9,9.6,19.8,19.1,29.6,28.7
		c0.9,0.9,1.5,1,2.3,0c0.2-0.3,0.4-0.5,0.7-0.7c12-12.3,23.9-24.7,35.9-37c1.1-1.1,2.2-2.3,3.3-3.4c0.9-0.9,0.9-1.6-0.1-2.3
		c-0.2-0.1-0.3-0.3-0.5-0.5c-6.4-6.2-12.7-12.4-19.1-18.5c-3.3-3.2-6.5-6.3-9.8-9.5C582.8,389.4,582.5,388.9,581.8,388.7z"/>
	<path fill="#151D38" d="M620.3,398c-0.2,0.2-0.3,0.5-0.5,0.7c-2.3,2.4-4.6,4.7-6.8,7.1c-0.8,0.8-1.3,0.6-1.9-0.1
		c-5.1-5-10.2-9.9-15.3-14.8c-0.9-0.8-0.7-1.4,0.1-2.1c2-2,3.9-4,5.8-6c1.7-1.7,1.7-1.7,3.3-0.1c4,3.8,7.9,7.7,11.8,11.5
		c1,0.9,2,1.9,2.9,2.8C619.9,397.2,620.3,397.5,620.3,398z M616,398c-0.1-0.5-0.4-0.8-0.7-1c-3.7-3.6-7.3-7.1-11-10.7
		c-0.7-0.7-1.2-0.9-1.9,0c-0.8,0.9-1.6,1.8-2.5,2.6c-0.8,0.7-0.7,1.2,0,1.9c3.7,3.5,7.3,7.1,11,10.6c0.3,0.3,0.6,0.5,1,0.6
		C612.4,402.1,616,398.4,616,398z"/>
	<path fill="#151D38" d="M591.6,369.9c0.1,0.5-0.2,0.7-0.4,0.9c-2.3,2.4-4.7,4.8-7,7.2c-0.7,0.7-1.2,0.6-1.8,0
		c-5.1-5-10.3-10-15.5-15c-0.8-0.7-0.7-1.2,0-1.9c2.2-2.2,4.4-4.4,6.5-6.7c0.7-0.8,1.3-1,2.1-0.1c5.1,5,10.3,10,15.4,15
		C591.3,369.5,591.5,369.8,591.6,369.9z M587.5,370.2c-0.2-0.3-0.3-0.5-0.5-0.6c-3.9-3.8-7.8-7.5-11.7-11.3c-0.6-0.5-1-0.3-1.4,0.2
		c-0.9,1-1.9,2-2.8,2.9c-0.6,0.6-0.5,1,0.1,1.6c3.8,3.6,7.6,7.3,11.3,11c0.6,0.5,1,0.6,1.6,0c0.9-1,1.9-1.9,2.8-2.9
		C587.1,370.7,587.3,370.4,587.5,370.2z"/>
	<path fill="#151D38" d="M578.5,498.3c-0.4-0.3-0.7-0.5-1-0.7c-5.2-5-10.3-10-15.5-15c-0.7-0.7-0.6-1.2,0-1.8
		c2.2-2.2,4.4-4.4,6.5-6.7c0.9-0.9,1.4-0.9,2.3,0c3.2,3.2,6.5,6.4,9.8,9.5c1.7,1.7,3.4,3.4,5.2,5c0.8,0.8,1.1,1.3,0.1,2.3
		c-2.2,2.2-4.4,4.5-6.5,6.7C579.2,497.8,578.9,498,578.5,498.3z M582.6,489.8c-0.2-0.2-0.3-0.5-0.5-0.6c-3.8-3.7-7.7-7.4-11.5-11.1
		c-0.6-0.5-1-0.6-1.6,0c-0.9,1-1.9,2-2.8,2.9c-0.6,0.6-0.4,1.1,0.1,1.6c0.8,0.7,1.5,1.4,2.2,2.2c2.9,2.8,5.9,5.6,8.7,8.5
		c0.9,0.9,1.5,0.9,2.3,0c0.8-0.9,1.7-1.7,2.5-2.6C582.2,490.3,582.4,490,582.6,489.8z"/>
	<path fill="#151D38" d="M558.2,461.9c-0.2,0.3-0.3,0.6-0.5,0.8c-2.4,2.5-4.8,4.9-7.2,7.4c-0.5,0.5-0.9,0.5-1.4,0
		c-1.2-1.2-2.5-2.4-3.8-3.7c-3.8-3.7-7.7-7.4-11.5-11.2c-1.3-1.2-1.3-1.3-0.2-2.4c2.2-2.2,4.4-4.4,6.5-6.7c0.7-0.8,1.2-0.7,1.9,0
		c5.1,5,10.2,9.9,15.3,14.8C557.6,461.3,557.9,461.6,558.2,461.9z M553.8,462c-0.1-0.1-0.2-0.4-0.4-0.5c-3.9-3.8-7.8-7.5-11.7-11.3
		c-0.4-0.4-0.8-0.4-1.2,0c-1,1-2,2.1-3,3.1c-0.6,0.6-0.4,1.1,0.1,1.6c3.8,3.6,7.6,7.3,11.3,11c0.2,0.2,0.5,0.5,0.8,0.5
		C550.2,466.4,553.8,462.4,553.8,462z"/>
	<path fill="#151D38" d="M529.5,434.1c-0.1,0.8-0.6,1.1-1,1.5c-1.9,2-3.9,4-5.8,6c-1.4,1.4-1.4,1.4-2.8,0.1
		c-4.2-4.1-8.4-8.1-12.6-12.2c-0.8-0.8-1.6-1.6-2.4-2.3c-0.9-0.7-0.7-1.2,0-1.9c2.2-2.3,4.5-4.6,6.7-6.9c0.8-0.8,1.2-0.6,1.9,0.1
		c5,4.9,10.1,9.8,15.1,14.7C529,433.5,529.2,433.9,529.5,434.1z M512.4,422c-0.2,0.1-0.4,0.3-0.7,0.5c-0.9,1-1.9,2-2.8,2.9
		c-0.6,0.6-0.5,1.1,0.1,1.6c3.8,3.6,7.6,7.3,11.3,11c0.6,0.6,1,0.6,1.6,0c0.9-0.9,1.7-1.9,2.7-2.7c0.8-0.8,0.6-1.3-0.1-1.9
		c-3.7-3.5-7.3-7.1-11-10.6C513.2,422.4,513,422.1,512.4,422z"/>
	<path fill="#151D38" d="M775,374.9c-11-0.1-18.4-11-14.4-21.1c0.7-1.7,0.6-2.8-0.7-4.2c-4.5-5.1-7.1-11.2-8.1-17.9
		c-0.2-1.5-0.8-2.1-2.2-2.6c-6.6-2.4-10.4-8.5-10-15.6c0.4-6.5,5-12.1,11.4-13.9c3.1-0.8,6.2-0.8,9.2,0.4c1.2,0.5,2,0.4,3-0.5
		c5.8-5.3,12.6-8.4,20.4-9.2c1.4-0.1,1.6-1,2.1-1.9c2.9-6.1,7.8-9.2,14.5-9.1c10.1,0.1,17.4,10,14.5,19.7c-0.6,1.8-0.2,2.9,1,4.2
		c4.6,5.5,7.3,11.8,8.1,18.9c0.2,1.7,0.7,2.6,2.4,3.3c6.7,2.9,10.4,10.1,8.9,17.1c-1.5,7.2-7.7,12.4-15,12.5c-2.2,0-4.3-0.4-6.3-1.3
		c-1-0.5-1.7-0.4-2.6,0.3c-5.6,4.8-12.2,7.6-19.5,8.3c-1.3,0.1-1.5,0.9-1.8,1.8c-1.9,5.5-5.7,8.9-11.3,10.4
		C777.2,374.8,776,374.8,775,374.9z M820.8,322.8c0-0.5-0.1-0.8-0.1-1.1c-0.9-6.1-3.2-11.5-7.1-16.3c-1.1-1.4-1.1-1.4-2.4-0.1
		c-4.3,4.3-9.5,5.9-15.4,4.3c-6.7-1.7-11.2-7.5-11.5-14.5c-0.1-2-0.1-2-2-1.7c-6.1,1-11.4,3.5-16.1,7.5c-1.5,1.3-1.6,1.3-0.2,2.7
		c4.6,4.7,5.9,10.2,3.7,16.3c-2.2,6.1-6.9,9.4-13.3,10.2c-1.6,0.2-1.6,0.2-1.4,1.9c1,6,3.6,11.2,7.4,15.9c0.8,1,1.4,0.8,2.2,0
		c4.7-4.1,10.1-5.2,15.9-3c5.9,2.2,9.1,6.7,10,12.9c0.2,1.7,0.3,1.7,1.9,1.4c5.5-0.9,10.6-2.9,15.1-6.2c2.1-1.5,2.1-1.5,0.4-3.5
		c-7.2-8.5-3.5-21.6,7.2-24.9c1.5-0.5,2.9-0.8,4.5-0.7C820.6,324,820.9,323.6,820.8,322.8z M762.5,359.4c0,5.7,3.7,10.6,9.2,12.1
		c5.5,1.5,11.3-0.9,14.2-5.9c1.5-2.7,1.5-2.8-1.7-3.1c-6.7-0.6-12.7-3-18.1-6.9c-0.5-0.3-0.9-0.7-1.3-1c-0.7-0.6-1.1-0.3-1.4,0.5
		C762.8,356.4,762.5,357.8,762.5,359.4z M832.2,339.3c0-1.6-0.4-3.2-1-4.7c-1.1-2.6-2.8-4.6-5.3-6c-1.8-1-1.9-1-2.2,1
		c-0.2,1.1-0.3,2.2-0.5,3.3c-1.2,6.2-3.7,11.7-7.7,16.5c-1.1,1.4-1.1,1.4,0.6,2C824.1,353.9,832.3,347.7,832.2,339.3z M742.5,315.3
		c0.3,4.1,2.2,7.8,6.4,10.2c2.5,1.4,2.5,1,2.6-1.4c0.4-7.1,2.8-13.5,6.9-19.3c0.2-0.3,0.5-0.6,0.7-1c0.3-0.5,0.3-0.9-0.3-1.1
		c-0.4-0.1-0.8-0.3-1.1-0.3C750,300.7,742.5,306.8,742.5,315.3z M791.2,293.2c-3.9-0.2-4-0.1-4,1.9c0.1,4.9,3.3,9.5,8,11.3
		c4.6,1.8,10.1,0.6,13.5-2.9c1.4-1.5,1.5-1.7-0.1-3C803.2,296.1,797,293.7,791.2,293.2z M812.3,294.8c0-5.5-3.5-10.3-8.6-11.9
		c-5.2-1.7-10.8,0.2-14,4.6c-1.6,2.2-1.5,2.5,1.2,2.7c6.9,0.6,13,3,18.6,7c0.7,0.5,1.3,1.6,2.1,1.2c0.9-0.4,0.6-1.7,0.7-2.6
		C812.2,295.4,812.2,295.1,812.3,294.8z M754.4,324.4c0,0.3,0,0.8,0,1.3c-0.1,1.2,0.4,1.5,1.5,1.5c4.8-0.3,9.3-3.7,10.9-8.4
		c1.6-4.6,0.3-10.1-3.2-13.2c-1.1-1-1.2-1-2.2,0.2C757.2,311.3,754.9,317.4,754.4,324.4z M807.2,339.5c0,3.4,1.3,6.4,3.7,8.8
		c0.7,0.7,1.1,0.7,1.8-0.1c4.9-5.7,7.7-12.3,8.2-19.8c0.1-1.4-0.2-1.6-1.7-1.6C812.6,327.2,807.2,332.8,807.2,339.5z M776.5,346.9
		c-4.7-0.1-7.5,1.1-10,3.2c-0.8,0.6-1,1.2-0.1,1.9c5.7,4.6,12.2,7.2,19.5,7.5c1.4,0.1,1.5-0.1,1.4-1.5
		C786.8,351.8,781.4,347,776.5,346.9z"/>
	<path fill="#151D38" d="M799.1,326.3c0,6.3-5.2,11.5-11.5,11.4c-6.3,0-11.4-5.2-11.4-11.5c0-6.3,5.2-11.4,11.5-11.4
		C794,314.9,799.1,320.1,799.1,326.3z M779.3,326.4c0,4.6,3.8,8.4,8.4,8.4c4.5,0,8.4-3.9,8.5-8.4c0-4.6-4-8.6-8.6-8.5
		C782.9,318,779.3,321.7,779.3,326.4z"/>
</g>
</svg>
