<?xml version="1.0" encoding="UTF-8" standalone="no"?>
<!-- Created with Inkscape (http://www.inkscape.org/) -->

<svg
   xmlns:dc="http://purl.org/dc/elements/1.1/"
   xmlns:cc="http://creativecommons.org/ns#"
   xmlns:rdf="http://www.w3.org/1999/02/22-rdf-syntax-ns#"
   xmlns:svg="http://www.w3.org/2000/svg"
   xmlns="http://www.w3.org/2000/svg"
   xmlns:sodipodi="http://sodipodi.sourceforge.net/DTD/sodipodi-0.dtd"
   xmlns:inkscape="http://www.inkscape.org/namespaces/inkscape"
   width="129.93185mm"
   height="77.836983mm"
   viewBox="0 0 129.93185 77.836983"
   version="1.1"
   id="svg8"
   inkscape:version="0.92.4 (5da689c313, 2019-01-14)"
   sodipodi:docname="splurmf news logo 2.svg">
  <defs
     id="defs2" />
  <sodipodi:namedview
     id="base"
     pagecolor="#ffffff"
     bordercolor="#666666"
     borderopacity="1.0"
     inkscape:pageopacity="0.0"
     inkscape:pageshadow="2"
     inkscape:zoom="0.98994949"
     inkscape:cx="553.9242"
     inkscape:cy="101.29663"
     inkscape:document-units="mm"
     inkscape:current-layer="layer1"
     showgrid="false"
     inkscape:snap-global="false"
     inkscape:window-width="1920"
     inkscape:window-height="1017"
     inkscape:window-x="1912"
     inkscape:window-y="-8"
     inkscape:window-maximized="1" />
  <metadata
     id="metadata5">
    <rdf:RDF>
      <cc:Work
         rdf:about="">
        <dc:format>image/svg+xml</dc:format>
        <dc:type
           rdf:resource="http://purl.org/dc/dcmitype/StillImage" />
        <dc:title></dc:title>
      </cc:Work>
    </rdf:RDF>
  </metadata>
  <g
     inkscape:label="Layer 1"
     inkscape:groupmode="layer"
     id="layer1"
     transform="translate(-22.965747,-65.914722)">
    <g
       id="g5429">
      <path
         sodipodi:nodetypes="ccccccccccc"
         inkscape:connector-curvature="0"
         id="path4828-8"
         d="m 59.293173,112.43954 5.604135,-0.11457 10.341607,21.9048 0.211218,-21.93151 5.117378,0.27343 -1.873669,29.33758 -4.944825,0.10109 -10.686713,-22.65385 -0.379908,21.74594 -4.791585,-0.46913 z"
         style="fill:#00b8b6;fill-opacity:1;stroke:none;stroke-width:0.24711861px;stroke-linecap:butt;stroke-linejoin:miter;stroke-opacity:1" />
      <path
         sodipodi:nodetypes="ssccccscccc"
         inkscape:connector-curvature="0"
         id="path4830-4"
         d="m 93.65337,119.4734 c -2.004246,0.0595 -4.76923,0.37331 -7.509517,3.88759 -10.316373,13.23021 10.801044,24.84839 15.760247,15.08557 l -0.47425,-5.59291 c 0,0 -10.029544,10.33096 -13.44254,-1.2433 l 13.95138,-2.1312 c 0,0 -0.85697,-10.22627 -8.28532,-10.00575 z m -1.230077,4.69901 c 2.177357,-0.1644 4.355607,2.06879 4.355607,2.06879 l -7.920087,1.08925 c 1.455367,-2.27002 2.423959,-3.0719 3.56448,-3.15804 z"
         style="fill:#00ba7f;fill-opacity:1;stroke:none;stroke-width:0.26458332px;stroke-linecap:butt;stroke-linejoin:miter;stroke-opacity:1" />
      <path
         sodipodi:nodetypes="ccccccccccccc"
         inkscape:connector-curvature="0"
         id="path4835-7"
         d="m 104.98084,119.54155 6.04249,-0.37067 2.19079,17.43241 5.27864,-11.78501 5.67652,11.29521 2.35557,-16.8701 5.48337,0.0912 -5.47499,22.32589 -4.70826,1.01085 -3.17769,-8.8899 -2.67585,9.25599 -5.87672,-0.97838 z"
         style="fill:#68f200;fill-opacity:1;stroke:none;stroke-width:0.26458332px;stroke-linecap:butt;stroke-linejoin:miter;stroke-opacity:1" />
      <path
         transform="matrix(0.95202448,-0.02203098,0.01852696,1.0257885,36.577302,23.973534)"
         d="m 111.74805,94.597656 c -0.65187,-0.05427 -1.32069,-0.05193 -1.99805,0.02148 -1.80622,0.19576 -3.67105,0.928104 -5.35938,2.486328 -2.09998,1.938159 -2.96957,3.685591 -2.93554,5.251951 0.034,1.56637 0.97523,2.80367 2.10742,3.70899 2.26437,1.81064 5.46094,2.54687 5.46094,2.54687 a 0.59985282,0.59985282 0 0 0 0.004,0 c 0,0 1.63799,0.38635 3.18555,1.13086 0.77378,0.37226 1.51483,0.83607 1.99609,1.33594 0.48126,0.49987 0.69525,0.96885 0.60547,1.52734 -0.11794,0.73374 -0.3649,1.1997 -0.67968,1.51172 -0.31479,0.31202 -0.71873,0.49308 -1.24219,0.57031 -1.04692,0.15446 -2.52934,-0.18016 -3.99805,-0.74609 -2.93741,-1.13187 -5.80664,-3.09766 -5.80664,-3.09766 a 0.59985282,0.59985282 0 0 0 -0.85156,0.18164 l -2.05078,3.34766 a 0.59985282,0.59985282 0 0 0 0.21093,0.83203 c 0,0 3.95805,2.30823 8.26563,3.4082 2.15379,0.54999 4.40746,0.81485 6.36133,0.26758 1.95386,-0.54726 3.57008,-2.00614 4.17383,-4.58203 0.59721,-2.54802 -0.002,-4.47885 -1.24024,-5.82812 -1.23797,-1.34928 -3.02199,-2.14909 -4.80078,-2.8086 -1.77879,-0.6595 -3.57415,-1.1803 -4.8125,-1.82422 -0.61917,-0.32196 -1.08767,-0.6702 -1.36719,-1.03515 -0.25746,-0.33616 -0.34319,-0.69631 -0.31445,-1.16407 0.82075,-1.47903 1.80174,-2.118422 2.9043,-2.298823 1.14002,-0.186532 2.44798,0.129424 3.68359,0.675783 2.47122,1.09271 4.57227,3.04492 4.57227,3.04492 a 0.59985282,0.59985282 0 0 0 0.97656,-0.23828 l 1.43164,-4.087892 a 0.59985282,0.59985282 0 0 0 -0.1875,-0.664062 c 0,0 -3.73189,-3.094738 -8.29492,-3.47461 z"
         id="path4749-6-0"
         style="fill:#ffda00;fill-opacity:1;stroke:none;stroke-width:0.16435663px;stroke-linecap:butt;stroke-linejoin:miter;stroke-opacity:1"
         inkscape:original="M 109.81445 95.214844 C 108.12135 95.398345 106.39382 96.072998 104.79688 97.546875 C 96.680662 105.03764 109.16406 108.0293 109.16406 108.0293 C 109.16406 108.0293 115.90483 109.60142 115.40625 112.70312 C 114.34235 119.32176 102.74805 111.33984 102.74805 111.33984 L 100.69727 114.6875 C 100.69727 114.6875 116.35827 123.78509 118.61328 114.16406 C 120.86828 104.54303 105.43945 106.85002 106.03906 101.47461 C 109.65655 94.591746 118.23242 102.625 118.23242 102.625 L 119.66406 98.537109 C 119.66406 98.537109 114.89377 94.664339 109.81445 95.214844 z "
         inkscape:radius="0.59979284"
         sodipodi:type="inkscape:offset" />
      <path
         sodipodi:nodetypes="ccccccscsc"
         inkscape:connector-curvature="0"
         id="path4749-7"
         d="m 44.032095,78.945694 -1.827845,5.043244 c 0,0 -8.233868,-10.136646 -12.212108,0.615145 -0.440512,6.250957 15.818027,3.29661 13.019213,17.496007 -1.354787,9.08625 -13.147409,7.79113 -20.045608,2.17268 l 2.260948,-5.233425 c 0,0 12.345018,9.187345 13.799992,0.817823 0.628841,-3.617311 -8.540767,-6.229639 -8.540767,-6.229639 0,0 -10.796799,-4.990803 -3.10704,-16.083516 6.67236,-9.625081 16.653215,1.40168 16.653215,1.401681 z"
         style="fill:#00b2ff;fill-opacity:1;stroke:none;stroke-width:0.16435663px;stroke-linecap:butt;stroke-linejoin:miter;stroke-opacity:1" />
      <path
         sodipodi:nodetypes="ccccsccccc"
         inkscape:connector-curvature="0"
         id="path4751-9"
         d="m 46.161066,88.201519 -0.554812,32.605511 4.696859,0.59983 -0.547133,-15.11116 c 0,0 9.614327,5.9853 12.755642,-4.10184 C 66.249113,90.192308 46.161066,88.201519 46.161066,88.201519 Z m 4.800587,6.484636 c 0,-3e-6 8.13955,1.476237 6.654396,6.703235 -1.494985,3.34946 -6.811358,-0.70922 -6.811358,-0.70922 z"
         style="fill:#00b8b6;fill-opacity:1;stroke:none;stroke-width:0.16435663px;stroke-linecap:butt;stroke-linejoin:miter;stroke-opacity:1" />
      <path
         sodipodi:nodetypes="ccccc"
         inkscape:connector-curvature="0"
         id="path4753-6"
         d="m 64.470107,75.5443 1.628178,33.18144 4.963559,-0.15637 -0.543128,-33.189589 z"
         style="fill:#00ba7f;fill-opacity:1;stroke:none;stroke-width:0.16435663px;stroke-linecap:butt;stroke-linejoin:miter;stroke-opacity:1" />
      <path
         sodipodi:nodetypes="ccsccsc"
         inkscape:connector-curvature="0"
         id="path4755-8"
         d="m 74.20577,87.82754 5.141061,-0.426896 c 0,0 -1.913309,15.491696 4.139011,16.777836 7.35799,1.5636 5.429642,-17.112166 5.429642,-17.112166 l 4.449659,0.09358 c 0,0 2.80049,23.977516 -9.906055,22.548776 C 70.752563,108.27993 74.20577,87.82754 74.20577,87.82754 Z"
         style="fill:#35d762;fill-opacity:1;stroke:none;stroke-width:0.16435663px;stroke-linecap:butt;stroke-linejoin:miter;stroke-opacity:1" />
      <path
         sodipodi:nodetypes="cccccccc"
         inkscape:connector-curvature="0"
         id="path4759-6"
         d="m 97.50049,86.612707 4.23264,0.09521 -0.2816,5.844991 c -0.0544,-7.239674 9.39889,-5.532448 9.39889,-5.532448 l 0.0496,6.604618 c -9.73352,-5.303995 -8.66769,16.196552 -8.66769,16.196552 l -4.991222,0.0375 z"
         style="fill:#68f200;fill-opacity:1;stroke:none;stroke-width:0.16435663px;stroke-linecap:butt;stroke-linejoin:miter;stroke-opacity:1" />
      <path
         sodipodi:nodetypes="cccsccsccscccc"
         inkscape:connector-curvature="0"
         id="path4761-5"
         d="m 114.76614,88.261226 -0.37931,21.723104 4.88368,0.0903 c 0,0 -1.74784,-15.991263 1.94037,-16.145997 3.68821,-0.154735 1.9639,15.862617 1.9639,15.862617 l 4.66476,-0.16207 c 0,0 -1.3041,-15.699657 2.91787,-16.026325 3.63646,-0.281365 1.20532,15.995335 1.20532,15.995335 l 4.12223,-0.15799 c 0,0 2.10585,-23.00627 -5.47232,-20.66298 -2.65456,0.82083 -4.85123,4.228083 -4.85123,4.228083 0,0 -4.84103,-8.854953 -7.81522,-0.322327 l 0.18647,-4.06601 z"
         style="fill:#a9ec00;fill-opacity:1;stroke:none;stroke-width:0.16435663px;stroke-linecap:butt;stroke-linejoin:miter;stroke-opacity:1" />
      <path
         sodipodi:nodetypes="ccccccccccccc"
         inkscape:connector-curvature="0"
         id="path4763-3"
         d="m 143.2532,108.77218 4.61893,-0.0347 -1.64219,-22.099892 5.92533,0.144467 -0.0548,-4.913417 -5.11852,-0.528518 c 0,0 -2.74167,-10.246203 5.24076,-8.355093 l 0.11994,-6.804664 C 137.7712,63.577057 141.39786,80.965707 141.39786,80.965707 l -5.79629,-0.08342 0.63834,5.263395 4.96323,0.246194 z"
         style="fill:#ffda00;fill-opacity:1;stroke:none;stroke-width:0.25173357px;stroke-linecap:butt;stroke-linejoin:miter;stroke-opacity:1" />
      <path
         inkscape:connector-curvature="0"
         id="path4871-6"
         d="m 78.120793,116.66817 71.917847,0.21963 -0.93134,-4.90404 -73.274003,0.4648 z"
         style="fill:#00b8b6;fill-opacity:1;stroke:none;stroke-width:0.21748616px;stroke-linecap:butt;stroke-linejoin:miter;stroke-opacity:1" />
    </g>
  </g>
</svg>
