<?xml version="1.0" encoding="UTF-8" standalone="no"?>
<svg
   xmlns:osb="http://www.openswatchbook.org/uri/2009/osb"
   xmlns:dc="http://purl.org/dc/elements/1.1/"
   xmlns:cc="http://creativecommons.org/ns#"
   xmlns:rdf="http://www.w3.org/1999/02/22-rdf-syntax-ns#"
   xmlns:svg="http://www.w3.org/2000/svg"
   xmlns="http://www.w3.org/2000/svg"
   id="svg8"
   version="1.1"
   viewBox="0 0 12.7 12.7"
   height="48"
   width="48">
  <defs
     id="defs2">
    <linearGradient
       osb:paint="solid"
       id="linearGradient2861">
      <stop
         id="stop2859"
         offset="0"
         style="stop-color:#000000;stop-opacity:1;" />
    </linearGradient>
  </defs>
  <metadata
     id="metadata5">
    <rdf:RDF>
      <cc:Work
         rdf:about="">
        <dc:format>image/svg+xml</dc:format>
        <dc:type
           rdf:resource="http://purl.org/dc/dcmitype/StillImage" />
        <dc:title></dc:title>
      </cc:Work>
    </rdf:RDF>
  </metadata>
  <g
     id="layer3">
    <path
       id="path925"
       d="M 12.268993,11.992656 10.987619,9.1365798 c 0,0 3.491702,-7.3941181 -2.9244214,-8.64483517 C 2.3076096,-0.63021191 1.2149978,3.1444644 0.97064708,5.3236484 0.79145535,6.9217273 1.5113832,10.373274 4.8362505,11.075914 c 1.967667,0.373644 4.0000779,-0.09861 4.0000779,-0.09861 z"
       style="display:inline;fill:#214f73;fill-opacity:1;stroke:none;stroke-width:0.332016px;stroke-linecap:butt;stroke-linejoin:miter;stroke-opacity:1" />
  </g>
  <g
     style="display:inline"
     id="layer1">
    <path
       style="display:inline;fill:#f19eba;fill-opacity:1;stroke:none;stroke-width:0.326266;stroke-linecap:butt;stroke-linejoin:miter;stroke-miterlimit:4;stroke-dasharray:none;stroke-opacity:1"
       d="m 6.2273137,5.2331969 c 0,0 -1.8823785,-3.3198804 -2.7563558,-2.3995173 C 2.5969932,3.7540426 3.0658082,7.1068206 6.1600826,9.0789991 7.1797101,8.5996566 9.3528662,7.0668238 9.8240439,5.5947664 10.361866,3.688302 9.8273561,2.5614195 8.7820018,2.5049804 7.5201032,2.4368499 6.2273391,5.2331982 6.2273391,5.2331982 Z"
       id="path85" />
  </g>
</svg>
