<svg width="52" height="52" viewBox="0 0 52 52" fill="none" xmlns="http://www.w3.org/2000/svg">
<path d="M19.2544 16.5562C19.2544 18.0473 18.3314 19.2544 16.5562 19.2544C14.9231 19.2544 13.858 18.0473 13.858 16.6982C13.858 15.2071 14.9231 13.858 16.5562 13.858C18.1894 13.858 19.2544 15.0651 19.2544 16.5562Z" fill="black"/>
<path d="M19.2544 20.6035H13.858V38.1419H19.2544V20.6035Z" fill="black"/>
<path d="M32.2485 20.8165C29.4083 20.8165 27.7752 22.4497 27.1361 23.5147H26.9941L26.7101 21.2425H21.8817C21.8817 22.7337 22.0237 24.5088 22.0237 26.497V38.071H27.4201V28.4852C27.4201 27.9171 27.4201 27.5621 27.5622 27.1361C27.9882 26.213 28.6272 25.0059 30.1184 25.0059C32.0355 25.0059 32.8166 26.639 32.8166 28.7692V38.071H38.2131V28.1301C38.142 23.1597 35.5858 20.8165 32.2485 20.8165Z" fill="black"/>
<path d="M41.0533 50H10.9467C5.97632 50 2 46.0237 2 41.0533V10.9467C2 5.97632 5.97632 2 10.9467 2H41.0533C46.0237 2 50 5.97632 50 10.9467V41.0533C50 45.9527 46.0237 50 41.0533 50Z" stroke="black" stroke-width="4" stroke-miterlimit="10" stroke-linecap="round" stroke-linejoin="round"/>
</svg>
