<svg width="52" height="52" viewBox="0 0 52 52" fill="none" xmlns="http://www.w3.org/2000/svg">
<path d="M11.2308 35.3235C14.497 35.6071 17.3373 34.8272 19.9645 32.9838C19.3965 32.842 18.8994 32.7711 18.4734 32.6293C16.6982 32.0621 15.4911 30.9276 14.7101 29.226C14.497 28.7297 14.497 28.6588 15.0651 28.6588C15.6331 28.6588 16.2012 28.7297 16.9112 28.517C15.8462 28.2334 14.9941 27.7371 14.284 27.099C13.1479 26.0355 12.4379 24.6884 12.3669 23.1285C12.2959 22.4904 12.3669 22.4195 12.9349 22.7031C13.503 22.9867 14.071 23.1285 14.7811 23.1285C14.355 22.6322 13.858 22.2777 13.574 21.7814C12.2249 19.8671 12.0118 17.811 12.9349 15.6839C13.1479 15.1167 13.2899 15.1167 13.716 15.5421C15.7752 17.811 18.1894 19.5126 21.1006 20.5052C22.3787 20.9306 23.6568 21.2142 25.0059 21.356C25.716 21.4269 25.787 21.356 25.645 20.647C25.361 18.2364 26.7101 15.7548 28.9112 14.6204C31.1124 13.486 33.9527 13.7696 35.7278 15.4712C36.0828 15.8257 36.4379 15.8257 36.8639 15.7548C37.787 15.4712 38.7101 15.1876 39.5621 14.6913C39.7041 14.6204 39.8462 14.4786 40.0592 14.5495C39.6331 15.8257 38.8521 16.8183 37.787 17.6692C38.7811 17.5274 39.7752 17.2437 40.7692 16.8892C40.7692 17.2437 40.5562 17.3855 40.4852 17.5982C39.8462 18.3782 39.2071 19.0872 38.426 19.6544C38.071 19.938 37.929 20.2216 37.929 20.7179C38 24.7593 36.7219 28.3752 34.3077 31.5658C31.4675 35.3944 27.5621 37.5214 22.8757 38.0886C18.8994 38.4432 15.2071 37.7341 11.7988 35.7489C11.6568 35.678 11.5858 35.6071 11.4438 35.5362C11.4438 35.5362 11.3728 35.4653 11.2308 35.3235Z" fill="black"/>
<path d="M41.0533 50H10.9467C5.97633 50 2 46.0295 2 41.0665V10.9335C2 5.97046 5.97633 2 10.9467 2H41.0533C46.0237 2 50 5.97046 50 10.9335V40.9956C50 45.9586 46.0237 50 41.0533 50Z" stroke="black" stroke-width="4" stroke-miterlimit="10" stroke-linecap="round" stroke-linejoin="round"/>
</svg>
