<svg xmlns="http://www.w3.org/2000/svg" xmlns:xlink="http://www.w3.org/1999/xlink" version="1.1" x="0px" y="0px" viewBox="0 0 100 125" enable-background="new 0 0 100 100" xml:space="preserve"><g><polygon points="7.985,12.062 83.861,87.938 91.639,87.938 15.765,12.062  "/><path d="M5,22.213v0.24v55.094v0.31v7.471L36.437,53.89l2.798,2.799L7.985,87.938h7.779l27.358-27.361l2.8,2.799L21.36,87.938   h7.779l20.673-20.672l20.673,20.672h7.779L5,14.674V22.213z M10.5,27.953l3.958,3.957v36.179L10.5,72.047V27.953z M19.958,37.411   l3.958,3.958v17.262l-3.958,3.958V37.411z M29.416,53.131v-6.262L32.548,50L29.416,53.131z"/><path d="M95,14.297L63.188,46.109l-2.799-2.799l31.25-31.248h-7.777L56.5,39.422l-2.798-2.798l24.562-24.562h-7.779L49.812,32.734   L29.14,12.062H21.36L95,85.703v-7.781l-0.065-0.065H95V22.213h-0.135L95,22.078V14.297z M80.042,37.035v25.929l-3.958-3.958V40.994   L80.042,37.035z M70.584,46.494v7.012L67.078,50L70.584,46.494z M89.5,72.423l-3.958-3.959V31.536l3.958-3.958V72.423z"/></g><text x="0" y="115" fill="#000000" font-size="5px" font-weight="bold" font-family="'Helvetica Neue', Helvetica, Arial-Unicode, Arial, Sans-serif">Created by Aaron K. Kim</text><text x="0" y="120" fill="#000000" font-size="5px" font-weight="bold" font-family="'Helvetica Neue', Helvetica, Arial-Unicode, Arial, Sans-serif">from the Noun Project</text></svg>