<svg xmlns="http://www.w3.org/2000/svg" xmlns:xlink="http://www.w3.org/1999/xlink" xml:space="preserve" version="1.0" style="shape-rendering:geometricPrecision;text-rendering:geometricPrecision;image-rendering:optimizeQuality;" viewBox="0 0 329.43 422.45" x="0px" y="0px" fill-rule="evenodd" clip-rule="evenodd"><defs><style type="text/css">
   
    .fil0 {fill:black;fill-rule:nonzero}
   
  </style></defs><g><path class="fil0" d="M281.96 50.11c4.72,5 4.3,5.38 3.54,6.08 -0.75,0.82 -1.72,1.85 0.7,6.63 2.41,4.95 6.22,8.86 9.98,12.83 4.93,5 9.92,10.16 13.3,17.5 3.22,7.77 0.75,10.27 -1.82,13.09 -2.25,2.45 -4.61,5.05 -3.06,11.68 1.6,6.9 6.33,11.19 10.89,15.43 5.79,5.32 12.01,10.49 13.67,19.56 1.5,9.18 -3.48,13.53 -8.58,18.15 -4.18,3.91 -8.47,7.93 -9.44,15.26 -0.7,7.39 2.36,10.76 5.3,13.86 3.65,3.75 7.14,7.06 4.13,15.97 -3.11,8.53 -8.74,14.02 -14.15,19.29 -4.19,4.23 -8.26,8.42 -10.24,14.45 -1.82,5.7 -0.11,7.5 1.44,9.18 1.66,1.74 3.06,3.21 -0.75,9.51 -3.97,6.03 -8.53,10.87 -13.14,15.65 -3.75,3.74 -7.46,7.55 -10.56,11.63 -1.18,0.97 -2.36,1.79 -3.44,2.71 3.92,-5.82 8.63,-10.49 13.19,-15.22 3.7,-3.8 7.46,-7.66 10.08,-12.22 2.79,-4.78 1.5,-6.08 0.22,-7.44 -2.09,-2.06 -4.29,-4.4 -1.98,-12.33 2.41,-8.16 7.51,-13.42 12.6,-18.64 4.4,-4.24 8.9,-8.59 10.88,-15.05 2.04,-6.69 -0.64,-9.51 -3.59,-12.5 -3.92,-4.02 -7.78,-8.2 -6.54,-18.37 0.97,-10.27 6.11,-15.26 11.15,-20.1 3.96,-3.7 8.04,-7.33 6.75,-14.34 -0.91,-6.96 -5.68,-11.14 -10.62,-15.38 -5.52,-5.32 -11.1,-10.71 -13.08,-20.16 -2.04,-9.18 1.07,-12.55 3.97,-15.54 2.14,-2.28 4.13,-4.35 1.82,-10.1 -2.2,-5.65 -6.17,-9.72 -10.03,-13.74 -4.72,-5 -9.49,-9.73 -12.39,-16.68 -3.22,-6.58 -1.93,-7.94 -0.86,-8.86 0.54,-0.65 0.91,-1.09 -2.46,-4.83 1.07,0.98 2.04,2.06 3.11,3.04zm-222.21 -10.59c-4.02,5.7 -8.69,10.38 -13.24,15.16 -3.75,3.75 -7.4,7.72 -10.13,12.28 -2.68,4.78 -1.44,5.97 -0.11,7.44 1.98,1.96 4.29,4.35 1.82,12.23 -2.25,8.2 -7.4,13.42 -12.44,18.69 -4.4,4.24 -8.95,8.59 -10.88,15.05 -2.15,6.68 0.48,9.45 3.53,12.49 3.92,4.02 7.72,8.21 6.6,18.36 -1.07,10.27 -6.27,15.22 -11.37,20.11 -3.97,3.7 -7.99,7.22 -6.76,14.29 0.91,6.96 5.84,11.19 10.67,15.48 5.52,5.22 11.1,10.54 13.14,20.05 2.04,9.24 -1.13,12.6 -4.02,15.54 -2.14,2.28 -4.18,4.29 -1.88,10.16 2.25,5.6 6.22,9.72 10.13,13.69 4.72,4.99 9.44,9.78 12.44,16.68 3.12,6.63 1.77,7.98 0.86,8.85 -0.64,0.71 -1.02,1.03 2.31,4.83 -1.02,-0.97 -2.04,-2.01 -3.06,-2.99 -4.66,-5.05 -4.34,-5.48 -3.59,-6.2 0.86,-0.76 1.77,-1.74 -0.65,-6.52 -2.41,-4.99 -6.22,-8.86 -10.08,-12.88 -4.88,-4.99 -9.65,-10.1 -13.09,-17.5 -3.27,-7.71 -0.91,-10.27 1.72,-13.04 2.31,-2.44 4.67,-5.05 3.11,-11.73 -1.72,-6.85 -6.33,-11.14 -10.94,-15.44 -5.79,-5.32 -11.85,-10.43 -13.62,-19.61 -1.34,-9.18 3.49,-13.53 8.58,-18.09 4.24,-3.92 8.42,-7.88 9.49,-15.27 0.7,-7.39 -2.36,-10.76 -5.25,-13.8 -3.7,-3.75 -7.08,-7.12 -4.08,-15.97 3.11,-8.58 8.69,-14.01 14.05,-19.29 4.07,-4.29 8.26,-8.47 10.19,-14.45 1.88,-5.7 0.21,-7.49 -1.4,-9.12 -1.61,-1.74 -3,-3.32 0.75,-9.56 3.97,-6.03 8.58,-10.87 13.08,-15.59 3.76,-3.86 7.46,-7.66 10.67,-11.63 1.13,-0.92 2.2,-1.9 3.43,-2.71zm11.58 -7.72c-3.54,6.46 -8.31,11.24 -12.98,16.08 -3.76,3.7 -7.46,7.5 -9.81,12.44 -2.14,5.06 -0.43,6.85 1.39,8.75 2.52,2.55 5.36,5.43 3.6,13.63 -1.61,8.69 -6.44,13.64 -11.42,18.85 -3.97,4.08 -8.26,8.26 -9.76,15.1 -1.34,7.06 1.61,10.27 4.77,13.74 4.34,4.46 8.63,9.08 7.72,19.72 -0.59,10.92 -5.74,16.14 -10.89,21.35 -4.03,4.02 -8,7.99 -7.13,15.59 0.59,7.55 5.31,11.84 9.86,16.19 5.15,5.27 10.51,10.6 11.86,20.49 1.23,9.62 -2.36,13.36 -5.74,16.9 -2.57,2.71 -4.93,5.21 -3.38,11.3 1.72,5.98 5.52,9.83 9.33,13.75 4.67,4.83 9.33,9.62 11.74,17.06 2.63,7.12 0.7,8.96 -0.81,10.49 -1.13,1.09 -1.98,1.96 0.97,6.25 -1.18,-0.92 -2.36,-1.79 -3.48,-2.71 -4.19,-5.54 -3.28,-6.57 -1.93,-7.88 1.34,-1.25 2.79,-2.71 0.75,-7.88 -2.04,-5.27 -5.68,-9.18 -9.44,-13.04 -4.77,-4.78 -9.44,-9.73 -12.07,-17.5 -2.41,-8.2 0.43,-11.24 3.64,-14.5 2.74,-2.93 5.58,-5.98 4.45,-12.99 -0.91,-7.17 -5.47,-11.46 -9.87,-15.76 -5.41,-5.27 -11.2,-10.59 -12.44,-20.59 -1.07,-10.11 3.86,-14.89 8.96,-19.94 4.18,-4.13 8.36,-8.37 9.06,-16.3 0.49,-7.71 -2.79,-11.46 -6.06,-15.05 -4.19,-4.29 -7.88,-8.25 -5.63,-17.55 2.2,-9.18 7.46,-14.39 12.44,-19.56 4.07,-4.02 7.94,-8.15 9.28,-14.34 1.5,-6.03 -0.7,-8.26 -2.84,-10.43 -2.15,-2.28 -4.13,-4.35 -1.02,-11.14 3.27,-6.47 7.88,-11.2 12.49,-15.87 3.81,-3.8 7.62,-7.66 10.45,-12.17 1.23,-0.93 2.63,-1.69 3.92,-2.5zm13.14 -7.01c-3.16,7.22 -8.15,12.17 -13.03,17 -3.81,3.91 -7.56,7.83 -9.44,13.15 -1.77,5.49 0.32,7.6 2.63,9.94 3.11,3.1 6.43,6.47 5.2,15.16 -0.97,9.02 -5.79,13.91 -10.51,18.9 -4.02,4.02 -8.04,8.16 -8.95,15.27 -0.81,7.28 2.51,10.87 5.95,14.67 4.51,4.83 9.17,9.78 8.69,20.75 -0.32,11.14 -5.47,16.52 -10.57,21.9 -4.02,4.3 -8.1,8.47 -7.56,16.46 0.37,7.93 4.88,12.28 9.07,16.57 5.2,5.32 10.29,10.54 11.04,20.65 0.53,9.94 -3.44,14.17 -7.35,18.14 -3.06,3.1 -5.79,5.92 -4.66,12.33 1.13,6.2 4.93,10.1 8.69,13.96 4.71,4.78 9.44,9.56 11.36,17.55 2.1,7.82 -0.27,10.21 -2.36,12.27 -1.56,1.58 -2.84,2.77 -0.27,7.55 -1.29,-0.76 -2.68,-1.52 -3.97,-2.34 -3.7,-6.3 -2.2,-7.82 -0.27,-9.67 1.72,-1.69 3.59,-3.53 1.88,-9.13 -1.5,-5.82 -5.3,-9.62 -9.11,-13.48 -4.67,-4.78 -9.28,-9.62 -11.16,-17.77 -1.66,-8.53 1.77,-12.17 5.36,-15.91 3.06,-3.21 6.27,-6.63 5.68,-13.86 -0.59,-7.44 -4.67,-11.63 -9.07,-15.86 -5.15,-5.32 -10.51,-10.6 -11.48,-21.19 -0.64,-10.76 4.3,-15.97 9.39,-21.18 4.18,-4.35 8.31,-8.7 8.69,-16.9 0.37,-8.04 -3.16,-12.01 -6.87,-15.92 -4.4,-4.73 -8.47,-9.12 -7.07,-18.96 1.5,-9.46 6.54,-14.56 11.42,-19.56 3.81,-4.02 7.67,-7.93 8.53,-14.51 1.02,-6.35 -1.6,-9.02 -4.08,-11.46 -2.79,-2.88 -5.36,-5.43 -2.84,-12.72 2.68,-7.07 7.46,-11.79 12.12,-16.68 4.02,-3.86 7.94,-7.88 10.46,-12.93 1.5,-0.81 2.95,-1.47 4.45,-2.23zm14.58 -6.63c-2.73,8.1 -7.88,13.31 -12.92,18.58 -4.02,3.96 -7.94,7.93 -9.49,13.8 -1.44,5.92 1.18,8.47 3.8,11.25 3.65,3.42 7.46,7.22 6.71,16.51 -0.65,9.4 -5.36,14.23 -10.14,19.18 -3.75,3.97 -7.78,7.99 -8.2,15.32 -0.48,7.5 3.17,11.46 6.92,15.38 4.77,5.05 9.65,10.32 9.49,21.35 -0.11,11.19 -5.2,16.57 -10.3,22.06 -4.07,4.4 -8.2,8.69 -7.93,16.9 0.21,8.15 4.45,12.38 8.63,16.68 5.04,5.17 9.92,10.21 10.14,20.64 0.21,10.1 -4.24,14.73 -8.58,19.18 -3.33,3.37 -6.55,6.63 -5.85,13.31 0.8,6.52 4.61,10.38 8.36,14.23 4.88,4.83 9.7,9.72 11.16,18.36 1.82,8.64 -1.13,11.47 -3.7,14.08 -2.04,2.01 -3.76,3.69 -1.5,9.01 -1.5,-0.65 -3,-1.41 -4.45,-2.12 -3.27,-7.11 -1.13,-9.18 1.29,-11.52 2.14,-2.18 4.4,-4.4 3.11,-10.54 -1.29,-6.2 -5.15,-10.21 -9.06,-14.01 -4.67,-4.78 -9.38,-9.56 -10.73,-18.2 -1.02,-8.97 2.9,-12.98 6.92,-17.22 3.54,-3.53 7.08,-7.17 6.81,-14.61 -0.27,-7.6 -4.24,-11.79 -8.37,-15.92 -5.04,-5.27 -10.19,-10.49 -10.78,-21.41 -0.37,-11.13 4.72,-16.46 9.76,-21.89 4.13,-4.4 8.26,-8.75 8.42,-17 0.16,-8.15 -3.75,-12.39 -7.51,-16.46 -4.67,-5 -9.11,-9.78 -8.31,-19.94 0.8,-9.78 5.74,-14.73 10.4,-19.67 3.86,-3.91 7.67,-7.77 8.21,-14.67 0.59,-6.69 -2.41,-9.72 -5.31,-12.66 -3.27,-3.26 -6.37,-6.36 -4.39,-14.29 2.36,-7.61 7.18,-12.5 12.06,-17.5 4.14,-4.08 8.16,-8.31 10.35,-14.07 1.66,-0.76 3.33,-1.47 4.99,-2.12zm15.93 -6.25c-2.3,9.02 -7.56,14.56 -12.81,20.15 -4.08,4.18 -8.21,8.37 -9.49,14.78 -1.13,6.41 1.88,9.34 4.93,12.39 4.13,3.92 8.42,8.04 7.94,17.82 -0.27,9.89 -5.15,14.83 -9.92,19.78 -3.86,3.96 -7.77,7.88 -7.99,15.43 -0.05,7.66 3.75,11.68 7.72,15.86 5.04,5.22 10.08,10.49 10.13,21.51 0.05,11.14 -5.04,16.47 -10.13,21.9 -4.08,4.35 -8.21,8.8 -8.1,17.06 0.06,8.15 4.13,12.33 8.21,16.46 4.93,5.16 9.81,10.21 9.71,20.7 -0.06,10.37 -4.77,15.26 -9.6,19.94 -3.65,3.69 -7.19,7.22 -6.76,14.29 0.48,6.84 4.34,10.76 8.26,14.67 4.99,5.11 9.98,10.21 11.15,19.67 1.39,9.35 -2.04,12.66 -5.2,15.65 -2.36,2.34 -4.67,4.56 -2.58,10.65 -1.77,-0.71 -3.38,-1.36 -4.93,-2.06 -2.95,-7.93 -0.27,-10.54 2.73,-13.53 2.57,-2.5 5.25,-5.22 4.18,-11.9 -1.07,-6.63 -4.99,-10.76 -9.06,-14.83 -4.83,-4.79 -9.6,-9.73 -10.41,-18.8 -0.64,-9.35 3.7,-13.75 8.2,-18.42 3.75,-3.7 7.56,-7.66 7.56,-15.22 0.11,-7.71 -4.02,-11.73 -7.99,-15.91 -4.88,-5.16 -9.92,-10.27 -10.19,-21.35 -0.11,-11.2 5.04,-16.63 9.98,-22.11 4.18,-4.29 8.31,-8.69 8.31,-16.95 -0.05,-8.1 -4.08,-12.33 -8.04,-16.63 -4.93,-5.27 -9.7,-10.21 -9.38,-20.53 0.38,-10.05 5.2,-15.05 9.97,-19.83 3.76,-3.97 7.73,-7.88 8,-15.05 0.43,-7.12 -3,-10.38 -6.27,-13.64 -3.81,-3.86 -7.4,-7.33 -5.85,-15.86 1.88,-8.37 6.97,-13.58 12.01,-18.74 4.24,-4.4 8.47,-8.96 10.41,-15.37 1.71,-0.65 3.48,-1.31 5.3,-1.96zm16.89 -5.82c-1.66,9.89 -6.97,15.65 -12.23,21.57 -4.24,4.51 -8.42,8.91 -9.49,15.81 -0.86,6.95 2.52,10.21 6,13.63 4.56,4.3 9.28,8.75 9.07,19.07 -0.11,10.32 -5.21,15.32 -10.13,20.48 -3.97,3.92 -7.88,7.93 -7.88,15.65 0.11,7.77 4.13,11.9 8.21,16.14 5.2,5.27 10.4,10.54 10.51,21.46 0.16,11.03 -4.99,16.25 -10.03,21.63 -4.13,4.35 -8.26,8.64 -8.26,16.89 -0.16,8.1 3.92,12.23 7.99,16.36 4.83,5.11 9.92,10.16 9.71,20.8 -0.22,10.59 -5.31,15.65 -10.41,20.49 -3.91,3.86 -7.72,7.77 -7.61,15.1 0.32,7.17 4.29,11.24 8.42,15.43 5.04,5.22 10.3,10.7 11.15,20.75 1.07,10 -3.06,13.91 -6.71,17.39 -2.78,2.72 -5.41,5.38 -3.7,12.11 -1.88,-0.76 -3.7,-1.36 -5.36,-2.01 -2.58,-8.86 0.7,-11.95 4.18,-15.38 2.95,-2.93 6.12,-5.81 5.36,-13.14 -0.81,-7.34 -4.93,-11.57 -9.06,-15.76 -5.1,-5.16 -9.98,-10.16 -10.51,-19.89 -0.27,-9.78 4.39,-14.4 9.33,-19.18 3.97,-4.07 8.1,-8.04 8.21,-15.75 0.1,-7.88 -3.86,-11.96 -7.83,-16.03 -4.93,-5.16 -9.98,-10.27 -9.92,-21.3 0,-11.13 5.15,-16.51 10.14,-21.89 4.18,-4.3 8.26,-8.53 8.26,-16.63 -0.16,-8.15 -4.29,-12.44 -8.37,-16.67 -5.15,-5.38 -10.13,-10.54 -10.19,-21.03 0.06,-10.27 4.93,-15.27 9.76,-20.1 3.97,-4.02 7.94,-8.1 8.16,-15.6 0.21,-7.5 -3.6,-11.08 -7.19,-14.56 -4.34,-4.24 -8.41,-8.15 -7.13,-17.28 1.56,-9.24 6.75,-14.78 11.96,-20.1 4.29,-4.78 8.53,-9.62 9.98,-16.73 1.82,-0.6 3.7,-1.2 5.63,-1.74zm17.37 -4.35c-0.86,10.65 -5.84,16.19 -11.1,21.95 -4.18,4.83 -8.42,9.4 -9.22,16.84 -0.59,7.38 3.22,11.13 6.97,14.72 4.99,4.57 10.03,9.46 9.97,20.16 -0.1,10.65 -5.25,15.92 -10.51,20.97 -4.02,4.24 -8.1,8.31 -7.99,16.14 0.16,7.82 4.35,12.06 8.53,16.3 5.25,5.27 10.46,10.54 10.51,21.35 0.11,10.82 -4.99,16.03 -10.03,21.3 -4.13,4.24 -8.26,8.53 -8.36,16.63 -0.17,8.04 3.97,12.17 8.04,16.35 4.99,5.05 10.14,10.16 9.92,21.03 -0.05,10.7 -5.41,15.81 -10.67,20.91 -4.18,3.97 -8.31,7.88 -8.31,15.6 0.16,7.66 4.34,11.9 8.63,16.19 5.2,5.43 10.57,10.81 10.99,21.35 0.59,10.6 -3.97,15.32 -8.1,19.46 -3.38,3.15 -6.38,6.08 -5.1,13.53 -1.88,-0.54 -3.81,-1.03 -5.63,-1.69 -1.98,-9.67 1.77,-13.47 5.79,-17.44 3.38,-3.21 6.97,-6.52 6.43,-14.23 -0.37,-7.77 -4.72,-12.39 -8.9,-16.73 -5.36,-5.16 -10.41,-10.54 -10.73,-20.7 -0.05,-10.21 4.99,-15.16 10.13,-20.16 4.24,-4.08 8.53,-8.15 8.63,-16.08 0.16,-7.88 -3.97,-12.06 -8.04,-16.19 -4.93,-5.11 -10.03,-10.21 -9.82,-21.08 0.11,-11.03 5.15,-16.35 10.24,-21.68 4.13,-4.18 8.26,-8.42 8.15,-16.41 -0.11,-8.04 -4.24,-12.33 -8.42,-16.51 -5.31,-5.38 -10.41,-10.59 -10.57,-21.24 -0.16,-10.49 4.83,-15.54 9.92,-20.59 4.08,-4.13 8.26,-8.31 8.26,-16.14 0.16,-7.82 -3.91,-11.63 -7.83,-15.38 -4.77,-4.62 -9.33,-8.91 -8.42,-18.85 1.23,-9.94 6.38,-15.59 11.69,-21.24 4.24,-5 8.26,-9.78 9.22,-17.44 1.88,-0.22 3.65,-0.54 5.68,-0.98zm17.54 -1.68c0.11,10.76 -4.61,16.02 -9.44,21.35 -4.07,4.34 -8.25,9.12 -8.58,16.95 -0.32,7.82 3.81,11.57 7.89,15.65 5.25,5.16 10.56,10.27 10.56,21.08 -0.06,10.81 -5.42,16.08 -10.67,21.24 -4.29,4.24 -8.52,8.37 -8.47,16.3 0.11,7.93 4.39,12.17 8.63,16.41 5.15,5.16 10.35,10.32 10.29,21.13 0,10.82 -5.09,16.03 -10.13,21.24 -4.19,4.24 -8.26,8.48 -8.31,16.46 -0.1,7.99 4.02,12.12 8.21,16.3 5.15,5.16 10.35,10.32 10.29,21.13 0.05,10.76 -5.25,16.03 -10.62,21.19 -4.29,4.18 -8.63,8.25 -8.63,16.19 0.11,7.82 4.29,12.22 8.63,16.46 5.31,5.32 10.51,10.37 10.4,21.19 -0.05,10.81 -4.88,16.03 -9.54,21.02 -3.59,4.08 -7.08,7.55 -6.38,15.49 -1.99,-0.6 -3.92,-0.93 -5.8,-1.2 -1.07,-10.48 3.11,-15.05 7.62,-19.18 3.81,-4.08 7.61,-8.2 7.45,-16.13 0,-7.93 -4.18,-12.22 -8.58,-16.41 -5.36,-5.49 -10.57,-10.82 -10.78,-21.41 0.11,-10.65 5.31,-15.7 10.72,-20.81 4.3,-4.24 8.58,-8.42 8.63,-16.35 0,-7.98 -4.13,-12.17 -8.31,-16.3 -5.15,-5.21 -10.24,-10.32 -10.08,-21.13 0.1,-10.87 5.15,-16.08 10.19,-21.36 4.18,-4.13 8.31,-8.37 8.31,-16.35 0,-7.99 -4.18,-12.17 -8.41,-16.41 -5.21,-5.22 -10.46,-10.43 -10.67,-21.14 -0.11,-10.75 5.15,-15.97 10.35,-21.19 4.3,-4.18 8.58,-8.37 8.63,-16.3 0.06,-7.98 -4.29,-12.17 -8.47,-16.3 -5.09,-4.73 -10.08,-9.56 -9.55,-20.05 0.65,-10.54 5.9,-15.98 10.95,-22.06 3.96,-4.35 7.83,-8.69 7.93,-16.57 1.88,-0.16 3.92,-0.33 5.74,-0.16zm17.48 2.22c1.02,10.49 -3.16,15.05 -7.67,19.18 -3.7,4.08 -7.56,8.21 -7.51,16.13 0.11,7.93 4.35,12.22 8.58,16.46 5.36,5.43 10.62,10.76 10.84,21.35 -0.05,10.65 -5.31,15.7 -10.67,20.87 -4.24,4.18 -8.58,8.37 -8.63,16.35 0,7.93 4.18,12.17 8.31,16.3 5.15,5.11 10.25,10.27 10.09,21.14 -0.16,10.86 -5.21,16.03 -10.25,21.35 -4.18,4.14 -8.31,8.31 -8.31,16.3 0.05,7.98 4.24,12.22 8.47,16.46 5.26,5.22 10.51,10.37 10.73,21.13 0.05,10.71 -5.09,15.92 -10.4,21.08 -4.3,4.24 -8.63,8.43 -8.69,16.41 -0.06,7.94 4.23,12.11 8.47,16.3 5.15,4.67 10.08,9.56 9.6,20.05 -0.75,10.49 -5.9,15.97 -10.89,22.06 -4.02,4.35 -7.94,8.64 -7.99,16.62 -1.88,0.06 -3.76,0.16 -5.79,0.11 -0.11,-10.81 4.61,-16.08 9.43,-21.41 4.14,-4.29 8.26,-9.07 8.63,-16.94 0.27,-7.77 -3.86,-11.52 -7.94,-15.65 -5.25,-5.11 -10.51,-10.27 -10.51,-21.08 0,-10.76 5.36,-16.02 10.73,-21.24 4.24,-4.18 8.53,-8.37 8.42,-16.3 -0.11,-7.93 -4.39,-12.11 -8.63,-16.41 -5.2,-5.16 -10.35,-10.32 -10.35,-21.13 0.06,-10.76 5.15,-16.03 10.14,-21.24 4.13,-4.18 8.31,-8.42 8.37,-16.41 0.11,-8.04 -4.08,-12.17 -8.21,-16.35 -5.15,-5.17 -10.35,-10.33 -10.3,-21.08 -0.05,-10.87 5.26,-16.08 10.68,-21.24 4.24,-4.13 8.52,-8.26 8.52,-16.13 -0.06,-7.94 -4.39,-12.28 -8.63,-16.52 -5.3,-5.22 -10.51,-10.43 -10.4,-21.14 0.05,-10.81 4.83,-16.08 9.48,-21.08 3.7,-4.08 7.14,-7.55 6.55,-15.38 1.93,0.54 3.75,0.81 5.74,1.09zm17.32 4.89c1.88,9.67 -1.88,13.37 -5.84,17.39 -3.38,3.15 -6.97,6.52 -6.43,14.29 0.37,7.71 4.77,12.33 8.95,16.67 5.2,5.27 10.35,10.6 10.61,20.7 0.11,10.21 -4.88,15.16 -10.08,20.21 -4.18,4.02 -8.41,8.15 -8.63,16.08 -0.16,7.88 4.02,12 8.04,16.19 4.99,4.99 10.03,10.16 9.81,21.08 -0.05,11.03 -5.15,16.3 -10.24,21.57 -4.13,4.29 -8.2,8.48 -8.1,16.51 0.11,7.99 4.29,12.33 8.47,16.52 5.25,5.27 10.4,10.54 10.56,21.18 0.16,10.54 -4.77,15.54 -9.92,20.65 -4.13,4.18 -8.25,8.31 -8.41,16.14 -0.05,7.76 3.97,11.57 7.94,15.37 4.72,4.51 9.33,8.91 8.37,18.85 -1.18,9.94 -6.38,15.48 -11.64,21.24 -4.24,5 -8.31,9.84 -9.17,17.5 -1.98,0.22 -3.86,0.49 -5.74,0.93 0.75,-10.6 5.84,-16.13 11.05,-21.95 4.24,-4.89 8.47,-9.45 9.22,-16.79 0.64,-7.55 -3.11,-11.19 -6.92,-14.78 -5.04,-4.62 -10.08,-9.51 -10.03,-20.21 0.11,-10.65 5.36,-15.87 10.51,-20.97 4.19,-4.18 8.21,-8.31 8.1,-16.08 -0.16,-7.82 -4.4,-12.12 -8.53,-16.3 -5.31,-5.32 -10.51,-10.54 -10.61,-21.4 -0.06,-10.87 4.99,-16.03 9.97,-21.3 4.18,-4.29 8.37,-8.53 8.42,-16.57 0.22,-8.1 -3.91,-12.17 -7.99,-16.35 -4.99,-5.11 -10.14,-10.27 -9.98,-21.02 0.16,-10.76 5.52,-15.87 10.73,-20.97 4.13,-3.97 8.25,-7.88 8.25,-15.54 -0.16,-7.66 -4.39,-11.95 -8.53,-16.19 -5.3,-5.48 -10.67,-10.81 -11.15,-21.35 -0.54,-10.65 4.02,-15.26 8.25,-19.56 3.22,-3.1 6.27,-6.04 5.04,-13.42 1.88,0.54 3.7,1.03 5.63,1.68zm16.73 5.98c2.41,8.86 -0.81,11.84 -4.35,15.32 -3,2.93 -6.11,5.87 -5.25,13.15 0.75,7.33 4.88,11.57 9.01,15.75 5.04,5.11 10.03,10.21 10.51,19.83 0.38,9.83 -4.39,14.45 -9.28,19.28 -4.02,4.08 -8.04,8.04 -8.25,15.81 -0.16,7.88 3.92,11.84 7.83,15.97 4.93,5.06 10.09,10.21 9.92,21.3 0,11.14 -5.15,16.41 -10.18,21.89 -4.08,4.24 -8.21,8.53 -8.16,16.68 0.16,8.1 4.29,12.33 8.37,16.63 5.15,5.32 10.14,10.49 10.24,21.02 -0.05,10.27 -4.88,15.27 -9.76,20.11 -4.02,4.02 -8.04,8.2 -8.25,15.65 -0.21,7.44 3.6,11.08 7.29,14.56 4.24,4.13 8.42,8.15 7.08,17.28 -1.56,9.18 -6.76,14.77 -11.91,20.1 -4.34,4.78 -8.58,9.62 -10.13,16.73 -1.82,0.59 -3.64,1.2 -5.58,1.63 1.72,-9.83 6.97,-15.7 12.23,-21.46 4.34,-4.56 8.47,-8.91 9.54,-15.86 0.86,-7.01 -2.52,-10.27 -6.06,-13.64 -4.5,-4.35 -9.28,-8.8 -8.95,-19.06 0.1,-10.33 5.2,-15.38 10.13,-20.49 3.92,-3.97 7.99,-7.88 7.88,-15.65 -0.16,-7.77 -4.18,-11.96 -8.31,-16.13 -5.2,-5.38 -10.35,-10.6 -10.51,-21.52 -0.11,-11.03 4.99,-16.25 10.03,-21.57 4.18,-4.4 8.25,-8.69 8.31,-16.9 0.05,-8.15 -3.91,-12.27 -8.04,-16.35 -4.83,-5.17 -9.86,-10.21 -9.6,-20.86 0.21,-10.59 5.31,-15.7 10.35,-20.43 3.81,-3.91 7.78,-7.77 7.56,-15.1 -0.27,-7.22 -4.4,-11.3 -8.42,-15.43 -5.09,-5.27 -10.3,-10.7 -11.1,-20.81 -1.07,-10.05 2.9,-13.96 6.65,-17.38 2.84,-2.77 5.42,-5.32 3.7,-12.06 1.82,0.65 3.65,1.31 5.47,2.01zm15.55 6.31c2.89,7.98 0.21,10.54 -2.74,13.47 -2.57,2.55 -5.3,5.22 -4.18,11.85 1.02,6.73 4.99,10.81 9.01,14.88 4.77,4.83 9.65,9.72 10.46,18.8 0.65,9.34 -3.75,13.8 -8.2,18.37 -3.75,3.8 -7.56,7.71 -7.56,15.32 -0.11,7.77 3.97,11.79 7.88,15.86 4.99,5.11 10.08,10.33 10.19,21.41 0.16,11.19 -4.99,16.62 -9.92,22.05 -4.13,4.35 -8.25,8.69 -8.31,16.9 0.11,8.21 4.13,12.44 8.15,16.68 4.88,5.21 9.71,10.21 9.38,20.59 -0.38,10.06 -5.15,15 -9.92,19.83 -3.86,3.97 -7.83,7.88 -8.1,15.05 -0.37,7.11 3.01,10.37 6.28,13.58 3.8,3.8 7.5,7.44 5.84,15.86 -1.93,8.42 -6.97,13.58 -12.07,18.74 -4.24,4.45 -8.37,9.07 -10.41,15.48 -1.66,0.65 -3.43,1.36 -5.25,1.96 2.31,-9.02 7.51,-14.67 12.71,-20.27 4.18,-4.18 8.31,-8.31 9.6,-14.61 1.18,-6.57 -1.88,-9.5 -4.99,-12.5 -4.08,-3.96 -8.37,-8.1 -7.94,-17.82 0.33,-9.89 5.21,-14.88 10.03,-19.72 3.86,-4.07 7.78,-7.93 7.94,-15.48 0.05,-7.66 -3.7,-11.74 -7.78,-15.92 -5.04,-5.27 -10.08,-10.54 -10.13,-21.52 -0.06,-11.14 5.04,-16.46 10.08,-21.84 4.13,-4.4 8.31,-8.8 8.21,-17.06 -0.06,-8.16 -4.13,-12.39 -8.21,-16.52 -4.88,-5.21 -9.87,-10.27 -9.76,-20.75 0.11,-10.37 4.88,-15.21 9.6,-19.83 3.65,-3.75 7.18,-7.28 6.81,-14.29 -0.49,-6.9 -4.4,-10.81 -8.31,-14.78 -4.99,-5.11 -9.97,-10.21 -11.15,-19.67 -1.5,-9.28 1.98,-12.55 5.25,-15.59 2.41,-2.33 4.61,-4.56 2.52,-10.54 1.66,0.65 3.33,1.3 4.99,2.01zm14.26 6.68c3.27,7.07 1.13,9.07 -1.29,11.52 -2.1,2.06 -4.45,4.4 -3.06,10.49 1.24,6.2 5.15,10.16 9.01,14.01 4.72,4.79 9.44,9.62 10.73,18.26 1.07,8.96 -2.84,12.93 -6.97,17.22 -3.43,3.48 -6.92,7.11 -6.7,14.61 0.27,7.55 4.29,11.73 8.31,15.92 5.04,5.21 10.29,10.49 10.83,21.4 0.38,11.14 -4.77,16.41 -9.82,21.84 -4.08,4.41 -8.2,8.81 -8.31,17.06 -0.27,8.1 3.76,12.33 7.56,16.46 4.55,4.94 9.06,9.78 8.31,19.94 -0.86,9.78 -5.74,14.77 -10.46,19.66 -3.86,3.92 -7.67,7.83 -8.2,14.67 -0.65,6.63 2.36,9.67 5.2,12.55 3.38,3.37 6.44,6.47 4.4,14.35 -2.31,7.66 -7.08,12.55 -11.96,17.55 -4.13,4.07 -8.25,8.37 -10.46,14.12 -1.66,0.71 -3.27,1.41 -4.88,2.12 2.73,-8.15 7.78,-13.42 12.93,-18.58 3.97,-4.02 7.94,-7.99 9.44,-13.85 1.44,-5.92 -1.13,-8.48 -3.81,-11.25 -3.7,-3.53 -7.46,-7.28 -6.65,-16.46 0.64,-9.45 5.3,-14.34 10.08,-19.23 3.86,-3.97 7.83,-7.94 8.26,-15.32 0.43,-7.5 -3.21,-11.47 -6.97,-15.43 -4.77,-5.11 -9.6,-10.27 -9.49,-21.3 0.06,-11.25 5.2,-16.63 10.24,-22.06 4.13,-4.4 8.21,-8.75 8,-16.95 -0.27,-8.1 -4.56,-12.39 -8.58,-16.57 -5.1,-5.27 -10.03,-10.37 -10.19,-20.75 -0.21,-10.16 4.24,-14.72 8.53,-19.12 3.33,-3.42 6.55,-6.68 5.85,-13.31 -0.81,-6.52 -4.61,-10.43 -8.42,-14.24 -4.77,-4.89 -9.65,-9.78 -11.15,-18.41 -1.82,-8.64 1.07,-11.46 3.86,-14.07 1.93,-1.96 3.75,-3.7 1.39,-9.02 1.45,0.71 2.95,1.41 4.45,2.17zm12.76 7.17c3.7,6.25 2.2,7.82 0.27,9.67 -1.66,1.63 -3.59,3.53 -1.88,9.13 1.56,5.76 5.36,9.56 9.07,13.42 4.66,4.83 9.38,9.61 11.21,17.82 1.76,8.53 -1.72,12.06 -5.31,15.86 -3.11,3.27 -6.27,6.63 -5.74,13.91 0.59,7.39 4.72,11.58 9.07,15.81 5.2,5.32 10.61,10.65 11.53,21.24 0.69,10.76 -4.45,15.92 -9.44,21.19 -4.08,4.29 -8.21,8.69 -8.63,16.84 -0.32,8.1 3.22,12.06 6.92,15.92 4.4,4.78 8.53,9.12 7.08,19.01 -1.44,9.45 -6.43,14.56 -11.37,19.56 -3.86,4.02 -7.72,7.88 -8.63,14.45 -0.97,6.41 1.66,9.02 4.08,11.52 2.84,2.88 5.41,5.48 2.89,12.71 -2.73,7.06 -7.45,11.84 -12.17,16.63 -3.96,3.91 -7.93,7.88 -10.4,13.04 -1.55,0.71 -3,1.47 -4.45,2.18 3.11,-7.23 8.04,-12.17 12.92,-17.06 3.86,-3.86 7.72,-7.72 9.54,-13.1 1.77,-5.48 -0.37,-7.6 -2.63,-9.88 -3.11,-3.15 -6.43,-6.52 -5.25,-15.27 1.07,-8.96 5.84,-13.91 10.61,-18.8 4.02,-4.07 7.99,-8.2 8.95,-15.32 0.75,-7.28 -2.57,-10.92 -6,-14.62 -4.56,-4.89 -9.22,-9.89 -8.69,-20.81 0.32,-11.25 5.42,-16.57 10.46,-21.89 4.02,-4.34 8.15,-8.58 7.61,-16.51 -0.38,-7.99 -4.99,-12.28 -9.12,-16.52 -5.2,-5.32 -10.3,-10.59 -10.99,-20.69 -0.59,-9.89 3.37,-14.13 7.4,-18.15 2.89,-3.04 5.74,-5.98 4.56,-12.33 -1.13,-6.25 -4.99,-10.11 -8.63,-13.91 -4.72,-4.83 -9.49,-9.56 -11.42,-17.55 -2.09,-7.82 0.28,-10.27 2.42,-12.33 1.5,-1.52 2.84,-2.82 0.21,-7.55 1.23,0.76 2.63,1.52 3.97,2.39zm11.32 7.88c4.07,5.65 3.11,6.69 1.82,7.94 -1.29,1.25 -2.74,2.72 -0.7,7.82 1.98,5.27 5.74,9.18 9.54,12.98 4.67,4.89 9.38,9.78 11.96,17.6 2.47,8.2 -0.48,11.19 -3.64,14.51 -2.74,2.88 -5.58,5.92 -4.4,12.88 0.97,7.22 5.47,11.46 9.82,15.75 5.36,5.38 11.26,10.71 12.49,20.7 1.02,10.1 -3.86,14.89 -8.95,19.83 -4.18,4.18 -8.37,8.48 -9.06,16.35 -0.43,7.77 2.79,11.52 6.11,15.05 4.18,4.3 7.94,8.31 5.68,17.66 -2.14,9.18 -7.46,14.35 -12.49,19.46 -4.08,4.08 -7.99,8.2 -9.38,14.45 -1.34,6.03 0.86,8.26 2.84,10.27 2.31,2.44 4.29,4.46 1.13,11.3 -3.27,6.47 -7.94,11.14 -12.49,15.81 -3.86,3.8 -7.62,7.71 -10.41,12.28 -1.44,0.81 -2.67,1.63 -4.02,2.44 3.59,-6.47 8.37,-11.24 13.08,-16.02 3.7,-3.8 7.4,-7.66 9.71,-12.55 2.2,-5.11 0.48,-6.79 -1.34,-8.75 -2.57,-2.55 -5.31,-5.43 -3.65,-13.64 1.66,-8.69 6.49,-13.63 11.48,-18.79 4.08,-4.13 8.36,-8.31 9.81,-15.16 1.29,-7.06 -1.66,-10.27 -4.88,-13.74 -4.24,-4.45 -8.58,-9.12 -7.78,-19.77 0.69,-10.92 5.74,-16.14 10.83,-21.3 4.07,-4.08 8.04,-8.04 7.24,-15.65 -0.7,-7.55 -5.36,-11.84 -9.87,-16.14 -5.25,-5.32 -10.67,-10.65 -11.85,-20.54 -1.29,-9.67 2.36,-13.42 5.74,-16.9 2.52,-2.66 4.88,-5.21 3.38,-11.35 -1.77,-5.86 -5.63,-9.78 -9.33,-13.69 -4.67,-4.84 -9.38,-9.62 -11.8,-17.01 -2.57,-7.22 -0.69,-9.01 0.86,-10.54 1.07,-1.09 1.93,-1.96 -1.07,-6.14 1.18,0.81 2.36,1.74 3.6,2.6z"/></g><text x="0" y="352.96" fill="#000000" font-size="5px" font-weight="bold" font-family="'Helvetica Neue', Helvetica, Arial-Unicode, Arial, Sans-serif">Created by BÖCK</text><text x="0" y="357.96" fill="#000000" font-size="5px" font-weight="bold" font-family="'Helvetica Neue', Helvetica, Arial-Unicode, Arial, Sans-serif">from the Noun Project</text></svg>