<svg xmlns="http://www.w3.org/2000/svg" xmlns:xlink="http://www.w3.org/1999/xlink" xml:space="preserve" version="1.0" style="shape-rendering:geometricPrecision;text-rendering:geometricPrecision;image-rendering:optimizeQuality;" viewBox="0 0 164.41 205.6" x="0px" y="0px" fill-rule="evenodd" clip-rule="evenodd"><defs><style type="text/css">
   
    .fil0 {fill:black;fill-rule:nonzero}
   
  </style></defs><g><path class="fil0" d="M82.19 0.91c5.23,-0.05 5.23,0.16 5.23,0.53 0,0.39 0.02,0.91 3.9,1.3 3.91,0.33 8.01,-0.07 12.1,-0.58 5.1,-0.81 10.21,-1.76 15.54,-1.89 5.33,-0.13 5.31,1.2 5.31,2.72 0,1.32 0.02,2.71 3.83,3.17 3.72,0.54 7.73,-0.69 11.64,-1.94 4.75,-1.56 9.49,-3.31 13.61,-2.22 3.55,1.65 2.63,5.03 1.58,8.7 -0.95,3.18 -1.86,6.42 -0.44,9.26 1.23,3.04 3.32,2.81 5.31,2.6 2.34,-0.26 4.41,-0.49 4.57,4.56 0,5.2 -1.5,10.32 -2.81,15.37 -0.99,4.11 -1.84,8.19 -1.55,12.17 0.38,3.9 1.3,3.93 2.14,3.97 0.89,0.03 1.63,0.03 1.5,5.36 -0.07,5.27 -0.39,10.35 -0.56,15.38 -0.03,4.08 0.05,8.15 0.48,11.98 0.02,1.13 0.02,2.24 0.03,3.32 -0.79,-5.22 -0.92,-10.28 -0.92,-15.32 0.12,-4.06 0.36,-8.15 0.23,-12.01 -0.05,-3.95 -0.69,-3.97 -1.41,-4 -1.05,0 -2.24,-0.07 -2.94,-5.35 -0.64,-5.35 0.38,-10.45 1.53,-15.52 1.07,-4.1 2.24,-8.19 2.06,-11.99 -0.28,-3.74 -1.92,-3.64 -3.73,-3.5 -2.47,0.26 -5.08,0.53 -6.77,-3.78 -2.22,-3.78 -1.12,-7.8 -0.15,-11.55 0.66,-2.78 1.4,-5.54 -1.4,-6.75 -2.96,-1.04 -6.76,0.3 -10.61,1.58 -4.77,1.41 -9.67,2.83 -14.71,1.89 -5.19,-0.82 -5.19,-2.63 -5.19,-4.24 -0.02,-1.2 -0.03,-2.3 -3.96,-2.35 -3.95,-0.07 -8.04,0.66 -12.12,1.25 -5.1,0.63 -10.19,1.1 -15.49,0.41 -5.26,-0.74 -5.28,-1.41 -5.23,-1.93 -0.03,-0.3 -0.05,-0.49 -3.91,-0.61 1.08,0 2.22,0.02 3.34,0zm-81.37 68.91c0.76,5.21 0.89,10.28 0.9,15.33 -0.15,4.06 -0.35,8.13 -0.25,12.03 0.07,3.92 0.69,3.93 1.41,3.98 1.04,0 2.25,0.03 2.93,5.35 0.66,5.33 -0.38,10.43 -1.51,15.5 -1.04,4.06 -2.22,8.18 -2.04,11.98 0.26,3.75 1.91,3.65 3.72,3.52 2.45,-0.25 5.08,-0.54 6.77,3.77 2.19,3.82 1.08,7.83 0.1,11.6 -0.67,2.8 -1.4,5.54 1.38,6.76 2.96,1.02 6.79,-0.33 10.62,-1.58 4.75,-1.43 9.64,-2.83 14.72,-1.93 5.21,0.81 5.19,2.63 5.18,4.26 0.02,1.2 0.02,2.29 3.95,2.35 3.93,0.07 8.06,-0.66 12.15,-1.28 5.1,-0.61 10.18,-1.07 15.49,-0.41 5.26,0.76 5.24,1.45 5.26,1.91 0,0.33 -0.02,0.51 3.85,0.64 -1.08,0 -2.19,-0.02 -3.25,-0.02 -5.26,0.05 -5.31,-0.15 -5.3,-0.53 0.02,-0.41 0,-0.89 -3.88,-1.28 -3.93,-0.35 -8.01,0.05 -12.13,0.58 -5.08,0.81 -10.13,1.74 -15.47,1.88 -5.31,0.13 -5.38,-1.19 -5.36,-2.68 0,-1.32 0,-2.73 -3.8,-3.21 -3.73,-0.51 -7.73,0.69 -11.67,1.97 -4.75,1.56 -9.42,3.26 -13.56,2.19 -3.54,-1.66 -2.63,-5.04 -1.59,-8.69 0.97,-3.19 1.87,-6.42 0.46,-9.28 -1.23,-3.04 -3.32,-2.83 -5.28,-2.62 -2.35,0.28 -4.41,0.46 -4.55,-4.59 0,-5.2 1.5,-10.28 2.8,-15.32 0.97,-4.11 1.84,-8.21 1.51,-12.16 -0.35,-3.93 -1.28,-3.95 -2.1,-3.97 -0.89,-0.05 -1.63,-0.1 -1.5,-5.39 0.07,-5.28 0.39,-10.32 0.56,-15.32 0.02,-4.11 -0.07,-8.16 -0.46,-12.03 -0.02,-1.1 -0.03,-2.2 -0.03,-3.32zm-0.18 -10.17c1.43,5.22 1.92,10.3 2.28,15.38 0.1,4.08 0.13,8.13 0.71,12.03 0.56,3.9 1.46,3.93 2.43,3.98 1.33,-0.03 2.84,-0.03 4.18,5.3 1.33,5.32 0.66,10.41 -0.17,15.5 -0.79,4.06 -1.71,8.18 -1.05,12 0.72,3.75 2.61,3.67 4.65,3.57 2.73,-0.25 5.62,-0.48 7.83,3.97 2.65,4.03 1.73,8.18 0.9,12.11 -0.59,2.95 -1.18,5.81 1.73,7.37 3.08,1.4 6.9,0.3 10.8,-0.74 4.8,-1.15 9.7,-2.24 14.83,-0.71 5.19,1.46 5.16,3.57 5.16,5.51 0,1.45 0,2.8 3.93,3.34 3.93,0.56 8.02,0.1 12.13,-0.26 5.1,-0.28 10.21,-0.39 15.5,0.95 5.28,1.4 5.23,2.37 5.21,3.14 -0.02,0.56 -0.02,1 3.86,1.61 -1.13,-0.02 -2.24,-0.03 -3.32,-0.03 -5.25,-0.61 -5.26,-1.1 -5.26,-1.78 0.03,-0.67 0.03,-1.4 -3.85,-2.27 -3.93,-0.82 -8.02,-0.71 -12.13,-0.44 -5.06,0.46 -10.14,1.07 -15.47,0.56 -5.31,-0.54 -5.34,-2.16 -5.34,-3.95 0.02,-1.58 0.03,-3.24 -3.78,-4.2 -3.75,-0.99 -7.78,-0.02 -11.72,1 -4.8,1.32 -9.52,2.72 -13.79,1.13 -3.75,-2.11 -2.98,-5.64 -2.09,-9.48 0.81,-3.27 1.58,-6.61 -0.18,-9.63 -1.59,-3.14 -3.88,-2.98 -6.1,-2.78 -2.61,0.25 -4.95,0.38 -5.7,-4.69 -0.66,-5.2 0.51,-10.28 1.5,-15.33 0.71,-4.08 1.3,-8.19 0.48,-12.13 -0.8,-3.95 -1.99,-3.93 -3.09,-3.95 -1.18,-0.03 -2.24,-0.07 -2.76,-5.38 -0.59,-5.26 -0.58,-10.32 -0.74,-15.34 -0.23,-4.08 -0.61,-8.18 -1.48,-12.03 -0.03,-1.09 -0.05,-2.25 -0.08,-3.36zm-0.23 -10.28c2.07,5.25 2.89,10.35 3.55,15.42 0.39,4.1 0.72,8.19 1.79,12.09 1.05,3.9 2.17,3.9 3.39,3.9 1.68,0 3.49,0 5.51,5.32 2,5.33 1.66,10.41 1.13,15.51 -0.53,4.08 -1.17,8.21 -0.03,12.04 1.2,3.77 3.32,3.69 5.57,3.6 3.02,-0.2 6.18,-0.38 8.93,4.21 3.09,4.24 2.38,8.51 1.69,12.6 -0.46,3.09 -0.97,6.12 2.09,8.03 3.19,1.78 7.07,0.89 10.98,0.08 4.87,-0.85 9.8,-1.66 14.96,0.51 5.21,2.14 5.21,4.56 5.16,6.81 -0.02,1.71 -0.02,3.27 3.9,4.33 3.91,1.05 8.06,0.87 12.17,0.79 5.11,0.05 10.24,0.26 15.54,2.27 5.26,2.07 5.25,3.34 5.21,4.43 -0.02,0.81 -0.05,1.46 3.8,2.57 -1.1,-0.03 -2.22,-0.05 -3.32,-0.08 -5.26,-1.25 -5.26,-2.04 -5.21,-3.01 0.03,-0.87 0.05,-1.86 -3.85,-3.21 -3.91,-1.33 -8.01,-1.48 -12.15,-1.5 -5.11,0.11 -10.18,0.38 -15.5,-0.81 -5.28,-1.2 -5.33,-3.13 -5.29,-5.23 0.02,-1.79 0.03,-3.72 -3.8,-5.15 -3.78,-1.45 -7.81,-0.74 -11.79,0.05 -4.85,0.99 -9.6,2.12 -14.02,0.03 -3.96,-2.55 -3.34,-6.27 -2.6,-10.25 0.66,-3.41 1.27,-6.84 -0.84,-10 -1.96,-3.27 -4.49,-3.13 -6.9,-2.96 -2.89,0.2 -5.53,0.35 -6.92,-4.75 -1.3,-5.22 -0.46,-10.33 0.21,-15.38 0.43,-4.11 0.76,-8.23 -0.56,-12.16 -1.32,-3.93 -2.76,-3.92 -4.08,-3.92 -1.51,-0.02 -2.84,-0.02 -4.04,-5.3 -1.25,-5.26 -1.58,-10.37 -2.09,-15.42 -0.51,-4.13 -1.15,-8.23 -2.5,-12.09 -0.03,-1.12 -0.05,-2.22 -0.08,-3.37zm-0.28 -10.28c2.75,5.23 3.86,10.33 4.88,15.47 0.66,4.1 1.22,8.19 2.78,12.09 1.54,3.9 2.94,3.9 4.42,3.93 1.96,-0.07 4.11,-0.05 6.81,5.28 2.66,5.31 2.63,10.4 2.45,15.55 -0.25,4.06 -0.64,8.18 0.97,12.03 1.66,3.8 4.04,3.75 6.54,3.69 3.3,-0.2 6.74,-0.33 10,4.43 3.55,4.46 3.04,8.85 2.53,13.13 -0.36,3.24 -0.79,6.43 2.43,8.69 3.32,2.14 7.23,1.48 11.2,0.91 4.9,-0.59 9.85,-1.1 15.04,1.73 5.23,2.76 5.23,5.53 5.23,8.1 -0.05,1.96 -0.05,3.8 3.86,5.35 3.91,1.55 8.04,1.63 12.18,1.81 5.11,0.38 10.21,0.9 15.5,3.6 5.28,2.73 5.28,4.33 5.26,5.73 -0.05,1.05 -0.08,1.96 3.8,3.55 -1.13,-0.03 -2.25,-0.05 -3.37,-0.08 -5.24,-1.94 -5.23,-3.04 -5.19,-4.3 0.02,-1.15 0.05,-2.35 -3.83,-4.23 -3.91,-1.83 -8.06,-2.24 -12.18,-2.52 -5.08,-0.21 -10.19,-0.26 -15.52,-2.12 -5.29,-1.87 -5.28,-4.13 -5.29,-6.53 0.03,-2.09 0.07,-4.26 -3.78,-6.14 -3.82,-1.94 -7.88,-1.5 -11.89,-0.94 -4.87,0.71 -9.7,1.58 -14.27,-1.05 -4.17,-2.99 -3.63,-6.93 -3.09,-11.06 0.49,-3.5 0.97,-7.04 -1.48,-10.35 -2.35,-3.39 -5.1,-3.31 -7.75,-3.17 -3.15,0.16 -6.08,0.26 -8.12,-4.85 -1.96,-5.23 -1.43,-10.35 -1.1,-15.42 0.16,-4.1 0.26,-8.21 -1.56,-12.14 -1.83,-3.92 -3.52,-3.93 -5.11,-3.93 -1.81,0 -3.47,0 -5.33,-5.3 -1.92,-5.28 -2.58,-10.37 -3.42,-15.45 -0.76,-4.11 -1.66,-8.19 -3.52,-12.06 -0.03,-1.12 -0.05,-2.29 -0.08,-3.41zm-0.13 -10.15c3.4,5.23 4.82,10.32 6.08,15.38 0.9,4.08 1.71,8.18 3.76,12.09 2.04,3.9 3.7,3.9 5.46,3.93 2.32,0 4.8,0.03 8.17,5.33 3.34,5.32 3.6,10.4 3.71,15.48 -0.02,4.08 -0.15,8.19 1.94,12.09 2.14,3.82 4.75,3.75 7.5,3.72 3.6,-0.11 7.32,-0.23 11.1,4.67 4.01,4.67 3.65,9.2 3.3,13.62 -0.26,3.41 -0.52,6.75 2.84,9.35 3.45,2.5 7.37,2.07 11.33,1.71 4.95,-0.31 9.92,-0.53 15.13,2.93 5.26,3.41 5.28,6.47 5.25,9.39 0.02,2.24 0.03,4.36 3.96,6.4 3.91,2.04 7.99,2.37 12.09,2.8 5.11,0.66 10.18,1.5 15.47,4.85 5.28,3.39 5.29,5.33 5.29,7.08 0.03,1.33 0.03,2.55 3.95,4.61 -1.15,-0.02 -2.27,-0.03 -3.37,-0.07 -5.26,-2.58 -5.26,-4.01 -5.28,-5.64 0.02,-1.4 -0.02,-2.91 -3.91,-5.26 -3.93,-2.3 -7.97,-2.96 -12.12,-3.49 -5.06,-0.5 -10.16,-0.87 -15.47,-3.42 -5.29,-2.53 -5.31,-5.12 -5.33,-7.88 0.03,-2.34 0,-4.77 -3.85,-7.14 -3.83,-2.42 -7.88,-2.15 -11.92,-1.86 -4.9,0.43 -9.75,1.02 -14.47,-2.12 -4.41,-3.46 -4.01,-7.59 -3.63,-11.88 0.36,-3.59 0.66,-7.27 -2.14,-10.71 -2.71,-3.52 -5.67,-3.42 -8.57,-3.36 -3.45,0.1 -6.68,0.21 -9.34,-4.95 -2.61,-5.25 -2.42,-10.4 -2.37,-15.43 -0.08,-4.08 -0.26,-8.19 -2.57,-12.14 -2.32,-3.92 -4.29,-3.9 -6.15,-3.93 -2.17,-0.05 -4.14,-0.03 -6.69,-5.31 -2.58,-5.28 -3.57,-10.43 -4.67,-15.43 -1.02,-4.1 -2.12,-8.21 -4.45,-12.08 -0.02,-1.1 -0.03,-2.2 -0.05,-3.32zm0.39 -9.64c4.01,5.22 5.56,10.09 7.04,15.05 1.07,4 2.07,8.05 4.6,11.95 2.52,3.9 4.51,3.95 6.59,4.03 2.68,0.05 5.61,0.2 9.6,5.46 3.98,5.26 4.44,10.25 4.83,15.27 0.18,4.05 0.3,8.13 2.85,12.03 2.6,3.83 5.47,3.82 8.48,3.8 3.86,-0.05 7.91,-0.1 12.17,4.92 4.42,4.84 4.23,9.51 4.04,14.05 -0.15,3.55 -0.31,7.04 3.19,9.99 3.57,2.88 7.5,2.63 11.49,2.48 4.92,-0.05 9.86,-0.05 15.08,4 5.23,4.05 5.29,7.5 5.31,10.78 0.05,2.52 0.13,4.94 4.03,7.47 3.91,2.53 7.93,3.06 11.99,3.67 4.98,0.94 9.91,1.94 15.17,5.92 5.25,4 5.41,6.42 5.51,8.57 0.1,1.66 0.2,3.21 4.09,5.74 -1.13,0.02 -2.27,0 -3.35,-0.02 -5.29,-3.24 -5.29,-5.03 -5.34,-7.02 -0.1,-1.74 -0.17,-3.55 -4.03,-6.38 -3.91,-2.78 -7.96,-3.64 -11.97,-4.34 -5.05,-0.77 -10.13,-1.45 -15.44,-4.66 -5.28,-3.22 -5.29,-6.12 -5.29,-9.23 -0.07,-2.63 -0.07,-5.35 -3.91,-8.19 -3.86,-2.83 -7.91,-2.83 -11.87,-2.75 -5,0.2 -9.9,0.51 -14.75,-3.16 -4.62,-3.9 -4.34,-8.21 -4.09,-12.64 0.21,-3.73 0.36,-7.45 -2.75,-11.04 -3.07,-3.64 -6.28,-3.62 -9.39,-3.55 -3.76,0.03 -7.32,0.08 -10.6,-5.12 -3.26,-5.27 -3.36,-10.37 -3.58,-15.34 -0.3,-4.06 -0.67,-8.1 -3.45,-12.01 -2.79,-3.9 -5.08,-3.97 -7.23,-4.03 -2.56,-0.12 -4.9,-0.13 -8.11,-5.41 -3.22,-5.3 -4.49,-10.36 -5.8,-15.3 -1.2,-4.03 -2.48,-8.01 -5.29,-11.86 0.03,-1.05 0.08,-2.14 0.2,-3.13zm1.64 -8.36c4.55,5.1 5.97,9.51 7.38,14.12 1.17,3.83 2.25,7.69 5.23,11.57 2.99,3.83 5.36,4.03 7.76,4.23 3.26,0.26 6.71,0.63 11.26,5.78 4.52,5.15 5.06,9.86 5.54,14.69 0.38,3.93 0.64,7.9 3.63,11.78 3.04,3.82 6.2,3.87 9.47,3.9 4.19,0.03 8.53,0.08 13.19,5.12 4.75,4.95 4.69,9.66 4.64,14.33 -0.07,3.67 -0.15,7.3 3.45,10.58 3.67,3.19 7.61,3.14 11.57,3.16 4.83,0.1 9.67,0.23 14.78,4.82 5.13,4.56 5.31,8.47 5.49,12.17 0.08,2.85 0.2,5.59 4.06,8.6 3.88,2.98 7.81,3.64 11.72,4.39 4.67,0.95 9.27,1.93 14.4,6.45 5.15,4.56 5.61,7.62 6.05,10.36 0.2,2.07 0.43,4.02 4.29,7.01 -0.95,0.13 -1.96,0.25 -3.01,0.28 -5.26,-3.87 -5.46,-6.15 -5.74,-8.65 -0.2,-2.14 -0.43,-4.39 -4.26,-7.63 -3.83,-3.24 -7.68,-4.13 -11.56,-4.97 -4.87,-0.89 -9.77,-1.76 -15.06,-5.61 -5.24,-3.87 -5.36,-7.16 -5.47,-10.69 -0.08,-2.93 -0.16,-5.97 -3.96,-9.23 -3.82,-3.26 -7.78,-3.41 -11.76,-3.47 -4.9,-0.02 -9.8,0.08 -14.76,-4.1 -4.82,-4.33 -4.69,-8.78 -4.57,-13.39 0.1,-3.8 0.15,-7.6 -3.27,-11.25 -3.37,-3.7 -6.82,-3.72 -10.16,-3.73 -4.08,0 -7.94,-0.02 -11.84,-5.23 -3.9,-5.25 -4.21,-10.23 -4.64,-15.14 -0.44,-3.93 -0.94,-7.82 -4.16,-11.67 -3.24,-3.83 -5.9,-4.03 -8.4,-4.2 -3.01,-0.2 -5.8,-0.36 -9.65,-5.63 -3.86,-5.28 -5.25,-10.12 -6.66,-14.88 -1.28,-3.85 -2.55,-7.57 -5.79,-11.37 0.26,-0.82 0.51,-1.65 0.79,-2.5zm3.86 -6.17c4.95,4.87 5.97,8.62 7.12,12.59 0.84,3.27 1.86,6.81 5.25,10.6 3.39,3.77 6.18,4.11 9.19,4.64 3.85,0.56 7.92,1.2 12.87,6.09 4.93,4.89 5.38,9.2 5.85,13.62 0.3,3.65 0.62,7.49 4.03,11.27 3.4,3.77 6.87,3.82 10.44,3.97 4.49,0.13 9.11,0.21 14.04,5.13 4.93,4.9 4.93,9.59 4.93,14.33 0,3.78 0,7.54 3.67,11.04 3.68,3.49 7.55,3.56 11.36,3.6 4.67,0.17 9.22,0.35 14.11,5.3 4.88,4.95 5.24,9.31 5.56,13.49 0.31,3.31 0.53,6.43 4.31,9.82 3.78,3.39 7.43,4.08 10.9,4.64 4.24,0.81 8.25,1.56 13.12,6.52 4.88,4.95 5.82,8.7 6.61,12.21 0.72,2.78 1.18,5.22 4.98,8.61 -0.85,0.28 -1.68,0.54 -2.5,0.81 -5.16,-4.46 -5.72,-7.37 -6.2,-10.43 -0.66,-2.83 -1.3,-5.71 -4.98,-9.26 -3.67,-3.59 -7.02,-4.3 -10.46,-4.9 -4.59,-0.94 -9.16,-1.81 -14.35,-6.24 -5.15,-4.44 -5.42,-8.23 -5.61,-12.14 -0.28,-3.37 -0.51,-6.81 -4.16,-10.4 -3.7,-3.57 -7.43,-3.74 -11.21,-3.83 -4.83,-0.15 -9.6,-0.21 -14.63,-4.81 -4.92,-4.69 -4.92,-9.3 -4.88,-14 0.02,-3.83 0.02,-7.67 -3.6,-11.3 -3.58,-3.67 -7.27,-3.72 -10.9,-3.8 -4.34,-0.07 -8.57,-0.15 -13,-5.28 -4.46,-5.18 -4.87,-9.97 -5.43,-14.64 -0.35,-3.62 -0.77,-7.19 -4.32,-10.88 -3.58,-3.69 -6.74,-4.08 -9.83,-4.56 -3.47,-0.36 -6.81,-0.76 -11.23,-5.91 -4.45,-5.18 -5.74,-9.67 -7.14,-14.08 -0.92,-3.22 -1.87,-6.43 -5.46,-10.07 0.44,-0.64 0.9,-1.28 1.56,-1.73zm6.72 -3.28c5.15,4.44 5.69,7.36 6.18,10.41 0.66,2.83 1.3,5.71 4.97,9.28 3.68,3.55 7.05,4.26 10.46,4.9 4.57,0.94 9.18,1.81 14.35,6.24 5.16,4.44 5.41,8.21 5.62,12.14 0.28,3.36 0.51,6.8 4.17,10.38 3.68,3.57 7.42,3.74 11.18,3.85 4.83,0.15 9.63,0.2 14.63,4.82 4.93,4.69 4.92,9.28 4.9,14 0,3.82 -0.02,7.65 3.58,11.29 3.6,3.67 7.3,3.72 10.93,3.8 4.34,0.05 8.55,0.13 13.04,5.26 4.42,5.2 4.87,9.94 5.38,14.66 0.36,3.6 0.77,7.19 4.32,10.88 3.57,3.69 6.74,4.1 9.83,4.58 3.49,0.35 6.84,0.74 11.24,5.91 4.46,5.18 5.74,9.64 7.15,14.05 0.9,3.24 1.86,6.43 5.44,10.1 -0.43,0.63 -0.89,1.25 -1.56,1.73 -4.95,-4.9 -5.99,-8.64 -7.14,-12.6 -0.82,-3.27 -1.84,-6.81 -5.23,-10.6 -3.4,-3.78 -6.18,-4.11 -9.21,-4.64 -3.85,-0.56 -7.91,-1.22 -12.87,-6.09 -4.93,-4.89 -5.38,-9.18 -5.84,-13.66 -0.3,-3.65 -0.63,-7.47 -4.03,-11.24 -3.42,-3.77 -6.86,-3.83 -10.46,-3.97 -4.51,-0.11 -9.11,-0.21 -14.04,-5.12 -4.93,-4.9 -4.93,-9.61 -4.97,-14.33 0.02,-3.78 0.03,-7.55 -3.63,-11.06 -3.7,-3.49 -7.55,-3.55 -11.36,-3.62 -4.67,-0.15 -9.22,-0.35 -14.07,-5.3 -4.9,-4.95 -5.26,-9.31 -5.57,-13.51 -0.33,-3.29 -0.56,-6.4 -4.32,-9.8 -3.8,-3.39 -7.46,-4.05 -10.9,-4.64 -4.24,-0.79 -8.24,-1.55 -13.1,-6.5 -4.88,-4.95 -5.84,-8.7 -6.63,-12.21 -0.72,-2.8 -1.2,-5.23 -4.96,-8.62 0.82,-0.26 1.64,-0.53 2.5,-0.79zm8.76 -1.27c5.24,3.88 5.44,6.14 5.72,8.64 0.2,2.14 0.44,4.43 4.27,7.67 3.82,3.22 7.68,4.1 11.56,4.95 4.83,0.91 9.77,1.76 15.04,5.63 5.26,3.85 5.36,7.16 5.49,10.68 0.08,2.93 0.18,5.97 3.98,9.25 3.8,3.28 7.78,3.37 11.72,3.47 4.9,0 9.81,-0.06 14.78,4.11 4.83,4.31 4.67,8.77 4.55,13.39 -0.08,3.78 -0.11,7.58 3.29,11.24 3.39,3.69 6.82,3.73 10.19,3.72 4.04,-0.02 7.92,0.02 11.85,5.23 3.88,5.26 4.21,10.2 4.62,15.14 0.43,3.97 0.92,7.83 4.13,11.7 3.25,3.82 5.92,4.02 8.43,4.18 2.99,0.18 5.8,0.38 9.65,5.64 3.88,5.26 5.23,10.08 6.66,14.87 1.28,3.85 2.55,7.57 5.8,11.37 -0.28,0.86 -0.54,1.7 -0.79,2.5 -4.59,-5.1 -6,-9.53 -7.4,-14.13 -1.17,-3.83 -2.25,-7.69 -5.24,-11.55 -2.99,-3.88 -5.33,-4.06 -7.74,-4.24 -3.27,-0.26 -6.73,-0.63 -11.29,-5.76 -4.51,-5.17 -5.05,-9.87 -5.54,-14.69 -0.33,-3.98 -0.61,-7.95 -3.6,-11.8 -3.04,-3.83 -6.21,-3.88 -9.47,-3.92 -4.23,-0.03 -8.55,-0.07 -13.22,-5.1 -4.75,-4.95 -4.7,-9.66 -4.67,-14.32 0.07,-3.69 0.18,-7.32 -3.42,-10.58 -3.65,-3.22 -7.65,-3.16 -11.59,-3.17 -4.82,-0.11 -9.68,-0.25 -14.75,-4.82 -5.13,-4.57 -5.31,-8.51 -5.51,-12.21 -0.11,-2.83 -0.21,-5.56 -4.08,-8.56 -3.88,-3 -7.83,-3.67 -11.7,-4.44 -4.69,-0.94 -9.29,-1.89 -14.42,-6.43 -5.15,-4.56 -5.62,-7.6 -6.03,-10.4 -0.23,-2.04 -0.44,-3.98 -4.27,-6.98 0.95,-0.11 1.91,-0.25 2.99,-0.28zm9.85 -0.2c5.25,3.26 5.21,5.02 5.31,7.03 0.08,1.76 0.18,3.59 4.06,6.4 3.9,2.78 7.92,3.62 11.94,4.34 5.01,0.76 10.14,1.45 15.44,4.67 5.31,3.19 5.28,6.1 5.33,9.21 0.03,2.63 0.08,5.36 3.93,8.21 3.85,2.86 7.88,2.81 11.85,2.75 4.95,-0.2 9.91,-0.53 14.73,3.18 4.64,3.88 4.34,8.18 4.09,12.65 -0.2,3.7 -0.35,7.47 2.76,11.04 3.07,3.63 6.3,3.57 9.42,3.52 3.75,-0.05 7.28,-0.1 10.62,5.1 3.26,5.26 3.37,10.33 3.57,15.37 0.28,4.05 0.66,8.13 3.44,12.04 2.81,3.9 5.08,3.93 7.27,4 2.55,0.1 4.9,0.11 8.09,5.43 3.24,5.28 4.5,10.35 5.84,15.29 1.18,4.01 2.47,8.04 5.28,11.93 -0.03,1.04 -0.08,2.07 -0.22,3.08 -4.01,-5.25 -5.57,-10.14 -7.02,-15.07 -1.09,-4.03 -2.07,-8.05 -4.62,-11.95 -2.53,-3.9 -4.51,-3.98 -6.58,-4.03 -2.71,-0.1 -5.64,-0.21 -9.64,-5.48 -3.98,-5.27 -4.44,-10.27 -4.82,-15.27 -0.2,-4.08 -0.26,-8.14 -2.84,-12.01 -2.61,-3.83 -5.51,-3.85 -8.5,-3.8 -3.9,0.02 -7.91,0.07 -12.18,-4.92 -4.42,-4.85 -4.23,-9.53 -4.04,-14.05 0.13,-3.57 0.31,-7.06 -3.19,-10 -3.57,-2.86 -7.53,-2.65 -11.49,-2.48 -4.93,0.03 -9.88,0.03 -15.06,-4.03 -5.23,-4.03 -5.33,-7.5 -5.33,-10.76 -0.1,-2.5 -0.13,-4.93 -4.04,-7.47 -3.91,-2.53 -7.97,-3.04 -11.97,-3.69 -5.01,-0.94 -9.93,-1.91 -15.17,-5.91 -5.25,-4.02 -5.46,-6.42 -5.54,-8.59 -0.08,-1.66 -0.18,-3.19 -4.06,-5.74 1.07,-0.02 2.2,0 3.35,0.02zm10.14 0.17c5.24,2.6 5.21,4.02 5.24,5.63 0.02,1.41 0.03,2.93 3.91,5.28 3.91,2.3 8.02,2.95 12.12,3.47 5.05,0.53 10.18,0.89 15.5,3.44 5.29,2.54 5.28,5.13 5.29,7.87 0,2.35 0.03,4.79 3.88,7.17 3.83,2.42 7.88,2.17 11.87,1.88 4.92,-0.44 9.81,-1.04 14.5,2.14 4.42,3.44 4.03,7.55 3.63,11.83 -0.34,3.62 -0.64,7.29 2.15,10.75 2.73,3.52 5.71,3.41 8.58,3.32 3.43,-0.12 6.67,-0.21 9.37,4.95 2.61,5.25 2.42,10.37 2.37,15.43 0.08,4.1 0.25,8.24 2.55,12.18 2.33,3.91 4.27,3.91 6.15,3.91 2.15,0.03 4.16,0.02 6.69,5.33 2.58,5.28 3.57,10.38 4.67,15.43 1.02,4.11 2.15,8.21 4.49,12.11 0.02,1.09 0.03,2.2 0.05,3.31 -3.42,-5.25 -4.85,-10.33 -6.12,-15.4 -0.9,-4.11 -1.69,-8.19 -3.76,-12.09 -2.02,-3.93 -3.71,-3.93 -5.44,-3.93 -2.35,0 -4.83,-0.03 -8.2,-5.33 -3.34,-5.32 -3.6,-10.41 -3.7,-15.5 0.02,-4.11 0.17,-8.23 -1.94,-12.08 -2.15,-3.83 -4.77,-3.8 -7.51,-3.72 -3.62,0.1 -7.35,0.2 -11.13,-4.69 -3.99,-4.67 -3.65,-9.23 -3.3,-13.61 0.25,-3.41 0.54,-6.76 -2.81,-9.36 -3.45,-2.52 -7.42,-2.07 -11.34,-1.71 -4.98,0.3 -9.98,0.53 -15.16,-2.95 -5.26,-3.42 -5.26,-6.5 -5.21,-9.41 -0.05,-2.22 -0.07,-4.33 -3.96,-6.38 -3.93,-2.04 -8.04,-2.35 -12.12,-2.78 -5.13,-0.69 -10.21,-1.53 -15.5,-4.89 -5.28,-3.39 -5.29,-5.32 -5.26,-7.08 -0.02,-1.33 -0.02,-2.55 -3.91,-4.59 1.1,0.02 2.22,0.05 3.37,0.07zm10.31 0.26c5.21,1.94 5.16,3.03 5.16,4.31 -0.03,1.1 -0.05,2.35 3.85,4.21 3.9,1.83 8.04,2.2 12.17,2.52 5.08,0.2 10.23,0.26 15.54,2.14 5.31,1.86 5.26,4.11 5.26,6.55 -0.02,2.06 0,4.21 3.83,6.14 3.8,1.93 7.86,1.45 11.85,0.94 4.85,-0.72 9.75,-1.59 14.27,1.05 4.21,3 3.65,6.89 3.11,11.04 -0.51,3.5 -0.95,7.06 1.51,10.35 2.34,3.41 5.11,3.27 7.76,3.14 3.12,-0.15 6.08,-0.26 8.14,4.87 1.94,5.25 1.43,10.32 1.08,15.4 -0.18,4.13 -0.25,8.24 1.56,12.18 1.83,3.93 3.52,3.93 5.1,3.91 1.82,0.02 3.5,0.02 5.34,5.33 1.92,5.28 2.6,10.35 3.42,15.4 0.79,4.15 1.66,8.26 3.53,12.13 0.03,1.17 0.07,2.27 0.1,3.39 -2.76,-5.25 -3.91,-10.35 -4.88,-15.48 -0.67,-4.1 -1.23,-8.19 -2.81,-12.08 -1.54,-3.91 -2.93,-3.93 -4.41,-3.93 -2,0.05 -4.13,0.03 -6.82,-5.3 -2.66,-5.32 -2.65,-10.41 -2.47,-15.52 0.28,-4.13 0.67,-8.23 -0.94,-12.09 -1.68,-3.78 -4.06,-3.73 -6.58,-3.63 -3.3,0.16 -6.72,0.3 -10,-4.46 -3.57,-4.46 -3.04,-8.85 -2.55,-13.1 0.36,-3.26 0.77,-6.45 -2.43,-8.71 -3.34,-2.12 -7.27,-1.46 -11.2,-0.89 -4.92,0.58 -9.9,1.09 -15.04,-1.76 -5.25,-2.78 -5.25,-5.51 -5.21,-8.1 -0.02,-1.94 0.02,-3.8 -3.91,-5.33 -3.91,-1.55 -8.06,-1.63 -12.15,-1.83 -5.13,-0.36 -10.24,-0.91 -15.54,-3.6 -5.29,-2.73 -5.28,-4.31 -5.21,-5.74 0,-1.05 0.05,-1.97 -3.83,-3.54 1.1,0.03 2.22,0.07 3.39,0.08zm10.23 0.25c5.23,1.27 5.21,2.06 5.16,3.01 0,0.87 -0.03,1.88 3.86,3.22 3.91,1.32 8.06,1.45 12.13,1.5 5.11,-0.11 10.22,-0.39 15.54,0.81 5.31,1.19 5.29,3.13 5.28,5.22 -0.02,1.83 0,3.72 3.81,5.17 3.76,1.46 7.81,0.74 11.79,-0.05 4.83,-0.99 9.63,-2.12 14.04,-0.02 3.96,2.55 3.3,6.28 2.6,10.23 -0.66,3.39 -1.25,6.83 0.84,9.99 1.99,3.28 4.51,3.13 6.94,2.96 2.88,-0.18 5.53,-0.36 6.92,4.76 1.32,5.21 0.48,10.32 -0.2,15.37 -0.44,4.13 -0.79,8.24 0.51,12.19 1.36,3.9 2.8,3.9 4.11,3.91 1.5,0.03 2.86,0.02 4.04,5.32 1.25,5.26 1.59,10.35 2.09,15.42 0.53,4.11 1.13,8.21 2.53,12.06 0.02,1.15 0.05,2.25 0.08,3.37 -2.1,-5.25 -2.93,-10.32 -3.57,-15.38 -0.41,-4.11 -0.72,-8.21 -1.81,-12.09 -1.04,-3.93 -2.17,-3.93 -3.39,-3.91 -1.68,0.02 -3.49,-0.02 -5.52,-5.33 -1.99,-5.33 -1.63,-10.43 -1.1,-15.5 0.52,-4.13 1.17,-8.24 0.03,-12.08 -1.22,-3.75 -3.34,-3.69 -5.59,-3.57 -3.06,0.2 -6.2,0.36 -8.94,-4.23 -3.11,-4.24 -2.4,-8.51 -1.71,-12.57 0.43,-3.09 0.95,-6.15 -2.12,-8.05 -3.19,-1.78 -7.09,-0.87 -10.95,-0.08 -4.92,0.87 -9.85,1.66 -14.96,-0.53 -5.23,-2.14 -5.23,-4.54 -5.16,-6.81 -0.03,-1.68 -0.03,-3.28 -3.95,-4.33 -3.93,-1.04 -8.05,-0.84 -12.12,-0.79 -5.16,-0.05 -10.26,-0.25 -15.55,-2.27 -5.28,-2.07 -5.26,-3.34 -5.2,-4.43 -0.02,-0.79 0.02,-1.48 -3.85,-2.57 1.1,0.03 2.22,0.07 3.37,0.08zm10.18 0.13c5.21,0.63 5.23,1.14 5.23,1.8 -0.02,0.64 -0.03,1.38 3.85,2.24 3.9,0.84 8.04,0.71 12.13,0.46 5.1,-0.46 10.18,-1.07 15.49,-0.53 5.33,0.51 5.33,2.16 5.31,3.95 0,1.58 0,3.22 3.8,4.16 3.76,1 7.79,0.03 11.74,-0.99 4.78,-1.28 9.55,-2.72 13.81,-1.12 3.75,2.11 2.98,5.63 2.07,9.44 -0.79,3.28 -1.55,6.63 0.2,9.63 1.63,3.14 3.91,2.96 6.13,2.76 2.6,-0.25 4.95,-0.36 5.74,4.71 0.66,5.2 -0.51,10.25 -1.54,15.32 -0.69,4.1 -1.28,8.21 -0.48,12.17 0.84,3.92 2.02,3.92 3.09,3.92 1.22,0.03 2.27,0.08 2.8,5.41 0.59,5.27 0.58,10.28 0.74,15.3 0.23,4.11 0.59,8.21 1.5,12.06 0.02,1.15 0.05,2.25 0.07,3.36 -1.43,-5.23 -1.91,-10.32 -2.25,-15.4 -0.15,-4.06 -0.18,-8.14 -0.77,-12.03 -0.54,-3.93 -1.43,-3.93 -2.4,-3.98 -1.36,0.05 -2.84,0 -4.21,-5.3 -1.33,-5.33 -0.64,-10.42 0.18,-15.5 0.82,-4.11 1.73,-8.21 1.07,-12.03 -0.74,-3.73 -2.63,-3.65 -4.67,-3.55 -2.75,0.25 -5.64,0.48 -7.86,-3.97 -2.65,-4.03 -1.73,-8.16 -0.92,-12.06 0.58,-2.96 1.19,-5.84 -1.73,-7.41 -3.08,-1.4 -6.92,-0.28 -10.79,0.74 -4.82,1.15 -9.77,2.25 -14.85,0.69 -5.21,-1.46 -5.18,-3.57 -5.16,-5.49 0,-1.45 -0.02,-2.78 -3.93,-3.36 -3.93,-0.54 -8.06,-0.07 -12.13,0.26 -5.11,0.28 -10.24,0.4 -15.54,-0.95 -5.26,-1.4 -5.23,-2.35 -5.18,-3.14 -0.02,-0.56 0,-1 -3.86,-1.59 1.1,0.02 2.2,0.02 3.34,0.02z"/></g><text x="0" y="179.48" fill="#000000" font-size="5px" font-weight="bold" font-family="'Helvetica Neue', Helvetica, Arial-Unicode, Arial, Sans-serif">Created by BÖCK</text><text x="0" y="184.48" fill="#000000" font-size="5px" font-weight="bold" font-family="'Helvetica Neue', Helvetica, Arial-Unicode, Arial, Sans-serif">from the Noun Project</text></svg>