<svg xmlns="http://www.w3.org/2000/svg" xmlns:xlink="http://www.w3.org/1999/xlink" version="1.1" x="0px" y="0px" viewBox="0 0 29 37.5" xml:space="preserve"><g transform="translate(-510 -200)"><g xmlns="http://www.w3.org/2000/svg" xmlns:xlink="http://www.w3.org/1999/xlink"><path d="M510,202v27h29v-27H510z M537.192,203l-5.37,5H525v-5H537.192z M532,215h-6.229l6.229-5.801V215z M517,216h6.229    L517,221.799V216z M525,209h5.748L525,214.352V209z M524,214.352L518.252,209H524V214.352z M517,209.199l6.229,5.801H517V209.199z     M524,216.648V222h-5.748L524,216.648z M525,216.648l5.748,5.352H525V216.648z M532,221.799L525.771,216H532V221.799z M524,203v5    h-6.822l-5.37-5H524z M511,203.613l5,4.656V215h-5V203.613z M511,216h5v6.73l-5,4.654V216z M511.808,228l5.37-5H524v5H511.808z     M525,228v-5h6.822l5.37,5H525z M538,227.385l-5-4.654V216h5V227.385z M538,215h-5v-6.73l5-4.656V215z"/></g></g><text x="0" y="45" fill="#000000" font-size="5px" font-weight="bold" font-family="'Helvetica Neue', Helvetica, Arial-Unicode, Arial, Sans-serif">Created by Hea Poh Lin</text><text x="0" y="50" fill="#000000" font-size="5px" font-weight="bold" font-family="'Helvetica Neue', Helvetica, Arial-Unicode, Arial, Sans-serif">from the Noun Project</text></svg>