<svg xmlns="http://www.w3.org/2000/svg" data-name="Layer 1" viewBox="0 0 5 6.25" x="0px" y="0px"><title>abstract flower</title><path d="M4.61609,2.50257c-.14346.14237-.2942.28916-.44158.43926-.09685.09864-.19037.20068-.2826.30369a.46206.46206,0,0,1-.3545.15581c-.05772.00088-.11546.00015-.16419.00015V3.6998h.62394v.30151h-.0598q-.429,0-.858.00032c-.06818.00014-.13671.00841-.20444.00375a.40172.40172,0,0,1-.2518-.11894c-.05189-.04952-.10115-.10179-.145-.14612l-.2.21706.44645.43826-.23031.22005c-.07322-.07581-.15474-.16183-.238-.24607q-.19789-.20013-.39813-.39792c-.02593-.02556-.05879-.04392-.08684-.06751A.44812.44812,0,0,1,1.60186,3.551c-.00051-.0628-.00009-.1256-.00009-.17935H1.3039v.62583H1.00339c-.00085-.01706-.00255-.03542-.00256-.05379-.00017-.27372.00032-.54744-.00053-.82115-.00015-.04894-.00508-.09791-.00873-.1468a.45048.45048,0,0,1,.13661-.36714c.04568-.0458.093-.09.13468-.13022l-.21807-.20073-.43734.445L.38391,2.4985c.08429-.08227.17358-.16827.26157-.25558q.19425-.19274.38671-.38727a.588.588,0,0,0,.052-.06587.43753.43753,0,0,1,.35866-.188c.06468-.00139.12942-.00023.18716-.00023V1.3004H1.00383V1.00088h.05959c.26845,0,.53691.00042.80536-.00037.0507-.00015.10147-.00394.15205-.00805a.44845.44845,0,0,1,.37256.13531c.04552.046.08947.09359.129.135l.20955-.226L2.2844.59425,2.497.38432c.03514.03418.074.07107.11183.10892.16252.16248.32412.32589.48754.48746.04088.04042.08686.07575.13122.11255a.44482.44482,0,0,1,.173.34055c.002.06813.00035.13637.00035.19651H3.701V1.00459h.30061q0,.03015,0,.06037c0,.25968-.00047.51936.0003.779.00017.056.00266.1122.00777.168a.45336.45336,0,0,1-.14084.38594c-.04522.04383-.0899.08822-.12818.12582l.22189.20366L4.402,2.2796Zm-.91361-.45608a.13338.13338,0,0,0-.13809-.12767c-.07236-.001-.16248.06972-.16317.12806a.15065.15065,0,1,0,.30125-.00039ZM2.95525,3.40177a.15108.15108,0,0,0-.1544.14624.15468.15468,0,0,0,.15965.15272A.13344.13344,0,0,0,3.084,3.56362C3.08519,3.49188,3.01388,3.40228,2.95525,3.40177ZM1.30188,2.95037a.13229.13229,0,0,0,.138.13279c.07237.00016.16112-.07144.16166-.13043a.14961.14961,0,0,0-.14914-.15107A.14772.14772,0,0,0,1.30188,2.95037Zm.89873-1.50089a.15141.15141,0,0,0-.15632-.14991.13377.13377,0,0,0-.12475.14128c.00052.06845.07223.15938.12644.16032A.15235.15235,0,0,0,2.20061,1.44948Zm1.32608,1.352a.10074.10074,0,0,0-.11385.1139.14941.14941,0,0,0,.14888.15075.1371.1371,0,0,0,.14066-.11353C3.70416,2.86241,3.63356,2.80168,3.52668,2.80149ZM1.47781,2.201c.07368.00053.112-.03945.11195-.11684a.14662.14662,0,0,0-.1451-.14825.13162.13162,0,0,0-.14292.1143C1.30111,2.142,1.3691,2.2002,1.47781,2.201Zm1.323-.72512a.103.103,0,0,0,.11586.11363.15051.15051,0,0,0,.15079-.14959.13534.13534,0,0,0-.1142-.14007A.157.157,0,0,0,2.80077,1.47587Zm-.6003,2.05381c.00046-.0801-.03605-.11742-.115-.11747a.15.15,0,0,0-.15024.14945.13586.13586,0,0,0,.11525.13851A.15208.15208,0,0,0,2.20047,3.52968Zm-.12743-1.03c-.13215,0-.26008-.00108-.388.0012-.0185.00033-.03672.01674-.04725.02189l.21563.19538Zm.40718-.86185-.19552.21321.21677.21847c0-.13243.00075-.263-.00105-.39351C2.50021,1.66156,2.48547,1.64729,2.48021,1.63786Zm.68125.64392-.22731.21771c.13,0,.25953.00091.389-.00116.016-.00026.03184-.01634.05061-.02666a1.23041,1.23041,0,0,1-.12435-.0884A1.0157,1.0157,0,0,1,3.16147,2.28178Zm-.44268.868L2.5021,2.92921c0,.13491-.00085.2652.00115.39545.00023.0152.0162.03016.02083.03821Zm.3824-1.28107-.29539.02316v.30159c.10111-.10288.19234-.19479.282-.28821A.08585.08585,0,0,0,3.10118,1.86876ZM2.1952,3.1093v-.296c-.09783.09834-.18834.18831-.27715.27993a.09205.09205,0,0,0-.01454.03876ZM1.86991,1.89965l.0235.29652h.29941c-.10151-.1001-.19309-.19121-.286-.28092A.09984.09984,0,0,0,1.86991,1.89965Zm1.23953.90589h-.296c.0996.099.19086.19057.28369.28055.01.00973.02916.0101.036.01227Z"/><text x="0" y="20" fill="#000000" font-size="5px" font-weight="bold" font-family="'Helvetica Neue', Helvetica, Arial-Unicode, Arial, Sans-serif">Created by Alice Noir</text><text x="0" y="25" fill="#000000" font-size="5px" font-weight="bold" font-family="'Helvetica Neue', Helvetica, Arial-Unicode, Arial, Sans-serif">from the Noun Project</text></svg>