<svg xmlns="http://www.w3.org/2000/svg" xmlns:xlink="http://www.w3.org/1999/xlink" version="1.1" x="0px" y="0px" viewBox="0 0 100 125" enable-background="new 0 0 100 100" xml:space="preserve"><path d="M89.73,49.354c4.898-10.929,5.002-21.44,0.233-28.952c-4.355-6.86-12.289-10.639-22.338-10.639  c-2.947,0-5.975,0.34-9.028,0.962c-2.785-0.623-5.676-0.962-8.646-0.962s-5.86,0.339-8.646,0.962  c-3.054-0.622-6.08-0.962-9.027-0.962c-10.05,0-17.982,3.778-22.338,10.64c-4.77,7.512-4.665,18.023,0.233,28.951  c-4.898,10.93-5.003,21.44-0.233,28.953c4.355,6.86,12.288,10.639,22.338,10.639c2.947,0,5.974-0.34,9.027-0.962  c2.785,0.623,5.676,0.962,8.646,0.962s5.86-0.34,8.646-0.962c3.054,0.622,6.081,0.962,9.028,0.962  c10.05,0,17.982-3.778,22.338-10.639C94.733,70.795,94.629,60.284,89.73,49.354z M55.464,15.581c1.017-0.29,2.032-0.548,3.045-0.771  c12.403,3.073,22.254,12.666,25.702,24.919C77.064,29.571,66.622,20.935,55.464,15.581z M85.312,49.354  c-6.905,14.001-20.804,26.074-35.36,31.89c-14.557-5.815-28.455-17.889-35.36-31.89c6.905-14.001,20.805-26.073,35.361-31.889  C64.509,23.281,78.408,35.354,85.312,49.354z M44.441,15.581c-11.158,5.354-21.602,13.99-28.747,24.148  c3.447-12.253,13.298-21.846,25.701-24.919C42.409,15.033,43.425,15.291,44.441,15.581z M44.441,83.129  c-1.018,0.29-2.032,0.548-3.046,0.771c-12.402-3.073-22.253-12.666-25.7-24.919C22.84,69.139,33.283,77.775,44.441,83.129z   M55.463,83.129c11.158-5.354,21.602-13.99,28.748-24.149c-3.447,12.253-13.299,21.847-25.702,24.92  C57.496,83.677,56.48,83.419,55.463,83.129z M67.626,13.764c8.631,0,15.365,3.119,18.961,8.782  c3.027,4.769,3.666,11.104,1.971,18.058C85.881,28.795,77.92,18.972,67.293,13.772C67.403,13.771,67.516,13.764,67.626,13.764z   M13.318,22.547c3.596-5.664,10.329-8.783,18.961-8.783c0.11,0,0.222,0.008,0.332,0.009c-10.627,5.2-18.588,15.023-21.264,26.832  C9.651,33.651,10.291,27.315,13.318,22.547z M32.279,84.946c-8.632,0-15.366-3.119-18.962-8.782  c-3.026-4.769-3.666-11.105-1.97-18.06c2.676,11.81,10.637,21.633,21.264,26.833C32.501,84.938,32.39,84.946,32.279,84.946z   M86.588,76.164c-3.596,5.663-10.33,8.782-18.962,8.782c-0.11,0-0.223-0.008-0.333-0.009c10.628-5.2,18.589-15.023,21.265-26.833  C90.254,65.059,89.614,71.396,86.588,76.164z"/><text x="0" y="115" fill="#000000" font-size="5px" font-weight="bold" font-family="'Helvetica Neue', Helvetica, Arial-Unicode, Arial, Sans-serif">Created by CJS</text><text x="0" y="120" fill="#000000" font-size="5px" font-weight="bold" font-family="'Helvetica Neue', Helvetica, Arial-Unicode, Arial, Sans-serif">from the Noun Project</text></svg>